<?xml version="1.0" encoding="UTF-8"?>
<svg id="Livello_2" data-name="Livello 2" xmlns="http://www.w3.org/2000/svg" xmlns:xlink="http://www.w3.org/1999/xlink" viewBox="0 0 132.14 113.93">
  <defs>
    <style>
      .cls-1, .cls-2, .cls-3 {
        fill: none;
      }

      .cls-2 {
        clip-path: url(#clippath);
      }

      .cls-3 {
        clip-path: url(#clippath-1);
      }

      .cls-4 {
        fill: #1d1d1c;
      }
    </style>
    <clipPath id="clippath">
      <rect class="cls-1" width="132.14" height="113.93"/>
    </clipPath>
    <clipPath id="clippath-1">
      <rect class="cls-1" width="132.14" height="113.93"/>
    </clipPath>
  </defs>
  <g id="appendi_asciugamani" data-name="appendi asciugamani">
    <g class="cls-2">
      <g class="cls-3">
        <path class="cls-4" d="m123.78,11.44H13.33c-1.88,0-3.75,0-5.63,0-.1,0-.19,0-.29,0-.08,0-.16,0-.24,0-.08,0-.16-.01-.24-.02-.47-.02.21,0,.2.03-.01.03-.44-.1-.5-.12-.07-.02-.14-.05-.2-.07-.43-.1.32.19.13.06-.13-.09-.28-.15-.42-.23-.06-.03-.11-.08-.17-.11-.27-.12.38.35.18.14-.11-.11-.24-.21-.34-.32-.05-.05-.09-.1-.14-.15-.32-.32.02.11.09.13-.18-.05-.41-.64-.49-.8-.03-.06-.05-.13-.09-.18-.15-.26.16.5.09.21-.04-.18-.12-.35-.17-.53-.06-.2-.06-.75-.19-.89.17.18.05.55.04.23,0-.09-.01-.19-.02-.28,0-.19-.01-.38,0-.56,0-.14.02-.28.02-.42,0-.41-.12.56,0,.02.07-.34.15-.68.26-1.01.16-.51-.05.07-.02.01.08-.14.14-.29.22-.42.08-.14.17-.27.25-.4.28-.45-.34.34.03-.03.11-.11.22-.22.33-.33.03-.03.2-.16.2-.17,0,.04-.43.28-.23.18.14-.06.27-.17.4-.25.5-.29-.26.04.05-.03.16-.04.33-.09.49-.14.51-.16-.41-.02.02-.02.16,0,.32-.02.48-.02.11,0,.21,0,.32,0,.69,0,1.37,0,2.06,0h113.08c.45,0,.9-.01,1.35.01.28.02.61.11.12,0,.19.04.38.07.56.12.18.05.35.11.53.16.07.02.33.13,0-.01-.38-.15.03.02.11.06.15.08.3.16.44.25.06.04.12.08.18.12.32.18-.24-.04-.16-.13.03-.03.67.67.72.73.04.04-.29-.45-.03,0,.07.12.14.23.2.35.04.08.3.59.11.19-.19-.39.07.22.1.33.04.13.07.26.1.39.02.09.11.66.05.2-.07-.46,0,.1,0,.21,0,.18,0,.36,0,.53,0,.12-.07.65,0,.21.07-.47-.02.1-.05.2-.04.17-.32.75-.27.89-.05-.18.25-.53,0-.04-.07.14-.16.27-.24.41-.03.06-.08.11-.11.17-.13.27.35-.38.14-.17-.11.11-.21.24-.32.36-.1.1-.21.18-.3.28-.22.23.46-.28-.06.04-.12.08-.24.15-.37.22-.08.04-.62.29-.24.13.39-.16-.19.06-.29.09-.18.05-.36.09-.55.14-.59.15.35,0-.1.02-.24.01-.48.03-.72.03-1.28.01-2.51,1.12-2.45,2.45.06,1.32,1.08,2.47,2.45,2.45,3.79-.04,7.3-2.34,8.16-6.17.77-3.46-.61-7.28-3.79-9.04C125.95-.08,123.56.05,121.16.05H13.61c-1.96,0-3.92,0-5.88,0-1.94,0-3.73.56-5.19,1.88C.05,4.19-.61,8.32.56,11.38c1.14,2.98,3.65,4.92,6.89,4.96.47,0,.94,0,1.41,0h114.91c1.28,0,2.51-1.13,2.45-2.45-.06-1.33-1.08-2.45-2.45-2.45"/>
        <path class="cls-4" d="m92.73,13.89v93.56c0,1.27-.06,2.55,0,3.81,0,.06,0,.11,0,.17l2.45-2.45h-61.19c-2.82,0-5.69-.16-8.5,0-.04,0-.08,0-.12,0l2.45,2.45V18.9c0-1.59.03-3.18,0-4.77,0-.08,0-.16,0-.24-.02-.43-.13-.86-.2-1.28.1.58-.03-.38-.04-.56-.02-.38-.03-.77,0-1.15,0-.18.03-.37.04-.55.03-.28.03-.24-.02.12.02-.12.04-.23.06-.35.07-.34.15-.67.26-1,.05-.16.11-.32.17-.47-.24.63-.04.11.03-.02.12-.24.26-.48.41-.71.08-.12.43-.55,0-.03.14-.17.28-.34.43-.5.23-.24.48-.46.73-.68-.48.43-.07.05.05-.03.14-.1.29-.19.44-.28.31-.19.63-.34.95-.51.39-.2,0,0-.07.02.24-.09.47-.18.72-.26.78-.26,1.58-.43,2.4-.57-.58.1.15-.02.23-.02.23-.02.46-.04.68-.06.48-.03.95-.04,1.43-.05,1.28,0,2.51-1.12,2.45-2.45-.06-1.32-1.08-2.46-2.45-2.45-3.72.02-7.51.83-10.4,3.3-2.54,2.17-3.65,5.62-3.41,8.89.04.56.12,1.12.2,1.67.01.07.02.14.03.21.06.36.05.28-.01-.23,0,0,0,0,0,0,0,.03,0,.07,0,.1-.01.16,0,.33,0,.49v82.32c0,4.81-.1,9.62,0,14.43,0,.07,0,.14,0,.21,0,1.32,1.12,2.45,2.45,2.45h61.19c2.83,0,5.68.09,8.5,0,.04,0,.08,0,.12,0,1.32,0,2.45-1.12,2.45-2.45V25.85c0-3.93.1-7.87,0-11.79,0-.06,0-.11,0-.17,0-1.28-1.13-2.51-2.45-2.45-1.33.06-2.45,1.08-2.45,2.45"/>
        <path class="cls-4" d="m104.37,13.89v71.7c0,3.29-.17,6.63,0,9.91,0,.05,0,.09,0,.14l2.45-2.45h-11.63c-1.28,0-2.51,1.13-2.45,2.45.06,1.33,1.08,2.45,2.45,2.45h11.63c1.32,0,2.45-1.12,2.45-2.45V23.94c0-3.3.1-6.61,0-9.91,0-.05,0-.09,0-.14,0-1.28-1.13-2.51-2.45-2.45-1.33.06-2.45,1.08-2.45,2.45"/>
        <path class="cls-4" d="m97.63,13.89c-.09-1.54-.08-3.07.06-4.61.03-.3-.09.59-.04.3,0-.06.02-.12.03-.17.02-.15.05-.3.08-.45.06-.3.13-.6.21-.89.07-.26.18-.51.26-.76.03-.09-.29.61-.08.19.07-.14.13-.28.21-.41.11-.2.24-.38.36-.57.25-.39-.43.48-.11.15.09-.1.17-.2.26-.29.15-.16.32-.29.49-.44.04-.04-.58.39-.14.12.11-.07.23-.15.34-.22.21-.12.46-.21.66-.34.01,0-.65.25-.32.14.05-.02.09-.04.14-.05.14-.05.28-.1.43-.15.58-.18,1.17-.3,1.76-.4.52-.08-.63.07,0,0,.19-.02.38-.04.57-.05.4-.03.81-.05,1.21-.06.94-.03,1.87,0,2.81.04,1.28.06,2.51-1.17,2.45-2.45-.06-1.38-1.08-2.39-2.45-2.45-3.16-.14-6.58-.1-9.45,1.39-2.49,1.29-3.95,3.84-4.39,6.54-.33,1.96-.36,3.93-.24,5.91.07,1.28,1.07,2.51,2.45,2.45,1.26-.06,2.53-1.08,2.45-2.45"/>
        <path class="cls-4" d="m25.37,97.67h61.16c2.82,0,5.65.09,8.46,0,.04,0,.08,0,.12,0,1.28,0,2.51-1.13,2.45-2.45-.06-1.33-1.08-2.45-2.45-2.45h-61.16c-2.82,0-5.65-.09-8.46,0-.04,0-.08,0-.12,0-1.28,0-2.51,1.13-2.45,2.45.06,1.33,1.08,2.45,2.45,2.45"/>
        <path class="cls-4" d="m25.11,100.52c1.28,0,2.51-1.13,2.45-2.45-.06-1.33-1.08-2.45-2.45-2.45-1.28,0-2.51,1.13-2.45,2.45.06,1.33,1.08,2.45,2.45,2.45"/>
        <path class="cls-4" d="m95.11,100.52c1.28,0,2.51-1.13,2.45-2.45-.06-1.33-1.08-2.45-2.45-2.45-1.28,0-2.51,1.13-2.45,2.45.06,1.33,1.08,2.45,2.45,2.45"/>
        <path class="cls-4" d="m94.98,78.53h-60.33c-2.79,0-5.59-.08-8.38,0-.04,0-.08,0-.12,0-1.28,0-2.51,1.13-2.45,2.45.06,1.33,1.08,2.45,2.45,2.45h60.33c2.79,0,5.59.08,8.38,0,.04,0,.08,0,.12,0,1.28,0,2.51-1.13,2.45-2.45-.06-1.33-1.08-2.45-2.45-2.45"/>
        <path class="cls-4" d="m106.82,78.53h-10.77c-1.28,0-2.51,1.13-2.45,2.45.06,1.33,1.08,2.45,2.45,2.45h10.77c1.28,0,2.51-1.13,2.45-2.45-.06-1.33-1.08-2.45-2.45-2.45"/>
        <path class="cls-4" d="m106.82,66.4h-11.63c-1.28,0-2.51,1.13-2.45,2.45.06,1.33,1.08,2.45,2.45,2.45h11.63c1.28,0,2.51-1.13,2.45-2.45-.06-1.33-1.08-2.45-2.45-2.45"/>
      </g>
    </g>
  </g>
</svg>