<?xml version="1.0" encoding="UTF-8"?>
<svg id="Livello_2" data-name="Livello 2" xmlns="http://www.w3.org/2000/svg" xmlns:xlink="http://www.w3.org/1999/xlink" viewBox="0 0 132.69 138.19">
  <defs>
    <style>
      .cls-1, .cls-2, .cls-3 {
        fill: none;
      }

      .cls-2 {
        clip-path: url(#clippath);
      }

      .cls-3 {
        clip-path: url(#clippath-1);
      }

      .cls-4 {
        fill: #1d1d1c;
      }
    </style>
    <clipPath id="clippath">
      <rect class="cls-1" x="0" y="0" width="132.69" height="138.19"/>
    </clipPath>
    <clipPath id="clippath-1">
      <rect class="cls-1" x="0" y="0" width="132.69" height="138.19"/>
    </clipPath>
  </defs>
  <g id="armadietto">
    <g class="cls-2">
      <g class="cls-3">
        <path class="cls-4" d="m131.09,135H21.92c-1.47,0-2.95-.04-4.42,0-.06,0-.13,0-.19,0l1.59,1.59V56.43c0-1.08.04-2.18,0-3.26,0-.05,0-.1,0-.14l-1.59,1.59h109.17c1.47,0,2.95.04,4.42,0,.06,0,.13,0,.19,0l-1.59-1.59v80.16c0,1.09-.02,2.18,0,3.26,0,.05,0,.09,0,.14,0,.86.73,1.59,1.59,1.59s1.59-.73,1.59-1.59V56.43c0-1.09.02-2.18,0-3.26,0-.05,0-.1,0-.14,0-.86-.73-1.59-1.59-1.59H21.92c-1.47,0-2.95-.02-4.42,0-.06,0-.13,0-.19,0-.86,0-1.59.73-1.59,1.59v80.16c0,1.09-.02,2.18,0,3.26,0,.05,0,.09,0,.14,0,.86.73,1.59,1.59,1.59h109.17c1.47,0,2.95.02,4.42,0,.06,0,.13,0,.19,0,.86,0,1.59-.73,1.59-1.59s-.73-1.59-1.59-1.59"/>
        <path class="cls-4" d="m50.33,81.83v12.98c0,.83.73,1.63,1.59,1.59.86-.04,1.59-.7,1.59-1.59v-12.98c0-.83-.73-1.63-1.59-1.59-.86.04-1.59.7-1.59,1.59"/>
        <path class="cls-4" d="m94.68,81.83v12.98c0,.83.73,1.63,1.59,1.59.86-.04,1.59-.7,1.59-1.59v-12.98c0-.83-.73-1.63-1.59-1.59-.86.04-1.59.7-1.59,1.59"/>
        <path class="cls-4" d="m72.61,53.02v80.18c0,1.08-.02,2.17,0,3.25,0,.05,0,.09,0,.14,0,.83.73,1.63,1.59,1.59.86-.04,1.59-.7,1.59-1.59V56.41c0-1.08.02-2.17,0-3.25,0-.05,0-.09,0-.14,0-.83-.73-1.63-1.59-1.59-.86.04-1.59.7-1.59,1.59"/>
        <path class="cls-4" d="m17.31,17c.83,0,1.63-.73,1.59-1.59-.04-.86-.7-1.59-1.59-1.59-.83,0-1.63.73-1.59,1.59.04.86.7,1.59,1.59,1.59"/>
        <path class="cls-4" d="m18.9,136.59V20.33c0-1.57.05-3.15,0-4.71,0-.07,0-.14,0-.21l-1.59,1.59h109.16c1.47,0,2.96.05,4.43,0,.06,0,.13,0,.19,0l-1.59-1.59v37.6l1.59-1.59H21.93c-1.48,0-2.96-.03-4.43,0-.06,0-.13,0-.19,0-2.05,0-2.05,3.18,0,3.18h109.16c1.48,0,2.95.03,4.43,0,.06,0,.13,0,.19,0,.86,0,1.59-.73,1.59-1.59V15.41c0-.86-.73-1.59-1.59-1.59H21.93c-1.48,0-2.96-.03-4.43,0-.06,0-.13,0-.19,0-.86,0-1.59.73-1.59,1.59v116.25c0,1.57-.03,3.14,0,4.71,0,.07,0,.14,0,.21,0,2.05,3.18,2.05,3.18,0"/>
        <path class="cls-4" d="m51.92,35.81h38.87c1.8,0,3.61.06,5.41,0,.03,0,.05,0,.07,0,.83,0,1.63-.73,1.59-1.59-.04-.86-.7-1.59-1.59-1.59h-38.87c-1.8,0-3.61-.06-5.41,0-.02,0-.05,0-.07,0-.83,0-1.63.73-1.59,1.59.04.86.7,1.59,1.59,1.59"/>
        <path class="cls-4" d="m17.31,100.57c.83,0,1.63-.73,1.59-1.59-.04-.86-.7-1.59-1.59-1.59-.83,0-1.63.73-1.59,1.59.04.86.7,1.59,1.59,1.59"/>
        <path class="cls-4" d="m132.21,14.29c-3.64-3.13-7.28-6.26-10.92-9.39-1.64-1.41-3.29-2.83-4.93-4.24-.41-.36-.83-.63-1.41-.65-.18,0-.37,0-.55,0H1.6C-.45,0-.45,3.18,1.6,3.18h108.81c1.47,0,2.95.06,4.42,0,.06,0,.12,0,.19,0l-1.12-.47c4.7,4.04,9.39,8.08,14.09,12.12.66.57,1.32,1.14,1.98,1.71.65.56,1.61.64,2.25,0,.57-.57.65-1.69,0-2.25"/>
        <path class="cls-4" d="m17.31,138.18c.83,0,1.63-.73,1.59-1.59-.04-.86-.7-1.59-1.59-1.59-.83,0-1.63.73-1.59,1.59.04.86.7,1.59,1.59,1.59"/>
        <path class="cls-4" d="m112.45,42.91H39.06c-.99,0-1.99-.04-2.98,0-.04,0-.09,0-.13,0l1.59,1.59v-20.57l-1.59,1.59h73.39c.99,0,1.99.04,2.98,0,.04,0,.09,0,.13,0l-1.59-1.59v20.57c0,.83.73,1.63,1.59,1.59.86-.04,1.59-.7,1.59-1.59v-20.57c0-.86-.73-1.59-1.59-1.59H39.06c-.99,0-1.99-.02-2.98,0-.04,0-.09,0-.13,0-.86,0-1.59.73-1.59,1.59v20.57c0,.86.73,1.59,1.59,1.59h73.39c.99,0,1.99.02,2.98,0,.04,0,.09,0,.13,0,.83,0,1.63-.73,1.59-1.59-.04-.86-.7-1.59-1.59-1.59"/>
        <path class="cls-4" d="m27.9,127.94V62.24c0-.89.04-1.79,0-2.68,0-.04,0-.08,0-.11l-1.59,1.59h32.81l-1.59-1.59v65.7c0,.89-.04,1.79,0,2.68,0,.04,0,.08,0,.11l1.59-1.59H26.31c-.83,0-1.63.73-1.59,1.59.04.86.7,1.59,1.59,1.59h32.81c.86,0,1.59-.73,1.59-1.59v-60.07c0-2.77.07-5.54,0-8.31,0-.04,0-.08,0-.11,0-.86-.73-1.59-1.59-1.59H26.31c-.86,0-1.59.73-1.59,1.59v60.07c0,2.77-.07,5.54,0,8.31,0,.04,0,.08,0,.11,0,.83.73,1.63,1.59,1.59.86-.04,1.59-.7,1.59-1.59"/>
        <path class="cls-4" d="m90.87,127.94V62.24c0-.89.04-1.79,0-2.68,0-.04,0-.08,0-.11l-1.59,1.59h32.81l-1.59-1.59v65.7c0,.89-.04,1.79,0,2.68,0,.04,0,.08,0,.11l1.59-1.59h-32.81c-.83,0-1.63.73-1.59,1.59.04.86.7,1.59,1.59,1.59h32.81c.86,0,1.59-.73,1.59-1.59v-60.07c0-2.77.07-5.54,0-8.31,0-.04,0-.08,0-.11,0-.86-.73-1.59-1.59-1.59h-32.81c-.86,0-1.59.73-1.59,1.59v60.07c0,2.77-.07,5.54,0,8.31,0,.04,0,.08,0,.11,0,.83.73,1.63,1.59,1.59.86-.04,1.59-.7,1.59-1.59"/>
        <path class="cls-4" d="m17.31,17c.83,0,1.63-.73,1.59-1.59-.04-.86-.7-1.59-1.59-1.59-.83,0-1.63.73-1.59,1.59.04.86.7,1.59,1.59,1.59"/>
        <path class="cls-4" d="m17.31,17c.83,0,1.63-.73,1.59-1.59-.04-.86-.7-1.59-1.59-1.59-.83,0-1.63.73-1.59,1.59.04.86.7,1.59,1.59,1.59"/>
        <path class="cls-4" d="m18.43,135.46c-1.77-1.77-3.54-3.54-5.32-5.32-2.82-2.82-5.64-5.64-8.46-8.46l-1.93-1.93c-.61-.61-1.64-.61-2.25,0-.61.61-.61,1.64,0,2.25,1.77,1.77,3.54,3.54,5.31,5.32,2.82,2.82,5.64,5.64,8.46,8.46.64.64,1.29,1.29,1.93,1.93.61.61,1.64.61,2.25,0,.61-.61.61-1.64,0-2.25"/>
        <path class="cls-4" d="m18.43,14.29c-1.77-1.56-3.54-3.11-5.31-4.67-2.82-2.48-5.64-4.96-8.46-7.44-.65-.57-1.29-1.14-1.94-1.71C1.72-.42.01.15.01,1.59v114.44c0,1.55-.02,3.09,0,4.64,0,.07,0,.13,0,.2,0,2.05,3.18,2.05,3.18,0V6.44c0-1.54.05-3.1,0-4.64,0-.07,0-.14,0-.2L.48,2.72c1.77,1.56,3.54,3.11,5.31,4.67,2.82,2.48,5.64,4.96,8.46,7.44.65.57,1.29,1.14,1.94,1.71.64.57,1.61.63,2.25,0,.58-.58.65-1.68,0-2.25"/>
      </g>
    </g>
  </g>
</svg>