<?xml version="1.0" encoding="UTF-8"?>
<svg id="Livello_2" data-name="Livello 2" xmlns="http://www.w3.org/2000/svg" xmlns:xlink="http://www.w3.org/1999/xlink" viewBox="0 0 82.71 120.67">
  <defs>
    <style>
      .cls-1, .cls-2, .cls-3 {
        fill: none;
      }

      .cls-2 {
        clip-path: url(#clippath);
      }

      .cls-3 {
        clip-path: url(#clippath-1);
      }

      .cls-4 {
        fill: #1d1d1c;
      }
    </style>
    <clipPath id="clippath">
      <rect class="cls-1" width="82.71" height="120.67"/>
    </clipPath>
    <clipPath id="clippath-1">
      <rect class="cls-1" width="82.71" height="120.67"/>
    </clipPath>
  </defs>
  <g id="armadio">
    <g class="cls-2">
      <g class="cls-3">
        <path class="cls-4" d="m81.65,118.53H4.34c-1.04,0-2.11-.08-3.15,0-.04,0-.09,0-.13,0l1.05,1.05V5.9c0-1.53.07-3.08,0-4.61,0-.07,0-.13,0-.2l-1.05,1.05h77.31c1.04,0,2.11.08,3.15,0,.04,0,.09,0,.13,0l-1.05-1.05v113.68c0,1.54-.03,3.07,0,4.61,0,.07,0,.13,0,.2,0,1.35,2.1,1.35,2.1,0V5.9c0-1.54.03-3.07,0-4.61,0-.07,0-.13,0-.2,0-.57-.48-1.05-1.05-1.05H11C7.73.04,4.46-.05,1.19.04c-.04,0-.09,0-.13,0C.5.04.01.52.01,1.09v113.68c0,1.54-.03,3.07,0,4.61,0,.07,0,.13,0,.2,0,.57.48,1.05,1.05,1.05h70.65c3.26,0,6.54.1,9.8,0,.04,0,.09,0,.13,0,1.35,0,1.35-2.1,0-2.1"/>
        <path class="cls-4" d="m40.3,1.09v70.79c0,.96-.01,1.91,0,2.87,0,.04,0,.08,0,.13,0,.57.48,1.05,1.05,1.05s1.05-.48,1.05-1.05V4.09c0-.96.01-1.91,0-2.87,0-.04,0-.08,0-.13,0-.57-.48-1.05-1.05-1.05s-1.05.48-1.05,1.05"/>
        <path class="cls-4" d="m41.35,38.77c.55,0,1.08-.48,1.05-1.05-.03-.57-.46-1.05-1.05-1.05-.55,0-1.08.48-1.05,1.05.03.57.46,1.05,1.05,1.05"/>
        <path class="cls-4" d="m49.06,30.71v7.01c0,.55.48,1.08,1.05,1.05.57-.03,1.05-.46,1.05-1.05v-7.01c0-.55-.48-1.08-1.05-1.05-.57.03-1.05.46-1.05,1.05"/>
        <path class="cls-4" d="m31.66,30.71v7.01c0,.55.48,1.08,1.05,1.05.57-.03,1.05-.46,1.05-1.05v-7.01c0-.55-.48-1.08-1.05-1.05-.57.03-1.05.46-1.05,1.05"/>
        <path class="cls-4" d="m81.65,96.18H4.33c-1.04,0-2.09-.02-3.13,0-.05,0-.09,0-.14,0-1.35,0-1.35,2.1,0,2.1h77.31c1.04,0,2.09.02,3.13,0,.05,0,.09,0,.14,0,1.35,0,1.35-2.1,0-2.1"/>
        <path class="cls-4" d="m81.65,73.83H4.33c-1.04,0-2.09-.02-3.13,0-.05,0-.09,0-.14,0-1.35,0-1.35,2.1,0,2.1h77.31c1.04,0,2.09.02,3.13,0,.05,0,.09,0,.14,0,1.35,0,1.35-2.1,0-2.1"/>
        <path class="cls-4" d="m32.65,87.48h17.4c.55,0,1.08-.48,1.05-1.05-.03-.57-.46-1.05-1.05-1.05h-17.4c-.55,0-1.08.48-1.05,1.05.03.57.46,1.05,1.05,1.05"/>
        <path class="cls-4" d="m32.65,110.54h17.4c.55,0,1.08-.48,1.05-1.05-.03-.57-.46-1.05-1.05-1.05h-17.4c-.55,0-1.08.48-1.05,1.05.03.57.46,1.05,1.05,1.05"/>
      </g>
    </g>
  </g>
</svg>