<?xml version="1.0" encoding="UTF-8"?>
<svg id="Livello_2" data-name="Livello 2" xmlns="http://www.w3.org/2000/svg" xmlns:xlink="http://www.w3.org/1999/xlink" viewBox="0 0 121.49 129.73">
  <defs>
    <style>
      .cls-1, .cls-2, .cls-3 {
        fill: none;
      }

      .cls-2 {
        clip-path: url(#clippath);
      }

      .cls-3 {
        clip-path: url(#clippath-1);
      }

      .cls-4 {
        fill: #1d1d1c;
      }
    </style>
    <clipPath id="clippath">
      <rect class="cls-1" y="0" width="121.49" height="129.73"/>
    </clipPath>
    <clipPath id="clippath-1">
      <rect class="cls-1" y="0" width="121.49" height="129.73"/>
    </clipPath>
  </defs>
  <g id="asciugatrice">
    <g class="cls-2">
      <g class="cls-3">
        <path class="cls-4" d="m2.84,124.51V25.08c0-.33-.01-.67,0-1.01.08-1.15,1.17-2.1,2.36-2.12.07,0,.15,0,.22,0,1.42,0,2.84,0,4.26,0h102.27c1.37,0,2.74,0,4.11,0,1.42,0,2.51.96,2.54,2.37,0,.29,0,.57,0,.86v98.62c0,.19,0,.37,0,.56,0,.25,0,.45-.03.59-.25,1.17-1.21,1.92-2.34,1.94-.08,0-.16,0-.25,0H6.73c-.45,0-.89,0-1.34,0-1.42,0-2.51-.96-2.54-2.37-.04-1.83-2.88-1.83-2.84,0,.06,2.92,2.39,5.19,5.3,5.21.41,0,.83,0,1.24,0h108.06c.48,0,.97,0,1.45,0,2.27,0,4.26-1.29,5.08-3.43.52-1.35.32-3.09.32-4.51V25.08c0-.39.01-.78-.02-1.17-.26-2.77-2.54-4.79-5.3-4.8-1.31,0-2.62,0-3.93,0H9.49c-1.37,0-2.75,0-4.12,0-2.35,0-4.46,1.44-5.16,3.73C0,23.54,0,24.24,0,24.97v99.55c0,1.83,2.84,1.83,2.84,0"/>
        <path class="cls-4" d="m16.91,74.48c0-1.24.05-2.48.14-3.71.05-.61.11-1.22.18-1.83.02-.15.04-.3.06-.45,0-.04.04-.31.02-.13-.02.16,0-.05,0-.07.05-.32.09-.64.14-.96.38-2.36.94-4.7,1.68-6.97.36-1.12.77-2.23,1.22-3.32.03-.08.18-.43.08-.18.06-.14.12-.27.17-.4.12-.27.24-.54.36-.8.25-.55.52-1.1.79-1.64,1.05-2.08,2.26-4.08,3.61-5.98.34-.47.68-.94,1.03-1.4-.16.21.07-.09.12-.15.09-.11.18-.23.27-.34.18-.23.36-.45.55-.67.74-.89,1.51-1.75,2.32-2.59.82-.85,1.67-1.67,2.55-2.45.43-.39.87-.76,1.32-1.13.21-.17.42-.34.63-.51.11-.09.23-.18.34-.27.05-.04.1-.08.15-.11.31-.25-.13.1.06-.04,1.85-1.41,3.8-2.69,5.83-3.81,1.04-.58,2.11-1.11,3.19-1.61.25-.11.5-.22.75-.33.13-.06.27-.12.4-.17-.25.1.15-.06.24-.1.55-.22,1.09-.44,1.65-.64,2.24-.82,4.54-1.46,6.87-1.93.59-.12,1.19-.22,1.78-.32.3-.05.6-.09.9-.13.02,0,.23-.03.07,0-.18.02.09-.01.13-.02.17-.02.35-.04.52-.06,1.22-.14,2.45-.24,3.67-.28,2.47-.09,4.95,0,7.4.3.15.02.3.04.45.06.05,0,.28.04,0,0,.06,0,.13.02.19.03.32.05.64.09.96.15.6.1,1.19.2,1.78.32,1.17.24,2.34.52,3.49.85,1.14.32,2.27.69,3.38,1.1.55.2,1.1.42,1.65.64.08.03.15.06.23.1-.02,0-.2-.09-.05-.02.13.06.27.12.4.17.27.12.54.24.8.36,2.14.98,4.2,2.13,6.17,3.42.49.32.96.65,1.44.98.22.16.44.31.65.47.12.09.23.17.35.26.05.04.1.07.15.11,0,0,.29.22.15.12-.12-.1.04.03.05.04.07.05.13.1.2.15.1.08.19.15.29.23.24.19.48.39.72.59.44.37.88.75,1.31,1.14,1.74,1.56,3.36,3.25,4.85,5.05.17.21.34.42.51.63.09.11.18.23.27.34.04.05.08.1.11.15.1.13-.12-.15.04.06.35.46.69.93,1.03,1.4.67.95,1.31,1.92,1.9,2.92.6,1,1.16,2.02,1.69,3.07.26.52.52,1.05.76,1.58.12.27.24.53.36.8.03.06.18.41.13.29-.06-.15.02.05.03.06.04.1.08.19.12.29.89,2.2,1.62,4.46,2.17,6.77.28,1.17.51,2.35.7,3.54.05.3.09.6.13.9.02.17,0-.03,0-.06.01.09.02.17.03.26.02.17.04.35.06.52.07.61.13,1.22.17,1.83.19,2.47.18,4.95-.02,7.42-.05.61-.11,1.22-.18,1.83-.02.15-.04.3-.06.45-.02.17,0-.03,0-.05-.01.09-.02.17-.04.26-.04.3-.09.6-.14.9-.19,1.19-.43,2.37-.72,3.54-.57,2.33-1.32,4.6-2.22,6.81-.02.06-.05.12-.07.17.1-.24.02-.04,0,0-.05.12-.1.23-.15.35-.13.29-.26.57-.39.86-.25.53-.5,1.06-.77,1.58-.54,1.06-1.12,2.1-1.73,3.11-.6.99-1.24,1.96-1.92,2.91-.16.22-.31.44-.48.65-.09.12-.17.23-.26.35-.05.07-.32.42-.15.21-.35.46-.72.91-1.09,1.35-1.49,1.78-3.1,3.44-4.83,4.98-.43.39-.87.76-1.32,1.13-.22.18-.45.37-.67.55-.11.09-.23.18-.34.27-.05.04-.1.08-.15.11.16-.12.03-.02-.06.04-.93.7-1.87,1.37-2.85,2-1.96,1.27-4.01,2.4-6.13,3.36-.27.12-.54.24-.8.36-.06.03-.44.19-.18.08-.15.06-.31.13-.47.19-.55.22-1.1.43-1.65.63-1.11.4-2.24.77-3.39,1.08-1.15.32-2.32.6-3.49.83-.59.12-1.19.22-1.78.31-.3.05-.6.09-.9.13.25-.03-.05,0-.14.02-.17.02-.35.04-.52.06-2.48.28-4.98.37-7.47.26-1.23-.05-2.45-.15-3.67-.3-.15-.02-.3-.04-.45-.06.25.03-.05,0-.14-.02-.32-.05-.64-.1-.96-.15-.59-.1-1.19-.21-1.78-.33-2.35-.48-4.67-1.14-6.92-1.98-.55-.21-1.1-.42-1.64-.65-.02,0-.21-.09-.06-.03.16.07-.08-.04-.12-.05-.12-.05-.23-.1-.35-.15-.29-.13-.57-.26-.86-.39-1.06-.49-2.1-1.02-3.12-1.59-1.02-.57-2.01-1.17-2.98-1.81-.48-.32-.96-.65-1.44-.99-.24-.17-.47-.34-.7-.51-.12-.09-.23-.17-.35-.26-.05-.04-.1-.08-.15-.11-.21-.16.07.06-.06-.04-1.83-1.42-3.55-2.98-5.15-4.65-.8-.84-1.57-1.7-2.31-2.6-.18-.22-.37-.45-.55-.68-.09-.11-.18-.23-.27-.34-.01-.01-.14-.18-.04-.05.11.14-.12-.16-.12-.15-.35-.46-.69-.93-1.03-1.41-1.34-1.91-2.53-3.91-3.58-6-.26-.52-.51-1.05-.76-1.59-.12-.27-.24-.54-.36-.8-.03-.08-.15-.35-.05-.12-.06-.15-.13-.31-.19-.47-.44-1.09-.85-2.21-1.21-3.33-.74-2.3-1.29-4.66-1.66-7.05-.04-.28-.08-.56-.12-.84.04.29-.02-.13-.03-.2-.02-.15-.04-.3-.05-.45-.07-.59-.12-1.17-.17-1.76-.09-1.21-.14-2.43-.14-3.65,0-.74-.65-1.46-1.42-1.42-.77.03-1.42.62-1.42,1.42,0,5.06.78,10.13,2.35,14.95,1.51,4.63,3.7,9.03,6.53,13,2.86,4.02,6.29,7.56,10.21,10.57,3.87,2.98,8.2,5.32,12.78,7,4.7,1.72,9.69,2.68,14.7,2.87,5.08.2,10.22-.41,15.11-1.8,4.71-1.34,9.23-3.4,13.32-6.1,4.02-2.65,7.66-5.89,10.73-9.61,3.16-3.83,5.7-8.09,7.59-12.68,1.89-4.62,3.02-9.53,3.41-14.5.4-5.09-.03-10.26-1.23-15.22-1.16-4.77-3.07-9.38-5.62-13.57-2.5-4.11-5.62-7.87-9.22-11.07-3.63-3.23-7.73-5.93-12.16-7.93-4.64-2.09-9.53-3.44-14.58-4.03-5.07-.59-10.23-.34-15.23.67-4.83.98-9.52,2.73-13.82,5.13-4.22,2.36-8.11,5.37-11.45,8.87-3.33,3.49-6.16,7.49-8.31,11.81-2.21,4.44-3.75,9.21-4.5,14.11-.38,2.49-.59,5.01-.59,7.53,0,.74.65,1.46,1.42,1.42.77-.03,1.42-.62,1.42-1.42"/>
        <path class="cls-4" d="m27.95,74.48c0-.97.04-1.95.12-2.92.03-.44.08-.87.13-1.31.02-.13.03-.26.05-.39,0-.05.04-.28,0,0,.04-.26.07-.51.12-.77.29-1.82.73-3.61,1.29-5.36.28-.86.6-1.71.94-2.55.03-.06.14-.32.03-.07.05-.12.1-.23.15-.35.08-.19.17-.38.26-.57.19-.42.39-.83.6-1.24.81-1.6,1.74-3.13,2.78-4.59.24-.34.49-.67.74-1-.17.23.18-.23.24-.3.15-.19.31-.39.47-.58.58-.7,1.19-1.38,1.83-2.03.6-.62,1.23-1.23,1.88-1.8.31-.28.62-.55.94-.81.18-.15.35-.29.53-.43.08-.06.16-.13.24-.19.07-.05.13-.1.2-.15-.11.08-.12.09-.04.03,1.41-1.07,2.89-2.04,4.43-2.89.8-.44,1.63-.86,2.46-1.24.19-.09.38-.17.57-.26-.01,0,.37-.16.18-.08-.19.08.19-.08.18-.07.43-.18.86-.34,1.3-.5,1.72-.63,3.49-1.12,5.28-1.48.42-.08.85-.16,1.27-.23.24-.04.47-.07.71-.11.25-.04-.34.04.07-.01.15-.02.3-.04.45-.05.94-.11,1.88-.18,2.82-.21,1.9-.07,3.8,0,5.69.24.09.01.17.02.26.03.43.05-.29-.04.14.02.21.03.43.06.64.1.47.08.94.16,1.4.25.9.18,1.79.4,2.68.65.88.25,1.74.53,2.6.85.4.15.79.3,1.18.46.03.01.42.18.13.05.08.03.15.07.23.1.23.1.46.2.69.31,1.63.75,3.2,1.62,4.7,2.6.36.24.72.49,1.08.74.19.13.37.27.55.4.07.05.13.1.2.15.04.03.45.35.21.15.69.53,1.35,1.09,2,1.67,1.32,1.19,2.56,2.48,3.69,3.85.13.16.26.32.39.48.08.1.15.19.23.29.03.04.16.21,0,0,.28.36.55.73.81,1.1.53.75,1.03,1.51,1.5,2.3.45.75.87,1.52,1.26,2.3.2.39.39.79.57,1.19.1.21.19.42.28.63.03.08.07.15.1.23-.12-.29.08.19.1.24.68,1.67,1.23,3.39,1.64,5.14.46,1.95.68,3.36.82,5.2.15,1.9.14,3.81-.01,5.7-.04.46-.08.91-.14,1.37-.01.11-.03.22-.04.32-.05.43.05-.29-.02.14-.04.26-.08.51-.12.77-.15.89-.33,1.78-.54,2.65-.43,1.77-1.01,3.5-1.69,5.19-.15.38.07-.16-.03.07-.04.1-.08.19-.13.29-.08.19-.17.38-.26.57-.19.42-.39.83-.6,1.24-.41.82-.86,1.62-1.34,2.4-.45.75-.93,1.47-1.44,2.19-.12.17-.24.34-.37.5-.07.1-.15.2-.22.3,0,0-.24.31-.12.15.12-.16-.12.16-.12.15-.08.1-.15.19-.23.29-.16.19-.31.39-.47.58-1.13,1.35-2.36,2.61-3.67,3.78-.32.29-.65.57-.99.85-.16.13-.32.26-.48.39-.08.06-.16.13-.24.19-.05.04-.1.08-.15.11.12-.1.12-.09,0,0-.7.52-1.41,1.03-2.14,1.5-1.5.98-3.08,1.85-4.71,2.59-.19.09-.38.17-.57.26-.03.01-.42.18-.12.05-.1.04-.19.08-.29.12-.45.18-.9.36-1.36.52-.84.3-1.69.57-2.54.81-.89.25-1.78.46-2.68.64-.44.09-.89.17-1.34.24-.21.03-.43.07-.64.1.28-.04,0,0-.07,0-.15.02-.3.04-.45.05-1.89.21-3.79.28-5.69.2-.92-.04-1.84-.12-2.75-.23-.13-.02-.26-.03-.39-.05.06,0,.27.04,0,0-.21-.03-.43-.06-.64-.1-.49-.08-.98-.17-1.46-.27-1.77-.36-3.52-.86-5.21-1.48-.43-.16-.86-.33-1.29-.51-.05-.02-.25-.11,0,0-.12-.05-.23-.1-.35-.15-.23-.1-.46-.2-.69-.31-.8-.37-1.58-.77-2.34-1.19-.8-.44-1.58-.92-2.35-1.43-.35-.23-.69-.46-1.03-.7-.17-.12-.34-.24-.5-.37-.1-.07-.2-.15-.3-.22-.05-.04-.34-.26-.11-.08-1.41-1.09-2.73-2.29-3.96-3.57-.6-.63-1.18-1.28-1.73-1.95-.15-.18-.29-.35-.43-.53-.06-.08-.13-.16-.19-.24-.26-.32.17.22-.08-.11-.27-.37-.54-.73-.81-1.11-1.03-1.47-1.95-3.01-2.75-4.61-.19-.37-.37-.75-.54-1.13-.09-.19-.17-.38-.26-.57-.01-.03-.18-.42-.05-.12-.05-.12-.1-.23-.14-.35-.34-.84-.65-1.7-.93-2.56-.55-1.73-.97-3.51-1.26-5.3-.02-.13-.04-.26-.06-.39,0,.01-.06-.41-.03-.2.03.21-.03-.21-.03-.2-.02-.13-.03-.26-.05-.39-.05-.43-.09-.87-.12-1.31-.07-.93-.1-1.86-.11-2.79,0-.74-.65-1.46-1.42-1.42-.77.03-1.42.62-1.42,1.42.01,7.7,2.4,15.34,6.88,21.61,4.42,6.19,10.61,10.92,17.75,13.54,7.33,2.69,15.55,2.95,23.05.81,7.21-2.06,13.77-6.34,18.53-12.14,4.91-5.98,7.88-13.32,8.47-21.03.59-7.7-1.28-15.56-5.3-22.16-3.88-6.38-9.68-11.59-16.49-14.66-7.21-3.25-15.29-4.16-23.04-2.6-7.38,1.49-14.25,5.32-19.46,10.76-5.22,5.46-8.77,12.5-9.92,19.97-.3,1.95-.47,3.92-.47,5.89,0,.74.65,1.46,1.42,1.42.77-.03,1.42-.62,1.42-1.42"/>
        <path class="cls-4" d="m45,86.87c2.45-2.66,5.2-6.28,3.83-10.1-.45-1.25-1.17-2.35-1.85-3.48-.17-.28-.33-.57-.48-.86-.14-.27-.24-.65-.43-.88.21.26.08.2.01.02-.03-.08-.06-.15-.09-.23-.06-.17-.12-.34-.17-.51-.11-.36-.19-.72-.25-1.09-.06-.35.02.22,0-.01,0-.11-.02-.21-.03-.32-.02-.24-.03-.47-.03-.71,0-.25,0-.5.03-.75,0-.12.02-.25.03-.37,0-.06.02-.13.02-.19,0,.08-.04.28,0,.09.1-.6.23-1.19.41-1.77.09-.31.19-.61.3-.91.06-.18.13-.36.2-.54.02-.06.05-.12.07-.18.16-.41-.11.25.06-.16.3-.7.21-1.52-.51-1.94-.6-.35-1.64-.2-1.94.51-.9,2.08-1.6,4.3-1.5,6.59.07,1.67.56,3.23,1.32,4.7.57,1.1,1.3,2.11,1.86,3.22.07.13.13.27.19.4.12.25-.11-.31-.04-.1.03.07.06.15.08.22.1.27.18.56.24.84.01.07.02.14.03.2.01.05-.03-.4-.02-.11,0,.15.02.3.02.46s-.01.29-.02.44c-.02.27-.04.05.02-.08-.04.08-.04.21-.05.3-.03.12-.38,1.17-.36,1.18,0,0,.13-.28.06-.15-.03.06-.06.13-.09.19-.05.11-.1.21-.15.32-.12.24-.25.47-.39.7-.14.24-.3.47-.45.7-.1.14-.19.28-.29.41-.05.07-.31.41-.14.19-.47.6-.97,1.18-1.49,1.74-.52.56-.56,1.45,0,2.01.53.53,1.49.57,2.01,0"/>
        <path class="cls-4" d="m59.14,86.87c2.45-2.66,5.2-6.28,3.83-10.1-.45-1.25-1.17-2.35-1.85-3.48-.17-.28-.33-.57-.48-.86-.14-.27-.24-.65-.43-.88.21.26.08.2.01.02-.03-.08-.06-.15-.09-.23-.06-.17-.12-.34-.17-.51-.11-.36-.19-.72-.25-1.09-.06-.35.02.22,0-.01,0-.11-.02-.21-.03-.32-.02-.24-.03-.47-.03-.71,0-.25,0-.5.03-.75,0-.12.02-.25.03-.37,0-.06.02-.13.02-.19,0,.08-.04.28,0,.09.1-.6.23-1.19.41-1.77.09-.31.19-.61.3-.91.06-.18.13-.36.2-.54.02-.06.05-.12.07-.18.16-.41-.11.25.06-.16.3-.7.21-1.52-.51-1.94-.6-.35-1.64-.2-1.94.51-.9,2.08-1.6,4.3-1.5,6.59.07,1.67.56,3.23,1.32,4.7.57,1.1,1.3,2.11,1.86,3.22.07.13.13.27.19.4.12.25-.11-.31-.04-.1.03.07.06.15.08.22.1.27.18.56.24.84.01.07.02.14.03.2.01.05-.03-.4-.02-.11,0,.15.02.3.02.46s-.01.29-.02.44c-.02.27-.04.05.02-.08-.04.08-.04.21-.05.3-.03.12-.38,1.17-.36,1.18,0,0,.13-.28.06-.15-.03.06-.06.13-.09.19-.05.11-.1.21-.15.32-.12.24-.25.47-.39.7-.14.24-.3.47-.45.7-.1.14-.19.28-.29.41-.05.07-.31.41-.14.19-.47.6-.97,1.18-1.49,1.74-.52.56-.56,1.45,0,2.01.53.53,1.49.57,2.01,0"/>
        <path class="cls-4" d="m75.44,86.87c2.45-2.66,5.2-6.28,3.83-10.1-.45-1.25-1.17-2.35-1.85-3.48-.17-.28-.33-.57-.48-.86-.14-.27-.24-.65-.43-.88.21.26.08.2.01.02-.03-.08-.06-.15-.09-.23-.06-.17-.12-.34-.17-.51-.11-.36-.19-.72-.25-1.09-.06-.35.02.22,0-.01,0-.11-.02-.21-.03-.32-.02-.24-.03-.47-.03-.71,0-.25,0-.5.03-.75,0-.12.02-.25.03-.37,0-.06.02-.13.02-.19,0,.08-.04.28,0,.09.1-.6.23-1.19.41-1.77.09-.31.19-.61.3-.91.06-.18.13-.36.2-.54.02-.06.05-.12.07-.18.16-.41-.11.25.06-.16.3-.7.21-1.52-.51-1.94-.6-.35-1.64-.2-1.94.51-.9,2.08-1.6,4.3-1.5,6.59.07,1.67.56,3.23,1.32,4.7.57,1.1,1.3,2.11,1.86,3.22.07.13.13.27.19.4.12.25-.11-.31-.04-.1.03.07.06.15.08.22.1.27.18.56.24.84.01.07.02.14.03.2.01.05-.03-.4-.02-.11,0,.15.02.3.02.46s-.01.29-.02.44c-.02.27-.04.05.02-.08-.04.08-.04.21-.05.3-.03.12-.38,1.17-.36,1.18,0,0,.13-.28.06-.15-.03.06-.06.13-.09.19-.05.11-.1.21-.15.32-.12.24-.25.47-.39.7-.14.24-.3.47-.45.7-.1.14-.19.28-.29.41-.05.07-.31.41-.14.19-.47.6-.97,1.18-1.49,1.74-.52.56-.56,1.45,0,2.01.53.53,1.49.57,2.01,0"/>
        <path class="cls-4" d="m21.37,50.29H6.95c-.77,0-1.42.65-1.42,1.42v42.75c0,1.96-.06,3.94,0,5.9,0,.03,0,.06,0,.08,0,.77.65,1.42,1.42,1.42h16.37c.74,0,1.46-.65,1.42-1.42-.03-.77-.62-1.42-1.42-1.42H6.95l1.42,1.42v-42.75c0-1.96.1-3.94,0-5.9,0-.03,0-.06,0-.08l-1.42,1.42h14.42c.74,0,1.46-.65,1.42-1.42-.03-.77-.62-1.42-1.42-1.42"/>
        <path class="cls-4" d="m116.78.01H8.95C7.5.01,6.04-.01,4.58.01c-.06,0-.13,0-.19,0C3.62.01,2.97.66,2.97,1.43v19.09c0,.77.65,1.42,1.42,1.42h107.83c1.46,0,2.91.02,4.37,0,.06,0,.13,0,.19,0,.77,0,1.42-.65,1.42-1.42V1.43c0-1.83-2.84-1.83-2.84,0v19.09l1.42-1.42H8.95c-1.45,0-2.92-.05-4.37,0-.06,0-.13,0-.19,0l1.42,1.42V1.43l-1.42,1.42h107.83c1.46,0,2.91.02,4.37,0,.06,0,.13,0,.19,0,1.83,0,1.83-2.84,0-2.84"/>
        <path class="cls-4" d="m27.75,13.99H10.71l1.42,1.42V6.98l-1.42,1.42h17.04l-1.42-1.42v8.42c0,.74.65,1.46,1.42,1.42.77-.03,1.42-.62,1.42-1.42V6.98c0-.77-.65-1.42-1.42-1.42H10.71c-.77,0-1.42.65-1.42,1.42v8.42c0,.77.65,1.42,1.42,1.42h17.04c.74,0,1.46-.65,1.42-1.42-.03-.77-.62-1.42-1.42-1.42"/>
        <path class="cls-4" d="m87.95,11.2c0-.13,0-.26.01-.39,0-.1.05-.38,0-.14.05-.29.11-.58.21-.86.04-.12.08-.24.13-.35-.09.23.02-.03.06-.11.13-.26.29-.5.44-.74.14-.22-.1.09.08-.1.08-.09.16-.18.25-.27.08-.09.17-.17.26-.26.05-.04.09-.08.14-.12.02-.02.22-.18.09-.08-.11.08.16-.11.21-.14.12-.08.24-.15.37-.22.11-.06.22-.11.33-.17.02,0,.21-.09.06-.03-.15.06.09-.03.12-.04.24-.08.48-.15.73-.21.06-.01.39-.07.25-.05-.18.03.09,0,.13,0,.09,0,.17-.01.26-.01.26,0,.52,0,.78.03.17.01-.04,0-.06,0,.06.01.13.02.19.03.15.03.29.06.43.1.14.04.28.09.42.13.06.02.12.04.18.07-.02,0-.2-.09-.05-.02.24.12.48.24.7.39.1.07.2.14.3.21-.19-.14.03.03.09.09.22.19.41.4.6.61.18.19-.07-.12.08.1.07.1.14.2.2.31.06.11.13.21.18.32.05.09.22.48.12.22.09.23.17.47.23.72.03.12.06.25.08.37,0,.02.04.23.01.06-.02-.17,0,.1,0,.13.02.28.02.57,0,.85,0,.1-.05.38,0,.14-.03.15-.05.29-.09.44-.06.24-.14.48-.22.72-.06.15.01-.03.02-.05-.03.08-.07.15-.11.22-.06.13-.13.25-.21.38-.06.11-.13.21-.2.31-.03.05-.07.1-.11.15.01-.02.14-.17.03-.05-.19.22-.38.43-.59.62-.04.04-.29.25-.19.16.11-.08-.16.11-.21.14-.22.15-.46.27-.7.39-.23.12.13-.03-.12.05-.14.05-.28.1-.42.14-.12.03-.24.07-.37.09-.09.02-.46.07-.19.04-.26.03-.52.04-.78.04-.15,0-.3-.02-.46-.03-.17-.01.04,0,.06,0-.08-.01-.17-.03-.25-.05-.29-.06-.57-.15-.85-.24-.02,0-.21-.08-.06-.02.15.06-.09-.04-.11-.06-.15-.08-.29-.15-.43-.24-.12-.07-.24-.16-.36-.23-.02-.01-.18-.13-.05-.04.13.1-.07-.06-.09-.08-.21-.19-.41-.39-.61-.61-.04-.05-.08-.09-.12-.14.13.16.03.04-.03-.06-.08-.12-.16-.24-.23-.36-.07-.12-.14-.25-.2-.38-.03-.06-.05-.11-.08-.17.06.13.04.12,0,0-.1-.3-.19-.6-.25-.91-.01-.06-.02-.13-.03-.19.02.14.01.13,0,0-.01-.17-.02-.35-.02-.52,0-.74-.65-1.46-1.42-1.42-.76.03-1.43.62-1.42,1.42.03,3.05,1.94,5.7,4.78,6.76,2.72,1.01,6.03.11,7.86-2.14,1.9-2.34,2.25-5.66.68-8.28-1.58-2.63-4.64-3.92-7.63-3.34-3.3.64-5.66,3.7-5.69,7.01,0,.74.66,1.46,1.42,1.42.78-.03,1.41-.62,1.42-1.42"/>
        <path class="cls-4" d="m102.37,11.2c0-.12,0-.23.01-.35.01-.27,0-.02,0,.03.04-.19.07-.37.13-.55.03-.11.07-.21.11-.32-.02.05-.13.26,0,.04.11-.2.22-.38.34-.57.18-.28-.14.1.01-.02.07-.05.13-.14.18-.2.07-.07.49-.42.21-.21.15-.11.3-.21.46-.3.06-.04.13-.07.2-.1.24-.14-.22.05.12-.05.18-.06.36-.11.54-.15.08-.02.34-.04.02-.01.1,0,.19-.02.29-.02.2,0,.39,0,.59.02.23,0-.33-.08.02,0,.11.03.22.05.33.08.11.03.21.07.32.1.08.03.21.12-.03-.02.16.09.33.17.49.26.08.05.15.11.23.15.18.1-.23-.22.01.02.15.15.3.32.46.47-.19-.19-.07-.1-.02-.03.06.09.12.18.18.28.05.09.28.59.15.26.07.17.13.35.17.53.02.07.03.15.05.22.06.28-.01-.24.02.14.01.18.01.35,0,.53,0,.07-.07.43,0,.08-.02.07-.03.15-.04.22-.04.18-.1.36-.16.54-.11.34.15-.24-.03.07-.05.1-.1.2-.16.29-.05.08-.1.15-.15.23-.05.07-.21.25,0,.02-.12.14-.24.27-.38.4,0,0-.27.25-.11.1.16-.14-.11.08-.12.08-.18.12-.38.22-.58.32.05-.02.28-.1.03-.02-.11.04-.21.07-.32.1-.07.02-.15.04-.22.06-.01,0-.38.07-.15.03.23-.04-.15,0-.16,0-.1,0-.2,0-.29,0-.1,0-.19-.01-.29-.01-.33-.01.21.06-.08-.01-.22-.06-.43-.11-.65-.18-.32-.1.14.11-.02,0-.1-.07-.24-.12-.34-.18-.06-.04-.13-.08-.19-.12-.06-.04-.12-.08-.18-.13.14.11.15.12.03.01-.13-.13-.26-.26-.39-.39-.25-.25.14.24-.05-.06-.06-.09-.12-.18-.18-.28-.06-.1-.1-.2-.16-.29-.14-.25.07.23-.03-.07-.07-.22-.13-.43-.18-.65-.02-.07-.02-.27,0,.04-.01-.16-.02-.31-.03-.47-.01-.74-.65-1.46-1.42-1.42-.76.03-1.43.62-1.42,1.42.03,2.39,1.51,4.46,3.75,5.3,2.12.8,4.73.11,6.17-1.65,1.51-1.84,1.81-4.45.57-6.53-1.24-2.07-3.63-3.06-5.97-2.64-2.62.47-4.47,2.92-4.5,5.52-.01.74.66,1.46,1.42,1.42.78-.03,1.41-.62,1.42-1.42"/>
        <path class="cls-4" d="m56.48,10.98c0-.13,0-.26.01-.39,0-.04.07-.46,0-.14.05-.25.1-.5.18-.74.04-.12.08-.24.12-.36-.11.3.04-.08.06-.12.13-.26.28-.5.45-.74.22-.32-.19.18.08-.1.08-.09.16-.18.25-.27.09-.09.17-.17.27-.25.03-.03.35-.28.09-.09.2-.15.41-.28.62-.4.11-.06.22-.11.33-.17.15-.07.15-.07,0,0,.06-.02.12-.04.18-.06.22-.07.44-.14.67-.19.04,0,.46-.07.13-.03.13-.02.26-.03.39-.03.26-.01.53,0,.79.02.41.03-.26-.07.13.02.16.04.33.07.49.12.12.03.24.08.36.12.38.12-.23-.13.12.05.22.11.44.23.65.36.1.07.21.14.3.21-.25-.19.06.06.09.09.21.19.41.4.59.62-.17-.2-.03-.04,0,0,.07.1.14.2.2.31.13.21.25.43.35.66-.13-.29.03.09.04.13.04.12.08.24.11.36.03.12.05.25.08.37.03.17.03.17,0,0,0,.09.02.17.02.26.02.26.02.53,0,.79,0,.04-.07.46,0,.14-.02.13-.05.25-.08.38-.06.25-.14.49-.23.72.11-.3-.04.08-.06.12-.07.15-.15.29-.24.43-.05.09-.11.17-.17.26-.04.06-.21.27-.04.06-.16.19-.32.37-.5.54-.09.08-.18.16-.28.24.24-.2-.07.05-.11.07-.24.16-.49.3-.75.43-.35.18.26-.07-.12.05-.12.04-.24.08-.36.12-.12.03-.25.07-.37.09-.04,0-.46.07-.13.03-.26.03-.52.04-.79.04-.13,0-.26-.01-.39-.02-.17-.02-.17-.02,0,0-.08-.01-.17-.03-.25-.05-.25-.05-.49-.13-.73-.21-.38-.12.23.13-.12-.05-.15-.08-.3-.15-.44-.23-.11-.06-.21-.13-.31-.2-.07-.05-.13-.09-.2-.14.13.1.13.09,0,0-.21-.2-.41-.4-.61-.61-.27-.28.14.22-.08-.1-.09-.14-.18-.27-.27-.41-.06-.11-.12-.22-.18-.33-.04-.07-.07-.15-.11-.23.06.15.06.15,0,0-.09-.28-.16-.56-.23-.85-.1-.39,0,.28-.02-.13-.01-.18-.02-.35-.02-.52,0-.74-.65-1.46-1.42-1.42-.76.03-1.43.62-1.42,1.42.03,2.94,1.87,5.52,4.62,6.54,2.64.98,5.81.13,7.61-2.04,1.87-2.26,2.21-5.51.68-8.06-1.53-2.54-4.49-3.79-7.38-3.24-3.21.61-5.5,3.59-5.53,6.8,0,.74.66,1.46,1.42,1.42.78-.03,1.41-.62,1.42-1.42"/>
        <path class="cls-4" d="m59.16,5.83v5.53c0,.74.65,1.46,1.42,1.42.77-.03,1.42-.62,1.42-1.42v-5.53c0-.74-.65-1.46-1.42-1.42-.77.03-1.42.62-1.42,1.42"/>
      </g>
    </g>
  </g>
</svg>