<?xml version="1.0" encoding="UTF-8"?>
<svg id="Livello_2" data-name="Livello 2" xmlns="http://www.w3.org/2000/svg" xmlns:xlink="http://www.w3.org/1999/xlink" viewBox="0 0 106.69 126.74">
  <defs>
    <style>
      .cls-1, .cls-2, .cls-3 {
        fill: none;
      }

      .cls-2 {
        clip-path: url(#clippath);
      }

      .cls-3 {
        clip-path: url(#clippath-1);
      }

      .cls-4 {
        fill: #1d1d1c;
      }
    </style>
    <clipPath id="clippath">
      <rect class="cls-1" width="106.69" height="126.74"/>
    </clipPath>
    <clipPath id="clippath-1">
      <rect class="cls-1" width="106.69" height="126.74"/>
    </clipPath>
  </defs>
  <g id="aspirapolvere">
    <g class="cls-2">
      <g class="cls-3">
        <path class="cls-4" d="m41.66,124.21h-24.89c-1.14,0-2.3-.07-3.44,0-.02,0-.03,0-.05,0,.16.04.33.09.49.13-1.51-.66-2.96-1.46-4.29-2.42-.07-.05-.15-.11-.22-.16-.06-.04-.35-.25-.08-.06-.16-.11-.31-.25-.46-.37-.29-.24-.57-.48-.84-.73-.55-.51-1.06-1.04-1.54-1.61-.11-.13-.22-.26-.33-.39-.05-.06-.13-.13-.16-.2.07.17.11.14.04.06-.04-.05-.07-.09-.11-.14-.21-.28-.42-.57-.61-.87-.4-.6-.76-1.23-1.09-1.87-.16-.31-.31-.63-.45-.96-.02-.04-.03-.08-.05-.12-.07-.17.04.07.03.07,0,0-.09-.21-.1-.23-.07-.17-.14-.34-.2-.52-.25-.68-.47-1.38-.65-2.09-.18-.7-.33-1.41-.44-2.13-.02-.09-.03-.19-.04-.28,0-.04-.01-.09-.02-.13-.03-.2.03.25,0,.05-.02-.19-.05-.38-.07-.57-.04-.37-.07-.74-.09-1.11-.1-1.54-.06-3.1.08-4.64.04-.39.08-.78.13-1.17.03-.27-.03.18.01-.08.01-.1.03-.21.04-.31.03-.22.07-.43.1-.65.13-.8.29-1.6.48-2.39.39-1.65.88-3.28,1.46-4.88.15-.41.31-.83.47-1.23.08-.2.16-.4.24-.6.04-.1.08-.19.12-.29.02-.04.03-.08.05-.11-.11.28,0,0,.02-.05.34-.81.71-1.61,1.1-2.39.8-1.64,1.69-3.23,2.65-4.78.98-1.58,2.04-3.1,3.17-4.58.03-.03.05-.07.08-.1-.16.21-.02.03,0-.01.07-.09.13-.17.2-.26.15-.19.3-.38.45-.56.29-.36.58-.71.88-1.06.61-.72,1.24-1.42,1.88-2.11,1.27-1.36,2.62-2.65,4.02-3.87.69-.6,1.4-1.18,2.12-1.74.18-.14-.17.13,0,0,.04-.03.09-.07.13-.1.09-.07.19-.14.29-.22.19-.14.38-.29.58-.43.37-.27.74-.53,1.11-.79,1.51-1.03,3.07-1.98,4.7-2.82.81-.42,1.64-.82,2.48-1.18.1-.04.19-.08.29-.13.04-.02.08-.03.12-.05-.26.11-.05.02,0,0,.22-.09.43-.18.65-.26.41-.16.83-.32,1.25-.47,1.69-.6,3.41-1.07,5.17-1.41.45-.09.91-.16,1.37-.23.1-.02.21-.03.31-.04.06,0,.19-.03-.07,0,.06,0,.13-.02.19-.02.23-.03.46-.06.69-.08.88-.09,1.77-.15,2.65-.17.91-.02,1.83,0,2.74.07.45.03.9.07,1.35.12.11.01.21.02.32.04.06,0,.13.02.19.02.22.03-.18-.03-.03,0,.24.04.47.07.71.11,1.88.3,3.74.79,5.54,1.43.44.16.87.32,1.3.49.11.04.22.09.32.13.04.02.27.11.03.01.04.02.09.04.13.06.24.1.48.21.71.32-.16-.28-.32-.56-.48-.84v32.73c0,1.5-.04,3.02,0,4.52,0,.02,0,.04,0,.07,0,.51.45,1,.97.97.53-.02.97-.43.97-.97v-32.73c0-1.5.04-3.02,0-4.52,0-.02,0-.04,0-.07,0-.32-.18-.7-.48-.84-2.51-1.15-5.14-2.02-7.85-2.52-2.56-.47-5.18-.64-7.78-.48-2.55.16-5.09.61-7.54,1.33-2.47.72-4.86,1.71-7.15,2.89-2.27,1.17-4.43,2.55-6.47,4.09-2.12,1.59-4.12,3.34-5.98,5.23-1.87,1.89-3.59,3.92-5.18,6.05-1.53,2.05-2.93,4.2-4.17,6.44-1.23,2.22-2.3,4.54-3.2,6.91-.83,2.21-1.51,4.48-1.96,6.79C.25,101.33-.01,103.62,0,105.9c0,2.14.26,4.3.79,6.38.51,1.99,1.31,3.92,2.39,5.66,1.11,1.8,2.52,3.42,4.15,4.76.89.73,1.83,1.4,2.82,1.99.49.29,1,.56,1.51.82.48.24,1.09.62,1.62.65.9.05,1.82,0,2.72,0h25.65c.51,0,1-.45.97-.97-.02-.53-.43-.97-.97-.97"/>
        <path class="cls-4" d="m42.63,114.92c0-.27,0-.54.03-.82.01-.13.02-.27.04-.4,0-.05.03-.25,0-.05.01-.09.03-.18.04-.26.09-.52.21-1.03.37-1.53.08-.25.17-.49.27-.73.1-.26-.05.11.02-.05.03-.07.06-.13.09-.2.06-.13.12-.26.19-.39.24-.47.51-.92.82-1.35.07-.1.15-.21.23-.31-.12.15.07-.09.11-.14.18-.22.37-.43.57-.63.18-.18.36-.36.55-.53.08-.08.17-.15.26-.22.05-.05.11-.09.16-.14.03-.03.07-.05.1-.08-.07.06-.08.06-.03.02.42-.32.86-.61,1.32-.86.23-.12.46-.24.69-.35.04-.02.35-.15.16-.07.15-.06.29-.12.44-.17.51-.18,1.03-.33,1.55-.44.13-.03.26-.05.39-.07.07-.01.15-.02.22-.03-.04,0-.19.02,0,0,.28-.03.57-.05.85-.07.56-.02,1.12,0,1.67.07.19.02.05,0,0,0,.07.01.15.02.22.03.13.02.26.04.39.07.29.06.57.13.85.21.24.07.47.14.7.23.12.04.24.09.36.14.18.07.04.02,0,0,.08.03.16.07.24.11.49.23.97.49,1.42.79.21.14.42.29.62.44-.16-.12.1.08.14.11.11.09.22.18.32.28.4.36.77.75,1.12,1.16.04.05.23.28.11.14.09.11.17.23.25.34.15.21.29.42.42.64.13.22.26.44.37.67.06.13.13.26.19.39.02.05.05.1.07.16.12.26-.07-.18.04.08.2.5.36,1.01.49,1.53.06.24.11.49.15.73.01.07.02.15.03.22.03.17-.02-.23,0,.05.01.15.03.3.04.45.04.56.04,1.12,0,1.68-.01.13-.02.27-.04.4-.02.19,0,.05,0,0-.01.07-.02.15-.03.22-.04.28-.1.55-.17.82-.13.52-.29,1.03-.5,1.53-.06.16.1-.21-.02.04-.02.05-.05.1-.07.16-.05.12-.11.23-.17.35-.12.24-.25.48-.39.71-.13.22-.27.43-.42.64-.07.1-.15.21-.23.31-.1.13.14-.17-.03.04-.05.07-.11.13-.16.2-.33.39-.68.76-1.06,1.1-.11.09-.21.19-.32.28-.05.04-.28.23-.14.11-.22.17-.46.34-.7.49-.43.28-.88.53-1.35.74-.07.03-.13.06-.2.09-.15.07.21-.08-.05.02-.11.04-.21.08-.32.12-.27.1-.55.19-.83.27-.25.07-.51.13-.77.18-.12.02-.23.04-.35.06-.07.01-.15.02-.22.03-.11.02.14-.01-.05,0-.57.06-1.14.09-1.72.06-.27-.01-.54-.04-.81-.06-.04,0-.19-.03,0,0-.06,0-.12-.02-.18-.03-.16-.03-.32-.05-.48-.09-.53-.11-1.05-.26-1.55-.44-.12-.04-.24-.09-.36-.14-.14-.06.13.06,0,0-.07-.03-.13-.06-.2-.09-.25-.11-.49-.24-.73-.37-.46-.26-.9-.54-1.32-.86.15.12-.13-.1-.17-.14-.1-.08-.19-.16-.29-.25-.2-.18-.39-.37-.58-.56-.18-.18-.35-.37-.51-.57-.04-.04-.26-.32-.14-.17-.09-.11-.17-.23-.25-.34-.31-.44-.59-.91-.83-1.39-.05-.1-.1-.21-.15-.31-.02-.05-.05-.1-.07-.16-.12-.25.04.11-.02-.04-.1-.25-.2-.51-.28-.77-.17-.53-.3-1.07-.39-1.62,0-.06-.02-.12-.03-.18.03.19,0,.03,0,0-.01-.13-.03-.27-.04-.4-.02-.29-.03-.57-.03-.86,0-.51-.45-1-.97-.97-.53.02-.98.43-.97.97,0,2.41.74,4.83,2.15,6.79,1.42,1.98,3.37,3.48,5.66,4.32,4.58,1.68,9.96.22,13.06-3.55,1.57-1.91,2.52-4.23,2.71-6.7.19-2.41-.4-4.88-1.65-6.94-1.21-2.01-3.04-3.67-5.18-4.64-2.31-1.04-4.86-1.34-7.34-.84-4.69.94-8.52,4.9-9.25,9.64-.1.64-.16,1.28-.16,1.92,0,.51.45,1,.97.97.53-.02.97-.43.97-.97"/>
        <path class="cls-4" d="m42.5,124.69c-.4-.66-.78-1.34-1.13-2.04-.15-.31-.3-.61-.44-.93-.04-.08-.07-.17-.11-.25-.12-.27.07.17-.04-.1-.07-.17-.14-.33-.2-.5-.48-1.24-.85-2.51-1.07-3.82-.02-.13-.04-.26-.06-.39,0-.04-.04-.31,0-.06-.01-.08-.02-.16-.03-.23-.04-.31-.06-.62-.08-.93-.04-.59-.04-1.18,0-1.77.01-.28.04-.56.07-.84,0-.06.06-.46.02-.17.02-.17.05-.33.08-.5.09-.53.22-1.06.38-1.58.07-.24.15-.49.24-.73.05-.13.1-.26.15-.39.02-.05.11-.27,0-.02.03-.07.06-.15.1-.22.22-.49.47-.97.75-1.43.13-.21.27-.42.41-.63.08-.11.16-.22.24-.33.03-.05.07-.09.1-.14.04-.06.03-.04-.05.06.03-.04.06-.07.09-.11.35-.43.72-.84,1.12-1.22.18-.18.37-.35.57-.52.09-.08.18-.15.27-.23.05-.04.11-.09.16-.13.04-.03.07-.06.11-.09-.1.08-.11.09-.03.02.45-.33.9-.64,1.38-.92.51-.3,1.04-.57,1.58-.81.05-.02.09-.04.14-.06.24-.1-.19.08.05-.02.14-.06.28-.11.43-.17.29-.11.58-.21.88-.31.67-.21,1.34-.38,2.03-.52.36-.07.71-.13,1.07-.18.28-.04-.2.02.08-.01.11-.01.23-.03.34-.04.17-.02.34-.04.52-.05,1.63-.14,3.27-.09,4.89.09.51.06.99-.49.97-.97-.03-.58-.43-.91-.97-.97-5.35-.59-11.1.38-15.27,3.98-3.68,3.17-5.3,8.07-4.74,12.84.39,3.32,1.63,6.46,3.36,9.31.27.45.87.62,1.33.35.45-.26.62-.88.35-1.33"/>
        <path class="cls-4" d="m48.38,114.92c0-.12,0-.24.01-.36,0-.05.05-.39.02-.19.05-.26.1-.52.19-.77.04-.11.08-.22.12-.33-.07.18.06-.12.08-.16.12-.23.26-.44.4-.66.02-.03.11-.15,0,0,.04-.04.07-.09.11-.13.07-.09.15-.17.23-.25.08-.08.16-.16.24-.24.04-.04.08-.08.13-.11.02-.01.2-.16.1-.08-.09.07.05-.04.07-.05.05-.03.09-.06.14-.1.1-.06.19-.12.29-.18.1-.06.2-.11.3-.16.02-.01.19-.08.08-.04-.11.05.1-.04.12-.05.22-.08.44-.14.67-.19.05,0,.38-.07.18-.04.15-.02.3-.03.45-.04.24,0,.48,0,.73.03.19.02.05,0,0,0,.06.01.12.02.17.03.14.03.29.06.43.1.11.03.22.07.33.11.05.02.11.04.16.06-.04-.02-.16-.08,0,0,.22.11.43.22.64.35.05.03.09.06.14.1.02.01.17.12.07.05s.05.04.07.06c.04.04.09.07.13.11.18.16.35.33.5.52.04.04.07.09.11.13-.11-.14-.02-.02,0,0,.06.1.13.19.19.28.07.11.13.22.19.34.02.04.17.38.1.2.09.22.16.44.22.66.03.11.05.23.07.34.04.19.01.05,0,0,.01.09.02.18.03.27.02.24.02.49,0,.73,0,.06-.05.38-.02.19-.02.13-.05.26-.08.39-.05.23-.13.45-.21.66-.05.14.06-.13,0,0-.02.05-.05.1-.07.16-.06.13-.13.25-.21.38-.06.1-.12.19-.19.29-.01.02-.12.17-.05.07s-.04.05-.06.07c-.16.18-.32.36-.5.52-.08.08-.17.15-.26.22.15-.11-.1.07-.15.1-.22.14-.44.26-.67.38-.03.02-.17.07,0,0-.05.02-.11.04-.16.06-.11.04-.22.08-.33.11-.11.03-.23.06-.34.09-.06.01-.12.02-.17.03-.18.04.07,0-.05.01-.26.03-.51.04-.77.03-.12,0-.24-.01-.36-.03-.04,0-.19-.03,0,0-.07-.01-.15-.02-.22-.04-.27-.06-.53-.14-.8-.23-.03-.01-.17-.07,0,0-.07-.03-.13-.06-.19-.09-.12-.06-.23-.12-.34-.18-.12-.07-.24-.15-.36-.23-.03-.02-.15-.11,0,0-.06-.04-.11-.09-.16-.14-.2-.18-.39-.37-.57-.57-.04-.04-.07-.09-.11-.13.09.11.02.02-.03-.04-.08-.12-.16-.24-.23-.36-.06-.11-.13-.22-.18-.34-.02-.05-.05-.1-.07-.16.09.19-.02-.07-.03-.09-.09-.25-.16-.5-.21-.76-.01-.06-.02-.12-.03-.17.04.21,0-.07,0-.1-.01-.15-.02-.3-.02-.45,0-.51-.44-1-.97-.97-.52.02-.98.43-.97.97.02,2.58,1.65,4.85,4.07,5.72,2.3.84,5.08.08,6.63-1.81,1.62-1.98,1.91-4.81.57-7.03-1.33-2.21-3.93-3.31-6.44-2.81-2.79.55-4.8,3.13-4.82,5.94,0,.51.45,1,.97.97.53-.02.97-.43.97-.97"/>
        <path class="cls-4" d="m48.92,60.5V27.14c0-1.54.04-3.08,0-4.62,0-.02,0-.04,0-.06,0-.51-.45-1-.97-.97-.53.02-.97.43-.97.97v33.36c0,1.54-.04,3.08,0,4.62,0,.02,0,.04,0,.06,0,.51.45,1,.97.97.53-.02.97-.43.97-.97"/>
        <path class="cls-4" d="m54.18,61.6V27.26c0-1.58.04-3.17,0-4.75,0-.02,0-.05,0-.07,0-.51-.45-1-.97-.97-.53.02-.97.43-.97.97v34.33c0,1.58-.04,3.17,0,4.75,0,.02,0,.05,0,.07,0,.51.45,1,.97.97.53-.02.97-.43.97-.97"/>
        <path class="cls-4" d="m54.18,22.44c.02-3.79,1.51-7.41,4.07-10.19,2.7-2.93,6.36-4.82,10.26-5.55,7.86-1.47,16.61,2.13,20.12,9.53.95,2.01,1.38,4.19,1.38,6.41,0,.65,0,1.31,0,1.96v92.78c0,.53.45.97.97.97h5.26c.53,0,.97-.45.97-.97V23.43c0-1.39-.07-2.77-.29-4.15-.68-4.16-2.71-8.04-5.56-11.13-6.19-6.72-15.87-9.36-24.72-7.61-8.5,1.68-16.17,7.69-18.76,16.11-.61,1.97-.9,4.04-.91,6.09,0,1.25,1.94,1.25,1.95,0,.03-8.41,5.69-15.59,13.27-18.81,8.1-3.45,17.95-2.37,24.97,2.99,5.05,3.86,8.12,9.72,8.12,16.09v94.37l.97-.97h-5.26l.97.97V25.44c0-2.36.08-4.71-.5-7.03-2.06-8.25-10.12-13.57-18.34-13.96-8.36-.4-16.85,4.23-19.86,12.25-.69,1.82-1.02,3.78-1.03,5.72,0,1.25,1.94,1.25,1.95,0"/>
        <path class="cls-4" d="m71.13.97v4.43c0,.51.45,1,.97.97.53-.02.97-.43.97-.97V.97c0-.51-.45-1-.97-.97-.53.02-.97.43-.97.97"/>
        <path class="cls-4" d="m91,23.41h5.26c.51,0,1-.45.97-.97-.02-.53-.43-.97-.97-.97h-5.26c-.51,0-1,.45-.97.97.02.53.43.97.97.97"/>
        <path class="cls-4" d="m101.75,120.81h-16.09c-.92,0-1.9.3-2.65.84-1.29.93-1.99,2.36-2.43,3.86-.18.61.32,1.23.94,1.23h21.05c.97,0,1.95.03,2.92,0,.01,0,.03,0,.04,0,.51,0,1-.45.97-.97-.02-.53-.43-.97-.97-.97h-21.05c-.97,0-1.95-.06-2.92,0-.01,0-.03,0-.04,0,.31.41.63.82.94,1.23.09-.32.2-.63.32-.94.07-.18.02-.05,0,0,.03-.08.07-.16.11-.23.07-.15.15-.3.23-.44.07-.12.14-.23.21-.35.04-.07.09-.13.14-.19-.11.16-.04.04,0,.01.1-.12.2-.23.32-.34.04-.04.07-.07.11-.1.04-.03.08-.07.12-.1-.1.07-.1.08-.01.01.11-.07.21-.15.32-.21.06-.03.41-.2.19-.11.29-.12.58-.19.89-.24-.19.03.06,0,.12,0,.03,0,.07,0,.1,0,1-.01,2,0,3,0h13.13c.51,0,1-.45.97-.97-.02-.53-.43-.97-.97-.97"/>
        <path class="cls-4" d="m105.53,126.53c.51,0,1-.45.97-.97-.02-.53-.43-.97-.97-.97-.51,0-1,.45-.97.97.02.53.43.97.97.97"/>
        <path class="cls-4" d="m99.81,116.41h-12.28c-.53,0-.97.45-.97.97v4.4c0,.53.45.97.97.97h12.28c.53,0,.97-.45.97-.97v-4.4c0-.51-.45-1-.97-.97-.53.02-.97.43-.97.97v4.4l.97-.97h-12.28l.97.97v-4.4l-.97.97h12.28c.51,0,1-.45.97-.97-.02-.53-.43-.97-.97-.97"/>
        <path class="cls-4" d="m101.73,122.75c.08,0,.34.06.02,0,.06.01.13.02.19.03.12.02.24.05.36.08.12.03.24.08.36.12.16.06-.22-.1-.05-.02.06.03.12.05.17.08.1.05.2.11.29.17.04.03.08.05.12.08.07.05.22.2,0-.01.16.15.33.29.48.45.04.04.07.08.11.13.05.06.15.23-.02-.03.06.1.13.19.2.28.13.2.24.4.35.62.05.11.1.22.15.33.07.16-.09-.23,0,.01.02.05.04.1.06.15.1.26.19.53.26.79.14.49.69.84,1.2.68.49-.16.83-.67.68-1.2-.34-1.15-.83-2.29-1.65-3.18-.86-.94-2.02-1.4-3.27-1.51-.51-.04-1,.48-.97.97.03.57.43.93.97.97"/>
      </g>
    </g>
  </g>
</svg>