<?xml version="1.0" encoding="UTF-8"?>
<svg id="Livello_2" data-name="Livello 2" xmlns="http://www.w3.org/2000/svg" xmlns:xlink="http://www.w3.org/1999/xlink" viewBox="0 0 145.32 92.72">
  <defs>
    <style>
      .cls-1 {
        fill: #fff;
      }

      .cls-2, .cls-3, .cls-4 {
        fill: none;
      }

      .cls-3 {
        clip-path: url(#clippath);
      }

      .cls-4 {
        clip-path: url(#clippath-1);
      }

      .cls-5 {
        fill: #1d1d1c;
      }
    </style>
    <clipPath id="clippath">
      <rect class="cls-2" width="145.32" height="92.72"/>
    </clipPath>
    <clipPath id="clippath-1">
      <rect class="cls-2" width="145.32" height="92.72"/>
    </clipPath>
  </defs>
  <g id="asse_da_stiro" data-name="asse da stiro">
    <g class="cls-3">
      <g class="cls-4">
        <path class="cls-5" d="m28.65,92.56l2.38-1.34c2.16-1.21,4.33-2.43,6.49-3.64,3.2-1.8,6.4-3.59,9.6-5.39,3.9-2.19,7.81-4.38,11.71-6.57l12.83-7.2c4.32-2.42,8.63-4.85,12.95-7.27,4.03-2.26,8.05-4.52,12.08-6.78,3.4-1.91,6.8-3.82,10.21-5.73,2.45-1.37,4.89-2.75,7.34-4.12,1.16-.65,2.33-1.29,3.48-1.95.05-.03.1-.06.15-.08,1.3-.73.13-2.74-1.17-2.01-.79.45-1.59.89-2.38,1.34-2.16,1.21-4.33,2.43-6.49,3.64l-9.6,5.39c-3.9,2.19-7.81,4.38-11.71,6.57l-12.83,7.2c-4.32,2.42-8.63,4.85-12.95,7.27-4.03,2.26-8.05,4.52-12.08,6.78-3.4,1.91-6.8,3.82-10.21,5.73-2.45,1.37-4.89,2.75-7.34,4.12-1.16.65-2.33,1.29-3.48,1.95-.05.03-.1.06-.15.08-1.3.73-.13,2.74,1.17,2.01"/>
        <path class="cls-5" d="m117.87,90.56c-.8-.45-1.59-.89-2.38-1.34-2.16-1.21-4.33-2.43-6.49-3.64l-9.6-5.39c-3.9-2.19-7.81-4.38-11.71-6.57-4.28-2.4-8.55-4.8-12.83-7.2-4.32-2.42-8.63-4.85-12.95-7.27-4.03-2.26-8.05-4.52-12.08-6.78-3.4-1.91-6.8-3.82-10.21-5.73-2.45-1.37-4.89-2.75-7.34-4.12-1.16-.65-2.31-1.31-3.48-1.95-.05-.03-.1-.06-.15-.08-1.31-.73-2.48,1.27-1.17,2.01.8.45,1.59.89,2.38,1.34,2.16,1.21,4.33,2.43,6.49,3.64l9.6,5.39c3.9,2.19,7.81,4.38,11.71,6.57,4.28,2.4,8.55,4.8,12.83,7.2,4.32,2.42,8.63,4.85,12.95,7.27,4.03,2.26,8.05,4.52,12.08,6.78,3.4,1.91,6.8,3.82,10.21,5.73,2.45,1.37,4.89,2.75,7.34,4.12,1.16.65,2.31,1.31,3.48,1.95.05.03.1.06.15.08,1.31.73,2.48-1.27,1.17-2.01"/>
        <path class="cls-5" d="m2.36,40.54v-1.97c0-.1.03-.25,0-.34,0,.02,0-.08,0-.08.2.15-.19.21-.19.24-.06.37-.15,0-.09.04.06.04.31,0,.38,0h138.7c.63,0,1.28.05,1.91,0,.04,0,.13.02.17,0,.17-.09-.54-.08-.25-.29-.07.05,0,.7,0,.78v1.28c0,.69.09-.16.28.03-.14-.14-1.11,0-1.29,0H2.96c-.22,0-.45-.02-.67,0-.44.04.04-.12.08.3-.06-.62-.49-1.16-1.16-1.16-.58,0-1.22.53-1.16,1.16.12,1.2.92,1.99,2.13,2.02.2,0,.39,0,.59,0h139.58c.62,0,1.3.07,1.86-.23.98-.52,1.1-1.47,1.1-2.46,0-.63.04-1.28-.02-1.91-.11-1.14-1.04-1.82-2.13-1.85-.57-.02-1.15,0-1.72,0H7.96c-1.9,0-3.8-.03-5.7,0-.34,0-.66.03-.98.17-1.64.69-1.24,2.83-1.24,4.26s2.32,1.5,2.32,0"/>
        <polyline class="cls-1" points="18.46 38.2 18.46 74.14 82.53 42.42 82.53 38.2"/>
        <path class="cls-5" d="m17.29,38.2v31.51c0,1.46-.04,2.92,0,4.37,0,.02,0,.04,0,.06,0,.93.97,1.39,1.75,1,.57-.28,1.14-.57,1.72-.85,1.56-.77,3.12-1.54,4.67-2.31l6.88-3.41c2.8-1.39,5.6-2.77,8.39-4.16,3.08-1.52,6.15-3.05,9.23-4.57l9.32-4.61c2.88-1.43,5.77-2.86,8.65-4.28,2.45-1.21,4.89-2.42,7.34-3.63,1.76-.87,3.52-1.74,5.28-2.61.83-.41,1.67-.8,2.49-1.23.03-.02.07-.04.11-.05.36-.18.58-.62.58-1v-4.22c0-.61-.53-1.19-1.16-1.16-.63.03-1.16.51-1.16,1.16v4.22c.19-.33.38-.67.58-1-.57.28-1.15.57-1.72.85-1.56.77-3.12,1.54-4.67,2.31l-6.88,3.41c-2.8,1.39-5.6,2.77-8.39,4.16-3.08,1.52-6.15,3.05-9.23,4.57l-9.32,4.61c-2.88,1.43-5.77,2.86-8.65,4.28-2.45,1.21-4.89,2.42-7.34,3.63-1.76.87-3.52,1.74-5.28,2.61-.83.41-1.67.8-2.49,1.23-.04.02-.07.04-.11.05.58.33,1.17.67,1.75,1v-31.51c0-1.46.04-2.92,0-4.37,0-.02,0-.04,0-.06,0-.61-.53-1.19-1.16-1.16-.63.03-1.16.51-1.16,1.16"/>
        <path class="cls-1" d="m114.35,12.42c-2.35,7.75-2.35,15.49,0,23.24h13.73c2.35-7.75,2.35-15.49,0-23.24l-6.87-11.27-6.87,11.27Z"/>
        <path class="cls-5" d="m113.23,12.11c-1.83,6.06-2.27,12.43-1.22,18.67.29,1.75.71,3.48,1.22,5.18.15.49.6.85,1.12.85h13.73c.52,0,.97-.36,1.12-.85,1.18-3.93,1.83-8.04,1.8-12.15-.01-2.09-.2-4.17-.53-6.23-.16-.99-.36-1.98-.59-2.96-.12-.5-.24-.99-.38-1.48-.12-.43-.21-.92-.42-1.32-.52-.96-1.14-1.88-1.71-2.81-1.06-1.73-2.11-3.46-3.17-5.19-.66-1.09-1.32-2.17-1.99-3.26-.46-.75-1.55-.75-2.01,0-2.01,3.3-4.02,6.59-6.02,9.88-.28.46-.56.92-.84,1.38-.33.54-.12,1.28.42,1.59.55.32,1.26.12,1.59-.42,2.01-3.3,4.02-6.59,6.02-9.89.28-.46.56-.92.84-1.38h-2.01c1.56,2.57,3.13,5.13,4.69,7.7.7,1.15,1.39,2.3,2.1,3.44.02.04.04.07.07.11,0,0,0,.01.01.02-.12-.24-.06-.11-.03.02.03.15.09.3.13.44.28.98.52,1.97.73,2.96.4,1.92.64,3.8.73,5.76.22,4.48-.38,8.87-1.67,13.16.37-.28.75-.57,1.12-.85h-13.73c.37.28.75.57,1.12.85-1.72-5.7-2.2-11.73-1.19-17.59.29-1.7.7-3.38,1.19-5.03.18-.58-.21-1.29-.81-1.43-.63-.14-1.24.19-1.43.81"/>
      </g>
    </g>
  </g>
</svg>