<?xml version="1.0" encoding="UTF-8"?>
<svg id="Livello_2" data-name="Livello 2" xmlns="http://www.w3.org/2000/svg" xmlns:xlink="http://www.w3.org/1999/xlink" viewBox="0 0 70.48 115.2">
  <defs>
    <style>
      .cls-1, .cls-2, .cls-3 {
        fill: none;
      }

      .cls-2 {
        clip-path: url(#clippath);
      }

      .cls-3 {
        clip-path: url(#clippath-1);
      }

      .cls-4 {
        fill: #1d1d1c;
      }
    </style>
    <clipPath id="clippath">
      <rect class="cls-1" y="0" width="70.48" height="115.2"/>
    </clipPath>
    <clipPath id="clippath-1">
      <rect class="cls-1" y="0" width="70.48" height="115.2"/>
    </clipPath>
  </defs>
  <g id="attrezzi_da_lavoro" data-name="attrezzi da lavoro">
    <g class="cls-2">
      <g class="cls-3">
        <path class="cls-4" d="m37.44,30.88c-.11,2.72-.23,5.44-.34,8.16-.27,6.53-.54,13.05-.82,19.58-.33,7.89-.66,15.78-.99,23.68-.28,6.8-.57,13.59-.85,20.39-.09,2.25-.19,4.49-.28,6.74-.04,1.06-.14,2.13-.13,3.18,0,.05,0,.1,0,.14l2.24-2.24c-4.1.06-8.21.13-12.31.19l-1.77.03c.75.75,1.49,1.49,2.24,2.24.15-2.87.29-5.74.44-8.62.35-6.87.7-13.74,1.04-20.61.42-8.3.84-16.61,1.26-24.91.36-7.2.73-14.39,1.09-21.59.18-3.47.48-6.95.53-10.42,0-.05,0-.1,0-.15.06-1.17-1.07-2.29-2.24-2.24-1.26.06-2.18.98-2.24,2.24-.15,2.87-.29,5.74-.44,8.62-.35,6.87-.7,13.74-1.04,20.61-.42,8.3-.84,16.61-1.26,24.91-.36,7.2-.73,14.39-1.09,21.59-.17,3.47-.48,6.95-.53,10.42,0,.05,0,.1,0,.15-.06,1.2,1.08,2.26,2.24,2.24,4.1-.06,8.21-.13,12.31-.19.59,0,1.18-.02,1.77-.03,1.25-.02,2.19-1.01,2.24-2.24.11-2.72.23-5.44.34-8.16.27-6.53.54-13.05.82-19.58.33-7.89.66-15.78.99-23.68.28-6.8.57-13.59.85-20.39.14-3.3.39-6.62.41-9.92,0-.05,0-.09,0-.14.05-1.17-1.06-2.29-2.24-2.24-1.26.06-2.19.98-2.24,2.24"/>
        <path class="cls-4" d="m39.08,28.72c-.38.12.69-.04.39-.04.92.01,1.76.64,2.01,1.53.13.47.08.39.03.71-.07.53-.01.18.03.04.1-.36-.31.61-.11.26.05-.09.09-.18.14-.27.14-.26.31-.51.48-.76.08-.12.17-.24.26-.36.3-.41-.36.45.07-.08.25-.31.52-.61.79-.91.67-.73,1.38-1.41,2.12-2.06.36-.31.73-.61,1.11-.91-.53.42.25-.18.38-.27.25-.18.5-.35.75-.52.97-.65,1.99-1.23,3.04-1.73.15-.07,1.08-.47.52-.24.26-.1.51-.21.77-.3.63-.23,1.28-.43,1.93-.59.55-.14,1.11-.24,1.68-.34.58-.1-.5.04.09-.01.17-.02.35-.04.52-.05.35-.03.7-.04,1.06-.05.66-.01,1.32.04,1.98.09.1,0,.44.06-.05-.01.19.03.37.06.55.09.37.07.75.15,1.12.24.71.18,1.39.41,2.08.66.63.23-.39-.19.23.09.13.06.25.12.38.18.71.32,1.28.36,2.02.2,1.98-.43,3.13-2.19,3.84-3.95.78-1.93,1.05-4.07,1.17-6.14.13-2.23-.02-4.49-.45-6.68-.36-1.83-1-3.79-2.33-5.16-.62-.63-1.42-1.11-2.29-1.28-.7-.13-1.29-.12-1.95.21-.42.21-.81.48-1.22.7-.92.49-1.57.76-2.6,1.05-1.54.43-2.96.51-4.42.15-.96-.24-1.39-.43-2.18-.87-.88-.5-1.63-1.28-2.69-1.33-.84-.04-1.7,0-2.54,0h-17.53c-.95,0-2-.12-2.91.2-5.36,1.85-10.49,4.63-15.11,7.89C7.56,11.41,2.73,15.53.69,21.04.27,22.19.04,23.43,0,24.66c-.06,1.57,2,2.96,3.37,1.93,1.29-.96,2.66-1.8,4.11-2.49.18-.08.36-.17.53-.25.1-.05.21-.09.31-.14-.01,0-.38.15-.15.06.4-.15.79-.31,1.19-.45.8-.28,1.61-.52,2.44-.71.38-.09.77-.16,1.15-.23.11-.02.68-.09.36-.06-.31.03.33-.03.45-.04.82-.07,1.64-.09,2.46-.03.19.01.38.03.56.05.42.03-.45-.08.12.01.4.07.79.14,1.18.24.36.09.72.2,1.07.33.13.05.74.34.21.07.19.1.39.18.58.28.34.17.67.36.98.57.16.11.31.23.47.33.21.13-.11-.09-.12-.1.11.09.22.18.32.27.3.26.59.54.87.83.14.15.28.3.41.46.08.09.15.19.23.28-.13-.15-.15-.21-.02-.02.56.81,1.07,1.65,1.48,2.55.35.76.9,1.24,1.69,1.46,2.13.59,4.31,1.06,6.46,1.59,2.12.52,4.24,1.04,6.36,1.56,1.14.28,2.48-.36,2.75-1.56.26-1.16-.35-2.46-1.56-2.75-3.79-.93-7.57-1.86-11.36-2.79-.55-.13-1.09-.27-1.64-.4.45.34.89.69,1.34,1.03-1.78-4.11-5.22-7.36-9.64-8.38-3.95-.91-8.18-.26-11.9,1.26-2.12.87-4.12,1.92-5.96,3.3,1.12.64,2.25,1.29,3.37,1.93,0-.2-.03-.53.05-.72-.19.46-.05.31,0,.09.02-.12.04-.24.07-.36.11-.52.26-1.02.45-1.51.05-.12.09-.24.14-.36-.2.5-.09.21-.04.1.12-.24.23-.48.35-.72.29-.54.6-1.06.95-1.57.15-.21.3-.42.45-.64.07-.1.32-.42.02-.04.07-.09.15-.19.22-.28.42-.52.86-1.03,1.32-1.52.88-.94,1.82-1.83,2.8-2.66.51-.44,1.03-.86,1.55-1.27.06-.04.34-.26.03-.02.13-.1.27-.21.41-.31.3-.23.6-.45.91-.67,1.11-.8,2.25-1.55,3.41-2.28,2.26-1.4,4.61-2.68,7.02-3.8.48-.22.96-.43,1.45-.65.53-.23-.44.18.09-.04.1-.04.2-.08.31-.13.3-.12.6-.24.9-.35.39-.15,1-.25,1.34-.49.18-.13-.66,0-.26.01.92.04,1.85,0,2.77,0h19.15c-.38-.1-.75-.2-1.13-.31,2.32,1.73,5.14,2.78,8.05,2.73,3.01-.05,5.88-1.18,8.43-2.73-.38.1-.75.2-1.13.31.5.01-.59-.09-.19-.04.48.06-.07.2-.16-.1.01.04.21.11.26.14.39.26-.39-.42-.08-.06.08.09.17.19.26.27.31.28-.31-.5-.06-.06.15.25.3.5.43.76.04.08.07.16.11.24.12.24-.18-.49-.1-.24.05.16.12.32.17.48.12.34.21.69.3,1.04.09.37.17.75.24,1.13.03.18.06.35.09.53,0,.04.05.21.04.27.11-.47-.04-.32-.01-.05.18,1.7.21,3.42.07,5.12-.02.21-.04.42-.06.63,0,.08,0,.28-.04.34.01-.01.09-.58.03-.19-.06.39-.12.78-.21,1.17-.15.71-.37,1.39-.6,2.08-.11.32.09-.22.1-.23-.06.07-.09.2-.13.29-.07.15-.15.3-.23.44-.08.13-.18.26-.25.4-.16.31.35-.34.16-.21-.05.04-.09.11-.14.16-.08.08-.51.44-.13.15.38-.29-.04,0-.12.05-.27.21.61-.23.13-.07-.5.17.6-.03.12-.02.38.1.75.2,1.13.31-3.03-1.41-6.33-2.18-9.69-1.89-3.01.26-5.88,1.16-8.55,2.57-2.22,1.17-4.29,2.71-6.12,4.43-1.31,1.23-2.59,2.62-3.51,4.17-.39.65-.77,1.44-.73,2.22.08,1.62,1.61,2.82,3.21,2.3,1.15-.38,1.9-1.55,1.56-2.75-.31-1.13-1.6-1.94-2.75-1.56"/>
      </g>
    </g>
  </g>
</svg>