<svg width="1080" height="1080" viewBox="0 0 1080 1080" fill="none" xmlns="http://www.w3.org/2000/svg">
<g clip-path="url(#clip0_1_47)">
<mask id="mask0_1_47" style="mask-type:luminance" maskUnits="userSpaceOnUse" x="0" y="0" width="1080" height="1080">
<path d="M1080 0H0V1080H1080V0Z" fill="white"/>
</mask>
<g mask="url(#mask0_1_47)">
<mask id="mask1_1_47" style="mask-type:luminance" maskUnits="userSpaceOnUse" x="669" y="814" width="341" height="257">
<path d="M669.333 814.667H1009.33V1070.13H669.333V814.667Z" fill="white"/>
</mask>
<g mask="url(#mask1_1_47)">
<path d="M967.24 1070.14C960.469 1070.14 954.969 1064.64 954.969 1057.86C954.969 1051.09 960.469 1045.59 967.24 1045.59C972.443 1045.59 976.635 1043.68 980.047 1039.78C983.458 1035.85 984.786 1031.45 984.099 1026.28L957.323 828.807C956.417 822.083 961.13 815.922 967.828 814.99C974.552 814.104 980.734 818.792 981.646 825.495L1008.42 1022.96C1010.08 1035.21 1006.65 1046.6 998.526 1055.9C990.427 1065.23 979.609 1070.14 967.24 1070.14ZM712.125 1070.14C699.781 1070.14 688.958 1065.23 680.833 1055.93C672.714 1046.63 669.302 1035.23 670.943 1022.99L697.719 825.516C698.625 818.792 704.807 814.13 711.531 815.01C718.255 815.922 722.943 822.104 722.036 828.833L695.266 1026.3C694.552 1031.45 695.875 1035.88 699.312 1039.8C702.724 1043.73 706.922 1045.62 712.125 1045.62C718.896 1045.62 724.391 1051.11 724.391 1057.89C724.391 1064.67 718.896 1070.14 712.125 1070.14Z" fill="black"/>
</g>
<path d="M992.979 1012.6H686.406C679.63 1012.6 674.135 1007.1 674.135 1000.33C674.135 993.557 679.63 988.057 686.406 988.057H992.979C999.755 988.057 1005.25 993.557 1005.25 1000.33C1005.25 1007.1 999.755 1012.6 992.979 1012.6Z" fill="black"/>
<path d="M839.682 896.995C736.297 896.995 652.198 812.875 652.198 709.464C652.198 702.693 657.693 697.193 664.469 697.193C671.24 697.193 676.734 702.693 676.734 709.464C676.734 799.328 749.839 872.448 839.682 872.448C929.521 872.448 1002.63 799.328 1002.63 709.464C1002.63 702.693 1008.13 697.193 1014.9 697.193C1021.67 697.193 1027.17 702.693 1027.17 709.464C1027.17 812.854 943.068 896.995 839.682 896.995Z" fill="black"/>
<path d="M1027.7 721.74H651.656C630.182 721.74 612.714 704.26 612.714 682.786C612.714 661.307 630.182 643.828 651.656 643.828H1027.73C1049.2 643.828 1066.68 661.307 1066.68 682.786C1066.68 704.26 1049.2 721.74 1027.7 721.74ZM651.656 668.354C643.703 668.354 637.25 674.807 637.25 682.76C637.25 690.714 643.703 697.167 651.656 697.167H1027.73C1035.68 697.167 1042.14 690.714 1042.14 682.76C1042.14 674.807 1035.68 668.354 1027.73 668.354H651.656Z" fill="black"/>
<path d="M963.094 668.375C961.547 668.375 960 668.083 958.479 667.469C952.198 664.917 949.177 657.75 951.729 651.49C963.141 623.406 969.151 591.354 969.151 558.802C969.151 456.521 911.068 373.313 839.682 373.313C768.297 373.313 710.208 456.521 710.208 558.802C710.208 591.354 716.245 623.406 727.63 651.49C730.182 657.771 727.167 664.917 720.885 667.469C714.599 670.021 707.458 667 704.906 660.719C692.318 629.74 685.693 594.495 685.693 558.802C685.693 443 754.771 348.766 839.703 348.766C924.635 348.766 993.719 442.974 993.719 558.802C993.719 594.495 987.068 629.74 974.479 660.719C972.542 665.479 967.953 668.375 963.094 668.375Z" fill="black"/>
<path d="M1027.7 668.354C1020.93 668.354 1015.44 662.854 1015.44 656.078V380.995C1015.44 349.063 989.474 323.094 957.547 323.094H721.818C689.891 323.094 663.927 349.063 663.927 380.995V656.104C663.927 662.88 658.427 668.375 651.656 668.375C644.885 668.375 639.385 662.88 639.385 656.104V380.995C639.385 335.536 676.37 298.547 721.818 298.547H957.547C1002.99 298.547 1039.97 335.536 1039.97 380.995V656.104C1039.97 662.88 1034.51 668.354 1027.7 668.354Z" fill="black"/>
<path d="M911.339 954.802H768.026C761.25 954.802 755.755 949.302 755.755 942.526C755.755 935.75 761.25 930.255 768.026 930.255H911.339C918.109 930.255 923.609 935.75 923.609 942.526C923.609 949.302 918.109 954.802 911.339 954.802Z" fill="black"/>
<path d="M884.661 809.365H794.698C787.927 809.365 782.427 803.87 782.427 797.094C782.427 790.318 787.927 784.823 794.698 784.823H884.661C891.437 784.823 896.932 790.318 896.932 797.094C896.932 803.87 891.437 809.365 884.661 809.365Z" fill="black"/>
<mask id="mask2_1_47" style="mask-type:luminance" maskUnits="userSpaceOnUse" x="598" y="1045" width="482" height="26">
<path d="M598.667 1045.33H1080V1070.13H598.667V1045.33Z" fill="white"/>
</mask>
<g mask="url(#mask2_1_47)">
<path d="M1067.73 1070.14H611.63C604.859 1070.14 599.359 1064.64 599.359 1057.86C599.359 1051.09 604.859 1045.59 611.63 1045.59H1067.73C1074.51 1045.59 1080 1051.09 1080 1057.86C1080 1064.64 1074.51 1070.14 1067.73 1070.14Z" fill="black"/>
</g>
<mask id="mask3_1_47" style="mask-type:luminance" maskUnits="userSpaceOnUse" x="185" y="756" width="181" height="315">
<path d="M185.333 756H365.333V1070.13H185.333V756Z" fill="white"/>
</mask>
<g mask="url(#mask3_1_47)">
<path d="M352.615 1070.14H197.62C190.849 1070.14 185.349 1064.64 185.349 1057.86V770.536C185.349 763.76 190.849 758.26 197.62 758.26C204.391 758.26 209.891 763.76 209.891 770.536V1045.62H340.344V769.38C340.344 762.609 345.839 757.109 352.615 757.109C359.385 757.109 364.885 762.609 364.885 769.38V1057.86C364.885 1064.67 359.385 1070.14 352.615 1070.14Z" fill="black"/>
</g>
<path d="M272.125 794.911C230.995 794.911 190.552 784.599 151.901 764.25C143.167 759.635 136.734 751.927 133.818 742.479C130.896 733.052 131.802 723.042 136.417 714.302C139.703 708.042 144.687 702.885 150.823 699.401C156.713 696.062 164.198 698.099 167.557 704.016C170.922 709.906 168.859 717.396 162.969 720.755C160.932 721.911 159.266 723.651 158.135 725.766C156.588 728.708 156.271 732.073 157.25 735.24C158.234 738.406 160.391 741.005 163.338 742.552C199.411 761.526 237.057 770.88 275.266 770.365C311.167 769.849 348.542 760.594 386.38 742.797C389.401 741.375 391.682 738.896 392.807 735.802C393.937 732.688 393.792 729.323 392.391 726.328C391.286 723.974 389.521 722.083 387.286 720.807C381.401 717.469 379.312 709.979 382.651 704.089C385.99 698.198 393.474 696.115 399.359 699.453C406.062 703.229 411.338 708.948 414.599 715.948C418.771 724.88 419.213 734.922 415.854 744.198C412.49 753.474 405.719 760.891 396.786 765.063C355.781 784.328 314.995 794.396 275.583 794.932C274.453 794.911 273.276 794.911 272.125 794.911Z" fill="black"/>
<path d="M275.115 745.5C123.438 745.5 0.046875 642.724 0.046875 516.411C0.046875 509.641 5.54688 504.141 12.3177 504.141H537.938C544.714 504.141 550.208 509.641 550.208 516.411C550.208 642.724 426.797 745.5 275.115 745.5ZM25.0313 528.688C32.8333 635.781 142.036 720.953 275.115 720.953C408.198 720.953 517.401 635.781 525.203 528.688H25.0313Z" fill="black"/>
<path d="M315.557 528.687C308.786 528.687 303.286 523.187 303.286 516.411V357.458C303.286 339.344 296.198 322.281 283.312 309.396C270.427 296.51 253.349 289.417 235.266 289.417C217.177 289.417 200.099 296.51 187.214 309.396C177.005 319.609 170.453 332.422 168.146 346.312H184.318C186.427 336.693 191.266 327.807 198.427 320.635C208.318 310.745 221.401 305.323 235.24 305.323C249.104 305.323 262.182 310.771 272.047 320.635C281.937 330.531 287.359 343.589 287.359 357.458V516.411C287.359 523.187 281.865 528.687 275.094 528.687C268.318 528.687 262.823 523.187 262.823 516.411V357.458C262.823 350.141 259.927 343.219 254.698 337.99C249.448 332.74 242.526 329.865 235.24 329.865C227.953 329.865 221.005 332.766 215.781 337.99C210.526 343.245 207.656 350.141 207.656 357.458C207.656 358.068 207.63 358.656 207.609 359.25C207.24 365.75 201.865 370.859 195.359 370.859H154.995C148.469 370.859 143.094 365.75 142.75 359.25C142.724 358.656 142.698 358.047 142.698 357.458C142.698 332.786 152.344 309.568 169.865 292.042C187.385 274.516 210.625 264.87 235.266 264.87C259.927 264.87 283.141 274.516 300.661 292.042C318.182 309.568 327.828 332.786 327.828 357.458V516.411C327.828 523.187 322.333 528.687 315.557 528.687Z" fill="black"/>
<path d="M152.146 528.688C145.375 528.688 139.875 523.188 139.875 516.411V454.63C139.875 447.859 145.375 442.359 152.146 442.359C158.922 442.359 164.417 447.859 164.417 454.63V516.411C164.417 523.188 158.922 528.688 152.146 528.688Z" fill="black"/>
<path d="M183.021 466.906H121.25C114.479 466.906 108.979 461.406 108.979 454.63C108.979 447.859 114.479 442.359 121.25 442.359H183.021C189.792 442.359 195.286 447.859 195.286 454.63C195.286 461.406 189.818 466.906 183.021 466.906Z" fill="black"/>
<path d="M398.109 528.688C391.339 528.688 385.839 523.188 385.839 516.411V454.63C385.839 447.859 391.339 442.359 398.109 442.359C404.885 442.359 410.38 447.859 410.38 454.63V516.411C410.38 523.188 404.885 528.688 398.109 528.688Z" fill="black"/>
<path d="M428.979 466.906H367.213C360.443 466.906 354.943 461.406 354.943 454.63C354.943 447.859 360.443 442.359 367.213 442.359H428.979C435.755 442.359 441.25 447.859 441.25 454.63C441.25 461.406 435.755 466.906 428.979 466.906Z" fill="black"/>
<mask id="mask4_1_47" style="mask-type:luminance" maskUnits="userSpaceOnUse" x="334" y="10" width="376" height="253">
<path d="M334.667 10.125H709.333V262.667H334.667V10.125Z" fill="white"/>
</mask>
<g mask="url(#mask4_1_47)">
<path d="M696.635 261.802H347.557C340.786 261.802 335.286 256.302 335.286 249.531V22.5574C335.286 15.7814 340.786 10.2812 347.557 10.2812H696.635C703.411 10.2812 708.906 15.7814 708.906 22.5574V249.505C708.906 256.302 703.411 261.802 696.635 261.802ZM359.828 237.255H684.37V34.8281H359.828V237.255Z" fill="black"/>
</g>
<path d="M482.427 186.25C480.344 186.25 478.234 185.708 476.297 184.604C470.427 181.219 468.417 173.708 471.802 167.838L515.609 91.9687C518.995 86.1041 526.505 84.0885 532.37 87.4791C538.234 90.8645 540.245 98.3749 536.859 104.245L493.057 180.115C490.771 184.042 486.651 186.25 482.427 186.25Z" fill="black"/>
<path d="M547.974 186.25C545.891 186.25 543.781 185.708 541.839 184.604C535.974 181.219 533.964 173.708 537.349 167.839L551.115 143.984C554.505 138.115 562.01 136.104 567.875 139.49C573.745 142.88 575.755 150.391 572.37 156.255L558.599 180.115C556.344 184.042 552.219 186.25 547.974 186.25Z" fill="black"/>
</g>
</g>
<defs>
<clipPath id="clip0_1_47">
<rect width="1080" height="1080" fill="white"/>
</clipPath>
</defs>
</svg>
