<?xml version="1.0" encoding="UTF-8"?>
<svg id="Livello_2" data-name="Livello 2" xmlns="http://www.w3.org/2000/svg" xmlns:xlink="http://www.w3.org/1999/xlink" viewBox="0 0 105.51 143.94">
  <defs>
    <style>
      .cls-1, .cls-2, .cls-3 {
        fill: none;
      }

      .cls-2 {
        clip-path: url(#clippath);
      }

      .cls-3 {
        clip-path: url(#clippath-1);
      }

      .cls-4 {
        fill: #1d1d1c;
      }
    </style>
    <clipPath id="clippath">
      <rect class="cls-1" x="0" y="0" width="105.51" height="143.94"/>
    </clipPath>
    <clipPath id="clippath-1">
      <rect class="cls-1" x="0" y="0" width="105.51" height="143.94"/>
    </clipPath>
  </defs>
  <g id="barbecue">
    <g class="cls-2">
      <g class="cls-3">
        <path class="cls-4" d="m100.39,24.34c0,4.99-.76,9.87-2.29,14.64-1.47,4.57-3.64,8.88-6.42,12.83-2.66,3.77-6.02,7.27-9.66,10.09-3.75,2.91-8,5.27-12.41,6.89-4.62,1.7-9.45,2.67-14.34,2.86-5.01.19-9.94-.38-14.75-1.76-4.61-1.32-8.93-3.32-12.94-5.97-3.92-2.59-7.45-5.8-10.46-9.46-2.95-3.58-5.46-7.79-7.21-12.09-1.85-4.55-3-9.39-3.37-14.24-.1-1.26-.14-2.52-.14-3.78,0-1.35-2.1-1.35-2.1,0,0,5.16.8,10.34,2.38,15.26,1.53,4.74,3.77,9.25,6.65,13.32,2.88,4.07,6.33,7.68,10.28,10.72,3.93,3.03,8.3,5.44,12.95,7.16,4.79,1.77,9.86,2.76,14.96,2.95,5.15.2,10.35-.42,15.31-1.83,4.78-1.37,9.36-3.47,13.5-6.22,4.1-2.72,7.8-6.04,10.92-9.85,3.18-3.89,5.75-8.21,7.64-12.86,1.92-4.71,3.07-9.72,3.47-14.79.1-1.28.15-2.56.15-3.85,0-1.35-2.09-1.35-2.1,0"/>
        <path class="cls-4" d="m14.55,24.83c0-.25.01-.5.03-.75,0-.11.02-.23.03-.34.02-.24-.04.25,0,0,.01-.08.02-.16.04-.23.09-.5.22-1,.39-1.49.04-.11.08-.22.12-.33.03-.07.18-.42.05-.14.12-.26.23-.52.36-.77.25-.48.53-.93.84-1.38.07-.1.14-.21.22-.31.05-.06.09-.12.14-.18-.14.19-.06.07-.02.03.2-.24.39-.48.6-.72.4-.45.82-.87,1.25-1.28.46-.43.95-.84,1.44-1.22-.17.14.19-.14.25-.19.13-.1.27-.2.4-.29.28-.2.56-.39.84-.57,1.22-.81,2.5-1.52,3.82-2.16,1.49-.72,2.73-1.23,4.3-1.8,3.37-1.21,6.85-2.07,10.38-2.68,7.91-1.37,16.21-1.48,24.21-.4,3.55.48,7.19,1.24,10.66,2.31,3.12.96,5.87,2.06,8.71,3.67.61.35,1.21.72,1.8,1.1.28.19.56.38.83.58.12.09.24.18.36.27.06.04.12.09.18.13.21.16-.05-.04.1.08.96.76,1.87,1.58,2.68,2.51.19.21.37.44.55.66.16.2-.1-.13,0,0,.04.05.08.1.11.15.09.12.18.24.26.37.31.45.59.92.84,1.41.11.22.22.45.32.67-.12-.28.02.06.05.14.06.15.11.3.16.46.16.48.28.96.36,1.46,0,.04.01.09.02.13.04.24-.02-.25,0,0,.01.11.02.22.03.34.02.27.03.54.03.82,0,.23-.01.45-.03.68-.01.14-.03.27-.04.41.03-.34-.02.1-.03.19-.09.49-.22.98-.38,1.45-.04.11-.08.22-.12.33-.02.07-.05.13-.08.19-.09.23.1-.22,0,0-.11.24-.22.47-.34.7-.25.48-.53.93-.84,1.38-.09.12-.18.25-.26.37-.03.04-.06.08-.09.12.16-.22,0,0-.02.03-.18.22-.36.44-.55.66-.41.46-.84.89-1.28,1.31-.22.2-.44.4-.67.59-.11.09-.22.19-.33.28-.07.06-.14.11-.2.16-.03.03-.33.26-.14.11-1.09.84-2.25,1.58-3.45,2.26-.65.36-1.31.71-1.98,1.03-.33.16-.66.32-1,.47-.18.08-.36.16-.54.24-.21.09-.36.16-.45.19-3.21,1.33-6.55,2.31-9.95,3.04-7.82,1.67-15.97,2.01-23.96,1.26-3.76-.36-7.51-.99-11.19-1.96-1.67-.44-3.31-.94-4.93-1.53-1.55-.56-2.76-1.07-4.23-1.79-1.29-.64-2.56-1.34-3.76-2.14-.28-.19-.56-.38-.83-.58-.12-.09-.24-.18-.36-.27-.07-.05-.14-.11-.21-.16-.16-.12.1.08-.1-.08-.5-.4-.99-.82-1.46-1.26-.43-.41-.85-.83-1.24-1.28-.17-.2-.33-.4-.5-.6-.16-.2.13.18-.02-.03-.04-.06-.09-.12-.14-.18-.09-.12-.17-.24-.26-.37-.3-.44-.58-.9-.82-1.38-.05-.11-.11-.21-.16-.32-.03-.06-.06-.13-.09-.19,0-.02-.1-.23-.03-.07.07.17-.02-.05-.03-.07-.03-.06-.05-.13-.08-.19-.05-.13-.09-.26-.14-.39-.15-.45-.27-.92-.35-1.39-.01-.07-.02-.13-.03-.2-.04-.24.02.25,0,0-.01-.11-.02-.22-.03-.34-.02-.25-.03-.5-.03-.75,0-1.35-2.1-1.35-2.1,0,.02,5.11,3.79,9.11,7.78,11.79,2.64,1.77,5.56,3.12,8.54,4.21,3.44,1.26,7.02,2.16,10.63,2.78,8.32,1.45,16.88,1.56,25.24.43,7-.95,14.12-2.79,20.27-6.36,4.15-2.41,8.55-6.13,9.33-11.15.36-2.31-.04-4.58-1.09-6.66-1.11-2.19-2.87-4.04-4.79-5.55-5.2-4.08-11.71-6.34-18.1-7.72-8.16-1.77-16.67-2.16-24.97-1.34-7.32.72-14.71,2.34-21.33,5.63-4.56,2.27-9.38,5.72-11.02,10.79-.33,1.01-.49,2.09-.5,3.16,0,1.35,2.09,1.35,2.1,0"/>
        <path class="cls-4" d="m6.38,24.83c0-.3.01-.6.04-.9.01-.14.03-.27.04-.41.03-.28-.04.23,0-.05.02-.09.03-.19.05-.28.11-.61.26-1.22.46-1.81.09-.27.19-.53.3-.79-.09.22.1-.23.14-.3.07-.16.15-.31.23-.47.3-.59.64-1.15,1-1.7.19-.28.39-.56.6-.83-.12.16.15-.19.19-.24.12-.15.24-.3.37-.44.48-.56.98-1.09,1.51-1.6,1.21-1.16,2.33-2.06,3.67-2.97,6.62-4.55,14.54-7.05,22.37-8.5,9.55-1.77,19.5-1.92,29.1-.5,8.16,1.21,16.41,3.5,23.51,7.79,2.74,1.65,5.17,3.5,7.25,6,.1.12.2.25.3.37.01.02.2.26.07.09.06.07.11.15.17.23.2.27.4.55.58.83.36.55.69,1.11.97,1.7.08.16.15.31.22.47.02.05.05.11.07.16-.1-.23.01.03.03.07.12.3.23.61.33.92.19.6.31,1.2.42,1.82.03.2,0,0,0-.03,0,.08.02.16.03.24.01.14.03.27.04.41.02.33.03.66.02.98,0,.29-.02.57-.05.86,0,.07-.02.14-.02.2-.03.28.04-.23,0,.05-.03.16-.05.33-.08.49-.12.61-.28,1.21-.48,1.8-.05.15-.11.3-.16.45-.03.07-.2.49-.11.28-.13.3-.27.6-.41.89-.31.62-.67,1.22-1.05,1.8-.19.28-.38.56-.58.83-.04.05-.3.4-.19.26-.14.18-.29.36-.44.54-.99,1.2-2.11,2.3-3.29,3.31-2.67,2.29-5.85,4.22-9.11,5.8-3.76,1.83-7.74,3.21-11.79,4.25-9.42,2.42-19.32,2.97-28.97,1.81-8.5-1.02-17.06-3.43-24.51-7.71-2.98-1.71-5.64-3.61-8.01-6.08-1.1-1.15-1.85-2.07-2.67-3.36-.36-.57-.68-1.16-.97-1.76-.06-.13-.12-.27-.19-.4-.01-.03-.13-.3-.03-.07-.02-.05-.04-.11-.07-.16-.12-.32-.24-.65-.35-.98-.18-.56-.32-1.14-.41-1.72-.01-.08-.03-.16-.04-.25-.04-.27.02.16,0,0-.02-.15-.03-.3-.05-.45-.02-.3-.04-.6-.04-.9,0-1.35-2.1-1.35-2.1,0,.02,6.2,4.53,11.3,9.19,14.86,6.63,5.09,14.82,8.13,22.93,9.88,9.91,2.13,20.23,2.34,30.23.71,8.53-1.39,17.11-4.16,24.37-8.93,2.84-1.87,5.54-4.07,7.66-6.74,1.76-2.22,3.22-4.79,3.69-7.62.46-2.73,0-5.44-1.2-7.93-1.29-2.69-3.37-4.98-5.65-6.87-6.16-5.12-14.02-8.07-21.74-9.89C63.99,0,53.74-.54,43.76.51c-8.86.93-17.8,3.06-25.73,7.24-5.46,2.88-11.21,7.17-13.15,13.31-.39,1.21-.59,2.5-.59,3.77,0,1.35,2.09,1.35,2.1,0"/>
        <path class="cls-4" d="m54.47,43.76V10.56c0-1.53.04-3.06,0-4.58,0-.02,0-.04,0-.06,0-.55-.48-1.07-1.05-1.05-.57.03-1.05.46-1.05,1.05v33.2c0,1.53-.04,3.06,0,4.58,0,.02,0,.04,0,.06,0,.55.48,1.07,1.05,1.05.57-.03,1.05-.46,1.05-1.05"/>
        <path class="cls-4" d="m60.7,6.32v32.48c0,1.49-.04,2.99,0,4.48,0,.02,0,.04,0,.06,0,.55.48,1.07,1.05,1.05.57-.03,1.05-.46,1.05-1.05V10.87c0-1.49.04-2.99,0-4.48,0-.02,0-.04,0-.06,0-.55-.48-1.07-1.05-1.05-.57.03-1.05.46-1.05,1.05"/>
        <path class="cls-4" d="m68.71,7.56v30.27c0,1.4-.04,2.81,0,4.21,0,.02,0,.04,0,.06,0,.55.48,1.07,1.05,1.05.57-.03,1.05-.46,1.05-1.05V11.83c0-1.4.04-2.81,0-4.21,0-.02,0-.04,0-.06,0-.55-.48-1.07-1.05-1.05-.57.03-1.05.46-1.05,1.05"/>
        <path class="cls-4" d="m44.36,6.29v32.49c0,1.5-.04,3,0,4.5,0,.02,0,.04,0,.06,0,.55.48,1.07,1.05,1.05.57-.03,1.05-.46,1.05-1.05V10.85c0-1.5.04-3,0-4.5,0-.02,0-.04,0-.06,0-.55-.48-1.07-1.05-1.05-.57.03-1.05.46-1.05,1.05"/>
        <path class="cls-4" d="m36.34,7.56v30.34c0,1.4-.04,2.81,0,4.21,0,.02,0,.04,0,.06,0,.55.48,1.07,1.05,1.05.57-.03,1.05-.46,1.05-1.05V11.83c0-1.4.04-2.81,0-4.21,0-.02,0-.04,0-.06,0-.55-.48-1.07-1.05-1.05-.57.03-1.05.46-1.05,1.05"/>
        <path class="cls-4" d="m76.73,9.84v26.31c0,1.21-.04,2.42,0,3.63,0,.02,0,.03,0,.05,0,.55.48,1.07,1.05,1.05.57-.03,1.05-.46,1.05-1.05V13.52c0-1.21.04-2.42,0-3.63,0-.02,0-.03,0-.05,0-.55-.48-1.07-1.05-1.05-.57.03-1.05.46-1.05,1.05"/>
        <path class="cls-4" d="m84.74,13.76v22.15c0,.55.48,1.07,1.05,1.05.57-.03,1.05-.46,1.05-1.05V13.76c0-.55-.48-1.07-1.05-1.05-.57.03-1.05.46-1.05,1.05"/>
        <path class="cls-4" d="m28.33,9.84v26.31c0,1.21-.04,2.42,0,3.63,0,.02,0,.03,0,.05,0,.55.48,1.07,1.05,1.05.57-.03,1.05-.46,1.05-1.05V13.52c0-1.21.04-2.42,0-3.63,0-.02,0-.03,0-.05,0-.55-.48-1.07-1.05-1.05-.57.03-1.05.46-1.05,1.05"/>
        <path class="cls-4" d="m20.31,13.56v22.35c0,.55.48,1.07,1.05,1.05.57-.03,1.05-.46,1.05-1.05V13.56c0-.55-.48-1.07-1.05-1.05-.57.03-1.05.46-1.05,1.05"/>
        <path class="cls-4" d="m52.34,68.66v66.36c0,.9-.01,1.79,0,2.69,0,.04,0,.08,0,.11,0,.55.48,1.07,1.05,1.05.57-.03,1.05-.46,1.05-1.05v-66.36c0-.9.01-1.79,0-2.69,0-.04,0-.08,0-.11,0-.55-.48-1.07-1.05-1.05-.57.03-1.05.46-1.05,1.05"/>
        <path class="cls-4" d="m51.16,136.45h4.45v5.03c-1.42,2.31-2.9,2.41-4.45,0v-5.03Z"/>
        <path class="cls-4" d="m51.16,137.15h4.45c-.23-.23-.47-.47-.7-.7v5.03c.03-.12.06-.24.1-.35-.27.44-.52.79-.92,1.13-.02.02-.14.1-.04.03-.03.02-.07.05-.1.07-.08.05-.17.1-.25.14.14-.07-.09.02-.14.04-.02,0-.17.03-.06.01.11-.01-.05,0-.06,0-.03,0-.07,0-.1,0-.15,0,.08.03,0,0-.08-.03-.17-.04-.26-.07-.09-.03.14.08-.02,0-.04-.02-.09-.05-.13-.07-.04-.03-.09-.06-.13-.08-.04-.02-.07-.05-.02,0-.42-.32-.73-.74-1.01-1.18.03.12.06.24.1.35v-5.03c0-.38-.32-.7-.7-.7s-.7.32-.7.7v4.91c0,.27.1.49.26.72.55.8,1.3,1.68,2.32,1.84.99.16,1.84-.37,2.47-1.1.3-.35.78-.87.8-1.35,0-.11,0-.22,0-.32v-4.69c0-.38-.32-.7-.7-.7h-4.45c-.38,0-.7.32-.7.7s.32.7.7.7"/>
        <path class="cls-4" d="m78.34,65.34l.61,1.57c.56,1.43,1.11,2.86,1.67,4.29.82,2.11,1.64,4.23,2.46,6.34,1,2.58,2.01,5.16,3.01,7.73,1.1,2.82,2.2,5.65,3.29,8.47,1.11,2.85,2.22,5.7,3.33,8.55,1.03,2.66,2.07,5.32,3.1,7.97.87,2.25,1.75,4.49,2.62,6.74.63,1.61,1.25,3.22,1.88,4.83.3.77.59,1.54.9,2.3.01.03.03.06.04.1.2.53.7.89,1.29.73.5-.14.94-.76.73-1.29-.2-.52-.41-1.05-.61-1.57-.56-1.43-1.11-2.86-1.67-4.29-.82-2.11-1.64-4.23-2.46-6.34-1-2.58-2.01-5.16-3.01-7.73-1.1-2.82-2.2-5.65-3.29-8.47-1.11-2.85-2.22-5.7-3.33-8.55-1.03-2.66-2.07-5.32-3.1-7.97-.87-2.25-1.75-4.49-2.62-6.74-.63-1.61-1.25-3.22-1.88-4.83-.3-.77-.59-1.54-.9-2.3-.01-.03-.03-.06-.04-.1-.2-.53-.7-.89-1.29-.73-.5.14-.94.76-.73,1.29"/>
        <path class="cls-4" d="m99.69,122.4l3.43-1.53,1.71,3.92c-.31,2.29-1.42,2.87-3.43,1.53l-1.71-3.92Z"/>
        <path class="cls-4" d="m100.04,123l3.43-1.53c-.32-.08-.64-.17-.96-.25.57,1.31,1.14,2.61,1.71,3.92-.02-.18-.05-.36-.07-.54-.03.24-.08.48-.14.71-.03.11-.06.22-.1.32-.02.05-.04.1-.06.15.02-.06.03-.06,0,0-.04.08-.09.16-.13.24-.01.02-.1.14-.03.06.06-.08-.03.04-.04.04-.03.03-.18.16-.1.1.08-.06-.11.06-.14.08-.05.04.11-.03.04-.02-.03,0-.07.02-.11.03-.02,0-.16.03-.04.01.12-.02-.03,0-.05,0-.08,0-.15,0-.23,0-.08,0,.13.03,0,0-.05-.01-.09-.02-.14-.03-.09-.02-.17-.05-.26-.08-.19-.06.06.03-.05-.02-.05-.02-.11-.05-.16-.07-.24-.12-.46-.25-.68-.4.08.08.17.17.25.25-.57-1.31-1.14-2.61-1.71-3.92-.15-.35-.66-.43-.96-.25-.36.21-.4.61-.25.96.33.75.66,1.51.98,2.26.19.44.39.89.58,1.33.04.1.08.21.14.31.16.3.61.5.9.65.64.32,1.41.57,2.12.34.71-.23,1.14-.82,1.4-1.49.15-.36.23-.75.28-1.14.04-.27-.02-.47-.12-.7l-.5-1.15c-.38-.88-.77-1.76-1.15-2.65-.16-.37-.65-.39-.96-.25-1.14.51-2.29,1.02-3.43,1.53-.34.15-.43.66-.25.96.21.36.61.4.96.25"/>
        <path class="cls-4" d="m26.51,64.53c-.22.5-.43,1-.65,1.5-.59,1.36-1.18,2.71-1.77,4.07-.87,2.01-1.75,4.02-2.62,6.02-1.07,2.45-2.13,4.9-3.2,7.35-1.17,2.68-2.34,5.37-3.51,8.05-1.18,2.71-2.36,5.42-3.54,8.13-1.1,2.53-2.2,5.05-3.3,7.58-.93,2.13-1.86,4.27-2.79,6.4-.67,1.53-1.34,3.07-2.01,4.6-.32.73-.63,1.45-.95,2.18-.01.03-.03.06-.04.09-.23.52-.15,1.12.38,1.43.44.26,1.21.15,1.43-.38.22-.5.43-1,.65-1.5.59-1.36,1.18-2.71,1.77-4.07.87-2.01,1.75-4.02,2.62-6.02,1.07-2.45,2.13-4.9,3.2-7.35,1.17-2.68,2.34-5.37,3.51-8.05,1.18-2.71,2.36-5.42,3.54-8.12,1.1-2.53,2.2-5.05,3.3-7.58.93-2.13,1.86-4.27,2.79-6.4.67-1.53,1.34-3.07,2.01-4.6.32-.73.63-1.45.95-2.18.01-.03.03-.06.04-.09.23-.52.15-1.12-.38-1.43-.44-.26-1.21-.15-1.43.38"/>
        <path class="cls-4" d="m2.16,118.09l3.21,1.34-1.46,3.78c-1.7,1.3-2.79.93-3.21-1.34l1.46-3.78Z"/>
        <path class="cls-4" d="m1.97,118.76c1.07.45,2.14.9,3.21,1.34-.16-.29-.33-.57-.49-.86-.49,1.26-.97,2.52-1.46,3.78.11-.14.21-.28.32-.42-.18.14-.36.26-.55.38-.09.05-.18.1-.27.15-.03.02-.16.07-.02.01-.03.01-.07.03-.1.04-.08.03-.16.05-.24.07-.03,0-.16.02-.05.01.12-.01-.03,0-.04,0-.05,0-.23-.03-.12,0,.16.04-.22-.06-.06-.02.1.02.02,0-.01,0-.03-.02-.06-.04-.09-.05-.11-.05.07.08.02.02-.02-.03-.06-.05-.08-.08-.02-.02-.04-.05-.06-.07-.1-.09.04.07,0,0-.04-.08-.1-.15-.14-.22-.02-.04-.12-.25-.07-.12-.04-.1-.08-.2-.11-.31-.08-.24-.13-.48-.18-.73v.37l1.46-3.78c.14-.35-.15-.77-.49-.86-.39-.11-.72.13-.86.49-.28.72-.55,1.43-.83,2.15-.17.44-.34.88-.51,1.32-.04.1-.08.19-.11.29-.1.32.06.77.16,1.09.2.65.54,1.34,1.16,1.68.64.34,1.34.24,1.97-.04.33-.15.64-.35.93-.57.2-.15.29-.33.37-.54.14-.37.29-.74.43-1.11.33-.85.65-1.7.98-2.54.15-.38-.17-.73-.49-.86-1.07-.45-2.14-.9-3.21-1.34-.35-.15-.77.16-.86.49-.11.4.14.71.49.86"/>
        <path class="cls-4" d="m17.66,88.5h67.55c.91,0,1.82.03,2.73,0,.04,0,.08,0,.12,0-.18-.65-.35-1.3-.53-1.95l-3.53,2.32c-2.8,1.84-5.6,3.69-8.4,5.53-3.38,2.23-6.77,4.46-10.15,6.69-2.93,1.93-5.85,3.85-8.78,5.78-.97.64-1.94,1.28-2.91,1.92-.45.3-.93.58-1.37.9-.02.01-.04.03-.06.04h1.06c-1.18-.77-2.35-1.55-3.53-2.32-2.8-1.84-5.6-3.69-8.4-5.53-3.38-2.23-6.77-4.46-10.15-6.69-2.93-1.93-5.85-3.85-8.78-5.78-1.42-.94-2.82-1.93-4.28-2.82-.02-.01-.04-.03-.06-.04-.47-.31-1.16-.09-1.43.38-.3.51-.1,1.12.38,1.43,1.18.77,2.35,1.55,3.53,2.32,2.8,1.84,5.6,3.69,8.4,5.53,3.38,2.23,6.77,4.46,10.15,6.69,2.93,1.93,5.85,3.85,8.78,5.78,1.42.94,2.82,1.93,4.28,2.82.02.01.04.03.06.04.3.2.76.2,1.06,0,1.18-.77,2.35-1.55,3.53-2.32,2.8-1.84,5.6-3.69,8.4-5.53l10.15-6.69c2.93-1.93,5.85-3.85,8.78-5.78,1.43-.94,2.87-1.85,4.28-2.82.02-.01.04-.03.06-.04.85-.56.55-1.95-.53-1.95H20.51c-.91,0-1.82-.01-2.73,0-.04,0-.08,0-.12,0-.57,0-1.05.48-1.05,1.05s.48,1.05,1.05,1.05"/>
      </g>
    </g>
  </g>
</svg>