<?xml version="1.0" encoding="UTF-8"?>
<svg id="Livello_2" data-name="Livello 2" xmlns="http://www.w3.org/2000/svg" xmlns:xlink="http://www.w3.org/1999/xlink" viewBox="0 0 138.59 110.21">
  <defs>
    <style>
      .cls-1, .cls-2, .cls-3 {
        fill: none;
      }

      .cls-2 {
        clip-path: url(#clippath);
      }

      .cls-3 {
        clip-path: url(#clippath-1);
      }

      .cls-4 {
        fill: #010101;
      }
    </style>
    <clipPath id="clippath">
      <rect class="cls-1" width="138.59" height="110.21"/>
    </clipPath>
    <clipPath id="clippath-1">
      <rect class="cls-1" width="138.59" height="110.21"/>
    </clipPath>
  </defs>
  <g id="baule">
    <g class="cls-2">
      <g class="cls-3">
        <path class="cls-4" d="m2.03,39.64c1.2,0,2.41,0,3.61,0,3.26,0,6.52,0,9.79-.01,4.82,0,9.64-.01,14.46-.02l17.71-.02c6.44,0,12.89-.02,19.33-.02l19.51-.02c6.08,0,12.17-.01,18.25-.02,5.11,0,10.21-.01,15.32-.02,3.7,0,7.4,0,11.09-.01,1.74,0,3.49.04,5.23,0,.08,0,.15,0,.23,0-.65-.86-1.3-1.71-1.96-2.57-.45,2.34-.89,4.69-1.34,7.03-1.07,5.63-2.14,11.26-3.22,16.89-1.3,6.81-2.59,13.62-3.89,20.44-1.12,5.89-2.24,11.77-3.36,17.66-.37,1.94-.74,3.88-1.11,5.82-.17.91-.4,1.83-.52,2.76,0,.04-.02.08-.02.12.65-.5,1.3-.99,1.96-1.49H19.84c-1.4,0-2.8-.05-4.2,0-.06,0-.12,0-.18,0,.65.5,1.3.99,1.96,1.49-.45-2.35-.89-4.7-1.34-7.05-1.07-5.6-2.13-11.2-3.2-16.79-1.3-6.81-2.59-13.63-3.89-20.44-1.11-5.85-2.23-11.71-3.34-17.56-.54-2.85-.96-5.77-1.64-8.59,0-.04-.02-.08-.02-.12-.21-1.08-1.5-1.69-2.5-1.42-1.13.31-1.62,1.42-1.42,2.5.45,2.35.89,4.7,1.34,7.05,1.07,5.6,2.13,11.2,3.2,16.79,1.3,6.81,2.59,13.63,3.89,20.44,1.11,5.85,2.23,11.71,3.34,17.56.37,1.94.74,3.89,1.11,5.83.17.91.3,1.86.53,2.76,0,.04.02.08.02.12.16.86,1.12,1.49,1.96,1.49h103.26c1.4,0,2.8.04,4.2,0,.06,0,.12,0,.18,0,.83,0,1.79-.62,1.96-1.49.45-2.35.89-4.69,1.34-7.03,1.07-5.63,2.14-11.26,3.22-16.89l3.89-20.44c1.12-5.89,2.24-11.77,3.36-17.66.54-2.86,1.12-5.71,1.63-8.57,0-.04.02-.08.02-.12.24-1.28-.55-2.57-1.96-2.57-1.2,0-2.41,0-3.61,0-3.26,0-6.52,0-9.79.01-4.82,0-9.64.01-14.46.02-5.9,0-11.81.01-17.71.02-6.44,0-12.89.02-19.33.02-6.5,0-13.01.02-19.51.02-6.08,0-12.17.01-18.25.02-5.11,0-10.21.01-15.32.02-3.7,0-7.4,0-11.09.01-1.74,0-3.49-.02-5.23,0-.08,0-.15,0-.23,0-1.06,0-2.08.93-2.03,2.03.05,1.1.89,2.03,2.03,2.03"/>
        <path class="cls-4" d="m2.03,39.64c1.06,0,2.08-.93,2.03-2.03-.05-1.1-.89-2.03-2.03-2.03C.97,35.58-.05,36.51,0,37.61c.05,1.1.89,2.03,2.03,2.03"/>
        <path class="cls-4" d="m136.56,39.48c1.06,0,2.08-.93,2.03-2.03-.05-1.1-.89-2.03-2.03-2.03-1.06,0-2.08.93-2.03,2.03.05,1.1.89,2.03,2.03,2.03"/>
        <path class="cls-4" d="m76.56,36.64h-14.53c-1.1,0-2.03.93-2.03,2.03v17.34c0,1.1.93,2.03,2.03,2.03h14.53c1.1,0,2.03-.93,2.03-2.03v-17.34c0-1.06-.93-2.08-2.03-2.03-1.1.05-2.03.89-2.03,2.03v17.34l2.03-2.03h-14.53l2.03,2.03v-17.34l-2.03,2.03h14.53c1.06,0,2.08-.93,2.03-2.03-.05-1.1-.89-2.03-2.03-2.03"/>
        <path class="cls-4" d="m67.11,46.01v3.55c0,.52.23,1.07.59,1.43.35.35.93.62,1.43.59.52-.02,1.07-.2,1.43-.59.36-.4.59-.89.59-1.43v-3.55c0-.52-.23-1.07-.59-1.43-.35-.35-.93-.62-1.43-.59-.52.02-1.07.2-1.43.59-.36.4-.59.89-.59,1.43"/>
        <path class="cls-4" d="m19.08,36.19c-4.21-4.21-8.42-8.42-12.64-12.64-.6-.6-1.19-1.19-1.79-1.79-.48,1.15-.96,2.31-1.43,3.46h125.57c1.69,0,3.39.05,5.08,0,.07,0,.15,0,.22,0l-1.43-3.46-12.71,12.71-1.79,1.79,1.43-.59c-.91,0-1.82,0-2.73,0-2.48,0-4.95,0-7.43,0-3.64,0-7.29,0-10.93,0-4.46,0-8.93,0-13.39,0-4.89,0-9.78,0-14.67-.01-4.94,0-9.87,0-14.81-.01-4.6,0-9.21,0-13.81,0-3.87,0-7.75,0-11.62,0-2.8,0-5.6,0-8.4,0-1.33,0-2.66-.03-3.98,0-.06,0-.11,0-.17,0-1.06,0-2.08.93-2.03,2.03.05,1.1.89,2.03,2.03,2.03,1.3,0,2.6,0,3.9,0h10.37c4.95.01,9.9.01,14.85.02,5.78,0,11.56,0,17.34.01,5.95,0,11.89,0,17.84.01,5.45,0,10.9,0,16.35.01,4.29,0,8.58,0,12.87,0,2.47,0,4.94,0,7.41,0,.34,0,.69.02,1.03,0,.99-.07,1.48-.64,2.1-1.26.67-.67,1.34-1.34,2.01-2.01l11.03-11.03c.27-.27.53-.53.8-.8,1.24-1.24.32-3.46-1.43-3.46H8.52c-1.69,0-3.39-.03-5.08,0-.07,0-.15,0-.22,0-1.76,0-2.68,2.22-1.43,3.46,4.21,4.21,8.42,8.42,12.64,12.63.6.6,1.19,1.19,1.79,1.79.77.77,2.09.77,2.87,0,.78-.78.78-2.09,0-2.87"/>
        <path class="cls-4" d="m34.65,39.21c.44,2.3.88,4.6,1.31,6.9,1.05,5.52,2.1,11.05,3.15,16.57,1.27,6.68,2.54,13.37,3.82,20.05,1.1,5.78,2.2,11.56,3.3,17.34.53,2.8.94,5.66,1.61,8.44,0,.04.02.08.02.12.21,1.08,1.5,1.69,2.5,1.42,1.13-.31,1.62-1.42,1.42-2.5-.44-2.3-.88-4.6-1.31-6.9-1.05-5.52-2.1-11.05-3.15-16.57l-3.82-20.05c-1.1-5.78-2.2-11.56-3.3-17.34-.53-2.8-.94-5.66-1.61-8.44,0-.04-.02-.08-.02-.12-.21-1.08-1.5-1.69-2.5-1.42-1.13.31-1.62,1.42-1.42,2.5"/>
        <path class="cls-4" d="m93.75,106.94l1.3-6.85c1.04-5.49,2.09-10.97,3.13-16.46,1.26-6.64,2.53-13.28,3.79-19.91,1.09-5.74,2.19-11.48,3.28-17.22.53-2.8,1.1-5.59,1.6-8.39,0-.04.02-.08.02-.12.2-1.04-.29-2.24-1.42-2.5-1-.23-2.28.3-2.5,1.42-.43,2.28-.87,4.57-1.3,6.85-1.04,5.49-2.09,10.97-3.13,16.46-1.26,6.64-2.53,13.28-3.79,19.91-1.09,5.74-2.19,11.48-3.28,17.22-.53,2.8-1.1,5.59-1.6,8.39,0,.04-.02.08-.02.12-.2,1.04.29,2.24,1.42,2.5,1,.23,2.28-.3,2.5-1.42"/>
        <path class="cls-4" d="m136.05,22.66c-1.53-4.13-3.59-7.98-6.39-11.39-2.73-3.33-6.19-6.08-10-8.09-2.42-1.28-5-2.29-7.62-3.07-.99-.29-2.29.35-2.5,1.42-1.17,6.16-2.34,12.32-3.52,18.48-.17.89-.34,1.77-.51,2.66-.2,1.04.29,2.24,1.42,2.5,1,.23,2.28-.3,2.5-1.42,1.17-6.16,2.34-12.32,3.52-18.48.17-.89.34-1.77.51-2.66-.83.47-1.66.94-2.5,1.42,1.14.34,2.26.72,3.37,1.15.22.09.44.17.66.26.31.13-.24-.1.07.03.12.05.24.11.37.16.51.23,1.01.46,1.51.71,1.84.92,3.6,2,5.23,3.26-.29-.23.2.17.3.24.19.15.37.3.55.46.41.35.81.71,1.19,1.07.71.67,1.38,1.37,2.01,2.11.29.33.57.67.84,1.01.07.09.15.18.22.28-.23-.3-.04-.05,0,0,.17.24.35.47.52.71.56.79,1.09,1.61,1.58,2.45.56.95,1.07,1.93,1.54,2.93.12.25.23.49.34.74.04.09.35.81.19.44.24.57.46,1.14.67,1.71.38,1.03,1.37,1.72,2.5,1.42.99-.27,1.8-1.46,1.42-2.5"/>
        <path class="cls-4" d="m4.97,24.22c.87-2.04,1.87-4.03,3.04-5.91.56-.89,1.16-1.76,1.79-2.61.2-.27-.29.37.05-.06.07-.09.14-.18.21-.27.16-.2.32-.4.49-.59.35-.41.7-.81,1.07-1.21.74-.79,1.51-1.54,2.33-2.25.39-.34.79-.67,1.19-.99.44-.35-.2.15.07-.05.12-.09.23-.17.35-.26.23-.17.47-.34.71-.51.93-.64,1.89-1.23,2.88-1.77.48-.26.97-.51,1.47-.75.22-.11.45-.21.67-.31.14-.06.28-.13.43-.19.09-.04.17-.08.26-.11-.17.07-.18.08-.05.02,2.66-1.09,5.43-1.86,8.25-2.38-.83-.47-1.66-.94-2.5-1.42,1.08,5.66,2.16,11.32,3.23,16.98l.45,2.38c.21,1.08,1.5,1.69,2.5,1.42,1.13-.31,1.62-1.42,1.42-2.5-1.08-5.66-2.16-11.32-3.23-16.98-.15-.79-.3-1.59-.45-2.38-.22-1.14-1.49-1.6-2.5-1.42-5.04.94-10,2.69-14.29,5.52-3.89,2.56-7.16,5.9-9.73,9.78-1.42,2.13-2.6,4.42-3.6,6.78-.43,1.01-.3,2.17.73,2.78.85.5,2.35.29,2.78-.73"/>
        <path class="cls-4" d="m29.64,4.09h71.79c3.31,0,6.63.08,9.93,0,.05,0,.09,0,.14,0,1.06,0,2.08-.93,2.03-2.03-.05-1.1-.89-2.03-2.03-2.03H39.71C36.4.04,33.09-.05,29.78.04c-.05,0-.09,0-.14,0-1.06,0-2.08.93-2.03,2.03.05,1.1.89,2.03,2.03,2.03"/>
      </g>
    </g>
  </g>
</svg>