<?xml version="1.0" encoding="UTF-8"?>
<svg id="Livello_2" data-name="Livello 2" xmlns="http://www.w3.org/2000/svg" xmlns:xlink="http://www.w3.org/1999/xlink" viewBox="0 0 146.18 94.04">
  <defs>
    <style>
      .cls-1, .cls-2, .cls-3 {
        fill: none;
      }

      .cls-2 {
        clip-path: url(#clippath);
      }

      .cls-3 {
        clip-path: url(#clippath-1);
      }

      .cls-4 {
        fill: #1d1d1c;
      }
    </style>
    <clipPath id="clippath">
      <rect class="cls-1" width="146.18" height="94.04"/>
    </clipPath>
    <clipPath id="clippath-1">
      <rect class="cls-1" width="146.18" height="94.04"/>
    </clipPath>
  </defs>
  <g id="bicicletta">
    <g class="cls-2">
      <g class="cls-3">
        <path class="cls-4" d="m52.82,36.15c1.86.13,3.72.27,5.58.4,4.48.32,8.96.65,13.45.97,5.41.39,10.81.78,16.22,1.17l14.06,1.02c1.54.11,3.07.22,4.61.33.72.05,1.46.14,2.18.16.03,0,.06,0,.09,0-.27-.98-.53-1.97-.8-2.95-1.46,1.03-2.92,2.06-4.37,3.1-3.47,2.46-6.94,4.91-10.41,7.37-4.23,2.99-8.45,5.98-12.68,8.97l-10.88,7.7c-1.2.85-2.41,1.7-3.61,2.56-.56.4-1.18.77-1.71,1.21-.02.02-.05.03-.07.05.27-.07.53-.14.8-.22-1.29-.07-2.58-.13-3.88-.2-3.09-.16-6.17-.32-9.26-.48-3.73-.19-7.46-.39-11.19-.58-3.24-.17-6.48-.34-9.72-.5-1.56-.08-3.15-.26-4.71-.24-.02,0-.05,0-.07,0,.37.9.75,1.8,1.12,2.71.87-1.09,1.74-2.18,2.62-3.28,2.1-2.62,4.19-5.25,6.29-7.87,2.55-3.19,5.1-6.38,7.64-9.57,2.19-2.74,4.39-5.49,6.58-8.23,1.07-1.33,2.14-2.67,3.2-4,.02-.02.03-.04.05-.06.53-.67.65-1.59,0-2.24-.55-.55-1.7-.67-2.24,0-.87,1.09-1.74,2.18-2.62,3.28-2.1,2.62-4.19,5.25-6.29,7.87-2.55,3.19-5.1,6.38-7.64,9.57-2.19,2.74-4.39,5.49-6.58,8.23-1.07,1.33-2.14,2.66-3.2,4-.02.02-.03.04-.05.06-.41.51-.61,1.1-.33,1.73.26.6.8.94,1.45.97,1.78.09,3.55.18,5.33.28,4.03.21,8.05.42,12.08.63,4.3.22,8.6.45,12.9.67,2.66.14,5.31.28,7.97.41.53.03.99.03,1.47-.28.51-.33,1-.7,1.49-1.06,2.32-1.64,4.63-3.28,6.95-4.92,3.4-2.41,6.8-4.82,10.21-7.22,3.64-2.57,7.28-5.15,10.91-7.72,3.03-2.15,6.06-4.29,9.09-6.44,1.58-1.12,3.16-2.24,4.75-3.36.07-.05.14-.1.21-.15,1.3-.92.82-2.84-.8-2.95-1.86-.13-3.72-.27-5.58-.4-4.48-.32-8.97-.65-13.45-.97-5.41-.39-10.81-.78-16.22-1.17-4.69-.34-9.37-.68-14.06-1.02-2.26-.16-4.53-.43-6.8-.49-.03,0-.06,0-.09,0-.83-.06-1.62.77-1.58,1.58.04.91.7,1.52,1.58,1.58"/>
        <path class="cls-4" d="m34.35,89.5c-1.21.43-2.46.77-3.72,1.01-.31.06-.62.11-.93.16-.07.01-.14.02-.22.03.03,0,.25-.03.06,0-.17.02-.34.04-.5.06-.62.07-1.24.11-1.86.13-1.23.04-2.46-.03-3.69-.17-.06,0-.31-.04,0,0-.07,0-.14-.02-.21-.03-.14-.02-.28-.04-.42-.06-.3-.05-.6-.1-.9-.16-.62-.13-1.23-.27-1.84-.45-.58-.17-1.16-.35-1.73-.56-.26-.1-.52-.2-.78-.3-.06-.02-.4-.17-.26-.11.16.07-.05-.02-.07-.03-.11-.05-.21-.09-.32-.14-1.1-.5-2.17-1.08-3.19-1.74-.51-.33-1.01-.68-1.49-1.04-.06-.04-.11-.08-.17-.13.02.02.18.14.04.03-.11-.09-.22-.17-.33-.26-.25-.21-.5-.42-.75-.64-.92-.81-1.78-1.7-2.56-2.64-.09-.11-.18-.22-.27-.33-.05-.06-.33-.42-.15-.18-.19-.25-.37-.5-.55-.75-.36-.51-.7-1.04-1.03-1.57-.33-.54-.63-1.1-.91-1.67-.14-.29-.28-.57-.41-.87-.06-.14-.12-.27-.18-.41.11.24-.07-.17-.1-.24-.48-1.2-.87-2.44-1.16-3.7-.14-.62-.26-1.24-.35-1.87,0-.04-.05-.35-.02-.15.02.18,0-.06,0-.08-.02-.14-.03-.29-.05-.43-.04-.33-.06-.67-.09-1-.08-1.23-.07-2.47.04-3.7.02-.28.06-.56.09-.84.04-.31-.03.17.02-.14.03-.19.06-.37.09-.56.1-.6.22-1.2.37-1.79.29-1.18.66-2.34,1.12-3.46.04-.09.16-.39.06-.14.06-.13.11-.26.17-.38.13-.3.27-.59.42-.88.27-.54.56-1.07.87-1.59.31-.52.64-1.03.99-1.53.17-.25.35-.49.54-.74.04-.06.08-.11.13-.17-.02.02-.15.18-.03.04.1-.13.2-.26.31-.38.78-.95,1.62-1.83,2.53-2.65.23-.21.46-.41.7-.61.11-.09.22-.18.33-.27.07-.05.4-.32.18-.15.49-.38,1-.74,1.53-1.08,1.06-.69,2.18-1.3,3.33-1.82.09-.04.18-.08.27-.12.01,0,.24-.1.08-.04-.11.05.23-.09.29-.12.33-.13.65-.25.98-.37.61-.22,1.23-.41,1.86-.57.62-.16,1.24-.31,1.87-.42.29-.05.57-.1.86-.15.07-.01.14-.02.22-.03-.03,0-.25.03-.06,0,.19-.02.38-.05.57-.07,1.23-.13,2.48-.16,3.72-.1.61.03,1.22.09,1.83.16.19.02-.05,0-.07-.01.07,0,.14.02.21.03.14.02.28.04.42.07.32.05.65.11.97.18,1.19.24,2.36.58,3.5.99.28.1.57.21.85.33.09.04.39.16.14.06.15.07.3.13.45.2.55.25,1.09.52,1.63.81,1.07.58,2.08,1.24,3.06,1.97.06.04.11.08.17.13-.23-.17-.03-.02.01.01.11.09.22.18.33.26.24.19.47.39.7.59.48.42.94.86,1.38,1.32.43.44.84.9,1.23,1.37.09.11.18.22.27.33.05.07.26.33.11.13.2.27.4.54.59.81.72,1.03,1.37,2.12,1.93,3.25.13.26.26.53.38.8.06.14.12.27.18.41-.11-.24.09.23.13.31.24.6.46,1.22.65,1.84.38,1.22.65,2.47.85,3.73.05.31-.02-.16.02.15.02.14.03.29.05.43.04.33.06.67.09,1,.04.62.06,1.24.05,1.86,0,.62-.04,1.23-.09,1.84-.03.31-.06.61-.1.91-.02.19,0-.05.01-.07,0,.07-.02.14-.03.21-.02.16-.05.32-.08.49-.2,1.2-.49,2.39-.86,3.54-.19.58-.39,1.15-.62,1.71-.04.09-.07.17-.11.26,0-.02.1-.22.02-.06-.06.13-.11.26-.17.38-.13.28-.26.55-.39.82-.55,1.11-1.19,2.17-1.9,3.18-.16.23-.33.46-.49.68-.04.06-.08.11-.13.17.02-.02.14-.18.03-.04-.12.15-.23.29-.35.44-.39.47-.8.93-1.22,1.37-.42.44-.87.87-1.32,1.28-.21.19-.43.38-.64.56-.13.11-.26.21-.39.32-.06.04-.11.09-.17.13-.19.15.18-.14-.02.01-1,.76-2.05,1.44-3.15,2.04-.54.29-1.09.57-1.65.82-.14.06-.27.12-.41.18.23-.1-.1.04-.17.07-.32.13-.65.25-.98.37-.81.29-1.35,1.08-1.11,1.95.21.78,1.14,1.4,1.95,1.11,5.22-1.87,9.71-5.26,12.92-9.79,3.05-4.32,4.72-9.6,4.78-14.88.06-5.48-1.65-11.03-4.83-15.5-3.15-4.42-7.55-7.77-12.65-9.64-5.02-1.84-10.62-2.06-15.79-.68-5.26,1.41-10.08,4.46-13.53,8.68C2.66,54.94.58,60.03.1,65.43c-.49,5.46.85,11.08,3.67,15.78,2.73,4.55,6.87,8.28,11.71,10.45,5,2.24,10.52,2.93,15.92,1.92,1.29-.24,2.56-.59,3.79-1.02.81-.28,1.34-1.08,1.11-1.95-.22-.78-1.14-1.39-1.95-1.11"/>
        <path class="cls-4" d="m66.8,69.16c-.52-1.47-1.05-2.94-1.57-4.41-1.25-3.53-2.51-7.06-3.76-10.58l-4.53-12.75c-1.31-3.69-2.62-7.38-3.94-11.07-.64-1.79-1.25-3.6-1.91-5.38,0-.02-.02-.05-.03-.08-.29-.81-1.08-1.35-1.95-1.11-.78.21-1.4,1.14-1.11,1.95.52,1.47,1.04,2.94,1.57,4.41,1.25,3.53,2.51,7.06,3.76,10.58,1.51,4.25,3.02,8.5,4.53,12.75,1.31,3.69,2.62,7.38,3.94,11.07.64,1.79,1.25,3.6,1.91,5.38,0,.02.02.05.03.08.29.81,1.08,1.35,1.95,1.11.78-.21,1.4-1.14,1.11-1.95"/>
        <path class="cls-4" d="m43.32,26.9h15.32c.63,0,1.22-.4,1.45-.97.22-.54.17-1.33-.33-1.73-4.03-3.27-9.11-5.97-14.45-5.77-1.6.06-3.35.36-4.71,1.27-1.23.82-2.15,2.21-1.75,3.74.48,1.86,2.39,2.83,4.06,3.41.78.28,1.77-.31,1.95-1.11.2-.89-.27-1.65-1.11-1.95-.11-.04-.21-.08-.32-.12-.03-.01-.36-.15-.11-.04.22.09-.24-.11-.31-.15-.29-.14-.54-.35-.82-.49-.17-.09.31.28.11.08-.05-.05-.11-.09-.16-.14-.03-.03-.21-.25-.23-.24.16-.04.23.34.13.17-.03-.05-.07-.1-.1-.15-.02-.03-.04-.07-.06-.1-.18-.27.06.32.05.13,0-.04-.04-.23-.06-.25.16.16.01.48.04.13.01-.19-.1.51-.01.13,0-.04.03-.08.04-.12.05-.27-.21.35-.07.17.05-.06.1-.16.14-.23.11-.21-.29.3-.11.14.03-.02.05-.06.08-.09.07-.07.15-.14.22-.21.22-.22-.07.14-.12.09,0,0,.16-.11.17-.11.21-.13.42-.24.64-.35.27-.14-.38.13-.08.04.07-.02.13-.05.19-.07.15-.05.3-.1.45-.14.32-.09.64-.15.96-.21.12-.02.34-.1-.07,0,.1-.03.21-.02.31-.03.21-.02.43-.03.65-.04.38-.01.77,0,1.15.01.2.01.41.03.61.05.08,0,.17.02.25.03.18.02.17.02-.04,0,.09.01.17.02.26.04.98.15,1.95.4,2.89.71,1.26.42,2.15.83,3.4,1.52,1.3.73,2.54,1.56,3.69,2.5l1.12-2.71h-15.32c-.83,0-1.62.73-1.58,1.58.04.86.7,1.58,1.58,1.58"/>
        <path class="cls-4" d="m127.64,89.5c-1.21.43-2.46.77-3.72,1.01-.31.06-.62.11-.93.16-.07.01-.14.02-.22.03.03,0,.25-.03.06,0-.17.02-.34.04-.5.06-.62.07-1.24.11-1.86.13-1.23.04-2.46-.03-3.69-.17-.06,0-.31-.04,0,0-.07,0-.14-.02-.21-.03-.14-.02-.28-.04-.42-.06-.3-.05-.6-.1-.9-.16-.62-.13-1.23-.27-1.84-.45-.58-.17-1.16-.35-1.73-.56-.26-.1-.52-.2-.78-.3-.06-.02-.4-.17-.26-.11.16.07-.05-.02-.07-.03-.11-.05-.21-.09-.32-.14-1.1-.5-2.17-1.08-3.19-1.74-.51-.33-1.01-.68-1.49-1.04-.06-.04-.11-.08-.17-.13.02.02.18.14.04.03-.11-.09-.22-.17-.33-.26-.25-.21-.5-.42-.75-.64-.92-.81-1.78-1.7-2.56-2.64-.09-.11-.18-.22-.27-.33-.05-.06-.33-.42-.15-.18-.19-.25-.37-.5-.55-.75-.36-.51-.7-1.04-1.03-1.57-.33-.54-.63-1.1-.91-1.67-.14-.29-.28-.57-.41-.87-.06-.14-.12-.27-.18-.41.11.24-.07-.17-.1-.24-.48-1.2-.87-2.44-1.16-3.7-.14-.62-.26-1.24-.35-1.87,0-.04-.05-.35-.02-.15.02.18,0-.06,0-.08-.02-.14-.03-.29-.05-.43-.04-.33-.06-.67-.09-1-.08-1.23-.07-2.47.04-3.7.02-.28.06-.56.09-.84.04-.31-.03.17.02-.14.03-.19.06-.37.09-.56.1-.6.22-1.2.37-1.79.29-1.18.66-2.34,1.12-3.46.04-.09.16-.39.06-.14.06-.13.11-.26.17-.38.13-.3.27-.59.42-.88.27-.54.56-1.07.87-1.59.31-.52.64-1.03.99-1.53.17-.25.35-.49.54-.74.04-.06.08-.11.13-.17-.02.02-.15.18-.03.04.1-.13.2-.26.31-.38.78-.95,1.62-1.83,2.53-2.65.23-.21.46-.41.7-.61.11-.09.22-.18.33-.27.07-.05.4-.32.18-.15.49-.38,1-.74,1.53-1.08,1.06-.69,2.18-1.3,3.33-1.82.09-.04.18-.08.27-.12.01,0,.24-.1.08-.04-.11.05.23-.09.29-.12.33-.13.65-.25.98-.37.61-.22,1.23-.41,1.86-.57.62-.16,1.24-.31,1.87-.42.29-.05.57-.1.86-.15.07-.01.14-.02.22-.03-.03,0-.25.03-.06,0,.19-.02.38-.05.57-.07,1.23-.13,2.48-.16,3.72-.1.61.03,1.22.09,1.83.16.19.02-.05,0-.07-.01.07,0,.14.02.21.03.14.02.28.04.42.07.32.05.65.11.97.18,1.19.24,2.36.58,3.5.99.28.1.57.21.85.33.09.04.39.16.14.06.15.07.3.13.45.2.55.25,1.09.52,1.63.81,1.07.58,2.08,1.24,3.06,1.97.06.04.11.08.17.13-.23-.17-.03-.02.01.01.11.09.22.18.33.26.24.19.47.39.7.59.48.42.94.86,1.38,1.32.43.44.84.9,1.23,1.37.09.11.18.22.27.33.05.07.26.33.11.13.2.27.4.54.59.81.72,1.03,1.37,2.12,1.93,3.25.13.26.26.53.38.8.06.14.12.27.18.41-.11-.24.09.23.13.31.24.6.46,1.22.65,1.84.38,1.22.65,2.47.85,3.73.05.31-.02-.16.02.15.02.14.03.29.05.43.04.33.06.67.09,1,.04.62.06,1.24.05,1.86,0,.62-.04,1.23-.09,1.84-.03.31-.06.61-.1.91-.02.19,0-.05.01-.07,0,.07-.02.14-.03.21-.02.16-.05.32-.08.49-.2,1.2-.49,2.39-.86,3.54-.19.58-.39,1.15-.62,1.71-.04.09-.07.17-.11.26,0-.02.1-.22.02-.06-.06.13-.11.26-.17.38-.13.28-.26.55-.39.82-.55,1.11-1.19,2.17-1.9,3.18-.16.23-.33.46-.49.68-.04.06-.08.11-.13.17.02-.02.14-.18.03-.04-.12.15-.23.29-.35.44-.39.47-.8.93-1.22,1.37-.42.44-.87.87-1.32,1.28-.21.19-.43.38-.64.56-.13.11-.26.21-.39.32-.06.04-.11.09-.17.13-.19.15.18-.14-.02.01-1,.76-2.05,1.44-3.15,2.04-.54.29-1.09.57-1.65.82-.14.06-.27.12-.41.18.23-.1-.1.04-.17.07-.32.13-.65.25-.98.37-.81.29-1.35,1.08-1.11,1.95.21.78,1.14,1.4,1.95,1.11,5.22-1.87,9.71-5.26,12.92-9.79,3.05-4.32,4.72-9.6,4.78-14.88.06-5.48-1.65-11.03-4.83-15.5-3.15-4.42-7.55-7.77-12.65-9.64-5.02-1.84-10.62-2.06-15.79-.68-5.26,1.41-10.08,4.46-13.53,8.68-3.43,4.19-5.51,9.28-5.99,14.68-.49,5.46.85,11.08,3.67,15.78,2.73,4.55,6.87,8.28,11.71,10.45,5,2.24,10.52,2.93,15.92,1.92,1.29-.24,2.56-.59,3.79-1.02.81-.28,1.34-1.08,1.11-1.95-.22-.78-1.14-1.39-1.95-1.11"/>
        <path class="cls-4" d="m124.42,80.42c-.74.26-1.5.47-2.28.62-.19.04-.38.07-.57.1-.02,0-.26.03-.08.01.2-.02-.1,0-.15.01-.4.04-.81.07-1.21.08-.74.02-1.46-.05-2.19-.1-.25-.02.25.05,0,0-.09-.02-.18-.03-.28-.04-.16-.03-.32-.06-.48-.09-.39-.08-.77-.17-1.15-.28-.34-.09-.67-.2-.99-.32-.17-.06-.35-.13-.52-.2-.02,0-.23-.1-.07-.03.19.08-.16-.07-.19-.09-.68-.31-1.33-.66-1.95-1.06-.29-.19-.58-.39-.86-.6-.2-.14.18.14-.01,0-.07-.06-.15-.12-.22-.18-.16-.13-.32-.27-.48-.41-.54-.48-1.05-1.01-1.52-1.56-.06-.07-.12-.15-.18-.22-.03-.03-.21-.27-.1-.12.1.13-.04-.05-.05-.07-.06-.08-.11-.15-.17-.23-.24-.33-.46-.67-.67-1.02-.19-.31-.36-.63-.53-.95-.09-.17-.17-.35-.25-.53-.03-.07-.06-.13-.09-.2-.07-.16.06.17-.04-.1-.29-.74-.53-1.49-.71-2.27-.08-.35-.15-.71-.21-1.07,0-.05-.05-.35-.02-.15.02.2-.01-.1-.01-.15-.02-.21-.04-.43-.05-.64-.05-.73-.04-1.47.02-2.2.02-.19.04-.37.06-.56.01-.19,0,.05-.01.07.01-.09.03-.18.04-.28.06-.39.14-.78.24-1.16.17-.7.4-1.38.66-2.06.11-.28.03-.06,0,0,.04-.08.07-.17.11-.25.08-.17.16-.34.24-.5.17-.33.34-.66.53-.98.18-.3.37-.59.56-.88.11-.15.22-.3.32-.45.11-.15-.02.02-.04.04.09-.11.17-.22.26-.33.46-.56.96-1.09,1.5-1.57.26-.24.53-.47.81-.69-.22.18.17-.12.25-.18.17-.12.35-.25.53-.36.63-.41,1.29-.77,1.97-1.08.09-.04.18-.08.27-.12-.25.11-.01,0,.03-.01.19-.07.37-.14.56-.21.37-.13.75-.25,1.14-.35.35-.1.71-.18,1.07-.25.19-.04.38-.07.57-.1.07-.01.14-.02.21-.03-.36.05.12,0,.15-.01.73-.08,1.47-.1,2.2-.06.35.02.7.05,1.05.08.31.03.06,0,0,0,.09.01.19.03.28.04.21.03.41.07.62.11.71.14,1.4.34,2.08.58.17.06.35.13.52.2.06.02.28.12,0,0,.08.04.17.07.25.11.34.15.67.32,1,.5.65.36,1.28.76,1.87,1.2-.24-.18.1.08.17.14.14.12.29.24.43.36.28.25.55.51.81.77.25.25.48.51.71.78.12.14.24.29.36.44-.19-.24.18.25.22.31.43.61.82,1.25,1.15,1.92.09.17.17.35.25.53.04.09.08.18.12.27-.03-.06-.1-.26.01.03.14.37.28.75.4,1.13.23.75.4,1.51.53,2.28,0,.06.04.31,0,0,0,.07.02.14.02.21.02.19.04.38.05.57.03.4.04.81.03,1.21,0,.33-.02.66-.04.99-.01.19-.03.37-.05.56-.03.31,0,.06,0,0-.02.12-.03.23-.05.35-.12.71-.29,1.42-.51,2.1-.11.35-.24.7-.38,1.05-.02.06-.12.28,0,0-.03.06-.05.13-.08.19-.09.19-.17.38-.27.57-.33.66-.71,1.3-1.13,1.91-.11.15-.22.3-.33.45.17-.23-.08.11-.14.17-.25.31-.51.61-.79.89-.23.24-.46.47-.7.69-.14.13-.28.25-.42.37-.07.06-.14.12-.22.18-.03.02-.33.26-.17.14.15-.11-.09.07-.12.09-.06.04-.11.08-.17.13-.16.11-.31.22-.47.32-.34.22-.69.44-1.05.63-.32.18-.65.34-.98.49-.09.04-.18.08-.27.12.06-.03.26-.1-.03.01-.19.07-.37.14-.56.21-.8.29-1.35,1.08-1.11,1.95.21.78,1.14,1.4,1.95,1.11,3.35-1.21,6.19-3.34,8.25-6.25,1.94-2.73,2.99-6.09,3.03-9.43.04-3.47-1.03-6.99-3.05-9.82-2.02-2.84-4.81-4.96-8.08-6.17-6.48-2.39-14.18-.31-18.56,5.04-2.2,2.7-3.53,5.92-3.85,9.39-.32,3.45.54,7.03,2.32,10,3.59,6,10.67,9.12,17.52,7.89.82-.15,1.63-.37,2.42-.64.81-.28,1.34-1.08,1.11-1.95-.22-.78-1.14-1.39-1.95-1.11"/>
        <path class="cls-4" d="m109.01,41.27c.83,0,1.62-.73,1.58-1.58-.04-.86-.7-1.58-1.58-1.58-.83,0-1.62.73-1.58,1.58.04.86.7,1.58,1.58,1.58"/>
        <path class="cls-4" d="m121.27,67.19c-.88-2.21-1.76-4.41-2.65-6.62-2.1-5.26-4.21-10.52-6.31-15.78-2.54-6.35-5.08-12.71-7.62-19.06-2.19-5.49-4.39-10.98-6.58-16.47-1.06-2.66-2.12-5.33-3.19-7.99-.01-.04-.03-.07-.04-.11C94.6.5,94.09,0,93.34,0h-13.35c-.83,0-1.62.73-1.58,1.58.04.86.7,1.58,1.58,1.58h13.35c-.51-.39-1.02-.78-1.53-1.16l2.65,6.62,6.31,15.78c2.54,6.35,5.08,12.71,7.62,19.06,2.19,5.49,4.39,10.98,6.58,16.47,1.06,2.66,2.12,5.33,3.19,7.99.01.04.03.07.04.11.32.79,1.06,1.35,1.95,1.11.75-.21,1.43-1.15,1.11-1.95"/>
        <path class="cls-4" d="m31.12,80.42c-.74.26-1.5.47-2.28.62-.19.04-.38.07-.57.1-.02,0-.26.03-.08.01.2-.02-.1,0-.15.01-.4.04-.81.07-1.21.08-.74.02-1.46-.05-2.19-.1-.25-.02.25.05,0,0-.09-.02-.18-.03-.28-.04-.16-.03-.32-.06-.48-.09-.39-.08-.77-.17-1.15-.28-.34-.09-.67-.2-.99-.32-.17-.06-.35-.13-.52-.2-.02,0-.23-.1-.07-.03.19.08-.16-.07-.19-.09-.68-.31-1.33-.66-1.95-1.06-.29-.19-.58-.39-.86-.6-.2-.14.18.14-.01,0-.07-.06-.15-.12-.22-.18-.16-.13-.32-.27-.48-.41-.54-.48-1.05-1.01-1.52-1.56-.06-.07-.12-.15-.18-.22-.03-.03-.21-.27-.1-.12.1.13-.04-.05-.05-.07-.06-.08-.11-.15-.17-.23-.24-.33-.46-.67-.67-1.02-.19-.31-.36-.63-.53-.95-.09-.17-.17-.35-.25-.53-.03-.07-.06-.13-.09-.2-.07-.16.06.17-.04-.1-.29-.74-.53-1.49-.71-2.27-.08-.35-.15-.71-.21-1.07,0-.05-.05-.35-.02-.15.02.2-.01-.1-.01-.15-.02-.21-.04-.43-.05-.64-.05-.73-.04-1.47.02-2.2.02-.19.04-.37.06-.56.01-.19,0,.05-.01.07.01-.09.03-.18.04-.28.06-.39.14-.78.24-1.16.17-.7.4-1.38.66-2.06.11-.28.03-.06,0,0,.04-.08.07-.17.11-.25.08-.17.16-.34.24-.5.17-.33.34-.66.53-.98.18-.3.37-.59.56-.88.11-.15.22-.3.32-.45.11-.15-.02.02-.04.04.09-.11.17-.22.26-.33.46-.56.96-1.09,1.5-1.57.26-.24.53-.47.81-.69-.22.18.17-.12.25-.18.17-.12.35-.25.53-.36.63-.41,1.29-.77,1.97-1.08.09-.04.18-.08.27-.12-.25.11-.01,0,.03-.01.19-.07.37-.14.56-.21.37-.13.75-.25,1.14-.35.35-.1.71-.18,1.07-.25.19-.04.38-.07.57-.1.07-.01.14-.02.21-.03-.36.05.12,0,.15-.01.73-.08,1.47-.1,2.2-.06.35.02.7.05,1.05.08.31.03.06,0,0,0,.09.01.19.03.28.04.21.03.41.07.62.11.71.14,1.4.34,2.08.58.17.06.35.13.52.2.06.02.28.12,0,0,.09.04.17.07.25.11.34.15.67.32,1,.5.65.36,1.28.76,1.87,1.2-.24-.18.1.08.17.14.14.12.29.24.43.36.28.25.55.51.81.77.25.25.48.51.71.78.12.14.24.29.36.44-.19-.24.18.25.22.31.43.61.82,1.25,1.15,1.92.09.17.17.35.25.53.04.09.08.18.12.27-.03-.06-.1-.26.01.03.14.37.28.75.4,1.13.23.75.4,1.51.53,2.28,0,.06.04.31,0,0,0,.07.02.14.02.21.02.19.04.38.05.57.03.4.04.81.03,1.21,0,.33-.02.66-.04.99-.01.19-.03.37-.05.56-.03.31,0,.06,0,0-.02.12-.03.23-.05.35-.12.71-.29,1.42-.51,2.1-.11.35-.24.7-.38,1.05-.02.06-.12.28,0,0-.03.06-.05.13-.08.19-.09.19-.17.38-.27.57-.33.66-.71,1.3-1.13,1.91-.11.15-.22.3-.33.45.17-.23-.08.11-.14.17-.25.31-.51.61-.79.89-.23.24-.46.47-.7.69-.14.13-.28.25-.42.37-.07.06-.14.12-.22.18-.03.02-.33.26-.17.14.15-.11-.09.07-.12.09-.06.04-.11.08-.17.13-.16.11-.31.22-.47.32-.34.22-.69.44-1.05.63-.32.18-.65.34-.98.49-.09.04-.18.08-.27.12.06-.03.26-.1-.03.01-.19.07-.37.14-.56.21-.8.29-1.35,1.08-1.11,1.95.21.78,1.14,1.4,1.95,1.11,3.35-1.21,6.19-3.34,8.25-6.25,1.94-2.73,2.99-6.09,3.03-9.43.04-3.47-1.03-6.99-3.05-9.82-2.02-2.84-4.81-4.96-8.08-6.17-6.48-2.39-14.18-.31-18.56,5.04-2.2,2.7-3.53,5.92-3.85,9.39-.32,3.45.54,7.03,2.32,10,3.59,6,10.67,9.12,17.52,7.89.82-.15,1.63-.37,2.42-.64.81-.28,1.34-1.08,1.11-1.95-.22-.78-1.14-1.39-1.95-1.11"/>
        <path class="cls-4" d="m93.34,3.17c.83,0,1.62-.73,1.58-1.58-.04-.86-.7-1.58-1.58-1.58-.83,0-1.62.73-1.58,1.58.04.86.7,1.58,1.58,1.58"/>
        <path class="cls-4" d="m85.67,2.38c.68,1.26,1.36,2.52,2.03,3.79,1.63,3.03,3.26,6.06,4.88,9.09,1.97,3.67,3.94,7.34,5.91,11,1.7,3.17,3.41,6.35,5.11,9.52.83,1.54,1.6,3.13,2.49,4.64.01.02.02.04.04.07.4.75,1.45.99,2.17.57.76-.45.97-1.41.57-2.17-.68-1.26-1.36-2.52-2.03-3.79-1.63-3.03-3.26-6.06-4.88-9.09-1.97-3.67-3.94-7.34-5.91-11-1.7-3.17-3.41-6.35-5.11-9.52-.83-1.54-1.6-3.13-2.49-4.64-.01-.02-.02-.04-.04-.07-.4-.75-1.45-.99-2.17-.57-.76.45-.97,1.41-.57,2.17"/>
        <path class="cls-4" d="m72.64,69.58c0-4.07-3.3-7.37-7.37-7.37s-7.37,3.3-7.37,7.37,3.3,7.37,7.37,7.37,7.37-3.3,7.37-7.37"/>
        <path class="cls-4" d="m64.36,70.12c2.81,3.87,5.61,7.75,8.42,11.62l1.18,1.63c.33.46.92.69,1.45.38.46-.27.72-.98.38-1.45-2.81-3.87-5.61-7.75-8.42-11.62l-1.18-1.63c-.33-.46-.92-.69-1.45-.38-.46.27-.72.98-.38,1.45"/>
        <path class="cls-4" d="m81.11,81.25h-12.01c-.83,0-1.62.73-1.58,1.58.04.86.7,1.58,1.58,1.58h12.01c.83,0,1.62-.73,1.58-1.58-.04-.86-.7-1.58-1.58-1.58"/>
      </g>
    </g>
  </g>
</svg>