<?xml version="1.0" encoding="UTF-8"?>
<svg id="Livello_2" data-name="Livello 2" xmlns="http://www.w3.org/2000/svg" xmlns:xlink="http://www.w3.org/1999/xlink" viewBox="0 0 142.97 76.12">
  <defs>
    <style>
      .cls-1, .cls-2, .cls-3 {
        fill: none;
      }

      .cls-2 {
        clip-path: url(#clippath);
      }

      .cls-3 {
        clip-path: url(#clippath-1);
      }

      .cls-4 {
        fill: #1d1d1c;
      }
    </style>
    <clipPath id="clippath">
      <rect class="cls-1" x="0" width="142.97" height="76.12"/>
    </clipPath>
    <clipPath id="clippath-1">
      <rect class="cls-1" x="0" width="142.97" height="76.12"/>
    </clipPath>
  </defs>
  <g id="borsone">
    <g class="cls-2">
      <g class="cls-3">
        <path class="cls-4" d="m79.44,16.62c-.02-3.72-1.67-7.96-5.23-9.63-1.61-.75-3.48-.93-5.17-.3-1.75.65-3.15,1.89-4.15,3.45-1.24,1.91-1.8,4.23-1.81,6.49,0,.67.59,1.31,1.28,1.28.7-.03,1.28-.56,1.28-1.28,0-.44.03-.88.07-1.32.04-.41-.02.13.01-.11.02-.11.03-.21.05-.32.04-.25.1-.5.16-.74.1-.38.21-.75.35-1.12.03-.09.07-.19.11-.28-.09.22.01-.02.04-.08.09-.2.18-.39.29-.58.18-.34.38-.66.6-.97,0,0,.21-.29.1-.14-.11.15.11-.13.11-.13.14-.17.29-.33.44-.48.11-.11.23-.22.35-.33.06-.06.42-.33.19-.16.31-.22.62-.42.96-.59,0,0,.31-.14.12-.06-.18.08.12-.05.13-.05.16-.06.32-.11.48-.15.16-.04.33-.07.49-.11.07-.01.24-.02-.04,0,.12,0,.24-.02.36-.03.15,0,.31,0,.46,0,.1,0,.59.07.27.01.37.06.72.15,1.07.28.06.02.13.05.19.07-.3-.12.01.01.06.04.15.08.3.16.45.25.15.09.29.19.43.28.05.03.19.15-.01-.01.08.07.16.13.24.2.27.23.52.49.76.76.06.07.12.14.18.21.14.17-.17-.24.04.05.13.19.26.37.38.56.23.36.42.74.6,1.13.16.35-.08-.23.06.14.04.11.09.23.13.34.08.23.16.47.22.71.12.45.22.9.29,1.36-.03-.22,0,.06.01.11.02.15.03.31.04.46.02.27.03.53.03.8,0,.67.59,1.32,1.28,1.28.69-.03,1.29-.56,1.28-1.28"/>
        <path class="cls-4" d="m84.38,16.78c-.01-3.34-.77-6.7-2.37-9.64-1.37-2.52-3.45-4.8-6.07-6.05-2.56-1.22-5.54-1.47-8.22-.48-2.79,1.02-5.03,3.06-6.63,5.53-2.02,3.14-2.95,6.93-2.96,10.64,0,.67.59,1.31,1.28,1.28.7-.03,1.28-.56,1.28-1.28,0-.8.05-1.6.14-2.4.03-.26.01-.11,0-.05.01-.09.02-.17.04-.26.03-.19.06-.38.1-.57.07-.4.16-.79.25-1.18.18-.72.4-1.43.67-2.13.06-.15.12-.3.18-.45-.08.2.08-.17.11-.24.16-.34.32-.68.5-1.01.33-.61.69-1.19,1.1-1.75.04-.06.09-.12.13-.18.13-.18-.19.23.04-.05.09-.11.19-.23.28-.34.21-.25.43-.49.66-.73.23-.23.46-.45.7-.66.11-.09.22-.18.33-.27.05-.04.11-.09.17-.13-.23.18.05-.03.08-.05.5-.36,1.03-.69,1.59-.96.12-.06.25-.11.37-.17-.28.13.14-.05.21-.08.3-.11.61-.21.92-.29.26-.07.53-.13.79-.17.01,0,.34-.05.13-.02-.18.03.04,0,.08,0,.17-.02.34-.03.51-.04.29-.02.59-.02.88,0,.15,0,.31.02.46.03.07,0,.14.02.2.02.1,0-.23-.04.06.01.58.1,1.16.25,1.71.45.08.03.16.06.24.09.04.01.24.1.08.03-.13-.06.24.11.31.15.28.14.55.28.81.44.27.16.53.33.78.52.06.04.11.08.17.12-.04-.03-.2-.16,0,0,.14.11.27.22.41.34.49.43.95.89,1.37,1.39.1.11.19.23.28.34.15.19.04.05,0,0,.04.06.09.12.13.18.21.29.42.59.61.89.42.66.78,1.36,1.1,2.07.02.05.12.29.04.08.04.09.08.19.11.28.07.19.15.38.21.57.14.39.26.78.37,1.18.23.82.41,1.66.52,2.5.03.25-.03-.31.01.11.01.11.02.22.04.33.02.22.04.44.06.66.03.47.05.94.05,1.41,0,.67.59,1.32,1.28,1.28.69-.03,1.29-.56,1.28-1.28"/>
        <path class="cls-4" d="m42.89,46.74v9.32c0,1.09.06,2.19.63,3.16.79,1.36,2.46,2.14,3.99,1.6,1.75-.62,2.53-2.4,2.55-4.16.02-1.82,0-3.65,0-5.47v-6.4c0-.67-.59-1.31-1.28-1.28-.7.03-1.28.56-1.28,1.28v11.51c0,.18,0,.36,0,.53,0,.09-.01.18-.02.27-.01.34.07-.26,0,.06-.04.18-.08.36-.14.54,0,.03-.12.29-.03.09.09-.2-.03.05-.04.07-.04.06-.09.14-.12.2-.09.18.2-.2-.03.04-.05.05-.37.32-.18.19.19-.13-.16.08-.21.11-.2.13.3-.07.06-.03-.06.01-.13.04-.19.05-.05.01-.27.05-.02.01.26-.04-.03,0-.08,0-.03,0-.17-.02-.19,0,.1-.08.33.08.09,0-.06-.02-.13-.04-.19-.05-.2-.04.13.03.12.06,0-.01-.36-.16-.35-.2,0-.01.25.24.04.02-.07-.07-.13-.14-.2-.21-.12-.12,0,.05.06.08-.04-.02-.1-.16-.13-.2-.04-.07-.07-.15-.11-.22.17.29.03.08,0-.01-.05-.15-.09-.29-.12-.44-.01-.07-.05-.38-.02-.05-.01-.14-.02-.28-.03-.43,0-.18,0-.37,0-.55v-9.48c0-.67-.59-1.32-1.28-1.28-.7.03-1.28.56-1.28,1.28"/>
        <path class="cls-4" d="m128.3,73.26H14.99c-.21,0-.42,0-.62,0-.07,0-.15,0-.22,0-.14,0-.29-.01-.43-.02-.07,0-.13-.01-.2-.02-.3-.03.01,0,.02,0-.59-.14-1.14-.28-1.72-.46-.2-.07.28.13.04.02-.06-.03-.12-.05-.18-.08-.15-.07-.29-.14-.43-.22-.26-.14-.51-.3-.76-.46-.13-.09-.25-.18-.38-.27-.06-.05.23.19.05.03-.07-.06-.14-.11-.21-.17-.24-.2-.47-.41-.69-.64-.24-.24-.46-.48-.68-.74-.1-.12-.2-.25-.3-.37-.2-.24.12.17,0,0-.06-.08-.12-.16-.18-.24-.43-.58-.81-1.19-1.16-1.82-.38-.67-.72-1.37-1.03-2.07-.04-.08-.07-.16-.1-.24-.09-.21.09.22-.02-.06-.08-.21-.17-.41-.25-.62-.15-.38-.29-.77-.42-1.16-.58-1.68-1.03-3.4-1.39-5.14-.19-.92-.35-1.85-.49-2.78-.04-.24-.07-.48-.1-.72-.04-.26.02.18,0-.07-.02-.14-.04-.28-.05-.42-.06-.49-.11-.98-.16-1.48-.19-1.97-.29-3.95-.31-5.93-.01-1.98.06-3.97.23-5.95.04-.5.09-.99.14-1.49.02-.23.05-.46.08-.68.01-.12.03-.24.05-.37,0-.06.05-.4.03-.25-.02.17.03-.19.03-.24.02-.12.03-.24.05-.36.04-.24.07-.48.11-.72.07-.46.15-.91.24-1.37.34-1.78.76-3.55,1.32-5.28.26-.8.54-1.59.85-2.36.02-.05.15-.36.07-.17-.07.18.04-.09.06-.13.09-.2.17-.4.27-.59.16-.35.33-.69.5-1.02.34-.65.71-1.29,1.13-1.9.1-.15.2-.3.31-.44.04-.06.09-.12.13-.18.09-.12.2-.25.03-.04.21-.26.42-.51.64-.76.43-.48.9-.9,1.4-1.31-.34.28.08-.05.17-.12.13-.09.26-.17.39-.26.26-.16.53-.31.8-.44.08-.04.47-.21.26-.12-.23.09.04-.02.09-.03.07-.03.14-.05.21-.08.28-.1.58-.18.87-.25.14-.03.28-.05.42-.08.27-.05-.1,0-.05,0,.08,0,.15-.02.23-.02.25-.02.49-.03.74-.03.17,0,.33,0,.5,0h111.43c.67,0,1.34,0,2.01,0,.13,0,.26,0,.39,0,.16,0,.32.02.47.03.05,0,.3.03.06,0-.24-.03.06.01.13.02.6.1,1.16.3,1.74.5-.37-.13,0,0,.14.07.15.07.3.15.44.23.26.15.52.31.77.48.12.08.24.17.36.26-.35-.26.1.09.2.17.24.21.47.42.7.65.24.24.47.49.69.75.1.12.21.25.31.38.18.22-.12-.17,0,0,.06.08.12.16.18.25.43.59.82,1.21,1.18,1.84.38.68.73,1.38,1.04,2.09.04.08.07.16.11.24.09.21-.09-.22.03.06.08.19.16.39.23.58.16.4.3.8.44,1.2.58,1.68,1.03,3.41,1.39,5.16.19.92.35,1.85.49,2.78.04.24.07.48.1.72-.03-.23,0-.04,0,.08.02.14.04.28.05.42.06.49.11.98.16,1.48.38,3.93.39,7.91.04,11.84-.04.49-.09.99-.15,1.48-.03.23-.05.45-.08.68-.02.12-.03.24-.05.37.03-.27,0,.02-.02.13-.13.94-.29,1.87-.47,2.8-.35,1.78-.79,3.53-1.36,5.25-.13.39-.27.79-.42,1.18-.07.2-.15.39-.23.59-.03.08-.07.17-.1.25-.05.11-.16.37-.04.1-.31.72-.65,1.43-1.02,2.12-.35.65-.73,1.28-1.16,1.88-.1.14-.19.27-.29.41-.11.15-.14.18,0,.01-.06.08-.12.16-.19.24-.21.26-.43.51-.65.75-.22.23-.45.46-.69.68-.11.1-.23.2-.34.3-.06.05-.13.1-.19.15-.17.14.22-.16.04-.03-.49.34-.97.67-1.51.93-.14.07-.51.21-.14.07-.14.05-.28.11-.43.17-.27.09-.54.17-.82.24-.14.03-.28.06-.42.09-.08.01-.15.02-.23.04-.22.04.3-.03.08-.01-.32.02-.63.05-.95.05-1.65,0-1.66,2.58,0,2.57,2.85-.01,5.43-1.33,7.37-3.37,2.23-2.35,3.67-5.37,4.71-8.4,1.24-3.62,1.91-7.42,2.28-11.22.39-3.99.4-8.02.03-12-.35-3.82-1-7.64-2.21-11.28-1.02-3.07-2.44-6.12-4.64-8.53-1.9-2.08-4.46-3.47-7.31-3.56-.64-.02-1.29,0-1.93,0H14.8c-1.6,0-3.12.27-4.56.99-2.56,1.27-4.44,3.69-5.76,6.16-1.66,3.11-2.68,6.56-3.36,10.01-.77,3.95-1.12,8-1.12,12.02s.35,8.07,1.12,12.02c.67,3.45,1.69,6.9,3.36,10.01,1.33,2.48,3.21,4.91,5.78,6.18,1.44.71,2.95.97,4.53.97h113.5c1.65,0,1.66-2.57,0-2.57"/>
        <path class="cls-4" d="m109.47,39.54v5.24c0,.67.59,1.32,1.28,1.28.7-.03,1.28-.56,1.28-1.28v-5.24c0-.67-.59-1.32-1.28-1.28-.7.03-1.28.56-1.28,1.28"/>
        <path class="cls-4" d="m115.75,41.28v5.24c0,.67.59,1.32,1.28,1.28.7-.03,1.28-.56,1.28-1.28v-5.24c0-.67-.59-1.32-1.28-1.28-.7.03-1.28.56-1.28,1.28"/>
        <path class="cls-4" d="m101.35,38.52v5.38c0,.67.59,1.32,1.28,1.28.7-.03,1.28-.56,1.28-1.28v-5.38c0-.67-.59-1.32-1.28-1.28-.7.03-1.28.56-1.28,1.28"/>
        <path class="cls-4" d="m93.67,37.87l-.19,5.28c0,.25-.02.51-.03.76-.02.67.61,1.31,1.28,1.28.72-.03,1.26-.56,1.28-1.28.06-1.76.13-3.52.19-5.28,0-.25.02-.51.03-.76.02-.67-.61-1.31-1.28-1.28-.72.03-1.26.56-1.28,1.28"/>
        <path class="cls-4" d="m84.9,37.52v5.48c0,.67.59,1.32,1.28,1.28.7-.03,1.28-.56,1.28-1.28v-5.48c0-.67-.59-1.32-1.28-1.28-.7.03-1.28.56-1.28,1.28"/>
        <path class="cls-4" d="m76.88,37v5.05c0,.67.59,1.32,1.28,1.28.7-.03,1.28-.56,1.28-1.28v-5.05c0-.67-.59-1.32-1.28-1.28-.7.03-1.28.56-1.28,1.28"/>
        <path class="cls-4" d="m69.12,37v5.05c0,.67.59,1.32,1.28,1.28.7-.03,1.28-.56,1.28-1.28v-5.05c0-.67-.59-1.32-1.28-1.28-.7.03-1.28.56-1.28,1.28"/>
        <path class="cls-4" d="m59.89,37v4.97c0,.67.59,1.32,1.28,1.28.7-.03,1.28-.56,1.28-1.28v-4.97c0-.67-.59-1.32-1.28-1.28-.7.03-1.28.56-1.28,1.28"/>
        <path class="cls-4" d="m45.19,38.52v5.38c0,.67.59,1.32,1.28,1.28.7-.03,1.28-.56,1.28-1.28v-5.38c0-.67-.59-1.32-1.28-1.28-.7.03-1.28.56-1.28,1.28"/>
        <path class="cls-4" d="m52.54,37v5.39c0,.67.59,1.31,1.28,1.28.7-.03,1.28-.56,1.28-1.28v-5.39c0-.67-.59-1.32-1.28-1.28-.7.03-1.28.56-1.28,1.28"/>
        <path class="cls-4" d="m38.68,38.52v6.9c0,.67.59,1.32,1.28,1.28.7-.03,1.28-.56,1.28-1.28v-6.9c0-.67-.59-1.32-1.28-1.28-.7.03-1.28.56-1.28,1.28"/>
        <path class="cls-4" d="m32.03,39.54v5.87c0,.67.59,1.32,1.28,1.28.7-.03,1.28-.56,1.28-1.28v-5.87c0-.67-.59-1.32-1.28-1.28-.7.03-1.28.56-1.28,1.28"/>
        <path class="cls-4" d="m24.58,41.6v5.87c0,.67.59,1.32,1.28,1.28.7-.03,1.28-.56,1.28-1.28v-5.87c0-.67-.59-1.32-1.28-1.28-.7.03-1.28.56-1.28,1.28"/>
        <path class="cls-4" d="m130.31,73.55h-9.03l1.28,1.28V21.42c0-.73.04-1.46,0-2.19,0-.03,0-.06,0-.09l-1.28,1.28h9.03l-1.28-1.28v48.84c0,2.25-.06,4.52,0,6.77,0,.03,0,.06,0,.09,0,.67.59,1.32,1.28,1.28.7-.03,1.28-.56,1.28-1.28V26c0-2.25.06-4.51,0-6.77,0-.03,0-.06,0-.09,0-.69-.59-1.28-1.28-1.28h-9.03c-.69,0-1.28.59-1.28,1.28v48.84c0,2.25-.06,4.52,0,6.77,0,.03,0,.06,0,.09,0,.69.59,1.28,1.28,1.28h9.03c.67,0,1.32-.59,1.28-1.28-.03-.7-.56-1.28-1.28-1.28"/>
        <path class="cls-4" d="m22.53,73.01h-9.03l1.28,1.28V20.88c0-.73.04-1.46,0-2.19,0-.03,0-.06,0-.09l-1.28,1.28h9.03l-1.28-1.28v48.84c0,2.25-.06,4.52,0,6.77,0,.03,0,.06,0,.09,0,.67.59,1.32,1.28,1.28.7-.03,1.28-.56,1.28-1.28V25.46c0-2.25.06-4.51,0-6.77,0-.03,0-.06,0-.09,0-.69-.59-1.28-1.28-1.28h-9.03c-.69,0-1.28.59-1.28,1.28v48.84c0,2.25-.06,4.52,0,6.77,0,.03,0,.06,0,.09,0,.69.59,1.28,1.28,1.28h9.03c.67,0,1.32-.59,1.28-1.28-.03-.7-.56-1.28-1.28-1.28"/>
        <path class="cls-4" d="m22.87,43.29c6.23-1.87,12.57-3.41,18.97-4.57,6.25-1.13,12.56-1.9,18.9-2.3,6.37-.4,12.76-.43,19.14-.11,6.39.33,12.75,1.02,19.06,2.06,6.47,1.07,12.88,2.49,19.2,4.23.82.22,1.64.46,2.45.69,1.59.46,2.27-2.02.68-2.48-6.38-1.84-12.86-3.37-19.4-4.53-6.47-1.15-13.01-1.97-19.57-2.4-6.4-.42-12.83-.48-19.24-.17-6.5.32-12.99,1.02-19.41,2.09-6.43,1.07-12.81,2.51-19.08,4.3-.8.23-1.6.47-2.4.71-1.58.47-.91,2.95.68,2.48"/>
        <path class="cls-4" d="m23.21,50.48c6.31-1.8,12.71-3.26,19.17-4.36,6.26-1.07,12.58-1.78,18.92-2.15,6.38-.37,12.79-.39,19.17-.07,6.34.32,12.66.97,18.93,1.96,6.45,1.01,12.86,2.36,19.18,4,.79.2,1.58.41,2.36.63,1.6.43,2.28-2.04.68-2.48-6.35-1.72-12.78-3.16-19.28-4.25-6.43-1.09-12.91-1.86-19.42-2.28-6.41-.41-12.85-.48-19.26-.2-6.5.29-12.99.95-19.42,1.95-6.49,1.01-12.92,2.38-19.27,4.1-.82.22-1.64.45-2.46.68-1.59.45-.91,2.93.68,2.48"/>
        <path class="cls-4" d="m23.09,46.42c6.31-1.8,12.71-3.26,19.17-4.36,6.3-1.07,12.66-1.8,19.04-2.17,6.38-.37,12.78-.39,19.17-.07,6.38.32,12.73.98,19.04,1.97,6.45,1.01,12.86,2.36,19.18,4,.79.2,1.58.41,2.36.63,1.06.29,1.52-1.36.46-1.65-6.35-1.72-12.78-3.16-19.28-4.25-6.39-1.08-12.84-1.85-19.31-2.26-6.41-.41-12.85-.48-19.26-.2-6.46.29-12.91.94-19.3,1.93-6.49,1.01-12.92,2.38-19.27,4.1-.82.22-1.64.45-2.46.68-1.06.3-.61,1.95.46,1.65"/>
      </g>
    </g>
  </g>
</svg>