<svg width="1080" height="1080" viewBox="0 0 1080 1080" fill="none" xmlns="http://www.w3.org/2000/svg">
<g clip-path="url(#clip0_1_147)">
<mask id="mask0_1_147" style="mask-type:luminance" maskUnits="userSpaceOnUse" x="0" y="0" width="1080" height="1080">
<path d="M1080 0H0V1080H1080V0Z" fill="white"/>
</mask>
<g mask="url(#mask0_1_147)">
<mask id="mask1_1_147" style="mask-type:luminance" maskUnits="userSpaceOnUse" x="687" y="96" width="393" height="750">
<path d="M687 96.3801H1080V845.651H687V96.3801Z" fill="white"/>
</mask>
<g mask="url(#mask1_1_147)">
<path d="M1079.19 829.503V428.216C1079.19 427.26 1079.1 426.318 1078.92 425.381C1078.73 424.445 1078.45 423.534 1078.09 422.655C1077.73 421.776 1077.27 420.935 1076.74 420.145C1076.22 419.349 1075.62 418.616 1074.94 417.941C1074.27 417.266 1073.53 416.667 1072.74 416.139C1071.95 415.61 1071.11 415.158 1070.23 414.794C1069.35 414.431 1068.44 414.151 1067.51 413.966C1066.57 413.782 1065.63 413.686 1064.67 413.686H888.889V298.836H952.053C952.595 298.836 953.13 298.804 953.671 298.747C954.206 298.683 954.741 298.594 955.264 298.473C955.792 298.352 956.315 298.205 956.824 298.027C957.334 297.849 957.831 297.645 958.321 297.409C958.805 297.173 959.283 296.912 959.742 296.626C960.2 296.339 960.64 296.027 961.06 295.696C961.487 295.358 961.888 295.001 962.277 294.619C962.659 294.237 963.022 293.836 963.36 293.415C963.698 292.995 964.01 292.555 964.303 292.097C964.589 291.638 964.857 291.167 965.093 290.683C965.328 290.198 965.538 289.702 965.723 289.192C965.902 288.682 966.054 288.16 966.175 287.638C966.303 287.109 966.398 286.574 966.462 286.039C966.526 285.504 966.558 284.962 966.564 284.421C966.564 283.879 966.539 283.344 966.488 282.803C966.43 282.268 966.341 281.733 966.226 281.204L933.67 132.612C933.096 130.071 932.319 127.586 931.332 125.172C930.345 122.758 929.16 120.446 927.784 118.229C926.402 116.019 924.854 113.936 923.121 111.98C921.395 110.031 919.516 108.235 917.484 106.598C915.452 104.967 913.299 103.508 911.018 102.24C908.744 100.966 906.374 99.8964 903.922 99.0237C901.463 98.1511 898.947 97.4886 896.38 97.0427C893.813 96.5904 891.227 96.3611 888.621 96.3484H799.047C796.442 96.3611 793.856 96.5904 791.289 97.0427C788.722 97.4886 786.205 98.1511 783.747 99.0237C781.294 99.8964 778.925 100.966 776.651 102.24C774.376 103.514 772.223 104.967 770.191 106.598C768.159 108.235 766.28 110.031 764.548 111.98C762.821 113.929 761.267 116.019 759.885 118.229C758.509 120.446 757.324 122.758 756.337 125.172C755.349 127.586 754.572 130.064 753.999 132.612L721.442 281.204C721.328 281.733 721.238 282.268 721.181 282.803C721.124 283.344 721.098 283.879 721.105 284.421C721.111 284.962 721.143 285.504 721.207 286.039C721.27 286.574 721.366 287.109 721.487 287.638C721.614 288.16 721.767 288.682 721.945 289.192C722.13 289.702 722.34 290.198 722.576 290.683C722.812 291.167 723.079 291.638 723.366 292.097C723.659 292.555 723.971 292.995 724.309 293.415C724.646 293.836 725.009 294.237 725.392 294.619C725.78 295.001 726.181 295.358 726.602 295.696C727.029 296.033 727.468 296.339 727.927 296.626C728.385 296.912 728.857 297.173 729.347 297.409C729.831 297.645 730.335 297.849 730.844 298.027C731.354 298.205 731.876 298.352 732.399 298.473C732.927 298.594 733.462 298.683 733.997 298.747C734.532 298.804 735.074 298.836 735.615 298.836H798.78V413.686H701.912C700.956 413.686 700.014 413.782 699.077 413.966C698.141 414.151 697.236 414.431 696.351 414.794C695.472 415.158 694.638 415.603 693.841 416.139C693.051 416.667 692.319 417.266 691.644 417.941C690.968 418.616 690.37 419.349 689.841 420.145C689.312 420.935 688.86 421.776 688.497 422.655C688.134 423.534 687.86 424.445 687.669 425.381C687.484 426.318 687.395 427.26 687.395 428.216C687.395 429.165 687.484 430.114 687.669 431.044C687.86 431.981 688.134 432.892 688.497 433.771C688.86 434.65 689.312 435.49 689.841 436.28C690.37 437.077 690.968 437.809 691.644 438.484C692.319 439.16 693.051 439.758 693.841 440.287C694.638 440.822 695.472 441.268 696.351 441.631C697.236 441.994 698.141 442.274 699.077 442.459C700.014 442.644 700.956 442.739 701.912 442.739H1050.16V566.972L742.552 567.909C741.597 567.909 740.654 567.998 739.717 568.189C738.787 568.374 737.877 568.648 736.998 569.011C736.118 569.38 735.278 569.826 734.488 570.355C733.692 570.884 732.959 571.489 732.29 572.164C731.615 572.839 731.01 573.572 730.481 574.362C729.952 575.158 729.506 575.992 729.143 576.871C728.774 577.757 728.5 578.661 728.315 579.598C728.131 580.534 728.035 581.477 728.035 582.432C728.035 583.388 728.131 584.331 728.315 585.267C728.5 586.203 728.774 587.108 729.143 587.987C729.506 588.872 729.952 589.707 730.481 590.503C731.01 591.293 731.615 592.025 732.29 592.701C732.959 593.376 733.692 593.981 734.488 594.51C735.278 595.038 736.118 595.484 736.998 595.847C737.877 596.217 738.787 596.491 739.717 596.675C740.654 596.86 741.597 596.956 742.552 596.956L1050.16 596.019V720.252H871.238C870.276 720.24 869.32 720.316 868.371 720.488C867.422 720.666 866.505 720.928 865.607 721.291C864.715 721.647 863.861 722.087 863.052 722.616C862.25 723.144 861.505 723.743 860.817 724.418C860.129 725.094 859.511 725.832 858.976 726.629C858.434 727.431 857.976 728.272 857.606 729.164C857.23 730.049 856.95 730.967 856.759 731.909C856.568 732.859 856.472 733.814 856.472 734.776C856.472 735.738 856.568 736.693 856.759 737.642C856.95 738.585 857.23 739.502 857.606 740.394C857.976 741.28 858.434 742.127 858.976 742.923C859.511 743.719 860.129 744.458 860.817 745.133C861.505 745.809 862.25 746.414 863.052 746.936C863.861 747.465 864.715 747.904 865.607 748.267C866.505 748.624 867.422 748.885 868.371 749.064C869.32 749.236 870.276 749.312 871.238 749.299H943.18C944.371 750.019 945.645 750.554 946.989 750.905C1009.44 766.192 1004.64 825.567 1004.42 828.019C1004.31 829.032 1004.32 830.045 1004.43 831.051C1004.54 832.064 1004.75 833.051 1005.06 834.02C1005.38 834.981 1005.78 835.905 1006.29 836.784C1006.8 837.663 1007.4 838.485 1008.08 839.237C1008.76 839.995 1009.51 840.67 1010.33 841.262C1011.15 841.861 1012.03 842.364 1012.96 842.778C1013.89 843.192 1014.85 843.504 1015.84 843.715C1016.84 843.925 1017.84 844.033 1018.85 844.027H1064.67C1065.62 844.033 1066.57 843.938 1067.5 843.753C1068.44 843.568 1069.34 843.294 1070.23 842.925C1071.11 842.562 1071.94 842.116 1072.74 841.587C1073.53 841.058 1074.27 840.453 1074.94 839.778C1075.61 839.103 1076.22 838.37 1076.74 837.58C1077.27 836.784 1077.72 835.95 1078.09 835.064C1078.45 834.185 1078.73 833.274 1078.91 832.338C1079.1 831.408 1079.19 830.459 1079.19 829.503ZM782.364 138.836C782.575 137.893 782.868 136.969 783.231 136.078C783.594 135.186 784.033 134.326 784.543 133.504C785.052 132.689 785.632 131.918 786.269 131.192C786.906 130.472 787.607 129.803 788.358 129.198C789.11 128.593 789.906 128.051 790.747 127.58C791.588 127.109 792.467 126.714 793.378 126.389C794.289 126.064 795.219 125.822 796.168 125.65C797.117 125.484 798.073 125.402 799.041 125.395H888.621C889.583 125.402 890.545 125.484 891.494 125.65C892.443 125.822 893.373 126.064 894.284 126.389C895.195 126.714 896.068 127.109 896.909 127.58C897.756 128.051 898.552 128.593 899.304 129.198C900.055 129.803 900.75 130.472 901.393 131.192C902.03 131.918 902.603 132.689 903.113 133.504C903.623 134.326 904.062 135.186 904.432 136.078C904.795 136.969 905.081 137.893 905.292 138.836L933.982 269.789H753.661L782.364 138.836ZM827.808 298.836H859.855V413.686H827.808V298.836ZM1033.44 814.98C1033.03 808.846 1032.09 802.788 1030.6 796.819C1029.11 790.851 1027.1 785.067 1024.57 779.455C1022.04 773.849 1019.03 768.511 1015.55 763.447C1012.06 758.377 1008.15 753.663 1003.82 749.299H1050.16V814.98H1033.44Z" fill="black"/>
</g>
<mask id="mask2_1_147" style="mask-type:luminance" maskUnits="userSpaceOnUse" x="0" y="400" width="868" height="656">
<path d="M0 400H868V1055.7H0V400Z" fill="white"/>
</mask>
<g mask="url(#mask2_1_147)">
<path d="M12.5313 1055.73H60.9323C61.6615 1055.72 62.3802 1055.66 63.0938 1055.53C63.8125 1055.39 64.5104 1055.19 65.1875 1054.93C65.8646 1054.67 66.5156 1054.35 67.1354 1053.97C67.7552 1053.59 68.3333 1053.16 68.875 1052.67C69.4167 1052.18 69.9063 1051.65 70.349 1051.07C70.7917 1050.49 71.1771 1049.88 71.5104 1049.23C71.8385 1048.58 72.1042 1047.91 72.3125 1047.21C72.5208 1046.51 72.6615 1045.8 72.7344 1045.08C73.1042 1041.58 82.5625 959.276 154.005 942.927C154.391 942.839 154.74 942.677 155.109 942.557H712.422C712.76 942.662 713.057 942.807 713.401 942.896C785.01 959.151 794.484 1041.59 794.849 1045.07C794.922 1045.79 795.063 1046.51 795.266 1047.2C795.474 1047.91 795.74 1048.58 796.068 1049.23C796.396 1049.88 796.781 1050.49 797.224 1051.07C797.667 1051.66 798.161 1052.19 798.703 1052.68C799.24 1053.17 799.823 1053.6 800.443 1053.98C801.063 1054.36 801.714 1054.69 802.396 1054.95C803.073 1055.21 803.776 1055.41 804.49 1055.54C805.208 1055.68 805.927 1055.74 806.656 1055.74H855.063C855.839 1055.74 856.615 1055.67 857.375 1055.52C858.141 1055.36 858.885 1055.14 859.604 1054.84C860.323 1054.54 861.005 1054.18 861.656 1053.74C862.302 1053.31 862.901 1052.82 863.453 1052.27C864.005 1051.71 864.5 1051.11 864.932 1050.46C865.365 1049.82 865.729 1049.14 866.026 1048.41C866.328 1047.69 866.552 1046.95 866.703 1046.19C866.854 1045.42 866.932 1044.65 866.932 1043.87V783.406C866.922 777.474 866.375 771.594 865.292 765.76C864.203 759.932 862.594 754.25 860.464 748.714C858.328 743.177 855.714 737.885 852.609 732.833C849.505 727.776 845.964 723.052 841.995 718.646C802.641 674.839 748.682 639.583 721.078 623.026C723.266 620.969 725.219 618.708 726.948 616.25C728.672 613.792 730.13 611.182 731.323 608.422C732.516 605.667 733.417 602.813 734.026 599.87C734.635 596.927 734.943 593.953 734.943 590.948C734.943 585.526 734.385 580.156 733.271 574.849C732.151 569.542 730.505 564.401 728.323 559.438C726.141 554.469 723.469 549.781 720.318 545.37C717.161 540.958 713.583 536.917 709.589 533.25V467.427C709.589 465.229 709.479 463.042 709.26 460.854C709.042 458.672 708.719 456.5 708.286 454.349C707.859 452.193 707.323 450.068 706.688 447.969C706.047 445.865 705.307 443.802 704.469 441.776C703.625 439.745 702.688 437.766 701.651 435.828C700.615 433.891 699.49 432.01 698.271 430.188C697.052 428.359 695.745 426.599 694.349 424.901C692.958 423.203 691.484 421.578 689.938 420.026C688.385 418.474 686.76 417 685.063 415.609C683.365 414.214 681.604 412.906 679.781 411.688C677.958 410.469 676.078 409.339 674.141 408.302C672.208 407.266 670.229 406.328 668.198 405.49C666.172 404.646 664.109 403.906 662.01 403.266C659.911 402.63 657.786 402.094 655.63 401.661C653.479 401.234 651.313 400.911 649.13 400.693C646.943 400.474 644.755 400.365 642.563 400.365H225.036C222.844 400.365 220.651 400.474 218.469 400.693C216.286 400.911 214.12 401.234 211.964 401.661C209.813 402.094 207.688 402.63 205.589 403.266C203.49 403.906 201.427 404.646 199.401 405.49C197.37 406.328 195.391 407.266 193.458 408.302C191.521 409.339 189.641 410.469 187.818 411.688C185.995 412.911 184.234 414.214 182.536 415.609C180.839 417 179.219 418.474 177.667 420.026C176.115 421.578 174.641 423.203 173.25 424.901C171.854 426.599 170.552 428.359 169.328 430.188C168.109 432.01 166.984 433.891 165.948 435.828C164.911 437.766 163.974 439.745 163.135 441.776C162.292 443.802 161.552 445.865 160.917 447.969C160.276 450.068 159.74 452.198 159.313 454.349C158.88 456.5 158.557 458.672 158.344 460.854C158.125 463.042 158.016 465.229 158.01 467.427V533.25C154.016 536.917 150.443 540.958 147.286 545.37C144.13 549.781 141.464 554.469 139.281 559.438C137.099 564.401 135.448 569.542 134.333 574.849C133.219 580.156 132.661 585.526 132.661 590.948C132.661 593.953 132.969 596.927 133.578 599.87C134.188 602.813 135.089 605.667 136.281 608.422C137.474 611.182 138.932 613.792 140.656 616.25C142.385 618.708 144.339 620.969 146.526 623.026C118.917 639.583 64.9635 674.839 25.6094 718.646C21.6406 723.052 18.099 727.776 14.9948 732.833C11.8906 737.885 9.27604 743.177 7.14583 748.714C5.01042 754.25 3.40104 759.932 2.3125 765.76C1.22917 771.594 0.682292 777.474 0.671875 783.406V1043.85C0.671875 1044.63 0.75 1045.4 0.901042 1046.17C1.05208 1046.93 1.27604 1047.67 1.57292 1048.4C1.875 1049.11 2.23958 1049.8 2.67188 1050.45C3.10417 1051.09 3.59375 1051.69 4.14583 1052.24C4.69271 1052.8 5.29167 1053.29 5.94271 1053.72C6.58854 1054.16 7.27083 1054.52 7.98958 1054.82C8.70833 1055.12 9.45313 1055.34 10.2135 1055.49C10.9792 1055.65 11.75 1055.72 12.5313 1055.73ZM843.208 918.802H24.3958V841.953H843.208V918.802ZM50.8333 1031.98H24.3958V942.557H101.172C66.7656 970.208 54.724 1012.31 50.8333 1031.98ZM816.766 1031.98C812.88 1012.31 800.833 970.208 766.427 942.557H843.198V1031.98H816.766ZM690.766 611.417H445.682V594.339C445.651 592.318 445.714 590.302 445.875 588.287C446.036 586.271 446.292 584.266 446.646 582.276C446.995 580.281 447.443 578.313 447.979 576.365C448.521 574.417 449.151 572.5 449.87 570.609C450.594 568.719 451.401 566.87 452.302 565.057C453.198 563.25 454.177 561.484 455.245 559.766C456.313 558.047 457.453 556.385 458.677 554.776C459.901 553.167 461.198 551.62 462.568 550.135C463.943 548.646 465.38 547.229 466.885 545.88C468.391 544.537 469.958 543.26 471.583 542.063C473.208 540.859 474.891 539.745 476.625 538.703C478.359 537.662 480.135 536.708 481.958 535.839C483.786 534.969 485.646 534.188 487.542 533.495C489.443 532.802 491.37 532.203 493.323 531.693C495.281 531.182 497.255 530.771 499.25 530.448C501.245 530.125 503.25 529.901 505.271 529.771C506.516 529.708 507.781 529.672 509.068 529.672H612.042C612.208 529.672 612.38 529.672 612.542 529.672C612.938 529.651 651.401 528.214 681.057 542.318C683.318 543.422 685.49 544.682 687.573 546.094C689.661 547.505 691.635 549.057 693.505 550.745C695.37 552.432 697.115 554.245 698.724 556.182C700.339 558.115 701.807 560.151 703.135 562.292C704.464 564.432 705.635 566.656 706.651 568.958C707.667 571.266 708.521 573.63 709.203 576.052C709.885 578.479 710.401 580.938 710.74 583.432C711.078 585.932 711.24 588.438 711.229 590.958C711.229 592.302 711.094 593.63 710.828 594.948C710.568 596.266 710.177 597.542 709.661 598.787C709.146 600.026 708.516 601.203 707.771 602.323C707.026 603.438 706.177 604.469 705.224 605.422C704.276 606.37 703.245 607.219 702.125 607.964C701.01 608.708 699.833 609.339 698.589 609.854C697.349 610.37 696.073 610.755 694.755 611.021C693.438 611.281 692.109 611.417 690.766 611.417ZM225.036 424.125H642.573C643.99 424.13 645.406 424.198 646.818 424.339C648.224 424.479 649.625 424.688 651.016 424.969C652.406 425.245 653.781 425.589 655.135 426C656.49 426.417 657.823 426.891 659.135 427.438C660.443 427.979 661.724 428.589 662.974 429.255C664.224 429.922 665.438 430.651 666.615 431.443C667.792 432.229 668.927 433.073 670.026 433.974C671.12 434.875 672.167 435.823 673.172 436.828C674.172 437.828 675.125 438.88 676.026 439.974C676.922 441.073 677.766 442.208 678.552 443.385C679.344 444.568 680.068 445.781 680.74 447.031C681.406 448.281 682.016 449.563 682.557 450.875C683.099 452.182 683.578 453.516 683.99 454.875C684.401 456.229 684.745 457.604 685.026 458.995C685.302 460.385 685.51 461.787 685.651 463.198C685.792 464.609 685.865 466.021 685.865 467.443V518.484C653.141 504.87 615.708 505.792 611.802 505.927H509.057C507.365 505.927 505.703 505.969 504.068 506.052C500.479 506.24 496.911 506.656 493.375 507.292C489.833 507.932 486.349 508.787 482.917 509.865C479.484 510.938 476.135 512.224 472.865 513.719C469.594 515.219 466.427 516.912 463.37 518.807C460.313 520.698 457.385 522.776 454.589 525.037C451.792 527.297 449.146 529.724 446.651 532.318C444.156 534.912 441.833 537.651 439.688 540.531C437.536 543.417 435.573 546.427 433.802 549.557C432.031 546.427 430.068 543.417 427.922 540.537C425.771 537.651 423.448 534.912 420.958 532.318C418.464 529.724 415.818 527.297 413.021 525.037C410.224 522.776 407.297 520.698 404.24 518.807C401.182 516.912 398.016 515.219 394.75 513.724C391.479 512.224 388.125 510.938 384.698 509.865C381.266 508.787 377.781 507.932 374.24 507.292C370.703 506.656 367.135 506.24 363.547 506.052C361.906 505.964 360.24 505.922 358.547 505.927H255.802C251.906 505.792 214.469 504.87 181.74 518.484V467.443C181.74 466.021 181.813 464.609 181.953 463.198C182.094 461.787 182.302 460.385 182.578 458.995C182.859 457.604 183.203 456.229 183.615 454.87C184.026 453.516 184.505 452.182 185.047 450.87C185.594 449.563 186.198 448.281 186.865 447.031C187.536 445.781 188.266 444.563 189.052 443.385C189.839 442.208 190.682 441.068 191.583 439.974C192.484 438.875 193.432 437.828 194.438 436.823C195.438 435.823 196.49 434.87 197.583 433.969C198.677 433.073 199.818 432.229 200.995 431.438C202.172 430.651 203.385 429.922 204.635 429.255C205.885 428.583 207.167 427.979 208.474 427.432C209.786 426.891 211.12 426.412 212.474 426C213.828 425.589 215.203 425.245 216.594 424.964C217.984 424.688 219.385 424.479 220.797 424.339C222.203 424.198 223.62 424.13 225.036 424.125ZM186.563 542.307C211.125 530.625 242.01 529.62 251.885 529.62C253.88 529.62 255.01 529.662 255.078 529.667C255.245 529.667 255.417 529.667 255.573 529.667H358.547C359.833 529.667 361.104 529.698 362.354 529.766C364.37 529.896 366.375 530.12 368.37 530.443C370.365 530.76 372.339 531.177 374.297 531.688C376.25 532.198 378.177 532.797 380.078 533.49C381.974 534.182 383.833 534.964 385.661 535.833C387.484 536.703 389.26 537.656 390.995 538.698C392.729 539.734 394.406 540.854 396.036 542.057C397.661 543.255 399.229 544.531 400.734 545.875C402.24 547.224 403.677 548.641 405.047 550.13C406.417 551.615 407.714 553.162 408.938 554.771C410.161 556.38 411.307 558.042 412.37 559.76C413.438 561.479 414.417 563.245 415.318 565.052C416.214 566.865 417.021 568.714 417.745 570.604C418.464 572.495 419.094 574.412 419.635 576.359C420.172 578.307 420.62 580.276 420.969 582.271C421.323 584.26 421.578 586.26 421.74 588.276C421.901 590.292 421.964 592.313 421.932 594.333V611.412H176.849C175.505 611.406 174.177 611.276 172.859 611.01C171.542 610.75 170.266 610.359 169.026 609.844C167.786 609.328 166.609 608.698 165.49 607.953C164.375 607.208 163.344 606.359 162.396 605.406C161.443 604.458 160.599 603.427 159.849 602.307C159.104 601.193 158.474 600.016 157.958 598.771C157.448 597.531 157.057 596.255 156.792 594.938C156.531 593.62 156.396 592.292 156.396 590.948C156.385 588.427 156.547 585.922 156.885 583.422C157.224 580.927 157.734 578.469 158.422 576.047C159.104 573.62 159.953 571.255 160.969 568.953C161.984 566.646 163.156 564.427 164.484 562.287C165.813 560.146 167.281 558.109 168.896 556.172C170.51 554.24 172.25 552.427 174.115 550.74C175.984 549.052 177.958 547.5 180.042 546.089C182.13 544.677 184.302 543.417 186.563 542.307ZM43.25 734.521C89.5365 682.995 159.896 642.438 173.255 634.984C174.443 635.078 175.641 635.162 176.844 635.162H690.766C691.974 635.162 693.151 635.078 694.354 634.984C707.708 642.443 778.073 682.995 824.354 734.521C827.354 737.844 830.026 741.412 832.375 745.229C834.719 749.042 836.698 753.037 838.307 757.214C839.922 761.396 841.135 765.682 841.958 770.083C842.781 774.49 843.198 778.927 843.208 783.406V818.193H24.3958V783.406C24.4063 778.927 24.8229 774.49 25.6458 770.089C26.4688 765.682 27.6875 761.396 29.2969 757.219C30.9115 753.037 32.8854 749.042 35.2344 745.229C37.5781 741.417 40.25 737.844 43.25 734.521Z" fill="black"/>
</g>
<path d="M867.74 506.875C867.74 507.651 867.661 508.427 867.51 509.193C867.359 509.953 867.135 510.698 866.833 511.417C866.536 512.141 866.172 512.823 865.74 513.469C865.307 514.12 864.813 514.719 864.26 515.271C863.714 515.823 863.109 516.313 862.464 516.75C861.818 517.182 861.13 517.547 860.411 517.844C859.693 518.146 858.948 518.37 858.188 518.521C857.422 518.672 856.651 518.75 855.87 518.75C855.089 518.75 854.318 518.672 853.552 518.521C852.792 518.37 852.047 518.146 851.328 517.844C850.609 517.547 849.922 517.182 849.276 516.75C848.625 516.313 848.026 515.823 847.479 515.271C846.927 514.719 846.432 514.12 846 513.469C845.568 512.823 845.203 512.141 844.906 511.417C844.604 510.698 844.38 509.953 844.229 509.193C844.078 508.427 844 507.651 844 506.875C844 506.094 844.078 505.323 844.229 504.557C844.38 503.792 844.604 503.047 844.906 502.328C845.203 501.609 845.568 500.922 846 500.276C846.432 499.625 846.927 499.026 847.479 498.474C848.026 497.927 848.625 497.432 849.276 497C849.922 496.568 850.609 496.198 851.328 495.901C852.047 495.604 852.792 495.38 853.552 495.224C854.318 495.073 855.089 495 855.87 495C856.651 495 857.422 495.073 858.188 495.224C858.948 495.38 859.693 495.604 860.411 495.901C861.13 496.198 861.818 496.568 862.464 497C863.109 497.432 863.714 497.927 864.26 498.474C864.813 499.026 865.307 499.625 865.74 500.276C866.172 500.922 866.536 501.609 866.833 502.328C867.135 503.047 867.359 503.792 867.51 504.557C867.661 505.323 867.74 506.094 867.74 506.875Z" fill="black"/>
<path d="M867.74 658.88C867.74 659.656 867.661 660.432 867.51 661.193C867.359 661.958 867.135 662.703 866.833 663.422C866.536 664.141 866.172 664.828 865.74 665.474C865.307 666.125 864.813 666.724 864.26 667.276C863.714 667.828 863.109 668.318 862.464 668.75C861.818 669.188 861.13 669.552 860.411 669.849C859.693 670.146 858.948 670.375 858.188 670.526C857.422 670.677 856.651 670.755 855.87 670.755C855.089 670.755 854.318 670.677 853.552 670.526C852.792 670.375 852.047 670.146 851.328 669.849C850.609 669.552 849.922 669.188 849.276 668.75C848.625 668.318 848.026 667.828 847.479 667.276C846.927 666.724 846.432 666.125 846 665.474C845.568 664.828 845.203 664.141 844.906 663.422C844.604 662.703 844.38 661.958 844.229 661.193C844.078 660.432 844 659.656 844 658.88C844 658.099 844.078 657.328 844.229 656.562C844.38 655.797 844.604 655.052 844.906 654.333C845.203 653.615 845.568 652.927 846 652.281C846.432 651.63 846.927 651.031 847.479 650.479C848.026 649.927 848.625 649.438 849.276 649.005C849.922 648.573 850.609 648.203 851.328 647.906C852.047 647.609 852.792 647.38 853.552 647.229C854.318 647.078 855.089 647 855.87 647C856.651 647 857.422 647.078 858.188 647.229C858.948 647.38 859.693 647.609 860.411 647.906C861.13 648.203 861.818 648.573 862.464 649.005C863.109 649.438 863.714 649.927 864.26 650.479C864.813 651.031 865.307 651.63 865.74 652.281C866.172 652.927 866.536 653.615 866.833 654.333C867.135 655.052 867.359 655.797 867.51 656.562C867.661 657.328 867.74 658.099 867.74 658.88Z" fill="black"/>
</g>
</g>
<defs>
<clipPath id="clip0_1_147">
<rect width="1080" height="1080" fill="white"/>
</clipPath>
</defs>
</svg>
