<?xml version="1.0" encoding="UTF-8"?>
<svg id="Livello_2" data-name="Livello 2" xmlns="http://www.w3.org/2000/svg" xmlns:xlink="http://www.w3.org/1999/xlink" viewBox="0 0 144.56 64.27">
  <defs>
    <style>
      .cls-1, .cls-2, .cls-3 {
        fill: none;
      }

      .cls-2 {
        clip-path: url(#clippath);
      }

      .cls-3 {
        clip-path: url(#clippath-1);
      }

      .cls-4 {
        fill: #1d1d1c;
      }
    </style>
    <clipPath id="clippath">
      <rect class="cls-1" x="0" y="0" width="144.56" height="64.27"/>
    </clipPath>
    <clipPath id="clippath-1">
      <rect class="cls-1" x="0" y="0" width="144.56" height="64.27"/>
    </clipPath>
  </defs>
  <g id="cestino_della_biancheria" data-name="cestino della biancheria">
    <g class="cls-2">
      <g class="cls-3">
        <path class="cls-4" d="m120.41,61.74H28.06c-1.25,0-2.51-.07-3.76,0-.05,0-.11,0-.16,0,.4.31.81.61,1.21.92l-1.52-5.32c-1.21-4.23-2.42-8.47-3.63-12.7-1.47-5.14-2.94-10.28-4.41-15.42-1.26-4.43-2.53-8.85-3.79-13.28l-1.25-4.38c-.2-.69-.34-1.42-.6-2.08-.01-.03-.02-.06-.03-.09-.4.53-.81,1.06-1.21,1.59h121.54c1.63,0,3.29.07,4.92,0,.07,0,.14,0,.22,0-.4-.53-.81-1.06-1.21-1.59-.51,1.77-1.01,3.54-1.52,5.32-1.21,4.23-2.42,8.47-3.63,12.7-1.47,5.14-2.94,10.28-4.41,15.42-1.26,4.43-2.53,8.85-3.79,13.28-.61,2.15-1.32,4.29-1.85,6.46,0,.03-.02.06-.03.09-.44,1.56,1.98,2.22,2.42.67.51-1.77,1.01-3.54,1.52-5.32,1.21-4.23,2.42-8.47,3.63-12.7,1.47-5.14,2.94-10.28,4.41-15.42,1.26-4.43,2.53-8.85,3.79-13.28.61-2.15,1.32-4.29,1.85-6.46,0-.03.02-.06.03-.09.22-.79-.4-1.59-1.21-1.59H14.06c-1.64,0-3.28-.03-4.92,0-.07,0-.14,0-.22,0-.81,0-1.43.8-1.21,1.59.51,1.77,1.01,3.54,1.52,5.32l3.63,12.7,4.41,15.42c1.26,4.43,2.53,8.85,3.79,13.28.61,2.15,1.15,4.34,1.85,6.46.01.03.02.06.03.09.15.53.66.92,1.21.92h92.35c1.25,0,2.51.03,3.76,0,.05,0,.11,0,.16,0,1.62,0,1.62-2.51,0-2.51"/>
        <path class="cls-4" d="m139.31,8.37H6.86c-.48,0-.97,0-1.45,0-.96-.01-1.57-.27-2.15-.84-.05-.05-.1-.11-.15-.17.15.18,0,0-.04-.05-.09-.14-.17-.28-.25-.43,0,0-.15-.32-.07-.15.07.17-.06-.17-.05-.16-.06-.18-.1-.35-.14-.53-.01-.04-.05-.4-.02-.1,0-.07-.02-.15-.02-.22,0-.19,0-.37,0-.56,0-.07.01-.15.02-.22-.03.26,0,.02.01-.05.04-.2.09-.39.15-.59.02-.07.05-.14.07-.21-.09.23,0,0,.03-.05.08-.15.16-.29.25-.43,0,0,.21-.28.1-.14-.11.14.12-.13.12-.13.05-.05.11-.1.16-.16.05-.05.11-.1.17-.15-.09.07-.1.08-.03.02.58-.42,1.08-.55,1.81-.56.09,0,.19,0,.28,0h133.15c.16,0,.31,0,.47,0,.94.01,1.51.23,2.11.9.04.05.18.24.04.05.04.06.09.12.12.18.09.16.18.32.26.49-.1-.23.06.2.09.27.05.16.08.32.12.49.08.35,0-.16.01.05,0,.09.02.19.02.28,0,.17,0,.34,0,.5,0,.09-.01.19-.02.28.03-.25,0-.05,0,0-.04.18-.08.36-.13.54-.02.07-.05.14-.07.21-.12.34.12-.21-.05.11-.07.13-.14.26-.21.39-.02.03-.23.32-.06.1-.04.06-.09.12-.14.17-.13.14-.26.27-.4.38.19-.15-.2.12-.26.15-.08.05-.17.09-.26.13.05-.02.2-.07-.03,0-.49.16-.59.17-1.08.18-1.61.02-1.62,2.53,0,2.51,1.9-.03,3.68-.95,4.57-2.66.79-1.51.91-3.37.27-4.96C143.29,1.12,141.36,0,139.09,0,137.12,0,135.15,0,133.17,0H11.62C9.62,0,7.62,0,5.62,0,3.54,0,1.56.88.6,2.83c-.78,1.58-.8,3.43-.09,5.03.78,1.75,2.42,2.8,4.29,3,1.49.16,3.06.03,4.55.03h129.95c1.62,0,1.62-2.51,0-2.51"/>
        <path class="cls-4" d="m94.54,25.46h-42.68c-.61,0-1.22.01-1.83,0h-.02c-.06,0-.12,0-.18,0-.2-.01.18.04,0,0-.05-.01-.11-.02-.16-.04-.22-.09.09.06-.04-.02-.08-.05-.3-.22-.12-.06-.05-.04-.26-.27-.18-.17.08.1-.09-.15-.13-.21-.03-.06-.06-.12-.09-.19.05.1.05.13.01,0-.04-.12-.07-.24-.1-.36-.07-.3-.01.07-.02-.15,0-.13,0-.25,0-.38,0-.29-.05.07.02-.2.03-.12.06-.24.1-.36.05-.19-.08.1.06-.13.06-.1.12-.21.19-.31-.16.22.09-.07.14-.12-.2.18.1-.05.17-.09-.19.1,0,0,.1-.02.22-.06.06-.02,0-.01.08,0,.16-.01.24-.01h0c.05,0,.1,0,.15,0,.28,0,.56,0,.84,0h41.05c.78,0,1.56,0,2.34,0,.05,0,.1,0,.14,0,.1,0,.41.02.42.02,0,0,.26.06.36.08.08.02.16.05.24.08-.12-.05-.04-.02.03.02.13.07.27.15.39.24-.17-.13.02.03.07.09.05.05.1.1.14.16-.04-.04-.12-.2-.01,0,.04.07.21.42.1.15.04.11.07.22.1.33.09.26.02-.09.02.11,0,.12,0,.23,0,.35,0,.15.01-.08.01-.09-.02.08-.03.16-.06.24-.07.26-.28.56-.43.66-.11.08-.22.14-.34.21-.03.02-.21.09-.03.02-.06.02-.12.04-.18.06-.4.1-.44.11-.84.12-1.61.03-1.62,2.54,0,2.51,1.52-.02,3.01-.62,3.83-1.96.7-1.14.71-2.62.08-3.8-.85-1.59-2.59-2.1-4.28-2.1h-36.56c-2.49,0-4.97-.01-7.46,0-4.82.03-4.83,7.83-.02,7.86,2.46.01,4.92,0,7.37,0h37.03c1.62,0,1.62-2.51,0-2.51"/>
        <path class="cls-4" d="m86.49,38.99h-28.08c-.11,0-.23,0-.34,0-.4,0-.41.01-.83-.15.21.08-.2-.12-.26-.15-.17-.1.19.19-.05-.03-.08-.07-.15-.15-.22-.23.17.19-.11-.18-.15-.26-.11-.2-.02-.03,0,.02-.04-.1-.06-.19-.09-.29-.02-.06-.03-.14-.04-.2.06.28,0,.06,0-.02,0-.11.05-.61,0-.33.03-.17.08-.33.14-.49-.1.26.08-.12.13-.2.04-.06.19-.22.02-.04.05-.05.09-.11.15-.15.03-.03.3-.23.08-.08.09-.06.19-.12.29-.17.21-.11.07-.03.02-.01.12-.04.23-.07.35-.1.03,0,.24-.05.05-.02.11-.02.23-.02.35-.02.05,0,.1,0,.14,0,.18,0,.37,0,.55,0h27.09c.2,0,.4,0,.6,0,.03,0,.06,0,.1,0,.09,0,.18,0,.28.01-.21-.02.05,0,.1.02.13.03.27.07.39.12-.28-.12.29.2.15.09-.07-.05.19.18.26.26-.17-.19.11.18.15.26.11.2.02.03,0-.02.04.11.08.23.11.34.02.08.04.17.05.25-.04-.27-.01-.09-.01-.03,0,.09-.03.59.01.28-.03.17-.07.33-.12.5-.07.22-.01.03.01-.01-.05.11-.11.21-.17.31-.06.1-.25.27-.42.37-.21.11-.05.04,0,.02-.11.05-.22.07-.33.11-.08.02-.16.04-.24.05.25-.03-.19,0-.19,0-1.61.03-1.62,2.54,0,2.51,2.14-.04,3.77-1.53,3.96-3.67.17-1.88-1.05-3.74-2.92-4.16-.64-.14-1.28-.12-1.93-.12h-22.22c-1.75,0-3.5-.02-5.24,0-1.56.02-3.08.7-3.8,2.15-.87,1.77-.35,3.96,1.28,5.09,1.45,1,3.64.7,5.33.7h25.55c1.62,0,1.62-2.51,0-2.51"/>
        <path class="cls-4" d="m78.33,52.85h-11.52c-.24,0-.49,0-.73,0-.3-.01-.19,0-.46-.06-.12-.03-.24-.06-.35-.1.21.07-.02,0-.07-.03-.08-.04-.16-.09-.24-.14-.29-.17.16.16-.08-.06-.05-.05-.1-.1-.15-.14-.05-.05-.09-.1-.13-.15.09.12.1.13.02.01-.03-.06-.06-.11-.1-.17-.16-.27.07.24-.03-.05-.03-.08-.12-.57-.08-.22-.02-.16-.02-.32,0-.47.01-.31-.07.26.01-.04.03-.09.05-.18.08-.28.09-.3-.13.21.03-.05.03-.06.07-.11.1-.17.15-.27-.17.17.04-.06.06-.06.12-.12.18-.18.05-.05.23-.18.03-.03.09-.06.18-.12.28-.17.06-.04.13-.07.2-.1-.23.1.22-.05.27-.06.28-.07.55-.06.95-.06h10.73c.34,0,.68,0,1.02,0,.14,0,.28,0,.42.02-.24-.03.15.04.16.04.11.03.23.06.34.11-.28-.12.44.33.19.12.08.07.15.14.22.21.22.22-.11-.2.05.06.05.08.1.17.15.26.15.27-.06-.23.02.06.03.09.05.19.08.28.08.27,0-.21.01.05,0,.12-.05.66,0,.35-.02.11-.2.62-.08.35-.04.09-.09.17-.14.26-.06.1-.18.23-.04.07-.07.08-.14.15-.21.22-.15.15.14-.05-.12.09-.32.17-.57.26-1.05.27-1.61.03-1.62,2.54,0,2.51,2.24-.04,4.23-1.66,4.14-4.02-.08-2.28-1.95-3.79-4.15-3.82-2.89-.05-5.79,0-8.69,0-1.12,0-2.25-.01-3.37,0-1.97.02-3.94,1.13-4.3,3.21-.38,2.22,1.16,4.22,3.37,4.55,1.07.16,2.18.08,3.26.08h9.74c1.62,0,1.62-2.51,0-2.51"/>
        <path class="cls-4" d="m103.71,52.85h-6.73c-1.06,0-2.12,0-3.17,0-.06,0-.12,0-.18,0-.03,0-.19,0-.22,0-.32,0,.22.08-.07,0-.06-.02-.13-.03-.19-.04-.09-.03-.41-.2-.13-.04-.11-.06-.49-.37-.25-.13-.1-.1-.2-.2-.29-.3.24.26-.06-.14-.12-.23-.04-.06-.07-.22.03.07-.03-.11-.07-.21-.1-.32-.02-.08-.03-.16-.05-.24.08.34,0,.1,0,0,0-.14,0-.28,0-.42,0-.27-.08.26,0,0,.03-.08.04-.16.06-.24.02-.05.04-.11.05-.16.04-.19-.14.21.04-.08.04-.07.09-.14.13-.21.12-.24-.13.14-.02.02.07-.08.43-.37.15-.18.07-.05.14-.09.22-.14.02-.01.28-.14.09-.06-.19.09.09-.03.11-.04.13-.03.25-.07.38-.09-.29.05.13,0,.25,0,.13,0,.25,0,.38,0h9.32c.1,0,.2,0,.3,0,.12,0,.24,0,.36.01.34.02-.22-.07.1.02.1.03.2.05.3.08.06.02.35.15.06.01.11.05.22.11.32.17.08.04.26.23.03.01.06.06.13.12.19.18.06.05.21.28.02,0,.06.09.12.19.18.28.03.05.05.1.07.15-.17-.3-.01-.02.02.08.02.08.03.16.06.24.08.23,0-.28,0,.03,0,.07,0,.13,0,.2,0,.11-.08.43,0,.07-.04.16-.08.31-.12.47-.06.25.15-.21,0,0-.06.08-.12.19-.17.28-.13.23.19-.16-.01,0-.06.05-.13.12-.18.18-.18.2.22-.11-.02.02-.1.05-.22.12-.31.18-.18.11-.01,0,.04-.01-.13.04-.25.09-.38.12-.05.01-.39.06-.09.03-.15.02-.31.02-.46.03-1.61.02-1.62,2.53,0,2.51,2.04-.03,3.88-1.29,4.17-3.39.26-1.96-.98-3.8-2.9-4.29-.99-.25-2.1-.16-3.11-.16h-4.83c-1.11,0-2.21,0-3.32,0-1.78.01-3.33,1.02-3.83,2.76-.5,1.74.22,3.86,1.91,4.65,1.05.5,2.17.42,3.3.42,2.81,0,5.62.03,8.42,0,.07,0,.13,0,.2,0,1.62,0,1.62-2.51,0-2.51"/>
        <path class="cls-4" d="m111.71,38.94h-6.82c-1.04,0-2.07,0-3.11,0-.05,0-.1,0-.16,0-.12,0-.23,0-.35-.01-.34-.02.22.07-.1-.02-.07-.02-.13-.03-.2-.05-.07-.02-.45-.18-.16-.04-.17-.08-.32-.17-.47-.28.28.19-.06-.09-.13-.15-.2-.16.11.22-.01,0-.04-.07-.09-.14-.13-.21-.01-.02-.14-.27-.04-.07.09.19-.04-.11-.05-.15-.02-.08-.03-.16-.06-.24-.09-.26,0,.28,0,.01,0-.13,0-.27,0-.4,0-.27-.09.27,0,.01.03-.08.04-.16.06-.24.02-.08.06-.15.08-.23-.09.3-.04.09.01,0,.04-.07.09-.14.13-.21.13-.23-.19.16.01,0,.09-.07.39-.32.13-.15.15-.1.31-.19.47-.27-.28.14,0,0,.06-.01.1-.03.2-.05.3-.08.32-.09-.25,0,.1-.02.12,0,.23-.01.35-.01.01,0,.03,0,.04,0,.11,0,.23,0,.34,0h9.35c.11,0,.23,0,.34,0,.08,0,.17,0,.25,0,.05,0,.4.07.1,0,.14.03.27.06.4.1.06.02.34.15.06.01.08.04.17.08.25.13.08.05.15.1.22.15-.28-.19.01.03.07.09.06.05.21.28.02,0,.05.07.09.14.14.21.04.07.07.15.12.22-.17-.3-.01-.02.02.08.02.06.03.13.05.2.08.3.02-.21,0,.03,0,.08,0,.16,0,.24,0,.11-.08.43,0,.07-.04.16-.08.31-.12.47-.06.25.15-.21,0,0-.06.08-.12.19-.17.28-.1.18.01-.02.04-.06-.08.08-.17.16-.24.24-.17.2.22-.11-.02.02-.1.05-.22.12-.31.18-.06.04-.21.08.04-.01-.13.04-.25.09-.38.12-.05.01-.39.06-.09.03-.15.02-.3.02-.46.03-1.61.02-1.62,2.53,0,2.51,2.13-.03,3.94-1.38,4.18-3.56.21-1.91-1.12-3.69-2.97-4.14-1-.24-2.12-.14-3.14-.14h-4.85c-1.08,0-2.17,0-3.25,0-1.84.02-3.53.97-4.1,2.79-.55,1.77.32,3.83,2.02,4.61,1.11.5,2.27.44,3.45.44,2.82,0,5.64.03,8.46,0,.07,0,.13,0,.2,0,1.62,0,1.62-2.51,0-2.51"/>
        <path class="cls-4" d="m119.7,25.45h-6.82c-1.04,0-2.07,0-3.11,0-.05,0-.1,0-.16,0-.12,0-.23,0-.35-.01-.34-.02.22.07-.09-.02-.1-.03-.2-.05-.3-.08-.06-.02-.12-.04-.19-.06.14.06.17.07.08.03-.15-.08-.29-.16-.43-.26.28.19-.11-.14-.18-.21.03.03.14.23.04.06-.04-.07-.09-.14-.13-.21-.05-.07-.13-.32-.01,0-.04-.1-.07-.2-.1-.31-.01-.05-.02-.11-.04-.16-.08-.25-.01.28,0,.01,0-.16,0-.32,0-.48-.01.38.02-.03.05-.14.02-.08.05-.15.08-.23-.12.34,0,.01.05-.07.04-.07.09-.14.14-.21-.03.05-.19.18-.04.06.06-.05.13-.12.18-.18.17-.2-.22.11.02-.02.13-.07.26-.16.4-.22-.28.14,0,0,.06-.01.13-.04.26-.07.4-.1-.29.06.25-.01.34-.01.02,0,.03,0,.05,0,.12,0,.24,0,.35,0h9.36c.1,0,.21,0,.31,0,.12,0,.24.01.37.01.35.01-.22-.07.1.02.13.03.27.06.4.1.01,0,.3.13.12.04-.17-.08.15.09.18.11.06.03.29.22.04,0,.09.07.17.15.25.23.02.02.19.23.06.06-.13-.16.07.11.09.15.04.07.07.15.11.22-.17-.31-.01-.02.01.08.01.05.02.1.04.16.09.33.03-.14.01.06,0,.07,0,.16,0,.24.01.34.06-.13,0,.06-.05.15-.08.31-.13.46.1-.32.04-.08-.01,0-.06.09-.12.19-.18.28.18-.28-.12.09-.2.18-.18.19.22-.1-.03.02-.11.05-.22.12-.32.18.04-.02.25-.08.03-.01-.13.04-.26.08-.39.11-.04.01-.39.06-.09.03-.16.02-.31.02-.47.03-1.61.02-1.62,2.53,0,2.51,1.98-.03,3.91-1.19,4.24-3.27.31-2.01-.93-3.89-2.9-4.41-1.01-.27-2.14-.17-3.18-.17h-4.88c-1.1,0-2.2,0-3.29,0-1.83.02-3.5.95-4.09,2.75-.58,1.76.28,3.83,1.96,4.63,1.11.52,2.27.46,3.46.46h8.69c1.62,0,1.62-2.51,0-2.51"/>
        <path class="cls-4" d="m50.31,52.85h-6.73c-1.06,0-2.12,0-3.17,0-.06,0-.12,0-.18,0-.03,0-.19,0-.22,0-.32,0,.22.08-.07,0-.06-.02-.13-.03-.19-.04-.09-.03-.41-.2-.13-.04-.11-.06-.49-.37-.25-.13-.1-.1-.2-.2-.29-.3.24.26-.06-.14-.12-.23-.04-.06-.07-.22.03.07-.03-.11-.07-.21-.1-.32-.02-.08-.03-.16-.05-.24.08.34,0,.1,0,0,0-.14,0-.28,0-.42,0-.27-.08.26,0,0,.03-.08.04-.16.06-.24.02-.05.04-.11.05-.16.04-.19-.14.21.04-.08.04-.07.09-.14.13-.21.12-.24-.13.14-.02.02.07-.08.43-.37.15-.18.07-.05.14-.09.22-.14.02-.01.28-.14.09-.06-.19.09.09-.03.11-.04.13-.03.25-.07.38-.09-.29.05.13,0,.25,0,.13,0,.25,0,.38,0h9.32c.1,0,.2,0,.3,0,.12,0,.24,0,.36.01.34.02-.22-.07.1.02.1.03.2.05.3.08.06.02.35.15.06.01.11.05.22.11.32.17.08.04.26.23.03.01.06.06.13.12.19.18.06.05.21.28.02,0,.06.09.12.19.18.28.03.05.05.1.07.15-.17-.3-.01-.02.02.08.02.08.03.16.06.24.08.23,0-.28,0,.03,0,.07,0,.13,0,.2,0,.11-.08.43,0,.07-.04.16-.08.31-.12.47-.06.25.15-.21,0,0-.06.08-.12.19-.17.28-.13.23.19-.16-.01,0-.06.05-.13.12-.18.18-.18.2.22-.11-.02.02-.1.05-.22.12-.31.18-.18.11-.01,0,.04-.01-.13.04-.25.09-.38.12-.05.01-.39.06-.09.03-.15.02-.31.02-.46.03-1.61.02-1.62,2.53,0,2.51,2.04-.03,3.88-1.29,4.17-3.39.26-1.96-.98-3.8-2.9-4.29-.99-.25-2.1-.16-3.11-.16h-4.83c-1.11,0-2.21,0-3.32,0-1.78.01-3.33,1.02-3.83,2.76-.5,1.74.22,3.86,1.91,4.65,1.05.5,2.17.42,3.3.42,2.81,0,5.62.03,8.42,0,.07,0,.13,0,.2,0,1.62,0,1.62-2.51,0-2.51"/>
        <path class="cls-4" d="m41.75,39.15h-6.82c-1.04,0-2.07,0-3.11,0-.05,0-.1,0-.16,0-.12,0-.23,0-.35-.01-.34-.02.22.07-.1-.02-.07-.02-.13-.03-.2-.05-.07-.02-.45-.18-.16-.04-.17-.08-.32-.17-.47-.28.28.19-.06-.09-.13-.15-.2-.16.11.22-.01,0-.04-.07-.09-.14-.13-.21-.01-.02-.14-.27-.04-.07.09.19-.04-.11-.05-.15-.02-.08-.03-.16-.06-.24-.09-.26,0,.28,0,.01,0-.13,0-.27,0-.4,0-.27-.09.27,0,.01.03-.08.04-.16.06-.24.02-.08.06-.15.08-.23-.09.3-.04.09.01,0,.04-.07.09-.14.13-.21.13-.23-.19.16.01,0,.09-.07.39-.32.13-.15.15-.1.31-.19.47-.27-.28.14,0,0,.06-.01.1-.03.2-.05.3-.08.32-.09-.25,0,.1-.02.12,0,.23-.01.35-.01.01,0,.03,0,.04,0,.11,0,.23,0,.34,0h9.35c.11,0,.23,0,.34,0,.08,0,.17,0,.25,0,.05,0,.4.07.1,0,.14.03.27.06.4.1.06.02.34.15.06.01.08.04.17.08.25.13.08.05.15.1.22.15-.28-.19.01.03.07.09.06.05.21.28.02,0,.05.07.09.14.14.21.04.07.07.15.12.22-.17-.3-.01-.02.02.08.02.06.03.13.05.2.08.3.02-.21,0,.03,0,.08,0,.16,0,.24,0,.11-.08.43,0,.07-.04.16-.08.31-.12.47-.06.25.15-.21,0,0-.06.08-.12.19-.17.28-.1.18.01-.02.04-.06-.08.08-.17.16-.24.24-.17.2.22-.11-.02.02-.1.05-.22.12-.31.18-.06.04-.21.08.04-.01-.13.04-.25.09-.38.12-.05.01-.39.06-.09.03-.15.02-.3.02-.46.03-1.61.02-1.62,2.53,0,2.51,2.13-.03,3.94-1.38,4.18-3.56.21-1.91-1.12-3.69-2.97-4.14-1-.24-2.12-.14-3.14-.14h-4.85c-1.08,0-2.17,0-3.25,0-1.84.02-3.53.97-4.1,2.79-.55,1.77.32,3.83,2.02,4.61,1.11.5,2.27.44,3.45.44,2.82,0,5.64.03,8.46,0,.07,0,.13,0,.2,0,1.62,0,1.62-2.51,0-2.51"/>
        <path class="cls-4" d="m33.7,25.46h-6.82c-1.04,0-2.07,0-3.11,0-.05,0-.1,0-.16,0-.12,0-.23,0-.35-.01-.34-.02.22.07-.09-.02-.1-.03-.2-.05-.3-.08-.06-.02-.12-.04-.19-.06.14.06.17.07.08.03-.15-.08-.29-.16-.43-.26.28.19-.11-.14-.18-.21.03.03.14.23.04.06-.04-.07-.09-.14-.13-.21-.05-.07-.13-.32-.01,0-.04-.1-.07-.2-.1-.31-.01-.05-.02-.11-.04-.16-.08-.25-.01.28,0,.01,0-.16,0-.32,0-.48-.01.38.02-.03.05-.14.02-.08.05-.15.08-.23-.12.34,0,.01.05-.07.04-.07.09-.14.14-.21-.03.05-.19.18-.04.06.06-.05.13-.12.18-.18.17-.2-.22.11.02-.02.13-.07.26-.16.4-.22-.28.14,0,0,.06-.01.13-.04.26-.07.4-.1-.29.06.25-.01.34-.01.02,0,.03,0,.05,0,.12,0,.24,0,.35,0h9.36c.1,0,.21,0,.31,0,.12,0,.24.01.37.01.35.01-.22-.07.1.02.13.03.27.06.4.1.01,0,.3.13.12.04-.17-.08.15.09.18.11.06.03.29.22.04,0,.09.07.17.15.25.23.02.02.19.23.06.06-.13-.16.07.11.09.15.04.07.07.15.11.22-.17-.31-.01-.02.01.08.01.05.02.1.04.16.09.33.03-.14.01.06,0,.07,0,.16,0,.24.01.34.06-.13,0,.06-.05.15-.08.31-.13.46.1-.32.04-.08-.01,0-.06.09-.12.19-.18.28.18-.28-.12.09-.2.18-.18.19.22-.1-.03.02-.11.05-.22.12-.32.18.04-.02.25-.08.03-.01-.13.04-.26.08-.39.11-.04.01-.39.06-.09.03-.16.02-.31.02-.47.03-1.61.02-1.62,2.53,0,2.51,1.98-.03,3.91-1.19,4.24-3.27.31-2.01-.93-3.89-2.91-4.41-1.01-.27-2.14-.17-3.18-.17h-4.88c-1.1,0-2.2,0-3.29,0-1.83.02-3.5.95-4.09,2.75-.58,1.76.28,3.83,1.96,4.63,1.11.52,2.27.46,3.46.46h8.69c1.62,0,1.62-2.51,0-2.51"/>
      </g>
    </g>
  </g>
</svg>