<?xml version="1.0" encoding="UTF-8"?>
<svg id="Livello_2" data-name="Livello 2" xmlns="http://www.w3.org/2000/svg" xmlns:xlink="http://www.w3.org/1999/xlink" viewBox="0 0 100.53 112.61">
  <defs>
    <style>
      .cls-1, .cls-2, .cls-3 {
        fill: none;
      }

      .cls-2 {
        clip-path: url(#clippath);
      }

      .cls-3 {
        clip-path: url(#clippath-1);
      }

      .cls-4 {
        fill: #1d1d1c;
      }
    </style>
    <clipPath id="clippath">
      <rect class="cls-1" width="100.53" height="112.61"/>
    </clipPath>
    <clipPath id="clippath-1">
      <rect class="cls-1" width="100.53" height="112.61"/>
    </clipPath>
  </defs>
  <g id="comò">
    <g class="cls-2">
      <g class="cls-3">
        <path class="cls-4" d="m88.72,100.15H14.92c-1,0-2-.04-3,0-.04,0-.09,0-.13,0l1.08,1.14V10.52c0-1.22.04-2.46,0-3.68,0-.05,0-.11,0-.16l-1.08,1.14h73.8c1,0,2,.04,3,0,.04,0,.09,0,.13,0l-1.08-1.14v90.77c0,1.23-.02,2.45,0,3.68,0,.05,0,.11,0,.16,0,1.47,2.16,1.47,2.16,0V10.52c0-1.23.02-2.45,0-3.68,0-.05,0-.11,0-.16,0-.62-.49-1.14-1.08-1.14H14.92c-1,0-2-.02-3,0-.04,0-.09,0-.13,0-.58,0-1.08.52-1.08,1.14v90.77c0,1.23-.02,2.45,0,3.68,0,.05,0,.11,0,.16,0,.62.49,1.14,1.08,1.14h73.8c1,0,2,.02,3,0,.04,0,.09,0,.13,0,1.39,0,1.39-2.28,0-2.28"/>
        <path class="cls-4" d="m77.3,86.1H25.41c-.7,0-1.41-.03-2.1,0-.03,0-.06,0-.09,0l1.08,1.14V23.42c0-.86.03-1.73,0-2.59,0-.04,0-.07,0-.11l-1.08,1.14h51.89c.7,0,1.41.03,2.1,0,.03,0,.06,0,.09,0l-1.08-1.14v63.82c0,.86-.01,1.73,0,2.59,0,.04,0,.07,0,.11,0,.6.5,1.17,1.08,1.14.58-.03,1.08-.5,1.08-1.14V23.42c0-.86.01-1.73,0-2.59,0-.04,0-.07,0-.11,0-.62-.49-1.14-1.08-1.14H25.41c-.7,0-1.4-.02-2.1,0-.03,0-.06,0-.09,0-.58,0-1.08.52-1.08,1.14v63.82c0,.86-.01,1.73,0,2.59,0,.04,0,.07,0,.11,0,.62.49,1.14,1.08,1.14h51.89c.7,0,1.4.02,2.1,0,.03,0,.06,0,.09,0,.56,0,1.1-.53,1.08-1.14-.03-.62-.47-1.14-1.08-1.14"/>
        <path class="cls-4" d="m2.17,5.17c0-.82-.08-1.7,0-2.51.03-.25.15-.35.43-.36.4-.01.8,0,1.2,0h90.48c1.21,0,2.43-.05,3.64,0,.28.01.4.11.42.36.04.46,0,.94,0,1.4,0,.32.04.84.01,1.09-.03.31-.17.37-.45.38-.15,0-.29,0-.44,0H2.99c-.13,0-.26,0-.4,0-.27-.01-.41-.11-.42-.36-.03-.62-.48-1.14-1.08-1.14C.53,4.03-.01,4.56.01,5.17c.07,1.49,1.11,2.6,2.53,2.64.11,0,.22,0,.33,0h94.78c.11,0,.22,0,.32,0,1.41-.05,2.47-1.16,2.52-2.65.03-.91.07-1.9-.03-2.81-.15-1.37-1.23-2.31-2.5-2.35-.34-.01-.69,0-1.04,0H5.83C4.73.02,3.63-.02,2.53.02,1.13.07.07,1.17.01,2.66-.02,3.5.01,4.34.01,5.17c0,1.47,2.16,1.47,2.16,0"/>
        <path class="cls-4" d="m77.3,88.39c.56,0,1.1-.53,1.08-1.14-.03-.62-.47-1.14-1.08-1.14-.56,0-1.1.53-1.08,1.14.03.62.47,1.14,1.08,1.14"/>
        <path class="cls-4" d="m23.21,21.86c.56,0,1.1-.53,1.08-1.14-.03-.62-.47-1.14-1.08-1.14-.56,0-1.1.53-1.08,1.14.03.62.47,1.14,1.08,1.14"/>
        <path class="cls-4" d="m23.21,88.39c.56,0,1.1-.53,1.08-1.14-.03-.62-.47-1.14-1.08-1.14-.56,0-1.1.53-1.08,1.14.03.62.47,1.14,1.08,1.14"/>
        <path class="cls-4" d="m77.3,21.86c.56,0,1.1-.53,1.08-1.14-.03-.62-.47-1.14-1.08-1.14-.56,0-1.1.53-1.08,1.14.03.62.47,1.14,1.08,1.14"/>
        <path class="cls-4" d="m77.3,62.95H25.41c-.7,0-1.41-.03-2.1,0-.03,0-.06,0-.09,0l1.08,1.14v-19.94l-1.08,1.14h51.89c.7,0,1.41.03,2.1,0,.03,0,.06,0,.09,0l-1.08-1.14v19.94c0,.6.5,1.17,1.08,1.14.58-.03,1.08-.5,1.08-1.14v-19.94c0-.62-.49-1.14-1.08-1.14H25.41c-.7,0-1.4-.02-2.1,0-.03,0-.06,0-.09,0-.58,0-1.08.52-1.08,1.14v19.94c0,.62.49,1.14,1.08,1.14h51.89c.7,0,1.4.02,2.1,0,.03,0,.06,0,.09,0,.56,0,1.1-.53,1.08-1.14-.03-.62-.47-1.14-1.08-1.14"/>
        <path class="cls-4" d="m39.65,33.49v-1.4c0-.1,0-.21,0-.31-.02-.18.03,0-.02,0l.02-.1c-.06.12-.05.12,0,0-.02.03-.04.05-.06.08.09-.09.09-.09,0,0,.03-.02.05-.03.08-.05-.11.05-.11.06,0,.02,0,.01-.13.02-.09.02.27,0,.53,0,.8,0h17.85c.9,0,1.79,0,2.69,0-.26,0,0-.06,0,0-.03-.01-.06-.03-.08-.04.1.07.11.06,0-.01.02.02.04.05.07.07-.07-.1-.08-.1-.01,0-.01-.03-.03-.06-.04-.09.03.13.03.13,0,0,0,.18,0,.36,0,.54v.87c0,.09,0,.18,0,.27.01.21-.03.04.02.03l-.02.1c.06-.12.05-.12,0,0,.02-.03.04-.05.06-.08-.09.09-.09.09,0,0-.03.02-.05.03-.08.05.11-.05.11-.06,0-.02,0,0,.13-.02.09-.02-.02,0-.05,0-.07,0-.13-.02-.28,0-.41,0h-19.73c-.33,0-.74-.07-1.07,0-.02,0-.04,0-.05,0,.26,0,0,.06,0,0,.03.01.06.03.08.04-.1-.07-.11-.06,0,.01-.02-.02-.04-.05-.07-.07.07.1.08.1.01,0,.01.03.03.06.04.09-.03-.13-.03-.13,0,0-.03-.6-.48-1.17-1.08-1.14-.56.03-1.11.5-1.08,1.14.06,1.24.92,2.17,2.1,2.22.08,0,.17,0,.25,0h20.14c.31,0,.62.01.93,0,.97-.04,1.87-.72,2.05-1.76.1-.57.05-1.18.05-1.76,0-.81-.09-1.6-.72-2.17-.42-.38-.92-.55-1.46-.55-.41,0-.83,0-1.24,0h-18.62c-.43,0-.86,0-1.29,0-.42,0-.83.09-1.19.32-.8.51-1.01,1.38-1.01,2.3v1.4c0,.6.5,1.17,1.08,1.14.58-.03,1.08-.5,1.08-1.14"/>
        <path class="cls-4" d="m39.1,33.43c-.09,0-.17,0-.26-.02.1.01.19.03.29.04-.1-.02-.2-.04-.3-.07-.04-.01-.08-.03-.12-.04-.12-.04.25.13.1.04-.09-.05-.17-.1-.25-.16-.14-.1.17.16.08.07-.03-.04-.07-.07-.11-.11-.03-.03-.05-.06-.08-.09-.13-.14.15.24.05.07-.05-.08-.09-.16-.14-.24-.09-.18.02.1.04.11-.02-.01-.04-.13-.05-.15-.03-.1-.05-.21-.07-.31.01.1.03.2.04.3-.02-.18-.02-.36,0-.55-.01.1-.03.2-.04.3.02-.11.04-.21.07-.31.01-.04.03-.08.04-.12.04-.13-.12.26-.04.11.05-.09.1-.18.15-.27.09-.15-.15.18-.06.09.04-.03.07-.08.1-.11.03-.03.06-.06.09-.09.13-.14-.22.16-.07.05.08-.05.15-.1.23-.15.17-.1-.09.02-.1.04.01-.02.12-.05.14-.05.1-.03.2-.05.3-.07-.1.01-.19.03-.29.04.09-.01.17-.02.26-.02.56,0,1.11-.52,1.08-1.14-.03-.61-.47-1.15-1.08-1.14-1.27.02-2.34.86-2.79,2.11-.4,1.14-.05,2.56.83,3.34.56.5,1.22.78,1.96.79.56,0,1.1-.53,1.08-1.14-.03-.63-.47-1.13-1.08-1.14"/>
        <path class="cls-4" d="m61.41,35.71c1.27-.02,2.34-.86,2.79-2.11.4-1.13.05-2.56-.83-3.34-.56-.5-1.22-.78-1.96-.79-.56,0-1.1.53-1.08,1.14.03.63.47,1.13,1.08,1.14.09,0,.17,0,.26.02-.1-.01-.19-.03-.29-.04.1.02.2.04.3.07.04.01.08.03.12.04.12.04-.25-.13-.1-.04.09.05.17.1.25.16.14.1-.17-.16-.08-.07.03.04.07.07.11.1.03.03.05.06.08.09.13.14-.15-.24-.05-.07.05.08.09.16.14.24.09.18-.02-.1-.04-.11.02.01.04.13.05.15.03.1.05.21.07.31-.01-.1-.03-.2-.04-.3.02.18.02.36,0,.55.01-.1.03-.2.04-.3-.02.11-.04.21-.07.31-.01.04-.03.08-.04.12-.04.13.12-.26.04-.11-.05.09-.1.18-.15.27-.09.15.15-.18.06-.09-.04.03-.07.08-.1.11-.03.03-.06.06-.09.09-.13.14.22-.16.07-.05-.08.05-.15.1-.23.15-.17.1.09-.02.1-.04-.01.02-.12.05-.14.05-.1.03-.2.05-.3.07.1-.01.19-.03.29-.04-.09.01-.17.02-.26.02-.56,0-1.11.52-1.08,1.14.03.61.47,1.15,1.08,1.14"/>
        <path class="cls-4" d="m39.65,76.28v-1.4c0-.1,0-.21,0-.31-.02-.18.03,0-.02,0l.02-.1c-.06.12-.05.12,0,0-.02.03-.04.05-.06.08.09-.09.09-.09,0,0,.03-.02.05-.03.08-.05-.11.05-.11.06,0,.02,0,.01-.13.02-.09.02.27,0,.53,0,.8,0h17.85c.9,0,1.79,0,2.69,0-.26,0,0-.06,0,0-.03-.01-.06-.03-.08-.04.1.07.11.06,0-.01.02.02.04.05.07.07-.07-.1-.08-.1-.01,0-.01-.03-.03-.06-.04-.09.03.13.03.13,0,0,0,.18,0,.36,0,.54v.87c0,.09,0,.18,0,.27.01.21-.03.04.02.03,0,.03-.01.07-.02.1.06-.12.05-.12,0,0,.02-.03.04-.05.06-.08-.09.09-.09.09,0,0-.03.02-.05.03-.08.05.11-.05.11-.06,0-.02,0,0,.13-.02.09-.02-.02,0-.05,0-.07,0-.13-.02-.28,0-.41,0h-19.73c-.33,0-.74-.07-1.07,0-.02,0-.04,0-.05,0,.26,0,0,.06,0,0,.03.01.06.03.08.04-.1-.07-.11-.06,0,.01-.02-.02-.04-.05-.07-.07.07.1.08.1.01,0,.01.03.03.06.04.09-.03-.13-.03-.13,0,0-.03-.6-.48-1.17-1.08-1.14-.56.03-1.11.5-1.08,1.14.06,1.24.92,2.17,2.1,2.22.08,0,.17,0,.25,0h20.14c.31,0,.62.01.93,0,.97-.04,1.87-.72,2.05-1.76.1-.57.05-1.18.05-1.76,0-.81-.09-1.6-.72-2.17-.42-.38-.92-.55-1.46-.55-.41,0-.83,0-1.24,0h-18.62c-.43,0-.86,0-1.29,0-.42,0-.83.09-1.19.32-.8.51-1.01,1.38-1.01,2.3v1.4c0,.6.5,1.17,1.08,1.14.58-.03,1.08-.5,1.08-1.14"/>
        <path class="cls-4" d="m39.1,76.21c-.09,0-.17,0-.26-.02.1.01.19.03.29.04-.1-.02-.2-.04-.3-.07-.04-.01-.08-.03-.12-.04-.12-.04.25.13.1.04-.09-.05-.17-.1-.25-.16-.14-.1.17.16.08.07-.03-.04-.07-.07-.11-.11-.03-.03-.05-.06-.08-.09-.13-.14.15.24.05.07-.05-.08-.09-.16-.14-.24-.09-.18.02.1.04.11-.02-.01-.04-.13-.05-.15-.03-.1-.05-.21-.07-.31.01.1.03.2.04.3-.02-.18-.02-.36,0-.55-.01.1-.03.2-.04.3.02-.11.04-.21.07-.31.01-.04.03-.08.04-.12.04-.13-.12.26-.04.11.05-.09.1-.18.15-.27.09-.15-.15.18-.06.09.04-.03.07-.08.1-.11.03-.03.06-.06.09-.09.13-.14-.22.16-.07.05.08-.05.15-.1.23-.15.17-.1-.09.02-.1.04.01-.02.12-.05.14-.05.1-.03.2-.05.3-.07-.1.01-.19.03-.29.04.09-.01.17-.02.26-.02.56,0,1.11-.52,1.08-1.14-.03-.61-.47-1.15-1.08-1.14-1.27.02-2.34.86-2.79,2.11-.4,1.14-.05,2.56.83,3.34.56.5,1.22.78,1.96.79.56,0,1.1-.53,1.08-1.14-.03-.63-.47-1.13-1.08-1.14"/>
        <path class="cls-4" d="m61.41,78.5c1.27-.02,2.34-.86,2.79-2.11.4-1.13.05-2.56-.83-3.34-.56-.5-1.22-.78-1.96-.79-.56,0-1.1.53-1.08,1.14.03.63.47,1.13,1.08,1.14.09,0,.17,0,.26.02-.1-.01-.19-.03-.29-.04.1.02.2.04.3.07.04.01.08.03.12.04.12.04-.25-.13-.1-.04.09.05.17.1.25.16.14.1-.17-.16-.08-.07.03.04.07.07.11.1.03.03.05.06.08.09.13.14-.15-.24-.05-.07.05.08.09.16.14.24.09.18-.02-.1-.04-.11.02.01.04.13.05.15.03.1.05.21.07.31-.01-.1-.03-.2-.04-.3.02.18.02.36,0,.55.01-.1.03-.2.04-.3-.02.11-.04.21-.07.31-.01.04-.03.08-.04.12-.04.13.12-.26.04-.11-.05.09-.1.18-.15.27-.09.15.15-.18.06-.09-.04.03-.07.08-.1.11-.03.03-.06.06-.09.09-.13.14.22-.16.07-.05-.08.05-.15.1-.23.15-.17.1.09-.02.1-.04-.01.02-.12.05-.14.05-.1.03-.2.05-.3.07.1-.01.19-.03.29-.04-.09.01-.17.02-.26.02-.56,0-1.11.52-1.08,1.14.03.61.47,1.15,1.08,1.14"/>
        <path class="cls-4" d="m39.58,54.88v-1.4c0-.1,0-.21,0-.31-.02-.18.03,0-.02,0,0-.03.01-.07.02-.1-.06.12-.05.12,0,0-.02.03-.04.05-.06.08.09-.09.09-.09,0,0,.03-.02.05-.03.08-.05-.11.05-.11.06,0,.02,0,.01-.13.02-.09.02.27,0,.53,0,.8,0h17.85c.9,0,1.79,0,2.69,0-.26,0,0-.06,0,0-.03-.01-.06-.03-.08-.04.1.07.11.06,0-.01.02.02.04.05.07.07-.07-.1-.08-.1-.01,0-.01-.03-.03-.06-.04-.09.03.13.03.13,0,0,0,.18,0,.36,0,.54v.87c0,.09,0,.18,0,.27.01.21-.03.04.02.03,0,.03-.01.07-.02.1.06-.12.05-.12,0,0,.02-.03.04-.05.06-.08-.09.09-.09.09,0,0-.03.02-.05.03-.08.05.11-.05.11-.06,0-.02,0,0,.13-.02.09-.02-.02,0-.05,0-.07,0-.13-.02-.28,0-.41,0h-19.73c-.33,0-.74-.07-1.07,0-.02,0-.04,0-.05,0,.26,0,0,.06,0,0,.03.01.06.03.08.04-.1-.07-.11-.06,0,.01l-.07-.07c.07.1.08.1.01,0,.01.03.03.06.04.09-.03-.13-.03-.13,0,0-.03-.6-.48-1.17-1.08-1.14-.56.03-1.11.5-1.08,1.14.06,1.24.92,2.17,2.1,2.22.08,0,.17,0,.25,0h20.14c.31,0,.62.01.93,0,.97-.04,1.87-.72,2.05-1.76.1-.57.05-1.18.05-1.76,0-.81-.09-1.6-.72-2.17-.42-.38-.92-.55-1.46-.55-.41,0-.83,0-1.24,0h-18.62c-.43,0-.86,0-1.29,0-.42,0-.83.09-1.19.32-.8.51-1.01,1.38-1.01,2.3v1.4c0,.6.5,1.17,1.08,1.14.58-.03,1.08-.5,1.08-1.14"/>
        <path class="cls-4" d="m39.03,54.82c-.09,0-.17,0-.26-.02.1.01.19.03.29.04-.1-.02-.2-.04-.3-.07-.04-.01-.08-.03-.12-.04-.12-.04.25.13.1.04-.09-.05-.17-.1-.25-.16-.14-.1.17.16.08.07-.03-.04-.07-.07-.11-.11-.03-.03-.05-.06-.08-.09-.13-.14.15.24.05.07-.05-.08-.09-.16-.14-.24-.09-.18.02.1.04.11-.02-.01-.04-.13-.05-.15-.03-.1-.05-.21-.07-.31.01.1.03.2.04.3-.02-.18-.02-.36,0-.55-.01.1-.03.2-.04.3.02-.11.04-.21.07-.31.01-.04.03-.08.04-.12.04-.13-.12.26-.04.11.05-.09.1-.18.15-.27.09-.15-.15.18-.06.09.04-.03.07-.08.1-.11.03-.03.06-.06.09-.09.13-.14-.22.16-.07.05.08-.05.15-.1.23-.15.17-.1-.09.02-.1.04.01-.02.12-.05.14-.05.1-.03.2-.05.3-.07-.1.01-.19.03-.29.04.09-.01.17-.02.26-.02.56,0,1.11-.52,1.08-1.14-.03-.61-.47-1.15-1.08-1.14-1.27.02-2.34.86-2.79,2.11-.4,1.14-.05,2.56.83,3.34.56.5,1.22.78,1.96.79.56,0,1.1-.53,1.08-1.14-.03-.63-.47-1.13-1.08-1.14"/>
        <path class="cls-4" d="m61.48,57.1c1.27-.02,2.34-.86,2.79-2.11.4-1.13.05-2.56-.83-3.34-.56-.5-1.22-.78-1.96-.79-.56,0-1.1.53-1.08,1.14.03.63.47,1.13,1.08,1.14.09,0,.17,0,.26.02-.1-.01-.19-.03-.29-.04.1.02.2.04.3.07.04.01.08.03.12.04.12.04-.25-.13-.1-.04.09.05.17.1.25.16.14.1-.17-.16-.08-.07.03.04.07.07.11.1.03.03.05.06.08.09.13.14-.15-.24-.05-.07.05.08.09.16.14.24.09.18-.02-.1-.04-.11.02.01.04.13.05.15.03.1.05.21.07.31-.01-.1-.03-.2-.04-.3.02.18.02.36,0,.55.01-.1.03-.2.04-.3-.02.11-.04.21-.07.31-.01.04-.03.08-.04.12-.04.13.12-.26.04-.11-.05.09-.1.18-.15.27-.09.15.15-.18.06-.09-.04.03-.07.08-.1.11-.03.03-.06.06-.09.09-.13.14.22-.16.07-.05-.08.05-.15.1-.23.15-.17.1.09-.02.1-.04-.01.02-.12.05-.14.05-.1.03-.2.05-.3.07.1-.01.19-.03.29-.04-.09.01-.17.02-.26.02-.56,0-1.11.52-1.08,1.14.03.61.47,1.15,1.08,1.14"/>
        <path class="cls-4" d="m77.3,45.29c.56,0,1.1-.53,1.08-1.14-.03-.62-.47-1.14-1.08-1.14-.56,0-1.1.53-1.08,1.14.03.62.47,1.14,1.08,1.14"/>
        <path class="cls-4" d="m23.21,21.86c.56,0,1.1-.53,1.08-1.14-.03-.62-.47-1.14-1.08-1.14-.56,0-1.1.53-1.08,1.14.03.62.47,1.14,1.08,1.14"/>
        <path class="cls-4" d="m23.21,45.29c.56,0,1.1-.53,1.08-1.14-.03-.62-.47-1.14-1.08-1.14-.56,0-1.1.53-1.08,1.14.03.62.47,1.14,1.08,1.14"/>
        <path class="cls-4" d="m77.3,21.86c.56,0,1.1-.53,1.08-1.14-.03-.62-.47-1.14-1.08-1.14-.56,0-1.1.53-1.08,1.14.03.62.47,1.14,1.08,1.14"/>
        <path class="cls-4" d="m77.3,88.39c.56,0,1.1-.53,1.08-1.14-.03-.62-.47-1.14-1.08-1.14-.56,0-1.1.53-1.08,1.14.03.62.47,1.14,1.08,1.14"/>
        <path class="cls-4" d="m23.21,65.23c.56,0,1.1-.53,1.08-1.14-.03-.62-.47-1.14-1.08-1.14-.56,0-1.1.53-1.08,1.14.03.62.47,1.14,1.08,1.14"/>
        <path class="cls-4" d="m23.21,88.39c.56,0,1.1-.53,1.08-1.14-.03-.62-.47-1.14-1.08-1.14-.56,0-1.1.53-1.08,1.14.03.62.47,1.14,1.08,1.14"/>
        <path class="cls-4" d="m77.3,65.23c.56,0,1.1-.53,1.08-1.14-.03-.62-.47-1.14-1.08-1.14-.56,0-1.1.53-1.08,1.14.03.62.47,1.14,1.08,1.14"/>
        <path class="cls-4" d="m16.25,101.29v10.18c0,.62.49,1.14,1.08,1.14h3.87c.51,0,.94.02,1.35-.39.24-.24.47-.5.7-.74,2.17-2.3,4.34-4.6,6.51-6.9.65-.69,1.3-1.37,1.94-2.06.41-.44.41-1.18,0-1.62-.41-.44-1.11-.44-1.53,0-1.04,1.1-2.07,2.19-3.11,3.29l-4.96,5.25c-.38.41-.76.81-1.15,1.22.25-.11.51-.22.76-.33h-4.41l1.08,1.14v-10.18c0-.6-.5-1.17-1.08-1.14-.58.03-1.08.5-1.08,1.14"/>
        <path class="cls-4" d="m82.74,101.29v10.18l1.08-1.14h-4.41c.25.11.51.22.76.33-1.04-1.1-2.07-2.19-3.11-3.29-1.65-1.75-3.31-3.5-4.96-5.25-.38-.4-.76-.81-1.15-1.22-.41-.44-1.11-.44-1.53,0-.41.44-.41,1.18,0,1.62,1.65,1.75,3.31,3.5,4.96,5.26,1.07,1.13,2.14,2.26,3.21,3.4.29.31.59.62.88.93.05.06.1.12.16.17.28.27.6.34.96.34h4.22c.58,0,1.08-.52,1.08-1.14v-10.18c0-.6-.5-1.17-1.08-1.14-.58.03-1.08.5-1.08,1.14"/>
      </g>
    </g>
  </g>
</svg>