<?xml version="1.0" encoding="UTF-8"?>
<svg id="Livello_2" data-name="Livello 2" xmlns="http://www.w3.org/2000/svg" xmlns:xlink="http://www.w3.org/1999/xlink" viewBox="0 0 124.88 81.36">
  <defs>
    <style>
      .cls-1, .cls-2, .cls-3 {
        fill: none;
      }

      .cls-2 {
        clip-path: url(#clippath);
      }

      .cls-3 {
        clip-path: url(#clippath-1);
      }

      .cls-4 {
        fill: #1d1d1c;
      }
    </style>
    <clipPath id="clippath">
      <rect class="cls-1" x="0" y="0" width="124.88" height="81.36"/>
    </clipPath>
    <clipPath id="clippath-1">
      <rect class="cls-1" x="0" y="0" width="124.88" height="81.36"/>
    </clipPath>
  </defs>
  <g id="comodino">
    <g class="cls-2">
      <g class="cls-3">
        <path class="cls-4" d="m110.58,72.26h-2.59s-7,0-7,0h-10.37s-12.65,0-12.65,0h-13.81s-14.04,0-14.04,0h-13s-11.02,0-11.02,0h-7.93c-1.24,0-2.5-.05-3.75,0-.05,0-.11,0-.16,0l.87.87v-1.83s0-4.95,0-4.95v-7.35s0-8.97,0-8.97v-9.83s0-9.88,0-9.88v-9.25s0-7.82,0-7.82v-5.6c0-.88.06-1.79,0-2.67,0-.04,0-.08,0-.12l-.87.87h2.59s7,0,7,0h10.37s12.65,0,12.65,0h13.81s14.04,0,14.04,0h13s11.02,0,11.02,0h7.93c1.24,0,2.5.05,3.75,0,.05,0,.11,0,.16,0l-.87-.87v1.83s0,4.95,0,4.95v7.35s0,8.97,0,8.97v9.83s0,9.88,0,9.88v9.25s0,7.82,0,7.82v5.6c0,.89-.02,1.78,0,2.67,0,.04,0,.08,0,.12,0,1.12,1.74,1.12,1.74,0v-1.83s0-4.95,0-4.95v-7.35s0-8.97,0-8.97v-9.83s0-9.88,0-9.88v-9.25s0-7.82,0-7.82v-5.6c0-.89.02-1.78,0-2.67,0-.04,0-.08,0-.12,0-.47-.4-.87-.87-.87h-2.59s-7,0-7,0h-10.37s-12.65,0-12.65,0h-13.81s-14.04,0-14.04,0h-13s-11.02,0-11.02,0h-7.93c-1.25,0-2.5-.02-3.75,0-.05,0-.11,0-.16,0-.47,0-.87.4-.87.87v1.83s0,4.95,0,4.95v7.35s0,8.97,0,8.97v9.83s0,9.88,0,9.88v9.25s0,7.82,0,7.82v5.6c0,.89-.02,1.78,0,2.67,0,.04,0,.08,0,.12,0,.47.4.87.87.87h2.59s7,0,7,0h10.37s12.65,0,12.65,0h13.81s14.04,0,14.04,0h13s11.02,0,11.02,0h7.93c1.25,0,2.5.02,3.75,0,.05,0,.11,0,.16,0,1.12,0,1.12-1.74,0-1.74"/>
        <path class="cls-4" d="m96.28,62.13h-1.82s-4.92,0-4.92,0h-7.29s-8.9,0-8.9,0h-9.71s-9.87,0-9.87,0h-9.14s-7.75,0-7.75,0h-5.57c-.88,0-1.76-.03-2.63,0-.04,0-.08,0-.12,0l.87.87v-1.29s0-3.48,0-3.48v-5.17s0-6.31,0-6.31v-6.91s0-6.94,0-6.94v-6.51s0-5.5,0-5.5v-3.94c0-.62.03-1.26,0-1.88,0-.03,0-.05,0-.08l-.87.87h1.82s4.92,0,4.92,0h7.29s8.9,0,8.9,0h9.71s9.87,0,9.87,0h9.14s7.75,0,7.75,0h5.57c.88,0,1.76.03,2.63,0,.04,0,.08,0,.12,0l-.87-.87v1.29s0,3.48,0,3.48v5.17s0,6.31,0,6.31v6.91s0,6.94,0,6.94v6.51s0,5.5,0,5.5v3.94c0,.63-.01,1.25,0,1.88,0,.03,0,.05,0,.08,0,1.12,1.74,1.12,1.74,0v-1.29s0-3.48,0-3.48v-5.17s0-6.31,0-6.31v-6.91s0-6.94,0-6.94v-6.51s0-5.5,0-5.5v-3.94c0-.63.01-1.25,0-1.88,0-.03,0-.05,0-.08,0-.47-.4-.87-.87-.87h-1.82s-4.92,0-4.92,0h-7.29s-8.9,0-8.9,0h-9.71s-9.87,0-9.87,0h-9.14s-7.75,0-7.75,0h-5.57c-.88,0-1.76-.01-2.63,0-.04,0-.08,0-.12,0-.47,0-.87.4-.87.87v1.29s0,3.48,0,3.48v5.17s0,6.31,0,6.31v6.91s0,6.94,0,6.94v6.51s0,5.5,0,5.5v3.94c0,.63-.01,1.25,0,1.88,0,.03,0,.05,0,.08,0,.47.4.87.87.87h1.82s4.92,0,4.92,0h7.29s8.9,0,8.9,0h9.71s9.87,0,9.87,0h9.14s7.75,0,7.75,0h5.57c.88,0,1.76.01,2.63,0,.04,0,.08,0,.12,0,1.12,0,1.12-1.74,0-1.74"/>
        <path class="cls-4" d="m1.74,3.72c0-.53-.07-1.11,0-1.63.03-.21.07-.3.29-.34.11-.02.24,0,.36,0h1.94s8.23,0,8.23,0h12.82s15.92,0,15.92,0h17.68s17.9,0,17.9,0h16.8s14.19,0,14.19,0h10.15c1.55,0,3.11-.05,4.66,0,.22,0,.35.01.43.28.06.22,0,.55,0,.78,0,.27.07.64,0,.9-.05.19-.1.25-.3.28-.36.07-.79,0-1.15,0h-6.87s-11.83,0-11.83,0h-15.34s-17.4,0-17.4,0h-18.02s-17.15,0-17.15,0h-14.91s-11.27,0-11.27,0H2.72c-.27,0-.95.12-.98-.27-.08-1.11-1.82-1.12-1.74,0,.09,1.17.9,1.97,2.08,2.01.16,0,.32,0,.48,0h2.21s8.79,0,8.79,0h13.43s16.47,0,16.47,0h18.04s18.12,0,18.12,0h16.74s13.79,0,13.79,0h9.31s2.52,0,2.52,0c.41,0,.85.04,1.25-.04,1.77-.36,1.73-2.41,1.6-3.83-.1-1.1-1.01-1.81-2.08-1.84-.46-.01-.93,0-1.39,0h-7.48s-12.41,0-12.41,0h-15.91s-17.8,0-17.8,0h-18.24s-17.17,0-17.17,0h-14.65s-10.56,0-10.56,0c-1.65,0-3.29-.02-4.94,0-.2,0-.38,0-.59.04C-.2.44,0,2.3,0,3.72c0,1.12,1.74,1.12,1.74,0"/>
        <path class="cls-4" d="m96.28,63.86c.45,0,.89-.4.87-.87-.02-.47-.38-.87-.87-.87-.45,0-.89.4-.87.87.02.47.38.87.87.87"/>
        <path class="cls-4" d="m28.56,15.86c.45,0,.89-.4.87-.87-.02-.47-.38-.87-.87-.87-.45,0-.89.4-.87.87.02.47.38.87.87.87"/>
        <path class="cls-4" d="m28.56,63.86c.45,0,.89-.4.87-.87-.02-.47-.38-.87-.87-.87-.45,0-.89.4-.87.87.02.47.38.87.87.87"/>
        <path class="cls-4" d="m96.28,15.86c.45,0,.89-.4.87-.87-.02-.47-.38-.87-.87-.87-.45,0-.89.4-.87.87.02.47.38.87.87.87"/>
        <path class="cls-4" d="m48.67,26.69v-.78c0-.12.02-.27,0-.39,0-.03-.03-.07,0-.01,0,.01,0,.02,0,.04.03-.1.02-.1-.01,0,.01-.02.02-.04.04-.06-.06.08-.06.08,0,0-.02.02-.04.03-.06.05.02-.01.04-.02.06-.04-.02.01-.05.02-.07.03.09-.02.1-.02.04,0-.01,0-.05,0-.03,0,0,0,.02,0,.03,0,.04,0,.09,0,.13,0h1.53s6.46,0,6.46,0h8.55s7.48,0,7.48,0c1.14,0,2.28,0,3.42,0h0c-.2,0,0-.04,0,0l-.03-.02c-.06-.03-.05-.02.03.02-.02-.02-.04-.03-.06-.05.02.02.03.03.05.05-.02-.02-.03-.04-.05-.06.04.08.05.09.02.03-.05-.07-.01.15-.01-.03,0,.27,0,.54,0,.8,0,.11-.03.27,0,.37.03.09-.06-.02.02-.03,0,.02-.01.05-.02.07.01-.02.02-.05.03-.07-.05.08-.05.09,0,0-.02.02-.03.03-.05.05.02-.02.04-.03.06-.05-.08.04-.09.05-.03.02.08-.05-.15-.01.03-.01h0s-.02,0-.03,0c-.38,0-.76,0-1.14,0h-6.04s-8.41,0-8.41,0h-7.82c-1.35,0-2.72-.05-4.07,0-.03,0-.06,0-.09,0-.06,0,.15.03.03,0-.01,0-.02,0-.04,0,.09.04.09.04,0,0,0,0,.02.02.03.02.05.04.04.03-.02-.03.02.02.03.04.05.06-.01-.02-.02-.04-.04-.06.01.02.02.05.03.07-.02-.1-.02-.1,0,0-.02-.45-.38-.89-.87-.87-.45.02-.89.38-.87.87.05.96.76,1.67,1.73,1.69.14,0,.28,0,.42,0h2.02s7.31,0,7.31,0h8.81s6.99,0,6.99,0h1.77c.09,0,.17,0,.26,0,.64-.02,1.23-.36,1.51-.95.18-.38.18-.77.18-1.18,0-.28.02-.58,0-.86-.06-.74-.55-1.39-1.3-1.56-.2-.05-.39-.05-.59-.05h-1.66s-6.89,0-6.89,0h-8.81s-7.39,0-7.39,0h-2.13c-.16,0-.32,0-.47,0-.66,0-1.29.33-1.58.95-.28.58-.18,1.33-.18,1.96,0,.45.4.89.87.87.47-.02.87-.38.87-.87"/>
        <path class="cls-4" d="m48.46,26.64c-.17,0-.35-.01-.52-.03.08.01.15.02.23.03-.29-.04-.56-.11-.83-.22.07.03.14.06.21.09-.1-.04-.2-.09-.29-.15-.04-.03-.08-.05-.12-.08-.03-.02-.11-.08.02.02.13.1.03.02,0,0-.06-.05-.12-.15-.18-.19,0,0,.13.19.08.1-.01-.02-.03-.04-.04-.07-.02-.04-.04-.08-.06-.12.03.07.06.14.09.21-.03-.08-.06-.17-.07-.25.01.08.02.15.03.23,0-.08,0-.16,0-.23-.01.08-.02.15-.03.23.01-.09.04-.17.07-.25-.03.07-.06.14-.09.21.02-.04.03-.07.05-.11.02-.04.13-.18.02-.04-.11.14,0,0,.03-.02.03-.04.07-.07.11-.1.01,0,.05-.03.05-.04,0,0-.18.13-.09.07.04-.03.08-.05.12-.08.1-.06.2-.11.31-.16-.07.03-.14.06-.21.09.27-.11.54-.18.83-.22-.08.01-.15.02-.23.03.17-.02.34-.03.52-.03.45,0,.89-.4.87-.87-.02-.47-.38-.87-.87-.87-1.08,0-2.38.38-2.96,1.38-.29.5-.32,1.09-.1,1.62.21.49.62.88,1.09,1.13.6.32,1.28.46,1.96.46.45,0,.89-.4.87-.87-.02-.47-.38-.86-.87-.87"/>
        <path class="cls-4" d="m76.39,28.37c1.08,0,2.38-.38,2.96-1.38.29-.5.32-1.09.1-1.62-.21-.49-.62-.88-1.09-1.13-.6-.32-1.28-.46-1.96-.46-.45,0-.89.4-.87.87.02.47.38.86.87.87.17,0,.35.01.52.03-.08-.01-.15-.02-.23-.03.29.04.56.11.83.22-.07-.03-.14-.06-.21-.09.1.04.2.09.29.15.04.03.08.05.12.08.03.02.11.08-.02-.02-.13-.1-.03-.02,0,0,.06.05.12.15.18.19,0,0-.13-.19-.08-.1.01.02.03.04.04.07.02.04.04.08.06.12l-.09-.21c.03.08.06.17.07.25-.01-.08-.02-.15-.03-.23,0,.08,0,.16,0,.23.01-.08.02-.15.03-.23-.01.09-.04.17-.07.25l.09-.21s-.03.07-.05.11c-.02.04-.13.18-.02.04.11-.14,0,0-.03.02-.03.04-.07.07-.11.1-.01,0-.05.03-.05.04,0,0,.18-.13.09-.07-.04.03-.08.05-.12.08-.1.06-.2.11-.31.16.07-.03.14-.06.21-.09-.27.11-.54.18-.83.22.08-.01.15-.02.23-.03-.17.02-.34.03-.52.03-.45,0-.89.4-.87.87.02.47.38.87.87.87"/>
        <path class="cls-4" d="m48.67,51.08v-.78c0-.12.02-.27,0-.39,0-.03-.03-.07,0-.01,0,.01,0,.02,0,.04.03-.1.02-.1-.01,0,.01-.02.02-.04.04-.06-.06.08-.06.08,0,0l-.06.05s.04-.02.06-.04c-.02.01-.05.02-.07.03.09-.02.1-.02.04,0-.01,0-.05,0-.03,0,0,0,.02,0,.03,0,.04,0,.09,0,.13,0h1.53s6.46,0,6.46,0h8.55s7.48,0,7.48,0c1.14,0,2.28,0,3.42,0h0c-.2,0,0-.04,0,0l-.03-.02c-.06-.03-.05-.02.03.02-.02-.02-.04-.03-.06-.05.02.02.03.03.05.05-.02-.02-.03-.04-.05-.06.04.08.05.09.02.03-.05-.07-.01.15-.01-.03,0,.27,0,.54,0,.8,0,.11-.03.27,0,.37.03.09-.06-.02.02-.03,0,.02-.01.05-.02.07.01-.02.02-.05.03-.07-.05.08-.05.09,0,0-.02.02-.03.03-.05.05.02-.02.04-.03.06-.05-.08.04-.09.05-.03.02.08-.05-.15-.01.03-.01h0s-.02,0-.03,0c-.38,0-.76,0-1.14,0h-6.04s-8.41,0-8.41,0h-7.82c-1.35,0-2.72-.05-4.07,0-.03,0-.06,0-.09,0-.06,0,.15.03.03,0-.01,0-.02,0-.04,0,.09.04.09.04,0,0,0,0,.02.02.03.02.05.04.04.03-.02-.03.02.02.03.04.05.06-.01-.02-.02-.04-.04-.06.01.02.02.05.03.07-.02-.1-.02-.1,0,0-.02-.45-.38-.89-.87-.87-.45.02-.89.38-.87.87.05.96.76,1.67,1.73,1.69.14,0,.28,0,.42,0h2.02s7.31,0,7.31,0h8.81s6.99,0,6.99,0h1.77c.09,0,.17,0,.26,0,.64-.02,1.23-.36,1.51-.95.18-.38.18-.77.18-1.18,0-.28.02-.58,0-.86-.06-.74-.55-1.39-1.3-1.56-.2-.05-.39-.05-.59-.05h-1.66s-6.89,0-6.89,0h-8.81s-7.39,0-7.39,0h-2.13c-.16,0-.32,0-.47,0-.66,0-1.29.33-1.58.95-.28.58-.18,1.33-.18,1.96,0,.45.4.89.87.87.47-.02.87-.38.87-.87"/>
        <path class="cls-4" d="m48.46,51.03c-.17,0-.35-.01-.52-.03.08.01.15.02.23.03-.29-.04-.56-.11-.83-.22l.21.09c-.1-.04-.2-.09-.29-.15-.04-.03-.08-.05-.12-.08-.03-.02-.11-.08.02.02.13.1.03.02,0,0-.06-.05-.12-.15-.18-.19,0,0,.13.19.08.1-.01-.02-.03-.04-.04-.07-.02-.04-.04-.08-.06-.12.03.07.06.14.09.21-.03-.08-.06-.17-.07-.25.01.08.02.15.03.23,0-.08,0-.16,0-.23-.01.08-.02.15-.03.23.01-.09.04-.17.07-.25-.03.07-.06.14-.09.21.02-.04.03-.07.05-.11.02-.04.13-.18.02-.04-.11.14,0,0,.03-.02.03-.04.07-.07.11-.1.01,0,.05-.03.05-.04,0,0-.18.13-.09.07.04-.03.08-.05.12-.08.1-.06.2-.11.31-.16-.07.03-.14.06-.21.09.27-.11.54-.18.83-.22-.08.01-.15.02-.23.03.17-.02.34-.03.52-.03.45,0,.89-.4.87-.87-.02-.47-.38-.87-.87-.87-1.08,0-2.38.38-2.96,1.38-.29.5-.32,1.09-.1,1.62.21.49.62.88,1.09,1.13.6.32,1.28.46,1.96.46.45,0,.89-.4.87-.87-.02-.47-.38-.86-.87-.87"/>
        <path class="cls-4" d="m76.39,52.76c1.08,0,2.38-.38,2.96-1.38.29-.5.32-1.09.1-1.62-.21-.49-.62-.88-1.09-1.13-.6-.32-1.28-.46-1.96-.46-.45,0-.89.4-.87.87.02.47.38.86.87.87.17,0,.35.01.52.03-.08-.01-.15-.02-.23-.03.29.04.56.11.83.22-.07-.03-.14-.06-.21-.09.1.04.2.09.29.15.04.03.08.05.12.08.03.02.11.08-.02-.02-.13-.1-.03-.02,0,0,.06.05.12.15.18.19,0,0-.13-.19-.08-.1.01.02.03.04.04.07.02.04.04.08.06.12l-.09-.21c.03.08.06.17.07.25-.01-.08-.02-.15-.03-.23,0,.08,0,.16,0,.23.01-.08.02-.15.03-.23-.01.09-.04.17-.07.25l.09-.21s-.03.07-.05.11c-.02.04-.13.18-.02.04.11-.14,0,0-.03.02-.03.04-.07.07-.11.1-.01,0-.05.03-.05.04,0,0,.18-.13.09-.07-.04.03-.08.05-.12.08-.1.06-.2.11-.31.16.07-.03.14-.06.21-.09-.27.11-.54.18-.83.22.08-.01.15-.02.23-.03-.17.02-.34.03-.52.03-.45,0-.89.4-.87.87.02.47.38.87.87.87"/>
        <path class="cls-4" d="m96.28,32.76c.45,0,.89-.4.87-.87-.02-.47-.38-.87-.87-.87-.45,0-.89.4-.87.87.02.47.38.87.87.87"/>
        <path class="cls-4" d="m28.56,15.86c.45,0,.89-.4.87-.87-.02-.47-.38-.87-.87-.87-.45,0-.89.4-.87.87.02.47.38.87.87.87"/>
        <path class="cls-4" d="m28.56,32.76c.45,0,.89-.4.87-.87-.02-.47-.38-.87-.87-.87-.45,0-.89.4-.87.87.02.47.38.87.87.87"/>
        <path class="cls-4" d="m96.28,15.86c.45,0,.89-.4.87-.87-.02-.47-.38-.87-.87-.87-.45,0-.89.4-.87.87.02.47.38.87.87.87"/>
        <path class="cls-4" d="m96.28,63.86c.45,0,.89-.4.87-.87-.02-.47-.38-.87-.87-.87-.45,0-.89.4-.87.87.02.47.38.87.87.87"/>
        <path class="cls-4" d="m28.56,47.15c.45,0,.89-.4.87-.87-.02-.47-.38-.87-.87-.87-.45,0-.89.4-.87.87.02.47.38.87.87.87"/>
        <path class="cls-4" d="m28.56,63.86c.45,0,.89-.4.87-.87-.02-.47-.38-.87-.87-.87-.45,0-.89.4-.87.87.02.47.38.87.87.87"/>
        <path class="cls-4" d="m96.28,47.15c.45,0,.89-.4.87-.87-.02-.47-.38-.87-.87-.87-.45,0-.89.4-.87.87.02.47.38.87.87.87"/>
        <path class="cls-4" d="m20.33,73.13v6.44s0,.91,0,.91c0,.47.4.87.87.87h4.14s1.03,0,1.03,0c.28,0,.53.02.79-.12.2-.11.39-.24.59-.36l8.3-5.07c.88-.54,1.76-1.08,2.65-1.62.4-.24.55-.78.31-1.19-.23-.4-.79-.56-1.19-.31-1.3.79-2.6,1.59-3.9,2.38-2.07,1.26-4.14,2.53-6.21,3.79-.47.29-.95.58-1.42.87.15-.04.29-.08.44-.12h-4.82s-.7,0-.7,0l.87.87v-6.44s0-.91,0-.91c0-.45-.4-.89-.87-.87-.47.02-.87.38-.87.87"/>
        <path class="cls-4" d="m103.58,73.13v6.44s0,.91,0,.91l.87-.87h-4.82s-.7,0-.7,0c.15.04.29.08.44.12-1.3-.79-2.6-1.59-3.9-2.38-2.07-1.26-4.14-2.53-6.21-3.79-.47-.29-.95-.58-1.42-.87-.4-.24-.95-.09-1.19.31-.24.41-.09.94.31,1.19,2.23,1.36,4.45,2.72,6.68,4.08,1.32.81,2.64,1.61,3.96,2.42.29.17.57.36.86.53.37.21.88.14,1.29.14h4.7c.47,0,.87-.4.87-.87v-6.44s0-.91,0-.91c0-.45-.4-.89-.87-.87-.47.02-.87.38-.87.87"/>
        <path class="cls-4" d="m28.56,39.86h1.81s4.89,0,4.89,0h7.25s8.85,0,8.85,0h9.66s9.81,0,9.81,0h9.09s7.71,0,7.71,0h5.54c.87,0,1.75.01,2.62,0,.04,0,.08,0,.11,0,1.12,0,1.12-1.74,0-1.74h-1.81s-4.89,0-4.89,0h-7.25s-8.85,0-8.85,0h-9.66s-9.81,0-9.81,0h-9.09s-7.71,0-7.71,0h-5.54c-.87,0-1.75-.01-2.62,0-.04,0-.08,0-.11,0-1.12,0-1.12,1.74,0,1.74"/>
      </g>
    </g>
  </g>
</svg>