<?xml version="1.0" encoding="UTF-8"?>
<svg id="Livello_2" data-name="Livello 2" xmlns="http://www.w3.org/2000/svg" xmlns:xlink="http://www.w3.org/1999/xlink" viewBox="0 0 144.64 54.4">
  <defs>
    <style>
      .cls-1, .cls-2, .cls-3 {
        fill: none;
      }

      .cls-2 {
        clip-path: url(#clippath);
      }

      .cls-3 {
        clip-path: url(#clippath-1);
      }

      .cls-4 {
        fill: #1d1d1c;
      }
    </style>
    <clipPath id="clippath">
      <rect class="cls-1" width="144.64" height="54.4"/>
    </clipPath>
    <clipPath id="clippath-1">
      <rect class="cls-1" width="144.64" height="54.4"/>
    </clipPath>
  </defs>
  <g id="credenza">
    <g class="cls-2">
      <g class="cls-3">
        <path class="cls-4" d="m143.7,45.25H6.74c-1.84,0-3.71-.1-5.55,0-.08,0-.16,0-.24,0l.94.94V.96l-.94.94h136.96c1.84,0,3.71.1,5.55,0,.08,0,.16,0,.24,0l-.94-.94v45.23c0,1.21,1.89,1.22,1.89,0V.96c0-.51-.43-.94-.94-.94H6.74C4.89.02,3.04-.02,1.19.02c-.08,0-.16,0-.24,0C.43.02,0,.45,0,.96v45.23c0,.51.43.94.94.94h136.96c1.85,0,3.7.03,5.55,0,.08,0,.16,0,.24,0,1.21,0,1.22-1.89,0-1.89"/>
        <path class="cls-4" d="m143.7,47.13c.49,0,.97-.43.94-.94-.02-.51-.41-.94-.94-.94-.49,0-.97.43-.94.94.02.51.41.94.94.94"/>
        <path class="cls-4" d="m73.27,46.19V2.79c0-.59.01-1.17,0-1.76,0-.03,0-.05,0-.08,0-.49-.43-.97-.94-.94-.51.02-.94.41-.94.94v43.4c0,.59-.01,1.17,0,1.76,0,.03,0,.05,0,.08,0,.49.43.97.94.94.51-.02.94-.41.94-.94"/>
        <path class="cls-4" d="m143.7,1.9c.49,0,.97-.43.94-.94-.02-.51-.41-.94-.94-.94-.49,0-.97.43-.94.94.02.51.41.94.94.94"/>
        <path class="cls-4" d="m72.32,47.13c.49,0,.97-.43.94-.94-.02-.51-.41-.94-.94-.94-.49,0-.97.43-.94.94.02.51.41.94.94.94"/>
        <path class="cls-4" d="m.94,1.9c.49,0,.97-.43.94-.94C1.86.45,1.47.02.94.02.45.02-.02.45,0,.96c.02.51.41.94.94.94"/>
        <path class="cls-4" d="m.94,47.13c.49,0,.97-.43.94-.94-.02-.51-.41-.94-.94-.94-.49,0-.97.43-.94.94.02.51.41.94.94.94"/>
        <path class="cls-4" d="m72.32,1.9c.49,0,.97-.43.94-.94-.02-.51-.41-.94-.94-.94-.49,0-.97.43-.94.94.02.51.41.94.94.94"/>
        <path class="cls-4" d="m72.32,47.13c.49,0,.97-.43.94-.94-.02-.51-.41-.94-.94-.94-.49,0-.97.43-.94.94.02.51.41.94.94.94"/>
        <path class="cls-4" d="m108.01,22.63H.94c-1.21,0-1.22,1.89,0,1.89h107.07c1.21,0,1.22-1.89,0-1.89"/>
        <path class="cls-4" d="m107.07.96v43.4c0,.59-.01,1.17,0,1.76,0,.03,0,.05,0,.08,0,.49.43.97.94.94.51-.02.94-.41.94-.94V2.79c0-.59.01-1.17,0-1.76,0-.03,0-.05,0-.08,0-.49-.43-.97-.94-.94-.51.02-.94.41-.94.94"/>
        <path class="cls-4" d="m72.32,1.9c.49,0,.97-.43.94-.94-.02-.51-.41-.94-.94-.94-.49,0-.97.43-.94.94.02.51.41.94.94.94"/>
        <path class="cls-4" d="m36.63,13.21h71.38c1.21,0,1.22-1.89,0-1.89H36.63c-1.21,0-1.22,1.89,0,1.89"/>
        <path class="cls-4" d="m108.01,33.94H36.63c-1.21,0-1.22,1.89,0,1.89h71.38c1.21,0,1.22-1.89,0-1.89"/>
        <path class="cls-4" d="m.94,47.13c.49,0,.97-.43.94-.94-.02-.51-.41-.94-.94-.94-.49,0-.97.43-.94.94.02.51.41.94.94.94"/>
        <path class="cls-4" d="m37.58,46.19V2.79c0-.59.01-1.17,0-1.76,0-.03,0-.05,0-.08,0-.49-.43-.97-.94-.94-.51.02-.94.41-.94.94v43.4c0,.59-.01,1.17,0,1.76,0,.03,0,.05,0,.08,0,.49.43.97.94.94.51-.02.94-.41.94-.94"/>
        <path class="cls-4" d="m.94,1.9c.49,0,.97-.43.94-.94C1.86.45,1.47.02.94.02.45.02-.02.45,0,.96c.02.51.41.94.94.94"/>
        <path class="cls-4" d="m28.5,10.33v7.47c0,.49.43.97.94.94.51-.02.94-.41.94-.94v-7.47c0-.49-.43-.97-.94-.94-.51.02-.94.41-.94.94"/>
        <path class="cls-4" d="m114.12,10.33v7.47c0,.49.43.97.94.94.51-.02.94-.41.94-.94v-7.47c0-.49-.43-.97-.94-.94-.51.02-.94.41-.94.94"/>
        <path class="cls-4" d="m114.12,33.08v7.47c0,.49.43.97.94.94.51-.02.94-.41.94-.94v-7.47c0-.49-.43-.97-.94-.94-.51.02-.94.41-.94.94"/>
        <path class="cls-4" d="m28.5,33.08v7.47c0,.49.43.97.94.94.51-.02.94-.41.94-.94v-7.47c0-.49-.43-.97-.94-.94-.51.02-.94.41-.94.94"/>
        <path class="cls-4" d="m108.01,24.52h31.29c1.45,0,2.9.04,4.34,0,.02,0,.04,0,.06,0,.49,0,.97-.43.94-.94-.02-.51-.41-.94-.94-.94h-31.29c-1.45,0-2.9-.04-4.34,0-.02,0-.04,0-.06,0-.49,0-.97.43-.94.94.02.51.41.94.94.94"/>
        <path class="cls-4" d="m28.78,45.52c-2.1,2.1-4.2,4.2-6.31,6.31-.29.29-.58.58-.88.88.22-.09.44-.18.67-.28h-4.16l.94.94v-7.18c0-.49-.43-.97-.94-.94-.51.02-.94.41-.94.94v7.18c0,.51.43.94.94.94h3.13c.42,0,1,.09,1.4-.08.26-.11.45-.34.64-.54,1.72-1.72,3.45-3.45,5.17-5.17.56-.56,1.11-1.11,1.67-1.67.36-.36.36-.97,0-1.33-.36-.36-.97-.36-1.33,0"/>
        <path class="cls-4" d="m114.4,46.94c1.4,1.4,2.79,2.79,4.19,4.19.82.82,1.64,1.64,2.46,2.46.17.17.34.35.51.51.38.35.82.29,1.29.29h3.56c.51,0,.94-.43.94-.94v-7.18c0-.49-.43-.97-.94-.94-.51.02-.94.41-.94.94v7.18l.94-.94h-4.16l.67.28c-2.1-2.1-4.2-4.2-6.31-6.31-.29-.29-.58-.58-.88-.88-.36-.36-.97-.36-1.33,0-.36.36-.36.97,0,1.33"/>
      </g>
    </g>
  </g>
</svg>