<svg width="1080" height="1080" viewBox="0 0 1080 1080" fill="none" xmlns="http://www.w3.org/2000/svg">
<g clip-path="url(#clip0_1_2)">
<mask id="mask0_1_2" style="mask-type:luminance" maskUnits="userSpaceOnUse" x="0" y="0" width="1080" height="1080">
<path d="M1080 0H0V1080H1080V0Z" fill="white"/>
</mask>
<g mask="url(#mask0_1_2)">
<mask id="mask1_1_2" style="mask-type:luminance" maskUnits="userSpaceOnUse" x="0" y="593" width="1080" height="397">
<path d="M0 593.333H1080V989.776H0V593.333Z" fill="white"/>
</mask>
<g mask="url(#mask1_1_2)">
<path d="M720.552 619.172C727.542 619.172 733.208 613.505 733.208 606.521C733.208 599.536 727.542 593.87 720.552 593.87H12.6875C5.69792 593.87 0.03125 599.536 0.03125 606.521V977.01C0.03125 983.995 5.69792 989.661 12.6875 989.661H1067.31C1074.3 989.661 1079.96 983.995 1079.96 977.01V606.521C1079.96 599.536 1074.3 593.87 1067.31 593.87C1060.32 593.87 1054.66 599.536 1054.66 606.521V964.365H25.3438V619.172H720.552Z" fill="black"/>
</g>
<path d="M1054.66 606.359V148.286H733.208V606.521C733.208 613.505 727.542 619.172 720.552 619.172C713.562 619.172 707.896 613.505 707.896 606.521V135.635C707.896 128.651 713.562 122.99 720.552 122.99H1067.31C1074.3 122.99 1079.96 128.651 1079.96 135.635V606.521C1079.96 623.162 1054.65 623.162 1054.65 606.521L1054.66 606.359V606.521C1076.88 584.302 1054.78 596.406 1054.66 606.359Z" fill="black"/>
<mask id="mask2_1_2" style="mask-type:luminance" maskUnits="userSpaceOnUse" x="362" y="593" width="28" height="397">
<path d="M362.667 593.333H389.333V989.776H362.667V593.333Z" fill="white"/>
</mask>
<g mask="url(#mask2_1_2)">
<path d="M388.839 606.521C388.839 599.536 383.172 593.87 376.182 593.87C369.198 593.87 363.526 599.536 363.526 606.521V977.01C363.526 983.995 369.198 989.661 376.182 989.661C383.172 989.661 388.839 983.995 388.839 977.01V606.521Z" fill="black"/>
</g>
<mask id="mask3_1_2" style="mask-type:luminance" maskUnits="userSpaceOnUse" x="706" y="593" width="28" height="397">
<path d="M706.667 593.333H733.333V989.776H706.667V593.333Z" fill="white"/>
</mask>
<g mask="url(#mask3_1_2)">
<path d="M733.208 606.521C733.208 599.536 727.542 593.87 720.552 593.87C713.563 593.87 707.896 599.536 707.896 606.521V977.01C707.896 983.995 713.563 989.661 720.552 989.661C727.542 989.661 733.208 983.995 733.208 977.01V606.521Z" fill="black"/>
</g>
<path d="M435.75 934.927H659.193C660.984 934.927 662.625 934.182 663.818 932.99C665.01 931.797 665.755 930.156 665.755 928.37V779.474C665.755 777.688 665.01 776.047 663.818 774.854C662.625 773.661 660.984 772.917 659.193 772.917H435.75C433.958 772.917 432.318 773.661 431.125 774.854C429.932 776.047 429.188 777.688 429.188 779.474V928.37C429.188 930.156 429.932 931.797 431.125 932.99C432.318 934.182 433.958 934.927 435.75 934.927ZM659.193 960.224H435.75C426.969 960.224 418.995 956.641 413.229 950.88C407.458 945.115 403.875 937.146 403.875 928.37V779.474C403.875 770.703 407.458 762.729 413.229 756.964C418.995 751.203 426.969 747.62 435.75 747.62H659.193C667.974 747.62 675.948 751.203 681.714 756.964C687.479 762.729 691.068 770.703 691.068 779.474V928.37C691.068 937.146 687.479 945.115 681.714 950.88C675.948 956.641 667.974 960.224 659.193 960.224Z" fill="black"/>
<path d="M455.229 629.75C464.214 629.75 472.396 633.417 478.349 639.344L478.38 639.375L478.401 639.349C478.698 639.641 478.974 639.948 479.234 640.266C484.672 646.13 488 653.953 488 662.51C488 671.552 484.328 679.745 478.401 685.672C472.474 691.599 464.276 695.266 455.229 695.266C446.214 695.266 438.031 691.599 432.099 685.672L441 676.729L432.052 685.677C431.771 685.396 431.505 685.099 431.255 684.797C425.797 678.948 422.453 671.109 422.453 662.51C422.453 653.464 426.12 645.271 432.052 639.349C437.979 633.422 446.177 629.75 455.229 629.75ZM469.453 648.292L460.505 657.182C459.188 655.87 457.318 655.047 455.229 655.047C453.167 655.047 451.297 655.885 449.948 657.234C448.599 658.583 447.766 660.448 447.766 662.51C447.766 664.391 448.443 666.104 449.557 667.411L449.948 667.781L449.922 667.807C451.271 669.141 453.151 669.969 455.229 669.969C457.286 669.969 459.156 669.13 460.505 667.786C461.854 666.438 462.693 664.568 462.693 662.51C462.693 660.625 462.026 658.922 460.927 657.641L460.5 657.234L469.453 648.292Z" fill="black"/>
<path d="M627.885 634.505C635.62 634.505 642.625 637.641 647.698 642.708C652.766 647.776 655.901 654.781 655.901 662.51C655.901 670.24 652.766 677.245 647.698 682.307C642.625 687.375 635.62 690.51 627.885 690.51C620.151 690.51 613.146 687.375 608.078 682.307C603.005 677.245 599.87 670.24 599.87 662.51C599.87 654.781 603.005 647.776 608.078 642.708C613.146 637.641 620.151 634.505 627.885 634.505ZM629.797 660.599C629.313 660.109 628.635 659.802 627.885 659.802C627.141 659.802 626.458 660.109 625.974 660.599C625.484 661.083 625.182 661.766 625.182 662.51C625.182 663.255 625.484 663.937 625.974 664.422C626.458 664.906 627.141 665.214 627.885 665.214C628.635 665.214 629.313 664.906 629.797 664.422C630.287 663.937 630.594 663.255 630.594 662.51C630.594 661.766 630.287 661.083 629.797 660.599Z" fill="black"/>
<path d="M376.182 698.969C369.198 698.969 363.526 704.635 363.526 711.62C363.526 718.604 369.198 724.266 376.182 724.266H720.552C727.542 724.266 733.208 718.604 733.208 711.62C733.208 704.635 727.542 698.969 720.552 698.969H376.182Z" fill="black"/>
<path d="M520.047 623.641H562.234C569.219 623.641 574.891 629.307 574.891 636.292V678.453C574.891 685.438 569.219 691.104 562.234 691.104H520.047C513.063 691.104 507.391 685.438 507.391 678.453V636.292C507.391 629.307 513.063 623.641 520.047 623.641ZM549.578 648.938H532.703V665.802H549.578V648.938Z" fill="black"/>
<path d="M12.6875 712.141C5.69792 712.141 0.03125 717.807 0.03125 724.792C0.03125 731.776 5.69792 737.443 12.6875 737.443H376.182C383.172 737.443 388.839 731.776 388.839 724.792C388.839 717.807 383.172 712.141 376.182 712.141H12.6875Z" fill="black"/>
<mask id="mask4_1_2" style="mask-type:luminance" maskUnits="userSpaceOnUse" x="177" y="712" width="27" height="278">
<path d="M177.333 712H204V989.776H177.333V712Z" fill="white"/>
</mask>
<g mask="url(#mask4_1_2)">
<path d="M177.562 977.01C177.562 983.995 183.229 989.661 190.219 989.661C197.203 989.661 202.875 983.995 202.875 977.01V724.792C202.875 717.807 197.203 712.146 190.219 712.146C183.229 712.146 177.562 717.807 177.562 724.792V977.01Z" fill="black"/>
</g>
<path d="M131.432 481.844C131.432 488.828 137.099 494.495 144.089 494.495C151.078 494.495 156.745 488.828 156.745 481.844C156.745 462.021 167.312 449.417 180.839 443.984C186.359 441.771 192.349 440.656 198.323 440.656V440.703C204.385 440.703 210.375 441.802 215.812 443.984C229.333 449.417 239.901 462.016 239.901 481.844V607.38C239.901 614.365 245.568 620.026 252.557 620.026C259.547 620.026 265.214 614.365 265.214 607.38V481.844C265.214 450.036 247.661 429.583 225.203 420.563C216.656 417.13 207.453 415.406 198.323 415.406V415.458C189.125 415.458 179.917 417.161 171.443 420.563C148.984 429.583 131.432 450.042 131.432 481.844Z" fill="black"/>
<path d="M155.182 475.75L184.073 518.245L184.12 518.214C185.599 520.391 186.307 522.87 186.307 525.323V540.458C186.307 547.443 180.641 553.109 173.651 553.109H114.521C107.536 553.109 101.87 547.443 101.87 540.458V524.844C101.87 521.719 103 518.865 104.88 516.656L133.708 474.724L144.089 481.839L133.656 474.677C137.615 468.922 145.495 467.458 151.255 471.417C152.943 472.573 154.26 474.068 155.182 475.75ZM160.104 527.807L144.021 504.151L127.755 527.807H160.104Z" fill="black"/>
<path d="M720.552 358.432C713.562 358.432 707.896 364.094 707.896 371.078C707.896 378.062 713.562 383.729 720.552 383.729H1067.31C1074.3 383.729 1079.96 378.062 1079.96 371.078C1079.96 364.094 1074.3 358.432 1067.31 358.432H720.552Z" fill="black"/>
<path d="M754.828 624.661C747.839 624.661 742.172 630.328 742.172 637.312C742.172 644.297 747.839 649.964 754.828 649.964C768.99 649.964 780.099 633.87 786.578 607.958C791.823 586.984 795.083 558.292 795.083 526.958C795.083 508.609 795.266 496.667 795.453 484.062C795.745 464.797 796.052 444.286 795.906 417.036C795.88 410.083 790.214 404.464 783.25 404.49C776.292 404.516 770.667 410.182 770.698 417.141C770.839 444.089 770.531 464.552 770.245 483.76C770.005 499.75 769.771 515.042 769.771 526.958C769.771 556.323 766.818 582.812 762.063 601.833C758.542 615.917 755.844 624.661 754.828 624.661ZM769.552 341.078C769.792 348.036 775.641 353.474 782.604 353.229C789.563 352.99 795.005 347.141 794.76 340.187C793.531 308.672 791.125 280.26 786.698 259.615C781.089 233.443 771.125 217.339 754.828 217.339C747.839 217.339 742.172 223.005 742.172 229.99C742.172 236.974 747.839 242.641 754.828 242.641C756.531 242.641 759.036 251.099 761.979 264.854C766.115 284.141 768.375 311.062 769.552 341.078Z" fill="black"/>
<path d="M242.802 809.755C242.802 802.771 237.135 797.104 230.146 797.104C223.161 797.104 217.49 802.771 217.49 809.755V873C217.49 879.984 223.161 885.651 230.146 885.651C237.135 885.651 242.802 879.984 242.802 873V809.755Z" fill="black"/>
<path d="M163.708 809.755C163.708 802.771 158.036 797.104 151.052 797.104C144.062 797.104 138.396 802.771 138.396 809.755V873C138.396 879.984 144.062 885.651 151.052 885.651C158.036 885.651 163.708 879.984 163.708 873V809.755Z" fill="black"/>
<path d="M127.323 652.161C120.333 652.161 114.667 657.828 114.667 664.812C114.667 671.797 120.333 677.458 127.323 677.458H277.604C284.594 677.458 290.26 671.797 290.26 664.812C290.26 657.828 284.594 652.161 277.604 652.161H127.323Z" fill="black"/>
<mask id="mask5_1_2" style="mask-type:luminance" maskUnits="userSpaceOnUse" x="341" y="89" width="337" height="311">
<path d="M341.333 89.776H677.333V400H341.333V89.776Z" fill="white"/>
</mask>
<g mask="url(#mask5_1_2)">
<path d="M569.234 102.396C569.234 95.4115 563.568 89.75 556.583 89.75C549.594 89.75 543.927 95.4115 543.927 102.396V226.255C543.927 229.745 545.344 232.911 547.63 235.198L650.703 338.224V374.359H367.536V338.224L470.609 235.198C472.896 232.911 474.318 229.745 474.318 226.255V102.396C474.318 95.4115 468.646 89.75 461.661 89.75C454.672 89.75 449.005 95.4115 449.005 102.396V221.016L345.932 324.042C343.458 326.505 342.229 329.745 342.229 332.984H342.224V387.01C342.224 393.995 347.891 399.661 354.88 399.661H663.359C670.349 399.661 676.016 393.995 676.016 387.01V332.984C676.016 329.745 674.781 326.505 672.307 324.042L569.234 221.016V102.396Z" fill="black"/>
</g>
<path d="M354.88 320.344C347.896 320.344 342.224 326.01 342.224 332.995C342.224 339.979 347.896 345.646 354.88 345.646H663.359C670.349 345.646 676.016 339.979 676.016 332.995C676.016 326.01 670.349 320.344 663.359 320.344H354.88Z" fill="black"/>
</g>
</g>
<defs>
<clipPath id="clip0_1_2">
<rect width="1080" height="1080" fill="white"/>
</clipPath>
</defs>
</svg>
