<?xml version="1.0" encoding="UTF-8"?>
<svg id="Livello_2" data-name="Livello 2" xmlns="http://www.w3.org/2000/svg" xmlns:xlink="http://www.w3.org/1999/xlink" viewBox="0 0 145.92 123.32">
  <defs>
    <style>
      .cls-1, .cls-2, .cls-3 {
        fill: none;
      }

      .cls-2 {
        clip-path: url(#clippath);
      }

      .cls-3 {
        clip-path: url(#clippath-1);
      }

      .cls-4 {
        fill: #1d1d1c;
      }
    </style>
    <clipPath id="clippath">
      <rect class="cls-1" width="145.92" height="123.32"/>
    </clipPath>
    <clipPath id="clippath-1">
      <rect class="cls-1" width="145.92" height="123.32"/>
    </clipPath>
  </defs>
  <g id="cucina">
    <g class="cls-2">
      <g class="cls-3">
        <path class="cls-4" d="m64.38,2.56v25.17c.06-.24.13-.48.19-.71-.87,1.78-1.74,3.55-2.6,5.33-1.38,2.82-2.75,5.63-4.13,8.45-.32.65-.64,1.3-.96,1.96-.46.94.09,2.13,1.22,2.13h28.67c1.11,0,1.72-1.19,1.22-2.13-.94-1.78-1.88-3.55-2.81-5.33-1.49-2.82-2.97-5.63-4.46-8.45-.34-.65-.69-1.3-1.03-1.95.06.24.13.48.19.71V2.56c0-.76-.65-1.41-1.41-1.41h-12.67c-.74,0-1.45.65-1.41,1.41.03.77.62,1.41,1.41,1.41h12.67l-1.41-1.41v23.35c0,.7-.11,1.5.05,2.2.07.31.31.65.45.93.28.53.56,1.06.84,1.6.88,1.66,1.75,3.32,2.63,4.98,1.48,2.8,2.89,5.65,4.44,8.42.03.05.05.1.08.15.41-.71.81-1.42,1.22-2.13h-28.67c.41.71.81,1.42,1.22,2.13,1.19-2.44,2.38-4.88,3.58-7.32,1.35-2.77,2.75-5.53,4.07-8.32.31-.65.24-1.28.24-1.97V10.45c0-2.59.05-5.18,0-7.76,0-.04,0-.08,0-.12,0-.74-.65-1.45-1.41-1.41-.77.03-1.41.62-1.41,1.41"/>
        <path class="cls-4" d="m65.79,29.14h12.67c.74,0,1.45-.65,1.41-1.41-.03-.77-.62-1.41-1.41-1.41h-12.67c-.74,0-1.45.65-1.41,1.41.03.77.62,1.41,1.41,1.41"/>
        <path class="cls-4" d="m139.21,120.47H12.09c-1.71,0-3.44-.07-5.15,0-.08,0-.15,0-.23,0l1.41,1.41v-42.07l-1.41,1.41h127.12c1.71,0,3.44.07,5.15,0,.07,0,.15,0,.23,0l-1.41-1.41v42.07c0,1.82,2.83,1.82,2.83,0v-42.07c0-.76-.65-1.41-1.41-1.41H12.09c-1.72,0-3.44-.03-5.15,0-.08,0-.15,0-.23,0-.76,0-1.41.65-1.41,1.41v42.07c0,.76.65,1.41,1.41,1.41h127.12c1.72,0,3.44.03,5.15,0,.08,0,.15,0,.23,0,1.82,0,1.82-2.83,0-2.83"/>
        <path class="cls-4" d="m95.1,78.41h-38.83c-1.79,0-3.58-.05-5.37,0-.03,0-.05,0-.08,0-.76,0-1.41.65-1.41,1.41v36.88c0,1.7-.05,3.41,0,5.12,0,.02,0,.05,0,.07,0,.76.65,1.41,1.41,1.41h38.83c1.79,0,3.58.05,5.37,0,.03,0,.05,0,.08,0,.76,0,1.41-.65,1.41-1.41v-36.88c0-1.7.05-3.41,0-5.12,0-.02,0-.05,0-.07,0-.74-.65-1.45-1.41-1.41-.77.03-1.41.62-1.41,1.41v36.88c0,1.7-.09,3.42,0,5.12,0,.02,0,.05,0,.07l1.41-1.41h-38.83c-1.78,0-3.59-.09-5.37,0-.03,0-.05,0-.08,0l1.41,1.41v-36.88c0-1.7.09-3.42,0-5.12,0-.02,0-.05,0-.07l-1.41,1.41h38.83c1.79,0,3.58.05,5.37,0,.03,0,.05,0,.08,0,.74,0,1.45-.65,1.41-1.41-.03-.77-.62-1.41-1.41-1.41"/>
        <path class="cls-4" d="m7.69,96.01h37.53c1.72,0,3.45.05,5.17,0,.02,0,.05,0,.07,0,.74,0,1.45-.65,1.41-1.41-.03-.77-.62-1.41-1.41-1.41H12.94c-1.72,0-3.45-.05-5.17,0-.02,0-.05,0-.07,0-.74,0-1.45.65-1.41,1.41.03.77.62,1.41,1.41,1.41"/>
        <path class="cls-4" d="m29.83,121.89v-27.29c0-.74-.65-1.45-1.41-1.41-.77.03-1.41.62-1.41,1.41v27.29c0,.74.65,1.45,1.41,1.41.77-.03,1.41-.62,1.41-1.41"/>
        <path class="cls-4" d="m83.79,114.06h-21.67l1.41,1.41v-18.06l-1.41,1.41h21.67l-1.41-1.41v18.06c0,.74.65,1.45,1.41,1.41.77-.03,1.41-.62,1.41-1.41v-18.06c0-.76-.65-1.41-1.41-1.41h-21.67c-.76,0-1.41.65-1.41,1.41v18.06c0,.76.65,1.41,1.41,1.41h21.67c.74,0,1.45-.65,1.41-1.41-.03-.77-.62-1.41-1.41-1.41"/>
        <path class="cls-4" d="m139.21,123.3c.74,0,1.45-.65,1.41-1.41-.03-.77-.62-1.41-1.41-1.41-.74,0-1.45.65-1.41,1.41.03.77.62,1.41,1.41,1.41"/>
        <path class="cls-4" d="m95.1,81.23c.74,0,1.45-.65,1.41-1.41-.03-.77-.62-1.41-1.41-1.41-.74,0-1.45.65-1.41,1.41.03.77.62,1.41,1.41,1.41"/>
        <path class="cls-4" d="m95.1,123.3c.74,0,1.45-.65,1.41-1.41-.03-.77-.62-1.41-1.41-1.41-.74,0-1.45.65-1.41,1.41.03.77.62,1.41,1.41,1.41"/>
        <path class="cls-4" d="m139.21,81.23c.74,0,1.45-.65,1.41-1.41-.03-.77-.62-1.41-1.41-1.41-.74,0-1.45.65-1.41,1.41.03.77.62,1.41,1.41,1.41"/>
        <path class="cls-4" d="m115.74,79.82v36.88c0,1.7-.05,3.41,0,5.12,0,.02,0,.05,0,.07,0,.74.65,1.45,1.41,1.41.77-.03,1.41-.62,1.41-1.41v-36.88c0-1.7.05-3.41,0-5.12,0-.02,0-.05,0-.07,0-.74-.65-1.45-1.41-1.41-.77.03-1.41.62-1.41,1.41"/>
        <path class="cls-4" d="m51.66,42.05H15.81c-1.65,0-3.33-.09-4.98,0-.02,0-.05,0-.07,0l1.41,1.41V7.61c0-1.65.09-3.33,0-4.98,0-.02,0-.05,0-.07l-1.41,1.41h35.85c1.65,0,3.33.09,4.98,0,.02,0,.05,0,.07,0l-1.41-1.41v35.85c0,1.66-.05,3.32,0,4.98,0,.02,0,.05,0,.07,0,.74.65,1.45,1.41,1.41.77-.03,1.41-.62,1.41-1.41V7.61c0-1.66.05-3.32,0-4.98,0-.02,0-.05,0-.07,0-.76-.65-1.41-1.41-1.41H15.81c-1.66,0-3.32-.05-4.98,0-.02,0-.05,0-.07,0-.76,0-1.41.65-1.41,1.41v35.85c0,1.66-.05,3.32,0,4.98,0,.02,0,.05,0,.07,0,.76.65,1.41,1.41,1.41h35.85c1.66,0,3.32.05,4.98,0,.02,0,.05,0,.07,0,.74,0,1.45-.65,1.41-1.41-.03-.77-.62-1.41-1.41-1.41"/>
        <path class="cls-4" d="m29.8,2.56v35.85c0,1.66-.05,3.32,0,4.98,0,.02,0,.05,0,.07,0,.74.65,1.45,1.41,1.41.77-.03,1.41-.62,1.41-1.41V7.61c0-1.66.05-3.32,0-4.98,0-.02,0-.05,0-.07,0-.74-.65-1.45-1.41-1.41-.77.03-1.41.62-1.41,1.41"/>
        <path class="cls-4" d="m19.42,37.21h5.59c.74,0,1.45-.65,1.41-1.41-.03-.77-.62-1.41-1.41-1.41h-5.59c-.74,0-1.45.65-1.41,1.41.03.77.62,1.41,1.41,1.41"/>
        <path class="cls-4" d="m37.42,37.21h5.59c.74,0,1.45-.65,1.41-1.41-.03-.77-.62-1.41-1.41-1.41h-5.59c-.74,0-1.45.65-1.41,1.41.03.77.62,1.41,1.41,1.41"/>
        <path class="cls-4" d="m135.87,42.05h-35.85c-1.65,0-3.33-.09-4.98,0-.02,0-.05,0-.07,0l1.41,1.41V7.61c0-1.65.09-3.33,0-4.98,0-.02,0-.05,0-.07l-1.41,1.41h35.85c1.65,0,3.33.09,4.98,0,.02,0,.05,0,.07,0l-1.41-1.41v35.85c0,1.66-.05,3.32,0,4.98,0,.02,0,.05,0,.07,0,.74.65,1.45,1.41,1.41.77-.03,1.41-.62,1.41-1.41V7.61c0-1.66.05-3.32,0-4.98,0-.02,0-.05,0-.07,0-.76-.65-1.41-1.41-1.41h-35.85c-1.66,0-3.32-.05-4.98,0-.02,0-.05,0-.07,0-.76,0-1.41.65-1.41,1.41v35.85c0,1.66-.05,3.32,0,4.98,0,.02,0,.05,0,.07,0,.76.65,1.41,1.41,1.41h35.85c1.66,0,3.32.05,4.98,0,.02,0,.05,0,.07,0,.74,0,1.45-.65,1.41-1.41-.03-.77-.62-1.41-1.41-1.41"/>
        <path class="cls-4" d="m94.97,24.43h35.85c1.66,0,3.32.05,4.98,0,.02,0,.05,0,.07,0,.74,0,1.45-.65,1.41-1.41-.03-.77-.62-1.41-1.41-1.41h-35.85c-1.66,0-3.32-.05-4.98,0-.02,0-.05,0-.07,0-.74,0-1.45.65-1.41,1.41.03.77.62,1.41,1.41,1.41"/>
        <path class="cls-4" d="m111.38,18.89h5.59c.74,0,1.45-.65,1.41-1.41-.03-.77-.62-1.41-1.41-1.41h-5.59c-.74,0-1.45.65-1.41,1.41.03.77.62,1.41,1.41,1.41"/>
        <path class="cls-4" d="m111.38,39.19h5.59c.74,0,1.45-.65,1.41-1.41-.03-.77-.62-1.41-1.41-1.41h-5.59c-.74,0-1.45.65-1.41,1.41.03.77.62,1.41,1.41,1.41"/>
        <path class="cls-4" d="m25.62,90.48h5.59c.74,0,1.45-.65,1.41-1.41-.03-.77-.62-1.41-1.41-1.41h-5.59c-.74,0-1.45.65-1.41,1.41.03.77.62,1.41,1.41,1.41"/>
        <path class="cls-4" d="m17.28,111.18h5.59c.74,0,1.45-.65,1.41-1.41-.03-.77-.62-1.41-1.41-1.41h-5.59c-.74,0-1.45.65-1.41,1.41.03.77.62,1.41,1.41,1.41"/>
        <path class="cls-4" d="m33.69,111.18h5.59c.74,0,1.45-.65,1.41-1.41-.03-.77-.62-1.41-1.41-1.41h-5.59c-.74,0-1.45.65-1.41,1.41.03.77.62,1.41,1.41,1.41"/>
        <path class="cls-4" d="m106.67,102.27h5.59c.74,0,1.45-.65,1.41-1.41-.03-.77-.62-1.41-1.41-1.41h-5.59c-.74,0-1.45.65-1.41,1.41.03.77.62,1.41,1.41,1.41"/>
        <path class="cls-4" d="m121.43,102.27h5.59c.74,0,1.45-.65,1.41-1.41-.03-.77-.62-1.41-1.41-1.41h-5.59c-.74,0-1.45.65-1.41,1.41.03.77.62,1.41,1.41,1.41"/>
        <path class="cls-4" d="m59.57,86.17c0,.08,0,.17-.01.25,0,.23,0-.11.02-.13-.05.1-.06.27-.09.39-.02.07-.07.15-.08.22,0-.03.16-.32.05-.12-.08.14-.15.27-.24.4-.15.23.19-.19.05-.07-.05.04-.09.1-.13.14-.04.04-.07.07-.11.11-.1.1-.26.14.05-.02-.11.06-.21.15-.33.21-.05.03-.09.05-.14.07-.23.13.33-.1.01,0-.13.04-.25.08-.38.11-.16.03-.2-.04.1,0-.06,0-.14.01-.2.02-.14,0-.27,0-.41-.01-.2-.01.37.07.1.01-.08-.02-.16-.03-.23-.06-.08-.02-.15-.05-.23-.07-.14-.04-.06-.1.12.05-.09-.08-.24-.12-.34-.19-.05-.03-.11-.08-.16-.11-.16-.09.27.24.07.05-.1-.1-.21-.26-.32-.33.18.12.16.22.08.1-.04-.06-.09-.13-.13-.19-.03-.04-.05-.09-.08-.14-.07-.14-.05-.27.01.05-.02-.13-.09-.25-.12-.38-.01-.05-.02-.1-.03-.16-.06-.27.03.36,0,.01,0-.12,0-.25,0-.37,0-.13.09-.33-.02.05.01-.05.02-.11.03-.16.03-.13.07-.25.11-.38.09-.27-.16.3-.02.05.04-.07.07-.14.11-.21.03-.06.07-.11.11-.16.09-.15.15-.07-.06.07.09-.06.18-.2.27-.28.04-.03.24-.18.03-.04-.21.14,0,0,.04-.03.12-.08.31-.13.41-.23-.02.02-.34.12-.12.05.08-.02.15-.05.23-.07.08-.02.46-.08.21-.06-.26.03.01,0,.06,0,.07,0,.14,0,.21,0,.07,0,.14,0,.21,0,.29.01-.31-.07-.05,0,.16.04.31.08.46.13.26.08-.24-.14-.08-.04.07.05.16.08.24.13.04.03.09.05.13.08.04.03.09.06.13.09-.18-.14-.22-.17-.11-.07.09.09.18.18.27.27.2.2-.18-.28-.03-.04.04.07.09.13.13.19.04.07.07.14.11.21.13.22-.1-.31-.02-.05.05.15.09.3.13.46.03.13-.04.14-.01-.14-.01.1.02.22.02.33.01.74.64,1.45,1.41,1.41.76-.03,1.43-.62,1.41-1.41-.03-1.88-1.2-3.48-2.94-4.14-1.62-.61-3.65-.07-4.75,1.27-1.19,1.44-1.44,3.47-.47,5.11.98,1.63,2.84,2.38,4.68,2.05,2.02-.36,3.45-2.28,3.48-4.29.01-.74-.66-1.45-1.41-1.41-.77.03-1.4.62-1.41,1.41"/>
        <path class="cls-4" d="m68.09,86.17c0,.08,0,.17-.01.25,0,.23,0-.11.02-.13-.05.1-.06.27-.09.39-.02.07-.07.15-.08.22,0-.03.16-.32.05-.12-.08.14-.15.27-.24.4-.15.23.19-.19.05-.07-.05.04-.09.1-.13.14-.04.04-.07.07-.11.11-.1.1-.26.14.05-.02-.11.06-.21.15-.33.21-.05.03-.09.05-.14.07-.23.13.33-.1.01,0-.13.04-.25.08-.38.11-.16.03-.2-.04.1,0-.06,0-.14.01-.2.02-.14,0-.27,0-.41-.01-.2-.01.38.07.1.01-.08-.02-.16-.03-.23-.06-.08-.02-.15-.05-.23-.07-.14-.04-.06-.1.12.05-.09-.08-.24-.12-.34-.19-.05-.03-.11-.08-.16-.11-.16-.09.27.24.07.05-.1-.1-.21-.26-.32-.33.18.12.16.22.08.1-.04-.06-.09-.13-.13-.19-.03-.04-.05-.09-.08-.14-.07-.14-.05-.27.01.05-.02-.13-.09-.25-.12-.38-.01-.05-.02-.1-.03-.16-.06-.27.03.36,0,.01,0-.12,0-.25,0-.37,0-.13.09-.33-.02.05.01-.05.02-.11.03-.16.03-.13.07-.25.11-.38.09-.27-.16.3-.02.05.04-.07.07-.14.11-.21.03-.06.07-.11.11-.16.09-.15.15-.07-.06.07.09-.06.18-.2.27-.28.04-.03.24-.18.03-.04-.21.14,0,0,.04-.03.12-.08.31-.13.41-.23-.02.02-.34.12-.12.05.08-.02.15-.05.23-.07.08-.02.46-.08.21-.06-.26.03.01,0,.06,0,.07,0,.14,0,.21,0,.07,0,.14,0,.21,0,.29.01-.31-.07-.05,0,.16.04.31.08.46.13.26.08-.24-.14-.08-.04.07.05.16.08.24.13.04.03.09.05.13.08.04.03.09.06.13.09-.18-.14-.22-.17-.11-.07.09.09.18.18.27.27.2.2-.18-.28-.03-.04.04.07.09.13.13.19.04.07.07.14.11.21.13.22-.1-.31-.02-.05.05.15.09.3.13.46.03.13-.04.14-.01-.14-.01.1.02.22.02.33.01.74.64,1.45,1.41,1.41.76-.03,1.43-.62,1.41-1.41-.03-1.88-1.2-3.48-2.94-4.14-1.62-.61-3.65-.07-4.75,1.27-1.19,1.44-1.44,3.47-.47,5.11.98,1.63,2.84,2.38,4.68,2.05,2.02-.36,3.45-2.28,3.48-4.29.01-.74-.66-1.45-1.41-1.41-.77.03-1.4.62-1.41,1.41"/>
        <path class="cls-4" d="m76.6,86.17c0,.08,0,.17-.01.25,0,.23,0-.11.02-.13-.05.1-.06.27-.09.39-.02.07-.07.15-.08.22,0-.03.16-.32.05-.12-.08.14-.15.27-.24.4-.15.23.19-.19.05-.07-.05.04-.09.1-.13.14-.04.04-.07.07-.11.11-.1.1-.26.14.05-.02-.11.06-.21.15-.33.21-.05.03-.09.05-.14.07-.23.13.33-.1.01,0-.13.04-.25.08-.38.11-.16.03-.2-.04.1,0-.06,0-.14.01-.2.02-.14,0-.27,0-.41-.01-.2-.01.38.07.1.01-.08-.02-.16-.03-.23-.06-.08-.02-.15-.05-.23-.07-.14-.04-.06-.1.12.05-.09-.08-.24-.12-.34-.19-.05-.03-.11-.08-.16-.11-.16-.09.27.24.07.05-.1-.1-.21-.26-.32-.33.18.12.16.22.08.1-.04-.06-.09-.13-.13-.19-.03-.04-.05-.09-.08-.14-.07-.14-.05-.27.01.05-.02-.13-.09-.25-.12-.38-.01-.05-.02-.1-.03-.16-.06-.27.03.36,0,.01,0-.12,0-.25,0-.37,0-.13.09-.33-.02.05.01-.05.02-.11.03-.16.03-.13.07-.25.11-.38.09-.27-.16.3-.02.05.04-.07.07-.14.11-.21.03-.06.07-.11.11-.16.09-.15.15-.07-.06.07.09-.06.18-.2.27-.28.04-.03.24-.18.03-.04-.21.14,0,0,.04-.03.12-.08.31-.13.41-.23-.02.02-.34.12-.12.05.08-.02.15-.05.23-.07.08-.02.46-.08.21-.06-.26.03.01,0,.06,0,.07,0,.14,0,.21,0,.07,0,.14,0,.21,0,.29.01-.31-.07-.05,0,.16.04.31.08.46.13.26.08-.24-.14-.08-.04.07.05.16.08.24.13.04.03.09.05.13.08.04.03.09.06.13.09-.18-.14-.22-.17-.11-.07.09.09.18.18.27.27.2.2-.18-.28-.03-.04.04.07.09.13.13.19.04.07.07.14.11.21.13.22-.1-.31-.02-.05.05.15.09.3.13.46.03.13-.04.14-.01-.14-.01.1.02.22.02.33.01.74.64,1.45,1.41,1.41.76-.03,1.43-.62,1.41-1.41-.03-1.88-1.2-3.48-2.94-4.14-1.62-.61-3.65-.07-4.75,1.27-1.19,1.44-1.44,3.47-.47,5.11.98,1.63,2.84,2.38,4.68,2.05,2.02-.36,3.45-2.28,3.48-4.29.01-.74-.66-1.45-1.41-1.41-.77.03-1.4.62-1.41,1.41"/>
        <path class="cls-4" d="m82.51,87.58h8.86c.74,0,1.45-.65,1.41-1.41-.03-.77-.62-1.41-1.41-1.41h-8.86c-.74,0-1.45.65-1.41,1.41.03.77.62,1.41,1.41,1.41"/>
        <path class="cls-4" d="m1.37,2.84h137.37c1.86,0,3.71.03,5.57,0,.08,0,.16,0,.24,0,1.82,0,1.82-2.83,0-2.83H7.18C5.32.01,3.46-.02,1.61.01c-.08,0-.16,0-.24,0C-.45.01-.46,2.84,1.37,2.84"/>
      </g>
    </g>
  </g>
</svg>