<?xml version="1.0" encoding="UTF-8"?>
<svg id="Livello_2" data-name="Livello 2" xmlns="http://www.w3.org/2000/svg" xmlns:xlink="http://www.w3.org/1999/xlink" viewBox="0 0 138.32 105.7">
  <defs>
    <style>
      .cls-1, .cls-2, .cls-3 {
        fill: none;
      }

      .cls-2 {
        clip-path: url(#clippath);
      }

      .cls-3 {
        clip-path: url(#clippath-1);
      }

      .cls-4 {
        fill: #1d1d1c;
      }
    </style>
    <clipPath id="clippath">
      <rect class="cls-1" width="138.32" height="105.7"/>
    </clipPath>
    <clipPath id="clippath-1">
      <rect class="cls-1" width="138.32" height="105.7"/>
    </clipPath>
  </defs>
  <g id="culla">
    <g class="cls-2">
      <g class="cls-3">
        <path class="cls-4" d="m11.44,100.91c0,.12-.02.25-.02.37,0,.25.07-.27,0-.03-.01.04-.02.09-.03.14-.02.11-.05.22-.09.33-.02.05-.04.1-.06.15-.03.08-.02.04.05-.13-.02.04-.04.08-.06.12-.05.09-.1.19-.16.28-.02.04-.05.07-.07.11-.11.2.18-.2.03-.03-.15.16-.3.3-.45.45-.16.16.23-.15.03-.02-.04.02-.07.05-.1.07-.09.06-.18.12-.27.17-.09.05-.19.1-.29.15-.03.02-.23.11-.04.02.2-.09-.07.03-.11.04-.21.08-.43.14-.65.19-.11.02-.22.04-.33.06-.17.04.09-.05.1-.01,0,0-.18.02-.2.02-.23.02-.46.03-.69.02-.11,0-.23,0-.34-.02-.06,0-.11-.01-.17-.02-.29-.03.23.05,0,0-.22-.05-.44-.09-.66-.15-.11-.03-.21-.07-.32-.1-.04-.02-.08-.03-.12-.05-.22-.07.22.11.03.01-.19-.1-.39-.19-.57-.32-.05-.04-.1-.07-.16-.11-.13-.08.04.06.08.06-.07,0-.23-.2-.28-.26-.07-.07-.14-.16-.21-.23-.13-.14.07.08.06.08-.03,0-.09-.13-.11-.16-.06-.09-.11-.18-.16-.28-.01-.02-.06-.1-.06-.12.07.18.09.21.04.09,0-.02-.02-.04-.02-.06-.03-.11-.07-.21-.1-.32-.02-.07-.02-.14-.04-.2-.05-.19,0,.09.01.1-.05-.12-.02-.32-.03-.44,0-.02,0-.04,0-.06,0-.13,0-.26,0-.38V22.04l-1.15,1.15h8.82l-1.15-1.15v75.67c0,1.02-.02,2.05,0,3.07,0,.04,0,.09,0,.13,0,.62.53,1.15,1.15,1.15s1.15-.53,1.15-1.15V25.25c0-1.02.02-2.05,0-3.07,0-.04,0-.09,0-.13,0-.62-.53-1.15-1.15-1.15H3.77c-.62,0-1.15.53-1.15,1.15v76.09c0,.92-.01,1.85,0,2.77.03,2.3,1.66,4.02,3.83,4.57,2.05.52,4.58.13,6.08-1.47.8-.85,1.21-1.94,1.22-3.1,0-.62-.53-1.15-1.15-1.15s-1.15.53-1.15,1.15"/>
        <path class="cls-4" d="m16.39,14.96c-.03-3.46-2.2-6.52-5.44-7.72-3.14-1.17-6.91-.15-9.04,2.44-2.2,2.68-2.57,6.51-.76,9.51,1.8,2.98,5.31,4.47,8.71,3.8,3.78-.74,6.5-4.22,6.53-8.03,0-.6-.53-1.18-1.15-1.15-.63.03-1.15.51-1.15,1.15,0,.18,0,.36-.02.54,0,.09-.02.18-.02.26-.02.2.05-.27,0,.06-.06.34-.14.68-.24,1.01-.05.16-.11.32-.17.48.08-.2.01-.03,0,0-.04.09-.09.18-.13.27-.15.3-.33.59-.52.86,0,0-.19.26-.09.12.1-.13-.1.12-.1.12-.11.13-.22.25-.34.37-.09.1-.19.19-.29.28-.07.07-.15.13-.23.2-.04.03-.27.21-.08.07-.26.19-.52.37-.8.52-.13.07-.27.14-.4.21-.03.01-.34.14-.1.05-.09.04-.19.07-.29.11-.29.1-.59.19-.89.25-.1.02-.21.04-.31.06-.04,0-.23.03,0,0-.21.03-.42.04-.64.05-.32,0-.64,0-.96-.04-.34-.03.22.05-.11-.02-.07-.01-.14-.02-.21-.04-.19-.04-.37-.08-.55-.13-.15-.04-.3-.09-.44-.14-.1-.03-.19-.07-.29-.11.04.02.19.09,0,0-.32-.16-.63-.32-.93-.51-.13-.08-.25-.17-.37-.26.19.14-.18-.15-.23-.2-.25-.22-.48-.46-.7-.72-.02-.02-.22-.29-.07-.08-.04-.05-.08-.11-.12-.16-.1-.14-.19-.28-.28-.42-.09-.14-.17-.29-.25-.44-.04-.08-.22-.49-.14-.28-.13-.32-.23-.64-.32-.98-.04-.15-.07-.3-.1-.46-.01-.06-.04-.29-.01-.06-.01-.11-.02-.21-.03-.32-.03-.36-.03-.71,0-1.07,0-.07.01-.14.02-.21.03-.34-.03.14,0-.06.03-.19.07-.38.11-.56.08-.32.18-.63.3-.93.07-.18-.12.24.02-.05.03-.06.06-.12.09-.18.09-.18.19-.36.29-.53.09-.14.18-.28.28-.42.04-.05.08-.11.12-.16-.13.18,0,0,.04-.04.23-.27.47-.52.73-.76.05-.04.1-.09.15-.13,0,0,.25-.2.12-.1-.13.1.13-.09.12-.09.05-.04.11-.08.17-.11.31-.21.64-.38.97-.54.04-.02.2-.09,0,0,.08-.03.16-.06.24-.09.14-.05.29-.1.44-.14.17-.05.33-.09.5-.13.07-.01.14-.03.2-.04.07-.01.14-.02.21-.03-.12.01-.13.02-.05,0,.34-.04.68-.05,1.01-.04.18,0,.35.02.53.04.23.02.05,0,0,0,.12.02.24.04.36.06.37.08.73.19,1.09.32.05.02.26.11.05.02.09.04.18.08.28.13.18.09.36.19.53.29.14.09.28.18.42.28.02.02.29.22.09.06.08.06.16.13.23.19.28.24.54.5.77.78.04.05.09.1.13.16-.15-.19.06.09.09.13.11.15.21.31.3.47.1.17.2.35.28.54.03.06.06.12.08.18-.1-.22.02.05.04.1.13.35.23.72.31,1.09.02.1.04.21.05.31-.03-.21,0,.04,0,.11.02.21.03.43.03.64,0,.6.53,1.18,1.15,1.15.62-.03,1.16-.51,1.15-1.15"/>
        <path class="cls-4" d="m133.38,100.91c0,.12-.02.25-.02.37,0,.25.07-.27,0-.03-.01.04-.02.09-.03.14-.02.11-.05.22-.09.33-.02.05-.04.1-.06.15-.03.08-.02.04.05-.13-.02.04-.04.08-.06.12-.05.09-.1.19-.16.28-.02.04-.05.07-.07.11-.11.2.18-.2.03-.03-.15.16-.3.3-.45.45-.16.16.23-.15.03-.02-.04.02-.07.05-.1.07-.09.06-.18.12-.27.17-.09.05-.19.1-.29.15-.03.02-.23.11-.04.02.2-.09-.07.03-.11.04-.21.08-.43.14-.65.19-.11.02-.22.04-.33.06-.17.04.09-.05.1-.01,0,0-.18.02-.2.02-.23.02-.46.03-.69.02-.11,0-.23,0-.34-.02-.06,0-.11-.01-.17-.02-.29-.03.23.05,0,0-.22-.05-.44-.09-.66-.15-.11-.03-.21-.07-.32-.1-.04-.02-.08-.03-.12-.05-.22-.07.22.11.03.01-.19-.1-.39-.19-.57-.32-.05-.04-.1-.07-.16-.11-.13-.08.04.06.08.06-.07,0-.23-.2-.28-.26-.07-.07-.14-.16-.21-.23-.13-.14.07.08.06.08-.03,0-.09-.13-.11-.16-.06-.09-.11-.18-.16-.28-.01-.02-.06-.1-.06-.12.07.18.09.21.04.09,0-.02-.02-.04-.02-.06-.03-.11-.07-.21-.1-.32-.02-.07-.02-.14-.04-.2-.05-.19,0,.09.01.1-.05-.12-.02-.32-.03-.44,0-.02,0-.04,0-.06,0-.13,0-.26,0-.38V22.04l-1.15,1.15h8.82l-1.15-1.15v75.67c0,1.02-.02,2.05,0,3.07,0,.04,0,.09,0,.13,0,.62.53,1.15,1.15,1.15s1.15-.53,1.15-1.15V25.25c0-1.02.02-2.05,0-3.07,0-.04,0-.09,0-.13,0-.62-.53-1.15-1.15-1.15h-8.82c-.62,0-1.15.53-1.15,1.15v76.09c0,.92-.01,1.85,0,2.77.03,2.3,1.66,4.02,3.83,4.57,2.05.52,4.58.13,6.08-1.47.8-.85,1.21-1.94,1.22-3.1,0-.62-.53-1.15-1.15-1.15s-1.15.53-1.15,1.15"/>
        <path class="cls-4" d="m138.32,14.96c-.03-3.46-2.2-6.52-5.44-7.72-3.14-1.17-6.91-.15-9.04,2.44-2.2,2.68-2.57,6.51-.76,9.51,1.8,2.98,5.31,4.47,8.71,3.8,3.78-.74,6.5-4.22,6.53-8.03,0-.6-.53-1.18-1.15-1.15-.63.03-1.15.51-1.15,1.15,0,.18,0,.36-.02.54,0,.09-.02.18-.02.26-.02.2.05-.27,0,.06-.06.34-.14.68-.24,1.01-.05.16-.11.32-.17.48.08-.2.01-.03,0,0-.04.09-.09.18-.13.27-.15.3-.33.59-.52.86,0,0-.19.26-.09.12.1-.13-.1.12-.1.12-.11.13-.22.25-.34.37-.09.1-.19.19-.29.28-.07.07-.15.13-.23.2-.04.03-.27.21-.08.07-.26.19-.52.37-.8.52-.13.07-.27.14-.4.21-.03.01-.34.14-.1.05-.09.04-.19.07-.29.11-.29.1-.59.19-.89.25-.1.02-.21.04-.31.06-.04,0-.23.03,0,0-.21.03-.42.04-.64.05-.32,0-.64,0-.96-.04-.34-.03.22.05-.11-.02-.07-.01-.14-.02-.21-.04-.19-.04-.37-.08-.55-.13-.15-.04-.3-.09-.44-.14-.1-.03-.19-.07-.29-.11.04.02.19.09,0,0-.32-.16-.63-.32-.93-.51-.13-.08-.25-.17-.37-.26.19.14-.18-.15-.23-.2-.25-.22-.48-.46-.7-.72-.02-.02-.22-.29-.07-.08-.04-.05-.08-.11-.12-.16-.1-.14-.19-.28-.28-.42-.09-.14-.17-.29-.25-.44-.04-.08-.22-.49-.14-.28-.13-.32-.23-.64-.32-.98-.04-.15-.07-.3-.1-.46-.01-.06-.04-.29-.01-.06-.01-.11-.02-.21-.03-.32-.03-.36-.03-.71,0-1.07,0-.07.01-.14.02-.21.03-.34-.03.14,0-.06.03-.19.07-.38.11-.56.08-.32.18-.63.3-.93.07-.18-.12.24.02-.05.03-.06.06-.12.09-.18.09-.18.19-.36.29-.53.09-.14.18-.28.28-.42.04-.05.08-.11.12-.16-.13.18,0,0,.04-.04.23-.27.47-.52.73-.76.05-.04.1-.09.15-.13,0,0,.25-.2.12-.1-.13.1.13-.09.12-.09.05-.04.11-.08.17-.11.31-.21.64-.38.97-.54.04-.02.2-.09,0,0,.08-.03.16-.06.24-.09.14-.05.29-.1.44-.14.17-.05.33-.09.5-.13.07-.01.14-.03.2-.04.07-.01.14-.02.21-.03-.12.01-.13.02-.05,0,.34-.04.68-.05,1.01-.04.18,0,.35.02.53.04.23.02.05,0,0,0,.12.02.24.04.36.06.37.08.73.19,1.09.32.05.02.26.11.05.02.09.04.18.08.28.13.18.09.36.19.53.29.14.09.28.18.42.28.02.02.29.22.09.06.08.06.16.13.23.19.28.24.54.5.77.78.04.05.09.1.13.16-.15-.19.06.09.09.13.11.15.21.31.3.47.1.17.2.35.28.54.03.06.06.12.08.18-.1-.22.02.05.04.1.13.35.23.72.31,1.09.02.1.04.21.05.31-.03-.21,0,.04,0,.11.02.21.03.43.03.64,0,.6.53,1.18,1.15,1.15.62-.03,1.16-.51,1.15-1.15"/>
        <path class="cls-4" d="m125.97,41.65H17.2c-1.47,0-2.94-.06-4.41,0-.06,0-.13,0-.19,0l1.15,1.15v-8.3l-1.15,1.15h108.77c1.47,0,2.94.06,4.41,0,.06,0,.13,0,.19,0l-1.15-1.15v8.3c0,1.49,2.31,1.49,2.31,0v-8.3c0-.62-.53-1.15-1.15-1.15H17.2c-1.47,0-2.94-.03-4.41,0-.06,0-.13,0-.19,0-.62,0-1.15.53-1.15,1.15v8.3c0,.62.53,1.15,1.15,1.15h108.77c1.47,0,2.94.03,4.41,0,.06,0,.13,0,.19,0,1.49,0,1.49-2.31,0-2.31"/>
        <path class="cls-4" d="m125.97,93.39H17.2c-1.47,0-2.94-.06-4.41,0-.06,0-.13,0-.19,0l1.15,1.15v-8.3l-1.15,1.15h108.77c1.47,0,2.94.06,4.41,0,.06,0,.13,0,.19,0l-1.15-1.15v8.3c0,1.49,2.31,1.49,2.31,0v-8.3c0-.62-.53-1.15-1.15-1.15H17.2c-1.47,0-2.94-.03-4.41,0-.06,0-.13,0-.19,0-.62,0-1.15.53-1.15,1.15v8.3c0,.62.53,1.15,1.15,1.15h108.77c1.47,0,2.94.03,4.41,0,.06,0,.13,0,.19,0,1.49,0,1.49-2.31,0-2.31"/>
        <path class="cls-4" d="m73.76,85h-9.22l1.15,1.15v-40.99c0-.55.03-1.11,0-1.66,0-.02,0-.05,0-.07l-1.15,1.15h9.22l-1.15-1.15v37.47c0,1.72-.05,3.46,0,5.18,0,.02,0,.05,0,.07,0,.6.53,1.18,1.15,1.15.63-.03,1.15-.51,1.15-1.15v-37.47c0-1.72.05-3.46,0-5.18,0-.02,0-.05,0-.07,0-.62-.53-1.15-1.15-1.15h-9.22c-.62,0-1.15.53-1.15,1.15v37.47c0,1.72-.05,3.46,0,5.18,0,.02,0,.05,0,.07,0,.62.53,1.15,1.15,1.15h9.22c.6,0,1.18-.53,1.15-1.15-.03-.63-.51-1.15-1.15-1.15"/>
        <path class="cls-4" d="m51.4,85h-9.22l1.15,1.15v-40.99c0-.55.03-1.11,0-1.66,0-.02,0-.05,0-.07l-1.15,1.15h9.22l-1.15-1.15v37.47c0,1.72-.05,3.46,0,5.18,0,.02,0,.05,0,.07,0,.6.53,1.18,1.15,1.15.63-.03,1.15-.51,1.15-1.15v-37.47c0-1.72.05-3.46,0-5.18,0-.02,0-.05,0-.07,0-.62-.53-1.15-1.15-1.15h-9.22c-.62,0-1.15.53-1.15,1.15v37.47c0,1.72-.05,3.46,0,5.18,0,.02,0,.05,0,.07,0,.62.53,1.15,1.15,1.15h9.22c.6,0,1.18-.53,1.15-1.15-.03-.63-.51-1.15-1.15-1.15"/>
        <path class="cls-4" d="m28.72,85h-9.22c.38.38.77.77,1.15,1.15v-41.58c0-.57.03-1.14,0-1.7,0-.02,0-.05,0-.07l-1.15,1.15h9.22l-1.15-1.15v38.03c0,1.75-.05,3.5,0,5.25,0,.02,0,.05,0,.07,0,.6.53,1.18,1.15,1.15.63-.03,1.15-.51,1.15-1.15v-38.03c0-1.75.05-3.5,0-5.25,0-.02,0-.05,0-.07,0-.62-.53-1.15-1.15-1.15h-9.22c-.62,0-1.15.53-1.15,1.15v38.03c0,1.75-.05,3.5,0,5.25,0,.02,0,.05,0,.07,0,.62.53,1.15,1.15,1.15h9.22c.6,0,1.18-.53,1.15-1.15-.03-.63-.51-1.15-1.15-1.15"/>
        <path class="cls-4" d="m96.13,85h-9.22l1.15,1.15v-40.99c0-.55.03-1.11,0-1.66,0-.02,0-.05,0-.07l-1.15,1.15h9.22l-1.15-1.15v37.47c0,1.72-.05,3.46,0,5.18,0,.02,0,.05,0,.07,0,.6.53,1.18,1.15,1.15.63-.03,1.15-.51,1.15-1.15v-37.47c0-1.72.05-3.46,0-5.18,0-.02,0-.05,0-.07,0-.62-.53-1.15-1.15-1.15h-9.22c-.62,0-1.15.53-1.15,1.15v37.47c0,1.72-.05,3.46,0,5.18,0,.02,0,.05,0,.07,0,.62.53,1.15,1.15,1.15h9.22c.6,0,1.18-.53,1.15-1.15-.03-.63-.51-1.15-1.15-1.15"/>
        <path class="cls-4" d="m118.21,85h-9.22l1.15,1.15v-41.67c0-.56.03-1.14,0-1.7,0-.02,0-.05,0-.07l-1.15,1.15h9.22l-1.15-1.15v38.08c0,1.76-.05,3.53,0,5.29,0,.02,0,.05,0,.07,0,.6.53,1.18,1.15,1.15.63-.03,1.15-.51,1.15-1.15v-38.08c0-1.76.05-3.53,0-5.29,0-.02,0-.05,0-.07,0-.62-.53-1.15-1.15-1.15h-9.22c-.62,0-1.15.53-1.15,1.15v38.08c0,1.76-.05,3.53,0,5.29,0,.02,0,.05,0,.07,0,.62.53,1.15,1.15,1.15h9.22c.6,0,1.18-.53,1.15-1.15-.03-.63-.51-1.15-1.15-1.15"/>
        <path class="cls-4" d="m29.3,11.98c5-2.41,10.16-4.45,15.48-6.03,5.06-1.5,10.29-2.6,15.48-3.16,5.15-.56,10.36-.63,15.53-.21,5.19.42,10.33,1.36,15.39,2.76,5.26,1.45,10.38,3.38,15.31,5.71.64.3,1.28.61,1.92.93.56.28,1.25.15,1.58-.41.3-.51.15-1.3-.41-1.58-5.1-2.53-10.4-4.68-15.85-6.32-5.17-1.55-10.48-2.63-15.86-3.2-5.25-.56-10.55-.61-15.81-.16-5.39.46-10.73,1.43-15.94,2.86-5.47,1.5-10.8,3.5-15.95,5.87-.68.31-1.35.63-2.02.95-.56.27-.71,1.07-.41,1.58.34.57,1.02.69,1.58.41"/>
        <path class="cls-4" d="m67.7,1.16v6.57c0,.6.53,1.18,1.15,1.15.63-.03,1.15-.51,1.15-1.15V1.16c0-.6-.53-1.18-1.15-1.15-.63.03-1.15.51-1.15,1.15"/>
        <path class="cls-4" d="m94.97,6.07v6.57c0,.6.53,1.18,1.15,1.15.63-.03,1.15-.51,1.15-1.15v-6.57c0-.6-.53-1.18-1.15-1.15-.63.03-1.15.51-1.15,1.15"/>
        <path class="cls-4" d="m41.02,5.81v6.57c0,.6.53,1.18,1.15,1.15.63-.03,1.15-.51,1.15-1.15v-6.57c0-.6-.53-1.18-1.15-1.15-.63.03-1.15.51-1.15,1.15"/>
        <path class="cls-4" d="m67.81,8.68c.37,1.13.73,2.25,1.1,3.38.16.49.59.85,1.11.85h3.55c-.19-.72-.39-1.43-.58-2.15l-2.87,2.09c-.4.29-.7.79-.53,1.3l1.1,3.38c.57-.43,1.13-.87,1.7-1.3l-2.87-2.09c-.3-.22-.86-.22-1.17,0-.96.7-1.91,1.39-2.87,2.09.57.43,1.13.87,1.7,1.3.37-1.13.73-2.25,1.1-3.38.17-.52-.13-1.01-.53-1.3l-2.87-2.09c-.19.72-.39,1.43-.58,2.15h3.55c.53,0,.96-.36,1.11-.85.37-1.13.73-2.25,1.1-3.38.19-.57-.22-1.29-.81-1.42-.63-.14-1.22.19-1.42.81l-1.1,3.38c.37-.28.74-.57,1.11-.85h-3.55c-.49,0-1,.36-1.11.85-.12.54.1.99.53,1.3.96.7,1.91,1.39,2.87,2.09-.18-.43-.35-.87-.53-1.3l-1.1,3.38c-.29.91.87,1.9,1.7,1.3.96-.7,1.91-1.39,2.87-2.09h-1.17c.96.7,1.91,1.39,2.87,2.09.82.59,1.99-.39,1.7-1.3l-1.1-3.38c-.18.43-.35.87-.53,1.3l2.87-2.09c.42-.31.68-.77.53-1.3-.13-.49-.61-.85-1.11-.85h-3.55c.37.28.74.57,1.11.85l-1.1-3.38c-.19-.59-.8-.98-1.42-.81-.58.16-1,.83-.81,1.42"/>
        <path class="cls-4" d="m41.06,13.1c.37,1.13.73,2.25,1.1,3.38.16.49.59.85,1.11.85h3.55c-.19-.72-.39-1.43-.58-2.15-.96.7-1.91,1.39-2.87,2.09-.4.29-.7.79-.53,1.3l1.1,3.38c.57-.43,1.13-.87,1.7-1.3l-2.87-2.09c-.3-.22-.86-.22-1.17,0l-2.87,2.09c.57.43,1.13.87,1.7,1.3l1.1-3.38c.17-.52-.13-1.01-.53-1.3-.96-.7-1.91-1.39-2.87-2.09-.19.72-.39,1.43-.58,2.15h3.55c.53,0,.96-.36,1.11-.85.37-1.13.73-2.25,1.1-3.38.19-.57-.22-1.29-.81-1.42-.63-.14-1.22.19-1.42.81-.37,1.13-.73,2.25-1.1,3.38.37-.28.74-.57,1.11-.85h-3.55c-.49,0-1,.36-1.11.85-.12.54.1.99.53,1.3l2.87,2.09c-.18-.43-.35-.87-.53-1.3-.37,1.13-.73,2.25-1.1,3.38-.29.91.87,1.9,1.7,1.3.96-.7,1.91-1.39,2.87-2.09h-1.17c.96.7,1.91,1.39,2.87,2.09.82.59,1.99-.39,1.7-1.3-.37-1.13-.73-2.25-1.1-3.38-.18.43-.35.87-.53,1.3l2.87-2.09c.42-.31.68-.77.53-1.3-.13-.49-.61-.85-1.11-.85h-3.55c.37.28.74.57,1.11.85-.37-1.13-.73-2.25-1.1-3.38-.19-.59-.8-.98-1.42-.81-.58.16-1,.83-.81,1.42"/>
        <path class="cls-4" d="m95.02,13.1c.37,1.13.73,2.25,1.1,3.38.16.49.59.85,1.11.85h3.55c-.19-.72-.39-1.43-.58-2.15-.96.7-1.91,1.39-2.87,2.09-.4.29-.7.79-.53,1.3.37,1.13.73,2.25,1.1,3.38.57-.43,1.13-.87,1.7-1.3-.96-.7-1.91-1.39-2.87-2.09-.3-.22-.86-.22-1.17,0-.96.7-1.91,1.39-2.87,2.09.57.43,1.13.87,1.7,1.3.37-1.13.73-2.25,1.1-3.38.17-.52-.13-1.01-.53-1.3-.96-.7-1.91-1.39-2.87-2.09-.19.72-.39,1.43-.58,2.15h3.55c.53,0,.96-.36,1.11-.85.37-1.13.73-2.25,1.1-3.38.19-.57-.22-1.29-.81-1.42-.63-.14-1.22.19-1.42.81-.37,1.13-.73,2.25-1.1,3.38.37-.28.74-.57,1.11-.85h-3.55c-.49,0-1,.36-1.11.85-.12.54.1.99.53,1.3.96.7,1.91,1.39,2.87,2.09-.18-.43-.35-.87-.53-1.3-.37,1.13-.73,2.25-1.1,3.38-.29.91.87,1.9,1.7,1.3.96-.7,1.91-1.39,2.87-2.09h-1.17c.96.7,1.91,1.39,2.87,2.09.82.59,1.99-.39,1.7-1.3-.37-1.13-.73-2.25-1.1-3.38-.18.43-.35.87-.53,1.3.96-.7,1.91-1.39,2.87-2.09.42-.31.68-.77.53-1.3-.13-.49-.61-.85-1.11-.85h-3.55c.37.28.74.57,1.11.85-.37-1.13-.73-2.25-1.1-3.38-.19-.59-.8-.98-1.42-.81-.58.16-1,.83-.81,1.42"/>
      </g>
    </g>
  </g>
</svg>