<?xml version="1.0" encoding="UTF-8"?>
<svg id="Livello_2" data-name="Livello 2" xmlns="http://www.w3.org/2000/svg" xmlns:xlink="http://www.w3.org/1999/xlink" viewBox="0 0 143.57 111.7">
  <defs>
    <style>
      .cls-1, .cls-2, .cls-3 {
        fill: none;
      }

      .cls-2 {
        clip-path: url(#clippath);
      }

      .cls-3 {
        clip-path: url(#clippath-1);
      }

      .cls-4 {
        fill: #1d1d1c;
      }
    </style>
    <clipPath id="clippath">
      <rect class="cls-1" width="143.57" height="111.7"/>
    </clipPath>
    <clipPath id="clippath-1">
      <rect class="cls-1" width="143.57" height="111.7"/>
    </clipPath>
  </defs>
  <g id="cyclette">
    <g class="cls-2">
      <g class="cls-3">
        <path class="cls-4" d="m113.51,84.93c.49-2.04.99-4.08,1.48-6.12,1.19-4.9,2.37-9.81,3.56-14.71,1.43-5.93,2.87-11.86,4.3-17.8,1.24-5.13,2.48-10.26,3.72-15.38.41-1.69.82-3.38,1.23-5.07.19-.8.44-1.6.58-2.41,0-.03.02-.07.03-.1-.17.3-.35.59-.52.89,4.41-4.06,8.83-8.11,13.24-12.17.61-.56,1.23-1.13,1.84-1.69.63-.58.78-1.72.32-2.44-1.5-2.31-2.99-4.62-4.49-6.93-.72-1.11-2.19-1.33-3.17-.41-3.81,3.57-7.62,7.14-11.43,10.72-.54.51-1.08,1.01-1.62,1.52.48-.2.95-.39,1.43-.59-2.75-.05-5.51-.09-8.26-.14-4.39-.07-8.78-.15-13.18-.22-1.01-.02-2.02-.03-3.03-.05-1.09-.02-2.02.94-2.02,2.02v8.97c0,1.09.92,2.02,2.02,2.02h19.98c-.65-.85-1.3-1.7-1.95-2.55-.5,2.04-1,4.07-1.51,6.11-1.21,4.91-2.42,9.82-3.63,14.74-1.46,5.92-2.92,11.85-4.38,17.77-1.27,5.14-2.53,10.28-3.8,15.42-.61,2.48-1.28,4.96-1.84,7.46,0,.04-.02.07-.03.1-.25,1.02.33,2.24,1.41,2.48,1.04.24,2.21-.31,2.48-1.41.5-2.04,1-4.07,1.51-6.11,1.21-4.91,2.42-9.82,3.63-14.74,1.46-5.92,2.92-11.85,4.38-17.77,1.27-5.14,2.53-10.28,3.8-15.42.61-2.48,1.28-4.96,1.84-7.46,0-.03.02-.07.03-.1.31-1.27-.61-2.55-1.95-2.55h-19.98l2.02,2.02v-8.97l-2.02,2.02c6.2.1,12.4.21,18.6.31,1.46.02,2.92.05,4.38.07,1.05.02,2.06.18,2.92-.57,2.1-1.84,4.09-3.83,6.12-5.74,2.31-2.16,4.61-4.32,6.92-6.48-1.06-.14-2.11-.27-3.17-.41,1.5,2.31,2.99,4.62,4.49,6.93.1-.81.21-1.63.32-2.44-4.5,4.14-9,8.27-13.51,12.41-.52.48-1.09.94-1.58,1.45-.46.48-.54.99-.68,1.58-.42,1.74-.84,3.49-1.27,5.23-1.64,6.77-3.28,13.55-4.92,20.32-1.84,7.59-3.67,15.18-5.51,22.77-1,4.13-2.07,8.26-3,12.4-.01.06-.03.12-.04.18-.25,1.02.32,2.24,1.41,2.48,1.04.24,2.22-.31,2.48-1.41"/>
        <path class="cls-4" d="m5.28,94.57c1.1-.07,2.2-.15,3.3-.22,2.99-.2,5.98-.4,8.97-.59,4.42-.29,8.84-.59,13.26-.88,5.39-.36,10.79-.71,16.18-1.07,5.88-.39,11.77-.78,17.65-1.17,5.96-.39,11.93-.79,17.89-1.18,5.56-.37,11.12-.74,16.68-1.1,4.7-.31,9.4-.62,14.09-.93,3.38-.22,6.75-.45,10.13-.67,1.59-.11,3.2-.15,4.79-.32.07,0,.14,0,.21-.01-.48-.2-.95-.39-1.43-.59.67.55,1.28,1.17,1.84,1.83.04.05.26.31.09.11-.16-.21.05.06.08.11.13.17.25.35.37.53.26.38.49.77.72,1.18.21.38.41.77.59,1.17.03.07.06.15.1.23.13.27-.11-.31-.01-.02.08.23.18.46.27.7.31.87.56,1.76.75,2.66.05.22.09.44.12.66.01.08.11.72.08.48-.03-.25.03.32.04.4.03.28.05.56.07.84.05.9.05,1.8-.02,2.69-.02.22-.04.44-.06.67-.01.11-.03.22-.04.33.06-.44.02-.14,0-.04-.08.46-.16.92-.27,1.38-.1.42-.22.84-.35,1.26-.06.18-.12.36-.18.54-.05.13-.36.85-.15.41-.4.86-.84,1.69-1.39,2.47-.06.09-.12.17-.19.25.29-.4-.02.02-.07.08-.15.18-.31.35-.47.52-.34.36-.7.69-1.09,1.01.48-.2.95-.39,1.43-.59H10.32c-1.61,0-3.23-.05-4.83,0-.07,0-.14,0-.21,0,.58.33,1.16.67,1.74,1-.49-.65-.94-1.31-1.35-2.01-.33-.57-.71-1.3-.87-1.74-.54-1.43-.76-2.44-.76-3.8,0-.32.01-.63.04-.95,0-.05.07-.56.04-.37-.03.17.07-.38.07-.37.14-.68.33-1.36.58-2.01.12-.32.12-.33.29-.68.17-.36.36-.71.56-1.06.42-.74.9-1.44,1.41-2.11.66-.87.14-2.26-.72-2.76-1.03-.6-2.1-.15-2.76.72-1.87,2.48-3.16,5.31-3.48,8.42-.3,2.92.54,5.88,1.95,8.42.71,1.28,1.68,3.22,3.28,3.33.03,0,.06,0,.09,0,.19,0,.38,0,.58,0h122.52c.21,0,.42,0,.63,0,.99-.02,1.71-.65,2.38-1.32,3.12-3.08,4.53-7.52,4.68-11.82.14-4.28-.96-8.85-3.43-12.39-.62-.9-1.32-1.76-2.11-2.52-.63-.6-1.3-1.24-2.21-1.26-.13,0-.26.02-.39.03-.75.05-1.49.1-2.24.15-3.18.21-6.36.42-9.54.63-4.93.33-9.87.65-14.81.98-6.04.4-12.09.8-18.14,1.2-6.58.44-13.16.87-19.74,1.31-6.46.43-12.91.86-19.37,1.28-5.74.38-11.49.76-17.23,1.14-4.42.29-8.84.59-13.26.88-2.49.16-4.98.33-7.46.49-.32.02-.64.04-.96.06-1.05.07-2.07.88-2.02,2.02.05,1.03.89,2.09,2.02,2.02"/>
      </g>
    </g>
  </g>
</svg>