<?xml version="1.0" encoding="UTF-8"?>
<svg id="Livello_2" data-name="Livello 2" xmlns="http://www.w3.org/2000/svg" xmlns:xlink="http://www.w3.org/1999/xlink" viewBox="0 0 150.99 84.21">
  <defs>
    <style>
      .cls-1, .cls-2, .cls-3 {
        fill: none;
      }

      .cls-2 {
        clip-path: url(#clippath);
      }

      .cls-3 {
        clip-path: url(#clippath-1);
      }

      .cls-4 {
        fill: #1d1d1c;
      }
    </style>
    <clipPath id="clippath">
      <rect class="cls-1" width="150.99" height="84.21"/>
    </clipPath>
    <clipPath id="clippath-1">
      <rect class="cls-1" width="150.99" height="84.21"/>
    </clipPath>
  </defs>
  <g id="Livello_64" data-name="Livello 64">
    <g class="cls-2">
      <g class="cls-3">
        <path class="cls-4" d="m62.44,71.22H10.31c-.35,0-.69,0-1.04,0-.02,0-.04,0-.06,0-.11,0-.23-.01-.34-.02-.16,0-.32-.02-.48-.04-.06,0-.69-.09-.33-.03-.51-.08-1.01-.18-1.5-.34-.12-.04-.25-.08-.37-.12-.07-.02-.46-.19-.08-.02-.25-.11-.5-.23-.74-.38-.2-.12-.38-.24-.56-.38.37.26-.08-.09-.17-.17-.16-.15-.29-.31-.44-.47.29.32.06.08,0-.01-.08-.12-.16-.24-.23-.36-.11-.19-.2-.38-.29-.58.2.43-.04-.14-.07-.24-.07-.22-.13-.44-.18-.67-.03-.12-.05-.23-.07-.35-.01-.08-.03-.16-.04-.24.03.23.03.25.01.07-.05-.71-.05-1.43-.05-2.14v-32.2c0-.35-.01-.71,0-1.06,0-.07.02-.14.01-.21,0-.28-.1.43-.02.16.04-.13.05-.26.09-.39.01-.04.12-.29.11-.31.06.13-.2.4-.06.15.04-.08.08-.16.13-.24.07-.12.15-.22.22-.34.14-.24-.28.31-.09.11.05-.05.09-.11.14-.16.19-.22.41-.4.63-.59.22-.2-.34.24-.09.07.06-.04.12-.09.19-.13.13-.09.26-.17.4-.25.28-.17.57-.32.87-.46.03-.01.21-.12.23-.1-.06-.03-.39.15-.07.03.17-.06.33-.13.5-.19.35-.12.7-.23,1.05-.32.37-.1.74-.18,1.12-.26.16-.03.32-.06.48-.09.1-.02.19-.03.29-.05.12-.02.57-.13.06-.01.77-.18,1.65-.16,2.43-.17.82-.01,1.64.01,2.45.09.2.02.4.04.6.06.11.01.47.03-.04,0,.1,0,.2.03.3.04.39.06.77.13,1.15.21.72.16,1.44.36,2.13.62.08.03.16.07.24.1.31.11-.36-.17-.07-.03.15.07.31.14.46.21.29.14.57.3.84.48.12.08.25.22.38.26-.31-.11-.25-.21-.09-.07.06.05.11.09.17.14.05.04.6.6.58.61-.06.04-.26-.39-.09-.11.04.06.08.11.11.17.07.11.13.23.19.35.19.33-.12-.41,0,0,.04.14.08.28.12.42.12.47,0-.34,0,.04,0,.09,0,.19.01.28,0,.04,0,.07,0,.11,0,.22,0,.45,0,.67v26.17c0,.88.75,1.63,1.63,1.63h34.58c1.59,0,3.2.05,4.79,0,.02,0,.04,0,.07,0,.85,0,1.67-.75,1.63-1.63-.04-.88-.72-1.63-1.63-1.63H27.86c-1.59,0-3.21-.1-4.79,0-.02,0-.04,0-.07,0l1.63,1.63v-26.46c0-.72-.03-1.44-.26-2.13-1.03-2.98-4.3-4.39-7.16-5.01-3.37-.72-7-.7-10.35.14-2.73.69-6.04,2.27-6.68,5.31-.29,1.35-.14,2.84-.14,4.2v27.59c0,1.49-.1,3.04.04,4.53.19,2.14.96,4.25,2.68,5.64,1.81,1.45,4.16,2.04,6.46,2.09.93.02,1.85,0,2.78,0h50.45c.85,0,1.67-.75,1.63-1.63-.04-.88-.72-1.63-1.63-1.63"/>
        <path class="cls-4" d="m62.44,44.97H27.86c-1.59,0-3.2-.05-4.79,0-.02,0-.04,0-.07,0-.85,0-1.67.75-1.63,1.63.04.88.72,1.63,1.63,1.63h34.58c1.59,0,3.2.05,4.79,0,.02,0,.04,0,.07,0,.85,0,1.67-.75,1.63-1.63-.04-.88-.72-1.63-1.63-1.63"/>
        <path class="cls-4" d="m15.73,26.1V8.67c0-.18.04-.42,0-.6,0,0,0-.03,0-.03,0,.08-.02.17-.02.25.02-.12.05-.24.07-.35.02-.11.05-.23.08-.34.15-.62.34-1.23.55-1.83.15-.44-.09.18.03-.07.05-.1.09-.21.14-.31.1-.21.22-.42.34-.62.06-.1.47-.65.19-.31.14-.17.29-.34.45-.49.08-.07.16-.14.24-.21.1-.09.2-.07-.08.06.18-.09.35-.22.52-.32.04-.02.14-.08.18-.09-.38.04-.17.06-.01.02.2-.06.4-.1.59-.15.34-.09-.38,0-.02,0,.07,0,.14-.01.21-.01.22,0,.44,0,.66.01.08,0,.15.02.23.02-.71-.06.61.06.35.05,0,0,0,0,.01,0,.09,0,.18,0,.27,0h30.32c3.74,0,7.49.07,11.24,0,.06,0,.12,0,.18,0,.85,0,1.67-.75,1.63-1.63-.04-.88-.72-1.63-1.63-1.63H21.08c-.17,0-.34,0-.51,0-.52.02.91.12-.38-.03-1.91-.23-3.86.4-5.17,1.84-.77.84-1.29,1.82-1.71,2.87-.4,1.01-.8,2.2-.85,3.29-.03.6,0,1.2,0,1.8v16.25c0,.85.75,1.67,1.63,1.63.88-.04,1.63-.72,1.63-1.63"/>
        <path class="cls-4" d="m62.44,74.48h78.73c2.98,0,6.22-.69,8.13-3.16,1.8-2.32,1.68-5.18,1.68-7.95v-30.6c0-.52.03-1.04-.02-1.56-.18-1.9-1.31-3.36-2.85-4.42-1.47-1.01-3.29-1.57-5.03-1.9-2.02-.38-4.09-.5-6.14-.35-1.94.15-3.91.49-5.72,1.23-1.65.68-3.28,1.67-4.17,3.28-.52.95-.67,1.95-.67,3.01v26.5l1.63-1.63h-57.49c-2.65,0-5.32-.07-7.97,0-.04,0-.08,0-.11,0-.85,0-1.67.75-1.63,1.63.04.88.72,1.63,1.63,1.63h57.49c2.65,0,5.32.07,7.97,0,.04,0,.08,0,.11,0,.88,0,1.63-.75,1.63-1.63v-26.39c0-.18,0-.37,0-.55,0-.08,0-.17,0-.25,0-.31.11,0-.02.13.03-.03.04-.22.05-.26.03-.14.08-.28.12-.41.09-.31-.17.32-.05.11.04-.08.08-.16.12-.24.08-.14.17-.26.25-.4.13-.21-.26.29-.09.11.06-.07.12-.14.18-.21.11-.12.23-.24.36-.35.06-.06.13-.11.2-.17.25-.22-.32.22-.03.03.31-.21.61-.41.94-.58.17-.09.35-.17.52-.26.22-.11.2-.03-.03.01.11-.02.22-.09.33-.13.81-.31,1.66-.53,2.51-.7.22-.04.45-.08.68-.12.11-.02.23-.03.34-.05.18-.03-.2.03-.19.02.05-.03.19-.02.25-.03.47-.05.94-.09,1.41-.12.97-.05,1.95-.04,2.91.04.24.02.47.04.71.07.12.01.23.03.35.04.19.02-.2-.02-.19-.03.07,0,.17.02.25.04.45.07.9.15,1.34.25.44.1.88.22,1.31.35.19.06.37.12.55.19.1.04.19.07.29.11.37.14-.21-.11,0,0,.35.17.7.33,1.03.53.16.09.31.19.46.3.06.04.32.25.08.05-.24-.2.05.04.09.08.12.1.23.21.34.32.08.08.43.5.24.26-.19-.24.1.16.16.26.04.07.08.14.11.21.02.03.03.06.04.09.12.21-.13-.05-.07-.18-.03.05.12.34.14.41.02.08.03.15.05.23.09.35,0-.3,0-.1,0,.13.01.26.02.39.02,1.92,0,3.84,0,5.76v22.7c0,1.73-.02,3.45,0,5.18,0,.53,0,1.05-.05,1.57-.02.3.05-.28-.02.11-.02.14-.05.27-.08.41-.06.28-.14.56-.23.83-.04.11-.21.47-.02.08-.05.1-.09.2-.14.3-.12.24-.26.47-.41.69-.22.33.16-.15-.04.05-.09.09-.17.19-.25.28-.09.09-.18.18-.27.26-.04.04-.09.07-.12.11-.14.14.32-.22.02-.02-.2.14-.41.28-.63.4-.12.07-.24.13-.37.19-.07.03-.15.07-.22.1.11-.05.23-.08.04-.02-.61.2-1.21.36-1.84.48-.31.06-.08.02-.01,0-.08.01-.15.02-.23.03-.18.02-.37.04-.55.05-.17.01-.33.02-.5.03-.02,0-.04,0-.06,0-1.04.02-2.08,0-3.13,0H62.44c-.85,0-1.67.75-1.63,1.63.04.88.72,1.63,1.63,1.63"/>
        <path class="cls-4" d="m62.44,48.22h57.49c2.65,0,5.32.07,7.97,0,.04,0,.08,0,.11,0,.85,0,1.67-.75,1.63-1.63-.04-.88-.72-1.63-1.63-1.63h-57.49c-2.65,0-5.32-.07-7.97,0-.04,0-.08,0-.11,0-.85,0-1.67.75-1.63,1.63.04.88.72,1.63,1.63,1.63"/>
        <path class="cls-4" d="m138.55,26.1v-12.53c0-1.79.04-3.59,0-5.39-.03-1.52-.67-3.23-1.35-4.57-.8-1.56-2.11-2.85-3.81-3.37-.78-.24-1.63-.3-2.44-.21-.2.02-.41.03-.61.08-.18.05,0-.12.26-.03,0,0,0,0,0,0-.01,0-.03,0-.04,0-.15-.02-.32,0-.47,0H38.27c-.85,0-1.67.75-1.63,1.63.04.88.72,1.63,1.63,1.63h87.29c1.65,0,3.3.05,4.94,0,.03,0,.07,0,.1,0h0c.45-.02.29-.05.55-.08-.04,0-.38.03-.09.02.31-.02.8-.12,1.09,0-.38-.16-.17-.03-.02,0,.07.02.13.03.2.05.13.03.38.07.48.15-.01,0-.36-.19-.11-.04.07.04.15.08.22.12.11.06.59.42.23.12.25.21.48.44.7.69.24.27-.11-.21,0,0,.04.09.12.17.17.25.13.19.24.4.35.6.09.18.18.36.26.55-.13-.3,0,0,.02.08.04.12.09.23.13.35.18.52.32,1.04.44,1.58.03.11.04.23.07.35.11.42-.05,0,.01-.07,0,0,0,.02,0,.03-.01.06,0,.14,0,.19v17.84c0,.85.75,1.67,1.63,1.63.88-.04,1.63-.72,1.63-1.63"/>
        <path class="cls-4" d="m12.47,72.85v9.3c0,.88.75,1.63,1.63,1.63h8.91c.88,0,1.63-.75,1.63-1.63v-8.88c0-.85-.75-1.67-1.63-1.63-.88.04-1.63.72-1.63,1.63v8.88l1.63-1.63h-8.91c.54.54,1.09,1.09,1.63,1.63v-9.3c0-.85-.75-1.67-1.63-1.63-.88.04-1.63.72-1.63,1.63"/>
        <path class="cls-4" d="m126.39,73.28v9.3c0,.88.75,1.63,1.63,1.63h8.91c.88,0,1.63-.75,1.63-1.63v-8.88c0-.85-.75-1.67-1.63-1.63-.88.04-1.63.72-1.63,1.63v8.88l1.63-1.63h-8.91l1.63,1.63v-9.3c0-.85-.75-1.67-1.63-1.63-.88.04-1.63.72-1.63,1.63"/>
      </g>
    </g>
  </g>
</svg>