<?xml version="1.0" encoding="UTF-8"?>
<svg id="Livello_2" data-name="Livello 2" xmlns="http://www.w3.org/2000/svg" xmlns:xlink="http://www.w3.org/1999/xlink" viewBox="0 0 111.31 112.84">
  <defs>
    <style>
      .cls-1, .cls-2, .cls-3 {
        fill: none;
      }

      .cls-2 {
        clip-path: url(#clippath);
      }

      .cls-3 {
        clip-path: url(#clippath-1);
      }

      .cls-4 {
        fill: #1d1d1c;
      }
    </style>
    <clipPath id="clippath">
      <rect class="cls-1" y="0" width="111.31" height="112.84"/>
    </clipPath>
    <clipPath id="clippath-1">
      <rect class="cls-1" y="0" width="111.31" height="112.84"/>
    </clipPath>
  </defs>
  <g id="dondolo">
    <g class="cls-2">
      <g class="cls-3">
        <path class="cls-4" d="m101.37,70.95c-2.23-1.97-4.57-4-7.51-4.77-1.7-.45-3.45-.43-5.17-.07-.96.21-1.86.58-2.77.96.53-.22-.29.12-.43.18-.34.14-.68.28-1.02.41-4.38,1.75-8.89,3.2-13.5,4.23-1.12.25-2.25.48-3.39.68-.53.09-1.06.18-1.59.26-.23.03-.47.07-.7.1-.59.09.42-.05.04,0-.17.02-.35.05-.52.07-2.14.26-4.29.42-6.44.45-2.04.03-4.08-.06-6.11-.27-.24-.03-.48-.05-.72-.08-.13-.02-.27-.03-.4-.05.05,0,.61.09.18.02-.53-.08-1.06-.16-1.58-.25-.96-.17-1.91-.38-2.86-.62-.94-.24-1.86-.5-2.78-.81-.44-.15-.88-.3-1.32-.46-.22-.08-.43-.16-.65-.25-.16-.06-1.07-.41-.34-.13-1.76-.68-3.46-1.64-5.05-2.64-.81-.51-1.6-1.05-2.37-1.63-.1-.08-.21-.16-.31-.24.04.03.45.36.13.1-.18-.15-.37-.29-.55-.44-.39-.32-.76-.64-1.14-.98-1.51-1.35-2.9-2.83-4.17-4.4-.1-.12-.59-.78-.18-.22-.15-.2-.3-.4-.45-.6-.32-.43-.63-.87-.93-1.32-.62-.92-1.2-1.86-1.75-2.82-.54-.95-1.04-1.91-1.52-2.89-.24-.51-.48-1.02-.7-1.53-.06-.14-.12-.29-.19-.43-.17-.35.23.55-.01-.03-.12-.3-.24-.59-.36-.89-1.95-4.94-3.18-10.14-3.95-15.38-.03-.19-.06-.39-.08-.59-.01-.08-.06-.48,0-.05-.05-.36-.09-.72-.13-1.07-.09-.77-.17-1.54-.25-2.32-.15-1.61-.26-3.22-.34-4.84-.09-1.8-.09-3.57-.4-5.35-.27-1.56-.62-3.11-1.09-4.62-1.64-5.35-4.63-10.16-9.29-13.36-.96-.66-1.97-1.22-3.02-1.7C2.48-.26,1.04-.05.32,1.18-.3,2.24-.02,3.99,1.2,4.55c1.08.5,2.12,1.07,3.1,1.75.21.14.41.29.61.44-.51-.38.28.24.38.32.46.39.89.8,1.31,1.24.38.4.73.81,1.09,1.23.41.48-.18-.28.04.05.09.14.2.27.29.4.2.27.38.55.57.84.34.53.65,1.07.95,1.62.15.28.3.57.44.86.06.13.12.26.19.4.03.07.29.66.19.42-.14-.33.14.36.13.33.06.14.11.29.17.43.12.33.24.66.35.99.25.73.46,1.47.66,2.22.19.75.36,1.51.51,2.27.08.4.15.8.22,1.2.1.63.06.55.08,1.11.08,3.16.28,6.31.64,9.44,1.17,10.17,3.83,20.53,9.76,29.03,4.82,6.91,11.52,12.09,19.5,14.84,8.12,2.8,16.91,2.86,25.31,1.55,4.54-.71,9-1.87,13.34-3.34,1.17-.4,2.34-.82,3.49-1.26,1.22-.47,2.64-1.08,3.67-1.49.5-.2,1.48-.52,2.22-.64.45-.08-.54,0,.21-.02.16,0,.32-.02.48-.02.16,0,.31,0,.47,0,.07,0,.79.1.25,0,.33.06.65.13.97.22.14.04.99.36.53.16.66.29,1.29.65,1.88,1.06.24.16.48.33.71.51-.38-.28.33.27.44.36.53.44,1.05.9,1.57,1.36,1,.88,2.51.98,3.49,0,.9-.9,1-2.6,0-3.49"/>
        <path class="cls-4" d="m19.18,48.78c13.64-2.3,26.76-4.26,40.59-5.17,4.74-.31,9.5-.49,14.25-.33,1.89.06,3.78.18,5.66.39.37.04.81.16,1.18.14-.73.04-.26-.03.04,0,.22.03.45.07.67.1.73.12,1.46.26,2.18.42.72.16,1.43.35,2.13.56.34.1.67.22,1,.34.14.05.29.11.43.16.08.03.17.07.25.1.35.13-.62-.28-.27-.11.52.25,1.04.49,1.53.78.24.14.46.3.69.45.39.27.04.09-.16-.13.09.1.22.18.32.27,1,.87,2.5.99,3.49,0,.89-.89,1.01-2.61,0-3.49-1.95-1.7-4.37-2.71-6.85-3.39-3.36-.91-6.88-1.27-10.34-1.46-10.67-.59-21.46.48-32.04,1.76-8.72,1.05-17.4,2.37-26.05,3.83-1.31.22-2.05,1.84-1.72,3.03.38,1.39,1.72,1.94,3.03,1.72"/>
        <path class="cls-4" d="m73.2,42.93c-.79,3.54-1.58,7.07-2.36,10.6-1.25,5.6-2.5,11.21-3.75,16.81-.29,1.29-.58,2.59-.87,3.88-.28,1.26.38,2.73,1.72,3.03,1.25.28,2.73-.38,3.03-1.72.79-3.53,1.58-7.07,2.36-10.6,1.25-5.61,2.5-11.21,3.75-16.81.29-1.29.58-2.59.87-3.88.28-1.26-.38-2.73-1.72-3.03-1.25-.28-2.73.38-3.03,1.72"/>
        <path class="cls-4" d="m8.43,95.37c10.45,9.27,23.86,14.57,37.6,16.51,14.26,2.01,28.96.87,42.74-3.3,7.47-2.26,14.72-5.42,21.33-9.58,1.13-.71,1.57-2.2.88-3.37-.66-1.12-2.24-1.6-3.37-.88-2.82,1.78-5.76,3.37-8.78,4.78-.68.32-1.37.63-2.06.93-.21.09-.42.18-.63.27.49-.21-.21.08-.25.1-.42.17-.84.34-1.27.51-1.56.62-3.15,1.19-4.74,1.72-3.23,1.07-6.52,1.97-9.85,2.7-1.76.38-3.52.72-5.29,1-.77.12-1.55.24-2.32.35.54-.07-.23.03-.28.04-.23.03-.47.06-.7.09-.47.06-.93.11-1.4.16-6.87.73-13.83.75-20.7,0-.42-.05-.85-.1-1.27-.15.03,0-.72-.09-.36-.05.36.05-.39-.05-.36-.05-.92-.13-1.83-.27-2.74-.43-1.66-.29-3.31-.63-4.95-1.02-3.24-.77-6.43-1.74-9.53-2.92-.42-.16-.84-.32-1.25-.49-.21-.08-.41-.17-.62-.25-.27-.11-.28-.11-.03-.01-.14-.06-.27-.12-.41-.18-.82-.36-1.63-.73-2.44-1.11-1.66-.8-3.3-1.67-4.89-2.61-1.58-.94-3.12-1.94-4.6-3.02-.36-.26-.71-.52-1.06-.79-.56-.42.23.18-.11-.08-.2-.16-.4-.32-.6-.48-.74-.6-1.47-1.21-2.18-1.84-1-.88-2.51-.98-3.49,0-.9.9-1,2.6,0,3.49"/>
        <path class="cls-4" d="m75.07,73.4c.92,3.84,1.84,7.67,2.76,11.5,1.48,6.14,2.95,12.29,4.43,18.43.34,1.41.68,2.81,1.01,4.22.31,1.3,1.78,2.07,3.03,1.72,1.32-.36,2.03-1.73,1.72-3.03-.92-3.83-1.84-7.67-2.76-11.5-1.48-6.14-2.95-12.29-4.43-18.43-.34-1.41-.68-2.81-1.01-4.22-.31-1.29-1.78-2.07-3.03-1.72-1.32.36-2.03,1.73-1.72,3.03"/>
        <path class="cls-4" d="m26.25,102.66c.98-3.82,1.96-7.64,2.94-11.46,1.57-6.12,3.15-12.24,4.72-18.35.36-1.4.72-2.8,1.08-4.2.32-1.25-.41-2.73-1.72-3.03-1.28-.29-2.69.39-3.03,1.72-.98,3.82-1.96,7.64-2.94,11.46l-4.72,18.35c-.36,1.4-.72,2.8-1.08,4.2-.32,1.25.41,2.73,1.72,3.03,1.28.29,2.69-.39,3.03-1.72"/>
      </g>
    </g>
  </g>
</svg>