<?xml version="1.0" encoding="UTF-8"?>
<svg id="Livello_2" data-name="Livello 2" xmlns="http://www.w3.org/2000/svg" xmlns:xlink="http://www.w3.org/1999/xlink" viewBox="0 0 116.09 75.89">
  <defs>
    <style>
      .cls-1, .cls-2, .cls-3 {
        fill: none;
      }

      .cls-2 {
        clip-path: url(#clippath);
      }

      .cls-3 {
        clip-path: url(#clippath-1);
      }

      .cls-4 {
        fill: #1d1d1c;
      }
    </style>
    <clipPath id="clippath">
      <rect class="cls-1" width="116.09" height="75.89"/>
    </clipPath>
    <clipPath id="clippath-1">
      <rect class="cls-1" width="116.09" height="75.89"/>
    </clipPath>
  </defs>
  <g id="freezer_ext" data-name="freezer ext">
    <g class="cls-2">
      <g class="cls-3">
        <path class="cls-4" d="m3.17,65.28V10.09c0-1.39,0-2.78,0-4.16,0-.03,0-.06,0-.1,0-.03,0-.06,0-.09,0-.09.07-.54.01-.28.04-.2.1-.39.15-.59.07-.26-.06.06.07-.17.09-.15.17-.3.26-.45.09-.15,0,0-.03.02.06-.08.13-.15.19-.22.12-.13.24-.24.37-.35.19-.16-.18.11.03-.02.06-.04.12-.08.19-.12.13-.08.26-.15.39-.21-.24.11.18-.05.26-.07.07-.02.15-.04.22-.06.43-.12-.14,0,.11-.03.28-.03.55-.02.83-.02h101.63c.78,0,1.57,0,2.35,0,.01,0,.02,0,.04,0,.11,0,.21,0,.32.01.01,0,.26.04.1,0-.18-.03.13.03.17.04.15.04.29.08.43.13.17.06,0,0-.03-.02.11.05.22.11.33.17.06.04.44.29.23.13.12.09.22.19.33.3.05.05.1.11.15.16.03.03.21.27.11.13-.05-.07.15.25.2.33.05.09.09.18.14.27-.01-.03-.08-.2-.02-.03.06.17.1.34.15.51.08.27.02-.1.03.19,0,.11,0,.21.01.32,0,.29,0,.59,0,.88v57.15c0,.45,0,.9,0,1.34,0,.03,0,.05,0,.08,0,.13,0,.27-.02.4-.02.26.05-.22-.01.04-.02.07-.03.15-.05.22-.02.07-.04.15-.06.22-.02.05-.15.36-.03.11-.06.14-.13.27-.21.39-.05.08-.11.17-.16.25.02-.02.14-.17.02-.03-.09.11-.2.22-.3.32-.07.07-.14.13-.22.2-.19.16.18-.11-.03.02-.15.09-.3.18-.45.26-.23.14.09,0-.17.07-.17.05-.34.1-.51.14-.18.04,0,0,.04,0-.13.02-.26.02-.39.02-.64.02-1.29,0-1.93,0H6.54c-.23,0-.46,0-.69,0-.01,0-.03,0-.04,0-.04,0-.12,0-.16,0-.1,0-.21,0-.31-.02.03,0,.22.04.04,0-.17-.04-.34-.09-.51-.14-.26-.08.06.06-.17-.07-.15-.09-.3-.17-.45-.26-.15-.09,0,0,.02.03-.06-.05-.11-.09-.17-.14-.13-.12-.24-.24-.36-.37,0,0-.15-.2-.06-.07.11.14-.07-.11-.09-.14-.08-.13-.15-.26-.22-.39-.08-.16,0,0,.01.04-.04-.09-.07-.19-.1-.29-.04-.15-.08-.29-.11-.44.06.27-.01-.27-.01-.36-.02-.86-.72-1.59-1.59-1.59S-.01,64.42,0,65.28c.06,3.2,2.61,5.77,5.82,5.81.19,0,.39,0,.58,0h102.21c1.04,0,2.14.07,3.15-.19,2.57-.68,4.29-3.05,4.32-5.67,0-.41,0-.82,0-1.23V6.6c0-.36.02-.73-.01-1.1-.23-3.08-2.72-5.45-5.81-5.5-.72-.01-1.44,0-2.16,0H6.15C5.44,0,4.71.05,4.03.29,1.61,1.11.02,3.34,0,5.89,0,7.22,0,8.56,0,9.9v55.38c0,.86.73,1.59,1.59,1.59s1.59-.73,1.59-1.59"/>
        <path class="cls-4" d="m1.59,17.99h108.33c1.46,0,2.93.02,4.39,0,.06,0,.13,0,.19,0,.86,0,1.59-.73,1.59-1.59s-.73-1.59-1.59-1.59H6.17c-1.46,0-2.93-.02-4.39,0-.06,0-.13,0-.19,0C.73,14.82,0,15.55,0,16.4s.73,1.59,1.59,1.59"/>
        <path class="cls-4" d="m48.78,11.75h18.52c.83,0,1.62-.73,1.59-1.59-.04-.86-.7-1.59-1.59-1.59h-18.52c-.83,0-1.62.73-1.59,1.59.04.86.7,1.59,1.59,1.59"/>
        <path class="cls-4" d="m56.99,28.8v27.92c0,.83.73,1.62,1.59,1.59.86-.04,1.59-.7,1.59-1.59v-27.92c0-.83-.73-1.62-1.59-1.59-.86.04-1.59.7-1.59,1.59"/>
        <path class="cls-4" d="m71.06,48.37c-2.76-1.6-5.51-3.2-8.27-4.8-4.39-2.55-8.78-5.1-13.16-7.65-1-.58-2-1.16-3-1.74-.74-.43-1.74-.17-2.17.57-.43.74-.17,1.74.57,2.17,2.76,1.6,5.51,3.2,8.27,4.8,4.39,2.55,8.77,5.1,13.16,7.65,1,.58,2,1.16,3,1.74.74.43,1.74.17,2.17-.57.43-.74.17-1.74-.57-2.17"/>
        <path class="cls-4" d="m69.46,34.18l-8.27,4.8c-4.39,2.55-8.78,5.1-13.16,7.65-1,.58-2,1.16-3,1.74-.74.43-1,1.43-.57,2.17.43.74,1.43,1,2.17.57,2.76-1.6,5.51-3.2,8.27-4.8,4.39-2.55,8.78-5.1,13.16-7.65,1-.58,2-1.16,3-1.74.74-.43,1-1.43.57-2.17-.43-.74-1.43-1-2.17-.57"/>
        <path class="cls-4" d="m48.95,34.57l1.24,4.82c.37-.65.74-1.3,1.11-1.95-1.5.49-3,.97-4.5,1.46-.79.26-1.38,1.11-1.11,1.95.25.79,1.11,1.38,1.95,1.11,1.5-.49,3-.97,4.5-1.46.82-.27,1.33-1.09,1.11-1.95l-1.24-4.82c-.21-.8-1.14-1.37-1.95-1.11-.83.27-1.33,1.09-1.11,1.95"/>
        <path class="cls-4" d="m53.08,32.48c1.46,1.4,2.91,2.79,4.37,4.19.59.57,1.66.65,2.24,0,1.26-1.4,2.52-2.79,3.78-4.19.56-.62.65-1.64,0-2.24-.61-.56-1.65-.66-2.24,0-1.26,1.4-2.52,2.79-3.78,4.19h2.24c-1.46-1.4-2.91-2.79-4.37-4.19-.6-.57-1.65-.64-2.24,0-.57.62-.64,1.63,0,2.24"/>
        <path class="cls-4" d="m64.54,33.73c-.5,1.57-1,3.13-1.5,4.7-.26.82.31,1.73,1.11,1.95,1.66.46,3.32.92,4.97,1.38.24.07.48.13.72.2.8.22,1.76-.27,1.95-1.11.19-.84-.25-1.71-1.11-1.95l-4.97-1.38c-.24-.07-.48-.13-.72-.2.37.65.74,1.3,1.11,1.95.5-1.57,1-3.14,1.5-4.7.25-.79-.3-1.77-1.11-1.95-.87-.2-1.68.26-1.95,1.11"/>
        <path class="cls-4" d="m69.84,43.56l-4.98,1.18c-.24.06-.48.11-.71.17-.81.19-1.36,1.16-1.11,1.95.58,1.8,1.16,3.6,1.74,5.4.25.79,1.11,1.38,1.95,1.11.79-.26,1.38-1.1,1.11-1.95-.58-1.8-1.16-3.6-1.74-5.4-.37.65-.74,1.3-1.11,1.95,1.66-.39,3.32-.79,4.98-1.18.24-.06.48-.11.71-.17.81-.19,1.36-1.16,1.11-1.95-.27-.84-1.08-1.31-1.95-1.11"/>
        <path class="cls-4" d="m63.47,53.04c-1.26-1.16-2.52-2.33-3.78-3.49-.68-.63-1.55-.55-2.24,0-1.46,1.16-2.91,2.33-4.37,3.49-.65.52-.58,1.71,0,2.24.69.63,1.55.56,2.24,0,1.46-1.16,2.91-2.33,4.37-3.49h-2.24c1.26,1.16,2.52,2.33,3.78,3.49.61.56,1.65.65,2.24,0,.56-.61.65-1.64,0-2.24"/>
        <path class="cls-4" d="m52.01,52.26c.41-1.84.83-3.68,1.24-5.52.19-.83-.25-1.72-1.11-1.95-1.5-.41-3-.82-4.5-1.23-.8-.22-1.76.27-1.95,1.11-.19.84.25,1.72,1.11,1.95,1.5.41,3,.82,4.5,1.23-.37-.65-.74-1.3-1.11-1.95-.41,1.84-.83,3.68-1.24,5.52-.18.81.25,1.75,1.11,1.95.8.18,1.76-.24,1.95-1.11"/>
        <path class="cls-4" d="m12.71,72.72h-6.89l1.59,1.59v-4.79l-1.59,1.59h6.89l-1.59-1.59v4.79c0,.83.73,1.62,1.59,1.59.86-.04,1.59-.7,1.59-1.59v-4.79c0-.86-.73-1.59-1.59-1.59h-6.89c-.86,0-1.59.73-1.59,1.59v4.79c0,.86.73,1.59,1.59,1.59h6.89c.83,0,1.62-.73,1.59-1.59-.04-.86-.7-1.59-1.59-1.59"/>
        <path class="cls-4" d="m109.79,72.72h-6.89l1.59,1.59v-4.79l-1.59,1.59h6.89l-1.59-1.59v4.79c0,.83.73,1.62,1.59,1.59.86-.04,1.59-.7,1.59-1.59v-4.79c0-.86-.73-1.59-1.59-1.59h-6.89c-.86,0-1.59.73-1.59,1.59v4.79c0,.86.73,1.59,1.59,1.59h6.89c.83,0,1.62-.73,1.59-1.59-.04-.86-.7-1.59-1.59-1.59"/>
      </g>
    </g>
  </g>
</svg>