<?xml version="1.0" encoding="UTF-8"?>
<svg id="Livello_2" data-name="Livello 2" xmlns="http://www.w3.org/2000/svg" xmlns:xlink="http://www.w3.org/1999/xlink" viewBox="0 0 138.72 130.7">
  <defs>
    <style>
      .cls-1, .cls-2, .cls-3 {
        fill: none;
      }

      .cls-2 {
        clip-path: url(#clippath);
      }

      .cls-3 {
        clip-path: url(#clippath-1);
      }

      .cls-4 {
        fill: #1d1d1c;
      }
    </style>
    <clipPath id="clippath">
      <rect class="cls-1" x="0" width="138.72" height="130.7"/>
    </clipPath>
    <clipPath id="clippath-1">
      <rect class="cls-1" x="0" width="138.72" height="130.7"/>
    </clipPath>
  </defs>
  <g id="gazebo">
    <g class="cls-2">
      <g class="cls-3">
        <path class="cls-4" d="m70.76,2.38c.62,0,1.22-.55,1.19-1.19C71.93.55,71.43,0,70.76,0c-.62,0-1.22.55-1.19,1.19.03.64.52,1.19,1.19,1.19"/>
        <path class="cls-4" d="m138.13,29.74c-9.16-4.02-18.61-7.35-27.97-10.86-9.46-3.55-19-7.1-28-11.73-3.73-1.92-7.54-4.06-10.55-6.8-.47-.43-1.21-.47-1.68,0-2.78,2.79-6.11,4.89-9.57,6.88-4.47,2.57-9.12,4.8-13.8,6.93-10.31,4.69-20.86,8.84-31.21,13.44-5.01,2.22-10,4.53-14.75,7.26-1.33.76-.13,2.82,1.2,2.05,9.02-5.19,18.79-9.06,28.35-13.09,10.17-4.29,20.48-8.45,30.14-13.82,4.01-2.23,8.07-4.69,11.32-7.96h-1.68c2.81,2.55,6.1,4.53,9.43,6.32,4.2,2.26,8.55,4.2,12.94,6.05,9.83,4.14,19.89,7.72,29.87,11.49,4.96,1.87,9.91,3.77,14.76,5.9.59.26,1.28.17,1.63-.43.3-.51.16-1.37-.43-1.63"/>
        <path class="cls-4" d="m132.49,41.29v56.86c0,.77-.02,1.54,0,2.3,0,.03,0,.07,0,.1,0,.62.55,1.22,1.19,1.19.64-.03,1.19-.52,1.19-1.19v-56.86c0-.77.02-1.54,0-2.3,0-.03,0-.07,0-.1,0-.62-.55-1.22-1.19-1.19-.64.03-1.19.52-1.19,1.19"/>
        <path class="cls-4" d="m69.57,55.3v25.93c0,1.2-.04,2.41,0,3.6,0,.02,0,.03,0,.05,0,.62.55,1.22,1.19,1.19.64-.03,1.19-.52,1.19-1.19v-25.93c0-1.2.04-2.41,0-3.6,0-.02,0-.03,0-.05,0-.62-.55-1.22-1.19-1.19-.64.03-1.19.52-1.19,1.19"/>
        <rect class="cls-4" x="54.16" y="128.44" width="1.12" height="1.07"/>
        <path class="cls-4" d="m55.28,127.25h-1.12c-.16,0-.32.03-.46.1-.15.05-.28.13-.38.25-.06.08-.12.16-.19.24-.11.19-.16.39-.16.6v1.07c0,.16.03.32.1.46.05.15.13.28.25.38.08.06.16.12.24.19.19.11.39.16.6.16h1.12c.16,0,.32-.03.46-.1.15-.05.28-.13.38-.25.06-.08.12-.16.19-.24.11-.19.16-.39.16-.6v-1.07c0-.16-.03-.32-.1-.46-.05-.15-.13-.28-.25-.38-.11-.12-.24-.2-.38-.25-.14-.07-.29-.11-.46-.1-.11.01-.21.03-.32.04-.2.06-.38.16-.53.31-.06.08-.12.16-.19.24-.11.19-.16.39-.16.6v1.07l1.19-1.19h-1.12l1.19,1.19v-1.07l-1.19,1.19h1.12c.16,0,.32-.03.46-.1.15-.05.28-.13.38-.25.12-.11.2-.24.25-.38.07-.14.11-.29.1-.46-.01-.11-.03-.21-.04-.32-.06-.2-.16-.38-.31-.53-.08-.06-.16-.12-.24-.19-.19-.11-.39-.16-.6-.16"/>
        <polyline class="cls-4" points="54.16 128.44 53.09 129.51 54.16 129.51"/>
        <path class="cls-4" d="m53.32,127.6c-.31.31-.63.63-.94.94-.04.04-.09.09-.13.13-.06.08-.12.16-.19.24-.04.09-.08.19-.12.28-.01.11-.03.21-.04.32,0,.16.03.32.1.46.03.1.08.19.15.26.05.09.12.16.21.21.07.07.16.12.26.15.14.07.29.11.46.1h1.07c.16,0,.32-.03.46-.1.15-.05.28-.13.38-.25.12-.11.2-.24.25-.38.07-.14.11-.29.1-.46-.01-.11-.03-.21-.04-.32-.06-.2-.16-.38-.31-.52-.08-.06-.16-.12-.24-.19-.19-.11-.39-.16-.6-.16h-1.07l.84,2.03c.31-.31.63-.63.94-.94l.13-.13c.12-.11.2-.24.25-.38.07-.14.11-.29.1-.46,0-.16-.03-.32-.1-.46-.05-.15-.13-.28-.25-.38-.08-.06-.16-.12-.24-.19-.19-.11-.39-.16-.6-.16-.11.01-.21.03-.32.04-.2.06-.38.16-.53.31"/>
        <polyline class="cls-4" points="55.28 128.44 56.35 129.51 55.28 129.51"/>
        <path class="cls-4" d="m54.44,129.28c.31.31.63.63.94.94.04.04.09.09.13.13.28-.68.56-1.35.84-2.03h-1.07c-.16,0-.32.03-.46.1-.15.05-.28.13-.38.25-.12.11-.2.24-.25.38-.07.14-.11.29-.1.46.01.11.03.21.04.32.06.2.16.38.31.53.08.06.16.12.24.19.19.11.39.16.6.16h1.07c.11-.01.21-.03.32-.04.09-.04.19-.08.28-.12.08-.06.16-.12.24-.19.12-.11.2-.24.25-.38.05-.09.08-.19.08-.3.03-.11.03-.21,0-.32,0-.11-.03-.21-.08-.3-.05-.15-.13-.28-.25-.38-.31-.31-.63-.63-.94-.94-.04-.04-.09-.09-.13-.13-.11-.12-.24-.2-.38-.25-.14-.07-.29-.11-.46-.1-.16,0-.32.03-.46.1-.15.05-.28.13-.38.25-.06.08-.12.16-.19.24-.11.19-.16.39-.16.6.01.11.03.21.04.32.06.2.16.38.31.53"/>
        <rect class="cls-4" x="133.12" y="101.51" width="1.12" height="1.07"/>
        <path class="cls-4" d="m134.24,100.32h-1.12c-.16,0-.32.03-.46.1-.15.05-.28.13-.38.25-.06.08-.12.16-.19.24-.11.19-.16.39-.16.6v1.07c0,.16.03.32.1.46.05.15.13.28.25.38.08.06.16.12.24.19.19.11.39.16.6.16h1.12c.16,0,.32-.03.46-.1.15-.05.28-.13.38-.25.06-.08.12-.16.19-.24.11-.19.16-.39.16-.6v-1.07c0-.16-.03-.32-.1-.46-.05-.15-.13-.28-.25-.38-.11-.12-.24-.2-.38-.25-.14-.07-.29-.11-.46-.1-.11.01-.21.03-.32.04-.2.06-.38.16-.53.31-.06.08-.12.16-.19.24-.11.19-.16.39-.16.6v1.07l1.19-1.19h-1.12l1.19,1.19v-1.07l-1.19,1.19h1.12c.16,0,.32-.03.46-.1.15-.05.28-.13.38-.25.12-.11.2-.24.25-.38.07-.14.11-.29.1-.46-.01-.11-.03-.21-.04-.32-.06-.2-.16-.38-.31-.53-.08-.06-.16-.12-.24-.19-.19-.11-.39-.16-.6-.16"/>
        <polyline class="cls-4" points="133.12 101.51 132.05 102.58 133.12 102.58"/>
        <path class="cls-4" d="m132.28,100.67l-.94.94s-.09.09-.13.13c-.06.08-.12.16-.19.24-.04.09-.08.19-.12.28l-.04.32c0,.16.03.32.1.46.03.1.08.19.15.26.05.09.12.16.21.21.07.07.16.12.26.15.14.07.29.11.46.1h1.07c.16,0,.32-.03.46-.1.15-.05.28-.13.38-.25.12-.11.2-.24.25-.38.07-.14.11-.29.1-.46-.01-.11-.03-.21-.04-.32-.06-.2-.16-.38-.31-.52-.08-.06-.16-.12-.24-.19-.19-.11-.39-.16-.6-.16h-1.07c.28.68.56,1.35.84,2.03l.94-.94s.09-.09.13-.13c.12-.11.2-.24.25-.38.07-.14.11-.29.1-.46,0-.16-.03-.32-.1-.46-.05-.15-.13-.28-.25-.38-.08-.06-.16-.12-.24-.19-.19-.11-.39-.16-.6-.16-.11.01-.21.03-.32.04-.2.06-.38.16-.53.31"/>
        <polyline class="cls-4" points="134.24 101.51 135.31 102.58 134.24 102.58"/>
        <path class="cls-4" d="m133.4,102.35l.94.94s.09.09.13.13c.28-.68.56-1.35.84-2.03h-1.07c-.16,0-.32.03-.46.1-.15.05-.28.13-.38.25-.12.11-.2.24-.25.38-.07.14-.11.29-.1.46l.04.32c.06.2.16.38.31.53.08.06.16.12.24.19.19.11.39.16.6.16h1.07c.11-.01.21-.03.32-.04.09-.04.19-.08.28-.12.08-.06.16-.12.24-.19.12-.11.2-.24.25-.38.05-.09.08-.19.08-.3.03-.11.03-.21,0-.32,0-.11-.03-.21-.08-.3-.05-.15-.13-.28-.25-.38l-.94-.94s-.09-.09-.13-.13c-.11-.12-.24-.2-.38-.25-.14-.07-.29-.11-.46-.1-.16,0-.32.03-.46.1-.15.05-.28.13-.38.25-.06.08-.12.16-.19.24-.11.19-.16.39-.16.6l.04.32c.06.2.16.38.31.53"/>
        <rect class="cls-4" x="70.21" y="85.8" width="1.12" height="1.07"/>
        <path class="cls-4" d="m71.32,84.61h-1.12c-.16,0-.32.03-.46.1-.15.05-.28.13-.38.25-.06.08-.12.16-.19.24-.11.19-.16.39-.16.6v1.07c0,.16.03.32.1.46.05.15.13.28.25.38.08.06.16.12.24.19.19.11.39.16.6.16h1.12c.16,0,.32-.03.46-.1.15-.05.28-.13.38-.25.06-.08.12-.16.19-.24.11-.19.16-.39.16-.6v-1.07c0-.16-.03-.32-.1-.46-.05-.15-.13-.28-.25-.38-.11-.12-.24-.2-.38-.25-.14-.07-.29-.11-.46-.1-.11.01-.21.03-.32.04-.2.06-.38.16-.53.31-.06.08-.12.16-.19.24-.11.19-.16.39-.16.6v1.07l1.19-1.19h-1.12l1.19,1.19v-1.07l-1.19,1.19h1.12c.16,0,.32-.03.46-.1.15-.05.28-.13.38-.25.12-.11.2-.24.25-.38.07-.14.11-.29.1-.46-.01-.11-.03-.21-.04-.32-.06-.2-.16-.38-.31-.53-.08-.06-.16-.12-.24-.19-.19-.11-.39-.16-.6-.16"/>
        <polyline class="cls-4" points="70.21 85.8 69.13 86.87 70.21 86.87"/>
        <path class="cls-4" d="m69.36,84.96l-.94.94-.13.13c-.06.08-.12.16-.19.24l-.12.28c-.01.11-.03.21-.04.32,0,.16.03.32.1.46.03.1.08.19.15.26.05.09.12.16.21.21.07.07.16.12.26.15.14.07.29.11.46.1h1.07c.16,0,.32-.03.46-.1.15-.05.28-.13.38-.25.12-.11.2-.24.25-.38.07-.14.11-.29.1-.46-.01-.11-.03-.21-.04-.32-.06-.2-.16-.38-.31-.52-.08-.06-.16-.12-.24-.19-.19-.11-.39-.16-.6-.16h-1.07c.28.68.56,1.35.84,2.03.31-.31.63-.63.94-.94.04-.04.09-.09.13-.13.12-.11.2-.24.25-.38.07-.14.11-.29.1-.46,0-.16-.03-.32-.1-.46-.05-.15-.13-.28-.25-.38-.08-.06-.16-.12-.24-.19-.19-.11-.39-.16-.6-.16-.11.01-.21.03-.32.04-.2.06-.38.16-.53.31"/>
        <polyline class="cls-4" points="71.32 85.8 72.4 86.87 71.32 86.87"/>
        <path class="cls-4" d="m70.48,86.64l.94.94.13.13c.28-.68.56-1.35.84-2.03h-1.07c-.16,0-.32.03-.46.1-.15.05-.28.13-.38.25-.12.11-.2.24-.25.38-.07.14-.11.29-.1.46.01.11.03.21.04.32.06.2.16.38.31.53.08.06.16.12.24.19.19.11.39.16.6.16h1.07c.11-.01.21-.03.32-.04l.28-.12c.08-.06.16-.12.24-.19.12-.11.2-.24.25-.38.05-.09.08-.19.08-.3.03-.11.03-.21,0-.32,0-.11-.03-.21-.08-.3-.05-.15-.13-.28-.25-.38-.31-.31-.63-.63-.94-.94-.04-.04-.09-.09-.13-.13-.11-.12-.24-.2-.38-.25-.14-.07-.29-.11-.46-.1-.16,0-.32.03-.46.1-.15.05-.28.13-.38.25-.06.08-.12.16-.19.24-.11.19-.16.39-.16.6.01.11.03.21.04.32.06.2.16.38.31.53"/>
        <rect class="cls-4" x="3.52" y="112.57" width="1.12" height="1.07"/>
        <path class="cls-4" d="m4.63,111.38h-1.12c-.16,0-.32.03-.46.1-.15.05-.28.13-.38.25-.06.08-.12.16-.19.24-.11.19-.16.39-.16.6v1.07c0,.16.03.32.1.46.05.15.13.28.25.38.08.06.16.12.24.19.19.11.39.16.6.16h1.12c.16,0,.32-.03.46-.1.15-.05.28-.13.38-.25.06-.08.12-.16.19-.24.11-.19.16-.39.16-.6v-1.07c0-.16-.03-.32-.1-.46-.05-.15-.13-.28-.25-.38-.11-.12-.24-.2-.38-.25-.14-.07-.29-.11-.46-.1-.11.01-.21.03-.32.04-.2.06-.38.16-.53.31-.06.08-.12.16-.19.24-.11.19-.16.39-.16.6v1.07l1.19-1.19h-1.12l1.19,1.19v-1.07l-1.19,1.19h1.12c.16,0,.32-.03.46-.1.15-.05.28-.13.38-.25.12-.11.2-.24.25-.38.07-.14.11-.29.1-.46-.01-.11-.03-.21-.04-.32-.06-.2-.16-.38-.31-.53-.08-.06-.16-.12-.24-.19-.19-.11-.39-.16-.6-.16"/>
        <polyline class="cls-4" points="3.52 112.57 2.44 113.64 3.52 113.64"/>
        <path class="cls-4" d="m2.68,111.73c-.31.31-.63.63-.94.94l-.13.13c-.06.08-.12.16-.19.24l-.12.28c-.01.11-.03.21-.04.32,0,.16.03.32.1.46.03.1.08.19.15.26.05.09.12.16.21.21.07.07.16.12.26.15.14.07.29.11.46.1h1.07c.16,0,.32-.03.46-.1.15-.05.28-.13.38-.25.12-.11.2-.24.25-.38.07-.14.11-.29.1-.46-.01-.11-.03-.21-.04-.32-.06-.2-.16-.38-.31-.52-.08-.06-.16-.12-.24-.19-.19-.11-.39-.16-.6-.16h-1.07c.28.68.56,1.35.84,2.03.31-.31.63-.63.94-.94.04-.04.09-.09.13-.13.12-.11.2-.24.25-.38.07-.14.11-.29.1-.46,0-.16-.03-.32-.1-.46-.05-.15-.13-.28-.25-.38-.08-.06-.16-.12-.24-.19-.19-.11-.39-.16-.6-.16-.11.01-.21.03-.32.04-.2.06-.38.16-.53.31"/>
        <polyline class="cls-4" points="4.63 112.57 5.71 113.64 4.63 113.64"/>
        <path class="cls-4" d="m3.79,113.41c.31.31.63.63.94.94.04.04.09.09.13.13.28-.68.56-1.35.84-2.03h-1.07c-.16,0-.32.03-.46.1-.15.05-.28.13-.38.25-.12.11-.2.24-.25.38-.07.14-.11.29-.1.46.01.11.03.21.04.32.06.2.16.38.31.53.08.06.16.12.24.19.19.11.39.16.6.16h1.07c.11-.01.21-.03.32-.04l.28-.12c.08-.06.16-.12.24-.19.12-.11.2-.24.25-.38.05-.09.08-.19.08-.3.03-.11.03-.21,0-.32,0-.11-.03-.21-.08-.3-.05-.15-.13-.28-.25-.38-.31-.31-.63-.63-.94-.94-.04-.04-.09-.09-.13-.13-.11-.12-.24-.2-.38-.25-.14-.07-.29-.11-.46-.1-.16,0-.32.03-.46.1-.15.05-.28.13-.38.25-.06.08-.12.16-.19.24-.11.19-.16.39-.16.6.01.11.03.21.04.32.06.2.16.38.31.53"/>
        <path class="cls-4" d="m2.89,50.15v58.98c0,.79-.02,1.59,0,2.39,0,.03,0,.07,0,.11,0,.62.55,1.22,1.19,1.19.64-.03,1.19-.52,1.19-1.19v-58.98c0-.8.02-1.59,0-2.39,0-.04,0-.07,0-.11,0-.62-.55-1.22-1.19-1.19-.64.03-1.19.52-1.19,1.19"/>
        <path class="cls-4" d="m69.62.87c-3.25,11.52-6.92,22.97-11.78,33.91-1.3,2.94-2.7,5.84-4.19,8.68-.51.98.33,1.91,1.34,1.75l8.29-1.33c6.59-1.06,13.18-2.12,19.77-3.17,7.96-1.28,15.93-2.56,23.89-3.84,6.92-1.11,13.84-2.22,20.76-3.33,2.26-.36,4.53-.73,6.79-1.09,1.06-.17,2.17-.27,3.22-.52.05-.01.09-.01.14-.02-.5-.38-1-.76-1.51-1.15v10.1c.29-.38.58-.76.87-1.15-2.76.53-5.53,1.06-8.29,1.59-6.59,1.26-13.18,2.53-19.77,3.79-7.96,1.53-15.93,3.05-23.89,4.58-6.9,1.32-13.81,2.65-20.71,3.97-2.27.43-4.54.87-6.81,1.3-1.07.2-2.19.33-3.24.62-.04.01-.09.02-.14.03.5.38,1,.76,1.51,1.15v-12.68c0-.47-.37-1.07-.87-1.15-1.78-.27-3.55-.54-5.33-.82-4.25-.65-8.49-1.3-12.74-1.95-5.16-.79-10.32-1.58-15.47-2.37-4.44-.68-8.89-1.36-13.33-2.04-2.17-.33-4.35-.68-6.52-1-.03,0-.06,0-.09-.01-.75-.11-1.51.3-1.51,1.15v12.98c0,.47.37,1.07.87,1.15,1.77.26,3.54.52,5.31.78,4.25.63,8.5,1.25,12.75,1.88,5.17.76,10.33,1.52,15.5,2.28,4.45.66,8.9,1.31,13.34,1.97,1.47.22,2.93.43,4.4.65.68.1,1.4.29,2.1.31.03,0,.06,0,.09.01-.29-.38-.58-.76-.87-1.15v61.76c0,2.85-.1,5.71,0,8.56,0,.04,0,.08,0,.13,0,1.53,2.38,1.53,2.38,0v-61.76c0-2.84.11-5.71,0-8.56,0-.04,0-.08,0-.13,0-.47-.37-1.07-.87-1.15-1.77-.26-3.54-.52-5.31-.78-4.25-.63-8.5-1.25-12.75-1.88-5.17-.76-10.33-1.52-15.5-2.28-4.45-.66-8.9-1.31-13.34-1.97-1.47-.22-2.93-.43-4.4-.65-.68-.1-1.4-.29-2.1-.31-.03,0-.06,0-.09-.01.29.38.58.76.87,1.15v-12.98c-.5.38-1,.76-1.51,1.15,1.78.27,3.55.54,5.33.82,4.25.65,8.49,1.3,12.74,1.95,5.16.79,10.32,1.58,15.47,2.37,4.44.68,8.89,1.36,13.33,2.04,1.48.23,2.96.45,4.43.68.68.1,1.4.29,2.09.32.03,0,.06,0,.09.01-.29-.38-.58-.76-.87-1.15v12.68c0,.82.76,1.29,1.51,1.15,2.76-.53,5.53-1.06,8.29-1.59,6.59-1.26,13.18-2.53,19.77-3.79,7.96-1.53,15.93-3.05,23.89-4.58,6.9-1.32,13.81-2.65,20.71-3.97,2.27-.43,4.54-.87,6.81-1.3,1.07-.21,2.18-.36,3.24-.62.05-.01.09-.02.14-.03.51-.1.87-.66.87-1.15v-10.1c0-.84-.76-1.27-1.51-1.15-2.76.44-5.53.89-8.29,1.33-6.59,1.06-13.18,2.12-19.77,3.17-7.96,1.28-15.93,2.56-23.89,3.84-6.92,1.11-13.84,2.22-20.76,3.33-2.26.36-4.53.73-6.79,1.09-1.06.17-2.17.27-3.22.52-.05.01-.09.01-.14.02l1.34,1.75c5.51-10.53,9.67-21.72,13.21-33.05,1.05-3.36,2.04-6.73,2.99-10.11.42-1.48-1.88-2.11-2.29-.63"/>
      </g>
    </g>
  </g>
</svg>