<svg width="1080" height="1080" viewBox="0 0 1080 1080" fill="none" xmlns="http://www.w3.org/2000/svg">
<mask id="mask0_1_215" style="mask-type:luminance" maskUnits="userSpaceOnUse" x="2" y="21" width="1076" height="1014">
<path d="M2.66663 21.5989H1077.33V1035H2.66663V21.5989Z" fill="white"/>
</mask>
<g mask="url(#mask0_1_215)">
<path d="M1072.89 774.972L1015.96 697.113C1010.46 689.56 999.703 687.773 991.974 693.179C990.281 694.36 988.859 695.8 987.729 697.403L944.198 756.898L900.505 697.139C895 689.585 884.24 687.799 876.51 693.204C874.818 694.385 873.396 695.825 872.271 697.429L828.76 756.923L785.068 697.164C779.568 689.611 768.802 687.824 761.073 693.23C759.385 694.41 757.958 695.856 756.833 697.454L713.328 756.954L669.604 697.19C664.104 689.636 653.344 687.855 645.615 693.255C643.922 694.436 642.5 695.881 641.37 697.48L597.839 756.979L554.146 697.22C548.641 689.662 537.88 687.88 530.151 693.281C528.458 694.461 527.036 695.907 525.911 697.505L482.401 757.005L438.708 697.245C433.208 689.687 422.443 687.906 414.713 693.311C413.026 694.492 411.599 695.932 410.474 697.531L366.943 757.03L323.245 697.271C317.745 689.713 306.984 687.931 299.255 693.336C297.562 694.517 296.141 695.958 295.01 697.561L251.505 757.056L207.812 697.296C202.307 689.743 191.547 687.957 183.818 693.362C182.125 694.543 180.703 695.983 179.578 697.586L136.042 757.081L92.3489 697.322C86.8489 689.769 76.0833 687.982 68.3541 693.387C66.6666 694.568 65.2395 696.009 64.1145 697.612L6.59888 776.051C4.45304 779.013 3.40617 782.423 3.34888 785.808V1018.08C3.34888 1027.39 11.078 1034.95 20.6093 1034.95H1059.64C1069.16 1034.95 1076.89 1027.39 1076.89 1018.08V785.808C1076.92 781.69 1075.42 777.914 1072.89 774.972ZM886.495 735.806L926.969 791.132V1001.21H846.021V791.132L886.495 735.806ZM309.234 735.806L349.708 791.132V1001.21H268.766V791.132L309.234 735.806ZM37.8645 791.132L78.3385 735.806L118.812 791.132V1001.21H37.8645V791.132ZM153.302 791.132L193.776 735.806L234.25 791.132V1001.21H153.302V791.132ZM384.198 791.132L424.672 735.806L465.146 791.132V1001.21H384.198V791.132ZM499.661 791.132L540.135 735.806L580.609 791.132V1001.21H499.661V791.132ZM696.042 1001.21H615.094V791.132L655.568 735.806L696.042 791.132V1001.21ZM730.557 791.132L771.031 735.806L811.505 791.132V1001.24H730.557V791.132ZM1042.4 1001.21H961.453V791.132L1001.93 735.806L1042.4 791.132V1001.21ZM27.5312 649.763C148.042 597.663 221.766 589.845 316.109 591.469C318.094 591.866 320.104 591.892 322.068 591.601C342.141 592.024 363.156 592.833 385.807 593.698L423.625 595.118C471.99 596.798 516.974 592.599 561.661 587.718V628.248C561.661 637.562 569.391 645.121 578.917 645.121C588.443 645.121 596.172 637.562 596.172 628.248V583.916C629.99 580.216 663.943 576.912 698.51 576.307C760.214 575.233 817.224 576.23 874.682 583.651C885.073 584.99 895.458 586.568 905.927 588.375V628.279C905.927 637.588 913.656 645.146 923.182 645.146C932.708 645.146 940.443 637.588 940.443 628.279V595.169C976.568 603.171 1013.77 614.292 1053.35 629.587C1062.21 632.997 1072.22 628.747 1075.73 620.094C1079.22 611.436 1074.87 601.649 1066.02 598.213C1022.06 581.239 980.724 569.196 940.443 560.727V485.357C966.583 495.323 990.333 495.562 1011.67 486.039C1038.86 473.92 1060.28 446.165 1075.92 402.876C1076.46 401.355 1076.78 399.756 1076.86 398.077C1077.29 388.793 1069.96 380.919 1060.49 380.476C1025.55 378.822 995.406 383.622 970.125 394.931C959.281 399.756 949.406 405.762 940.443 412.924V364.341C967.094 360.616 991.057 348.39 1009.28 330.581C1031.37 308.99 1045.09 279.214 1045.09 246.446L1045.06 165.834C1045.03 161.528 1043.37 157.252 1040.04 153.975C1033.33 147.388 1022.43 147.363 1015.72 153.893L972.245 196.368L936.172 161.085C929.891 154.107 918.995 153.425 911.854 159.563L868.406 197.024L831.073 160.53C827.932 157.334 823.531 155.364 818.646 155.364C809.115 155.364 801.385 162.923 801.385 172.232V246.421C801.385 279.108 815.073 308.858 837.187 330.499L837.271 330.581C855.495 348.39 879.432 360.59 906.031 364.341V412.898C897.068 405.762 887.193 399.756 876.349 394.931C851.036 383.647 820.896 378.822 785.979 380.476C776.479 380.894 769.151 388.793 769.609 398.077C769.687 399.756 770.01 401.385 770.547 402.876C786.167 446.165 807.615 473.92 834.802 486.039C856.167 495.562 879.917 495.323 906.031 485.357V554.273C897.068 552.802 888.156 551.489 879.245 550.338C819.823 542.653 761.318 541.63 698.083 542.729C662.76 543.335 629.349 546.48 596.307 550.074V485.382C622.448 495.353 646.203 495.587 667.542 486.064C694.729 473.945 716.146 446.191 731.792 402.902C732.328 401.385 732.651 399.782 732.729 398.102C733.161 388.818 725.833 380.944 716.359 380.502C681.417 378.847 651.276 383.647 625.995 394.957C615.151 399.782 605.271 405.788 596.307 412.954V364.367C622.958 360.641 646.927 348.416 665.151 330.606C687.24 309.015 700.953 279.24 700.953 246.472L700.927 165.859C700.901 161.553 699.234 157.278 695.906 154C689.198 147.414 678.302 147.388 671.594 153.924L628.115 196.393L592.042 161.111C585.76 154.132 574.865 153.45 567.724 159.589L524.271 197.05L486.724 160.561C483.583 157.359 479.182 155.39 474.297 155.39C464.771 155.39 457.042 162.948 457.042 172.257V246.446C457.042 279.133 470.729 308.883 492.844 330.525L492.922 330.606C511.146 348.416 535.088 360.616 561.687 364.367V412.924C552.724 405.788 542.844 399.782 532 394.957C506.693 383.673 476.552 378.847 441.635 380.502C432.135 380.919 424.807 388.818 425.26 398.102C425.344 399.782 425.667 401.411 426.203 402.902C441.823 446.191 463.266 473.945 490.453 486.064C511.818 495.587 535.573 495.353 561.687 485.382V553.876C516.838 558.808 471.854 563.19 424.859 561.566L387.151 560.121C373.115 559.571 359.719 559.072 346.729 558.655C347.427 556.711 348.099 554.772 348.693 552.802C351.99 541.915 353.76 530.452 353.76 518.726V328.901C353.76 319.587 346.031 312.034 336.505 312.034H247.318V38.4666C247.318 29.1573 239.588 21.5989 230.062 21.5989C220.531 21.5989 212.802 29.1573 212.802 38.4666V312.003H123.588C114.062 312.003 106.333 319.561 106.333 328.876V518.7C106.333 533.415 109.578 548.109 115.057 561.694C117.5 567.73 120.396 573.578 123.672 579.142C90.6041 588.349 54.776 601.175 13.6822 618.939C4.9895 622.69 1.01554 632.63 4.85408 641.13C8.66658 649.656 18.8385 653.514 27.5312 649.763ZM984.375 425.465C998.599 419.118 1015.11 415.367 1033.95 414.186C1023.45 435.512 1011.24 449.285 997.365 455.475C983.865 461.511 967.573 460.407 948.464 452.171C958.344 440.653 970.312 431.761 984.375 425.465ZM848.948 455.475C835.042 449.285 822.859 435.512 812.365 414.186C831.177 415.367 847.713 419.118 861.937 425.465C875.974 431.736 887.943 440.628 897.849 452.171C878.74 460.407 862.448 461.511 848.948 455.475ZM861.401 306.73C845.589 291.308 835.797 269.951 835.797 246.421V212.945L855.359 232.073C861.99 238.552 872.724 238.654 879.464 232.358L922.432 195.319L959.979 232.017C966.687 238.603 977.583 238.628 984.297 232.098L1010.52 206.466V246.446C1010.52 269.9 1000.67 291.252 984.833 306.761C968.995 322.239 947.151 331.863 923.13 331.863C899.083 331.863 877.234 322.29 861.427 306.837L861.401 306.73ZM640.135 425.465C654.359 419.118 670.87 415.367 689.708 414.186C679.213 435.512 667.005 449.285 653.125 455.475C639.625 461.511 623.333 460.407 604.224 452.171C614.104 440.653 626.073 431.761 640.135 425.465ZM504.708 455.475C490.802 449.285 478.62 435.512 468.125 414.186C486.937 415.367 503.474 419.118 517.698 425.465C531.734 431.736 543.703 440.628 553.609 452.171C534.5 460.407 518.208 461.511 504.708 455.475ZM517.161 306.73C501.349 291.308 491.557 269.951 491.557 246.421V212.945L511.12 232.073C517.75 238.552 528.484 238.654 535.224 232.358L578.193 195.319L615.74 232.017C622.448 238.603 633.349 238.628 640.057 232.098L666.276 206.466V246.446C666.276 269.9 656.427 291.252 640.594 306.761C624.76 322.239 602.911 331.863 578.891 331.863C554.844 331.863 532.995 322.29 517.187 306.837L517.161 306.73ZM147.13 549.443C143.182 539.635 140.849 529.139 140.849 518.7V345.743H212.802V391.623C212.802 400.937 220.531 408.491 230.062 408.491C239.588 408.491 247.318 400.937 247.318 391.623V345.743H319.276V518.7C319.276 527.327 318.016 535.593 315.677 543.304C314.146 548.318 312.135 553.143 309.776 557.734C257.328 557.026 210.656 559.363 158.776 570.484C154.187 564.137 150.187 557.026 147.13 549.443Z" fill="black"/>
</g>
</svg>
