<?xml version="1.0" encoding="UTF-8"?>
<svg id="Livello_2" data-name="Livello 2" xmlns="http://www.w3.org/2000/svg" xmlns:xlink="http://www.w3.org/1999/xlink" viewBox="0 0 113.68 129.04">
  <defs>
    <style>
      .cls-1, .cls-2, .cls-3 {
        fill: none;
      }

      .cls-2 {
        clip-path: url(#clippath);
      }

      .cls-3 {
        clip-path: url(#clippath-1);
      }

      .cls-4 {
        fill: #1d1d1c;
      }
    </style>
    <clipPath id="clippath">
      <rect class="cls-1" y="0" width="113.68" height="129.04"/>
    </clipPath>
    <clipPath id="clippath-1">
      <rect class="cls-1" y="0" width="113.68" height="129.04"/>
    </clipPath>
  </defs>
  <g id="lampada">
    <g class="cls-2">
      <g class="cls-3">
        <path class="cls-4" d="m17.2,118.77c1.3,0,2.55-1.15,2.49-2.49-.06-1.35-1.09-2.49-2.49-2.49-1.3,0-2.55,1.15-2.49,2.49.06,1.35,1.09,2.49,2.49,2.49"/>
        <path class="cls-4" d="m88.23,129c1.3,0,2.55-1.15,2.49-2.49-.06-1.35-1.09-2.49-2.49-2.49-1.3,0-2.55,1.15-2.49,2.49.06,1.35,1.09,2.49,2.49,2.49"/>
        <path class="cls-4" d="m77.99,113.79H18.35c-1.94,0-3.88.13-5.76.63-2.08.55-4.15,1.6-5.57,3.26-1.46,1.71-2.17,3.74-2.43,5.96-.11.96-.11,1.92-.03,2.88.1,1.34,1.06,2.49,2.49,2.49h71.12c3.28,0,6.57.09,9.85,0,.05,0,.1,0,.14,0,1.42,0,2.39-1.15,2.49-2.49.24-3.23-.39-6.54-2.61-9.01-2.5-2.77-6.46-3.56-10.02-3.71-1.3-.06-2.55,1.19-2.49,2.49.06,1.4,1.09,2.43,2.49,2.49.47.02.93.05,1.4.1.18.02.54.07.17.01.23.03.45.07.67.11.68.13,1.35.3,2,.53.11.04.68.3.11.03.14.06.28.12.41.19.28.14.56.3.83.47.12.08.23.16.34.24.25.16-.36-.35-.06-.03.2.21.43.39.62.61.09.1.17.2.25.3-.15-.18-.26-.38-.07-.07.15.24.3.49.43.74.04.08.25.5.07.13-.17-.37.02.06.05.15.09.28.19.57.26.86.07.3.12.61.18.91-.12-.66,0,.15.01.39.04.69.02,1.39-.04,2.08l2.49-2.49H17.05c-3.27,0-6.59-.17-9.85,0-.05,0-.1,0-.14,0l2.49,2.49c-.04-.48-.06-.96-.05-1.44,0-.21,0-.43.02-.64,0-.14.08-.93.04-.55-.04.4.06-.34.08-.43.04-.19.08-.38.13-.56.06-.21.13-.41.19-.62.02-.08.06-.15.08-.22.08-.29-.25.47-.03.09.19-.33.43-.67.59-1.01.14-.28-.33.35-.11.13.06-.05.1-.12.15-.18.16-.17.32-.35.5-.51.23-.21.43-.33.06-.08.19-.13.36-.26.55-.38.2-.12.4-.24.61-.34.19-.1.75-.31.24-.13.47-.17.93-.33,1.42-.45.24-.06.48-.12.73-.17.15-.03.29-.06.44-.08-.01,0,.65-.09.35-.06-.31.04.2-.02.26-.03.12-.01.24-.02.37-.03.34-.03.68-.05,1.03-.06h.04c.28,0,.56,0,.84,0h50.24c3.18,0,6.37.09,9.54,0,.05,0,.09,0,.14,0,1.3,0,2.55-1.15,2.49-2.49-.06-1.35-1.09-2.49-2.49-2.49"/>
        <path class="cls-4" d="m34.9,115.03c-1-1.65-2-3.31-3.01-4.96-2.41-3.97-4.81-7.94-7.22-11.91-2.91-4.8-5.83-9.61-8.74-14.41-2.52-4.16-5.04-8.31-7.56-12.47-1.22-2.01-2.34-4.15-3.69-6.08-.02-.03-.04-.06-.05-.09-.13,1.01-.26,2.01-.39,3.02,1.8-1.8,3.6-3.6,5.4-5.4,4.3-4.3,8.61-8.61,12.91-12.91,5.22-5.22,10.45-10.45,15.67-15.67,4.5-4.5,9-9,13.5-13.5,2.19-2.19,4.45-4.33,6.58-6.58.03-.03.06-.06.1-.1.95-.95.95-2.57,0-3.52s-2.57-.95-3.52,0l-5.4,5.4-12.91,12.91c-5.22,5.22-10.45,10.45-15.67,15.67-4.5,4.5-9,9-13.5,13.5-2.19,2.19-4.47,4.31-6.58,6.58-.03.03-.06.06-.1.1-.77.77-.96,2.08-.39,3.02,1,1.65,2,3.3,3.01,4.96,2.41,3.97,4.81,7.94,7.22,11.91,2.91,4.8,5.83,9.61,8.74,14.41,2.52,4.16,5.04,8.31,7.56,12.47,1.23,2.02,2.4,4.09,3.69,6.08.02.03.04.06.05.09.7,1.15,2.23,1.58,3.41.89,1.15-.67,1.59-2.25.89-3.41"/>
        <path class="cls-4" d="m45.18,115.03c-.96-1.66-1.92-3.32-2.88-4.97-2.29-3.96-4.58-7.91-6.87-11.87-2.78-4.81-5.57-9.62-8.35-14.44-2.41-4.16-4.81-8.32-7.22-12.49-1.16-2.01-2.23-4.13-3.51-6.07-.02-.03-.03-.06-.05-.08-.13,1.01-.26,2.01-.39,3.02,1.57-1.57,3.15-3.15,4.72-4.72,3.78-3.78,7.56-7.56,11.34-11.34,4.57-4.57,9.15-9.15,13.72-13.72,3.95-3.95,7.91-7.91,11.86-11.86,1.91-1.91,3.9-3.78,5.75-5.75.03-.03.06-.06.08-.09.95-.95.95-2.57,0-3.52-.95-.95-2.57-.95-3.52,0-1.57,1.57-3.15,3.15-4.72,4.72-3.78,3.78-7.56,7.56-11.34,11.34-4.57,4.57-9.15,9.15-13.72,13.72-3.95,3.95-7.91,7.91-11.86,11.86-1.91,1.91-3.92,3.77-5.75,5.75-.03.03-.06.06-.09.09-.78.78-.94,2.06-.39,3.02.96,1.66,1.92,3.32,2.88,4.97,2.29,3.96,4.58,7.91,6.87,11.87,2.78,4.81,5.57,9.62,8.35,14.44,2.41,4.16,4.81,8.32,7.22,12.49,1.17,2.02,2.27,4.09,3.51,6.07.02.03.03.06.05.08.67,1.16,2.25,1.57,3.41.89,1.17-.68,1.57-2.24.89-3.41"/>
        <path class="cls-4" d="m11.67,67.3c0,.2-.02.4-.04.61.03-.22.06-.44.09-.66-.04.24-.08.47-.15.69-.03.09-.07.18-.1.28-.09.28.28-.57.09-.22-.11.2-.23.4-.35.59-.21.33.35-.38.14-.19-.08.08-.15.17-.23.25-.07.07-.14.13-.21.2-.31.31.51-.34.14-.11-.18.12-.36.22-.54.33-.38.21.18-.03.23-.08-.04.05-.27.1-.33.12-.23.07-.46.12-.69.15.22-.03.44-.06.66-.09-.41.05-.81.05-1.21,0,.22.03.44.06.66.09-.24-.04-.47-.08-.69-.15-.09-.03-.18-.07-.28-.1-.28-.09.57.28.22.09-.2-.11-.4-.23-.59-.35-.33-.21.38.35.19.14-.08-.08-.17-.15-.25-.23-.07-.07-.13-.14-.2-.21-.31-.31.34.51.11.14-.11-.18-.22-.36-.33-.54-.21-.38.03.18.08.23-.05-.04-.1-.27-.12-.33-.07-.23-.12-.46-.15-.69l.09.66c-.05-.41-.05-.81,0-1.21l-.09.66c.04-.24.08-.47.15-.69.03-.09.07-.18.1-.28.09-.28-.28.57-.09.22.11-.2.23-.4.35-.59.21-.33-.35.38-.14.19.08-.08.15-.17.23-.25.07-.07.14-.13.21-.2.31-.31-.51.34-.14.11.18-.11.36-.22.54-.33.38-.21-.18.03-.23.08.04-.05.27-.1.33-.12.23-.07.46-.12.69-.15-.22.03-.44.06-.66.09.41-.05.81-.05,1.21,0-.22-.03-.44-.06-.66-.09.24.04.47.08.69.15.09.03.18.07.28.1.28.09-.57-.28-.22-.09.2.11.4.23.59.35.33.21-.38-.35-.19-.14.08.08.17.15.25.23.07.07.13.14.2.21.31.31-.34-.51-.1-.14.11.18.22.36.33.54.21.38-.03-.18-.08-.23.05.04.1.27.12.33.07.23.12.46.15.69-.03-.22-.06-.44-.09-.66.02.2.04.4.04.61.02,1.3,1.13,2.55,2.49,2.49,1.33-.06,2.51-1.09,2.49-2.49-.04-2.97-1.89-5.47-4.65-6.5-2.52-.95-5.69-.1-7.41,1.98-1,1.21-1.54,2.54-1.69,4.1-.13,1.33.25,2.79.94,3.93.67,1.12,1.69,2.11,2.88,2.66,1.45.67,2.92.84,4.49.56,3.17-.57,5.4-3.6,5.44-6.72.02-1.3-1.16-2.55-2.49-2.49-1.36.06-2.47,1.09-2.49,2.49"/>
        <path class="cls-4" d="m67.5,22.58c-1.72-2.3-3.44-4.6-5.16-6.9-1.68-2.25-3.3-4.59-5.03-6.8-.3-.38.07.36.03.09-.02-.12-.08-.25-.11-.36-.02-.05-.07-.26-.06-.29,0,0,.01.6.04.22,0-.12,0-.25,0-.37,0-.46-.1.04-.03.15-.08-.14.16-.57.19-.72.11-.48-.22.36-.05.1.07-.1.12-.23.18-.34.1-.18.23-.35.33-.53.26-.46-.38.38,0,0,.08-.07.14-.16.21-.24.19-.2.39-.38.59-.57.04-.03.46-.37.13-.12-.33.25.11-.07.15-.09.21-.13.41-.26.63-.38.23-.12.85-.28.21-.12.28-.07.55-.19.83-.26.05-.01.36-.11.38-.08.02.02-.68.04-.21.03.23,0,.45,0,.68,0,.49,0-.09-.07-.15-.03.02-.01.24.05.29.06.11.04.24.09.35.11.17.03-.49-.3-.06,0,.1.07.22.14.32.2-.09-.05-.38-.4-.14-.1.17.21.73.94.17.11.04.06.09.12.13.18.29.39.58.78.87,1.16,1.06,1.42,2.13,2.84,3.19,4.26,1.99,2.66,3.98,5.31,5.97,7.97.8,1.07,2.15,1.63,3.41.89,1.06-.62,1.7-2.32.89-3.41l-5.48-7.32c-1.18-1.58-2.37-3.16-3.55-4.74-.79-1.05-1.53-2.22-2.57-3.02-4.53-3.48-11.77.55-12.72,5.77-.36,1.99.16,3.78,1.35,5.36.99,1.32,1.97,2.63,2.96,3.95,2.17,2.91,4.35,5.81,6.52,8.71.8,1.07,2.15,1.63,3.41.89,1.06-.62,1.7-2.32.89-3.41"/>
        <path class="cls-4" d="m73.24,61.14c-.46-.58-1.02-1.33-1.57-2.11-.6-.85-1.17-1.72-1.71-2.6-.97-1.59-1.85-3.24-2.61-4.94-.09-.21-.19-.42-.28-.64.04.09.16.41-.01-.04-.16-.42-.33-.84-.49-1.26-.29-.79-.55-1.59-.78-2.4-.43-1.5-.76-3.03-.97-4.57.09.65,0-.02-.01-.13-.02-.2-.04-.39-.06-.59-.03-.33-.06-.65-.07-.98-.05-.77-.06-1.53-.05-2.3.01-.69.05-1.37.12-2.05.03-.3.07-.61.1-.91-.09.7,0,.07.01-.06.04-.24.08-.48.12-.71.24-1.27.57-2.53.99-3.75.11-.33.24-.65.36-.97.05-.12.29-.67.01-.04.05-.1.09-.21.14-.31.28-.62.58-1.23.91-1.82.3-.54.61-1.07.95-1.58.15-.23.31-.46.47-.69.1-.14.19-.27.29-.4.07-.09.13-.18.2-.27-.22.28-.25.32-.08.11.79-.95,1.61-1.87,2.52-2.7.42-.39.86-.75,1.31-1.11-.58.47.26-.19.41-.29.27-.19.54-.37.81-.55,1.06-.68,2.17-1.25,3.32-1.77-.68.3.14-.05.32-.12.31-.12.62-.23.93-.33.63-.21,1.27-.39,1.92-.54.57-.14,1.15-.24,1.73-.34.16-.03.59-.08-.07,0,.17-.02.34-.04.51-.06.34-.04.68-.07,1.02-.09,1.34-.09,2.69-.06,4.03.08.18.02.36.04.54.06-.63-.07-.19-.03-.03,0,.33.05.66.11.99.17.73.14,1.46.31,2.18.51.77.22,1.54.47,2.29.75.15.06.31.12.46.18.11.04.9.39.33.13.37.16.74.33,1.11.51,1.67.8,3.28,1.76,4.8,2.83.37.26.74.53,1.1.8.61.45-.37-.3.23.18.18.15.37.29.55.44.81.67,1.59,1.37,2.35,2.09,1.65,1.57,3.17,3.27,4.59,5.05v-3.52c-8.98,10-19.07,19.15-29.85,26.91-3.07,2.21-6.2,4.33-9.4,6.36-1.13.72-1.59,2.22-.89,3.41.66,1.13,2.27,1.62,3.41.89,11.56-7.35,22.37-15.9,32.13-25.53,2.8-2.76,5.5-5.6,8.13-8.52.97-1.08.88-2.42,0-3.52-4.79-5.99-10.87-11.07-18.16-13.66-5.58-1.98-11.89-2.23-17.53-.3-5.45,1.87-10.09,5.51-13.24,10.32-3.29,5.01-4.72,11.18-4.35,17.13.55,8.83,4.6,16.84,10.01,23.68.83,1.06,2.65.87,3.52,0,1.04-1.04.84-2.46,0-3.52"/>
        <path class="cls-4" d="m98.39,43.02s.25.29.06.06c-.2-.24.06.09.11.15.11.16.22.33.33.5.12.2.23.4.34.6.04.09.08.18.13.26.17.31-.14-.39-.02-.06.14.39.28.78.38,1.19.05.22.09.44.14.65.07.29-.04-.18-.02-.19,0,0,.03.35.04.38.03.41.04.82.01,1.23,0,.09-.01.19-.02.28-.03.52-.01-.09.02-.1-.04.01-.11.58-.12.65-.09.4-.22.79-.35,1.19-.02.05-.13.36-.02.06.12-.32-.03.06-.07.14-.1.2-.2.4-.31.6-.11.2-.23.39-.36.58-.05.08-.4.52-.21.3.2-.23-.02.02-.05.05-.09.1-.18.2-.27.3-.16.17-.33.34-.5.5-.06.06-.56.48-.35.32-.2.16-.41.3-.62.44-.24.15-.48.3-.73.43-.12.07-.75.36-.33.19-.43.18-.87.31-1.32.41-.23.05-.74.09-.24.06-.23.01-.46.04-.69.04-.22,0-.45,0-.67-.01-.09,0-.19-.02-.28-.02-.3-.01.19.03.2.03-.36.04-.91-.19-1.26-.29-.19-.06-.52-.12-.68-.24,0,0,.43.22.18.07-.12-.07-.27-.13-.4-.19-.39-.2-.76-.42-1.11-.66-.07-.05-.14-.1-.21-.14-.3-.2.02.08.11.09-.14-.02-.38-.32-.49-.42-.3-.27-.58-.56-.85-.87-.86-.98-2.65-.94-3.52,0-.96,1.05-.92,2.47,0,3.52,2.91,3.33,7.78,5.04,12.05,3.62,4.93-1.64,8.54-6.3,8.46-11.56-.05-2.86-1.14-5.46-2.96-7.63-.84-1-2.66-.93-3.52,0-.98,1.06-.9,2.45,0,3.52"/>
      </g>
    </g>
  </g>
</svg>