<?xml version="1.0" encoding="UTF-8"?>
<svg id="Livello_2" data-name="Livello 2" xmlns="http://www.w3.org/2000/svg" xmlns:xlink="http://www.w3.org/1999/xlink" viewBox="0 0 122.22 129.73">
  <defs>
    <style>
      .cls-1, .cls-2, .cls-3 {
        fill: none;
      }

      .cls-2 {
        clip-path: url(#clippath);
      }

      .cls-3 {
        clip-path: url(#clippath-1);
      }

      .cls-4 {
        fill: #1d1d1c;
      }
    </style>
    <clipPath id="clippath">
      <rect class="cls-1" width="122.22" height="129.73"/>
    </clipPath>
    <clipPath id="clippath-1">
      <rect class="cls-1" width="122.22" height="129.73"/>
    </clipPath>
  </defs>
  <g id="lavatrice">
    <g class="cls-2">
      <g class="cls-3">
        <path class="cls-4" d="m2.86,124.48V24.45c0-.34-.01-.68,0-1.01.08-1.16,1.18-2.12,2.38-2.14.07,0,.15,0,.22,0,1.43,0,2.86,0,4.29,0h102.88c1.38,0,2.76,0,4.14,0,1.43,0,2.53.97,2.55,2.38,0,.29,0,.57,0,.86v99.22c0,.19,0,.37,0,.56,0,.25,0,.45-.03.59-.25,1.18-1.21,1.93-2.35,1.96-.08,0-.17,0-.25,0H6.77c-.45,0-.9,0-1.35,0-1.43,0-2.53-.97-2.56-2.38-.04-1.84-2.9-1.84-2.86,0,.06,2.94,2.4,5.22,5.33,5.24.42,0,.83,0,1.25,0h108.71c.49,0,.97,0,1.46,0,2.29,0,4.28-1.29,5.11-3.45.52-1.35.32-3.11.32-4.54V24.45c0-.39.01-.79-.02-1.18-.27-2.78-2.55-4.82-5.33-4.83-1.32,0-2.63,0-3.95,0H9.55c-1.38,0-2.77,0-4.15,0-2.37,0-4.48,1.45-5.19,3.75C0,22.9,0,23.61,0,24.34v100.15c0,1.84,2.86,1.84,2.86,0"/>
        <path class="cls-4" d="m19.32,74.14c0-1.18.05-2.36.14-3.53.05-.59.1-1.18.17-1.77.02-.13.03-.26.05-.39.04-.28-.02.14.02-.14.04-.3.09-.6.14-.9.36-2.25.89-4.47,1.59-6.64.35-1.09.75-2.17,1.18-3.22.03-.08.15-.35.05-.13.05-.12.1-.23.15-.35.12-.27.24-.54.36-.81.24-.52.48-1.03.74-1.53,1-1.98,2.15-3.88,3.43-5.69.33-.46.66-.91,1-1.36-.15.19.03-.04.08-.11.08-.1.15-.2.23-.29.18-.23.37-.45.55-.68.7-.85,1.44-1.67,2.21-2.46.77-.79,1.56-1.56,2.38-2.29.42-.37.84-.74,1.28-1.1.21-.17.42-.34.63-.51.1-.08.2-.16.29-.23.05-.04.1-.08.15-.12.17-.14-.17.13,0,0,1.78-1.35,3.65-2.58,5.61-3.66.97-.54,1.97-1.04,2.98-1.5.25-.11.5-.23.75-.33.12-.05.23-.1.35-.15-.24.1.11-.04.18-.08.53-.22,1.06-.42,1.6-.62,2.13-.78,4.32-1.39,6.54-1.83.57-.11,1.15-.22,1.73-.31.26-.04.52-.08.78-.12.04,0,.31-.04.13-.02-.16.02.05,0,.07,0,.15-.02.3-.04.46-.06,1.16-.14,2.33-.23,3.5-.27,2.35-.09,4.71,0,7.05.28.15.02.3.04.46.06.17.02-.03,0-.06,0,.06,0,.13.02.19.03.3.04.6.09.9.14.58.09,1.15.2,1.73.31,1.12.23,2.22.49,3.32.81,1.09.31,2.16.66,3.22,1.05.52.19,1.03.39,1.54.6.08.03.16.06.23.1-.02,0-.2-.09-.05-.02.12.05.23.1.35.15.27.12.54.24.81.36,2.02.93,3.97,2.01,5.82,3.23.92.61,1.82,1.25,2.7,1.92-.21-.16.09.07.15.12.1.08.2.15.29.23.23.18.45.37.68.55.42.35.82.7,1.23,1.06,1.66,1.49,3.2,3.1,4.62,4.81.16.19.32.39.47.58.09.11.18.23.27.34.04.05.08.1.12.15-.09-.11-.07-.09,0,0,.34.45.67.9,1,1.36.64.9,1.24,1.83,1.81,2.78.57.95,1.11,1.93,1.61,2.92.25.51.5,1.02.74,1.54.1.23.21.46.31.69.03.08.07.16.1.23,0,.02.09.21.03.06s.02.05.03.06c.03.08.06.16.1.23.85,2.09,1.55,4.25,2.07,6.44.27,1.11.49,2.24.67,3.37.04.28.09.56.13.84,0,.02.03.23,0,.07-.02-.18.01.09.02.13.02.15.04.3.06.46.07.59.12,1.18.17,1.77.18,2.35.17,4.72-.02,7.07-.05.57-.1,1.14-.17,1.7-.02.15-.04.3-.06.46.03-.25,0,.05-.02.14-.04.3-.09.6-.14.9-.18,1.13-.41,2.25-.68,3.37-.53,2.19-1.24,4.34-2.1,6.43-.02.06-.05.12-.07.18.02-.05.11-.25,0,0-.05.12-.1.23-.15.35-.12.27-.24.54-.36.81-.23.5-.47.99-.72,1.48-.5.99-1.04,1.96-1.62,2.91-.58.96-1.2,1.91-1.86,2.82-.15.2-.29.41-.44.61-.09.12-.17.23-.26.35-.04.05-.08.1-.11.15-.02.02-.17.23-.08.1.08-.1-.16.21-.2.25-.08.1-.16.2-.23.29-.18.23-.37.45-.55.68-1.41,1.69-2.95,3.28-4.6,4.74-.4.36-.81.71-1.23,1.06-.21.17-.42.34-.63.51-.11.09-.23.18-.34.27-.01.01-.18.14-.05.04.12-.1-.08.06-.1.08-.88.67-1.78,1.31-2.71,1.91-1.86,1.21-3.82,2.28-5.84,3.2-.25.11-.5.22-.75.33-.05.02-.36.15-.24.1.16-.07-.09.04-.12.05-.08.03-.16.06-.23.1-.51.21-1.02.4-1.54.59-1.08.39-2.18.74-3.29,1.05-1.1.3-2.21.57-3.33.79-.55.11-1.11.21-1.67.29-.28.04-.56.09-.84.12-.17.02.03,0,.06,0-.07,0-.13.02-.2.02-.17.02-.35.04-.52.06-2.34.27-4.7.35-7.05.25-1.17-.05-2.33-.14-3.49-.29-.13-.02-.26-.03-.39-.05.29.04-.13-.02-.2-.03-.3-.04-.6-.09-.9-.14-.56-.09-1.11-.19-1.66-.31-2.22-.45-4.41-1.08-6.53-1.86-.54-.2-1.07-.41-1.6-.63-.25-.1.13.06-.13-.05-.14-.06-.27-.12-.41-.18-.27-.12-.54-.24-.81-.36-1.01-.47-2-.97-2.97-1.52-.97-.54-1.91-1.12-2.84-1.73-.45-.3-.9-.61-1.34-.92-.22-.16-.44-.32-.66-.48-.1-.07-.2-.15-.3-.22-.05-.04-.43-.33-.21-.16-1.74-1.35-3.38-2.83-4.91-4.43-.76-.8-1.49-1.62-2.2-2.47-.17-.21-.34-.42-.51-.63-.08-.1-.15-.2-.23-.29-.03-.04-.17-.21,0,0-.05-.07-.1-.13-.15-.2-.33-.43-.65-.87-.96-1.31-1.29-1.83-2.44-3.76-3.44-5.76-.24-.49-.48-.98-.7-1.48-.11-.25-.22-.5-.33-.75-.03-.08-.15-.35-.05-.12-.07-.16-.13-.31-.19-.47-.42-1.04-.8-2.1-1.15-3.17-.69-2.17-1.22-4.4-1.57-6.65-.04-.28-.08-.56-.12-.84.03.25,0-.05-.02-.14-.02-.13-.03-.26-.05-.39-.07-.57-.12-1.14-.16-1.71-.09-1.15-.13-2.31-.13-3.47,0-.75-.66-1.46-1.43-1.43-.77.03-1.43.63-1.43,1.43,0,4.81.74,9.63,2.23,14.2,1.43,4.41,3.53,8.62,6.22,12.41,2.74,3.84,6.01,7.22,9.75,10.09,3.68,2.82,7.79,5.05,12.15,6.65,4.49,1.65,9.25,2.56,14.03,2.74,4.83.18,9.71-.39,14.35-1.71,4.47-1.27,8.77-3.23,12.65-5.79,3.84-2.53,7.32-5.62,10.24-9.16,3.01-3.65,5.42-7.69,7.22-12.06,1.81-4.4,2.88-9.09,3.25-13.83.38-4.86-.03-9.79-1.18-14.53-1.1-4.53-2.92-8.91-5.34-12.89-2.38-3.93-5.36-7.51-8.8-10.56-3.45-3.06-7.35-5.63-11.56-7.53-4.41-1.99-9.06-3.27-13.86-3.83-4.84-.56-9.76-.33-14.53.64-4.59.93-9.04,2.59-13.13,4.87-4.02,2.23-7.71,5.09-10.89,8.41-3.2,3.34-5.91,7.17-7.97,11.31-2.1,4.22-3.57,8.75-4.28,13.41-.36,2.38-.56,4.77-.56,7.18,0,.75.66,1.46,1.43,1.43.78-.03,1.43-.63,1.43-1.43"/>
        <path class="cls-4" d="m17.41,72.41c3.65,3.37,7.48,6.6,11.63,9.34,2.95,1.95,6.1,3.65,9.47,4.73,2.52.81,5.22,1.25,7.87,1.08,2.35-.15,4.64-.72,6.82-1.62,2.21-.92,4.28-2.09,6.3-3.35,2.04-1.28,4.03-2.63,6.08-3.9,2.19-1.35,4.43-2.59,6.79-3.62.29-.13-.27.11-.06.02.07-.03.15-.06.22-.09.16-.07.32-.13.48-.19.32-.13.65-.25.97-.37.64-.23,1.29-.44,1.95-.64,1.39-.41,2.81-.72,4.24-.93.09-.01.18-.03.27-.04.3-.04-.07,0-.03,0,.2-.02.39-.05.58-.07.4-.04.79-.08,1.19-.11.8-.06,1.6-.09,2.4-.1,1.76,0,3.51.13,5.26.34.16.02-.14-.02-.14-.02.01-.01.16.02.19.03.11.02.22.03.34.05.24.04.49.07.73.12.5.08.99.17,1.49.27,1.01.2,2.01.43,3,.69,2.23.58,4.43,1.31,6.58,2.12.56.21,1.13.44,1.69.66.29.12.57.24.86.35.15.06,0,0-.03-.01.08.04.17.07.25.11.17.07.33.14.5.22.71.31,1.53.21,1.96-.51.35-.6.2-1.65-.51-1.96-4.33-1.88-8.8-3.48-13.44-4.41-3.56-.72-7.22-1.08-10.85-.84-3.02.2-6.02.79-8.88,1.78-2.57.89-5.03,2.07-7.38,3.42-2.14,1.23-4.19,2.59-6.26,3.93-1.94,1.26-3.89,2.5-5.95,3.54-.5.25-1,.49-1.51.71-.06.03-.12.05-.18.08-.29.13.25-.1.08-.03-.13.05-.26.11-.4.16-.26.1-.51.2-.77.29-1.04.37-2.1.66-3.19.86-.13.02-.27.05-.4.07-.08.01-.15.02-.23.03-.31.05.27-.03.09-.01-.28.03-.56.06-.85.09-.58.05-1.16.06-1.74.05-.62-.01-1.23-.06-1.85-.13-.07,0-.15-.02-.22-.03-.06,0,.39.06.09.01-.16-.02-.33-.05-.49-.08-.32-.06-.64-.12-.96-.19-1.41-.31-2.79-.76-4.13-1.3-.09-.04-.17-.07-.26-.11-.23-.09.32.14,0,0-.19-.08-.38-.17-.57-.25-.38-.17-.75-.35-1.12-.53-.8-.4-1.6-.83-2.37-1.28-1.75-1.01-3.43-2.14-5.06-3.33-.46-.33-.91-.67-1.35-1.01-.03-.03-.23-.18-.09-.07.13.1-.03-.02-.05-.04-.13-.1-.26-.2-.38-.3-.24-.19-.49-.38-.73-.58-.99-.79-1.96-1.6-2.91-2.43-1.02-.89-2.03-1.79-3.02-2.71-.57-.52-1.46-.56-2.02,0-.53.53-.57,1.5,0,2.02"/>
        <path class="cls-4" d="m23.48,51.08h-13.71c-.77,0-1.43.65-1.43,1.43v40.63c0,1.87-.06,3.75,0,5.62,0,.03,0,.05,0,.08,0,.77.65,1.43,1.43,1.43h15.57c.75,0,1.46-.66,1.43-1.43-.03-.77-.63-1.43-1.43-1.43h-15.57l1.43,1.43v-40.63c0-1.86.1-3.76,0-5.62,0-.03,0-.05,0-.08l-1.43,1.43h13.71c.75,0,1.46-.66,1.43-1.43-.03-.77-.63-1.43-1.43-1.43"/>
        <path class="cls-4" d="m113.87,33.4h-15.69l1.43,1.43v-5.38l-1.43,1.43h15.69l-1.43-1.43v5.38c0,.75.66,1.46,1.43,1.43.77-.03,1.43-.63,1.43-1.43v-5.38c0-.77-.65-1.43-1.43-1.43h-15.69c-.77,0-1.43.65-1.43,1.43v5.38c0,.77.66,1.43,1.43,1.43h15.69c.75,0,1.46-.66,1.43-1.43-.03-.77-.63-1.43-1.43-1.43"/>
        <path class="cls-4" d="m114.27,19.87V1.43C114.27.66,113.62,0,112.84,0H9.52C8.75,0,8.09.66,8.09,1.43v18.09c0,.77.66,1.43,1.43,1.43s1.43-.65,1.43-1.43V1.43l-1.43,1.43h103.32l-1.43-1.43v18.44c0,.77.66,1.43,1.43,1.43s1.43-.65,1.43-1.43"/>
        <path class="cls-4" d="m68.46,10.86h31.64c.75,0,1.46-.66,1.43-1.43-.03-.77-.63-1.43-1.43-1.43h-31.64c-.75,0-1.46.66-1.43,1.43.03.77.63,1.43,1.43,1.43"/>
        <path class="cls-4" d="m68.46,15.5h31.64c.75,0,1.46-.66,1.43-1.43-.03-.77-.63-1.43-1.43-1.43h-31.64c-.75,0-1.46.66-1.43,1.43.03.77.63,1.43,1.43,1.43"/>
        <path class="cls-4" d="m39.49,10.65c0,.13,0,.27-.01.4,0,.04-.07.47,0,.14-.04.25-.1.51-.18.75-.04.12-.08.24-.12.36.11-.3-.04.08-.06.12-.13.26-.29.51-.45.76-.21.33.18-.19-.08.11-.08.09-.16.19-.25.28-.17.18-.36.35-.55.51.25-.2-.08.05-.11.07-.1.07-.21.14-.32.2-.11.06-.22.12-.33.18-.08.04-.15.07-.23.11.15-.06.14-.06-.01,0-.25.07-.49.16-.74.21-.04,0-.46.07-.13.03-.13.02-.26.03-.4.03-.27.01-.53,0-.8-.02-.41-.03.26.07-.14-.02-.17-.04-.34-.07-.5-.12-.12-.04-.24-.08-.36-.12-.38-.11.23.13-.13-.05-.23-.11-.45-.23-.66-.36-.11-.07-.21-.14-.31-.21.25.18-.07-.06-.1-.09-.22-.19-.41-.41-.61-.62-.26-.29.13.23-.08-.11-.07-.11-.14-.21-.2-.31-.13-.21-.25-.44-.35-.67.12.3-.03-.1-.04-.13-.04-.12-.08-.24-.11-.37-.03-.13-.05-.25-.08-.38-.03-.17-.03-.17,0,0,0-.09-.02-.17-.02-.26-.02-.27-.02-.53,0-.8,0-.04.07-.47,0-.14.02-.13.05-.26.08-.38.06-.25.14-.49.23-.73-.11.3.04-.08.06-.12.07-.15.15-.3.24-.44.06-.11.14-.21.2-.31.21-.33-.18.19.08-.11.17-.19.33-.37.52-.54.09-.08.19-.17.28-.24-.25.2.08-.05.11-.07.25-.16.5-.3.77-.43.36-.18-.26.07.13-.05.12-.04.24-.08.36-.12.12-.04.25-.07.37-.09.04,0,.46-.07.13-.03.26-.03.53-.04.8-.04.13,0,.26.01.4.02.17.02.17.02,0,0,.09.01.17.03.26.05.29.06.58.15.86.25-.3-.11.08.04.12.06.15.07.3.15.44.24.11.06.21.14.31.2.13.1.14.1.01,0,.06.05.13.11.19.16.22.19.41.41.61.62.26.29-.13-.23.08.11.09.14.18.28.27.42.06.11.12.22.18.33.04.08.07.15.11.23-.06-.15-.06-.14,0,.01.09.29.17.57.23.87.09.4,0-.28.02.14.01.18.02.35.02.53,0,.75.65,1.46,1.43,1.43.77-.03,1.44-.63,1.43-1.43-.04-3.03-1.93-5.66-4.75-6.71-2.69-1-5.94-.11-7.76,2.09-1.92,2.32-2.27,5.66-.69,8.27,1.57,2.59,4.58,3.85,7.53,3.3,3.29-.62,5.64-3.67,5.68-6.96,0-.75-.66-1.46-1.43-1.43-.78.04-1.42.63-1.43,1.43"/>
        <path class="cls-4" d="m22.24,10.65c0,.11,0,.22-.01.34-.01.29.02-.03.01-.05.03.14-.08.39-.12.53-.03.1-.07.2-.11.3.02-.05.14-.27.01-.05-.1.19-.21.36-.32.54-.18.27.15-.11,0,0-.06.05-.12.14-.18.19-.07.07-.49.41-.18.19-.14.1-.29.2-.44.29-.06.03-.13.06-.19.1-.24.14.25-.06-.1.04-.17.05-.34.11-.52.14-.1.02-.31.11,0,0-.08.03-.19.02-.28.02-.19,0-.37,0-.56-.02-.22,0,.34.08,0,0-.11-.02-.21-.05-.32-.07-.1-.03-.2-.07-.31-.1-.09-.03-.21-.12.05.02-.15-.09-.31-.16-.46-.25-.07-.05-.14-.1-.22-.15-.17-.1.24.23,0,0-.15-.15-.29-.3-.44-.45.2.2.08.12.03.04-.06-.09-.12-.17-.17-.26-.05-.09-.27-.58-.14-.23-.06-.17-.12-.34-.16-.51-.02-.07-.03-.14-.05-.21-.07-.29.01.27-.01-.11-.01-.17-.01-.34,0-.5,0-.04,0-.07,0-.11.02-.16.01-.15-.01.05,0,0,.04-.19.04-.21.04-.18.1-.34.15-.52.11-.33-.15.25.02-.05.05-.09.1-.19.15-.28.05-.09.38-.49.14-.22.12-.13.23-.26.36-.38.01-.01.26-.25.09-.09-.16.15.09-.06.11-.07.18-.12.36-.21.55-.31-.04.02-.29.1-.05.02.1-.03.2-.07.31-.1.07-.02.14-.04.21-.05.02,0,.37-.07.13-.03-.24.04.12,0,.14,0,.09,0,.19,0,.28,0,.09,0,.19.01.28.01.33.01-.23-.06.05,0,.21.05.41.11.62.17.31.1-.15-.12,0,0,.09.07.22.11.33.17.06.04.12.07.18.11.06.04.12.08.17.12-.15-.12-.17-.13-.05-.03.12.12.25.25.37.37.24.24-.15-.25.04.04.06.09.12.17.17.26.05.09.1.19.15.28.14.25-.07-.25.02.05.07.21.12.41.17.62.02.09.09.23,0-.06.04.13.02.31.02.44.01.75.65,1.46,1.43,1.43.77-.03,1.44-.63,1.43-1.43-.03-2.32-1.47-4.31-3.63-5.13-2.05-.77-4.56-.1-5.95,1.59-1.46,1.78-1.76,4.31-.55,6.32,1.2,2.01,3.51,2.96,5.78,2.55,2.53-.45,4.32-2.82,4.35-5.33.01-.75-.66-1.46-1.43-1.43-.78.04-1.42.63-1.43,1.43"/>
      </g>
    </g>
  </g>
</svg>