<?xml version="1.0" encoding="UTF-8"?>
<svg id="Livello_2" data-name="Livello 2" xmlns="http://www.w3.org/2000/svg" xmlns:xlink="http://www.w3.org/1999/xlink" viewBox="0 0 84.17 118.67">
  <defs>
    <style>
      .cls-1, .cls-2, .cls-3 {
        fill: none;
      }

      .cls-2 {
        clip-path: url(#clippath);
      }

      .cls-3 {
        clip-path: url(#clippath-1);
      }

      .cls-4 {
        fill: #1d1d1c;
      }
    </style>
    <clipPath id="clippath">
      <rect class="cls-1" width="84.17" height="118.67"/>
    </clipPath>
    <clipPath id="clippath-1">
      <rect class="cls-1" width="84.17" height="118.67"/>
    </clipPath>
  </defs>
  <g id="libreria">
    <g class="cls-2">
      <g class="cls-3">
        <path class="cls-4" d="m82.86.01H4.62C3.56.01,2.5-.01,1.44.01c-.05,0-.09,0-.14,0C.61.01.01.6.01,1.31v111.35c0,1.5-.03,3.01,0,4.51,0,.07,0,.13,0,.2,0,.7.59,1.29,1.29,1.29h78.25c1.06,0,2.12.03,3.18,0,.04,0,.09,0,.14,0,.7,0,1.29-.59,1.29-1.29V6.02c0-1.5.03-3.01,0-4.51,0-.07,0-.13,0-.2,0-1.66-2.59-1.67-2.59,0v111.35c0,1.5-.06,3.01,0,4.51,0,.07,0,.13,0,.2l1.29-1.29H4.62c-1.05,0-2.12-.06-3.18,0-.04,0-.09,0-.14,0l1.29,1.29V6.02c0-1.5.05-3.01,0-4.51,0-.07,0-.13,0-.2l-1.29,1.29h78.25c1.06,0,2.12.03,3.18,0,.04,0,.09,0,.14,0,1.66,0,1.67-2.59,0-2.59"/>
        <path class="cls-4" d="m1.3,60.37h78.25c1.05,0,2.11.02,3.17,0,.05,0,.09,0,.14,0,.68,0,1.32-.59,1.29-1.29-.03-.7-.57-1.29-1.29-1.29H4.61c-1.05,0-2.11-.02-3.17,0-.05,0-.09,0-.14,0-.68,0-1.32.59-1.29,1.29.03.7.57,1.29,1.29,1.29"/>
        <path class="cls-4" d="m82.86,28.77H4.61c-1.05,0-2.11-.02-3.17,0-.05,0-.09,0-.14,0-.68,0-1.32.59-1.29,1.29.03.7.57,1.29,1.29,1.29h78.25c1.05,0,2.11.02,3.17,0,.05,0,.09,0,.14,0,.68,0,1.32-.59,1.29-1.29-.03-.7-.57-1.29-1.29-1.29"/>
        <path class="cls-4" d="m1.3,89.38h78.25c1.05,0,2.11.02,3.17,0,.05,0,.09,0,.14,0,.68,0,1.32-.59,1.29-1.29-.03-.7-.57-1.29-1.29-1.29H4.61c-1.05,0-2.11-.02-3.17,0-.05,0-.09,0-.14,0-.68,0-1.32.59-1.29,1.29.03.7.57,1.29,1.29,1.29"/>
        <path class="cls-4" d="m7.58,7.07H1.3C.61,7.07.01,7.66.01,8.36v21.7c0,.7.59,1.29,1.29,1.29h6.27c.7,0,1.29-.59,1.29-1.29V8.36c0-.68-.59-1.32-1.29-1.29-.7.03-1.29.57-1.29,1.29v21.7l1.29-1.29H1.3c.43.43.86.86,1.29,1.29V8.36c-.43.43-.86.86-1.29,1.29h6.27c.68,0,1.32-.59,1.29-1.29-.03-.7-.57-1.29-1.29-1.29"/>
        <path class="cls-4" d="m13.85,8.64h-6.27c-.7,0-1.29.59-1.29,1.29v20.13c0,.7.59,1.29,1.29,1.29h6.27c.7,0,1.29-.59,1.29-1.29V9.93c0-.68-.59-1.32-1.29-1.29-.7.03-1.29.57-1.29,1.29v20.13l1.29-1.29h-6.27l1.29,1.29V9.93l-1.29,1.29h6.27c.68,0,1.32-.59,1.29-1.29-.03-.7-.57-1.29-1.29-1.29"/>
        <path class="cls-4" d="m20.13,8.64h-6.27c-.7,0-1.29.59-1.29,1.29v20.13c0,.7.59,1.29,1.29,1.29h6.27c.7,0,1.29-.59,1.29-1.29V9.93c0-.68-.59-1.32-1.29-1.29-.7.03-1.29.57-1.29,1.29v20.13l1.29-1.29h-6.27l1.29,1.29V9.93l-1.29,1.29h6.27c.68,0,1.32-.59,1.29-1.29-.03-.7-.57-1.29-1.29-1.29"/>
        <path class="cls-4" d="m26.4,7.07h-6.27c-.7,0-1.29.59-1.29,1.29v21.7c0,.7.59,1.29,1.29,1.29h6.27c.7,0,1.29-.59,1.29-1.29V8.36c0-.68-.59-1.32-1.29-1.29-.7.03-1.29.57-1.29,1.29v21.7l1.29-1.29h-6.27l1.29,1.29V8.36l-1.29,1.29h6.27c.68,0,1.32-.59,1.29-1.29-.03-.7-.57-1.29-1.29-1.29"/>
        <path class="cls-4" d="m.01,52.8v6.27c0,.7.59,1.29,1.29,1.29h21.7c.7,0,1.29-.59,1.29-1.29v-6.27c0-.7-.59-1.29-1.29-1.29H1.3c-.68,0-1.32.59-1.29,1.29.03.7.57,1.29,1.29,1.29h21.7l-1.29-1.29v6.27l1.29-1.29H1.3l1.29,1.29v-6.27c0-.68-.59-1.32-1.29-1.29-.7.03-1.29.57-1.29,1.29"/>
        <path class="cls-4" d="m.01,45.48v6.27c0,.7.59,1.29,1.29,1.29h21.7c.7,0,1.29-.59,1.29-1.29v-6.27c0-.7-.59-1.29-1.29-1.29H1.3c-.68,0-1.32.59-1.29,1.29.03.7.57,1.29,1.29,1.29h21.7l-1.29-1.29v6.27l1.29-1.29H1.3l1.29,1.29v-6.27c0-.68-.59-1.32-1.29-1.29-.7.03-1.29.57-1.29,1.29"/>
        <path class="cls-4" d="m58.96,39.21v6.27c0,.7.59,1.29,1.29,1.29h20.13c.7,0,1.29-.59,1.29-1.29v-6.27c0-.7-.59-1.29-1.29-1.29h-20.13c-.68,0-1.32.59-1.29,1.29.03.7.57,1.29,1.29,1.29h20.13l-1.29-1.29v6.27l1.29-1.29h-20.13l1.29,1.29v-6.27c0-.68-.59-1.32-1.29-1.29-.7.03-1.29.57-1.29,1.29"/>
        <path class="cls-4" d="m54.25,45.87v6.27c0,.7.59,1.29,1.29,1.29h20.13c.7,0,1.29-.59,1.29-1.29v-6.27c0-.7-.59-1.29-1.29-1.29h-20.13c-.68,0-1.32.59-1.29,1.29.03.7.57,1.29,1.29,1.29h20.13l-1.29-1.29v6.27l1.29-1.29h-20.13l1.29,1.29v-6.27c0-.68-.59-1.32-1.29-1.29-.7.03-1.29.57-1.29,1.29"/>
        <path class="cls-4" d="m56.6,52.8v6.27c0,.7.59,1.29,1.29,1.29h21.7c.7,0,1.29-.59,1.29-1.29v-6.27c0-.7-.59-1.29-1.29-1.29h-21.7c-.68,0-1.32.59-1.29,1.29.03.7.57,1.29,1.29,1.29h21.7l-1.29-1.29v6.27l1.29-1.29h-21.7l1.29,1.29v-6.27c0-.68-.59-1.32-1.29-1.29-.7.03-1.29.57-1.29,1.29"/>
        <path class="cls-4" d="m82.86,8.64h-6.27c-.7,0-1.29.59-1.29,1.29v20.13c0,.7.59,1.29,1.29,1.29h6.27c.7,0,1.29-.59,1.29-1.29V9.93c0-.68-.59-1.32-1.29-1.29-.7.03-1.29.57-1.29,1.29v20.13l1.29-1.29h-6.27l1.29,1.29V9.93l-1.29,1.29h6.27c.68,0,1.32-.59,1.29-1.29-.03-.7-.57-1.29-1.29-1.29"/>
        <path class="cls-4" d="m76.59,8.64h-6.27c-.7,0-1.29.59-1.29,1.29v20.13c0,.7.59,1.29,1.29,1.29h6.27c.7,0,1.29-.59,1.29-1.29V9.93c0-.68-.59-1.32-1.29-1.29-.7.03-1.29.57-1.29,1.29v20.13l1.29-1.29h-6.27l1.29,1.29V9.93l-1.29,1.29h6.27c.68,0,1.32-.59,1.29-1.29-.03-.7-.57-1.29-1.29-1.29"/>
        <path class="cls-4" d="m68.75,7.26h-6.27c-.7,0-1.29.59-1.29,1.29v21.51c0,.7.59,1.29,1.29,1.29h6.27c.7,0,1.29-.59,1.29-1.29V8.55c0-.68-.59-1.32-1.29-1.29-.7.03-1.29.57-1.29,1.29v21.51l1.29-1.29h-6.27l1.29,1.29V8.55l-1.29,1.29h6.27c.68,0,1.32-.59,1.29-1.29-.03-.7-.57-1.29-1.29-1.29"/>
        <path class="cls-4" d="m76.59,67.69h6.27l-1.29-1.29v21.7l1.29-1.29h-6.27l1.29,1.29v-21.7c0-.68-.59-1.32-1.29-1.29-.7.03-1.29.57-1.29,1.29v21.7c0,.7.59,1.29,1.29,1.29h6.27c.7,0,1.29-.59,1.29-1.29v-21.7c0-.7-.59-1.29-1.29-1.29h-6.27c-.68,0-1.32.59-1.29,1.29.03.7.57,1.29,1.29,1.29"/>
        <path class="cls-4" d="m70.31,69.26h6.27l-1.29-1.29v20.13l1.29-1.29h-6.27l1.29,1.29v-20.13c0-.68-.59-1.32-1.29-1.29-.7.03-1.29.57-1.29,1.29v20.13c0,.7.59,1.29,1.29,1.29h6.27c.7,0,1.29-.59,1.29-1.29v-20.13c0-.7-.59-1.29-1.29-1.29h-6.27c-.68,0-1.32.59-1.29,1.29.03.7.57,1.29,1.29,1.29"/>
        <path class="cls-4" d="m64.04,69.26h6.27l-1.29-1.29v20.13l1.29-1.29h-6.27l1.29,1.29v-20.13c0-.68-.59-1.32-1.29-1.29-.7.03-1.29.57-1.29,1.29v20.13c0,.7.59,1.29,1.29,1.29h6.27c.7,0,1.29-.59,1.29-1.29v-20.13c0-.7-.59-1.29-1.29-1.29h-6.27c-.68,0-1.32.59-1.29,1.29.03.7.57,1.29,1.29,1.29"/>
        <path class="cls-4" d="m58.2,66.51c1.99.65,3.97,1.3,5.96,1.95-.3-.53-.6-1.06-.9-1.59l-2.28,6.97c-1.21,3.7-2.43,7.4-3.64,11.1-.28.85-.56,1.7-.83,2.55.53-.3,1.06-.6,1.59-.9-1.99-.65-3.97-1.3-5.96-1.95.3.53.6,1.06.9,1.59.76-2.32,1.52-4.65,2.28-6.97,1.21-3.7,2.43-7.4,3.64-11.1.28-.85.56-1.7.83-2.55.21-.64-.24-1.44-.9-1.59-.71-.16-1.37.21-1.59.9-.76,2.32-1.52,4.65-2.28,6.97-1.21,3.7-2.43,7.4-3.64,11.1-.28.85-.56,1.7-.83,2.55-.22.69.26,1.38.9,1.59,1.99.65,3.97,1.3,5.96,1.95.69.22,1.38-.26,1.59-.9.76-2.32,1.52-4.65,2.28-6.97,1.21-3.7,2.43-7.4,3.64-11.1.28-.85.56-1.7.83-2.55.23-.69-.26-1.38-.9-1.59-1.99-.65-3.97-1.3-5.96-1.95-.64-.21-1.44.24-1.59.9-.16.71.21,1.37.9,1.59"/>
        <path class="cls-4" d="m1.3,69.26h6.27l-1.29-1.29v20.13l1.29-1.29H1.3c.43.43.86.86,1.29,1.29v-20.13c0-.68-.59-1.32-1.29-1.29-.7.03-1.29.57-1.29,1.29v20.13c0,.7.59,1.29,1.29,1.29h6.27c.7,0,1.29-.59,1.29-1.29v-20.13c0-.7-.59-1.29-1.29-1.29H1.3c-.68,0-1.32.59-1.29,1.29.03.7.57,1.29,1.29,1.29"/>
        <path class="cls-4" d="m7.58,69.26h6.27l-1.29-1.29v20.13l1.29-1.29h-6.27l1.29,1.29v-20.13c0-.68-.59-1.32-1.29-1.29-.7.03-1.29.57-1.29,1.29v20.13c0,.7.59,1.29,1.29,1.29h6.27c.7,0,1.29-.59,1.29-1.29v-20.13c0-.7-.59-1.29-1.29-1.29h-6.27c-.68,0-1.32.59-1.29,1.29.03.7.57,1.29,1.29,1.29"/>
        <path class="cls-4" d="m15.42,67.88h6.27l-1.29-1.29v21.51l1.29-1.29h-6.27l1.29,1.29v-21.51c0-.68-.59-1.32-1.29-1.29-.7.03-1.29.57-1.29,1.29v21.51c0,.7.59,1.29,1.29,1.29h6.27c.7,0,1.29-.59,1.29-1.29v-21.51c0-.7-.59-1.29-1.29-1.29h-6.27c-.68,0-1.32.59-1.29,1.29.03.7.57,1.29,1.29,1.29"/>
        <path class="cls-4" d="m40.79,88.09v29.28c0,.68.59,1.32,1.29,1.29.7-.03,1.29-.57,1.29-1.29v-29.28c0-.68-.59-1.32-1.29-1.29-.7.03-1.29.57-1.29,1.29"/>
        <path class="cls-4" d="m31.84,98.55v8.36c0,.68.59,1.32,1.29,1.29.7-.03,1.29-.57,1.29-1.29v-8.36c0-.68-.59-1.32-1.29-1.29-.7.03-1.29.57-1.29,1.29"/>
        <path class="cls-4" d="m49.42,98.55v8.36c0,.68.59,1.32,1.29,1.29.7-.03,1.29-.57,1.29-1.29v-8.36c0-.68-.59-1.32-1.29-1.29-.7.03-1.29.57-1.29,1.29"/>
      </g>
    </g>
  </g>
</svg>