<?xml version="1.0" encoding="UTF-8"?>
<svg id="Livello_2" data-name="Livello 2" xmlns="http://www.w3.org/2000/svg" xmlns:xlink="http://www.w3.org/1999/xlink" viewBox="0 0 116.09 45.22">
  <defs>
    <style>
      .cls-1, .cls-2, .cls-3 {
        fill: none;
      }

      .cls-2 {
        clip-path: url(#clippath);
      }

      .cls-3 {
        clip-path: url(#clippath-1);
      }

      .cls-4 {
        fill: #1d1d1c;
      }
    </style>
    <clipPath id="clippath">
      <rect class="cls-1" width="116.09" height="45.22"/>
    </clipPath>
    <clipPath id="clippath-1">
      <rect class="cls-1" width="116.09" height="45.22"/>
    </clipPath>
  </defs>
  <g id="madia">
    <g class="cls-2">
      <g class="cls-3">
        <path class="cls-4" d="m1.54,38.58h22.03c.75,0,1.46-.66,1.43-1.43-.03-.77-.63-1.43-1.43-1.43H1.54c-.75,0-1.46.66-1.43,1.43.03.77.63,1.43,1.43,1.43"/>
        <path class="cls-4" d="m12.33,14.01h16.49c.75,0,1.46-.66,1.43-1.43-.03-.77-.63-1.43-1.43-1.43H12.33c-.75,0-1.46.66-1.43,1.43.03.77.63,1.43,1.43,1.43"/>
        <path class="cls-4" d="m26.82,32.68h10.3c.75,0,1.46-.66,1.43-1.43-.03-.77-.63-1.43-1.43-1.43h-10.3c-.75,0-1.46.66-1.43,1.43.03.77.63,1.43,1.43,1.43"/>
        <path class="cls-4" d="m75.37,10.64h34.46c1.58,0,3.18.05,4.76,0,.02,0,.05,0,.07,0,.75,0,1.46-.66,1.43-1.43-.03-.77-.63-1.43-1.43-1.43h-34.46c-1.58,0-3.18-.05-4.76,0-.02,0-.05,0-.07,0-.75,0-1.46.66-1.43,1.43.03.77.63,1.43,1.43,1.43"/>
        <path class="cls-4" d="m85.78,28.65h17.91c.75,0,1.46-.66,1.43-1.43-.03-.77-.63-1.43-1.43-1.43h-17.91c-.75,0-1.46.66-1.43,1.43.03.77.63,1.43,1.43,1.43"/>
        <path class="cls-4" d="m114.55,42.36H6.04c-1.46,0-2.94-.05-4.4,0-.06,0-.13,0-.19,0l1.43,1.43V3.17c0-.55.04-1.11,0-1.66,0-.02,0-.05,0-.07l-1.43,1.43h108.51c1.46,0,2.94.05,4.4,0,.06,0,.13,0,.19,0l-1.43-1.43v37.11c0,1.72-.06,3.45,0,5.16,0,.02,0,.05,0,.07,0,1.83,2.85,1.84,2.85,0V6.67c0-1.72.06-3.45,0-5.16,0-.02,0-.05,0-.07,0-.77-.65-1.43-1.43-1.43H6.04C4.58.01,3.11-.01,1.65.01c-.06,0-.13,0-.19,0C.68.01.03.66.03,1.44v37.11c0,1.72-.06,3.45,0,5.16,0,.02,0,.05,0,.07,0,.77.65,1.43,1.43,1.43h108.51c1.47,0,2.93.02,4.4,0,.06,0,.13,0,.19,0,1.83,0,1.84-2.85,0-2.85"/>
        <path class="cls-4" d="m56.44,1.44v37.11c0,1.72-.05,3.45,0,5.16,0,.02,0,.05,0,.07,0,.75.66,1.46,1.43,1.43.77-.03,1.43-.63,1.43-1.43V6.67c0-1.72.05-3.45,0-5.16,0-.02,0-.05,0-.07,0-.75-.66-1.46-1.43-1.43-.77.03-1.43.63-1.43,1.43"/>
        <path class="cls-4" d="m43.91,17.86v11.24c0,.75.66,1.46,1.43,1.43.77-.03,1.43-.63,1.43-1.43v-11.24c0-.75-.66-1.46-1.43-1.43-.77.03-1.43.63-1.43,1.43"/>
        <path class="cls-4" d="m65.95,17.86v11.24c0,.75.66,1.46,1.43,1.43.77-.03,1.43-.63,1.43-1.43v-11.24c0-.75-.66-1.46-1.43-1.43-.77.03-1.43.63-1.43,1.43"/>
      </g>
    </g>
  </g>
</svg>