<?xml version="1.0" encoding="UTF-8"?>
<svg id="Livello_2" data-name="Livello 2" xmlns="http://www.w3.org/2000/svg" xmlns:xlink="http://www.w3.org/1999/xlink" viewBox="0 0 122.47 99.59">
  <defs>
    <style>
      .cls-1, .cls-2, .cls-3 {
        fill: none;
      }

      .cls-2 {
        clip-path: url(#clippath);
      }

      .cls-3 {
        clip-path: url(#clippath-1);
      }

      .cls-4 {
        fill: #1d1d1c;
      }
    </style>
    <clipPath id="clippath">
      <polyline class="cls-1" points="0 99.59 0 0 122.47 0 122.47 99.59"/>
    </clipPath>
    <clipPath id="clippath-1">
      <polyline class="cls-1" points="0 99.59 0 0 122.47 0 122.47 99.59"/>
    </clipPath>
  </defs>
  <g id="madia">
    <g class="cls-2">
      <g class="cls-3">
        <path class="cls-4" d="m113.55,45.98H5.32c-1.45,0-2.93-.08-4.39,0-.06,0-.13,0-.19,0l.75.75V8.74l-.75.75h108.23c1.45,0,2.93.08,4.39,0,.06,0,.13,0,.19,0l-.75-.75v37.98c0,.96,1.49.96,1.49,0V8.74c0-.4-.34-.75-.75-.75H5.32c-1.46,0-2.93-.03-4.39,0-.06,0-.13,0-.19,0C.34,7.99,0,8.34,0,8.74v37.98c0,.4.34.75.75.75h108.23c1.46,0,2.93.03,4.39,0,.06,0,.13,0,.19,0,.96,0,.96-1.49,0-1.49"/>
        <path class="cls-4" d="m114.08,47.25c1.03-1.03,2.06-2.06,3.09-3.09,1.49-1.49,2.99-2.99,4.48-4.48.31-.31.79-.66.81-1.13,0-.19,0-.39,0-.59V.8c0-.65-.82-.98-1.27-.53-.92.92-1.84,1.84-2.75,2.75-1.47,1.47-2.93,2.93-4.4,4.4l-1.02,1.02c-.28.28-.28.77,0,1.05.29.29.77.29,1.05,0,.92-.92,1.84-1.84,2.75-2.75,1.47-1.47,2.93-2.93,4.4-4.4l1.02-1.02c-.42-.18-.85-.35-1.27-.53v36.22c0,.49-.02.98,0,1.47,0,.02,0,.04,0,.06.07-.18.15-.35.22-.53-.92.92-1.84,1.84-2.75,2.75-1.47,1.47-2.93,2.93-4.4,4.4l-1.02,1.02c-.28.28-.28.77,0,1.05.29.29.77.29,1.05,0"/>
        <path class="cls-4" d="m102.93,46.72v16.31c0,.75-.05,1.52,0,2.27,0,.01,0,.02,0,.03l.75-.75h-4.56l.75.75v-16.31c0-.76.03-1.51,0-2.27,0-.01,0-.02,0-.03,0-.39-.34-.76-.75-.75-.4.02-.75.33-.75.75v16.31c0,.75-.03,1.51,0,2.27,0,.01,0,.02,0,.03,0,.4.34.75.75.75h4.56c.4,0,.75-.34.75-.75v-16.31c0-.76.03-1.51,0-2.27,0-.01,0-.02,0-.03,0-.39-.34-.76-.75-.75-.4.02-.75.33-.75.75"/>
        <path class="cls-4" d="m11.23,46.72v16.31c0,.75-.05,1.52,0,2.27,0,.01,0,.02,0,.03l.75-.75h-4.56l.75.75v-16.31c0-.76.03-1.51,0-2.27,0-.01,0-.02,0-.03,0-.39-.34-.76-.75-.75-.4.02-.75.33-.75.75v16.31c0,.75-.03,1.51,0,2.27,0,.01,0,.02,0,.03,0,.4.34.75.75.75h4.56c.4,0,.75-.34.75-.75v-16.31c0-.76.03-1.51,0-2.27,0-.01,0-.02,0-.03,0-.39-.34-.76-.75-.75-.4.02-.75.33-.75.75"/>
        <path class="cls-4" d="m116.89,42.68v13.37l.75-.75h-4.56l.75.75v-9.33c0-.39-.34-.76-.75-.75-.4.02-.75.33-.75.75v9.33c0,.4.34.75.75.75h4.56c.4,0,.75-.34.75-.75v-13.37c0-.39-.34-.76-.75-.75-.4.02-.75.33-.75.75"/>
        <path class="cls-4" d="m104.2,65.86c.45-.45.91-.91,1.36-1.36.48-.48,1-.95,1.46-1.46.28-.31.23-.68.23-1.06v-12.3c0-.97.03-1.94,0-2.91,0-.01,0-.03,0-.04,0-.39-.34-.76-.75-.75-.4.02-.75.33-.75.75v15.78c.07-.18.15-.35.22-.53-.94.94-1.88,1.89-2.83,2.83-.28.28-.28.77,0,1.05.29.29.77.29,1.05,0"/>
        <path class="cls-4" d="m12.5,65.86c.45-.45.91-.91,1.36-1.36.48-.48,1-.95,1.46-1.46.28-.31.23-.68.23-1.06v-12.3c0-.97.03-1.94,0-2.91,0-.01,0-.03,0-.04,0-.39-.34-.76-.75-.75-.4.02-.75.33-.75.75v15.78c.07-.18.15-.35.22-.53-.94.94-1.88,1.89-2.83,2.83-.28.28-.28.77,0,1.05.29.29.77.29,1.05,0"/>
        <path class="cls-4" d="m118.16,56.58c.86-.86,1.73-1.73,2.59-2.59.18-.18.3-.38.31-.64,0-.09,0-.17,0-.26v-10.5c0-.86.03-1.73,0-2.59,0-.01,0-.03,0-.04,0-.39-.34-.76-.75-.75-.4.02-.75.33-.75.75v13.41c.07-.18.15-.35.22-.53-.9.9-1.79,1.79-2.69,2.69-.28.28-.28.77,0,1.05.29.29.77.29,1.05,0"/>
        <path class="cls-4" d="m32.16,46.72v9.33l.75-.75h-4.56l.75.75v-9.33c0-.39-.34-.76-.75-.75-.4.02-.75.33-.75.75v9.33c0,.4.34.75.75.75h4.56c.4,0,.75-.34.75-.75v-9.33c0-.39-.34-.76-.75-.75-.4.02-.75.33-.75.75"/>
        <path class="cls-4" d="m33.43,56.58l1.5-1.5.94-.94c.24-.24.45-.42.46-.79.03-.59,0-1.18,0-1.77v-4.85c0-.39-.34-.76-.75-.75-.4.02-.75.33-.75.75v6.64l.22-.53-2.69,2.69c-.28.28-.28.77,0,1.05.29.29.77.29,1.05,0"/>
        <path class="cls-4" d="m1.12,9.38c3.79-2.39,7.58-4.78,11.37-7.18.31-.2.62-.39.94-.59.08-.05.17-.09.25-.16.2-.17.02.22-.29.05.05.03.21,0,.27,0h102.44c1.8,0,3.6.03,5.39,0,.08,0,.15,0,.23,0,.96,0,.96-1.49,0-1.49H14.31c-.41,0-.92-.08-1.3.1-.46.22-.9.57-1.33.84-1.06.67-2.12,1.34-3.17,2-2.29,1.44-4.57,2.89-6.86,4.33-.42.27-.85.53-1.27.8-.81.51-.06,1.8.75,1.29"/>
        <path class="cls-4" d="m56.4,8.74v36.43c0,.49-.01.99,0,1.48,0,.02,0,.04,0,.06,0,.39.34.76.75.75.4-.02.75-.33.75-.75V10.29c0-.49.01-.99,0-1.48,0-.02,0-.04,0-.06,0-.39-.34-.76-.75-.75-.4.02-.75.33-.75.75"/>
        <path class="cls-4" d="m.75,42.39h18.32c.85,0,1.7.03,2.54,0,.01,0,.02,0,.03,0,.39,0,.76-.34.75-.75-.02-.4-.33-.75-.75-.75H3.32c-.85,0-1.7-.03-2.54,0-.01,0-.02,0-.03,0-.39,0-.76.34-.75.75.02.4.33.75.75.75"/>
        <path class="cls-4" d="m20.52,19.8h15.64c.39,0,.76-.34.75-.75-.02-.4-.33-.75-.75-.75h-15.64c-.39,0-.76.34-.75.75.02.4.33.75.75.75"/>
        <path class="cls-4" d="m39.66,38.94h9.77c.39,0,.76-.34.75-.75-.02-.4-.33-.75-.75-.75h-9.77c-.39,0-.76.34-.75.75.02.4.33.75.75.75"/>
        <path class="cls-4" d="m77.44,16.41h34.25c.46,0,.93,0,1.39,0,.02,0,.04,0,.06,0,.39,0,.76-.34.75-.75-.02-.4-.33-.75-.75-.75h-34.25c-.46,0-.93,0-1.39,0-.02,0-.04,0-.06,0-.39,0-.76.34-.75.75.02.4.33.75.75.75"/>
        <path class="cls-4" d="m66.6,38.62h17.22c.8,0,1.6.03,2.39,0,.01,0,.02,0,.03,0,.39,0,.76-.34.75-.75-.02-.4-.33-.75-.75-.75h-17.22c-.8,0-1.6-.03-2.39,0-.01,0-.02,0-.03,0-.39,0-.76.34-.75.75.02.4.33.75.75.75"/>
        <path class="cls-4" d="m99.12,30.86h10.37c.39,0,.76-.34.75-.75-.02-.4-.33-.75-.75-.75h-10.37c-.39,0-.76.34-.75.75.02.4.33.75.75.75"/>
        <path class="cls-4" d="m7.59,5.5h16.04c.39,0,.76-.34.75-.75-.02-.4-.33-.75-.75-.75H7.59c-.39,0-.76.34-.75.75.02.4.33.75.75.75"/>
        <path class="cls-4" d="m73.57,6.29h16.04c.39,0,.76-.34.75-.75-.02-.4-.33-.75-.75-.75h-16.04c-.39,0-.76.34-.75.75.02.4.33.75.75.75"/>
        <path class="cls-4" d="m37.34,5.5h8.02c.39,0,.76-.34.75-.75-.02-.4-.33-.75-.75-.75h-8.02c-.39,0-.76.34-.75.75.02.4.33.75.75.75"/>
        <path class="cls-4" d="m99.67,4.21h8.02c.39,0,.76-.34.75-.75-.02-.4-.33-.75-.75-.75h-8.02c-.39,0-.76.34-.75.75.02.4.33.75.75.75"/>
        <path class="cls-4" d="m46.97,29.94l-2.14,2.14,1.27.53v-8.84l-.22.53c.71-.71,1.43-1.43,2.14-2.14l-1.27-.53c0,1,0,1.99,0,2.99,0,1.59,0,3.18,0,4.76,0,.37,0,.73,0,1.1,0,.39.34.76.75.75.4-.02.74-.33.75-.75v-2.99c0-1.59,0-3.18,0-4.76,0-.37,0-.73,0-1.1,0-.65-.82-.98-1.27-.53-.62.62-1.24,1.24-1.86,1.86-.25.25-.49.45-.5.85,0,.22,0,.44,0,.65v8.15c0,.65.82.98,1.27.53l2.14-2.14c.28-.28.28-.77,0-1.05-.29-.29-.77-.29-1.05,0"/>
        <path class="cls-4" d="m45.36,23.02h-3.69c-.4,0-.75.34-.75.75v8.84c0,.4.34.75.75.75h3.69c.39,0,.76-.34.75-.75-.02-.4-.33-.75-.75-.75h-3.69l.75.75v-8.84l-.75.75h3.69c.39,0,.76-.34.75-.75-.02-.4-.33-.75-.75-.75"/>
        <path class="cls-4" d="m42.2,24.29c.84-.84,1.67-1.67,2.51-2.51l-.53.22h3.33c.39,0,.76-.34.75-.75-.02-.4-.33-.75-.75-.75h-3.05c-.26,0-.5-.01-.73.16-.11.08-.2.19-.3.28l-1.27,1.27-1.01,1.01c-.28.28-.28.77,0,1.05.29.29.77.29,1.05,0"/>
        <path class="cls-4" d="m69.11,30.74l-2.14,2.14c.42.18.85.35,1.27.53v-8.84l-.22.53c.71-.71,1.43-1.43,2.14-2.14l-1.27-.53v2.99c0,1.59,0,3.18,0,4.76,0,.37,0,.73,0,1.1,0,.39.34.76.75.75.4-.02.74-.33.75-.75v-2.99c0-1.59,0-3.18,0-4.76,0-.37,0-.73,0-1.1,0-.65-.82-.98-1.27-.53-.62.62-1.24,1.24-1.86,1.86-.25.25-.49.45-.5.85,0,.22,0,.44,0,.65v8.15c0,.65.82.98,1.27.53l2.14-2.14c.28-.28.28-.77,0-1.05s-.77-.29-1.05,0"/>
        <path class="cls-4" d="m67.5,23.82h-3.69c-.4,0-.75.34-.75.75v8.84c0,.4.34.75.75.75h3.69c.39,0,.76-.34.75-.75-.02-.4-.33-.75-.75-.75h-3.69l.75.75v-8.84l-.75.75h3.69c.39,0,.76-.34.75-.75-.02-.4-.33-.75-.75-.75"/>
        <path class="cls-4" d="m64.34,25.09l2.51-2.51-.53.22h3.33c.39,0,.76-.34.75-.75-.02-.4-.33-.75-.75-.75h-3.05c-.26,0-.5-.01-.73.16-.11.08-.2.19-.3.28-.42.42-.85.85-1.27,1.27l-1.01,1.01c-.28.28-.28.77,0,1.05.29.29.77.29,1.05,0"/>
      </g>
    </g>
  </g>
</svg>