<?xml version="1.0" encoding="UTF-8"?>
<svg id="Livello_2" data-name="Livello 2" xmlns="http://www.w3.org/2000/svg" xmlns:xlink="http://www.w3.org/1999/xlink" viewBox="0 0 106.79 67.63">
  <defs>
    <style>
      .cls-1, .cls-2, .cls-3 {
        fill: none;
      }

      .cls-2 {
        clip-path: url(#clippath);
      }

      .cls-3 {
        clip-path: url(#clippath-1);
      }

      .cls-4 {
        fill: #1d1d1c;
      }
    </style>
    <clipPath id="clippath">
      <rect class="cls-1" width="106.79" height="67.63"/>
    </clipPath>
    <clipPath id="clippath-1">
      <rect class="cls-1" width="106.79" height="67.63"/>
    </clipPath>
  </defs>
  <g id="microwave">
    <g class="cls-2">
      <g class="cls-3">
        <path class="cls-4" d="m104.68,63.46H6.28c-1.33,0-2.67-.05-4,0-.06,0-.12,0-.17,0l2.08,2.08V9.92c0-2.56.14-5.16,0-7.72,0-.04,0-.07,0-.11l-2.08,2.08h98.4c1.33,0,2.67.05,4,0,.06,0,.12,0,.17,0l-2.08-2.08v55.62c0,2.57-.08,5.15,0,7.72,0,.04,0,.07,0,.11,0,1.09.96,2.13,2.08,2.08,1.13-.05,2.08-.91,2.08-2.08V9.92c0-2.57.08-5.15,0-7.72,0-.04,0-.07,0-.11,0-1.12-.95-2.08-2.08-2.08H6.28C4.95.01,3.61-.02,2.28.01c-.06,0-.11,0-.17,0C.99.01.03.96.03,2.09v55.62c0,2.57-.08,5.15,0,7.72,0,.04,0,.07,0,.11,0,1.12.95,2.08,2.08,2.08h98.4c1.33,0,2.67.03,4,0,.06,0,.12,0,.17,0,1.09,0,2.13-.96,2.08-2.08-.05-1.13-.91-2.08-2.08-2.08"/>
        <path class="cls-4" d="m71.37,54.3H18.09c-2.43,0-4.91-.14-7.35,0-.04,0-.07,0-.11,0l2.08,2.08V11.25l-2.08,2.08h53.28c2.43,0,4.91.14,7.35,0,.03,0,.07,0,.11,0l-2.08-2.08v45.13c0,1.09.96,2.13,2.08,2.08,1.13-.05,2.08-.91,2.08-2.08V11.25c0-1.12-.95-2.08-2.08-2.08H18.09c-2.44,0-4.9-.07-7.35,0-.04,0-.07,0-.11,0-1.12,0-2.08.95-2.08,2.08v45.13c0,1.12.95,2.08,2.08,2.08h53.28c2.44,0,4.9.08,7.35,0,.03,0,.07,0,.11,0,1.09,0,2.13-.96,2.08-2.08-.05-1.13-.91-2.08-2.08-2.08"/>
        <path class="cls-4" d="m39.54,18.07l-13.07,13.07c-.63.63-1.25,1.25-1.88,1.88-.79.79-.79,2.14,0,2.94s2.14.8,2.94,0c4.36-4.36,8.72-8.72,13.07-13.07.63-.63,1.25-1.25,1.88-1.88.79-.79.79-2.14,0-2.94-.8-.8-2.14-.8-2.94,0"/>
        <path class="cls-4" d="m39.54,32.34l-9.39,9.39-1.34,1.34c-.77.77-.83,2.18,0,2.94.83.76,2.12.82,2.94,0,3.13-3.13,6.26-6.26,9.39-9.39.44-.45.89-.89,1.34-1.34.77-.77.83-2.18,0-2.94-.83-.76-2.12-.82-2.94,0"/>
        <path class="cls-4" d="m78.81,2.09v55.62c0,2.57-.08,5.15,0,7.72,0,.04,0,.07,0,.11,0,1.09.96,2.13,2.08,2.08,1.13-.05,2.08-.91,2.08-2.08V9.92c0-2.57.08-5.15,0-7.72,0-.04,0-.07,0-.11,0-1.09-.96-2.13-2.08-2.08-1.13.05-2.08.91-2.08,2.08"/>
        <path class="cls-4" d="m104.68,50.77h-23.79c-1.09,0-2.13.96-2.08,2.08.05,1.13.91,2.08,2.08,2.08h23.79c1.09,0,2.13-.96,2.08-2.08-.05-1.13-.91-2.08-2.08-2.08"/>
        <path class="cls-4" d="m87.46,15.84c0-.19.02-.39.02-.58.02-.6-.1.38.02-.2.06-.31.13-.61.22-.9.06-.18.12-.35.19-.52-.15.36-.02.06.01,0,.21-.37.41-.74.65-1.09-.24.34.28-.31.37-.41.21-.21.43-.42.67-.61-.36.29.12-.07.17-.1.13-.08.26-.16.39-.24.13-.08.27-.14.4-.21.22-.1.22-.1,0-.01.11-.05.23-.09.34-.13.29-.1.59-.18.9-.25.06-.01.67-.08.19-.04.13-.01.25-.02.38-.03.39-.02.77,0,1.16.03-.39-.04-.07-.01,0,0,.24.05.49.1.73.17.18.05.35.11.53.17.08.03.35.17.01,0,.33.16.65.33.95.53.1.07.2.14.3.2-.37-.26.1.09.14.13.27.24.51.5.76.77.38.42-.18-.33.11.15.06.1.13.2.2.3.1.15.19.31.27.47.03.05.27.6.1.17.12.28.21.58.29.88.05.18.08.36.12.55.12.57,0-.39.02.2.02.39,0,.77,0,1.16,0,.08-.05.41,0,.01-.03.19-.06.37-.11.55-.07.3-.17.59-.27.89-.18.54.2-.32-.08.18-.1.19-.2.38-.31.56-.08.13-.17.25-.24.38-.3.48.26-.27-.11.15-.2.22-.4.45-.62.65-.13.12-.27.24-.41.35.3-.24.05-.04-.01,0-.36.22-.72.44-1.1.63.08-.04.37-.13-.01,0-.18.06-.35.12-.53.17-.3.09-.6.15-.91.2.48-.08-.15,0-.21,0-.19,0-.39.01-.58,0-.13,0-.26-.01-.38-.02-.25-.03-.25-.02-.01,0-.12-.02-.25-.04-.37-.07-.37-.08-.71-.19-1.07-.31-.54-.18.32.2-.18-.08-.16-.09-.32-.17-.48-.26-.16-.09-.3-.2-.46-.29-.19-.14-.2-.14-.01,0-.07-.06-.14-.11-.21-.17-.29-.27-.56-.54-.82-.83-.05-.06-.23-.31,0,0-.14-.2-.27-.4-.4-.61-.08-.13-.14-.27-.22-.4-.04-.08-.08-.16-.12-.25.09.22.09.21,0-.01-.12-.35-.23-.7-.31-1.07-.01-.06-.08-.67-.04-.19-.02-.26-.04-.51-.04-.77-.01-1.09-.95-2.13-2.08-2.08-1.11.05-2.09.91-2.08,2.08.05,4.05,2.57,7.54,6.34,8.94,3.57,1.33,7.89.14,10.32-2.77,2.58-3.09,3.05-7.55.95-11.03-2.08-3.46-6.09-5.14-10.02-4.42-4.41.8-7.54,4.9-7.6,9.29-.01,1.09.97,2.13,2.08,2.08,1.14-.05,2.06-.91,2.08-2.08"/>
        <path class="cls-4" d="m87.46,36.77c0-.19.02-.39.02-.58.02-.6-.1.38.02-.2.06-.31.13-.61.22-.9.06-.18.12-.35.19-.52-.15.36-.02.06.01,0,.21-.37.41-.74.65-1.09-.24.34.28-.31.37-.41.21-.21.43-.42.67-.61-.36.29.12-.07.17-.1.13-.08.26-.16.39-.24.13-.08.27-.14.4-.21.22-.1.22-.1,0-.01.11-.05.23-.09.34-.13.29-.1.59-.18.9-.25.06-.01.67-.08.19-.04.13-.01.25-.02.38-.03.39-.02.77,0,1.16.03-.39-.04-.07-.01,0,0,.24.05.49.1.73.17.18.05.35.11.53.17.08.03.35.17.01,0,.33.16.65.33.95.53.1.07.2.14.3.2-.37-.26.1.09.14.13.27.24.51.5.76.77.38.42-.18-.33.11.15.06.1.13.2.2.3.1.15.19.31.27.47.03.05.27.6.1.17.12.28.21.58.29.88.05.18.08.36.12.55.12.57,0-.39.02.2.02.39,0,.77,0,1.16,0,.08-.05.41,0,.01-.03.19-.06.37-.11.55-.07.3-.17.59-.27.89-.18.54.2-.32-.08.18-.1.19-.2.38-.31.56-.08.13-.17.25-.24.38-.3.48.26-.27-.11.15-.2.22-.4.45-.62.65-.13.12-.27.24-.41.35.3-.24.05-.04-.01,0-.36.22-.72.44-1.1.63.08-.04.37-.13-.01,0-.18.06-.35.12-.53.17-.3.09-.6.15-.91.2.48-.08-.15,0-.21,0-.19,0-.39.01-.58,0-.13,0-.26-.01-.38-.02-.25-.03-.25-.02-.01,0-.12-.02-.25-.04-.37-.07-.37-.08-.71-.19-1.07-.31-.54-.18.32.2-.18-.08-.16-.09-.32-.17-.48-.26-.16-.09-.3-.2-.46-.29-.19-.14-.2-.14-.01,0-.07-.06-.14-.11-.21-.17-.29-.27-.56-.54-.82-.83-.05-.06-.23-.31,0,0-.14-.2-.27-.4-.4-.61-.08-.13-.14-.27-.22-.4-.04-.08-.08-.16-.12-.25.09.22.09.21,0-.01-.12-.35-.23-.7-.31-1.07-.01-.06-.08-.67-.04-.19-.02-.26-.04-.51-.04-.77-.01-1.09-.95-2.13-2.08-2.08-1.11.05-2.09.91-2.08,2.08.05,4.05,2.57,7.54,6.34,8.94,3.57,1.33,7.89.14,10.32-2.77,2.58-3.09,3.05-7.55.95-11.03-2.08-3.46-6.09-5.14-10.02-4.42-4.41.8-7.54,4.9-7.6,9.29-.01,1.09.97,2.13,2.08,2.08,1.14-.05,2.06-.91,2.08-2.08"/>
      </g>
    </g>
  </g>
</svg>