<?xml version="1.0" encoding="UTF-8"?>
<svg id="Livello_2" data-name="Livello 2" xmlns="http://www.w3.org/2000/svg" xmlns:xlink="http://www.w3.org/1999/xlink" viewBox="0 0 146.65 81.24">
  <defs>
    <style>
      .cls-1, .cls-2, .cls-3 {
        fill: none;
      }

      .cls-2 {
        clip-path: url(#clippath);
      }

      .cls-3 {
        clip-path: url(#clippath-1);
      }

      .cls-4 {
        fill: #1d1d1c;
      }
    </style>
    <clipPath id="clippath">
      <rect class="cls-1" width="146.65" height="81.24"/>
    </clipPath>
    <clipPath id="clippath-1">
      <rect class="cls-1" y="0" width="146.65" height="81.24"/>
    </clipPath>
  </defs>
  <g id="mobiletto">
    <g class="cls-2">
      <g class="cls-3">
        <path class="cls-4" d="m0,2.42v53.43c0,1.3,1.1,2.4,2.4,2.4h136.1c1.84,0,3.68.03,5.51,0,.08,0,.16,0,.24,0,1.3,0,2.4-1.1,2.4-2.4V2.42c0-1.3-1.1-2.4-2.4-2.4H8.15C6.32.02,4.48-.02,2.64.02c-.08,0-.16,0-.24,0C1.15.02-.06,1.12,0,2.42c.06,1.3,1.06,2.4,2.4,2.4h136.1c1.83,0,3.68.06,5.51,0,.08,0,.16,0,.24,0l-2.4-2.4v53.43l2.4-2.4H8.15c-1.83,0-3.68-.06-5.51,0-.08,0-.16,0-.24,0,.8.8,1.6,1.6,2.4,2.4V2.42C4.81,1.16,3.7-.04,2.41.02,1.1.07,0,1.07,0,2.42"/>
        <path class="cls-4" d="m0,56.49v22.35c0,1.3,1.1,2.4,2.4,2.4h13.12c1.3,0,2.4-1.1,2.4-2.4v-22.35c0-1.26-1.11-2.46-2.4-2.4-1.3.06-2.4,1.06-2.4,2.4v22.35l2.4-2.4H2.41c.8.8,1.6,1.6,2.4,2.4v-22.35c0-1.26-1.11-2.46-2.4-2.4C1.1,54.15,0,55.15,0,56.49"/>
        <path class="cls-4" d="m128.73,56.49v22.35c0,1.3,1.1,2.4,2.4,2.4h13.12c1.3,0,2.4-1.1,2.4-2.4v-22.35c0-1.26-1.11-2.46-2.4-2.4-1.3.06-2.4,1.06-2.4,2.4v22.35l2.4-2.4h-13.12l2.4,2.4v-22.35c0-1.26-1.11-2.46-2.4-2.4-1.3.06-2.4,1.06-2.4,2.4"/>
        <path class="cls-4" d="m70.92,2.42v53.43c0,1.26,1.11,2.46,2.4,2.4,1.3-.06,2.4-1.06,2.4-2.4V2.42c0-1.26-1.11-2.46-2.4-2.4-1.3.06-2.4,1.06-2.4,2.4"/>
        <path class="cls-4" d="m56.82,21.69v14.9c0,1.26,1.11,2.46,2.4,2.4,1.3-.06,2.4-1.06,2.4-2.4v-14.9c0-1.26-1.11-2.46-2.4-2.4-1.3.06-2.4,1.06-2.4,2.4"/>
        <path class="cls-4" d="m85.03,21.53v14.9c0,1.26,1.11,2.46,2.4,2.4,1.3-.06,2.4-1.06,2.4-2.4v-14.9c0-1.26-1.11-2.46-2.4-2.4-1.3.06-2.4,1.06-2.4,2.4"/>
      </g>
    </g>
  </g>
</svg>