<?xml version="1.0" encoding="UTF-8"?>
<svg id="Livello_2" data-name="Livello 2" xmlns="http://www.w3.org/2000/svg" xmlns:xlink="http://www.w3.org/1999/xlink" viewBox="0 0 141.18 137.9">
  <defs>
    <style>
      .cls-1, .cls-2, .cls-3 {
        fill: none;
      }

      .cls-2 {
        clip-path: url(#clippath);
      }

      .cls-3 {
        clip-path: url(#clippath-1);
      }

      .cls-4 {
        fill: #1d1d1c;
      }
    </style>
    <clipPath id="clippath">
      <rect class="cls-1" x="0" width="141.18" height="137.9"/>
    </clipPath>
    <clipPath id="clippath-1">
      <rect class="cls-1" x="0" width="141.18" height="137.9"/>
    </clipPath>
  </defs>
  <g id="monopattino">
    <g class="cls-2">
      <g class="cls-3">
        <path class="cls-4" d="m4.58,112.61c.95-.66,1.96-1.24,3.02-1.71-.43.19.13-.05.26-.1.23-.08.45-.16.68-.24.53-.17,1.07-.32,1.62-.44.23-.05.47-.1.7-.14.16-.03.31-.05.47-.08-.28.04-.32.04-.12.02.51-.03,1.02-.09,1.53-.11.55-.01,1.1,0,1.65.04.23.02.47.04.7.06.32.04.31.04-.01,0,.12.02.23.04.35.06,1.04.21,2.06.45,3.06.82.11.04.76.3.24.08.22.09.43.19.65.29.5.24.99.51,1.46.79.48.29.94.6,1.39.94-.37-.28.11.1.21.18.19.16.37.32.55.48.42.39.83.79,1.21,1.22.17.19.32.38.48.57.19.24.21.26.05.05.1.13.2.27.3.41.84,1.17,2.33,1.74,3.66.96,1.16-.68,1.81-2.48.96-3.66-3.06-4.26-7.57-7.39-12.79-8.29-5.21-.9-10.6.15-14.97,3.19-1.18.82-1.73,2.34-.96,3.66.69,1.17,2.47,1.79,3.66.96"/>
        <path class="cls-4" d="m13.48,127.09c1.4,0,2.74-1.23,2.67-2.67-.06-1.45-1.17-2.67-2.67-2.67-1.4,0-2.74,1.23-2.67,2.67.06,1.45,1.17,2.67,2.67,2.67"/>
        <path class="cls-4" d="m112.55,121.75h-60.67c-3.62,0-7.25-.1-10.86,0-.05,0-.11,0-.16,0-1.4,0-2.74,1.23-2.67,2.67.06,1.45,1.17,2.67,2.67,2.67h71.69c1.4,0,2.74-1.23,2.67-2.67-.06-1.45-1.17-2.67-2.67-2.67"/>
        <path class="cls-4" d="m115.57,124.42c0-.25,0-.49.02-.74.01-.18.09-.72.01-.25.09-.55.22-1.09.39-1.62.07-.22.15-.44.24-.66-.17.43.03-.06.11-.21.24-.49.54-.94.83-1.39.27-.41-.18.18.15-.19.15-.17.3-.35.46-.51.16-.17.32-.33.49-.48.08-.08.17-.15.26-.23.04-.03.41-.34.18-.15-.2.16.3-.2.39-.26.23-.15.46-.29.69-.42.2-.11.41-.21.62-.32.03-.02.39-.17.11-.05-.28.12.18-.06.23-.08.45-.15.9-.29,1.37-.39.11-.02.74-.13.47-.1-.34.05.17-.01.25-.02.16-.01.33-.02.49-.03.49-.02.98,0,1.48.05.32.03-.07-.01-.11-.02.12.02.24.04.36.06.27.05.54.12.81.19.27.07.53.16.79.25.11.04.22.08.33.12-.04-.02-.38-.17-.1-.04.45.22.9.45,1.32.73.19.13.38.26.57.39-.36-.27.05.05.18.16.41.36.76.75,1.13,1.15.33.36-.12-.22.15.19.13.19.26.38.38.58.12.2.24.4.35.6.09.16.41.89.22.42.17.44.32.89.43,1.35.06.23.1.47.15.7,0,.04.07.43.02.12-.04-.31.01.19.02.25.04.53.05,1.07,0,1.6-.01.18-.09.72-.01.25-.05.28-.1.55-.16.82-.11.46-.26.91-.42,1.35-.11.29.03-.06.05-.1-.06.14-.13.28-.2.42-.12.24-.25.48-.39.71-.12.2-.25.39-.38.58-.06.1-.13.19-.2.28.02-.03.26-.32.06-.09-.35.41-.71.8-1.12,1.16-.08.07-.55.46-.35.31s-.3.2-.39.26c-.42.28-.87.51-1.31.74-.44.23.25-.06-.22.1-.26.09-.52.18-.78.26-.23.06-.46.12-.69.17-.17.04-.87.13-.36.08-.49.05-.98.08-1.47.07-.29,0-.57-.03-.86-.05-.32-.03.07.01.11.02-.16-.03-.32-.05-.47-.09-.55-.11-1.07-.28-1.59-.46-.03-.01-.39-.16-.12-.04.28.12-.17-.08-.21-.11-.28-.14-.55-.28-.82-.44-.23-.14-.45-.29-.68-.44-.03-.02-.34-.25-.1-.07.24.18-.14-.12-.18-.15-.4-.36-.78-.74-1.14-1.14-.08-.09-.15-.18-.22-.27.24.29.05.07-.07-.11-.15-.23-.3-.45-.44-.68-.14-.23-.26-.48-.38-.72-.05-.1-.1-.21-.15-.32.11.24.08.22,0-.01-.19-.57-.37-1.12-.48-1.71-.02-.12-.04-.24-.06-.36.04.27.02.24,0-.01-.02-.33-.04-.65-.04-.98-.02-1.4-1.22-2.74-2.67-2.67-1.44.06-2.69,1.17-2.67,2.67.06,5.74,3.65,10.72,9,12.71,5.12,1.91,11.34.2,14.78-4.03,3.58-4.4,4.24-10.65,1.28-15.58-2.97-4.94-8.74-7.37-14.35-6.28-6.22,1.2-10.64,6.96-10.71,13.19-.02,1.4,1.24,2.74,2.67,2.67,1.46-.07,2.66-1.17,2.67-2.67"/>
        <path class="cls-4" d="m5.35,124.42c0-.25,0-.49.02-.74.01-.18.09-.72.01-.25.09-.55.22-1.09.39-1.62.07-.22.15-.44.24-.66-.17.43.03-.06.11-.21.24-.49.54-.94.83-1.39.27-.41-.18.18.15-.19.15-.17.3-.35.46-.51.16-.17.32-.33.49-.48.08-.08.17-.15.26-.23.04-.03.41-.34.18-.15-.2.16.3-.2.39-.26.23-.15.46-.29.69-.42.2-.11.41-.21.62-.32.03-.02.39-.17.11-.05-.28.12.18-.06.23-.08.45-.15.9-.29,1.37-.39.11-.02.74-.13.47-.1-.34.05.17-.01.25-.02.16-.01.33-.02.49-.03.49-.02.98,0,1.48.05.32.03-.07-.01-.11-.02.12.02.24.04.36.06.27.05.54.12.81.19.27.07.53.16.79.25.11.04.22.08.33.12-.04-.02-.38-.17-.1-.04.45.22.9.45,1.32.73.19.13.38.26.57.39-.36-.27.05.05.18.16.41.36.76.75,1.13,1.15.33.36-.12-.22.15.19.13.19.26.38.38.58.12.2.24.4.35.6.09.16.41.89.22.42.17.44.32.89.43,1.35.06.23.1.47.15.7,0,.04.07.43.02.12-.04-.31.01.19.02.25.04.53.05,1.07,0,1.6-.01.18-.09.72-.01.25-.05.28-.1.55-.16.82-.11.46-.26.91-.42,1.35-.11.29.03-.06.05-.1-.06.14-.13.28-.2.42-.12.24-.25.48-.39.71-.12.2-.25.39-.38.58-.06.1-.13.19-.2.28.02-.03.26-.32.06-.09-.35.41-.71.8-1.12,1.16-.08.07-.55.46-.35.31.2-.16-.3.2-.39.26-.42.28-.87.51-1.31.74-.44.23.25-.06-.22.1-.26.09-.52.18-.78.26-.23.06-.46.12-.69.17-.17.04-.87.13-.36.08-.49.05-.98.08-1.47.07-.29,0-.57-.03-.86-.05-.32-.03.07.01.11.02-.16-.03-.32-.05-.47-.09-.55-.11-1.07-.28-1.59-.46-.03-.01-.39-.16-.12-.04.28.12-.17-.08-.21-.11-.28-.14-.55-.28-.82-.44-.23-.14-.45-.29-.68-.44-.03-.02-.34-.25-.1-.07.24.18-.14-.12-.18-.15-.4-.36-.78-.74-1.14-1.14-.08-.09-.15-.18-.22-.27.24.29.05.07-.07-.11-.15-.23-.3-.45-.44-.68-.14-.23-.26-.48-.38-.72-.05-.1-.1-.21-.15-.32.11.24.08.22,0-.01-.19-.57-.37-1.12-.48-1.71-.02-.12-.04-.24-.06-.36.04.27.02.24,0-.01-.02-.33-.04-.65-.04-.98-.02-1.4-1.22-2.74-2.67-2.67-1.44.06-2.69,1.17-2.67,2.67.06,5.74,3.65,10.72,9,12.71,5.12,1.91,11.34.2,14.78-4.03,3.58-4.4,4.24-10.65,1.28-15.58-2.97-4.94-8.74-7.37-14.35-6.28C4.49,112.43.07,118.19,0,124.42c-.02,1.4,1.24,2.74,2.67,2.67,1.46-.07,2.66-1.17,2.67-2.67"/>
        <path class="cls-4" d="m16.42,85.36l7.49,13.67c3.97,7.26,7.95,14.51,11.92,21.77.91,1.66,1.81,3.31,2.72,4.97.69,1.27,2.44,1.67,3.66.96,1.28-.75,1.65-2.39.96-3.66-2.5-4.56-4.99-9.11-7.49-13.67-3.97-7.26-7.95-14.51-11.92-21.77-.91-1.66-1.81-3.31-2.72-4.97-.69-1.27-2.44-1.67-3.66-.96-1.28.75-1.65,2.39-.96,3.66"/>
        <path class="cls-4" d="m32.47,78.91c.29-2.44.58-4.89.87-7.33.69-5.87,1.39-11.74,2.08-17.61l2.52-21.3c.73-6.14,1.45-12.28,2.18-18.41.35-2.96.89-5.97,1.06-8.95,0-.04,0-.08.01-.13.17-1.44-1.36-2.67-2.67-2.67H15.28c-1.4,0-2.74,1.23-2.67,2.67.06,1.45,1.17,2.67,2.67,2.67h13.69l-2.67-2.67-1.55,11.91c-1.23,9.47-2.46,18.94-3.69,28.41-1.5,11.51-2.99,23.02-4.49,34.53-1.29,9.9-2.57,19.8-3.86,29.7-.43,3.28-.85,6.56-1.28,9.84-.2,1.55-.48,3.1-.61,4.66,0,.07-.02.13-.03.2-.18,1.39,1.36,2.73,2.67,2.67,1.6-.07,2.48-1.18,2.67-2.67.52-3.97,1.03-7.94,1.55-11.91,1.23-9.47,2.46-18.94,3.69-28.41,1.49-11.51,2.99-23.02,4.48-34.53,1.29-9.9,2.57-19.8,3.86-29.7.43-3.28.85-6.56,1.28-9.84.2-1.55.48-3.1.6-4.66,0-.07.02-.13.03-.2.19-1.44-1.38-2.67-2.67-2.67h-13.69c-1.4,0-2.74,1.23-2.67,2.67.06,1.45,1.17,2.67,2.67,2.67h23.23l-2.67-2.67c-.29,2.44-.58,4.89-.87,7.33-.69,5.87-1.39,11.74-2.08,17.61-.84,7.1-1.68,14.2-2.52,21.3-.73,6.14-1.45,12.28-2.18,18.41-.35,2.96-.89,5.97-1.06,8.95,0,.04,0,.08-.01.13-.16,1.39,1.35,2.73,2.67,2.67,1.59-.07,2.5-1.18,2.67-2.67"/>
        <path class="cls-4" d="m27.48,80.26c2.14,4.12,4.28,8.23,6.42,12.35,3.41,6.55,6.82,13.11,10.23,19.66.78,1.49,1.56,2.99,2.33,4.49.67,1.28,2.46,1.66,3.66.96,1.3-.76,1.63-2.37.96-3.66-2.14-4.12-4.28-8.23-6.42-12.35-3.41-6.55-6.82-13.11-10.23-19.66-.78-1.5-1.56-2.99-2.33-4.49-.67-1.28-2.46-1.66-3.66-.96-1.3.76-1.63,2.37-.96,3.66"/>
        <path class="cls-4" d="m45,5.19c0-2.57,2.09-4.66,4.66-4.66s4.66,2.09,4.66,4.66-2.09,4.66-4.66,4.66-4.66-2.09-4.66-4.66"/>
        <path class="cls-4" d="m9.37,4.96C9.37,2.22,11.59,0,14.33,0s4.96,2.22,4.96,4.96-2.22,4.96-4.96,4.96-4.96-2.22-4.96-4.96"/>
        <path class="cls-4" d="m38.51,7.86h6.48c.69,0,1.41-.3,1.89-.78.46-.46.81-1.22.78-1.89-.06-1.45-1.17-2.67-2.67-2.67h-6.48c-.69,0-1.41.3-1.89.78-.46.46-.81,1.22-.78,1.89.06,1.45,1.17,2.67,2.67,2.67"/>
        <path class="cls-4" d="m48.48,118.09h59.94c2.77,0,5.56.09,8.33,0,.04,0,.08,0,.12,0,1.4,0,2.74-1.23,2.67-2.67-.06-1.45-1.17-2.67-2.67-2.67h-59.94c-2.77,0-5.56-.09-8.33,0-.04,0-.08,0-.12,0-1.4,0-2.74,1.23-2.67,2.67.06,1.45,1.17,2.67,2.67,2.67"/>
        <path class="cls-4" d="m141.05,111.1c-1.91-5.27-7.18-8.22-12.48-9.14-5.68-.98-12-.26-16.9,2.97-2.99,1.97-5.16,4.67-6.44,8.01-.5,1.31.55,2.99,1.87,3.29,1.53.35,2.75-.47,3.29-1.87.05-.14.32-.72.01-.05.05-.11.1-.22.15-.34.13-.27.27-.54.42-.81.15-.26.31-.52.47-.77.07-.1.13-.2.2-.29.07-.1.14-.19.21-.29-.22.28-.27.35-.15.19.39-.4.73-.84,1.13-1.23.21-.2.43-.4.65-.59.09-.08.18-.15.27-.22.4-.35-.47.32.09-.06.47-.32.93-.63,1.42-.9.26-.15.52-.29.79-.42.17-.09,1.25-.55.51-.25,1.13-.45,2.28-.81,3.47-1.06.3-.06.6-.12.9-.17.12-.02.24-.04.36-.06.61-.1-.48.04-.07,0,.64-.04,1.28-.13,1.92-.15.33-.01,3.61-.07,3.64.16,0-.02-.65-.1-.09,0,.15.02.29.05.44.07.29.05.58.11.87.17.57.12,1.13.27,1.69.44.51.16,1.13.3,1.59.57-.69-.41.07.04.27.14.24.12.48.24.72.37.51.28,1.18.6,1.58,1.03-.02-.02-.51-.43-.18-.13.11.1.23.2.35.3.22.2.44.41.64.63.11.12.66.76.37.4-.29-.35.21.3.3.44.16.24.3.5.43.76.04.09.08.18.12.26.22.41-.24-.64,0,.03.49,1.36,1.82,2.27,3.29,1.87,1.31-.36,2.36-1.92,1.87-3.29"/>
      </g>
    </g>
  </g>
</svg>