<?xml version="1.0" encoding="UTF-8"?>
<svg id="Livello_2" data-name="Livello 2" xmlns="http://www.w3.org/2000/svg" xmlns:xlink="http://www.w3.org/1999/xlink" viewBox="0 0 143.74 79.19">
  <defs>
    <style>
      .cls-1, .cls-2, .cls-3 {
        fill: none;
      }

      .cls-2 {
        clip-path: url(#clippath);
      }

      .cls-3 {
        clip-path: url(#clippath-1);
      }

      .cls-4 {
        fill: #010101;
      }
    </style>
    <clipPath id="clippath">
      <rect class="cls-1" x="0" y="0" width="143.74" height="79.19"/>
    </clipPath>
    <clipPath id="clippath-1">
      <rect class="cls-1" x="0" y="0" width="143.74" height="79.19"/>
    </clipPath>
  </defs>
  <g id="moto">
    <g class="cls-2">
      <g class="cls-3">
        <path class="cls-4" d="m120.34,32.37c-3.16,0-6.17.63-8.92,1.77l-1.29-2.43c3.17-1.35,6.63-2.08,10.21-2.08,4.47,0,8.88,1.15,12.76,3.33,1.11.62,2.52.23,3.14-.88.62-1.11.23-2.52-.88-3.14-4.57-2.57-9.76-3.92-15.02-3.92-4.36,0-8.57.93-12.39,2.61l-2.28-4.28c.21.01.43.02.65.02h5.34c1.27,0,2.31-1.03,2.31-2.31V6.14c0-1.27-1.03-2.31-2.31-2.31h-5.34c-3.62,0-6.77,2.04-8.37,5.03l-4.07-7.64c-.4-.75-1.18-1.22-2.04-1.22h-10.87c-1.27,0-2.31,1.03-2.31,2.31s1.03,2.31,2.31,2.31h9.49l3.92,7.36c-.5-.37-1.04-.71-1.61-1.01-3.48-1.83-7.68-1.93-11.24-.29l-7.19,3.32c-2.6,1.2-4.64,3.19-5.93,5.57-2.07-2.29-4.94-3.85-8.22-4.22l-35.03-3.96c-1.79-.2-3.58.37-4.92,1.57-1.34,1.2-2.11,2.92-2.11,4.71v10.14c-.44.19-.88.39-1.3.61-7.96,4.1-13.73,11.42-15.84,20.09-.3,1.24.46,2.49,1.7,2.79.18.04.37.07.55.07,1.04,0,1.98-.71,2.24-1.76,1.79-7.36,6.7-13.59,13.47-17.08,2.42-1.25,5.19-1.9,8.02-1.9h40.19v6.69h-21.94c-3.97-3.09-8.94-4.94-14.33-4.94-12.02,0-22.02,9.19-23.27,20.91H2.31c-1.27,0-2.31,1.03-2.31,2.31v7.67c0,1.27,1.03,2.31,2.31,2.31h7.3c3.79,8.21,12.14,13.62,21.26,13.62s17.47-5.41,21.26-13.62h15.9c5.03,0,9.18-3.86,9.65-8.77,4.28-1.54,7.92-4.62,10.13-8.78l10.93-21.34c.62-1.64.87-3.34.8-5.01l4.33,8.13c-5.78,3.67-10.33,9.25-12.65,16.05-.41,1.21.23,2.52,1.44,2.93.25.08.5.12.75.12.96,0,1.86-.6,2.18-1.56,1.94-5.67,5.69-10.34,10.46-13.46l1.3,2.43c-6.28,4.2-10.42,11.36-10.42,19.46,0,12.91,10.5,23.41,23.41,23.41s23.41-10.5,23.41-23.41-10.5-23.41-23.41-23.41m-18.9-19.05c0-2.69,2.19-4.87,4.87-4.87h3.03v10.3h-3.03c-2.69,0-4.87-2.19-4.87-4.87v-.56Zm-25.17,4.87l7.19-3.32c2.27-1.05,4.95-.98,7.16.18,3.6,1.89,5.24,6.2,3.81,10.01l-.35.94h-22.52c-.03-.17-.07-.35-.1-.52.1-3.08,1.91-5.95,4.82-7.29m-46.13,7.81h-7.4v-8.33c0-.66.36-1.08.57-1.27.21-.19.67-.5,1.33-.42l35.03,3.96c3.47.39,6.25,2.85,7.16,6.07H30.14Zm24,27.28c-.45-4.22-2.04-8.11-4.44-11.36h9.39l5.91,11.36h-10.87Zm-23.27-16.3c9.48,0,17.39,7.12,18.62,16.3H12.25c1.23-9.17,9.14-16.3,18.62-16.3m0,37.59c-6.58,0-12.67-3.51-16.04-9h2.93c3.09,4.14,7.9,6.58,13.11,6.58s10.02-2.44,13.11-6.58h2.93c-3.37,5.49-9.45,9-16.04,9m-6.5-9h13.01c-1.9,1.26-4.14,1.97-6.5,1.97-2.36,0-4.61-.7-6.5-1.97m48.33-7.67c-.78,1.8-2.58,3.06-4.66,3.06H4.62v-3.06h68.07Zm11.04-12.05c-2.44,4.58-7.17,7.43-12.37,7.43h-1.16l-5.91-11.36h5.15c1.27,0,2.31-1.03,2.31-2.31v-9h20.07l-8.09,15.23Zm36.6,28.72c-10.36,0-18.79-8.43-18.79-18.79,0-6.34,3.16-11.96,7.99-15.36l1.15,2.15c-4.07,2.98-6.72,7.79-6.72,13.21,0,9.03,7.35,16.38,16.38,16.38s16.38-7.35,16.38-16.38-7.35-16.38-16.38-16.38c-1.96,0-3.85.35-5.59.98l-1.15-2.15c2.09-.81,4.36-1.25,6.74-1.25,10.36,0,18.79,8.43,18.79,18.79s-8.43,18.79-18.79,18.79m-4.91-23.1c.42.78,1.21,1.22,2.04,1.22.37,0,.74-.09,1.08-.27,1.12-.6,1.55-2,.95-3.12l-2.55-4.79c1.07-.32,2.21-.5,3.39-.5,6.48,0,11.76,5.28,11.76,11.76s-5.28,11.76-11.76,11.76-11.76-5.28-11.76-11.76c0-3.66,1.68-6.93,4.3-9.09l2.55,4.78Z"/>
        <path class="cls-4" d="m118.2,56.66c.62,1.47,2.63,1.92,3.76.75.89-.87.89-2.39,0-3.26-.75-.78-2.02-.89-2.91-.29-.91.61-1.25,1.79-.85,2.8.06.14-.06-.14,0,0"/>
      </g>
    </g>
  </g>
</svg>