<?xml version="1.0" encoding="UTF-8"?>
<svg id="Livello_2" data-name="Livello 2" xmlns="http://www.w3.org/2000/svg" xmlns:xlink="http://www.w3.org/1999/xlink" viewBox="0 0 80.2 127.18">
  <defs>
    <style>
      .cls-1, .cls-2, .cls-3 {
        fill: none;
      }

      .cls-2 {
        clip-path: url(#clippath);
      }

      .cls-3 {
        clip-path: url(#clippath-1);
      }

      .cls-4 {
        fill: #1d1d1c;
      }
    </style>
    <clipPath id="clippath">
      <rect class="cls-1" width="80.2" height="127.18"/>
    </clipPath>
    <clipPath id="clippath-1">
      <rect class="cls-1" width="80.2" height="127.18"/>
    </clipPath>
  </defs>
  <g id="orologio_a_pendolo" data-name="orologio a pendolo">
    <g class="cls-2">
      <g class="cls-3">
        <path class="cls-4" d="m8.97,37.62v68.43c0,.92-.01,1.85,0,2.77,0,.04,0,.08,0,.12,0,.58.49,1.07,1.07,1.07h56.87c.77,0,1.54.01,2.31,0,.03,0,.07,0,.1,0,.58,0,1.07-.49,1.07-1.07V40.51c0-.92.01-1.85,0-2.77,0-.04,0-.08,0-.12,0-.58-.49-1.07-1.07-1.07H12.45c-.77,0-1.54-.01-2.31,0-.03,0-.07,0-.1,0-.56,0-1.09.49-1.07,1.07.03.58.47,1.07,1.07,1.07h56.87c.77,0,1.54.03,2.31,0,.03,0,.07,0,.1,0l-1.07-1.07v68.43c0,.92-.03,1.85,0,2.77,0,.04,0,.08,0,.12l1.07-1.07H12.45c-.77,0-1.54-.03-2.31,0-.03,0-.07,0-.1,0l1.07,1.07V40.51c0-.92.01-1.85,0-2.77,0-.04,0-.08,0-.12,0-.56-.49-1.09-1.07-1.07-.58.03-1.07.47-1.07,1.07"/>
        <path class="cls-4" d="m19.58,108.94V40.51c0-.92.01-1.85,0-2.77,0-.04,0-.08,0-.12,0-.56-.49-1.09-1.07-1.07-.58.03-1.07.47-1.07,1.07v68.43c0,.92-.01,1.85,0,2.77,0,.04,0,.08,0,.12,0,.56.49,1.09,1.07,1.07.58-.03,1.07-.47,1.07-1.07"/>
        <path class="cls-4" d="m62.37,108.94V40.51c0-.92.01-1.85,0-2.77,0-.04,0-.08,0-.12,0-.56-.49-1.09-1.07-1.07-.58.03-1.07.47-1.07,1.07v68.43c0,.92-.01,1.85,0,2.77,0,.04,0,.08,0,.12,0,.56.49,1.09,1.07,1.07.58-.03,1.07-.47,1.07-1.07"/>
        <path class="cls-4" d="m9.12,108.4c-.97,1.51-1.6,3.2-1.71,5-.03.58.52,1.07,1.07,1.07h60.94c.82,0,1.65.01,2.48,0,.04,0,.07,0,.11,0,.53,0,1.13-.49,1.07-1.07-.23-2.1-1.46-3.81-2.99-5.21-.42-.39-1.09-.42-1.51,0-.4.4-.43,1.12,0,1.51.68.63,1.24,1.22,1.7,1.97.09.15.18.31.26.47.05.09.09.19.13.28-.07-.17.03.09.04.12.06.16.1.31.14.47.02.09.04.19.06.28.05.23-.01-.16.02.1l1.07-1.07H11.06c-.82,0-1.65-.03-2.48,0-.04,0-.07,0-.11,0,.36.36.71.71,1.07,1.07.08-1.32.63-2.7,1.41-3.92.31-.49.1-1.18-.38-1.46-.52-.3-1.15-.1-1.46.38"/>
        <path class="cls-4" d="m72,114.47h3.13c.18,0,.39.07,0-.03.1.03.12.08-.17-.08.08.05.14.12-.14-.11.02.02.04.04.06.05.11.11-.09,0-.09-.13,0,.03.07.11.08.14.02.03.03.07.05.1.08.14-.1-.3-.03-.07.12.4.21.79.28,1.2.02.1.09.24,0-.04.02.06.02.13.02.19.01.13.03.26.04.39.03.29.04.59.05.88.02.56.02,1.12,0,1.68-.01.25-.03.49-.05.74-.01.13-.02.26-.04.38,0,.06,0,.13-.02.19.08-.35,0-.07,0,.01-.03.22-.08.43-.13.64-.04.14-.17.38-.16.52,0-.19.12-.24.05-.11-.02.03-.03.06-.05.09-.01.03-.04.05-.05.08-.05.14.19-.23.1-.12-.16.18.11-.07.08-.05.07-.04.28-.11.37-.1-.07,0-.15,0-.22,0H5.36c-.18,0-.36,0-.54,0-.04,0-.08,0-.11,0,0,0-.01,0-.02,0-.11.01.35.08.13.01.33.11.25.11.16.06-.17-.1.22.18.1.08-.13-.11-.03-.17.04.07-.02-.06-.09-.13-.12-.19-.02-.04-.04-.07-.05-.11-.1-.19.07.08.04.09,0,0-.1-.29-.11-.32-.06-.19-.1-.39-.15-.58-.02-.12-.05-.23-.06-.35,0-.06-.02-.12-.03-.18-.03-.19.03.27,0-.03-.11-1.09-.13-2.19-.03-3.28.01-.13.01-.27.04-.39-.09.35.01-.06.03-.15.04-.24.09-.48.16-.72.02-.08.05-.16.07-.24.01-.05.03-.09.05-.14.06-.17.07,0-.04.09.05-.04.08-.17.11-.22.02-.03.04-.06.06-.1.1-.2-.16.19-.06.08.13-.15.06-.05-.07.03.21-.13-.18.05-.1.03.19-.06-.3,0-.15.02.04,0,.09,0,.13,0,.42,0,.85,0,1.27,0h2.39c.56,0,1.09-.49,1.07-1.07-.03-.58-.47-1.07-1.07-1.07h-2.59c-.83,0-1.73-.14-2.37.52-.72.74-.88,1.91-1.01,2.88-.14,1.13-.16,2.27-.06,3.4.13,1.41.41,3.87,2.28,3.92.43.01.85,0,1.28,0h68.75c.63,0,1.2.02,1.67-.52.67-.76.78-1.94.88-2.9.12-1.13.13-2.29.04-3.42-.08-.99-.17-2.08-.65-2.97-.27-.5-.74-.86-1.32-.9-.29-.02-.58,0-.87,0h-2.52c-.56,0-1.09.49-1.07,1.07.03.58.47,1.07,1.07,1.07"/>
        <path class="cls-4" d="m4.85,121.98v4.12c0,.58.49,1.07,1.07,1.07h65.53c.89,0,1.78.01,2.67,0,.04,0,.07,0,.11,0,.58,0,1.07-.49,1.07-1.07v-4.12c0-.56-.49-1.09-1.07-1.07-.58.03-1.07.47-1.07,1.07v4.12l1.07-1.07H8.7c-.89,0-1.78-.03-2.67,0-.04,0-.07,0-.11,0l1.07,1.07v-4.12c0-.56-.49-1.09-1.07-1.07-.58.03-1.07.47-1.07,1.07"/>
        <path class="cls-4" d="m18.51,96.91h3.79l-.92-.53c3.24,5.2,7.96,9.85,14.03,11.44,5.46,1.43,11.15.02,15.71-3.19,3.14-2.21,5.72-5.09,7.87-8.25-.31.18-.61.35-.92.53h3.23c.56,0,1.09-.49,1.07-1.07-.03-.58-.47-1.07-1.07-1.07h-3.08s-.1,0-.14,0c-.53.03-.79.32-1.06.73-.33.48-.67.96-1.02,1.42-.05.06-.09.12-.14.18.02-.02.07-.09,0,0-.08.1-.16.21-.25.31-.19.23-.38.46-.57.69-.35.42-.71.83-1.09,1.22-.71.76-1.46,1.48-2.25,2.16-.18.15-.36.3-.54.45-.09.07-.18.15-.27.22-.02.02-.18.14-.09.07.09-.07-.13.1-.13.1-.39.29-.78.57-1.18.84-.77.51-1.58.98-2.41,1.38-.19.09-.38.18-.57.27-.09.04-.19.08-.29.13-.15.07.16-.06,0,0-.07.03-.14.06-.21.08-.41.16-.82.31-1.24.45-.8.26-1.62.46-2.45.6-.1.02-.19.03-.29.05-.06,0-.11.02-.17.02.03,0,.24-.03.03,0-.21.02-.42.05-.63.07-.42.04-.83.06-1.25.06-.42,0-.83,0-1.25-.04-.21-.01-.42-.03-.62-.05-.1-.01-.19-.02-.29-.03-.04,0-.08-.01-.12-.02.26.03.05,0,0,0-.83-.13-1.66-.31-2.46-.56-.41-.13-.81-.27-1.21-.42-.09-.04-.19-.07-.28-.11-.04-.02-.19-.08.01,0-.04-.02-.08-.03-.12-.05-.21-.09-.43-.19-.64-.29-.81-.39-1.59-.84-2.34-1.34-.39-.26-.77-.53-1.14-.81-.1-.07.01.01.03.02-.05-.04-.1-.08-.15-.12-.09-.07-.17-.14-.26-.21-.2-.16-.4-.33-.59-.5-.76-.66-1.47-1.37-2.15-2.12-.34-.38-.67-.77-.99-1.16-.36-.45-.53-.67-.89-1.17-.33-.46-.65-.92-.96-1.4-.35-.53-.62-1.09-1.34-1.11-1.13-.04-2.27,0-3.4,0h-.35c-.56,0-1.09.49-1.07,1.07.03.58.47,1.07,1.07,1.07"/>
        <path class="cls-4" d="m18.51,54.62h2.85c.14,0,.28,0,.42,0,.7-.04,1.06-.67,1.48-1.16.77-.9,1.57-1.77,2.41-2.61.76-.76,1.54-1.5,2.36-2.2.81-.69,1.41-1.16,2.27-1.76.77-.53,1.57-1.03,2.39-1.47.39-.21.79-.41,1.2-.59.09-.04.18-.08.27-.12.06-.03.12-.05.18-.08-.02,0-.15.06-.03.01.21-.08.41-.17.62-.24.78-.29,1.57-.52,2.39-.69.19-.04.38-.08.57-.11.09-.02.18-.03.26-.04.04,0,.09-.01.13-.02.13-.02-.19.02.02,0,.4-.05.79-.08,1.19-.1.78-.03,1.56,0,2.33.09.06,0,.12.01.18.02-.01,0-.19-.03-.06,0,.09.02.18.03.26.04.21.03.41.07.61.11.4.08.79.18,1.19.29.4.12.79.25,1.18.39.19.07.38.15.57.22-.18-.07.08.04.14.06.1.05.2.09.31.14.82.38,1.6.81,2.36,1.29.4.25.79.52,1.18.8.45.32.66.48,1.05.8.82.66,1.6,1.37,2.35,2.1.82.8,1.6,1.64,2.35,2.51.38.44.76.89,1.13,1.35.37.46.65.94,1.31.97,1.01.05,2.03,0,3.05,0h.31c.56,0,1.09-.49,1.07-1.07-.03-.58-.47-1.07-1.07-1.07h-3.4c.25.1.5.21.76.31-3.72-4.74-8.48-9.4-14.48-10.98-2.46-.65-5.04-.69-7.52-.15-2.65.57-5.16,1.81-7.38,3.35-3.12,2.16-5.81,4.87-8.23,7.78.25-.1.5-.21.76-.31h-3.29c-.56,0-1.09.49-1.07,1.07.03.58.47,1.07,1.07,1.07"/>
        <path class="cls-4" d="m26.93,61.29c0-.37.01-.73.04-1.1.01-.2.03-.39.06-.59,0-.06.02-.13.02-.19-.03.24.03-.16.03-.2.12-.71.29-1.42.51-2.1.1-.32.22-.63.34-.94.11-.29-.09.19.04-.09.04-.09.08-.17.12-.26.08-.17.16-.34.25-.51.32-.63.68-1.23,1.09-1.8.1-.14.2-.28.3-.41-.13.16.13-.16.18-.22.24-.29.49-.56.75-.83.24-.25.48-.48.74-.71.12-.1.23-.21.35-.31.07-.06.14-.12.22-.18.05-.04.1-.08.15-.12-.09.07-.09.07,0,0,.55-.41,1.12-.79,1.73-1.12.3-.17.61-.32.92-.47.06-.03.47-.2.26-.12.2-.08.41-.16.62-.24.66-.24,1.34-.43,2.03-.56.19-.04.38-.07.57-.1.06,0,.13-.02.19-.03-.25.04.08,0,.1-.01.39-.05.79-.08,1.18-.09.73-.03,1.46,0,2.18.09.03,0,.35.05.1.01.1.01.19.03.29.04.16.03.32.06.48.09.38.08.75.17,1.12.27.34.1.67.2,1,.33.15.05.3.11.44.17.29.11-.19-.09.09.04.09.04.17.08.26.12.65.3,1.28.65,1.89,1.05.29.19.57.39.84.59-.16-.12-.03-.02,0,0,.07.06.15.12.22.18.14.12.28.24.42.36.53.48,1.03.99,1.48,1.54.04.05.31.39.18.22.11.15.22.3.33.45.21.29.4.59.59.9.17.28.33.57.48.86.09.17.17.34.25.51.03.07.06.14.1.22.02.04.04.09.06.13-.05-.11-.05-.11,0,0,.27.68.5,1.38.67,2.09.07.31.14.63.19.95.02.1.03.19.04.29-.04-.25,0,.08.01.1.02.2.04.39.06.59.06.76.06,1.53,0,2.29-.01.16-.03.33-.05.49,0,.03-.05.35-.01.1-.01.08-.02.16-.04.24-.06.37-.13.73-.22,1.09-.17.71-.4,1.41-.68,2.08.08-.18.01-.03,0,0-.04.09-.08.17-.12.26-.08.17-.16.34-.25.51-.16.31-.32.61-.5.9-.18.29-.36.58-.56.86-.1.14-.2.28-.3.41-.11.15.16-.19-.03.04-.08.1-.16.19-.24.29-.44.52-.92,1.02-1.42,1.47-.14.12-.28.25-.42.36-.06.05-.12.1-.18.15-.04.03-.2.16-.04.03-.3.23-.6.44-.92.65-.58.37-1.18.71-1.81,1-.09.04-.17.08-.26.12-.29.13.2-.07-.09.04-.15.06-.29.12-.44.17-.36.13-.72.25-1.09.35-.34.09-.68.18-1.03.25-.16.03-.32.06-.48.09-.1.02-.19.03-.29.04.24-.04-.11.01-.15.02-.74.08-1.49.11-2.23.08-.36-.01-.72-.04-1.08-.09-.03,0-.35-.05-.1-.01-.06,0-.13-.02-.19-.03-.22-.04-.45-.08-.67-.12-1.51-.31-2.59-.73-3.82-1.42-.6-.33-1.17-.71-1.72-1.13.19.14-.06-.05-.08-.06-.07-.06-.14-.12-.22-.18-.12-.1-.24-.2-.35-.31-.28-.25-.55-.51-.8-.78-.23-.24-.44-.48-.65-.73-.05-.06-.1-.12-.15-.18-.02-.02-.21-.26-.06-.08-.11-.15-.22-.3-.33-.45-.41-.59-.78-1.2-1.11-1.85-.07-.14-.14-.28-.2-.42-.04-.09-.08-.17-.12-.26-.13-.29.07.2-.04-.09-.13-.32-.25-.65-.36-.98-.23-.7-.4-1.42-.51-2.15,0-.03-.05-.35-.02-.1,0-.06-.02-.13-.02-.19-.02-.2-.04-.39-.06-.59-.03-.36-.04-.73-.04-1.1,0-.56-.49-1.09-1.07-1.07-.58.03-1.07.47-1.07,1.07.01,3.16.98,6.32,2.82,8.89,1.85,2.58,4.4,4.54,7.38,5.64,6.01,2.21,13.08.28,17.13-4.68,2.04-2.5,3.27-5.53,3.51-8.75.24-3.14-.54-6.36-2.16-9.05-1.59-2.63-3.98-4.8-6.78-6.07-3.01-1.36-6.34-1.75-9.58-1.1-6.17,1.24-11.18,6.44-12.12,12.67-.12.81-.2,1.63-.2,2.45,0,.56.49,1.09,1.07,1.07.58-.03,1.07-.47,1.07-1.07"/>
        <path class="cls-4" d="m39.17,48.71v2.34c0,.27.12.56.31.76.19.19.49.32.76.31.28-.01.56-.1.76-.31.19-.21.31-.47.31-.76v-2.34c0-.27-.12-.56-.31-.76-.19-.19-.49-.32-.76-.31-.28.01-.56.1-.76.31-.19.21-.31.47-.31.76"/>
        <path class="cls-4" d="m33.08,51.8c.44.44.88.88,1.32,1.32.06.06.13.13.19.19.19.19.48.31.76.31.15,0,.28-.03.41-.09.13-.04.25-.12.34-.22.19-.2.33-.47.31-.76-.01-.28-.11-.55-.31-.76-.44-.44-.88-.88-1.32-1.32-.06-.06-.12-.12-.19-.19-.19-.19-.48-.31-.76-.31-.15,0-.28.03-.41.09-.13.04-.25.12-.34.22-.19.2-.33.47-.31.76.01.28.11.55.31.76"/>
        <path class="cls-4" d="m45.78,50.29c-.34.44-.68.88-1.03,1.32-.05.06-.1.12-.15.19-.1.1-.18.21-.22.34-.07.13-.1.26-.09.41,0,.15.03.28.09.41.04.13.12.25.22.34.2.19.47.33.76.31.09-.01.19-.03.28-.04.18-.05.34-.14.47-.27l1.03-1.32c.05-.06.1-.12.14-.19.1-.1.18-.21.22-.34.07-.13.1-.26.09-.41,0-.15-.03-.28-.09-.41-.04-.13-.12-.25-.22-.34-.2-.19-.47-.33-.76-.31-.09.01-.19.03-.28.04-.18.05-.34.14-.47.27"/>
        <path class="cls-4" d="m52.05,59.17h-2.67c-.56,0-1.09.49-1.07,1.07.03.58.47,1.07,1.07,1.07h2.67c.56,0,1.09-.49,1.07-1.07-.03-.58-.47-1.07-1.07-1.07"/>
        <path class="cls-4" d="m30.32,59.17h-2.67c-.56,0-1.09.49-1.07,1.07.03.58.47,1.07,1.07,1.07h2.67c.56,0,1.09-.49,1.07-1.07-.03-.58-.47-1.07-1.07-1.07"/>
        <path class="cls-4" d="m32.7,54.97c-.93-.44-1.86-.88-2.78-1.32-.13-.06-.26-.12-.39-.19-.26-.13-.53-.19-.82-.11-.25.07-.52.26-.64.49-.25.48-.16,1.21.38,1.46.93.44,1.86.88,2.78,1.32l.39.19c.26.13.53.19.82.11.25-.07.52-.26.64-.49.25-.48.16-1.21-.38-1.46"/>
        <path class="cls-4" d="m48.09,66.62c.68.24,1.36.49,2.05.73.1.04.2.07.29.11.25.09.6.02.82-.11.22-.13.43-.38.49-.64.06-.27.05-.58-.11-.82-.16-.24-.36-.39-.64-.49-.68-.24-1.36-.49-2.05-.73-.1-.04-.2-.07-.29-.11-.25-.09-.6-.02-.82.11-.22.13-.43.38-.49.64-.06.27-.05.58.11.82.16.24.36.39.64.49"/>
        <path class="cls-4" d="m44.44,69.31c.34.68.68,1.37,1.02,2.05.05.1.1.19.15.29.12.23.4.42.64.49.26.07.6.04.82-.11.23-.15.43-.37.49-.64.07-.29.03-.56-.11-.82-.34-.68-.68-1.37-1.02-2.05-.05-.1-.1-.19-.15-.29-.12-.23-.4-.42-.64-.49-.26-.07-.6-.04-.82.11-.23.15-.43.37-.49.64-.07.29-.03.56.11.82"/>
        <path class="cls-4" d="m39.17,69.94c-.1.97-.19,1.95-.29,2.92-.01.14-.03.28-.04.42-.03.26.14.58.31.76.19.19.49.32.76.31.28-.01.56-.1.76-.31.2-.22.28-.46.31-.76.1-.97.19-1.95.29-2.92.01-.14.03-.28.04-.42.03-.26-.14-.58-.31-.76-.19-.19-.49-.32-.76-.31-.28.01-.56.1-.76.31-.2.22-.28.46-.31.76"/>
        <path class="cls-4" d="m34.58,68.01l-1.32,1.03c-.06.05-.12.1-.19.15-.1.1-.18.21-.22.34-.07.13-.1.26-.09.41,0,.15.03.28.09.41.04.13.12.25.22.34.2.19.47.33.76.31.09-.01.19-.03.28-.04.18-.05.34-.14.47-.27.44-.34.88-.68,1.32-1.03.06-.05.12-.1.19-.15.1-.1.18-.21.22-.34.07-.13.1-.26.09-.41,0-.15-.03-.28-.09-.41-.04-.13-.12-.25-.22-.34-.2-.19-.47-.33-.76-.31-.09.01-.19.03-.28.04-.18.05-.34.14-.47.27"/>
        <path class="cls-4" d="m31.62,64c-.93.44-1.86.88-2.78,1.32-.13.06-.26.12-.39.19-.23.11-.43.4-.49.64-.07.26-.04.6.11.82.15.23.37.43.64.49.29.07.55.02.82-.11.93-.44,1.86-.88,2.78-1.32.13-.06.26-.12.39-.19.23-.11.43-.4.49-.64.07-.26.04-.6-.11-.82-.15-.23-.37-.43-.64-.49-.29-.07-.55-.02-.82.11"/>
        <path class="cls-4" d="m36.42,57.77c.97,1.35,1.93,2.71,2.9,4.06.32.45.94.72,1.46.38,2.71-1.79,5.43-3.59,8.14-5.38.39-.26.78-.51,1.17-.77.48-.32.69-.94.38-1.46-.28-.48-.98-.7-1.46-.38-2.71,1.79-5.43,3.59-8.14,5.38-.39.26-.78.51-1.17.77l1.46.38c-.97-1.35-1.93-2.71-2.9-4.06-.33-.47-.93-.69-1.46-.38-.46.27-.72.99-.38,1.46"/>
        <path class="cls-4" d="m34.62,95.85c0-.17,0-.33.02-.5,0-.07.01-.13.02-.2.03-.31-.02.13,0-.05.06-.32.13-.63.23-.93.04-.14.09-.27.15-.4-.08.19,0,0,.02-.05.03-.07.07-.14.1-.21.14-.28.3-.54.48-.8.04-.05.07-.1.11-.15-.13.16,0,0,.04-.04.09-.1.18-.21.28-.31.11-.11.22-.22.33-.32.06-.05.38-.31.21-.19.23-.18.48-.34.74-.48.12-.07.25-.13.38-.19.06-.03.11-.05.17-.08-.21.09.1-.03.14-.05.28-.1.58-.18.87-.24.07-.01.41-.07.2-.04.2-.03.39-.04.59-.05.3,0,.6,0,.89.03.21.02.05,0,0,0,.1.02.19.03.29.05.16.03.31.07.47.11.15.04.3.09.45.15.06.02.12.04.18.07-.18-.07-.03-.01,0,0,.28.14.56.28.82.45.13.08.26.17.38.27-.16-.12-.03-.02,0,0,.07.06.14.12.21.18.23.21.44.44.64.67.03.03.13.16,0,0,.04.05.07.1.11.15.09.13.18.26.26.39.07.12.14.24.21.37.04.07.07.14.1.21.01.02.13.31.04.09.1.27.19.54.26.81.04.16.07.31.1.47.04.21.01.05,0,0,.01.1.02.2.03.29.02.31.03.63,0,.94,0,.07-.06.47-.02.25-.03.17-.06.35-.1.52-.07.29-.16.58-.28.86.08-.2-.08.16-.1.22-.08.15-.16.3-.25.45-.07.12-.15.24-.23.35-.04.06-.09.13-.14.19.03-.03.13-.15,0,0-.21.23-.41.46-.64.67-.06.05-.12.1-.18.15-.04.03-.2.16-.04.04-.11.08-.23.16-.34.24-.26.17-.54.32-.82.45-.05.02-.24.1-.05.02-.06.02-.12.05-.18.07-.15.05-.3.1-.45.15-.12.04-.25.07-.37.09-.09.02-.19.04-.28.06-.23.05.16,0-.1.02-.3.03-.59.04-.89.03-.16,0-.33-.02-.49-.03-.04,0-.21-.03,0,0-.1-.02-.19-.03-.29-.05-.35-.07-.67-.18-1.01-.29-.19-.07-.05-.02,0,0-.09-.04-.17-.08-.26-.12-.17-.08-.33-.17-.49-.27-.13-.08-.26-.17-.39-.26-.05-.04-.1-.07-.15-.11.18.14-.07-.07-.11-.1-.25-.21-.48-.44-.69-.69,0,0-.19-.23-.09-.11.07.09-.12-.16-.14-.19-.09-.13-.17-.26-.25-.39-.09-.15-.17-.3-.24-.45-.03-.07-.07-.14-.1-.21.07.17-.01-.03-.03-.1-.12-.33-.21-.67-.28-1.01-.01-.06-.02-.13-.03-.19.04.24,0-.08,0-.1-.02-.2-.03-.4-.03-.59,0-.56-.49-1.09-1.07-1.07-.58.03-1.07.47-1.07,1.07.02,3.14,2.01,5.92,4.95,7,2.85,1.04,6.23.11,8.15-2.23,1.98-2.42,2.31-5.89.68-8.59-1.63-2.69-4.79-4.04-7.86-3.44-3.42.67-5.89,3.82-5.92,7.26,0,.56.49,1.09,1.07,1.07.58-.03,1.06-.47,1.07-1.07"/>
        <path class="cls-4" d="m37.28,75.54v14.16c0,.56.49,1.09,1.07,1.07.58-.03,1.07-.47,1.07-1.07v-14.16c0-.56-.49-1.09-1.07-1.07-.58.03-1.07.47-1.07,1.07"/>
        <path class="cls-4" d="m41.06,75.54v13.96c0,.56.49,1.09,1.07,1.07.58-.03,1.07-.47,1.07-1.07v-13.96c0-.56-.49-1.09-1.07-1.07-.58.03-1.07.47-1.07,1.07"/>
        <path class="cls-4" d="m11.07,37.34l-1.56-3.96c-.34.45-.69.9-1.03,1.35h60.94c.82,0,1.65.03,2.48,0,.04,0,.07,0,.11,0-.31-.54-.62-1.07-.92-1.61l-2.67,3.96c-.32.48-.09,1.18.38,1.46.53.31,1.14.1,1.46-.38.89-1.32,1.78-2.64,2.67-3.96.46-.68-.15-1.61-.92-1.61H11.06c-.82,0-1.65-.01-2.48,0-.04,0-.07,0-.11,0-.63,0-1.29.69-1.03,1.35.52,1.32,1.04,2.64,1.56,3.96.21.54.72.91,1.31.75.51-.14.96-.77.75-1.31"/>
        <path class="cls-4" d="m72,34.73h3.45c.34,0,.77-.2.92-.53.21-.46.41-.92.62-1.39.19-.43.42-.84.42-1.32v-3.01c0-.58-.49-1.07-1.07-1.07H6.42c-.94,0-1.89-.01-2.83,0-.04,0-.08,0-.12,0-.58,0-1.07.49-1.07,1.07v1.44c0,.56-.08,1.17.15,1.7.37.86.74,1.72,1.11,2.59.14.33.58.53.92.53h3.9c.58,0,1.07-.49,1.07-1.07s-.49-1.07-1.07-1.07h-3.9c.31.18.62.35.92.53-.37-.86-.74-1.73-1.11-2.59.05.18.1.36.15.54v-2.59l-1.07,1.07h69.92c.94,0,1.89.03,2.83,0,.04,0,.08,0,.12,0l-1.07-1.07v3.18c.05-.18.1-.36.15-.54-.3.67-.59,1.34-.89,2.01.31-.18.62-.35.92-.53h-3.45c-.58,0-1.07.49-1.07,1.07s.49,1.07,1.07,1.07"/>
        <path class="cls-4" d="m76.34,29.55h2.79c.58,0,1.07-.49,1.07-1.07v-5.52c0-.34-.2-.78-.53-.92-5.56-2.44-10.76-5.64-15.59-9.3-2.58-1.95-5.06-4.05-7.44-6.24-.66-.6-1.28-1.22-2.02-1.72-.67-.45-1.36-.88-2.06-1.28-1.37-.78-2.81-1.46-4.28-2.02C45.52.46,42.57-.08,39.63,0c-3.06.09-6.03.85-8.83,2.06-1.5.65-2.95,1.44-4.33,2.32-.34.22-.69.44-1.02.68-.36.25-.59.57-.86.9-.42.52-.86,1.03-1.31,1.53-1.8,2.02-3.78,3.89-5.89,5.59-4.34,3.51-9.45,6.39-14.63,8.67-.67.29-1.29.56-1.97.83C.34,22.79,0,23.12,0,23.64v4.85C0,29.06.49,29.55,1.07,29.55h2.4c1.38,0,1.38-2.14,0-2.14H1.07l1.07,1.07v-4.85c-.26.34-.52.69-.78,1.03,5.39-2.2,10.6-4.88,15.3-8.33,2.24-1.65,4.38-3.44,6.34-5.42.94-.94,1.83-1.92,2.69-2.93.2-.24.4-.49.6-.73.08-.1.17-.25.25-.33.14-.15.39-.28.57-.4.69-.45,1.39-.88,2.11-1.29,2.62-1.47,5.47-2.54,8.46-2.94,1.2-.16,2.7-.2,4.02-.11,1.34.09,2.62.32,3.98.7,2.89.8,5.73,2.16,8.17,3.95.62.45,1.16,1.06,1.73,1.58.62.56,1.24,1.12,1.88,1.67,1.22,1.06,2.46,2.09,3.72,3.09,4.8,3.79,9.93,7.18,15.46,9.82.65.31,1.31.61,1.98.91-.18-.31-.35-.61-.53-.92v5.52l1.07-1.07h-2.79c-1.38,0-1.38,2.14,0,2.14"/>
        <path class="cls-4" d="m16.51,23.97v-3.34c-.18.31-.35.62-.53.92,3.47-1.62,6.83-3.49,9.96-5.7,1.53-1.09,3.02-2.26,4.42-3.51.67-.6,1.32-1.22,1.95-1.87.34-.35.56-.59.96-.84.45-.29.91-.57,1.39-.82.85-.45,1.59-.76,2.52-1.03.46-.13.92-.24,1.39-.32.21-.04.3-.05.41-.06.27-.02.54-.05.81-.06,1.77-.07,3.53.3,5.14,1.02.91.41,1.88.88,2.67,1.5.22.18.49.57.73.84.31.36.64.72.97,1.07,1.19,1.27,2.47,2.45,3.82,3.55,3.28,2.66,6.92,4.82,10.76,6.57-.18-.31-.35-.61-.53-.92v3.01l1.07-1.07H17.44c-.64,0-1.28-.01-1.92,0-.03,0-.05,0-.08,0-.56,0-1.09.49-1.07,1.07.03.58.47,1.07,1.07,1.07h46.98c.64,0,1.28.01,1.91,0,.03,0,.05,0,.08,0,.58,0,1.07-.49,1.07-1.07v-3.01c0-.35-.2-.77-.53-.92-1.77-.8-3.5-1.69-5.17-2.68-.81-.48-1.6-.98-2.38-1.5-.35-.24-.7-.48-1.04-.73-.19-.13-.37-.27-.56-.41-.09-.07-.18-.14-.27-.21-.04-.03-.33-.25-.24-.18-1.39-1.08-2.72-2.25-3.95-3.51-.62-.64-1.22-1.29-1.79-1.97-.14-.17-.27-.36-.42-.51-.22-.22-.54-.39-.8-.56-.45-.29-.92-.57-1.39-.82-1.83-.97-3.8-1.6-5.87-1.75-1.9-.13-3.84.2-5.61.89-1.01.4-1.99.88-2.91,1.46-.49.31-.98.61-1.38,1.03-.32.33-.64.66-.97.98-.66.64-1.34,1.27-2.04,1.87-.32.28-.65.55-.98.82-.39.32-.74.59-1.07.84-3.47,2.62-7.27,4.77-11.2,6.61-.33.16-.53.57-.53.92v3.34c0,.56.49,1.09,1.07,1.07.58-.03,1.07-.47,1.07-1.07"/>
      </g>
    </g>
  </g>
</svg>