<svg width="1080" height="1080" viewBox="0 0 1080 1080" fill="none" xmlns="http://www.w3.org/2000/svg">
<g clip-path="url(#clip0_1_2)">
<mask id="mask0_1_2" style="mask-type:luminance" maskUnits="userSpaceOnUse" x="0" y="0" width="1080" height="1080">
<path d="M1080 0H0V1080H1080V0Z" fill="white"/>
</mask>
<g mask="url(#mask0_1_2)">
</g>
<g clip-path="url(#clip1_1_2)">
<mask id="mask1_1_2" style="mask-type:luminance" maskUnits="userSpaceOnUse" x="-1" y="226" width="1117" height="877">
<path d="M1116 226.491H-1V1102.51H1116V226.491Z" fill="white"/>
</mask>
<g mask="url(#mask1_1_2)">
<mask id="mask2_1_2" style="mask-type:luminance" maskUnits="userSpaceOnUse" x="700" y="626" width="416" height="477">
<path d="M991.57 626.93L700.357 722.01L824.739 1102.6L1115.95 1007.52L991.57 626.93Z" fill="white"/>
</mask>
<g mask="url(#mask2_1_2)">
<path d="M1002.57 781.728C1000.77 750.861 987.311 721.638 964.654 700.562C944.689 682.026 918.741 670.965 891.673 668.872C864.155 666.705 835.74 674.777 813.308 690.92C791.174 706.84 775.097 730.009 767.695 756.242C759.694 784.643 762.984 815.361 776.144 841.669C778.163 845.705 780.406 849.592 782.874 853.328C785.117 856.841 790.127 857.813 793.642 855.496C797.156 853.179 798.128 848.321 795.81 844.808C791.099 837.484 787.51 830.458 784.669 822.312C783.547 819.098 782.575 815.809 781.752 812.446C781.378 810.951 781.079 809.457 780.706 807.962C780.631 807.513 780.556 807.065 780.406 806.542C780.406 806.691 780.631 807.738 780.406 806.841C780.257 805.944 780.107 804.972 779.958 804.075C779.06 797.872 778.612 791.594 778.761 785.391C778.761 783.896 778.836 782.401 778.911 780.906C778.911 780.234 778.986 779.561 779.06 778.888C778.911 780.383 779.135 777.917 779.21 777.468C779.584 774.404 780.033 771.414 780.631 768.425C781.229 765.435 781.902 762.446 782.724 759.531C783.098 758.111 783.547 756.691 783.996 755.345C784.22 754.598 784.519 753.851 784.743 753.103C784.295 754.449 784.968 752.505 785.117 752.132C787.286 746.377 789.978 740.771 793.118 735.39C793.866 734.119 794.614 732.849 795.362 731.653C795.735 731.055 796.109 730.532 796.483 729.934C796.633 729.635 796.857 729.336 797.081 729.112C796.483 730.009 796.932 729.261 797.306 728.813C799.1 726.347 800.895 723.88 802.839 721.563C804.783 719.246 806.877 716.93 808.971 714.762C810.018 713.716 811.064 712.669 812.111 711.698C812.635 711.249 813.083 710.801 813.607 710.278C813.981 709.979 814.28 709.68 814.654 709.381C814.13 709.829 814.055 709.904 814.654 709.381C819.439 705.42 824.449 701.757 829.833 698.544C831.104 697.796 832.45 697.049 833.796 696.302C834.544 695.928 835.217 695.554 835.965 695.18C836.264 695.031 836.563 694.881 836.937 694.732C837.086 694.732 838.358 693.985 837.61 694.433C836.937 694.732 838.881 693.835 839.255 693.686C839.928 693.387 840.526 693.088 841.199 692.789C842.769 692.116 844.265 691.518 845.835 690.92C848.976 689.724 852.191 688.678 855.481 687.781C856.977 687.333 858.472 686.959 859.968 686.66C860.641 686.511 861.389 686.361 862.061 686.212C862.435 686.212 862.734 686.062 863.108 685.987C863.108 685.987 865.127 685.614 864.155 685.763C863.407 685.913 865.277 685.614 865.576 685.539C866.398 685.39 867.221 685.315 868.044 685.165C869.689 684.941 871.259 684.717 872.904 684.567C876.045 684.269 879.11 684.119 882.251 684.119C885.317 684.119 888.457 684.194 891.523 684.418C891.598 684.418 892.72 684.493 891.897 684.418C890.925 684.343 892.42 684.418 892.57 684.493C893.243 684.493 893.916 684.642 894.589 684.717C896.159 684.941 897.73 685.165 899.3 685.39C905.431 686.361 911.413 688.005 917.321 689.949C918.741 690.397 916.648 689.65 917.994 690.173C918.592 690.397 919.265 690.621 919.863 690.92C921.433 691.518 923.004 692.191 924.499 692.864C927.266 694.059 930.033 695.405 932.65 696.899C935.342 698.319 937.959 699.889 940.501 701.533C940.726 701.683 942.221 702.729 941.623 702.281C941.025 701.907 942.745 703.028 943.044 703.252C944.315 704.149 945.586 705.121 946.857 706.092C951.643 709.829 956.204 714.015 960.317 718.499C960.616 718.873 960.915 719.172 961.214 719.545C961.214 719.62 962.037 720.442 961.439 719.844C960.99 719.321 962.111 720.666 962.336 720.891C963.383 722.087 964.355 723.357 965.327 724.628C967.196 727.094 968.991 729.635 970.711 732.251C972.505 735.016 974.076 737.856 975.646 740.697C975.945 741.294 976.319 741.967 976.618 742.565C976.618 742.64 977.141 743.686 976.767 742.864C976.319 741.967 976.992 743.312 977.067 743.537C977.74 745.031 978.413 746.601 979.086 748.096C981.927 754.972 984.245 762.745 985.441 769.621C986.189 773.881 986.563 778.216 986.862 782.55C987.087 786.586 990.751 790.323 994.938 789.95C999.051 789.576 1002.57 786.213 1002.34 781.878" fill="black"/>
<path d="M933.996 763.343C933.996 750.786 927.864 738.903 917.695 731.504C907.75 724.329 895.636 721.115 883.447 721.19C859.37 721.414 832.899 735.241 823.402 758.26C817.944 771.564 818.766 786.287 827.44 798.096C829.908 801.46 834.544 802.655 838.208 800.264C841.573 798.021 842.844 792.939 840.377 789.576C838.507 787.035 837.386 785.092 836.488 782.401C836.189 781.429 835.89 780.383 835.666 779.411C835.142 777.394 835.815 781.056 835.666 779.038C835.666 778.44 835.516 777.842 835.441 777.244C835.367 776.198 835.367 775.226 835.367 774.18C835.367 773.881 835.516 771.788 835.367 773.731C835.367 773.358 835.441 772.909 835.516 772.535C835.815 770.293 836.339 768.051 837.086 765.884C836.563 767.378 837.086 766.033 837.161 765.659C837.386 765.136 837.535 764.688 837.759 764.165C838.208 763.193 838.657 762.221 839.18 761.25C839.704 760.278 840.302 759.381 840.9 758.41C842.022 756.616 840.302 759.157 841.124 758.111C841.573 757.438 842.096 756.84 842.545 756.242C843.966 754.449 845.536 752.73 847.256 751.085C847.63 750.786 847.929 750.413 848.303 750.114C850.023 748.544 847.106 751.011 848.976 749.516C850.097 748.619 851.294 747.722 852.49 746.825C854.584 745.405 856.678 744.06 858.921 742.864C859.37 742.64 859.818 742.416 860.267 742.191C858.846 742.939 861.164 741.818 861.239 741.743C862.585 741.145 863.931 740.622 865.277 740.099C867.67 739.202 870.063 738.529 872.605 737.931C873.353 737.782 874.175 737.558 874.923 737.408C873.652 737.632 874.923 737.408 875.147 737.408C876.643 737.184 878.138 736.96 879.709 736.885C882.176 736.661 884.644 736.661 887.111 736.735C887.261 736.735 889.654 736.885 888.009 736.735C888.457 736.735 888.981 736.81 889.429 736.885C890.85 737.034 892.196 737.259 893.617 737.558C894.739 737.782 895.86 738.081 896.982 738.38C897.505 738.529 898.103 738.679 898.627 738.828C899.001 738.903 900.422 739.426 899.001 738.903C901.244 739.725 903.487 740.771 905.581 741.892C905.955 742.117 906.329 742.341 906.703 742.565C907.077 742.789 907.45 743.013 907.75 743.238C907.002 742.715 907.002 742.715 907.675 743.238C908.572 743.91 909.469 744.658 910.367 745.405C911.189 746.153 912.012 746.975 912.834 747.797C914.255 749.217 911.937 746.526 913.133 748.171C913.507 748.694 913.881 749.142 914.255 749.665C915.003 750.637 915.526 751.758 916.199 752.804C917.246 754.449 915.825 751.758 916.199 752.804C916.424 753.477 916.797 754.15 917.022 754.822C918.218 758.036 918.517 760.428 918.517 764.09C918.517 768.126 922.555 771.863 926.593 771.489C930.93 771.115 933.996 767.752 933.996 763.417" fill="black"/>
<path d="M791.847 952.283C790.651 948.621 789.604 944.959 788.706 941.222C788.258 939.503 787.884 937.784 787.51 935.99C787.435 935.542 787.36 935.093 787.211 934.57C787.435 935.766 786.987 933.374 787.211 934.57C787.061 933.524 786.837 932.477 786.687 931.431C785.566 924.181 784.968 916.857 784.968 909.607C784.968 905.945 785.117 902.283 785.342 898.62C785.342 898.396 785.491 896.976 785.342 897.948C785.267 898.845 785.342 897.649 785.342 897.574C785.416 896.677 785.491 895.78 785.641 894.883C785.865 893.09 786.089 891.296 786.388 889.502C787.51 882.327 789.08 875.302 791.249 868.351C791.772 866.707 792.296 865.137 792.819 863.568C793.193 862.447 792.445 864.614 792.819 863.568C792.969 863.119 793.118 862.746 793.268 862.297C793.642 861.326 794.016 860.429 794.389 859.457C795.735 856.094 797.156 852.805 798.726 849.592C800.222 846.453 801.867 843.388 803.662 840.399C804.484 838.979 805.381 837.484 806.279 836.064C806.727 835.316 807.251 834.569 807.699 833.822C807.924 833.448 808.223 833.074 808.447 832.7C809.27 831.505 808.148 833.074 808.672 832.402C812.709 826.572 817.196 820.966 822.056 815.809C824.524 813.119 827.141 810.578 829.758 808.111C830.431 807.513 831.104 806.915 831.777 806.243C832.899 805.271 832.002 806.019 831.777 806.243C832.002 806.019 832.301 805.794 832.525 805.57C834.021 804.3 835.516 803.104 837.012 801.908C842.769 797.424 848.826 793.388 855.182 789.8C856.752 788.903 858.248 788.081 859.818 787.334C860.641 786.885 861.463 786.512 862.361 786.063C863.781 785.391 862.66 785.914 862.361 786.063C862.884 785.839 863.407 785.54 864.006 785.316C867.445 783.746 871.035 782.252 874.624 780.981C881.727 778.365 889.055 776.272 896.458 774.852C896.907 774.778 897.356 774.703 897.879 774.553C897.58 774.553 896.383 774.778 897.879 774.553C898.776 774.404 899.748 774.254 900.646 774.105C902.515 773.806 904.385 773.582 906.254 773.358C909.918 772.909 913.657 772.61 917.395 772.535C920.985 772.386 924.499 772.386 928.088 772.535C929.808 772.535 931.528 772.685 933.248 772.834C933.697 772.834 934.145 772.834 934.594 772.909C934.37 772.909 933.173 772.76 934.594 772.909C935.641 772.984 936.613 773.133 937.66 773.208C944.763 774.03 951.792 775.376 958.672 777.244C962.186 778.216 965.626 779.262 968.991 780.458C967.495 779.935 970.038 780.832 970.337 780.981C971.159 781.28 971.982 781.654 972.879 781.953C974.524 782.625 976.244 783.298 977.889 784.045C984.469 786.96 990.825 790.323 996.882 794.21C997.555 794.658 998.228 795.032 998.901 795.48C999.275 795.705 1000.92 796.826 999.798 796.078C1001.37 797.125 1002.94 798.246 1004.43 799.442C1007.35 801.609 1010.12 803.851 1012.88 806.243C1015.5 808.56 1018.12 810.951 1020.59 813.418C1021.86 814.688 1023.13 816.034 1024.4 817.379C1025 818.052 1025.6 818.724 1026.27 819.397C1026.27 819.397 1027.09 820.294 1026.49 819.696C1025.82 818.948 1027.02 820.369 1027.17 820.518C1031.95 826.123 1036.29 832.103 1040.1 838.381C1042.05 841.594 1043.92 844.808 1045.56 848.171C1045.94 848.919 1046.31 849.666 1046.68 850.414C1047.21 851.535 1046.16 849.293 1046.68 850.414C1046.91 850.862 1047.06 851.236 1047.28 851.684C1048.1 853.403 1048.85 855.122 1049.52 856.916C1052.44 863.941 1054.76 871.116 1056.55 878.516C1057 880.384 1057.38 882.253 1057.75 884.046C1057.82 884.495 1057.9 884.943 1058.05 885.466C1058.05 885.167 1057.82 883.972 1058.05 885.466C1058.2 886.363 1058.35 887.335 1058.5 888.232C1059.1 891.894 1059.47 895.631 1059.77 899.368C1060.37 906.692 1060.29 914.091 1059.77 921.416C1059.77 921.491 1059.69 922.612 1059.77 921.79C1059.84 920.818 1059.77 922.313 1059.69 922.462C1059.62 923.359 1059.54 924.256 1059.39 925.153C1059.17 926.947 1058.95 928.74 1058.65 930.534C1058.12 934.121 1057.38 937.634 1056.55 941.222C1055.73 944.734 1054.76 948.247 1053.71 951.685C1053.19 953.329 1052.66 954.899 1052.14 956.469C1052.66 954.974 1051.77 957.44 1051.62 957.739C1051.32 958.561 1050.94 959.383 1050.65 960.28C1047.95 966.932 1044.81 973.434 1041.22 979.638C1040.4 981.058 1039.5 982.552 1038.61 983.973C1038.16 984.72 1037.63 985.467 1037.11 986.215C1036.96 986.514 1036.74 986.738 1036.59 987.037C1035.39 988.905 1037.49 985.841 1036.21 987.635C1034.2 990.475 1032.1 993.315 1029.93 996.006C1025.37 1001.61 1020.44 1006.92 1015.05 1011.85C1014.45 1012.37 1013.86 1012.9 1013.26 1013.42C1012.96 1013.64 1012.14 1014.39 1013.26 1013.42C1012.88 1013.72 1012.58 1014.02 1012.21 1014.32C1010.79 1015.51 1009.37 1016.63 1007.95 1017.75C1005.03 1020 1002.04 1022.16 998.976 1024.26C995.91 1026.35 992.695 1028.29 989.479 1030.09C987.909 1030.91 986.413 1031.81 984.843 1032.55C984.021 1033 983.198 1033.38 982.301 1033.82C981.478 1034.2 982.45 1033.75 982.6 1033.67C981.927 1033.97 981.329 1034.27 980.656 1034.57C973.776 1037.71 966.673 1040.33 959.345 1042.34C955.681 1043.39 951.942 1044.29 948.203 1045.03C947.829 1045.03 947.53 1045.18 947.156 1045.26C948.652 1044.96 947.381 1045.26 947.156 1045.26C946.259 1045.41 945.287 1045.56 944.39 1045.71C942.52 1046.01 940.651 1046.23 938.781 1046.45C931.453 1047.28 923.976 1047.58 916.648 1047.28C914.928 1047.28 913.208 1047.13 911.488 1046.98C911.264 1046.98 909.843 1046.83 910.815 1046.98C911.787 1047.13 910.292 1046.98 910.142 1046.98C909.095 1046.9 908.123 1046.75 907.076 1046.68C903.487 1046.23 899.898 1045.71 896.309 1044.96C892.869 1044.29 889.429 1043.46 886.064 1042.57C884.419 1042.12 882.774 1041.67 881.204 1041.15C880.307 1040.85 879.484 1040.62 878.662 1040.33C878.213 1040.18 877.839 1040.03 877.39 1039.88C877.241 1039.88 875.521 1039.2 876.418 1039.5C877.091 1039.73 875.147 1039.06 874.848 1038.91C874.026 1038.61 873.203 1038.23 872.306 1037.93C870.661 1037.26 868.941 1036.59 867.296 1035.84C864.006 1034.42 860.79 1032.78 857.575 1031.13C854.434 1029.41 851.294 1027.62 848.228 1025.68C847.48 1025.23 846.732 1024.71 845.985 1024.18C845.611 1023.96 845.237 1023.66 844.863 1023.43C844.938 1023.43 845.835 1024.11 845.087 1023.58C843.517 1022.46 841.947 1021.42 840.451 1020.22C834.768 1015.96 829.384 1011.25 824.374 1006.17C823.178 1004.97 821.982 1003.7 820.86 1002.51C820.262 1001.84 819.664 1001.16 818.991 1000.49C818.766 1000.27 818.019 999.369 818.991 1000.49C818.617 1000.04 818.243 999.593 817.869 999.219C815.476 996.379 813.233 993.539 811.064 990.55C806.802 984.57 802.989 978.367 799.624 971.79C799.175 970.968 798.801 970.146 798.353 969.249C799.025 970.594 798.053 968.651 797.904 968.203C797.156 966.558 796.483 964.914 795.735 963.27C794.24 959.682 792.894 956.095 791.697 952.433C790.426 948.621 785.865 946.005 781.902 947.5C778.013 948.995 775.621 953.105 776.967 957.291C786.837 987.186 805.755 1013.94 831.179 1032.55C856.304 1051.01 886.214 1061.55 917.395 1062.75C949.325 1063.94 981.703 1054.6 1008.17 1036.74C1033.6 1019.62 1053.79 994.66 1064.93 966.185C1076.52 936.588 1078.84 904.301 1071.36 873.433C1063.96 842.79 1046.68 814.614 1022.68 793.986C999.574 774.105 970.337 761.1 939.978 757.812C907.525 754.224 874.773 760.951 846.359 777.02C819.589 792.192 797.68 815.884 784.369 843.538C770.985 871.341 766.124 903.254 771.134 933.673C772.48 941.67 774.275 949.518 776.817 957.216C778.088 961.102 782.65 963.643 786.613 962.149C790.576 960.654 792.894 956.543 791.548 952.358" fill="black"/>
</g>
<mask id="mask3_1_2" style="mask-type:luminance" maskUnits="userSpaceOnUse" x="81" y="226" width="419" height="296">
<path d="M499.773 226.491H81.9263V521.711H499.773V226.491Z" fill="white"/>
</mask>
<g mask="url(#mask3_1_2)">
<path d="M400.097 357.509C400.097 358.107 400.321 356.388 400.097 356.986C399.947 357.584 400.62 356.014 400.321 356.537C399.947 357.135 400.321 356.313 400.62 356.238C400.546 356.238 400.247 356.537 400.172 356.687C399.574 357.285 400.845 356.313 400.396 356.537C400.172 356.687 400.022 356.762 399.798 356.911C399.349 357.21 398.826 357.434 398.302 357.584C398.228 357.584 398.078 357.658 397.929 357.733C397.256 358.032 398.751 357.434 398.228 357.584C397.929 357.658 397.629 357.808 397.405 357.883C396.732 358.107 395.984 358.331 395.237 358.555C393.592 359.004 391.872 359.377 390.152 359.751C388.133 360.2 386.039 360.498 383.945 360.797C382.899 360.947 381.852 361.096 380.73 361.246C380.431 361.246 380.132 361.321 379.833 361.395C379.085 361.47 380.805 361.321 379.608 361.395C378.936 361.47 378.337 361.545 377.664 361.62C372.056 362.217 366.448 362.666 360.84 362.965C348.053 363.638 335.192 363.712 322.33 363.189C316.498 362.965 310.665 362.591 304.908 361.993C303.711 361.844 302.515 361.769 301.318 361.62C300.645 361.62 300.047 361.47 299.374 361.395C299.225 361.395 298.552 361.321 299.374 361.395C299 361.395 298.626 361.321 298.252 361.246C296.084 360.947 293.915 360.648 291.747 360.274C288.307 359.676 284.868 359.004 281.652 357.883C281.353 357.808 280.979 357.584 280.68 357.509C280.68 357.509 281.652 357.883 281.129 357.658C281.054 357.658 280.904 357.584 280.755 357.509C280.232 357.285 279.783 357.06 279.259 356.836C279.035 356.687 278.886 356.612 278.661 356.463C278.362 356.313 279.484 357.21 278.886 356.612C278.811 356.537 278.661 356.388 278.512 356.238C278.063 355.939 279.11 356.986 278.886 356.687C278.886 356.612 278.736 356.537 278.736 356.388C278.512 355.939 279.11 357.434 278.96 356.836C278.811 356.238 279.035 357.957 278.96 357.359C278.96 356.762 278.736 358.406 278.886 357.883C279.11 357.21 278.437 358.854 278.736 358.256C279.035 357.733 278.586 358.481 278.437 358.555C278.586 358.555 278.661 358.331 278.811 358.256C279.409 357.658 278.287 358.555 278.586 358.406C278.811 358.256 278.96 358.182 279.185 358.032C279.633 357.808 280.082 357.584 280.531 357.359C280.68 357.359 280.83 357.285 280.979 357.21C281.353 357.06 281.129 357.359 280.531 357.359C280.83 357.359 281.278 357.06 281.577 356.986C283.073 356.463 284.569 356.089 286.064 355.715C290.027 354.744 294.14 354.146 298.252 353.622C298.552 353.622 298.851 353.548 299.15 353.473C299 353.473 298.402 353.548 299.15 353.473C299.823 353.398 300.421 353.324 301.094 353.249C302.44 353.099 303.786 352.95 305.132 352.875C307.824 352.651 310.59 352.427 313.357 352.202C326.144 351.38 339.005 351.156 351.792 351.605C357.774 351.754 363.756 352.053 369.663 352.576C372.28 352.8 374.898 353.025 377.44 353.324C378.113 353.324 378.711 353.473 379.384 353.548C380.207 353.622 379.608 353.548 379.384 353.548C379.758 353.548 380.132 353.622 380.506 353.697C381.702 353.847 382.824 353.996 384.02 354.22C387.684 354.744 391.348 355.416 394.938 356.463C395.61 356.687 396.283 356.836 396.956 357.06C397.256 357.135 397.555 357.285 397.854 357.359C398.527 357.584 397.106 356.986 397.555 357.21C397.704 357.285 397.929 357.359 398.153 357.434C398.602 357.658 399.05 357.808 399.424 358.107C399.574 358.182 399.798 358.331 399.947 358.406C400.471 358.705 399.2 357.733 399.798 358.331C399.873 358.406 400.022 358.63 400.172 358.63C400.097 358.63 399.574 357.733 399.873 358.331C400.172 358.929 399.499 357.285 399.723 357.957C399.947 358.555 399.648 356.836 399.723 357.434C399.723 359.303 401.518 361.171 403.686 361.022C405.78 360.947 407.724 359.452 407.649 357.434C407.5 351.53 398.527 349.661 393.592 348.54C383.272 346.298 372.58 345.401 362.036 344.803C348.427 344.056 334.818 343.981 321.209 344.579C310.067 345.027 298.776 345.924 287.859 347.942C284.195 348.615 280.605 349.512 277.24 350.857C274.773 351.829 272.156 353.324 271.258 355.79C269.165 361.769 277.689 364.46 282.4 365.73C291.971 368.197 302.141 369.093 312.011 369.766C325.471 370.738 339.005 370.887 352.54 370.439C364.279 370.065 376.019 369.318 387.609 367.449C391.348 366.851 395.087 366.104 398.751 364.983C401.293 364.161 404.21 363.189 406.004 361.246C407.051 360.125 407.724 358.854 407.724 357.359C407.724 355.491 405.855 353.622 403.761 353.772C401.593 353.847 399.873 355.341 399.798 357.359" fill="black"/>
<path d="M220.336 341.59C229.234 339.347 238.208 337.628 247.33 336.283C258.023 334.639 267.893 333.443 278.811 332.546C304.01 330.304 329.434 329.631 354.783 330.154C367.121 330.379 379.459 330.977 391.797 331.873C397.555 332.322 403.312 332.77 408.995 333.368C414.454 333.966 418.941 334.489 424.25 335.162C441.074 337.479 458.273 340.394 474.125 346.149C474.499 346.298 474.873 346.448 475.247 346.597C475.396 346.597 475.546 346.747 475.77 346.747C474.873 346.373 475.321 346.597 475.546 346.672C476.294 346.971 477.041 347.27 477.789 347.569C479.135 348.092 480.406 348.69 481.677 349.362C482.799 349.886 483.921 350.483 484.967 351.156C485.491 351.455 485.94 351.754 486.463 352.053C486.687 352.202 486.912 352.352 487.061 352.501C487.585 352.8 486.687 352.277 486.687 352.277C486.837 352.277 486.986 352.501 487.136 352.576C487.959 353.174 488.706 353.772 489.454 354.519C489.753 354.818 490.052 355.117 490.351 355.416C490.875 355.939 489.753 354.594 490.277 355.267C490.426 355.416 490.576 355.64 490.725 355.79C490.95 356.089 491.174 356.388 491.323 356.762C491.398 356.911 491.473 357.135 491.623 357.285C491.847 357.658 491.249 356.313 491.548 357.061C491.623 357.359 491.772 357.658 491.847 358.032C491.847 358.182 491.847 358.406 491.996 358.555C492.146 358.929 491.996 357.359 491.996 358.256C491.996 358.555 491.996 358.854 491.996 359.153C491.996 359.303 491.996 359.527 491.996 359.676C491.996 359.303 492.221 358.705 491.996 359.377C491.922 359.676 491.847 360.05 491.697 360.349C491.697 360.499 491.548 360.723 491.473 360.872C491.548 360.573 491.922 360.05 491.473 360.648C491.099 361.321 490.501 361.919 490.127 362.591C490.576 361.62 490.576 362.143 490.202 362.442C490.052 362.591 489.903 362.741 489.753 362.965C489.379 363.264 489.08 363.638 488.706 363.937C488.332 364.235 487.959 364.609 487.51 364.908C487.286 365.058 487.136 365.207 486.912 365.357C486.463 365.73 487.286 365.132 487.286 365.132C487.136 365.132 486.986 365.357 486.837 365.431C485.865 366.104 484.818 366.702 483.771 367.3C481.303 368.645 478.761 369.766 476.069 370.813C475.695 370.962 475.022 371.261 475.77 370.887C475.396 371.037 475.022 371.186 474.648 371.336C473.826 371.635 473.003 371.934 472.181 372.233C470.536 372.756 468.891 373.279 467.32 373.802C463.656 374.923 459.918 375.895 456.104 376.792C447.056 378.959 437.934 380.529 428.736 381.949C418.118 383.518 407.874 384.639 396.956 385.536C384.843 386.508 372.654 387.18 360.466 387.479C335.117 388.152 309.693 387.629 284.419 385.686C264.155 384.116 244.414 381.724 224.449 377.091C220.635 376.194 216.896 375.222 213.158 374.176C211.139 373.578 208.821 374.848 208.297 376.717C207.699 378.66 209.045 380.529 211.064 381.127C229.534 386.582 248.9 389.348 268.118 391.441C293.168 394.131 318.442 395.177 343.641 395.028C368.243 394.879 392.844 393.683 417.221 390.768C435.616 388.6 454.16 385.76 471.657 380.155C477.639 378.212 483.696 376.044 489.08 372.83C493.043 370.514 496.857 367.524 498.726 363.488C502.839 354.669 494.24 347.643 486.538 343.682C480.63 340.618 474.2 338.45 467.694 336.582C459.469 334.19 451.019 332.397 442.495 330.827C420.286 326.866 397.629 324.773 375.047 323.727C348.95 322.456 322.779 322.606 296.682 324.101C274.549 325.446 252.415 327.688 230.73 331.948C226.543 332.77 222.355 333.742 218.242 334.714C213.307 335.984 215.401 342.935 220.336 341.664" fill="black"/>
<path d="M179.658 464.386V485.687C179.658 487.555 181.453 489.424 183.621 489.274C185.79 489.199 187.584 487.705 187.584 485.687V464.386C187.584 462.517 185.79 460.649 183.621 460.798C181.453 460.873 179.658 462.368 179.658 464.386Z" fill="black"/>
<path d="M187.21 516.479V483.145C187.21 478.287 179.658 478.287 179.658 483.145V516.479C179.658 521.337 187.21 521.337 187.21 516.479Z" fill="black"/>
<path d="M499.923 518.721V476.045C499.923 471.187 492.37 471.187 492.37 476.045V518.721C492.37 523.579 499.923 523.579 499.923 518.721Z" fill="black"/>
<path d="M339.678 465.881C314.853 465.881 290.027 464.759 265.351 461.994C264.005 461.845 262.659 461.695 261.313 461.546C261.837 461.546 260.341 461.396 260.117 461.396C259.369 461.321 258.621 461.172 257.874 461.097C255.331 460.798 252.789 460.425 250.246 460.051C245.386 459.304 240.451 458.481 235.665 457.585C227.44 456.015 219.289 454.147 211.288 451.755C209.419 451.157 207.624 450.559 205.755 449.961C205.306 449.812 204.783 449.587 204.334 449.438C204.185 449.438 204.035 449.288 203.886 449.288C204.633 449.587 203.138 448.99 203.886 449.288C203.063 448.99 202.24 448.616 201.418 448.317C198.576 447.121 195.884 445.776 193.342 444.206C191.548 443.085 188.93 443.907 187.883 445.477C186.687 447.271 187.51 449.288 189.304 450.41C194.464 453.698 200.446 455.94 206.353 457.883C214.055 460.425 221.981 462.293 229.982 463.937C251.592 468.272 273.726 470.589 295.785 471.934C310.366 472.831 325.022 473.205 339.603 473.205C341.697 473.205 343.641 471.561 343.567 469.618C343.492 467.674 341.847 466.03 339.603 466.03" fill="black"/>
<path d="M491.772 437.031C491.772 437.031 491.772 437.48 491.772 437.704C491.772 438.451 492.071 436.583 491.772 437.48C491.623 437.928 491.548 438.377 491.323 438.825C491.024 439.647 491.623 438.227 491.473 438.601C491.323 438.825 491.249 439.049 491.099 439.199C490.8 439.647 490.501 440.096 490.127 440.544C489.604 441.217 490.8 439.797 490.202 440.395C489.977 440.619 489.828 440.768 489.604 440.993C489.155 441.441 488.631 441.889 488.183 442.263C487.734 442.637 487.211 443.01 486.762 443.384C486.239 443.833 487.585 442.861 486.986 443.235C486.837 443.309 486.687 443.459 486.538 443.534C486.164 443.758 485.865 443.982 485.491 444.206C482.649 446 479.584 447.42 476.368 448.691C475.92 448.84 475.471 449.064 475.022 449.214C476.144 448.84 474.873 449.214 474.574 449.363C473.527 449.737 472.48 450.111 471.358 450.484C469.265 451.232 467.096 451.83 464.928 452.502C454.459 455.492 443.691 457.585 432.849 459.304C419.24 461.471 406.453 462.816 392.47 463.863C374.823 465.208 357.101 465.806 339.454 465.806C337.36 465.806 335.416 467.45 335.491 469.393C335.566 471.337 337.211 472.981 339.454 472.981C370.262 472.981 401.144 471.337 431.503 466.778C442.794 465.059 454.085 462.966 465.002 459.976C473.078 457.734 481.303 455.118 488.407 451.008C493.791 447.869 499.399 443.235 499.474 436.957C499.474 435.088 497.605 433.22 495.511 433.369C493.342 433.444 491.548 434.939 491.548 436.957" fill="black"/>
<path d="M339.678 425.073C318.218 425.073 296.682 424.176 275.371 422.233C265.875 421.336 257.724 420.364 248.377 418.944C240.451 417.749 232.525 416.329 224.748 414.535C217.719 412.891 210.69 411.022 203.96 408.481C202.016 407.734 199.474 409.228 199.1 411.022C198.576 413.115 199.848 414.684 201.867 415.432C215.177 420.439 229.384 423.279 243.517 425.521C262.809 428.586 282.325 430.379 301.916 431.426C314.479 432.098 327.116 432.397 339.678 432.397C341.772 432.397 343.716 430.753 343.641 428.81C343.567 426.867 341.922 425.222 339.678 425.222" fill="black"/>
<path d="M491.772 396.224C491.772 396.224 491.772 396.672 491.772 396.897C491.772 397.644 492.071 395.775 491.772 396.672C491.623 397.121 491.548 397.569 491.323 398.018C491.024 398.84 491.623 397.42 491.473 397.793C491.323 398.018 491.249 398.242 491.099 398.391C490.8 398.84 490.501 399.288 490.127 399.737C489.604 400.409 490.8 398.989 490.202 399.587C489.977 399.811 489.828 399.961 489.604 400.185C489.155 400.633 488.631 401.082 488.183 401.456C487.734 401.829 487.211 402.203 486.762 402.577C486.239 403.025 487.585 402.054 486.986 402.427C486.837 402.502 486.687 402.651 486.538 402.726C486.164 402.95 485.865 403.175 485.491 403.399C482.649 405.193 479.584 406.613 476.368 407.883C475.92 408.033 475.471 408.257 475.022 408.406C476.144 408.033 474.873 408.406 474.574 408.556C473.527 408.93 472.48 409.303 471.358 409.677C469.265 410.424 467.096 411.022 464.928 411.695C454.459 414.684 443.691 416.777 432.849 418.496C419.24 420.664 406.453 422.009 392.47 423.055C374.823 424.401 357.101 424.998 339.454 424.998C337.36 424.998 335.416 426.643 335.491 428.586C335.566 430.529 337.211 432.173 339.454 432.173C370.262 432.173 401.144 430.529 431.503 425.97C442.794 424.251 454.085 422.158 465.002 419.169C473.078 416.927 481.303 414.311 488.407 410.2C493.791 407.061 499.399 402.427 499.474 396.149C499.474 394.281 497.605 392.412 495.511 392.562C493.342 392.636 491.548 394.131 491.548 396.149" fill="black"/>
<path d="M183.621 489.274C185.715 489.274 187.659 487.63 187.584 485.687C187.51 483.743 185.865 482.099 183.621 482.099C181.528 482.099 179.583 483.743 179.658 485.687C179.733 487.63 181.378 489.274 183.621 489.274Z" fill="black"/>
<path d="M145.486 314.833C146.233 314.982 144.663 314.459 145.037 314.609C145.635 314.908 144.588 314.31 144.663 314.31C144.813 314.384 144.887 314.534 144.962 314.609C143.99 313.562 144.588 314.085 144.738 314.459C144.813 314.609 144.887 314.758 145.037 314.908C145.187 315.207 144.663 313.861 144.962 314.758C145.112 315.281 145.261 315.73 145.411 316.253C145.411 316.402 145.71 317.822 145.71 317.897C145.71 317.897 145.56 317 145.71 317.523C145.71 317.748 145.71 317.972 145.785 318.121C145.785 318.495 145.86 318.869 145.86 319.242C146.009 320.812 146.009 322.382 146.009 324.026C146.009 328.211 145.71 332.397 145.261 336.507C144.738 341.739 144.065 346.074 143.168 351.231C141.149 362.741 138.382 374.251 135.017 385.536C133.522 390.469 131.951 395.402 130.157 400.334C129.409 402.427 128.586 404.52 127.689 406.613C127.315 407.584 126.867 408.481 126.493 409.453C126.343 409.901 126.119 410.275 125.894 410.723C125.82 410.947 125.67 411.172 125.595 411.396C125.446 411.62 125.82 410.873 125.521 411.62C124.175 414.385 122.754 417.226 120.884 419.767C120.585 420.215 120.137 420.589 119.912 421.037C120.436 420.066 120.211 420.738 119.912 421.037C119.763 421.187 119.539 421.411 119.389 421.56C119.239 421.71 119.015 421.859 118.866 422.009C118.267 422.532 119.763 421.56 119.09 421.859C118.94 421.859 118.791 422.009 118.716 422.084C118.193 422.457 119.838 421.785 119.015 421.934C118.342 422.084 120.137 421.934 119.613 421.934C118.791 421.934 120.585 422.158 120.137 422.009C119.464 421.859 120.66 422.233 120.66 422.233C119.912 421.859 121.258 422.681 120.959 422.457C120.81 422.308 120.436 421.859 120.959 422.457C121.483 423.055 121.034 422.532 120.959 422.457C120.884 422.308 120.81 422.084 120.66 421.934C120.511 421.635 121.034 422.906 120.735 422.084C120.585 421.635 120.436 421.187 120.286 420.664C120.286 420.439 120.137 420.14 120.137 419.916C120.137 419.692 119.912 418.571 119.987 419.243C120.062 419.916 119.987 418.87 119.987 418.72C119.987 418.347 119.912 417.973 119.912 417.599C119.912 416.777 119.838 416.03 119.763 415.208C119.613 411.396 119.763 407.659 120.137 403.847C120.511 398.989 121.184 394.056 121.931 389.572C123.801 378.062 126.418 366.552 129.558 355.267C132.25 345.775 135.316 336.283 139.279 327.24C139.429 326.791 139.653 326.417 139.878 325.969C139.952 325.745 140.102 325.521 140.177 325.296C140.102 325.521 139.877 325.969 140.177 325.296C140.55 324.474 140.999 323.577 141.448 322.755C142.196 321.335 142.943 319.99 143.766 318.57C144.14 318.047 144.514 317.449 144.887 316.926C145.037 316.701 145.187 316.552 145.336 316.328C145.411 316.178 145.56 316.029 145.635 315.879C145.934 315.506 146.159 315.655 145.486 316.103C145.86 315.879 146.159 315.356 146.458 315.132C146.607 314.982 146.757 314.833 146.906 314.758C147.579 314.16 146.084 315.207 146.757 314.833C146.906 314.833 147.131 314.683 147.206 314.534C147.579 314.235 146.084 314.908 146.757 314.758C147.579 314.534 145.785 314.758 146.233 314.758C146.981 314.758 145.261 314.609 145.71 314.683C147.729 315.057 150.122 314.16 150.57 312.142C151.019 310.349 149.972 308.106 147.804 307.733C141.373 306.612 137.559 313.637 135.241 317.972C130.68 326.492 127.465 335.61 124.623 344.654C120.884 356.463 117.893 368.496 115.65 380.603C113.706 390.768 112.136 401.082 111.986 411.396C111.986 414.834 111.986 418.347 112.734 421.71C113.257 424.176 114.304 426.792 116.697 428.287C119.389 429.931 122.53 428.885 124.698 427.166C126.867 425.522 128.362 423.055 129.708 420.813C134.344 413.04 137.485 404.37 140.326 395.925C144.14 384.415 147.206 372.606 149.673 360.723C151.842 350.035 153.636 339.198 154.16 328.286C154.309 324.773 154.384 321.186 153.935 317.598C153.636 315.057 153.188 312.292 151.543 310.199C150.645 309.003 149.449 308.032 147.879 307.733C145.86 307.284 143.467 308.331 143.018 310.274C142.569 312.142 143.616 314.235 145.785 314.683" fill="black"/>
<path d="M166.348 233.741C166.348 233.741 167.545 234.189 167.694 234.115C167.32 234.264 166.647 233.666 167.245 233.965C167.32 233.965 167.395 233.965 167.47 234.115C167.694 234.264 167.993 234.339 168.217 234.488L168.816 234.862C168.816 234.937 167.918 234.189 168.517 234.638C168.591 234.638 168.666 234.787 168.741 234.787C169.19 235.161 169.563 235.535 170.012 235.908L170.536 236.506C170.536 236.506 169.863 235.684 170.311 236.207C170.386 236.282 170.461 236.431 170.536 236.506C170.909 237.029 171.283 237.553 171.657 238.076C171.956 238.599 172.255 239.122 172.554 239.72C172.704 240.019 172.854 240.318 173.003 240.617C173.302 241.14 172.854 240.318 172.854 240.318C172.928 240.542 173.078 240.841 173.153 241.065C174.424 244.055 175.321 247.119 175.994 250.258C176.443 252.127 176.742 254.07 177.041 256.013C176.891 255.042 177.041 256.536 177.116 256.835C177.116 257.358 177.265 257.807 177.34 258.33C177.49 259.451 177.564 260.647 177.714 261.768C178.686 272.007 178.537 282.321 178.013 292.561C177.34 305.266 175.919 317.972 173.975 330.603C169.563 359.078 162.834 387.405 153.935 414.983C150.047 427.091 145.71 439.049 140.7 450.783C136.662 460.201 132.4 469.244 127.091 478.437C124.922 482.174 122.604 485.761 120.137 489.274C119.015 490.769 117.893 492.264 116.697 493.758C116.547 493.983 115.65 495.029 116.323 494.207C116.024 494.506 115.8 494.805 115.501 495.104C114.977 495.702 114.379 496.3 113.856 496.897C112.809 497.944 111.762 498.99 110.64 499.887C110.117 500.335 109.593 500.709 109.07 501.083C108.995 501.158 108.771 501.382 108.621 501.382C108.995 501.307 109.369 500.933 108.995 501.158C108.696 501.382 108.397 501.531 108.098 501.756C107.649 502.054 107.126 502.353 106.602 502.578C106.378 502.727 106.079 502.802 105.855 502.951C105.705 502.951 105.555 503.101 105.406 503.176C104.957 503.4 104.882 503.176 105.78 503.026C105.331 503.026 104.808 503.4 104.359 503.475C104.135 503.475 103.91 503.549 103.686 503.624C103.536 503.624 103.462 503.624 103.312 503.624C102.564 503.773 104.359 503.624 103.761 503.624C103.312 503.624 102.863 503.624 102.415 503.624C102.265 503.624 101.891 503.549 101.742 503.624C102.564 503.325 102.789 503.773 102.415 503.699C102.265 503.699 102.041 503.699 101.891 503.624C101.667 503.624 101.443 503.475 101.218 503.475C101.144 503.475 101.069 503.474 100.919 503.4C100.246 503.25 101.293 503.25 101.368 503.549C101.368 503.4 100.172 502.951 100.022 502.877C99.9472 502.877 99.8725 502.802 99.7977 502.727C99.1247 502.353 100.172 502.951 100.097 502.951C99.9472 502.951 99.5734 502.578 99.4986 502.503C99.0499 502.129 98.676 501.83 98.3022 501.382C98.1526 501.232 97.5544 500.485 98.0031 501.083C98.4517 501.681 97.8535 500.859 97.7787 500.709C97.4049 500.261 97.031 499.738 96.7319 499.214C96.4328 498.691 96.1337 498.168 95.8346 497.57C95.685 497.271 95.5355 496.972 95.3859 496.673C95.012 496.001 95.7598 497.495 95.3859 496.823C95.3111 496.598 95.2364 496.449 95.1616 496.225C94.5634 494.805 94.04 493.31 93.5913 491.815C93.0679 490.171 92.6192 488.452 92.3201 486.733C92.0958 485.836 91.9462 484.939 91.7967 484.042C91.7219 483.594 91.6471 483.145 91.5724 482.622C91.5724 482.323 91.2733 480.679 91.4228 481.576C90.0768 472.009 89.8525 462.368 90.0768 452.801C90.3759 440.619 91.4976 428.436 93.0679 416.329C96.8067 387.853 103.088 359.602 111.463 331.873C115.201 319.392 119.464 306.985 124.249 294.803C128.437 284.265 132.624 274.698 137.933 264.758C141.896 257.358 146.308 250.034 151.692 243.457C151.842 243.233 152.739 242.186 152.066 243.009C152.365 242.71 152.589 242.411 152.888 242.112C153.487 241.439 154.01 240.841 154.608 240.243C155.655 239.197 156.777 238.15 157.898 237.179C158.422 236.73 158.945 236.357 159.469 235.983C160.216 235.385 158.721 236.431 159.543 235.908C159.843 235.684 160.142 235.535 160.441 235.31C160.889 235.011 161.413 234.712 161.936 234.488C162.161 234.339 162.385 234.264 162.684 234.115C162.759 234.115 162.908 234.04 162.983 233.965C163.731 233.591 162.385 234.115 162.684 234.04C163.133 233.89 163.656 233.741 164.105 233.591C164.329 233.591 164.553 233.517 164.778 233.442C165.6 233.292 164.927 233.442 164.553 233.442C165.002 233.442 165.451 233.442 165.899 233.442C166.124 233.442 166.348 233.442 166.572 233.442C166.124 233.442 165.526 233.292 166.348 233.442C168.442 233.816 170.685 232.919 171.209 230.901C171.732 229.107 170.536 226.865 168.442 226.491C162.535 225.37 157.151 228.061 152.814 231.499C146.981 236.133 142.42 242.336 138.532 248.315C132.849 256.91 128.212 266.028 123.95 275.296C118.716 286.656 114.155 298.241 110.117 309.975C100.396 338.002 93.0679 366.851 88.0579 395.925C83.8705 420.439 80.7299 445.626 82.2254 470.515C82.7488 478.811 83.6461 487.256 86.3381 495.178C88.1327 500.335 90.8246 506.165 96.2085 509.005C108.472 515.657 120.436 501.382 126.268 493.459C131.876 485.911 136.438 477.69 140.55 469.319C145.934 458.482 150.645 447.271 154.833 435.985C165.077 408.481 172.704 380.155 178.163 351.605C183.098 325.969 186.762 299.736 186.238 273.726C186.089 264.608 185.416 255.415 183.247 246.521C181.827 240.766 179.733 234.414 175.097 230.079C173.302 228.36 170.909 227.014 168.367 226.491C166.273 226.043 164.03 227.089 163.507 229.032C162.983 230.826 164.18 233.068 166.273 233.442" fill="black"/>
<path d="M99.7977 510.575C108.995 512.368 118.118 514.237 127.315 516.031C131.428 516.853 135.541 517.675 139.653 518.497C143.242 519.244 146.533 518.721 149.823 517.301C153.861 515.582 157.3 512.518 160.142 509.528C164.329 505.119 167.844 500.261 170.984 495.328C179.733 481.576 186.388 466.703 192.295 451.755C199.922 432.472 206.054 412.666 211.139 392.636C211.812 389.946 212.485 387.255 213.158 384.564C213.606 382.696 212.56 380.603 210.391 380.155C208.372 379.706 205.979 380.678 205.531 382.696C200.67 402.876 194.838 422.831 187.51 442.338C181.677 458.108 175.62 472.308 167.096 486.808C164.03 492.039 160.665 497.196 156.777 501.905C156.627 502.129 156.029 502.877 156.702 501.98C156.478 502.204 156.253 502.503 156.104 502.727C155.655 503.25 155.207 503.699 154.758 504.147C154.01 504.969 153.188 505.791 152.365 506.539C151.617 507.286 150.795 507.959 149.897 508.631C149.673 508.781 149.524 508.93 149.299 509.08C148.626 509.603 149.075 509.005 149.449 509.005C149.15 509.005 148.477 509.678 148.178 509.827C147.43 510.276 146.682 510.724 145.86 511.023C145.71 511.098 145.486 511.173 145.261 511.247C145.635 511.023 146.233 510.874 145.56 511.098C145.187 511.247 144.813 511.322 144.439 511.397C144.065 511.472 143.691 511.546 143.317 511.621C142.794 511.771 144.588 511.546 143.766 511.621C143.542 511.621 143.392 511.621 143.168 511.621C142.794 511.621 142.495 511.621 142.121 511.621C141.373 511.621 143.168 511.771 142.569 511.621C142.42 511.621 142.27 511.621 142.121 511.546C138.98 510.948 135.914 510.276 132.774 509.678C122.679 507.66 112.51 505.642 102.415 503.699L101.742 503.549C99.7229 503.175 97.3301 504.072 96.8815 506.09C96.4328 507.884 97.4797 510.126 99.6482 510.5" fill="black"/>
<path d="M166.348 233.741C175.022 235.46 183.696 237.179 192.37 238.898L205.456 241.514C206.278 241.663 207.101 241.887 207.923 242.112C208.297 242.186 206.876 241.663 207.549 241.962C207.699 242.037 207.849 242.112 208.073 242.186C208.372 242.336 208.746 242.56 209.045 242.71C209.793 243.158 208.447 242.186 208.821 242.56C208.97 242.635 209.12 242.784 209.195 242.859C209.494 243.083 209.793 243.382 210.092 243.681C210.316 243.905 211.064 244.802 210.615 244.204C210.092 243.606 210.615 244.204 210.69 244.354C210.84 244.578 210.989 244.727 211.139 244.952C211.662 245.699 212.186 246.446 212.559 247.269C212.784 247.717 213.008 248.091 213.232 248.539C213.606 249.287 212.859 247.717 213.232 248.539C213.382 248.838 213.457 249.062 213.606 249.361C214.055 250.408 214.429 251.454 214.803 252.5C215.625 254.892 216.223 257.358 216.672 259.9C216.822 260.497 216.896 261.17 217.046 261.768C217.046 262.142 217.196 262.515 217.196 262.889C217.196 263.039 217.196 263.188 217.27 263.412C217.27 263.562 217.42 264.384 217.27 263.786C217.196 263.188 217.345 264.309 217.345 264.459C217.345 264.832 217.42 265.206 217.495 265.654C217.569 266.477 217.719 267.224 217.794 268.046C219.439 283.592 218.691 299.437 217.196 314.982C215.251 335.237 211.886 354.893 207.325 374.998C206.727 377.614 206.129 380.304 205.456 382.92C205.007 384.789 206.054 386.881 208.222 387.33C210.241 387.778 212.634 386.807 213.083 384.789C218.093 363.936 221.981 342.785 224.374 321.559C226.243 305.117 227.29 288.45 226.019 271.933C225.57 265.804 224.748 259.675 223.178 253.696C222.056 249.436 220.486 245.026 217.794 241.364C215.625 238.449 212.634 235.908 208.671 235.011C205.531 234.339 202.315 233.741 199.1 233.143C189.08 231.125 178.985 229.182 168.965 227.164C168.741 227.164 168.517 227.089 168.292 227.014C166.273 226.641 163.88 227.537 163.432 229.555C162.983 231.349 164.03 233.591 166.198 233.965" fill="black"/>
<path d="M491.772 358.705V480.38C491.772 482.099 491.772 483.893 491.772 485.612C491.772 485.612 491.772 485.985 491.772 486.21C491.772 487.107 491.922 485.612 491.772 485.985C491.623 486.359 491.623 486.733 491.473 487.107L491.249 487.704C491.249 487.704 491.772 486.808 491.473 487.181C491.398 487.331 491.323 487.405 491.249 487.555C491.024 487.929 490.8 488.302 490.576 488.676C490.426 488.826 490.351 488.975 490.202 489.124C490.8 488.527 489.678 489.797 490.202 489.124C489.454 489.947 488.632 490.694 487.734 491.367C487.51 491.516 487.36 491.666 487.136 491.815C487.061 491.89 486.912 491.965 486.837 492.039C486.239 492.488 487.51 491.591 487.061 491.89C486.463 492.263 485.94 492.637 485.416 493.011C484.22 493.758 482.949 494.431 481.677 495.104C480.257 495.851 478.761 496.449 477.266 497.122C476.892 497.271 476.518 497.421 476.069 497.57C475.845 497.645 474.499 498.168 475.546 497.794C474.648 498.093 473.751 498.467 472.854 498.766C464.554 501.681 455.88 503.773 447.206 505.492C423.277 510.276 399.05 512.518 374.524 513.714C345.959 515.059 317.246 514.835 288.756 512.742C266.024 511.098 243.442 508.557 221.308 503.101C217.121 502.054 213.008 500.933 208.97 499.588C208.148 499.289 207.25 498.99 206.428 498.766C205.979 498.616 205.456 498.392 205.007 498.243C204.708 498.168 203.362 497.645 204.334 498.018C202.764 497.421 201.268 496.823 199.773 496.075C197.156 494.879 194.688 493.534 192.295 491.965C193.417 492.712 192.295 491.965 192.146 491.815C191.921 491.666 191.772 491.516 191.548 491.367C191.099 490.993 190.65 490.619 190.202 490.171C189.828 489.872 189.529 489.498 189.229 489.124C189.828 489.872 188.706 488.601 189.229 489.124C189.08 488.9 188.93 488.751 188.781 488.527C188.556 488.153 188.332 487.779 188.108 487.405C187.734 486.808 188.108 487.405 188.108 487.555C188.108 487.405 187.958 487.181 187.884 487.032C187.734 486.658 187.734 486.284 187.584 485.911C187.435 485.388 187.584 487.032 187.584 486.21C187.584 485.985 187.584 485.761 187.584 485.612C187.584 480.978 179.583 480.978 179.658 485.612C179.658 490.171 182.799 494.132 186.612 496.897C191.996 500.933 198.427 503.549 204.858 505.791C224.374 512.518 245.61 515.507 266.248 517.824C294.364 520.963 322.854 522.01 351.194 521.561C378.188 521.188 405.182 519.394 431.802 515.433C442.121 513.863 452.365 511.995 462.46 509.379C470.162 507.361 477.939 504.969 485.042 501.606C489.903 499.289 494.913 496.225 497.754 491.89C499.25 489.573 499.773 487.107 499.773 484.491V358.63C499.773 353.996 491.847 353.996 491.847 358.63" fill="black"/>
</g>
<mask id="mask4_1_2" style="mask-type:luminance" maskUnits="userSpaceOnUse" x="-1" y="515" width="773" height="548">
<path d="M771.658 515.059H-1V1062.75H771.658V515.059Z" fill="white"/>
</mask>
<g mask="url(#mask4_1_2)">
<path d="M762.834 1045.26H38.4816C28.686 1045.26 18.8903 1044.88 9.09472 1045.26C8.64606 1045.26 8.27218 1045.26 7.82353 1045.26C10.7398 1048.17 13.656 1051.09 16.5723 1054V545.328C16.5723 538.452 16.9462 531.502 16.5723 524.7C16.5723 524.402 16.5723 524.103 16.5723 523.804C13.656 526.718 10.7398 529.633 7.82353 532.548H732.251C742.046 532.548 751.842 532.922 761.638 532.548C762.086 532.548 762.46 532.548 762.909 532.548L754.16 523.804V1032.4C754.16 1039.28 754.011 1046.16 754.16 1053.03C754.16 1053.33 754.16 1053.63 754.16 1053.93C754.16 1065.14 771.583 1065.14 771.583 1053.93V545.328C771.583 538.452 771.732 531.576 771.583 524.7C771.583 524.402 771.583 524.103 771.583 523.804C771.583 519.095 767.62 515.059 762.834 515.059H38.4816C28.686 515.059 18.8903 514.91 9.09472 515.059C8.64606 515.059 8.27218 515.059 7.82353 515.059C3.11266 515.059 -0.925232 519.02 -0.925232 523.804V1032.4C-0.925232 1039.28 -1.07478 1046.16 -0.925232 1053.03C-0.925232 1053.33 -0.925232 1053.63 -0.925232 1053.93C-0.925232 1058.64 3.03788 1062.67 7.82353 1062.67H732.251C742.046 1062.67 751.842 1062.82 761.638 1062.67C762.086 1062.67 762.46 1062.67 762.909 1062.67C774.125 1062.67 774.125 1045.26 762.909 1045.26" fill="black"/>
<path d="M289.055 607.362H481.677L472.929 598.617V661.324L481.677 652.579H289.055L297.804 661.324V598.617C297.804 594.058 293.766 589.723 289.055 589.873C284.344 590.097 280.306 593.685 280.306 598.617V661.324C280.306 666.032 284.269 670.068 289.055 670.068H481.677C486.388 670.068 490.426 666.107 490.426 661.324V598.617C490.426 593.909 486.463 589.873 481.677 589.873H289.055C284.494 589.873 280.082 593.909 280.306 598.617C280.531 603.326 284.12 607.362 289.055 607.362Z" fill="black"/>
<path d="M762.834 845.78H516.149C504.783 845.78 493.417 845.481 482.051 845.78C481.902 845.78 481.752 845.78 481.603 845.78C477.041 845.78 472.63 849.816 472.854 854.524C473.078 859.233 476.667 863.269 481.603 863.269H728.288C739.654 863.269 751.02 863.568 762.385 863.269C762.535 863.269 762.685 863.269 762.834 863.269C767.396 863.269 771.807 859.233 771.583 854.524C771.359 849.816 767.769 845.78 762.834 845.78Z" fill="black"/>
<path d="M568.567 752.655H760.516C765.077 752.655 769.489 748.619 769.265 743.91C769.041 739.202 765.451 735.166 760.516 735.166H568.567C564.005 735.166 559.594 739.202 559.818 743.91C560.042 748.619 563.632 752.655 568.567 752.655Z" fill="black"/>
<path d="M7.82352 1022.24H414.604C420.137 1022.24 425.67 1022.39 431.204 1022.24C431.428 1022.24 431.652 1022.24 431.877 1022.24C436.438 1022.24 440.85 1018.2 440.625 1013.49C440.401 1008.79 436.812 1004.75 431.877 1004.75H25.0967C19.5633 1004.75 14.0299 1004.6 8.49651 1004.75C8.27218 1004.75 8.04785 1004.75 7.82352 1004.75C3.2622 1004.75 -1.14956 1008.79 -0.925236 1013.49C-0.700908 1018.2 2.88833 1022.24 7.82352 1022.24Z" fill="black"/>
<path d="M84.0948 575.299H228.188C232.749 575.299 237.161 571.263 236.936 566.554C236.712 561.846 233.123 557.81 228.188 557.81H84.0948C79.5335 557.81 75.1217 561.846 75.346 566.554C75.5704 571.263 79.1596 575.299 84.0948 575.299Z" fill="black"/>
<path d="M568.567 575.299H640.576C645.137 575.299 649.549 571.263 649.325 566.554C649.1 561.846 645.511 557.81 640.576 557.81H568.567C564.005 557.81 559.594 561.846 559.818 566.554C560.042 571.263 563.632 575.299 568.567 575.299Z" fill="black"/>
<path d="M532.525 959.533H604.534C609.095 959.533 613.507 955.497 613.283 950.788C613.058 946.08 609.469 942.044 604.534 942.044H532.525C527.964 942.044 523.552 946.08 523.776 950.788C524 955.497 527.59 959.533 532.525 959.533Z" fill="black"/>
<path d="M84.0948 752.655H295.411C305.132 752.655 315.002 752.954 324.723 752.655C324.873 752.655 325.022 752.655 325.172 752.655C329.733 752.655 334.145 748.619 333.921 743.911C333.696 739.202 330.107 735.166 325.172 735.166H113.781C104.06 735.166 94.1895 734.867 84.4687 735.166C84.3191 735.166 84.1696 735.166 84.02 735.166C79.4587 735.166 75.0469 739.202 75.2713 743.911C75.4956 748.619 79.0848 752.655 84.02 752.655" fill="black"/>
<path d="M7.82352 928.217H143.99C148.551 928.217 152.963 924.181 152.739 919.473C152.515 914.764 148.925 910.728 143.99 910.728H7.82352C3.2622 910.728 -1.14956 914.764 -0.925236 919.473C-0.700908 924.181 2.88833 928.217 7.82352 928.217Z" fill="black"/>
</g>
</g>
</g>
</g>
<defs>
<clipPath id="clip0_1_2">
<rect width="1080" height="1080" fill="white"/>
</clipPath>
<clipPath id="clip1_1_2">
<rect width="1080" height="847" fill="white" transform="translate(-1 231)"/>
</clipPath>
</defs>
</svg>
