<?xml version="1.0" encoding="UTF-8"?>
<svg id="Livello_2" data-name="Livello 2" xmlns="http://www.w3.org/2000/svg" xmlns:xlink="http://www.w3.org/1999/xlink" viewBox="0 0 141.12 92.18">
  <defs>
    <style>
      .cls-1, .cls-2, .cls-3 {
        fill: none;
      }

      .cls-2 {
        clip-path: url(#clippath);
      }

      .cls-3 {
        clip-path: url(#clippath-1);
      }

      .cls-4 {
        fill: #1d1d1c;
      }
    </style>
    <clipPath id="clippath">
      <rect class="cls-1" x="0" y="0" width="141.12" height="92.18"/>
    </clipPath>
    <clipPath id="clippath-1">
      <rect class="cls-1" x="0" y="0" width="141.12" height="92.18"/>
    </clipPath>
  </defs>
  <g id="panca">
    <g class="cls-2">
      <g class="cls-3">
        <path class="cls-4" d="m2.18,74.58h131.2c1.78,0,3.56.03,5.34,0,.08,0,.15,0,.23,0,1.13,0,2.25-1,2.18-2.18-.22-3.9-.92-8.07-3.35-11.25-2.85-3.73-7.23-5.21-11.79-5.44-2.8-.14-5.64-.02-8.45-.02h-36.92c-3.3,0-6.61-.09-9.9,0-.05,0-.1,0-.14,0-1.14,0-2.23,1-2.18,2.18.05,1.18.96,2.18,2.18,2.18h54.67c.09,0,.18,0,.27,0,.05,0,.09,0,.14,0,.3,0,.59.03.89.05.14.01.29.02.43.04.07,0,.67.07.44.04-.26-.03.15.02.21.03.13.02.26.04.39.07.25.05.51.1.76.15.5.11,1,.25,1.49.42.14.05.27.1.41.15.07.02.41.16.13.05-.26-.11.35.16.42.2.4.2.8.42,1.17.67.09.06.17.11.26.17.03.02.43.32.15.1-.26-.2.25.21.3.26.31.28.61.58.89.89.07.07.13.15.19.22.33.37-.2-.3-.02-.04.11.16.23.32.34.48.23.35.45.71.64,1.09.09.18.18.36.27.54.02.03.22.49.07.16-.12-.29,0,.02.03.09.16.41.3.83.43,1.26.26.89.46,1.8.6,2.72.02.11.03.22.05.34-.08-.49-.02-.18,0-.07.03.26.06.52.09.78.05.5.08,1,.11,1.51l2.18-2.18H7.74c-1.78,0-3.56-.03-5.34,0-.08,0-.15,0-.23,0-1.14,0-2.23,1-2.18,2.18.05,1.18.96,2.18,2.18,2.18"/>
        <path class="cls-4" d="m138.94,70.22H7.74c-1.78,0-3.56-.05-5.34,0-.08,0-.15,0-.23,0l2.18,2.18c.03-.47.06-.95.1-1.42.02-.26.05-.52.08-.78,0-.08.06-.44.02-.14-.05.33.02-.15.03-.22.14-.92.33-1.83.6-2.72.12-.4.25-.8.4-1.18.04-.1.08-.19.11-.29-.2.5-.07.15,0,.03.1-.2.19-.41.3-.61.18-.35.38-.69.6-1.03.11-.16.22-.32.34-.48.28-.4-.24.26-.02.03.08-.09.16-.19.24-.28.26-.3.54-.58.83-.84.15-.13.3-.26.46-.39-.46.38.17-.11.3-.2.35-.23.72-.44,1.1-.63.2-.1.4-.19.6-.28-.49.22.28-.1.44-.15.46-.16.92-.29,1.4-.4.25-.06.5-.11.75-.16.13-.02.26-.05.39-.07.04,0,.69-.09.23-.04.66-.07,1.32-.13,1.99-.15,2.92-.05,5.85,0,8.77,0h36.4c3.2,0,6.41.08,9.61,0,.05,0,.1,0,.14,0,1.14,0,2.23-1,2.18-2.18-.05-1.18-.96-2.18-2.18-2.18H25.47c-3.25,0-6.51-.04-9.76,0-3.7.04-7.43,1-10.35,3.34-3.03,2.42-4.48,6.27-5.02,10.01-.16,1.12-.28,2.24-.34,3.37-.07,1.18,1.05,2.18,2.18,2.18h131.2c1.78,0,3.56.03,5.34,0,.08,0,.15,0,.23,0,1.14,0,2.23-1,2.18-2.18-.05-1.18-.96-2.18-2.18-2.18"/>
        <path class="cls-4" d="m30.92,87.82h-6.17c.73.73,1.45,1.45,2.18,2.18v-15.86l-2.18,2.18h6.17l-2.18-2.18v15.86c0,1.14,1,2.23,2.18,2.18,1.18-.05,2.18-.96,2.18-2.18v-15.86c0-1.18-1-2.18-2.18-2.18h-6.17c-1.18,0-2.18,1-2.18,2.18v15.86c0,1.18,1,2.18,2.18,2.18h6.17c1.14,0,2.23-1,2.18-2.18-.05-1.18-.96-2.18-2.18-2.18"/>
        <path class="cls-4" d="m116.2,87.82h-6.17c.73.73,1.45,1.45,2.18,2.18v-15.86l-2.18,2.18h6.17l-2.18-2.18v15.86c0,1.14,1,2.23,2.18,2.18,1.18-.05,2.18-.96,2.18-2.18v-15.86c0-1.18-1-2.18-2.18-2.18h-6.17c-1.18,0-2.18,1-2.18,2.18v15.86c0,1.18,1,2.18,2.18,2.18h6.17c1.14,0,2.23-1,2.18-2.18-.05-1.18-.96-2.18-2.18-2.18"/>
        <path class="cls-4" d="m28.74,45.97v9.04c0,1.14,1,2.23,2.18,2.18,1.18-.05,2.18-.96,2.18-2.18v-9.04c0-1.14-1-2.23-2.18-2.18-1.18.05-2.18.96-2.18,2.18"/>
        <path class="cls-4" d="m107.85,45.97v9.04c0,1.14,1,2.23,2.18,2.18,1.18-.05,2.18-.96,2.18-2.18v-9.04c0-1.14-1-2.23-2.18-2.18-1.18.05-2.18.96-2.18,2.18"/>
        <path class="cls-4" d="m121.87,25.29H23.45c-1.34,0-2.68-.03-4.01,0-.06,0-.12,0-.18,0-1.18,0-2.18,1-2.18,2.18v15.75c0,1.18,1,2.18,2.18,2.18h98.42c1.34,0,2.68.03,4.01,0,.06,0,.12,0,.18,0,1.18,0,2.18-1,2.18-2.18v-15.75c0-1.14-1-2.23-2.18-2.18-1.18.05-2.18.96-2.18,2.18v15.75l2.18-2.18H23.45c-1.33,0-2.68-.05-4.01,0-.06,0-.12,0-.18,0l2.18,2.18v-15.75l-2.18,2.18h98.42c1.34,0,2.68.03,4.01,0,.06,0,.12,0,.18,0,1.14,0,2.23-1,2.18-2.18-.05-1.18-.96-2.18-2.18-2.18"/>
        <path class="cls-4" d="m121.87.01H23.45C22.11.01,20.77-.02,19.43.01c-.06,0-.12,0-.18,0-1.18,0-2.18,1-2.18,2.18v15.75c0,1.18,1,2.18,2.18,2.18h98.42c1.34,0,2.68.03,4.01,0,.06,0,.12,0,.18,0,1.18,0,2.18-1,2.18-2.18V2.19c0-1.14-1-2.23-2.18-2.18-1.18.05-2.18.96-2.18,2.18v15.75l2.18-2.18H23.45c-1.33,0-2.68-.05-4.01,0-.06,0-.12,0-.18,0l2.18,2.18V2.19l-2.18,2.18h98.42c1.34,0,2.68.03,4.01,0,.06,0,.12,0,.18,0,1.14,0,2.23-1,2.18-2.18-.05-1.18-.96-2.18-2.18-2.18"/>
        <path class="cls-4" d="m33.1,25.06v-3.8c0-.56-.24-1.15-.64-1.54-.38-.38-1-.66-1.54-.64-.56.02-1.15.21-1.54.64-.39.43-.64.95-.64,1.54v3.8c0,.56.24,1.15.64,1.54.38.38,1,.66,1.54.64.56-.02,1.15-.21,1.54-.64.39-.43.64-.95.64-1.54"/>
        <path class="cls-4" d="m112.21,24.92v-3.8c0-.56-.24-1.15-.64-1.54-.38-.38-1-.66-1.54-.64-.56.02-1.15.21-1.54.64-.39.43-.64.95-.64,1.54v3.8c0,.56.24,1.15.64,1.54.38.38,1,.66,1.54.64.56-.02,1.15-.21,1.54-.64.39-.43.64-.95.64-1.54"/>
      </g>
    </g>
  </g>
</svg>