<?xml version="1.0" encoding="UTF-8"?>
<svg id="Livello_2" data-name="Livello 2" xmlns="http://www.w3.org/2000/svg" xmlns:xlink="http://www.w3.org/1999/xlink" viewBox="0 0 147.79 145.13">
  <defs>
    <style>
      .cls-1, .cls-2, .cls-3 {
        fill: none;
      }

      .cls-2 {
        clip-path: url(#clippath);
      }

      .cls-3 {
        clip-path: url(#clippath-1);
      }

      .cls-4 {
        fill: #010101;
      }
    </style>
    <clipPath id="clippath">
      <rect class="cls-1" width="147.79" height="145.13"/>
    </clipPath>
    <clipPath id="clippath-1">
      <rect class="cls-1" width="147.79" height="145.13"/>
    </clipPath>
  </defs>
  <g id="parete_attrezzata" data-name="parete attrezzata">
    <g class="cls-2">
      <g class="cls-3">
        <path class="cls-4" d="m1.25,28.71h139.37c1.88,0,3.77.03,5.65,0,.08,0,.16,0,.25,0,.67,0,1.24-.57,1.24-1.24V7.27c0-1.64.24-3.55-.62-5.02C146.24.72,144.61,0,142.9,0H6.16C5.68,0,5.2,0,4.72,0,2.15.02.08,1.93.01,4.55-.01,5.54.01,6.54.01,7.54v132.69c0,1.64.62,3.16,2.01,4.12.91.62,1.95.78,3.02.78h134.3c1.27,0,2.53.02,3.8,0,2.58-.05,4.57-2.02,4.62-4.6.02-.98,0-1.97,0-2.95v-39.45c0-.67-.57-1.24-1.24-1.24H7.15c-1.88,0-3.77-.03-5.65,0-.08,0-.16,0-.25,0-1.6,0-1.6,2.48,0,2.48h139.37c1.88,0,3.78.09,5.65,0,.08,0,.16,0,.25,0l-1.24-1.24v39.53c0,.96.01,1.92,0,2.88-.02,1.3-1.02,2.11-2.26,2.12-1.42,0-2.85,0-4.27,0H5.06c-.75,0-1.47-.05-2.03-.67-.52-.58-.54-1.22-.54-1.93V7.63c0-1.02-.04-2.06,0-3.08.1-2.32,2.33-2.07,3.94-2.07h134.61c1.47,0,3.53-.34,4.13,1.42.15.45.1.97.1,1.44v22.13l1.24-1.24H7.15c-1.88,0-3.77-.03-5.65,0-.08,0-.16,0-.25,0-1.6,0-1.6,2.48,0,2.48"/>
        <path class="cls-4" d="m39.01,1.24v136.85c0,1.85-.03,3.7,0,5.55,0,.08,0,.16,0,.24,0,1.59,2.48,1.6,2.48,0V7.03c0-1.85.03-3.7,0-5.55,0-.08,0-.16,0-.24,0-1.6-2.48-1.6-2.48,0"/>
        <path class="cls-4" d="m40.25,75.62H2.83c-.5,0-1.01-.03-1.52,0-.02,0-.04,0-.07,0l1.24,1.24v-25.55l-1.24,1.24h37.42c.5,0,1.01.03,1.52,0,.02,0,.04,0,.07,0l-1.24-1.24v25.55c0,.65.57,1.27,1.24,1.24.67-.03,1.24-.54,1.24-1.24v-25.55c0-.67-.57-1.24-1.24-1.24H6.06c-1.58,0-3.16-.05-4.74,0-.02,0-.04,0-.07,0-.67,0-1.24.57-1.24,1.24v25.55c0,.67.57,1.24,1.24,1.24h34.2c1.58,0,3.16.05,4.74,0,.02,0,.04,0,.07,0,.65,0,1.27-.57,1.24-1.24-.03-.67-.54-1.24-1.24-1.24"/>
        <path class="cls-4" d="m16.2,110.31h10.9c.65,0,1.27-.57,1.24-1.24-.03-.67-.54-1.24-1.24-1.24h-10.9c-.65,0-1.27.57-1.24,1.24.03.67.54,1.24,1.24,1.24"/>
        <path class="cls-4" d="m78.3,110.31h26.2c1.21,0,2.42.04,3.62,0,.02,0,.03,0,.05,0,.65,0,1.27-.57,1.24-1.24-.03-.67-.54-1.24-1.24-1.24h-26.2c-1.21,0-2.42-.04-3.62,0-.02,0-.03,0-.05,0-.65,0-1.27.57-1.24,1.24.03.67.54,1.24,1.24,1.24"/>
        <path class="cls-4" d="m96.81,96.12h-7.14l1.24,1.24v-9.39l-1.24,1.24h7.14l-1.24-1.24v9.39c0,.65.57,1.27,1.24,1.24.67-.03,1.24-.54,1.24-1.24v-9.39c0-.67-.57-1.24-1.24-1.24h-7.14c-.67,0-1.24.57-1.24,1.24v9.39c0,.67.57,1.24,1.24,1.24h7.14c.65,0,1.27-.57,1.24-1.24-.03-.67-.54-1.24-1.24-1.24"/>
        <path class="cls-4" d="m128.21,54.08H61.1c-.91,0-1.81-.02-2.72,0-.04,0-.08,0-.12,0-.67,0-1.24.57-1.24,1.24v28.32c0,1.31-.04,2.63,0,3.94,0,.02,0,.04,0,.05,0,.67.57,1.24,1.24,1.24h67.1c.91,0,1.81.02,2.72,0,.04,0,.08,0,.12,0,.67,0,1.24-.57,1.24-1.24v-28.32c0-1.31.04-2.63,0-3.94,0-.02,0-.04,0-.05,0-.65-.57-1.27-1.24-1.24-.67.03-1.24.54-1.24,1.24v28.32c0,1.31-.08,2.64,0,3.94,0,.02,0,.04,0,.05l1.24-1.24H61.1c-.9,0-1.82-.03-2.72,0-.04,0-.08,0-.12,0l1.24,1.24v-28.32c0-1.31.08-2.64,0-3.94,0-.02,0-.04,0-.05l-1.24,1.24h67.1c.91,0,1.81.02,2.72,0,.04,0,.08,0,.12,0,.65,0,1.27-.57,1.24-1.24-.03-.67-.54-1.24-1.24-1.24"/>
      </g>
    </g>
  </g>
</svg>