<?xml version="1.0" encoding="UTF-8"?>
<svg id="Livello_2" data-name="Livello 2" xmlns="http://www.w3.org/2000/svg" xmlns:xlink="http://www.w3.org/1999/xlink" viewBox="0 0 90.43 145.07">
  <defs>
    <style>
      .cls-1, .cls-2, .cls-3 {
        fill: none;
      }

      .cls-2 {
        clip-path: url(#clippath);
      }

      .cls-3 {
        clip-path: url(#clippath-1);
      }

      .cls-4 {
        fill: #1d1d1c;
      }
    </style>
    <clipPath id="clippath">
      <rect class="cls-1" width="90.43" height="145.07"/>
    </clipPath>
    <clipPath id="clippath-1">
      <rect class="cls-1" width="90.43" height="145.07"/>
    </clipPath>
  </defs>
  <g id="pattumiera">
    <g class="cls-2">
      <g class="cls-3">
        <path class="cls-4" d="m9.68,143.25c-.05-.87-.11-1.74-.16-2.61-.15-2.37-.3-4.74-.45-7.11-.22-3.49-.44-6.98-.66-10.47l-.81-12.82c-.29-4.66-.59-9.32-.88-13.98-.3-4.73-.59-9.45-.89-14.17-.28-4.41-.55-8.81-.83-13.22-.23-3.72-.47-7.45-.7-11.17-.17-2.67-.33-5.33-.5-8-.08-1.27-.11-2.55-.24-3.81,0-.05,0-.11,0-.16l-1.78,1.78c4.35-.42,8.75-.48,13.11-.56,6.42-.12,12.85-.13,19.27-.12,7.11.02,14.21.08,21.32.16,6.42.07,12.84.17,19.27.28,4.32.07,8.64.15,12.96.23.31,0,.63.01.94.02l-1.78-1.78c-.05.87-.09,1.74-.13,2.62l-.36,7.08c-.18,3.51-.36,7.01-.54,10.52-.22,4.26-.44,8.52-.66,12.78-.24,4.68-.48,9.37-.72,14.05-.24,4.71-.48,9.42-.73,14.13-.23,4.39-.45,8.78-.68,13.18-.19,3.73-.38,7.46-.57,11.18-.14,2.68-.28,5.36-.41,8.04-.06,1.26-.17,2.53-.19,3.79,0,.05,0,.11,0,.16l1.78-1.78H17.19c-3.05,0-6.11-.08-9.16,0-.04,0-.09,0-.13,0-.93,0-1.82.82-1.78,1.78.04.96.78,1.78,1.78,1.78h66.45c3.05,0,6.11.08,9.16,0,.04,0,.09,0,.13,0,1,0,1.73-.82,1.78-1.78.05-.87.09-1.74.13-2.62.12-2.36.24-4.72.36-7.08.18-3.51.36-7.01.54-10.52.22-4.26.44-8.52.66-12.78.24-4.68.48-9.37.72-14.05.24-4.71.48-9.42.73-14.13l.68-13.18c.19-3.73.38-7.45.57-11.18.14-2.68.28-5.36.41-8.04.06-1.26.16-2.53.19-3.79,0-.05,0-.11,0-.16.05-.97-.85-1.76-1.78-1.78-3.97-.07-7.94-.14-11.91-.21-6.22-.11-12.44-.2-18.66-.28-7.09-.09-14.19-.16-21.28-.18-6.6-.03-13.21-.02-19.81.08-4.69.07-9.41.13-14.09.5-.37.03-.74.06-1.11.1-.91.09-1.84.74-1.78,1.78l.16,2.61c.15,2.37.3,4.74.45,7.11.22,3.49.44,6.98.66,10.47.27,4.27.54,8.55.8,12.82.29,4.66.59,9.32.88,13.98.3,4.72.59,9.45.89,14.17.28,4.41.55,8.81.83,13.22.23,3.72.47,7.45.7,11.17.17,2.67.33,5.33.5,8,.08,1.27.15,2.54.24,3.81,0,.05,0,.11.01.16.06.93.78,1.82,1.78,1.78.91-.04,1.84-.78,1.78-1.78"/>
        <path class="cls-4" d="m32.03,68.51c-1.38-1.74-3.41-3.1-5.72-2.53-1.06.26-2.02.95-2.78,1.71-.58.59-1.18,1.24-1.23,2.1-.04.62,0,1.25,0,1.86v38.35c0,2.05-.09,4.13,0,6.18.03.77.54,1.5.97,2.12.59.86,1.29,1.7,2.2,2.23,1.77,1.04,3.76.46,5.11-.96.82-.87,1.93-2.24,1.97-3.47,0-.26,0-.52,0-.77v-45.57c0-.93-.82-1.82-1.78-1.78-.96.04-1.78.78-1.78,1.78v40.73c0,1.86-.11,3.76,0,5.62,0,.03,0,.06,0,.08.08-.3.16-.6.24-.9-.43.79-.77,1.36-1.29,1.87-.11.11-.22.21-.34.3.35-.28-.1,0-.14.06-.12.06-.07.04.15-.05-.07.03-.15.05-.22.07-.35.05.4.01.03,0-.35-.02.36.15.03,0-.23-.1-.23-.11-.02.01-.04-.02-.47-.28-.27-.14.19.13-.22-.2-.27-.24-.12-.12-.23-.24-.34-.36-.33-.37.13.23-.17-.22-.28-.42-.54-.84-.78-1.28.08.3.16.6.24.9v-40.73c0-1.86.11-3.76,0-5.62,0-.03,0-.06,0-.08-.17.42-.35.84-.52,1.26.23-.28.46-.56.71-.82.14-.14.28-.27.43-.4-.14.12,0,0,.07-.05.14-.09.28-.17.43-.26.15-.08.17-.06,0,0,.14-.05.28-.08.43-.12-.23.05-.18.02.03.02.14,0,.37.09.03-.02.12.04.24.06.36.09.23.07-.32-.2.07.03.12.07.24.14.36.21.04.03.32.25.14.1.12.1.24.21.36.33.28.28.54.58.78.89.6.75,1.89.62,2.51,0,.74-.74.6-1.76,0-2.51"/>
        <path class="cls-4" d="m50.97,69.88c-1.38-1.74-3.41-3.1-5.72-2.53-1.06.26-2.02.95-2.78,1.71-.58.59-1.18,1.24-1.23,2.1-.04.62,0,1.25,0,1.86v38.35c0,2.05-.09,4.13,0,6.18.03.77.54,1.5.97,2.12.59.86,1.29,1.7,2.2,2.23,1.77,1.04,3.76.46,5.11-.96.82-.87,1.93-2.24,1.97-3.47,0-.26,0-.52,0-.77v-45.57c0-.93-.82-1.82-1.78-1.78-.96.04-1.78.78-1.78,1.78v40.73c0,1.86-.11,3.76,0,5.62,0,.03,0,.06,0,.08.08-.3.16-.6.24-.9-.43.79-.77,1.36-1.29,1.87-.11.11-.22.21-.34.3.35-.28-.1,0-.14.06-.12.06-.07.04.15-.05-.07.03-.15.05-.22.07-.35.05.4.01.03,0-.35-.02.36.15.03,0-.23-.1-.23-.11-.02.01-.04-.02-.47-.28-.27-.14.19.13-.22-.2-.27-.24-.12-.12-.23-.24-.34-.36-.33-.37.13.23-.17-.22-.28-.42-.54-.84-.78-1.28.08.3.16.6.24.9v-40.73c0-1.86.11-3.76,0-5.62,0-.03,0-.06,0-.08-.17.42-.35.84-.52,1.26.23-.28.46-.56.71-.82.14-.14.28-.27.43-.4-.14.12,0,0,.07-.05.14-.09.28-.17.43-.26.15-.08.17-.06,0,0,.14-.05.28-.08.43-.12-.23.05-.18.02.03.02.14,0,.37.09.03-.02.12.04.24.06.36.09.23.07-.32-.2.07.03.12.07.24.14.36.21.04.03.32.25.14.1.12.1.24.21.36.33.28.28.54.58.78.89.6.75,1.89.62,2.51,0,.74-.74.6-1.76,0-2.51"/>
        <path class="cls-4" d="m70.45,68.51c-1.38-1.74-3.41-3.1-5.72-2.53-1.06.26-2.02.95-2.78,1.71-.58.59-1.18,1.24-1.23,2.1-.04.62,0,1.25,0,1.86v38.35c0,2.05-.09,4.13,0,6.18.03.77.54,1.5.97,2.12.59.86,1.29,1.7,2.2,2.23,1.77,1.04,3.76.46,5.11-.96.82-.87,1.93-2.24,1.97-3.47,0-.26,0-.52,0-.77v-45.57c0-.93-.82-1.82-1.78-1.78-.96.04-1.78.78-1.78,1.78v40.73c0,1.86-.11,3.76,0,5.62,0,.03,0,.06,0,.08.08-.3.16-.6.24-.9-.43.79-.77,1.36-1.29,1.87-.11.11-.22.21-.34.3.35-.28-.1,0-.14.06-.12.06-.07.04.15-.05-.07.03-.15.05-.22.07-.35.05.4.01.03,0-.35-.02.36.15.03,0-.23-.1-.23-.11-.02.01-.04-.02-.47-.28-.27-.14.19.13-.22-.2-.27-.24-.12-.12-.23-.24-.34-.36-.33-.37.13.23-.17-.22-.28-.42-.54-.84-.78-1.28.08.3.16.6.24.9v-40.73c0-1.86.11-3.76,0-5.62,0-.03,0-.06,0-.08l-.52,1.26c.23-.28.46-.56.71-.82.14-.14.28-.27.43-.4-.14.12,0,0,.07-.05.14-.09.28-.17.43-.26.15-.08.17-.06,0,0,.14-.05.28-.08.43-.12-.23.05-.18.02.03.02.14,0,.37.09.03-.02.12.04.24.06.36.09.23.07-.32-.2.07.03.12.07.24.14.36.21.04.03.32.25.14.1.12.1.24.21.36.33.28.28.54.58.78.89.6.75,1.89.62,2.51,0,.74-.74.6-1.76,0-2.51"/>
        <path class="cls-4" d="m3.56,35.35c0-.24.02-.48.03-.72.03-.38-.03.14-.01.07.03-.13.04-.27.07-.4.09-.47.24-.91.4-1.36.14-.39-.18.37,0,0,.05-.1.09-.2.14-.3.12-.25.25-.49.39-.72.13-.21.26-.42.4-.63.08-.11.16-.22.24-.33.13-.2-.24.29.04-.05.75-.91,1.59-1.73,2.51-2.48.05-.04.46-.36.25-.2-.21.16.16-.12.21-.16.29-.21.58-.42.88-.62.57-.38,1.16-.74,1.75-1.09,1.35-.77,2.75-1.45,4.18-2.06-.31.13.12-.05.22-.09.17-.07.34-.14.51-.2.42-.17.85-.33,1.27-.48.81-.29,1.62-.57,2.44-.82,3.68-1.15,7.46-1.97,11.26-2.55.26-.04.52-.08.78-.12.13-.02.26-.04.39-.05.02,0,.34-.05.12-.02.53-.07,1.06-.14,1.6-.2,1.09-.12,2.18-.23,3.27-.32,2.19-.18,4.38-.28,6.57-.32,4.45-.07,8.9.13,13.32.63.53.06,1.06.13,1.6.2-.22-.03.35.05.41.06.29.04.59.08.88.13,1.02.15,2.04.33,3.05.52,1.87.35,3.72.77,5.55,1.26,1.75.47,3.48,1,5.18,1.63.38.14.75.28,1.12.43.17.07.34.13.51.2.1.04.19.08.29.12.31.13-.12-.05.07.03.73.31,1.46.64,2.17,1,1.29.64,2.54,1.35,3.74,2.15.26.18.52.36.78.55.12.09.23.17.35.26-.39-.28.06.05.16.13.48.39.94.8,1.38,1.23.4.39.77.81,1.13,1.24.29.36-.11-.16.04.05.07.1.14.19.21.29.16.23.31.47.46.71.12.21.24.42.35.64.05.1.1.2.14.3.2.42-.1-.31.02.05.16.46.32.92.41,1.4.02.1.04.21.05.31.05.25-.04-.47,0-.02.02.24.03.48.03.72l1.78-1.78H5.33c-1.13,0-2.27-.02-3.4,0-.05,0-.1,0-.15,0-.93,0-1.82.82-1.78,1.78.04.96.78,1.78,1.78,1.78h83.32c1.13,0,2.27.02,3.4,0,.05,0,.1,0,.15,0,.96,0,1.78-.81,1.78-1.78-.03-5.36-4.44-9.32-8.72-11.85-6.33-3.75-13.77-5.65-20.99-6.76-9.11-1.39-18.44-1.56-27.59-.47-7.7.92-15.49,2.62-22.45,6.15-2.55,1.29-5.04,2.89-7.04,4.96-1.63,1.69-3.04,3.8-3.46,6.15-.11.6-.18,1.21-.18,1.82,0,.93.82,1.82,1.78,1.78.97-.04,1.77-.78,1.78-1.78"/>
        <path class="cls-4" d="m34.7,15.09c-.12-.21-.23-.43-.34-.65-.08-.17-.16-.51-.29-.64.15.15.14.35.07.16-.02-.04-.04-.09-.05-.13-.04-.1-.08-.2-.12-.31-.08-.21-.15-.43-.22-.65-.12-.38-.21-.77-.29-1.16-.02-.09-.03-.19-.05-.28-.05-.28.05.5.02.12-.02-.18-.04-.36-.04-.54-.02-.36,0-.71.02-1.07.04-.5-.08.39,0-.06.03-.17.06-.34.1-.51.08-.31.19-.6.29-.91.09-.25-.21.44-.06.15.04-.07.07-.14.1-.21.07-.14.14-.28.22-.41.08-.14.16-.27.25-.4.14-.21.42-.5.06-.1.21-.24.41-.49.63-.71.23-.23.48-.44.72-.65.27-.23-.32.23-.11.08.07-.05.13-.1.2-.15.15-.11.3-.21.45-.3.59-.38,1.21-.68,1.85-.98.26-.12-.43.17-.1.04.08-.03.17-.07.25-.1.17-.07.34-.13.52-.19.36-.13.73-.24,1.11-.34.74-.2,1.49-.35,2.25-.47.32-.05.11,0-.1.01.1,0,.19-.02.29-.04.21-.02.42-.05.63-.06.39-.03.79-.06,1.18-.07.81-.03,1.62-.01,2.42.05.39.03.79.08,1.18.12.07,0-.48-.07-.1-.01.08.01.17.03.25.04.21.03.41.07.62.11.77.15,1.53.34,2.28.58.36.12.71.24,1.06.38.07.03.4.17.08.03-.32-.13.01,0,.08.04.17.08.33.15.49.23.65.32,1.26.7,1.85,1.11.27.19-.04.05-.09-.08.02.04.13.11.17.14.14.12.28.23.41.36.26.23.5.48.73.74.1.12.19.24.3.35.04.05-.28-.39-.09-.11.05.08.11.15.16.23.18.27.35.56.5.85.07.14.12.32.21.45-.06-.1-.17-.43-.07-.16.03.09.07.18.1.27.11.33.21.67.27,1.02.02.09.03.17.05.26.06.3-.03-.05-.02-.17-.02.18.04.4.05.57.02.37.02.75-.01,1.12,0,.1-.01.19-.02.29,0,.09-.05.44,0,.1.05-.35,0,.03-.02.11-.02.12-.04.23-.06.35-.08.43-.19.85-.32,1.26-.14.45-.3.89-.48,1.33-.36.86.38,1.99,1.24,2.19,1.04.24,1.8-.32,2.19-1.24,1.38-3.33,1.58-7.29-.51-10.37-1.93-2.85-5.11-4.54-8.38-5.38-3.48-.89-7.2-.93-10.71-.18-3.25.7-6.43,2.23-8.45,4.94-2.22,2.98-1.92,6.79-.52,10.04.2.47.43.93.67,1.38.46.84,1.62,1.11,2.43.64.85-.5,1.1-1.58.64-2.43"/>
        <path class="cls-4" d="m39.77,15.51c-.03-.11-.06-.65-.14-.72.08.07.04.43.01.08-.01-.13-.02-.25-.03-.38,0-.21,0-.42,0-.63,0-.07.04-.19.02-.26,0,.01-.09.48-.03.22.01-.05.02-.11.03-.16.04-.18.08-.37.14-.54.02-.07.06-.15.08-.22.07-.25-.21.41-.02.07.09-.15.16-.31.26-.46.04-.06.09-.12.13-.19.13-.22-.31.35-.05.06.11-.12.22-.24.33-.35.06-.06.13-.12.2-.18.28-.25.11.02-.06.04.11-.01.31-.22.41-.28.17-.1.34-.2.51-.29.08-.04.17-.08.25-.12.29-.14-.24.09-.13.05.19-.06.38-.14.58-.21.37-.12.75-.21,1.14-.28.1-.02.2-.03.29-.05.34-.06-.25.02-.13.02.22-.02.43-.05.64-.06.41-.03.81-.03,1.22-.01.19,0,.38.02.57.04.1,0,.2.02.3.03.42.04-.32-.06-.04,0,.39.07.78.14,1.17.24.37.1.74.21,1.1.35.07.03.15.07.22.09-.51-.14-.25-.11-.1-.04.17.09.35.17.52.26.14.08.28.16.42.25.07.05.14.1.21.15.32.21-.26-.23-.07-.06.24.22.47.44.69.68.15.15-.27-.41-.08-.09.04.07.09.13.13.19.05.07.08.15.13.23.17.29-.04-.12-.05-.13.04.17.11.33.15.5.02.07.01.16.04.23-.18-.38-.03-.4-.03-.14,0,.17-.05.4-.02.56-.04-.21.09-.46,0-.11-.03.1-.05.2-.07.3-.03.1-.07.2-.1.3-.11.33.06-.12.04-.08-.13.22-.23.46-.36.68-.49.82-.19,1.95.64,2.43.84.49,1.94.19,2.43-.64,1.07-1.8,1.38-3.97.31-5.84-.95-1.67-2.73-2.7-4.51-3.29-3.54-1.19-8.32-.92-11.12,1.8-1.87,1.82-2.23,4.45-1.64,6.91.23.93,1.28,1.49,2.19,1.24.95-.26,1.47-1.25,1.24-2.19"/>
      </g>
    </g>
  </g>
</svg>