<?xml version="1.0" encoding="UTF-8"?>
<svg id="Livello_2" data-name="Livello 2" xmlns="http://www.w3.org/2000/svg" xmlns:xlink="http://www.w3.org/1999/xlink" viewBox="0 0 128.33 99.28">
  <defs>
    <style>
      .cls-1, .cls-2, .cls-3, .cls-4 {
        fill: none;
      }

      .cls-2 {
        clip-path: url(#clippath);
      }

      .cls-3 {
        clip-path: url(#clippath-1);
      }

      .cls-5 {
        fill: #1d1d1c;
      }

      .cls-4 {
        stroke: #1d1d1c;
        stroke-miterlimit: 10;
        stroke-width: 1.5px;
      }
    </style>
    <clipPath id="clippath">
      <rect class="cls-1" width="128.33" height="99.28"/>
    </clipPath>
    <clipPath id="clippath-1">
      <rect class="cls-1" width="128.33" height="99.28"/>
    </clipPath>
  </defs>
  <g id="pianoforte">
    <g class="cls-2">
      <g class="cls-3">
        <path class="cls-5" d="m81.26,61.95c-.72,0-1.43-.02-2.15-.02-1.94-.02-3.88-.04-5.81-.07-2.88-.03-5.76-.07-8.64-.1-3.51-.04-7.03-.08-10.54-.12l-11.49-.13c-3.89-.04-7.77-.09-11.66-.13-3.61-.04-7.21-.08-10.82-.12-3.06-.03-6.13-.07-9.19-.1-2.2-.03-4.41-.05-6.61-.07-1.03-.01-2.09-.09-3.12-.04-.05,0-.09,0-.14,0,.37.37.73.73,1.1,1.1.02-5.96,2.42-11.71,6.67-15.88,4.14-4.07,9.77-6.34,15.56-6.35,2.18,0,4.36,0,6.54,0h23.3c.72,0,1.44.02,2.17.02,2.59,0,5.12-.82,6.98-2.67,1.73-1.73,2.73-4.08,3.33-6.42.68-2.63.92-5.37,1.03-8.08.06-1.36.07-2.72.08-4.08,0-1.24.12-2.18.39-3.35.12-.54.28-1.06.46-1.58.09-.24.18-.49.28-.72-.07.16.07-.15.09-.19.06-.13.12-.26.19-.39.23-.47.49-.92.78-1.36.14-.21.28-.42.43-.62.12-.16.19-.25.39-.5,2.99-3.56,7.48-5.33,12.01-6.37,6.15-1.42,12.57-1.55,18.85-1.32,1.79.06,3.58.17,5.37.3-.35-.46-.71-.93-1.06-1.39-.83,2-1.66,4-2.48,6-1.99,4.8-3.98,9.61-5.97,14.41-2.41,5.81-4.81,11.62-7.22,17.43-2.08,5.02-4.16,10.04-6.24,15.06-.68,1.65-1.36,3.29-2.04,4.94-.32.78-.71,1.57-.98,2.37-.01.03-.03.07-.04.1-.44,1.06,1.12,1.79,1.84,1.07,1.16-1.16,2.32-2.32,3.48-3.48,2.77-2.77,5.55-5.55,8.32-8.32l10.06-10.06c2.91-2.91,5.82-5.82,8.74-8.74,1.41-1.41,2.88-2.77,4.23-4.23.02-.02.04-.04.06-.06,1-1-.55-2.56-1.55-1.55l-3.48,3.48c-2.77,2.77-5.55,5.55-8.32,8.32-3.36,3.35-6.71,6.71-10.06,10.06-2.91,2.91-5.82,5.82-8.74,8.74-.95.95-1.91,1.91-2.86,2.86-.45.45-.96.88-1.37,1.37-.02.02-.04.04-.06.06.61.36,1.22.71,1.84,1.07.83-2,1.66-4,2.48-6,1.99-4.8,3.98-9.61,5.97-14.41,2.41-5.81,4.81-11.62,7.22-17.43,2.08-5.02,4.16-10.04,6.24-15.06.68-1.65,1.36-3.29,2.04-4.94.32-.78.71-1.57.98-2.37.01-.03.03-.07.04-.1.29-.71-.43-1.35-1.06-1.39-6.86-.5-13.79-.62-20.61.33-5.05.71-10.36,2.06-14.49,5.2-1.78,1.36-3.33,3.01-4.4,4.99-1.14,2.1-1.73,4.44-1.89,6.82-.09,1.32-.04,2.66-.08,3.99-.04,1.38-.11,2.77-.24,4.14-.23,2.38-.7,5.06-1.69,7.17-.5,1.07-1.05,1.92-1.81,2.68-.72.72-1.63,1.29-2.58,1.6-1.34.45-2.63.41-4.05.41h-30.55c-5.18,0-10.28,1.52-14.49,4.57-4.99,3.61-8.56,9.03-9.74,15.1C.16,58.95,0,60.55,0,62.14c0,.6.51,1.09,1.1,1.1.72,0,1.43.02,2.15.02,1.94.02,3.88.04,5.81.07,2.88.03,5.76.07,8.64.1,3.51.04,7.03.08,10.54.12,3.83.04,7.66.09,11.49.13,3.89.04,7.77.09,11.66.13,3.61.04,7.21.08,10.82.12,3.06.03,6.13.07,9.19.1,2.2.03,4.41.05,6.61.07,1.04.01,2.08.05,3.12.04.05,0,.09,0,.14,0,1.42.02,1.42-2.18,0-2.2"/>
        <path class="cls-5" d="m98.72,23.62c3-.87,6.12-1.33,9.24-1.08,1.26.1,2.51.35,3.71.76.52.18.93.36,1.42.63.44.24.9.54,1.18.78.22.19.43.38.62.6.22.23.3.35.42.52.35.52.49.82.64,1.34.41,1.35,2.53.77,2.12-.58-1.7-5.6-8.86-6.63-13.83-6.23-2.07.17-4.12.56-6.11,1.14-1.36.39-.78,2.52.58,2.12"/>
        <path class="cls-5" d="m95.33,72c1.08-1.08,2.17-2.16,3.25-3.25,2.59-2.59,5.18-5.17,7.76-7.76,3.14-3.14,6.28-6.28,9.43-9.42,2.71-2.7,5.41-5.41,8.12-8.11,1.32-1.32,2.69-2.59,3.96-3.96.02-.02.04-.04.05-.05,1-1-.55-2.56-1.55-1.55-1.08,1.08-2.17,2.16-3.25,3.25-2.59,2.59-5.18,5.17-7.76,7.76-3.14,3.14-6.28,6.28-9.43,9.42-2.71,2.7-5.41,5.41-8.12,8.11-1.32,1.32-2.69,2.59-3.96,3.96-.02.02-.04.04-.05.05-1,1,.55,2.56,1.56,1.56"/>
        <path class="cls-5" d="m81.1,64.15c1.21-.13,2.18-.04,3.3.42-.13-.05.18.08.22.1.12.06.24.12.36.19.24.13.47.27.69.42.48.32.7.5,1.15.9,1.62,1.43,2.95,3.15,4.69,4.44.97.72,2.05,1.17,3.24,1.32-.37-.37-.73-.73-1.1-1.1v8.76c0,.95,1.2,1.45,1.88.78,1.08-1.08,2.16-2.16,3.23-3.23,2.59-2.59,5.18-5.18,7.76-7.76,3.12-3.12,6.23-6.23,9.35-9.35,2.71-2.71,5.41-5.41,8.12-8.12,1.31-1.31,2.68-2.59,3.94-3.94.02-.02.04-.04.05-.05,1-1-.55-2.56-1.56-1.56-1.08,1.08-2.16,2.16-3.23,3.23-2.59,2.59-5.18,5.18-7.76,7.76-3.12,3.12-6.23,6.23-9.35,9.35-2.71,2.71-5.41,5.41-8.12,8.12-.89.89-1.78,1.78-2.67,2.67-.42.42-.89.82-1.28,1.28-.02.02-.04.04-.05.05.63.26,1.25.52,1.88.78v-8.76c0-.65-.51-1.02-1.1-1.1.22.03-.08-.02-.15-.03-.11-.02-.22-.05-.33-.08-.09-.03-.19-.06-.28-.09-.06-.02-.12-.05-.18-.07.1.04.08.03,0,0-.42-.21-.82-.45-1.2-.73-.02-.02-.16-.13-.02-.02-.04-.03-.08-.07-.12-.1-.09-.08-.19-.16-.28-.24-.19-.17-.38-.34-.56-.51-.38-.36-.75-.74-1.11-1.11-1.53-1.58-3.11-3.24-5.17-4.13-1.35-.58-2.79-.82-4.26-.66-.59.06-1.1.46-1.1,1.1,0,.55.51,1.16,1.1,1.1"/>
        <path class="cls-5" d="m116.76,27.99c.13,0,.26,0,.39,0,.13.01.12,0-.01,0,.06,0,.12.02.18.03.12.03.23.06.35.1.16.05-.11-.08.15.07.11.06.21.12.31.18.05.03.1.07.15.11q-.1-.08,0,0c.17.15.34.3.5.47.41.43.59.7.95,1.26.34.52.66,1.06.98,1.59,1.59,2.7,3.26,5.29,5.82,7.17-.18-.32-.36-.63-.54-.95.02.25.04.5.05.75.04.59.47,1.1,1.1,1.1.56,0,1.14-.5,1.1-1.1-.04-.51,0-1.14-.38-1.52-.51-.51-1.13-.9-1.64-1.42-.92-.93-1.68-1.99-2.38-3.09-1.2-1.9-2.18-4.21-3.89-5.72-.89-.78-1.97-1.26-3.17-1.22-1.41.05-1.42,2.25,0,2.2"/>
        <path class="cls-5" d="m115.71,27.18c-.01,1.21-.03,2.41-.04,3.62.11-.26.21-.52.32-.78-1.04,1.06-2.08,2.12-3.13,3.19-2.49,2.54-4.98,5.07-7.47,7.61-3.02,3.08-6.05,6.16-9.07,9.24-2.6,2.65-5.2,5.3-7.81,7.95-1.27,1.29-2.58,2.54-3.8,3.88-.02.02-.04.04-.06.06-.99,1.01.56,2.57,1.55,1.56,1.22-1.24,2.43-2.48,3.65-3.72,2.82-2.87,5.64-5.75,8.46-8.62,3.27-3.33,6.54-6.66,9.81-10,2.49-2.53,4.98-5.07,7.47-7.61.58-.59,1.16-1.19,1.75-1.78.28-.28.48-.54.51-.98.06-.9.02-1.83.03-2.73v-.87c.03-1.42-2.17-1.42-2.19,0"/>
        <path class="cls-5" d="m116.21,31.74c3.03,2.3,6.06,4.61,9.09,6.91.42.32.85.65,1.27.97-.18-.32-.36-.63-.54-.95v8.92c0,1.41,2.2,1.42,2.2,0v-4.29c0-1.53.09-3.08,0-4.6-.04-.66-.52-.95-.98-1.3-.57-.43-1.13-.86-1.7-1.29-1.64-1.25-3.28-2.5-4.93-3.75-1.1-.84-2.2-1.67-3.3-2.51-.47-.36-1.23-.07-1.5.39-.33.56-.08,1.14.39,1.5"/>
        <path class="cls-5" d="m115.03,51.31c.71,0,.71-1.1,0-1.1s-.71,1.1,0,1.1"/>
        <path class="cls-5" d="m104.76,43.86c.71,0,.71-1.1,0-1.1s-.71,1.1,0,1.1"/>
        <path class="cls-5" d="m112.68,53.66c.71,0,.71-1.1,0-1.1s-.71,1.1,0,1.1"/>
        <path class="cls-5" d="m102.32,46.26c.71,0,.71-1.1,0-1.1s-.71,1.1,0,1.1"/>
        <path class="cls-5" d="m110.4,55.94c.71,0,.71-1.1,0-1.1s-.71,1.1,0,1.1"/>
        <path class="cls-5" d="m99.98,48.82c.71,0,.71-1.1,0-1.1s-.71,1.1,0,1.1"/>
        <path class="cls-5" d="m107.68,58.6c.71,0,.71-1.1,0-1.1s-.71,1.1,0,1.1"/>
        <path class="cls-5" d="m97.95,50.77c.71,0,.71-1.1,0-1.1s-.71,1.1,0,1.1"/>
        <path class="cls-5" d="m97.26,68.4c.71,0,.71-1.1,0-1.1s-.71,1.1,0,1.1"/>
        <path class="cls-5" d="m88.58,60.82c.71,0,.71-1.1,0-1.1s-.71,1.1,0,1.1"/>
        <path class="cls-5" d="m0,62.14v17.46c0,.59.5,1.1,1.1,1.1h89.86c1.21,0,2.43.03,3.64,0,.05,0,.11,0,.16,0,1.42,0,1.42-2.2,0-2.2H4.9c-1.21,0-2.43-.06-3.64,0-.05,0-.11,0-.16,0,.37.37.73.73,1.1,1.1v-17.46c0-1.41-2.2-1.42-2.2,0"/>
        <path class="cls-5" d="m7.83,79.61v12.94c0,1.41,2.2,1.42,2.2,0v-12.94c0-1.41-2.2-1.42-2.2,0"/>
        <path class="cls-5" d="m120.84,52.25v13.2c0,1.41,2.2,1.42,2.2,0v-13.2c0-1.41-2.2-1.42-2.2,0"/>
        <path class="cls-5" d="m84.33,79.61v18.61c0,1.41,2.2,1.42,2.2,0v-18.61c0-1.41-2.2-1.42-2.2,0"/>
        <line class="cls-4" x1="84.51" y1="63.63" x2="85.43" y2="62.71"/>
        <path class="cls-5" d="m125.58,39.53c-1,1-1.99,1.99-2.99,2.99h.78l-7.66-7.66c-.36-.36-.71-.71-1.07-1.07v.78l2.99-2.99h-.78c2.55,2.55,5.1,5.1,7.66,7.66.36.36.71.71,1.07,1.07.5.5,1.28-.28.78-.78-2.55-2.55-5.1-5.1-7.66-7.66-.36-.36-.71-.71-1.07-1.07-.21-.21-.57-.21-.78,0-1,1-1.99,1.99-2.99,2.99-.21.21-.21.57,0,.78l7.66,7.66c.36.36.71.71,1.07,1.07.21.21.57.21.78,0,1-1,1.99-1.99,2.99-2.99.5-.5-.28-1.28-.78-.78"/>
        <path class="cls-5" d="m122.49,42.44c-1,1-1.99,1.99-2.99,2.99h.78c-2.55-2.55-5.1-5.1-7.66-7.66-.36-.36-.71-.71-1.07-1.07v.78c1-1,1.99-1.99,2.99-2.99h-.78c2.55,2.55,5.1,5.1,7.66,7.66.36.36.71.71,1.07,1.07.5.5,1.28-.28.78-.78-2.55-2.55-5.1-5.1-7.66-7.66-.36-.36-.71-.71-1.07-1.07-.21-.21-.57-.21-.78,0-1,1-1.99,1.99-2.99,2.99-.21.21-.21.57,0,.78l7.66,7.66c.36.36.71.71,1.07,1.07.21.21.57.21.78,0,1-1,1.99-1.99,2.99-2.99.5-.5-.28-1.28-.78-.78"/>
        <rect class="cls-5" x="114.86" y="33.54" width="2.62" height="5.6" transform="translate(8.33 92.79) rotate(-45)"/>
        <rect class="cls-5" x="109.09" y="39.24" width="2.62" height="5.6" transform="translate(2.61 90.38) rotate(-45)"/>
        <rect class="cls-5" x="106.19" y="42.15" width="2.62" height="5.6" transform="translate(-.3 89.18) rotate(-45)"/>
        <rect class="cls-5" x="103.2" y="45.21" width="2.62" height="5.6" transform="translate(-3.33 87.96) rotate(-45)"/>
        <rect class="cls-5" x="111.99" y="36.34" width="2.62" height="5.6" transform="translate(5.51 91.58) rotate(-45)"/>
        <path class="cls-5" d="m119.6,45.33c-1,1-1.99,1.99-2.99,2.99h.78c-2.55-2.55-5.1-5.1-7.66-7.66-.36-.36-.71-.71-1.07-1.07v.78c1-1,1.99-1.99,2.99-2.99h-.78c2.55,2.55,5.1,5.1,7.66,7.66.36.36.71.71,1.07,1.07.5.5,1.28-.28.78-.78-2.55-2.55-5.1-5.1-7.66-7.66-.36-.36-.71-.71-1.07-1.07-.21-.21-.57-.21-.78,0-1,1-1.99,1.99-2.99,2.99-.21.21-.21.57,0,.78l7.66,7.66c.36.36.71.71,1.07,1.07.21.21.57.21.78,0,1-1,1.99-1.99,2.99-2.99.5-.5-.28-1.28-.78-.78"/>
        <path class="cls-5" d="m113.69,51.42c-1,1-1.99,1.99-2.99,2.99h.78c-2.55-2.55-5.1-5.1-7.66-7.66-.36-.36-.71-.71-1.07-1.07v.78c1-1,1.99-1.99,2.99-2.99h-.78c2.55,2.55,5.1,5.1,7.66,7.66.36.36.71.71,1.07,1.07.5.5,1.28-.28.78-.78-2.55-2.55-5.1-5.1-7.66-7.66-.36-.36-.71-.71-1.07-1.07-.21-.21-.57-.21-.78,0-1,1-1.99,1.99-2.99,2.99-.21.21-.21.57,0,.78,2.55,2.55,5.1,5.1,7.66,7.66.36.36.71.71,1.07,1.07.21.21.57.21.78,0,1-1,1.99-1.99,2.99-2.99.5-.5-.28-1.28-.78-.78"/>
        <path class="cls-5" d="m107.66,57.26c-1,1-1.99,1.99-2.99,2.99h.78c-2.55-2.55-5.1-5.1-7.66-7.66-.36-.36-.71-.71-1.07-1.07v.78c1-1,1.99-1.99,2.99-2.99h-.78c2.55,2.55,5.1,5.1,7.66,7.66.36.36.71.71,1.07,1.07.5.5,1.28-.28.78-.78-2.55-2.55-5.1-5.1-7.66-7.66-.36-.36-.71-.71-1.07-1.07-.21-.21-.57-.21-.78,0-1,1-1.99,1.99-2.99,2.99-.21.21-.21.57,0,.78,2.55,2.55,5.1,5.1,7.66,7.66.36.36.71.71,1.07,1.07.21.21.57.21.78,0,1-1,1.99-1.99,2.99-2.99.5-.5-.28-1.28-.78-.78"/>
        <path class="cls-5" d="m104.37,59.85c-1,1-1.99,1.99-2.99,2.99h.78c-2.55-2.55-5.1-5.1-7.66-7.66-.36-.36-.71-.71-1.07-1.07v.78c1-1,1.99-1.99,2.99-2.99h-.78c2.55,2.55,5.1,5.1,7.66,7.66.36.36.71.71,1.07,1.07.5.5,1.28-.28.78-.78-2.55-2.55-5.1-5.1-7.66-7.66-.36-.36-.71-.71-1.07-1.07-.21-.21-.57-.21-.78,0-1,1-1.99,1.99-2.99,2.99-.21.21-.21.57,0,.78,2.55,2.55,5.1,5.1,7.66,7.66.36.36.71.71,1.07,1.07.21.21.57.21.78,0,1-1,1.99-1.99,2.99-2.99.5-.5-.28-1.28-.78-.78"/>
        <path class="cls-5" d="m98.81,66.11c-1,1-1.99,1.99-2.99,2.99h.78l-7.66-7.66c-.36-.36-.71-.71-1.07-1.07v.78c1-1,1.99-1.99,2.99-2.99h-.78c2.55,2.55,5.1,5.1,7.66,7.66.36.36.71.71,1.07,1.07.5.5,1.28-.28.78-.78-2.55-2.55-5.1-5.1-7.66-7.66-.36-.36-.71-.71-1.07-1.07-.21-.21-.57-.21-.78,0-1,1-1.99,1.99-2.99,2.99-.21.21-.21.57,0,.78,2.55,2.55,5.1,5.1,7.66,7.66.36.36.71.71,1.07,1.07.21.21.57.21.78,0,1-1,1.99-1.99,2.99-2.99.5-.5-.28-1.28-.78-.78"/>
        <rect class="cls-5" x="97.12" y="51.29" width="2.62" height="5.6" transform="translate(-9.42 85.44) rotate(-45)"/>
        <rect class="cls-5" x="91.21" y="57.19" width="2.62" height="5.6" transform="translate(-15.32 83) rotate(-45)"/>
        <rect class="cls-5" x="88.29" y="60.04" width="2.62" height="5.6" transform="translate(-18.19 81.76) rotate(-45)"/>
        <rect class="cls-5" x="94.1" y="54.23" width="2.62" height="5.6" transform="translate(-12.38 84.17) rotate(-45)"/>
        <rect class="cls-5" x="100.37" y="48.04" width="2.62" height="5.6" transform="translate(-6.17 86.79) rotate(-45)"/>
      </g>
    </g>
  </g>
</svg>