<?xml version="1.0" encoding="UTF-8"?>
<svg id="Livello_2" data-name="Livello 2" xmlns="http://www.w3.org/2000/svg" xmlns:xlink="http://www.w3.org/1999/xlink" viewBox="0 0 115.23 120.67">
  <defs>
    <style>
      .cls-1, .cls-2, .cls-3 {
        fill: none;
      }

      .cls-2 {
        clip-path: url(#clippath);
      }

      .cls-3 {
        clip-path: url(#clippath-1);
      }

      .cls-4 {
        fill: #1d1d1c;
      }
    </style>
    <clipPath id="clippath">
      <rect class="cls-1" width="115.23" height="120.67"/>
    </clipPath>
    <clipPath id="clippath-1">
      <rect class="cls-1" width="115.23" height="120.67"/>
    </clipPath>
  </defs>
  <g id="Poltrona">
    <g class="cls-2">
      <g class="cls-3">
        <path class="cls-4" d="m87.81,114.48H27.13c1.03,1.03,2.06,2.06,3.1,3.1V22.58c0-.73,0-1.45,0-2.18,0-.14,0-.27,0-.41,0-.28.02-.57.04-.85.03-.42.29-.91-.01,0,.17-.51.2-1.08.36-1.6.08-.26.17-.51.26-.77.24-.72-.34.68,0,0,.24-.48.48-.96.77-1.42.14-.23.3-.45.45-.68.42-.63-.48.56.02-.03.36-.43.73-.85,1.13-1.24.38-.37.77-.73,1.18-1.06.1-.09.26-.17.34-.28-.46.57-.44.33-.15.12.25-.18.49-.35.74-.52,1-.68,2.06-1.27,3.15-1.79.25-.12.49-.24.74-.35.15-.07.3-.13.46-.2.57-.26-.71.28-.12.05.64-.24,1.27-.5,1.92-.72,1.29-.44,2.6-.81,3.93-1.13,1.38-.33,2.78-.59,4.18-.8.26-.04,1.3-.26.3-.05.37-.08.76-.09,1.13-.13.73-.08,1.46-.14,2.19-.2,2.92-.21,5.85-.2,8.77.02.7.05,1.4.12,2.09.2.29.03,1.51.03.49.05.36,0,.77.11,1.12.16,1.4.22,2.79.5,4.16.83,1.32.32,2.62.71,3.9,1.16.49.17,1.35.34,1.75.67-.52-.42-.47-.2-.12-.05.13.06.25.11.38.17.32.15.64.3.96.46,1.08.53,2.12,1.14,3.11,1.82.21.14.41.3.61.44.48.34-.6-.5-.16-.12.11.09.23.18.34.28.44.37.87.76,1.27,1.17.36.37.69.76,1.02,1.15.3.35-.25-.3-.23-.3.05,0,.21.29.24.33.18.26.35.52.52.8.26.43.45.87.68,1.31.2.37-.27-.33-.15-.37,0,0,.14.35.14.38.09.28.19.55.27.83.07.24.13.48.18.73.03.16.17,1.06.09.4-.08-.66.02.26.03.42.02.28.03.57.03.86,0,.1,0,.2,0,.3,0,2.19,0,4.37,0,6.56v90.58c0,1.62,1.42,3.17,3.1,3.1,1.68-.08,3.1-1.36,3.1-3.1V22.05c0-2.44-.04-4.86-.96-7.17C85.67,4.16,72.12.91,61.8.16c-6.07-.44-12.28,0-18.2,1.44-5.25,1.27-10.58,3.45-14.54,7.22-3.17,3.02-5.01,7.05-5.03,11.43-.01,1.96,0,3.91,0,5.87v91.45c0,1.67,1.42,3.1,3.1,3.1h60.68c1.62,0,3.17-1.42,3.1-3.1-.08-1.68-1.36-3.1-3.1-3.1"/>
        <path class="cls-4" d="m11.72,77.57v40.01c0,1.67,1.42,3.1,3.1,3.1h13.14c1.62,0,3.17-1.42,3.1-3.1-.08-1.68-1.36-3.1-3.1-3.1h-13.14c1.03,1.03,2.06,2.06,3.1,3.1v-40.01c0-1.62-1.42-3.17-3.1-3.1-1.68.08-3.1,1.36-3.1,3.1"/>
        <path class="cls-4" d="m27.13,84.89h60.24c1.62,0,3.17-1.42,3.1-3.1-.08-1.68-1.36-3.1-3.1-3.1H27.13c-1.62,0-3.17,1.42-3.1,3.1.08,1.68,1.36,3.1,3.1,3.1"/>
        <path class="cls-4" d="m14.55,72.58c-.23,0-.45-.02-.68-.02-.17,0-.77-.1-.11,0-.35-.06-.69-.13-1.04-.22-.42-.11-.84-.25-1.24-.41.63.25-.48-.26-.67-.37-.34-.2-.67-.41-.99-.64-.41-.29.51.48-.1-.09-.13-.12-.27-.23-.39-.35-.26-.24-.51-.5-.75-.76.01.02-.55-.65-.27-.3.22.27-.26-.37-.32-.45-.23-.34-.44-.69-.64-1.05-.09-.16-.17-.33-.25-.49.01.03-.35-.8-.19-.39.17.41-.16-.45-.15-.42-.06-.18-.12-.36-.17-.54-.14-.46-.25-.93-.34-1.4,0,.03-.12-.9-.08-.46.05.45-.03-.52-.03-.47-.03-.4-.03-.8-.02-1.21,0-.25.02-.5.04-.75.01-.15.08-.8,0-.21.06-.48.16-.95.28-1.42.1-.41.23-.82.37-1.23.05-.14.28-.71.05-.17.07-.17.15-.34.23-.5.18-.37.38-.73.6-1.08.12-.19.24-.38.37-.57.08-.12.58-.72.17-.24.49-.58,1.02-1.11,1.59-1.6.38-.33-.59.38.1-.08.15-.1.29-.2.43-.29.37-.24.76-.43,1.14-.64.72-.4-.37.12.1-.05.2-.08.41-.15.62-.22.33-.1.67-.19,1.02-.26,0,0,.85-.13.37-.07-.49.05.39-.02.39-.02.45-.02.9,0,1.36.02.59.02.12,0-.01-.02.22.03.45.08.67.12.4.09.79.19,1.18.32.17.06.34.12.51.18.81.29-.33-.17.14.06.45.22.9.46,1.32.73.16.1.31.2.46.3.06.04.73.59.26.18.35.3.7.61,1.03.94.33.33.64.68.93,1.05-.35-.44.02.05.1.17.16.23.31.47.46.72.97,1.64,1.37,3.11,1.39,4.95.02,1.62,1.41,3.17,3.1,3.1,1.66-.07,3.12-1.36,3.1-3.1-.06-5.12-2.52-9.77-6.57-12.86-3.59-2.74-8.48-3.85-12.85-2.47-9.65,3.04-13.2,15.01-8.56,23.53,2.5,4.6,7.27,7.66,12.53,7.72,1.62.02,3.17-1.44,3.1-3.1-.08-1.69-1.36-3.07-3.1-3.1"/>
        <path class="cls-4" d="m97.26,77.57v40.01c1.03-1.03,2.06-2.06,3.1-3.1h-13.14c-1.62,0-3.17,1.42-3.1,3.1.08,1.68,1.36,3.1,3.1,3.1h13.14c1.67,0,3.1-1.42,3.1-3.1v-40.01c0-1.62-1.42-3.17-3.1-3.1-1.68.08-3.1,1.36-3.1,3.1"/>
        <path class="cls-4" d="m100.62,78.77c4.85-.06,9.1-2.61,11.82-6.56,2.7-3.92,3.42-9.12,2.25-13.69-1.11-4.36-4.12-8.39-8.26-10.27-4.39-2-9.46-1.63-13.56.95-4.69,2.95-7.63,8.1-7.69,13.65-.02,1.62,1.44,3.17,3.1,3.1,1.69-.08,3.07-1.36,3.1-3.1,0-.5.02-1,.09-1.5-.08.58.1-.43.15-.62.11-.47.27-.92.42-1.38.03-.1.23-.55,0-.06.11-.26.24-.52.37-.77.2-.38.41-.74.65-1.1.13-.2.26-.39.4-.58-.08.1-.35.41.04-.04.25-.28.49-.56.75-.83.16-.17.33-.33.5-.48.07-.06.68-.59.43-.39-.34.27.38-.27.35-.25.15-.1.31-.21.46-.3.35-.22.72-.41,1.08-.61.13-.07.69-.32.13-.08.17-.07.34-.13.51-.19.43-.15.86-.28,1.3-.38.22-.05.45-.07.67-.13.48-.12-.71.01.12,0,.36,0,.72-.04,1.09-.03.22,0,.46.06.67.04.46-.04-.67-.16.1.01.43.1.86.18,1.28.32.17.05.33.12.5.17.79.26-.35-.18.1.04.35.17.7.35,1.04.56.15.09.3.18.44.28,0,0,.68.5.32.22-.36-.28.31.27.3.26.2.18.39.36.58.55.25.26.48.52.71.8-.39-.46.29.42.39.58.22.35.43.7.62,1.07.09.16.16.33.24.5.31.63-.08-.33.12.29.27.83.5,1.64.66,2.49.17.91-.02-.36.02.2.02.25.04.5.05.74.02.5.02,1.01-.02,1.51-.01.2-.03.4-.05.59.05-.58,0,.05-.03.19-.08.43-.17.85-.29,1.27-.11.41-.25.81-.4,1.21-.18.5.32-.63-.07.16-.12.25-.24.5-.37.74-.22.4-.46.79-.71,1.16-.1.15-.21.3-.32.44.39-.51-.11.1-.2.2-.3.33-.61.64-.94.94,0,0-.65.54-.3.26.29-.23-.36.25-.43.29-.4.27-.83.48-1.25.71-.11.06-.54.23.02,0-.24.1-.49.18-.74.26-.42.13-.85.22-1.28.32-.77.17.36.05-.1.01-.3-.03-.64.04-.95.04-1.62.02-3.17,1.41-3.1,3.1.07,1.66,1.36,3.12,3.1,3.1"/>
      </g>
    </g>
  </g>
</svg>