<?xml version="1.0" encoding="UTF-8"?>
<svg id="Livello_2" data-name="Livello 2" xmlns="http://www.w3.org/2000/svg" xmlns:xlink="http://www.w3.org/1999/xlink" viewBox="0 0 50.47 146.23">
  <defs>
    <style>
      .cls-1 {
        fill: #fff;
      }

      .cls-2, .cls-3, .cls-4 {
        fill: none;
      }

      .cls-3 {
        clip-path: url(#clippath);
      }

      .cls-4 {
        clip-path: url(#clippath-1);
      }

      .cls-5 {
        fill: #1d1d1c;
      }
    </style>
    <clipPath id="clippath">
      <rect class="cls-2" x="0" y="0" width="50.47" height="146.23"/>
    </clipPath>
    <clipPath id="clippath-1">
      <rect class="cls-2" x="0" y="0" width="50.47" height="146.23"/>
    </clipPath>
  </defs>
  <g id="portaombrelli">
    <g class="cls-3">
      <g class="cls-4">
        <path class="cls-5" d="m8.7,16c.05-3.98,3.27-7.31,7.3-7.3,4.03,0,7.25,3.31,7.3,7.3.03,2.38,3.74,2.39,3.71,0-.06-4.62-2.91-8.69-7.23-10.33-4.19-1.59-9.25-.28-12.12,3.17-1.7,2.04-2.63,4.51-2.66,7.17-.03,2.39,3.67,2.39,3.71,0"/>
        <path class="cls-5" d="m3.71,16c.05-5.02,3.17-9.8,7.97-11.52,4.97-1.78,10.44-.32,13.84,3.71,1.83,2.17,2.76,4.99,2.78,7.81.02,2.38,3.73,2.39,3.71,0-.06-6.73-4.27-12.71-10.57-15.05C15.26-1.35,7.88.65,3.72,5.76,1.34,8.68.03,12.23,0,16c-.02,2.39,3.69,2.39,3.71,0"/>
        <path class="cls-5" d="m0,15.4c.01.83.24,1.71.73,2.39.58.81,1.29,1.36,2.22,1.7,1.55.58,3.52.06,4.59-1.2.7-.83,1.1-1.8,1.12-2.89.01-.97-.86-1.9-1.85-1.85-1.02.05-1.84.81-1.85,1.85,0,.11,0,.23-.02.34.02-.16.04-.33.07-.49-.03.22-.09.43-.18.64.06-.15.12-.3.19-.44-.09.2-.2.38-.33.55.1-.12.19-.25.29-.38-.12.15-.26.29-.41.41.12-.1.25-.19.38-.29-.17.13-.36.24-.55.33.15-.06.3-.12.44-.19-.21.09-.42.14-.64.18.16-.02.33-.04.49-.07-.23.03-.45.03-.68,0,.16.02.33.04.49.07-.22-.03-.43-.09-.64-.18.15.06.3.12.44.19-.2-.09-.38-.2-.55-.33.13.1.25.19.38.29-.15-.12-.29-.26-.41-.41.1.13.19.25.29.38-.13-.17-.24-.36-.33-.55.06.15.12.3.19.44-.09-.21-.14-.42-.18-.64.02.16.04.33.07.49-.01-.11-.02-.23-.02-.34-.01-.97-.84-1.9-1.85-1.85C.86,13.59-.01,14.36,0,15.4"/>
        <path class="cls-5" d="m28.3,16v17.29c.62-.62,1.24-1.24,1.85-1.85h-5c.62.62,1.24,1.24,1.85,1.85V16c0-2.39-3.71-2.39-3.71,0v17.29c0,1,.85,1.85,1.85,1.85h5c1,0,1.85-.85,1.85-1.85V16c0-2.39-3.71-2.39-3.71,0"/>
        <path class="cls-5" d="m45.25,50.39c1.39-4.62,2.79-9.25,4.18-13.87.19-.63-.02-1.34-.48-1.8-.95-.95-1.9-1.9-2.84-2.84-.71-.71-1.91-.71-2.62,0l-2.8,2.8h2.62c-.87-.87-1.74-1.74-2.61-2.61-.7-.7-1.92-.72-2.62,0l-2.27,2.33h2.62c-.81-.81-1.62-1.62-2.42-2.42-.71-.71-1.91-.71-2.62,0-.83.83-1.66,1.66-2.49,2.49h2.62c-.77-.77-1.52-1.59-2.33-2.33-.97-.89-2.51-.62-3.74-.62s-2.76-.27-3.72.6c-.82.74-1.57,1.57-2.35,2.35h2.62c-.83-.83-1.66-1.66-2.49-2.49-.71-.71-1.91-.71-2.62,0-.81.81-1.62,1.62-2.42,2.42h2.62c-.76-.78-1.51-1.55-2.27-2.33-.7-.72-1.92-.7-2.62,0-.87.87-1.74,1.74-2.61,2.61h2.62c-.97-.97-1.94-1.94-2.91-2.91-.71-.71-1.91-.71-2.62,0-.96.96-1.91,1.91-2.87,2.87-.46.46-.67,1.18-.48,1.8,1.44,4.65,2.88,9.3,4.32,13.95.24.78.95,1.36,1.79,1.36h32.03c2.39,0,2.39-3.71,0-3.71H11.43c.6.45,1.19.91,1.79,1.36-1.44-4.65-2.88-9.3-4.32-13.95-.16.6-.32,1.2-.48,1.8.96-.96,1.91-1.91,2.87-2.87h-2.62c.97.97,1.94,1.94,2.91,2.91.71.71,1.91.71,2.62,0,.87-.87,1.74-1.74,2.61-2.61h-2.62c.76.78,1.51,1.55,2.27,2.33.7.72,1.92.7,2.62,0,.81-.81,1.62-1.62,2.42-2.42h-2.62c.83.83,1.66,1.66,2.49,2.49.71.71,1.91.71,2.62,0,.8-.8,1.6-1.61,2.41-2.41l-1.31.54h4.7l-1.31-.54c.8.8,1.6,1.61,2.41,2.41.71.71,1.91.71,2.62,0,.83-.83,1.66-1.66,2.49-2.49h-2.62c.81.81,1.62,1.62,2.42,2.42.7.7,1.92.72,2.62,0l2.27-2.33h-2.62c.87.87,1.74,1.74,2.61,2.61.71.71,1.91.71,2.62,0l2.81-2.81h-2.62c.95.95,1.9,1.9,2.84,2.84l-.48-1.8c-1.39,4.62-2.79,9.25-4.18,13.87-.69,2.29,2.89,3.27,3.57.99"/>
        <polyline class="cls-1" points="47.68 50.73 4.2 50.73 14.32 143.45 37.56 143.45 47.68 50.73 4.2 50.73"/>
        <path class="cls-5" d="m47.68,47.95H4.2c-1.38,0-2.94,1.28-2.78,2.78.34,3.08.67,6.16,1.01,9.23.81,7.39,1.61,14.78,2.42,22.17.97,8.91,1.94,17.81,2.91,26.72.84,7.73,1.69,15.45,2.53,23.18.41,3.75.8,7.51,1.23,11.26,0,.05.01.1.02.16.16,1.49,1.14,2.78,2.78,2.78h23.25c1.62,0,2.62-1.28,2.78-2.78l1.01-9.23c.81-7.39,1.61-14.78,2.42-22.17l2.91-26.72c.84-7.73,1.69-15.45,2.53-23.18.28-2.54.55-5.08.83-7.62.13-1.21.33-2.43.4-3.64,0-.05.01-.1.02-.16.16-1.5-1.41-2.78-2.78-2.78H4.2c-1.45,0-2.85,1.28-2.78,2.78.07,1.51,1.22,2.78,2.78,2.78h43.47l-2.78-2.78c-.34,3.08-.67,6.16-1.01,9.23-.81,7.39-1.61,14.78-2.42,22.17-.97,8.91-1.94,17.81-2.91,26.72-.84,7.73-1.69,15.45-2.53,23.18-.41,3.74-1.01,7.5-1.23,11.26,0,.05-.01.1-.02.16l2.78-2.78H14.32l2.78,2.78-1.01-9.23c-.81-7.39-1.61-14.78-2.42-22.17-.97-8.91-1.94-17.81-2.91-26.72-.84-7.73-1.69-15.45-2.53-23.18-.28-2.54-.55-5.08-.83-7.62-.13-1.2-.19-2.44-.4-3.64,0-.05-.01-.1-.02-.16-.93.93-1.85,1.85-2.78,2.78h43.47c1.45,0,2.85-1.28,2.78-2.78-.07-1.51-1.22-2.78-2.78-2.78"/>
        <path class="cls-5" d="m6.56,75.14h38.76c1.45,0,2.85-1.28,2.78-2.78-.07-1.51-1.22-2.78-2.78-2.78H6.56c-1.45,0-2.85,1.28-2.78,2.78.07,1.51,1.22,2.78,2.78,2.78"/>
        <path class="cls-5" d="m11,115.85h29.87c1.45,0,2.85-1.28,2.78-2.78-.07-1.51-1.22-2.78-2.78-2.78H11c-1.45,0-2.85,1.28-2.78,2.78.07,1.51,1.22,2.78,2.78,2.78"/>
      </g>
    </g>
  </g>
</svg>