<?xml version="1.0" encoding="UTF-8"?>
<svg id="Livello_2" data-name="Livello 2" xmlns="http://www.w3.org/2000/svg" xmlns:xlink="http://www.w3.org/1999/xlink" viewBox="0 0 125.39 125.39">
  <defs>
    <style>
      .cls-1, .cls-2, .cls-3 {
        fill: none;
      }

      .cls-2 {
        clip-path: url(#clippath);
      }

      .cls-3 {
        clip-path: url(#clippath-1);
      }

      .cls-4 {
        fill: #1d1d1c;
      }

      .cls-5 {
        fill: #010101;
      }
    </style>
    <clipPath id="clippath">
      <rect class="cls-1" width="125.39" height="125.39"/>
    </clipPath>
    <clipPath id="clippath-1">
      <rect class="cls-1" width="125.39" height="125.39"/>
    </clipPath>
  </defs>
  <g id="quadro">
    <g class="cls-2">
      <g class="cls-3">
        <path class="cls-5" d="m2.7,5.35h115.1c1.56,0,3.13.07,4.69,0,.07,0,.13,0,.2,0l-2.65-2.65v115.1c0,1.56-.07,3.13,0,4.69,0,.07,0,.13,0,.2l2.65-2.65H7.59c-1.56,0-3.14-.07-4.69,0-.06,0-.13,0-.2,0l2.65,2.65V17.4c0-4.83.12-9.67,0-14.5,0-.07,0-.13,0-.2C5.35,1.32,4.13-.01,2.7.05,1.27.12.05,1.22.05,2.7v105.29c0,4.83-.12,9.67,0,14.5,0,.07,0,.13,0,.2,0,1.43,1.21,2.65,2.65,2.65h105.29c4.83,0,9.67.12,14.5,0,.07,0,.13,0,.2,0,1.43,0,2.65-1.21,2.65-2.65V17.4c0-4.83.12-9.67,0-14.5,0-.07,0-.13,0-.2,0-1.43-1.21-2.65-2.65-2.65H17.4C12.57.05,7.72-.07,2.9.05c-.07,0-.13,0-.2,0C1.32.05-.01,1.27.05,2.7c.06,1.43,1.16,2.65,2.65,2.65"/>
        <path class="cls-5" d="m23.06,25.71h69.47c3.2,0,6.46.18,9.65,0,.04,0,.09,0,.13,0l-2.65-2.65v69.47c0,3.2-.18,6.46,0,9.65,0,.04,0,.09,0,.13l2.65-2.65H32.85c-3.2,0-6.46-.18-9.65,0-.04,0-.09,0-.13,0l2.65,2.65V32.85c0-3.21.1-6.44,0-9.65,0-.04,0-.09,0-.13,0-1.39-1.22-2.71-2.65-2.65-1.43.06-2.65,1.16-2.65,2.65v69.47c0,3.21-.1,6.44,0,9.65,0,.04,0,.09,0,.13,0,1.43,1.21,2.65,2.65,2.65h69.47c3.21,0,6.44.1,9.65,0,.04,0,.09,0,.13,0,1.43,0,2.65-1.21,2.65-2.65V32.85c0-3.21.1-6.44,0-9.65,0-.04,0-.09,0-.13,0-1.43-1.21-2.65-2.65-2.65H32.85c-3.21,0-6.44-.1-9.65,0-.04,0-.09,0-.13,0-1.39,0-2.71,1.22-2.65,2.65.06,1.43,1.16,2.65,2.65,2.65"/>
        <path class="cls-4" d="m92.68,58.45c-6.06-4.75-10.04-11.69-16.55-15.95-1.09-.71-2.21-1.41-3.55-1.35-1.02.04-1.95.4-2.85.86-1.97.98-3.7,2.51-5.36,3.93-5.09,4.35-9.82,9.11-14.76,13.61-3.02,2.75-6.1,5.45-9.28,8.02-1.63,1.32-2.82,2.24-4.51,3.49-1.7,1.25-3.41,2.36-4.84,3.93-1.96,2.16-3.93,4.89-3.94,7.94,0,2.42,1.44,4.61,3.61,5.66,4.93,2.39,11.17.86,15.75-1.63,1.4-.76,2.7-1.69,3.92-2.72,1.5-1.28,2.37-2.67,3.81-4.17.61-.64,1.24-1.25,1.91-1.82.32-.28.64-.55.98-.81-.36.28.06-.05.15-.11.23-.17.46-.33.7-.49.65-.45,1.33-.86,2.03-1.23.34-.18.69-.36,1.04-.52.07-.03.77-.34.21-.1.21-.09.42-.17.63-.25.74-.28,1.49-.51,2.26-.7.4-.1.8-.18,1.2-.26.15-.03.29-.05.44-.08.53-.1-.41.03.3-.04,1.64-.16,3.28-.17,4.92.01.16.02.31.04.47.06-.63-.08.16.03.24.04.4.06.79.14,1.19.22.89.19,1.78.41,2.66.67.83.25,1.65.53,2.46.83.25.09.5.19.75.29-.07-.03.74.31.43.18.17.07.93.42,1.32.6,3.02,1.42,6.82,4.54,10.26,2.39,3.19-1.99,2.06-6.48,1.04-9.37-.28-.8-.64-1.52-1.05-2.26-.33-.6.09.51-.02-.09-.09-.46.02.73.03.28,0-.41-.17.73-.05.33-.14.45-.11.45-.44.77,0,0-.61.41-.28.22.39-.22-.65.11-.16.06.07,0,.23-.05.3-.08.52-.2-.61.01.03,0,.19,0,.37-.02.56-.03.5-.01.99.03,1.49.04,1.95.02,4.53-.92,5.63-2.63,1.07-1.67.49-3.59-.75-4.96-1.29-1.42-3.16-2.36-4.85-3.2-1.28-.63-2.87-.34-3.62.95-.68,1.17-.34,2.99.95,3.62.91.45,1.81.92,2.67,1.47.14.09.27.19.41.28.63.39-.33-.33.17.12.18.16.57.39.64.63-.17-.54-.22-.31-.1-.06-.29-.58-.2-.5-.15-.3-.13-.5-.07-.97.19-1.42-.12.2-.17.15.22-.25-.32.33.48-.22.17-.1-.11.04-.26.14-.36.21-.35.23,0,0,.1-.03-.25.09-.51.18-.77.25-.65.19-1.24.04-2.14.08-.8.03-1.62.11-2.37.37-1.66.59-2.8,1.95-2.77,3.75.01.77.27,1.44.59,2.13.1.22.21.44.34.64.01.02.3.45.13.17-.07-.2-.05-.14.07.17.06.18.13.36.19.53.25.74.48,1.5.65,2.26.05.25.13,1.07.09.4.02.34.02.68.03,1.02.02.46-.02-.26.05-.27,0,0-.09.36-.09.38-.02.14-.29.59.13-.3-.09.19-.27.24.02.01.03-.02.7-.5.24-.27.72-.35.43-.17.19-.11-.42.11.65.06.17-.04-.06-.01-.22-.01-.3,0-.54.05.61.15.04,0-.12-.03-.24-.05-.37-.08-.09-.02-.62-.26-.22-.05-.87-.45-1.71-.96-2.58-1.41-6.35-3.27-13.4-5.37-20.58-4.19-3.19.53-6.29,1.83-8.96,3.65-1.51,1.03-2.94,2.2-4.24,3.49-.62.61-1.21,1.25-1.78,1.91-.28.33-.55.66-.82.99-.25.31-.5.73-.78,1,.28-.27-.14.06-.22.14-.25.24-.51.47-.78.7-.11.09-.21.18-.32.27-.51.44.31-.2-.04.03-.6.4-1.17.83-1.79,1.2-.57.34-1.17.66-1.77.94-.12.06-.24.11-.36.16-.58.28.38-.13,0,0-.33.12-.66.26-.99.38-1.17.41-2.35.67-3.56.89-.58.11.49-.03.1-.02-.14,0-.28.03-.42.04-.28.02-.55.04-.83.05-.53.02-1.05,0-1.58-.03-.08,0-.39,0-.45-.05,0,0,.72.12.27.03-.23-.05-.46-.08-.69-.14-.22-.05-.43-.11-.64-.18-.08-.03-.16-.06-.24-.09-.46-.13.56.28.17.08-.18-.09-.36-.18-.53-.28-.08-.05-.16-.11-.24-.16-.4-.22.3.03.22.18,0,0-.38-.35-.4-.37-.44-.38.3.58,0-.01-.04-.07-.08-.17-.13-.23-.2-.25.15.28.14.34.01-.08-.11-.43-.15-.52-.17-.38,0,.61.03.32,0-.09-.02-.19-.02-.29,0-.16.06-.91,0-.38-.06.53.05-.16.09-.31.04-.14.11-.6.23-.7-.29.24-.21.43,0,.04.05-.1.1-.2.15-.3.17-.33.36-.64.56-.95.17-.26.35-.5.53-.75.25-.34-.41.48.06-.07.1-.12.2-.24.3-.35.26-.31.54-.62.82-.91.15-.16.3-.32.46-.47.06-.06.62-.62.39-.42.64-.55,1.43-1,2.11-1.49.86-.62,1.71-1.26,2.55-1.9,3.16-2.42,6.23-4.96,9.22-7.59,5.16-4.54,10.08-9.33,15.15-13.98.98-.89,1.96-1.78,2.96-2.64.42-.36.84-.72,1.27-1.07.21-.17.42-.34.63-.51.06-.04.47-.36.1-.08-.38.29.14-.1.21-.15.67-.5,1.36-.98,2.1-1.37.13-.07.27-.13.41-.2.44-.24-.69.21-.17.07.13-.03.27-.08.39-.12.6-.21-.63.05-.21.02.27-.02.73.12-.33-.07.28.05.12.14.04,0-.06-.02-.12-.04-.18-.06.14.08.29.16.43.24.14.08.29.17.43.26.43.26.85.55,1.25.84.14.1.27.2.41.3-.41-.31.26.21.27.22.3.25.6.5.89.76.7.62,1.37,1.26,2.03,1.92,2.55,2.56,4.83,5.35,7.34,7.95,1.16,1.2,2.38,2.36,3.7,3.39,1.12.88,2.65,1.1,3.74,0,.92-.92,1.13-2.86,0-3.74"/>
        <path class="cls-4" d="m36.14,43.79c0-.24.02-.48.03-.71.03-.52.01-.1,0,0,.07-.38.15-.75.27-1.12.07-.22.14-.43.23-.64-.04.11-.23.43,0,.01.22-.39.44-.78.69-1.15.39-.59-.22.24.07-.08.12-.14.25-.28.37-.41.1-.11.21-.21.32-.31.06-.06.63-.52.15-.16.3-.23.61-.43.94-.61.13-.07.27-.14.4-.21.28-.13.27-.13-.01,0,.11-.04.21-.08.32-.12.37-.12.73-.23,1.1-.31.14-.03.65-.09.1-.03.2-.02.39-.04.59-.04.4-.02.79.02,1.19.03.44.02-.6-.14.11.02.23.05.45.1.67.16.22.06.43.14.65.21.12.04.43.22,0,0,.33.18.67.34.99.54.16.1.31.21.46.31.34.25-.42-.42.07.07.32.32.64.62.93.96-.32-.37-.07-.1,0,0,.12.19.25.37.37.56.08.13.15.26.22.39.04.08.34.75.11.19.14.35.26.72.35,1.09.04.15.07.3.1.45.05.31.06.31.01-.01.01.12.02.24.03.35.02.36.03.72,0,1.07,0,.1-.12.85,0,.23-.03.15-.06.3-.09.45-.08.37-.2.73-.32,1.1-.22.68.26-.42-.09.2-.11.19-.21.4-.32.59-.1.16-.2.31-.3.47-.08.12-.4.48-.06.09-.25.28-.49.55-.77.81,0,0-.55.47-.24.23.3-.24-.28.19-.27.19-.37.25-.77.46-1.17.66.09-.05.48-.17,0,0-.22.07-.43.15-.65.21-.15.04-.3.08-.45.11,0,0-.74.13-.34.07.41-.06-.36.02-.35.02-.2.01-.4.01-.6.01-.2,0-.4-.02-.59-.03-.62-.02.33.1-.22-.03-.45-.11-.88-.23-1.32-.37-.63-.21.21.19-.1-.04-.2-.15-.48-.24-.69-.37-.13-.08-.25-.16-.38-.24-.12-.08-.25-.17-.37-.26.24.19.25.18.02,0-.26-.26-.53-.52-.79-.79-.49-.5.25.42-.14-.16-.12-.19-.25-.37-.37-.56-.12-.19-.21-.4-.32-.59-.27-.48.1.37-.09-.2-.14-.44-.26-.87-.37-1.32-.03-.11-.06-.51,0,.01-.03-.32-.05-.63-.05-.95-.02-1.38-1.2-2.71-2.65-2.65-1.42.06-2.67,1.16-2.65,2.65.06,4.76,3.01,8.88,7.44,10.55,4.24,1.6,9.43.22,12.3-3.29,3-3.67,3.59-8.86,1.12-12.99-2.46-4.12-7.21-6.1-11.88-5.26-5.22.94-8.91,5.8-8.98,10.98-.02,1.39,1.23,2.71,2.65,2.65,1.45-.06,2.63-1.16,2.65-2.65"/>
      </g>
    </g>
  </g>
</svg>