<?xml version="1.0" encoding="UTF-8"?>
<svg id="Livello_2" data-name="Livello 2" xmlns="http://www.w3.org/2000/svg" xmlns:xlink="http://www.w3.org/1999/xlink" viewBox="0 0 146.56 121.41">
  <defs>
    <style>
      .cls-1, .cls-2, .cls-3 {
        fill: none;
      }

      .cls-2 {
        clip-path: url(#clippath);
      }

      .cls-3 {
        clip-path: url(#clippath-1);
      }

      .cls-4 {
        fill: #1d1d1c;
      }
    </style>
    <clipPath id="clippath">
      <rect class="cls-1" width="146.56" height="121.41"/>
    </clipPath>
    <clipPath id="clippath-1">
      <rect class="cls-1" width="146.56" height="121.41"/>
    </clipPath>
  </defs>
  <g id="scaffale_di_metallo" data-name="scaffale di metallo">
    <g class="cls-2">
      <g class="cls-3">
        <path class="cls-4" d="m1.41,2.83h29.15c1.34,0,2.71.08,4.05,0,.02,0,.04,0,.06,0l-1.4-1.4v6.56l1.4-1.4H5.51c-1.34,0-2.71-.08-4.05,0-.02,0-.04,0-.06,0l1.4,1.4V1.42C2.81.69,2.16-.01,1.41.02.64.05,0,.64,0,1.42v6.56c0,.76.64,1.4,1.4,1.4h29.15c1.35,0,2.7.04,4.05,0,.02,0,.04,0,.06,0,.76,0,1.4-.64,1.4-1.4V1.42c0-.76-.64-1.4-1.4-1.4H5.51C4.16.02,2.81-.02,1.46.02c-.02,0-.04,0-.06,0C.67.02-.03.67,0,1.42c.03.76.62,1.4,1.4,1.4"/>
        <path class="cls-4" d="m18.25,121.41c.73,0,1.44-.65,1.4-1.4-.03-.76-.62-1.4-1.4-1.4-.73,0-1.44.65-1.4,1.4.03.76.62,1.4,1.4,1.4"/>
        <path class="cls-4" d="m18.03,2.83c.73,0,1.44-.65,1.4-1.4-.03-.76-.62-1.4-1.4-1.4-.73,0-1.44.65-1.4,1.4.03.76.62,1.4,1.4,1.4"/>
        <path class="cls-4" d="m1.41,65.62h29.15c1.35,0,2.7.04,4.05,0,.02,0,.04,0,.06,0,.76,0,1.4-.64,1.4-1.4v-6.56c0-.76-.64-1.4-1.4-1.4H5.51c-1.35,0-2.7-.04-4.05,0-.02,0-.04,0-.06,0C.65,56.25,0,56.89,0,57.65v6.56c0,.73.65,1.44,1.4,1.4.76-.03,1.4-.62,1.4-1.4v-6.56l-1.4,1.4h29.15c1.34,0,2.71.08,4.05,0,.02,0,.04,0,.06,0l-1.4-1.4v6.56l1.4-1.4H5.51c-1.35,0-2.7-.04-4.05,0-.02,0-.04,0-.06,0-.73,0-1.44.65-1.4,1.4.03.76.62,1.4,1.4,1.4"/>
        <path class="cls-4" d="m23.72,56.25h-11.38l1.4,1.4V10.02c0-.65.03-1.3,0-1.95,0-.03,0-.06,0-.08l-1.4,1.4h11.38l-1.4-1.4v43.55c0,2.01-.06,4.02,0,6.03,0,.03,0,.06,0,.08,0,.73.65,1.44,1.4,1.4.76-.03,1.4-.62,1.4-1.4V14.1c0-2.01.06-4.02,0-6.03,0-.03,0-.06,0-.08,0-.76-.64-1.4-1.4-1.4h-11.38c-.76,0-1.4.64-1.4,1.4v43.55c0,2.01-.06,4.02,0,6.03,0,.03,0,.06,0,.08,0,.76.64,1.4,1.4,1.4h11.38c.73,0,1.44-.65,1.4-1.4-.03-.76-.62-1.4-1.4-1.4"/>
        <path class="cls-4" d="m139.25,56.25h-8.09l1.4,1.4V10.02c0-.65.03-1.3,0-1.95,0-.03,0-.06,0-.08l-1.4,1.4h8.09l-1.4-1.4v43.55c0,2.01-.06,4.02,0,6.03,0,.03,0,.06,0,.08,0,.73.65,1.44,1.4,1.4.76-.03,1.4-.62,1.4-1.4V14.1c0-2.01.06-4.02,0-6.03,0-.03,0-.06,0-.08,0-.76-.64-1.4-1.4-1.4h-8.09c-.76,0-1.4.64-1.4,1.4v43.55c0,2.01-.06,4.02,0,6.03,0,.03,0,.06,0,.08,0,.76.64,1.4,1.4,1.4h8.09c.73,0,1.44-.65,1.4-1.4-.03-.76-.62-1.4-1.4-1.4"/>
        <path class="cls-4" d="m139.25,112.48h-8.09l1.4,1.4v-47.63c0-.65.03-1.3,0-1.95,0-.03,0-.06,0-.08l-1.4,1.4h8.09l-1.4-1.4v43.55c0,2.01-.06,4.02,0,6.03,0,.03,0,.06,0,.08,0,.73.65,1.44,1.4,1.4.76-.03,1.4-.62,1.4-1.4v-43.55c0-2.01.06-4.02,0-6.03,0-.03,0-.06,0-.08,0-.76-.64-1.4-1.4-1.4h-8.09c-.76,0-1.4.64-1.4,1.4v43.55c0,2.01-.06,4.02,0,6.03,0,.03,0,.06,0,.08,0,.76.64,1.4,1.4,1.4h8.09c.73,0,1.44-.65,1.4-1.4-.03-.76-.62-1.4-1.4-1.4"/>
        <path class="cls-4" d="m23.72,112.26h-11.38l1.4,1.4v-47.05c0-.64.03-1.29,0-1.93,0-.03,0-.06,0-.08l-1.4,1.4h11.38l-1.4-1.4v43.03c0,1.98-.06,3.97,0,5.95,0,.03,0,.06,0,.08,0,.73.65,1.44,1.4,1.4.76-.03,1.4-.62,1.4-1.4v-43.03c0-1.98.06-3.97,0-5.95,0-.03,0-.06,0-.08,0-.76-.64-1.4-1.4-1.4h-11.38c-.76,0-1.4.64-1.4,1.4v43.03c0,1.98-.06,3.97,0,5.95,0,.03,0,.06,0,.08,0,.76.64,1.4,1.4,1.4h11.38c.73,0,1.44-.65,1.4-1.4-.03-.76-.62-1.4-1.4-1.4"/>
        <path class="cls-4" d="m34.66,2.83h106.01c1.43,0,2.87.05,4.3,0,.06,0,.13,0,.19,0l-1.4-1.4v6.56l1.4-1.4H39.15c-1.43,0-2.87-.02-4.3,0-.06,0-.13,0-.19,0-1.81,0-1.81,2.81,0,2.81h106.01c1.43,0,2.87.02,4.3,0,.06,0,.13,0,.19,0,.76,0,1.4-.64,1.4-1.4V1.42c0-.76-.64-1.4-1.4-1.4H39.15C37.72.02,36.28,0,34.85.02c-.06,0-.13,0-.19,0-1.81,0-1.81,2.81,0,2.81"/>
        <path class="cls-4" d="m34.66,59.06h106.01c1.43,0,2.87.05,4.3,0,.06,0,.13,0,.19,0l-1.4-1.4v6.56l1.4-1.4H39.15c-1.43,0-2.87-.02-4.3,0-.06,0-.13,0-.19,0-1.81,0-1.81,2.81,0,2.81h106.01c1.43,0,2.87.02,4.3,0,.06,0,.13,0,.19,0,.76,0,1.4-.64,1.4-1.4v-6.56c0-.76-.64-1.4-1.4-1.4H39.15c-1.43,0-2.87-.02-4.3,0-.06,0-.13,0-.19,0-1.81,0-1.81,2.81,0,2.81"/>
        <path class="cls-4" d="m34.66,115.29h106c1.43,0,2.88.08,4.31,0,.06,0,.12,0,.19,0l-1.4-1.4v6.13l1.4-1.4H1.41l1.4,1.4v-6.13l-1.4,1.4h33.26l-1.4-1.4v6.13c0,1.81,2.81,1.81,2.81,0v-6.13c0-.76-.64-1.4-1.4-1.4H1.41c-.76,0-1.4.64-1.4,1.4v6.13c0,.76.64,1.4,1.4,1.4h143.75c.76,0,1.4-.64,1.4-1.4v-6.13c0-.76-.64-1.4-1.4-1.4H39.15c-1.43,0-2.87-.04-4.31,0-.06,0-.12,0-.19,0-1.81,0-1.81,2.81,0,2.81"/>
      </g>
    </g>
  </g>
</svg>