<?xml version="1.0" encoding="UTF-8"?>
<svg id="Livello_2" data-name="Livello 2" xmlns="http://www.w3.org/2000/svg" xmlns:xlink="http://www.w3.org/1999/xlink" viewBox="0 0 117.65 131.2">
  <defs>
    <style>
      .cls-1 {
        fill: #fff;
      }

      .cls-2, .cls-3, .cls-4 {
        fill: none;
      }

      .cls-3 {
        clip-path: url(#clippath);
      }

      .cls-4 {
        clip-path: url(#clippath-1);
      }

      .cls-5 {
        fill: #1d1d1c;
      }
    </style>
    <clipPath id="clippath">
      <rect class="cls-2" width="117.65" height="131.2"/>
    </clipPath>
    <clipPath id="clippath-1">
      <rect class="cls-2" width="117.65" height="131.2"/>
    </clipPath>
  </defs>
  <g id="scarpiera">
    <g class="cls-3">
      <g class="cls-4">
        <path class="cls-5" d="m115.7,64.35H6.57c-1.47,0-2.95-.04-4.42,0-.06,0-.13,0-.19,0,.64.64,1.28,1.28,1.92,1.92V18.69c0-2.17.13-4.39,0-6.56,0-.03,0-.06,0-.1-.64.64-1.28,1.28-1.92,1.92h109.12c1.47,0,2.95.04,4.42,0,.06,0,.13,0,.19,0l-1.92-1.92v47.59c0,2.18-.07,4.38,0,6.56,0,.03,0,.06,0,.1,0,1.01.89,1.97,1.92,1.92,1.04-.05,1.92-.85,1.92-1.92V18.69c0-2.18.07-4.38,0-6.56,0-.03,0-.06,0-.1,0-1.04-.88-1.92-1.92-1.92H6.57c-1.47,0-2.95-.02-4.42,0-.06,0-.13,0-.19,0-1.04,0-1.92.88-1.92,1.92v47.59c0,2.18-.07,4.38,0,6.56,0,.03,0,.06,0,.1,0,1.04.88,1.92,1.92,1.92h109.12c1.47,0,2.95.02,4.42,0,.06,0,.13,0,.19,0,1.01,0,1.97-.89,1.92-1.92-.05-1.04-.85-1.92-1.92-1.92"/>
        <path class="cls-5" d="m115.7,118.6H6.57c-1.47,0-2.95-.04-4.42,0-.06,0-.13,0-.19,0,.64.64,1.28,1.28,1.92,1.92v-47.59c0-2.17.13-4.39,0-6.56,0-.03,0-.06,0-.1-.64.64-1.28,1.28-1.92,1.92h109.12c1.47,0,2.95.04,4.42,0,.06,0,.13,0,.19,0l-1.92-1.92v47.59c0,2.18-.07,4.38,0,6.56,0,.03,0,.06,0,.1,0,1.01.89,1.97,1.92,1.92,1.04-.05,1.92-.85,1.92-1.92v-47.59c0-2.18.07-4.38,0-6.56,0-.03,0-.06,0-.1,0-1.04-.88-1.92-1.92-1.92H6.57c-1.47,0-2.95-.02-4.42,0-.06,0-.13,0-.19,0-1.04,0-1.92.88-1.92,1.92v47.59c0,2.18-.07,4.38,0,6.56,0,.03,0,.06,0,.1,0,1.04.88,1.92,1.92,1.92h109.12c1.47,0,2.95.02,4.42,0,.06,0,.13,0,.19,0,1.01,0,1.97-.89,1.92-1.92-.05-1.04-.85-1.92-1.92-1.92"/>
        <path class="cls-5" d="m1.96,68.2c1.01,0,1.97-.89,1.92-1.92-.05-1.04-.85-1.92-1.92-1.92-1.01,0-1.97.89-1.92,1.92.05,1.04.85,1.92,1.92,1.92"/>
        <path class="cls-1" d="m32.24,96.21c.82,0,1.65.07,2.46.23l28.79,5.42c5.56.54,9.57,3.74,9.57,7.86,0,4.53-4.84,7.94-11.25,7.94H15.07c-4.63,0-8.39-2.31-8.39-5.16v-11.14c0-2.04,1.96-3.89,5-4.72,6.68,5.41,13.51,5.89,20.55-.44"/>
        <path class="cls-5" d="m32.24,98.13c1.32.01,2.54.27,3.86.52,1.95.37,3.9.73,5.85,1.1,5.02.95,10.04,1.89,15.06,2.84,1.67.31,3.34.63,5.01.94.31.06.62.12.93.18.21.04.43.06.64.08.1.01.2.02.31.03-.28-.04.05,0,.09.02.29.05.59.1.88.17.47.1.93.23,1.38.38.23.08.47.16.7.25.06.02.34.15.04.02.11.05.22.1.32.15.42.2.82.42,1.21.67.16.11.32.22.48.33.24.17-.22-.19,0,0,.1.09.21.17.31.26.29.26.53.58.82.84.2.18-.17-.25-.02-.03.06.08.12.16.17.25.13.19.24.38.35.57.04.07.27.54.16.3-.1-.23.09.25.11.32.06.19.11.38.15.57.02.1.04.19.06.29-.05-.24-.02-.24,0,0,.02.37.02.74,0,1.11,0,.12-.09.33.01-.08-.02.09-.03.19-.05.28-.04.19-.09.37-.14.55-.03.11-.27.66-.06.21-.08.17-.16.35-.25.51-.08.15-.17.29-.26.43-.05.08-.12.16-.16.24-.12.22.29-.32-.01.02-.25.29-.5.56-.78.82-.13.12-.27.24-.41.36.31-.26-.2.14-.32.22-.34.23-.7.44-1.07.63-.2.1-.41.2-.62.3.33-.15-.25.1-.36.13-.94.34-1.92.58-2.9.71.33-.05-.42.04-.48.04-.24.02-.47.03-.71.04-.25.01-.49.01-.74.02-.06,0-.12,0-.18,0H16.4c-1,0-2.02.04-3.01-.11.05,0,.23.03,0,0-.13-.02-.26-.05-.4-.07-.23-.05-.45-.1-.67-.15-.25-.06-.49-.14-.73-.22-.12-.04-.23-.09-.35-.12-.33-.11.05.03-.13-.05-.39-.18-.77-.38-1.13-.61-.11-.07-.57-.44-.26-.17-.15-.13-.31-.27-.45-.41-.11-.11-.42-.51-.17-.16-.11-.15-.21-.31-.3-.47-.03-.06-.05-.13-.09-.18-.15-.19.08.33.04.09-.03-.19-.11-.38-.15-.57.08.36.03.16.03-.05,0-.08,0-.16,0-.25v-9.87c0-.28,0-.57,0-.85,0-.04,0-.09,0-.13,0-.16.11-.48-.02-.05.03-.09.04-.19.06-.28.01-.06.14-.45.04-.18-.08.22.11-.21.16-.3.05-.09.11-.17.17-.26-.04.06-.26.28-.01.02.13-.14.26-.28.4-.41.08-.08.17-.15.25-.23.22-.2-.22.15.03-.02.39-.27.79-.5,1.21-.71.03-.01.33-.15.09-.05.13-.05.26-.1.39-.15.27-.1.54-.18.82-.26-.62-.17-1.25-.33-1.87-.5,3.3,2.65,7.16,4.74,11.5,4.74,4.5,0,8.5-2.27,11.77-5.18.78-.69.7-2.02,0-2.72-.77-.77-1.94-.69-2.72,0-1,.89-2.03,1.68-3.21,2.36-.49.28-.99.54-1.5.78-.6.27.15-.06-.2.08-.12.05-.25.1-.37.14-.31.11-.62.21-.93.3-.52.15-1.05.26-1.58.34.35-.05-.3.02-.42.03-.31.02-.62.03-.93.03-.25,0-.49-.01-.74-.03-.15-.01-.31-.03-.46-.04-.32-.03.27.05-.04,0-.56-.09-1.11-.21-1.65-.37-.53-.15-1.05-.33-1.56-.55.25.11-.06-.03-.09-.05-.12-.06-.24-.11-.36-.17-.31-.15-.61-.31-.91-.48-.56-.31-1.1-.65-1.63-1.02-.62-.42-1-.85-1.63-1.22-1.26-.74-3.34.37-4.46,1.05-1.02.62-1.93,1.44-2.58,2.45-.69,1.08-.86,2.27-.86,3.51v3.54c0,2.3-.03,4.59,0,6.89.07,4.62,5.11,6.72,9.04,7.09,1.03.1,2.07.06,3.1.06h43.34c1.27,0,2.53.02,3.79-.14,4.34-.56,8.81-2.64,10.46-6.96,1.58-4.15-.79-8.42-4.39-10.55-.99-.58-2.08-1.04-3.18-1.37-.53-.16-1.06-.28-1.61-.38-.4-.07-.8-.13-1.21-.18-.05,0-.4-.06-.41-.05.49-1.51.4.09.3.05-.28-.12-.68-.13-.98-.18-4.79-.9-9.57-1.8-14.36-2.7-4.36-.82-8.72-1.64-13.08-2.46-1.1-.21-2.21-.36-3.34-.37-1.01,0-1.97.89-1.92,1.92.05,1.05.85,1.91,1.92,1.92"/>
        <path class="cls-5" d="m43.75,98.5v4.14c0,.49.21,1.01.56,1.36.33.33.88.58,1.36.56.5-.02,1.01-.19,1.36-.56.35-.38.56-.84.56-1.36v-4.14c0-.49-.21-1.01-.56-1.36-.33-.33-.88-.58-1.36-.56-.5.02-1.01.19-1.36.56-.35.38-.56.84-.56,1.36"/>
        <path class="cls-5" d="m51.58,99.98v4.48c0,.49.21,1.01.56,1.36.33.33.88.59,1.36.56,1.04-.05,1.92-.85,1.92-1.92v-4.48c0-.49-.21-1.01-.56-1.36-.33-.33-.88-.58-1.36-.56-1.04.05-1.92.85-1.92,1.92"/>
        <path class="cls-5" d="m.03,120.52v8.75c0,1.01.89,1.97,1.92,1.92,1.04-.05,1.92-.85,1.92-1.92v-8.75c0-1.01-.89-1.97-1.92-1.92-1.04.05-1.92.85-1.92,1.92"/>
        <path class="cls-5" d="m113.77,120.52v8.75c0,1.01.89,1.97,1.92,1.92,1.04-.05,1.92-.85,1.92-1.92v-8.75c0-1.01-.89-1.97-1.92-1.92-1.04.05-1.92.85-1.92,1.92"/>
        <path class="cls-5" d="m.03,1.93v8.75c0,1.01.89,1.97,1.92,1.92,1.04-.05,1.92-.85,1.92-1.92V1.93C3.88.92,2.99-.05,1.96,0,.91.05.03.85.03,1.93"/>
        <path class="cls-5" d="m113.77,1.93v8.75c0,1.01.89,1.97,1.92,1.92,1.04-.05,1.92-.85,1.92-1.92V1.93c0-1.01-.89-1.97-1.92-1.92-1.04.05-1.92.85-1.92,1.92"/>
        <path class="cls-5" d="m77.82,47.98c-.11.11-.23.21-.35.32-.37.33.35-.23-.06.05-.27.19-.55.36-.84.52-.29.16-.58.3-.88.44-.25.11-.44.25-.08.04-.18.1-.41.17-.6.24-1.34.52-2.72.92-4.07,1.42-2.99,1.11-5.95,2.78-6.29,6.28-.22,2.27.85,4.56,1.95,6.47.34.59.99.95,1.66.95h8.1c2.69,0,5.42.13,8.1,0,1.1-.06,1.68-.91,2.36-1.63.97-1.03,1.93-2.06,2.9-3.09,2.65-2.83,5.3-5.65,7.95-8.48,1.7-1.82,3.41-3.63,5.11-5.45l-3.28-1.36c-.19,5.27-.37,10.54-.56,15.82-.03.76-.05,1.52-.08,2.27-.04,1.04.91,1.92,1.92,1.92h6.24c1.04,0,1.92-.88,1.92-1.92v-22.09l-.56,1.36c2.72-2.45,4.17-5.89,4.09-9.55-.09-4.24-1.81-8.31-3.79-11.99-.59-1.1-2.17-1.24-3.02-.39-3.14,3.14-6.28,6.28-9.42,9.42-5,5-10,10-15,15-1.14,1.14-2.28,2.28-3.42,3.42-.73.73-.73,1.99,0,2.72s1.98.74,2.72,0c3.14-3.14,6.28-6.28,9.42-9.42,5-5,10-10,15-15,1.14-1.14,2.28-2.28,3.42-3.42-1.01-.13-2.01-.26-3.02-.39,1.25,2.33,2.21,4.45,2.84,7.03.13.55.24,1.11.33,1.67-.06-.37.03.26.04.39.03.29.04.58.05.88.01.51,0,1.02-.05,1.53-.01.11-.02.22-.04.33.05-.4.01-.11,0-.02-.05.27-.1.53-.17.79-.06.23-.13.47-.2.7-.03.09-.3.78-.12.36-.19.44-.42.88-.68,1.29-.13.21-.27.41-.42.61-.17.24.18-.22,0,0-.09.11-.18.22-.28.32-.4.46-.99.86-1.3,1.38-.35.59-.26,1.35-.26,2.01v21.05l1.92-1.92h-6.24l1.92,1.92c.19-5.27.37-10.54.56-15.82.03-.76.05-1.52.08-2.27.06-1.65-2.16-2.56-3.28-1.36-1.91,2.04-3.82,4.07-5.73,6.11-3.05,3.25-6.09,6.49-9.14,9.74-.7.75-1.4,1.49-2.1,2.24.45-.19.91-.38,1.36-.56h-16.21c.55.32,1.11.64,1.66.95-.26-.46-.52-.93-.75-1.41-.06-.12-.11-.25-.17-.36-.14-.27.15.42-.01-.03-.08-.22-.17-.44-.24-.67-.11-.36-.19-.73-.27-1.1-.07-.33.04.15.02.17.02-.02-.02-.23-.02-.27-.01-.19-.02-.38,0-.57,0-.06.01-.13.01-.2,0-.3-.01.21-.03.23.05-.06.07-.36.1-.45.03-.1.12-.24.11-.34.01.29-.2.41-.07.18.04-.07.08-.15.12-.23.06-.11.14-.21.21-.32.1-.16-.34.37,0,.02.17-.17.5-.38.61-.57-.16.26-.34.25-.13.11.06-.04.13-.09.19-.13.1-.07.21-.14.32-.2.28-.17.57-.32.87-.46.15-.07.31-.14.46-.21.27-.12-.42.17.02,0,.33-.13.67-.26,1-.38,1.3-.47,2.63-.87,3.92-1.37,1.58-.62,3.12-1.34,4.35-2.54.74-.73.73-1.99,0-2.72-.74-.74-1.98-.73-2.72,0"/>
      </g>
    </g>
  </g>
</svg>