<?xml version="1.0" encoding="UTF-8"?>
<svg id="Livello_2" data-name="Livello 2" xmlns="http://www.w3.org/2000/svg" xmlns:xlink="http://www.w3.org/1999/xlink" viewBox="0 0 138.72 123.47">
  <defs>
    <style>
      .cls-1, .cls-2, .cls-3 {
        fill: none;
      }

      .cls-2 {
        clip-path: url(#clippath);
      }

      .cls-3 {
        clip-path: url(#clippath-1);
      }

      .cls-4 {
        fill: #010101;
      }
    </style>
    <clipPath id="clippath">
      <rect class="cls-1" width="138.72" height="123.47"/>
    </clipPath>
    <clipPath id="clippath-1">
      <rect class="cls-1" width="138.72" height="123.47"/>
    </clipPath>
  </defs>
  <g id="scatola">
    <g class="cls-2">
      <g class="cls-3">
        <path class="cls-4" d="m70.33,55.23c2.21-.88,4.42-1.76,6.63-2.64,5.3-2.11,10.61-4.22,15.91-6.33,6.42-2.55,12.83-5.11,19.25-7.66l16.64-6.62c2.69-1.07,5.4-2.13,8.08-3.22.04-.02.07-.03.11-.04.94-.37,1.77-1.16,1.72-2.26-.05-1.09-.71-1.89-1.72-2.26-2.24-.81-4.48-1.62-6.72-2.44-5.37-1.95-10.74-3.89-16.11-5.84-6.45-2.33-12.89-4.67-19.34-7-5.54-2.01-11.09-4.02-16.63-6.03-1.79-.65-3.58-1.3-5.37-1.95-.79-.29-1.58-.63-2.39-.87-.91-.27-1.62.09-2.44.39-1.43.51-2.86,1.03-4.29,1.54-5.11,1.83-10.21,3.66-15.32,5.49-6.44,2.31-12.89,4.62-19.33,6.93-5.77,2.07-11.54,4.14-17.32,6.21-3.16,1.13-6.32,2.27-9.48,3.4-.15.05-.29.1-.44.16-1.19.43-1.99,1.59-1.64,2.88.32,1.15,1.68,2.06,2.88,1.64,2.24-.8,4.48-1.6,6.71-2.41,5.35-1.92,10.69-3.83,16.04-5.75l19.48-6.98c5.59-2.01,11.19-4.01,16.78-6.02,1.85-.66,3.69-1.32,5.54-1.99.88-.31,1.8-.58,2.65-.95.04-.02.08-.03.11-.04h-1.25c2.21.8,4.42,1.6,6.63,2.4,5.31,1.92,10.62,3.85,15.92,5.77,6.42,2.33,12.84,4.65,19.26,6.98l16.64,6.03c2.67.97,5.34,2.1,8.06,2.92.04.01.08.03.12.04v-4.52c-2.21.88-4.42,1.76-6.63,2.64-5.3,2.11-10.61,4.22-15.91,6.33l-19.25,7.66c-5.55,2.21-11.09,4.41-16.64,6.62-2.69,1.07-5.39,2.13-8.08,3.22-.04.01-.08.03-.11.04-1.17.47-2,1.56-1.64,2.88.31,1.12,1.7,2.11,2.88,1.64"/>
        <path class="cls-4" d="m41.53,45.29l9.31,3.36c4.95,1.78,9.89,3.57,14.84,5.35,1.14.41,2.27.82,3.41,1.23-.57-.75-1.15-1.51-1.72-2.26v59.77c0,2.75-.08,5.51,0,8.26,0,.04,0,.08,0,.12,0,1.22,1.08,2.4,2.34,2.34,1.27-.06,2.34-1.03,2.34-2.34v-59.77c0-2.75.11-5.52,0-8.26,0-.04,0-.08,0-.12,0-1.1-.74-1.9-1.72-2.26l-9.31-3.36c-4.95-1.78-9.89-3.57-14.84-5.35-1.14-.41-2.27-.82-3.41-1.23-1.15-.42-2.61.47-2.88,1.64-.3,1.32.4,2.43,1.64,2.88"/>
        <path class="cls-4" d="m133.99,26.47v63.88c0,2.95-.16,5.94,0,8.88,0,.04,0,.08,0,.13.57-.75,1.15-1.51,1.72-2.26l-6.65,2.16c-5.34,1.74-10.69,3.48-16.03,5.21-6.44,2.09-12.88,4.19-19.33,6.28-5.57,1.81-11.14,3.62-16.71,5.43-1.84.6-3.67,1.19-5.51,1.79-.87.28-1.78.52-2.62.85-.04.01-.08.03-.12.04h1.25c-2.22-.69-4.44-1.38-6.65-2.07-5.33-1.66-10.65-3.31-15.98-4.97-6.47-2.01-12.94-4.02-19.41-6.04-5.55-1.73-11.1-3.45-16.66-5.18-2.71-.84-5.41-1.84-8.16-2.54-.04,0-.07-.02-.11-.03.57.75,1.15,1.51,1.72,2.26V35.59c0-2.98.17-6.02,0-9,0-.04,0-.08,0-.12-.99.75-1.98,1.51-2.96,2.26,7.01,2.76,14.03,5.52,21.04,8.28,1,.39,2,.79,3,1.18,1.14.45,2.62-.49,2.88-1.64.31-1.35-.41-2.4-1.64-2.88-7.01-2.76-14.03-5.52-21.04-8.28-1-.39-2-.79-3-1.18-1.45-.57-2.96.87-2.96,2.26v64.71c0,2.99-.12,6.01,0,9,0,.04,0,.08,0,.13,0,1.06.73,1.95,1.72,2.26,2.23.69,4.47,1.39,6.7,2.08,5.36,1.67,10.72,3.33,16.08,5,6.5,2.02,12.99,4.04,19.49,6.06,5.56,1.73,11.13,3.46,16.69,5.19,2.63.82,5.26,1.81,7.94,2.47.91.23,1.56-.05,2.39-.32l4.2-1.37c5.06-1.64,10.12-3.29,15.18-4.93,6.44-2.09,12.87-4.19,19.31-6.28,5.78-1.88,11.55-3.76,17.33-5.63l9.45-3.07c.14-.05.29-.09.43-.14.99-.32,1.72-1.2,1.72-2.26v-63.88c0-2.96.09-5.93,0-8.88,0-.04,0-.08,0-.13,0-1.23-1.08-2.4-2.34-2.34-1.27.06-2.34,1.03-2.34,2.34"/>
        <path class="cls-4" d="m87.71,7.26l-6.21,2.65c-4.97,2.12-9.95,4.25-14.92,6.37-6.02,2.57-12.03,5.14-18.05,7.7-5.2,2.22-10.4,4.44-15.6,6.66-2.5,1.07-5.13,2.01-7.56,3.23-.04.02-.07.03-.11.05-.73.31-1.16,1.28-1.16,2.02v17.04c0,1.14.75,1.85,1.72,2.26,4.59,1.94,9.19,3.87,13.78,5.81.65.27,1.29.55,1.94.82,1.44.61,2.96-.9,2.96-2.26v-16.57c-.57.75-1.15,1.51-1.72,2.26,2.19-.89,4.37-1.78,6.56-2.68,5.25-2.14,10.49-4.28,15.74-6.43,6.32-2.58,12.64-5.16,18.96-7.74,5.47-2.23,10.93-4.46,16.4-6.69,2.67-1.09,5.34-2.17,8.01-3.27.04-.02.08-.03.11-.05.93-.38,1.77-1.15,1.72-2.26-.05-1.09-.71-1.89-1.72-2.26-5.56-2.01-11.12-4.03-16.68-6.04l-2.37-.86c-1.15-.42-2.62.47-2.88,1.64-.3,1.32.4,2.43,1.64,2.88,5.56,2.01,11.12,4.03,16.67,6.04.79.29,1.58.57,2.37.86v-4.52c-2.19.89-4.37,1.78-6.56,2.68-5.25,2.14-10.5,4.28-15.74,6.43-6.32,2.58-12.64,5.16-18.96,7.74-5.47,2.23-10.93,4.46-16.4,6.69-2.67,1.09-5.34,2.17-8.01,3.27-.04.02-.08.03-.11.05-.97.4-1.72,1.14-1.72,2.26v16.57c.99-.75,1.98-1.51,2.96-2.26-4.59-1.94-9.19-3.87-13.78-5.81-.65-.27-1.29-.55-1.94-.82.57.75,1.15,1.51,1.72,2.26v-17.04c-.39.67-.77,1.35-1.16,2.02,2.07-.88,4.14-1.77,6.21-2.65,4.97-2.12,9.95-4.24,14.92-6.37,6.02-2.57,12.03-5.14,18.05-7.7,5.2-2.22,10.4-4.44,15.6-6.66,2.5-1.07,5.13-2.01,7.56-3.23.04-.02.07-.03.11-.05,1.16-.5,1.42-2.21.84-3.2-.7-1.2-2.04-1.34-3.2-.84"/>
      </g>
    </g>
  </g>
</svg>