<?xml version="1.0" encoding="UTF-8"?>
<svg id="Livello_2" data-name="Livello 2" xmlns="http://www.w3.org/2000/svg" xmlns:xlink="http://www.w3.org/1999/xlink" viewBox="0 0 138.38 112.48">
  <defs>
    <style>
      .cls-1, .cls-2, .cls-3 {
        fill: none;
      }

      .cls-2 {
        clip-path: url(#clippath);
      }

      .cls-3 {
        clip-path: url(#clippath-1);
      }

      .cls-4 {
        fill: #1d1d1c;
      }
    </style>
    <clipPath id="clippath">
      <rect class="cls-1" width="138.38" height="112.48"/>
    </clipPath>
    <clipPath id="clippath-1">
      <rect class="cls-1" width="138.38" height="112.48"/>
    </clipPath>
  </defs>
  <g id="scrivania">
    <g class="cls-2">
      <g class="cls-3">
        <path class="cls-4" d="m132.47,53.2h-6.01c-.49,0-.92.42-.92.92v53.75c0,.17,0,.34,0,.51.01,1.45.65,2.86,1.94,3.59,1.23.7,2.84.69,4.05-.05,1.24-.76,1.84-2.12,1.85-3.54,0-.62,0-1.25,0-1.87v-52.38c0-.48-.42-.94-.92-.92-.5.02-.92.4-.92.92v53.6c0,.21,0,.42,0,.63v.03c0,.09,0,.18,0,.27,0,.07-.05.34,0,.08-.03.18-.07.36-.12.54-.02.05-.04.18-.08.22.06-.05.08-.16.03-.06-.02.03-.03.07-.05.1-.02.04-.21.42-.25.41,0,0,.15-.17.03-.04-.02.03-.05.05-.07.08-.05.05-.09.1-.14.15-.03.03-.12.14-.17.15,0,0,.2-.14.06-.05-.04.02-.07.05-.1.07-.12.08-.25.14-.37.2-.12.07.2-.07-.01,0-.08.03-.16.05-.24.08-.06.02-.13.03-.19.05-.03,0-.07.01-.1.02-.15.04.1-.02.1-.01,0,.03-.4.02-.44.02-.07,0-.15,0-.22-.01-.03,0-.07,0-.1-.01-.12,0,.21.04.1.01-.14-.04-.29-.06-.43-.1-.04-.01-.17-.08-.21-.08.01,0,.21.1.08.03-.03-.02-.06-.03-.09-.04-.14-.07-.26-.15-.38-.23-.12-.07.16.15-.01-.01-.05-.05-.1-.09-.15-.14-.05-.05-.09-.1-.14-.15-.02-.02-.12-.16-.03-.03.09.12,0,0-.02-.04-.08-.13-.16-.26-.23-.4-.1-.2.05.17-.02-.04-.03-.09-.06-.19-.09-.28-.02-.09-.04-.18-.06-.27,0-.04-.01-.08-.02-.12,0,.03.02.22,0,.05,0-.14-.02-.27-.02-.41v-.04c0-.7,0-1.4,0-2.09v-52.13l-.92.92h6.01c.48,0,.94-.42.92-.92-.02-.5-.4-.92-.92-.92"/>
        <path class="cls-4" d="m10.48,53.2h-5.22c-.49,0-.92.42-.92.92v53.65c0,.2,0,.4,0,.59,0,1.38.5,2.72,1.65,3.54,1.21.87,2.87.72,4-.19,1-.81,1.4-2.11,1.4-3.36,0-.67,0-1.34,0-2.02v-52.22c0-.48-.42-.94-.92-.92-.5.02-.92.4-.92.92v53.49c0,.24,0,.48,0,.71v.05s0,.03,0,.04c0,.1,0,.2-.01.3,0,.08-.05.37-.01.14-.04.18-.07.36-.13.54-.03.09-.06.17-.09.26.08-.2,0-.01-.04.07-.04.07-.08.15-.13.22-.02.03-.04.06-.06.09-.07.12.04-.07.05-.06.01.06-.28.29-.32.34-.16.15.08-.04-.01.01-.06.03-.11.07-.17.11-.06.03-.11.06-.17.09-.21.11.18-.05-.05.02-.12.04-.24.06-.37.1-.14.04.09-.02.1-.01-.01,0-.1.01-.12.01-.07,0-.14,0-.21,0-.07,0-.14-.01-.21-.01-.11,0,.21.05.1.01-.03-.01-.06-.01-.09-.02-.06-.02-.12-.03-.18-.05-.04-.01-.08-.02-.11-.04-.05-.01-.17-.02-.02,0,.12.01.06.03,0,0-.03-.02-.06-.03-.09-.04-.06-.03-.13-.07-.19-.11-.03-.02-.05-.04-.08-.06-.1-.06.06-.02.07.05,0-.03-.17-.15-.19-.17-.05-.05-.1-.1-.14-.15-.02-.02-.06-.06-.07-.08,0,0,.12.19.05.06-.08-.15-.17-.29-.25-.44-.03-.05-.05-.15.02.06-.01-.04-.03-.08-.04-.11-.03-.08-.05-.16-.08-.24-.02-.08-.04-.17-.06-.25-.01-.05-.01-.11-.03-.17-.03-.11.01.18,0,0-.02-.19-.03-.39-.03-.58,0-.74,0-1.48,0-2.22v-51.98l-.92.92h5.22c.48,0,.94-.42.92-.92-.02-.5-.4-.92-.92-.92"/>
        <path class="cls-4" d="m137.47,46.9H6.46c-1.77,0-3.54-.03-5.31,0-.08,0-.16,0-.23,0C.42,46.9,0,47.32,0,47.81v5.93c0,.49.42.92.92.92h131.01c1.77,0,3.54.03,5.31,0,.08,0,.15,0,.23,0,.49,0,.92-.42.92-.92v-5.93c0-1.18-1.83-1.18-1.83,0v5.93l.92-.92H6.46c-1.76,0-3.55-.1-5.31,0-.08,0-.16,0-.23,0l.92.92v-5.93l-.92.92h131.01c1.77,0,3.54.03,5.31,0,.08,0,.15,0,.23,0,1.18,0,1.18-1.83,0-1.83"/>
        <path class="cls-4" d="m126.43,96.82h-55.91c-.76,0-1.52-.02-2.27,0-.03,0-.06,0-.1,0l.92.92v-43.62l-.92.92h55.94c.76,0,1.51.02,2.27,0,.03,0,.06,0,.1,0l-.92-.92v1.17c0,1.06,0,2.11,0,3.17,0,1.56,0,3.12,0,4.68v5.74s0,6.26,0,6.26c0,2.12,0,4.23,0,6.35,0,1.96,0,3.93,0,5.89,0,1.67,0,3.34,0,5,0,1.19,0,2.39,0,3.58,0,.57-.01,1.14,0,1.71,0,.02,0,.05,0,.07,0,.48.42.94.92.92.5-.02.92-.4.92-.92,0-.39,0-.78,0-1.17,0-1.06,0-2.11,0-3.17v-4.68s0-5.74,0-5.74v-6.26c0-2.12,0-4.23,0-6.35,0-1.96,0-3.93,0-5.89,0-1.67,0-3.34,0-5v-3.58c0-.57.02-1.14,0-1.71,0-.02,0-.05,0-.07,0-.49-.42-.92-.92-.92h-55.94c-.76,0-1.51-.01-2.27,0-.03,0-.06,0-.1,0-.49,0-.92.42-.92.92v43.62c0,.49.42.92.92.92h55.91c.76,0,1.52.01,2.27,0,.03,0,.06,0,.1,0,.48,0,.94-.42.92-.92-.02-.5-.4-.92-.92-.92"/>
        <path class="cls-4" d="m68.16,75.28h55.91c.76,0,1.52.01,2.27,0,.03,0,.06,0,.1,0,.48,0,.94-.42.92-.92-.02-.5-.4-.92-.92-.92h-55.91c-.76,0-1.52-.01-2.27,0-.03,0-.06,0-.1,0-.48,0-.94.42-.92.92.02.5.4.92.92.92"/>
        <path class="cls-4" d="m85.73,65.09h24.32c1.12,0,2.26.03,3.38,0,.02,0,.03,0,.05,0,.48,0,.94-.42.92-.92-.02-.5-.4-.92-.92-.92h-24.32c-1.12,0-2.26-.03-3.38,0-.02,0-.03,0-.05,0-.48,0-.94.42-.92.92.02.5.4.92.92.92"/>
        <path class="cls-4" d="m85.73,87.55h24.32c1.12,0,2.26.03,3.38,0,.02,0,.03,0,.05,0,.48,0,.94-.42.92-.92-.02-.5-.4-.92-.92-.92h-24.32c-1.12,0-2.26-.03-3.38,0-.02,0-.03,0-.05,0-.48,0-.94.42-.92.92.02.5.4.92.92.92"/>
        <path class="cls-4" d="m34.53,47.81v-11.09l-.92.92h7.13l-.92-.92v11.09c0,.48.42.94.92.92.5-.02.92-.4.92-.92v-11.09c0-.49-.42-.92-.92-.92h-7.13c-.49,0-.92.42-.92.92v11.09c0,.48.42.94.92.92.5-.02.92-.4.92-.92"/>
        <path class="cls-4" d="m64.24,34.98H12.17c-.7,0-1.41-.02-2.11,0-.03,0-.06,0-.09,0l.92.92V8.45c0-1.26.06-2.55,0-3.81,0-.02,0-.04,0-.05l-.92.92h52.06c.7,0,1.41.02,2.11,0,.03,0,.06,0,.09,0l-.92-.92v27.45c0,1.27-.04,2.54,0,3.81,0,.02,0,.04,0,.05,0,.48.42.94.92.92.5-.02.92-.4.92-.92V8.45c0-1.27.04-2.54,0-3.81,0-.02,0-.04,0-.05,0-.49-.42-.92-.92-.92H12.17c-.7,0-1.41-.01-2.11,0-.03,0-.06,0-.09,0-.5,0-.92.42-.92.92v27.45c0,1.27-.04,2.54,0,3.81,0,.02,0,.04,0,.05,0,.49.42.92.92.92h52.06c.7,0,1.41.01,2.11,0,.03,0,.06,0,.09,0,.48,0,.94-.42.92-.92-.02-.5-.4-.92-.92-.92"/>
        <path class="cls-4" d="m114.19,43.69c.48,0,.94-.42.92-.92-.02-.5-.4-.92-.92-.92-.48,0-.94.42-.92.92.02.5.4.92.92.92"/>
        <path class="cls-4" d="m88.07,47.45c.48,0,.94-.42.92-.92-.02-.5-.4-.92-.92-.92-.48,0-.94.42-.92.92.02.5.4.92.92.92"/>
        <path class="cls-4" d="m91.84,43.69h21.75c.16,0,.33,0,.49,0,.03,0,.07,0,.1,0h.01c.11,0,.22.01.33.02.05,0,.09,0,.14.01,0,0,.25.03.14.01-.11-.01.06.01.09.01.05,0,.11.02.16.03.09.02.18.04.27.06.19.05.37.11.56.18-.22-.07.04.02.09.05.07.03.13.07.2.11.07.04.14.09.21.14.08.05-.06-.05-.07-.05.03.03.08.06.11.1.06.05.11.11.16.17.07.08.11.16.02.02.08.13.16.26.23.39.08.13-.01-.04-.02-.06.01.04.03.07.04.11.02.07.04.13.06.2.02.07.04.14.05.21,0,.04.02.08.02.12,0,.02.03.22.01.07-.01-.15,0,.14.01.17,0,.08,0,.16,0,.23,0,.19,0,.38-.02.56l.92-.92h-26.15c-1.2,0-2.42-.06-3.62,0-.02,0-.04,0-.05,0l.92.92c-.02-.25-.03-.51-.01-.77,0-.07.05-.41,0-.14.02-.1.03-.2.06-.31.03-.11.06-.21.09-.32.02-.05.04-.09.05-.14-.08.24-.03.06,0,0,.05-.08.09-.17.14-.25.03-.06.15-.18,0,0,.03-.04.06-.07.09-.11.07-.07.14-.14.21-.2.09-.09.05-.04-.02.01.05-.04.1-.07.15-.11.09-.06.18-.11.28-.16.06-.03.12-.06.18-.09-.11.05-.1.04,0,0,.25-.09.51-.16.77-.21.07-.01.14-.02.21-.03.1-.02-.12,0,.06,0,.19-.02.37-.03.56-.04.48-.02.94-.41.92-.92-.02-.48-.4-.94-.92-.92-1.31.06-2.77.34-3.68,1.36-.82.91-1.05,2.12-.96,3.31.04.49.39.92.92.92h26.15c1.21,0,2.42.03,3.62,0,.02,0,.04,0,.05,0,.52,0,.88-.42.92-.92.12-1.56-.37-3.13-1.77-3.96-.91-.54-2.02-.71-3.06-.71h-18.47c-1.21,0-2.43-.04-3.65,0-.02,0-.03,0-.05,0-.48,0-.94.42-.92.92.02.5.4.92.92.92"/>
        <path class="cls-4" d="m109.26,43.23c.37-.61.74-1.22,1.11-1.82.89-1.46,1.77-2.92,2.66-4.38,1.07-1.77,2.14-3.53,3.21-5.3.93-1.53,1.85-3.06,2.78-4.59.45-.74.94-1.47,1.36-2.24,0-.01.01-.02.02-.03.21-.35.14-.83-.14-1.11-.66-.66-1.32-1.32-1.99-1.99-1.58-1.58-3.17-3.16-4.75-4.75-1.92-1.92-3.84-3.84-5.76-5.76l-4.96-4.96c-.81-.8-1.59-1.64-2.42-2.42-.01-.01-.02-.02-.04-.04-.35-.35-.94-.35-1.29,0s-.35.94,0,1.29c.66.66,1.32,1.32,1.99,1.99l4.75,4.75c1.92,1.92,3.84,3.84,5.76,5.76l4.96,4.96c.8.8,1.57,1.66,2.42,2.42.01.01.02.02.04.04-.05-.37-.1-.74-.14-1.11-.37.61-.74,1.22-1.11,1.82-.88,1.46-1.77,2.92-2.66,4.38l-3.21,5.3-2.78,4.58c-.45.74-.93,1.48-1.36,2.24,0,.01-.01.02-.02.03-.26.42-.09,1.01.33,1.25.43.25,1,.1,1.25-.33"/>
        <path class="cls-4" d="m105.48,43.23c.35-.61.7-1.22,1.06-1.83.84-1.46,1.68-2.91,2.52-4.36,1.02-1.77,2.05-3.54,3.07-5.31l2.65-4.59c.43-.74.89-1.47,1.29-2.23,0-.01.01-.02.02-.03.2-.35.14-.82-.14-1.11l-1.74-1.74-4.17-4.17-5.04-5.04-4.36-4.36c-.7-.7-1.39-1.43-2.12-2.12-.01-.01-.02-.02-.03-.03-.35-.35-.94-.35-1.29,0-.35.35-.35.94,0,1.29l1.74,1.74,4.17,4.17,5.04,5.04,4.36,4.36c.7.7,1.38,1.46,2.12,2.12.01,0,.02.02.03.03-.05-.37-.1-.74-.14-1.11l-1.06,1.83c-.84,1.45-1.68,2.91-2.52,4.36-1.02,1.77-2.05,3.54-3.07,5.31l-2.65,4.59c-.43.74-.88,1.48-1.29,2.23,0,.01-.01.02-.02.03-.25.43-.1,1,.33,1.25.43.25,1,.1,1.25-.33"/>
        <path class="cls-4" d="m114.39,24.76c.01,1.09.7,2.01,1.71,2.39.93.35,2.09.04,2.72-.73.37-.44.57-.93.62-1.51.05-.49-.09-1.03-.35-1.45-.25-.41-.62-.78-1.06-.98-.53-.24-1.07-.31-1.65-.21-1.16.21-1.98,1.32-2,2.47,0,.48.43.94.92.92.5-.02.91-.4.92-.92,0-.07,0-.15.02-.22-.01.08-.02.16-.03.24.01-.09.03-.17.06-.26.01-.03.02-.07.04-.1.03-.1-.1.21-.03.08.04-.07.08-.15.13-.22.08-.12-.13.14-.05.07.03-.03.06-.06.09-.09.02-.02.05-.05.08-.07.11-.11-.19.13-.05.04.07-.04.13-.08.2-.12.14-.08-.07.01-.08.03.02-.02.1-.04.12-.04.08-.03.17-.04.26-.06l-.24.03c.15-.02.3-.02.45,0-.08-.01-.16-.02-.24-.03.09.01.17.03.26.06.03.01.07.02.1.04.1.03-.21-.1-.08-.03.07.04.15.08.22.13.12.08-.14-.13-.07-.05.03.03.06.06.09.09.02.02.05.05.07.08.11.11-.13-.19-.04-.05.04.07.08.13.12.2.08.14-.01-.07-.03-.08.02.02.04.1.04.12.03.08.04.17.06.26-.01-.08-.02-.16-.03-.24.02.15.02.3,0,.45.01-.08.02-.16.03-.24-.01.09-.03.17-.06.26-.01.03-.02.07-.04.1-.03.1.1-.21.03-.08-.04.07-.08.15-.13.22-.08.12.13-.14.05-.07-.03.03-.06.06-.09.09-.02.02-.05.05-.08.07-.11.11.19-.13.05-.04-.07.04-.13.08-.2.12-.14.08.07-.01.08-.03-.02.02-.1.04-.12.04-.08.03-.17.04-.26.06.08-.01.16-.02.24-.03-.15.02-.3.02-.45,0l.24.03c-.09-.01-.17-.03-.26-.06-.03-.01-.07-.02-.1-.04-.1-.03.21.1.08.03-.07-.04-.15-.08-.22-.13-.12-.08.14.13.07.05-.03-.03-.06-.06-.09-.09-.02-.02-.05-.05-.07-.08-.11-.11.13.19.04.05-.04-.07-.08-.13-.12-.2-.08-.14.01.07.03.08-.02-.02-.04-.1-.04-.12-.03-.08-.04-.17-.06-.26l.03.24c0-.07-.01-.15-.02-.22,0-.48-.42-.94-.92-.92-.49.02-.92.4-.92.92"/>
        <path class="cls-4" d="m97.27,9.24c.68-.91,1.36-1.82,2.04-2.73.42-.56.84-1.12,1.26-1.68.3-.4.6-.78.69-1.3.35-2.01-2-4.04-3.96-3.42-.66.21-1.06.68-1.46,1.21-.39.52-.77,1.03-1.16,1.55-.79,1.06-1.58,2.11-2.37,3.17-.3.4-.06,1.02.33,1.25.47.27.96.07,1.25-.33.62-.83,1.25-1.66,1.87-2.5.62-.83,1.29-1.64,1.87-2.49-.2.3,0,.03.06-.04.06-.06.1-.02-.05.04.03-.01.06-.04.09-.06.22-.12-.16.02.08-.04.03,0,.08-.02.1-.03.16-.07-.19,0-.03,0,.09,0,.18,0,.28,0,.13,0-.03-.03-.08-.01.01,0,.09.02.11.02.09.03.19.06.28.08.14.04-.03-.01-.05-.03.05.03.11.05.16.08.09.05.17.1.26.15.03.02.07.05.1.07-.19-.12-.07-.05-.02-.01.07.06.13.12.2.18.03.03.05.06.08.09.03.03.05.06.08.09-.08-.1-.09-.12-.05-.07.04.08.1.14.14.22.02.03.03.07.05.1.1.16-.04-.15-.01-.04.01.07.04.17.07.24.06.17,0-.17,0-.06,0,.05,0,.11,0,.16,0,.14.05.04.02-.05,0,.01-.02.1-.02.11-.01.03-.03.07-.03.11-.03.17.11-.15,0,0-.05.07-.09.15-.15.23-.08.12-.17.23-.26.34-.37.5-.75,1-1.12,1.5-.74.99-1.48,1.98-2.22,2.97-.3.4-.06,1.02.33,1.25.47.27.96.07,1.25-.33"/>
        <path class="cls-4" d="m94.88,23.79c1.78-2.24,3.18-4.84,3.58-7.7.32-2.3,0-4.64-1.13-6.69-.98-1.79-2.55-3.27-4.42-4.08-2.05-.89-4.32-1.03-6.48-.45-3.01.81-5.54,2.87-7.45,5.26-.32.4-.36.89,0,1.29,3.38,3.76,7.16,7.16,11.26,10.12,1.16.84,2.34,1.63,3.54,2.4.42.27,1.01.09,1.25-.33.26-.44.09-.99-.33-1.25-4.18-2.66-7.99-5.68-11.52-9.17-1-.99-1.97-2.01-2.91-3.06v1.29c.47-.58.96-1.14,1.49-1.66.24-.23.48-.46.73-.68.12-.11.24-.21.37-.31.06-.05.11-.09.17-.14.08-.07.09-.07.02-.01.04-.03.09-.07.13-.1.48-.36.99-.69,1.52-.99.23-.13.47-.25.71-.36.07-.03.14-.06.2-.09.23-.1-.18.07.05-.02.13-.05.27-.11.41-.16.5-.18,1.02-.33,1.54-.43.11-.02.22-.04.33-.06.05,0,.28-.03.02,0,.07,0,.13-.02.2-.02.26-.03.52-.04.78-.05.23,0,.47,0,.7.02.1,0,.21.02.31.03.06,0,.12.01.19.02.2.02-.18-.03,0,0,.47.08.92.18,1.37.33.11.03.21.07.31.11.06.02.4.17.15.05.22.1.44.2.65.31.19.1.38.22.57.34.08.05.17.11.25.17.05.03.1.07.15.1.02.02.22.17.1.07-.12-.09.03.03.05.04.05.04.09.08.14.11.08.06.15.13.23.2.18.16.35.33.51.51.15.16.29.33.43.51.14.16-.12-.17,0,0,.04.05.07.1.11.15.07.1.14.2.21.3.26.4.49.82.68,1.25.02.04.03.08.05.12-.1-.23-.01-.03,0,.01.04.11.08.22.12.33.08.23.15.47.22.71.06.23.11.47.16.7.02.13.04.26.06.39-.04-.26.02.15.02.23.05.53.06,1.07.03,1.6,0,.14-.02.29-.03.43,0,.07-.02.15-.02.22-.02.19.03-.16-.01.09-.05.31-.11.62-.18.93-.16.68-.38,1.34-.63,1.99-.01.03-.07.16,0,.01-.04.1-.09.21-.14.31-.07.16-.15.31-.22.47-.17.35-.36.69-.56,1.03-.21.35-.43.7-.66,1.04-.23.33-.49.69-.69.94-.31.39-.38.92,0,1.29.32.32.99.39,1.29,0"/>
        <path class="cls-4" d="m83.04,14.54c-1.18,1.4-1.44,3.36-.53,4.98.93,1.67,2.98,2.65,4.84,2.11.82-.24,1.59-.72,2.14-1.36.31-.36.38-.94,0-1.29-.35-.32-.96-.39-1.29,0-.08.09-.16.18-.25.26-.05.05-.1.09-.15.14-.02.02-.05.04-.07.06-.08.08.14-.09.04-.03-.12.07-.22.15-.34.22-.07.04-.13.07-.2.11-.03.01-.06.03-.09.04-.11.05,0,.02.04-.01-.1.08-.29.1-.41.14-.08.02-.15.03-.23.05-.02,0-.14.02-.01,0,.13-.02-.03,0-.05,0-.15.01-.31,0-.46,0-.02,0-.14-.01-.02,0,.13.02-.03,0-.06-.01-.09-.02-.17-.04-.26-.06-.09-.03-.18-.06-.26-.09-.1-.03.02,0,.03.01-.04-.02-.08-.04-.11-.06-.19-.09-.37-.2-.53-.33-.13-.09.08.07-.04-.04-.03-.03-.06-.05-.09-.08-.06-.05-.11-.1-.16-.15-.06-.06-.11-.13-.17-.19-.07-.07.02.03.03.04-.03-.04-.06-.08-.08-.12-.09-.13-.17-.26-.24-.4-.04-.08-.09-.24-.04-.07-.03-.08-.06-.15-.08-.23-.04-.15-.08-.29-.11-.44-.03-.15.02.03,0,.04,0,0,0-.1,0-.1,0-.08,0-.16-.01-.24,0-.09,0-.19.01-.28,0-.03,0-.07,0-.1,0-.13-.04.22,0,0,.04-.17.08-.34.13-.51.03-.08.11-.23.03-.08.05-.08.08-.17.13-.26.04-.07.09-.15.13-.22.03-.04.06-.08.08-.12.08-.11-.13.16.02-.02.31-.37.39-.94,0-1.29-.34-.31-.97-.39-1.29,0"/>
      </g>
    </g>
  </g>
</svg>