<?xml version="1.0" encoding="UTF-8"?>
<svg id="Livello_2" data-name="Livello 2" xmlns="http://www.w3.org/2000/svg" xmlns:xlink="http://www.w3.org/1999/xlink" viewBox="0 0 110.54 137.58">
  <defs>
    <style>
      .cls-1, .cls-2, .cls-3 {
        fill: none;
      }

      .cls-2 {
        clip-path: url(#clippath);
      }

      .cls-3 {
        clip-path: url(#clippath-1);
      }

      .cls-4 {
        fill: #1d1d1c;
      }
    </style>
    <clipPath id="clippath">
      <rect class="cls-1" x="0" y="0" width="110.54" height="137.58"/>
    </clipPath>
    <clipPath id="clippath-1">
      <rect class="cls-1" x="0" y="0" width="110.54" height="137.58"/>
    </clipPath>
  </defs>
  <g id="sedia_pieghevole" data-name="sedia pieghevole">
    <g class="cls-2">
      <g class="cls-3">
        <path class="cls-4" d="m43.27,88.8l1.8,1.8c1.59,1.59,3.17,3.17,4.76,4.76,2.25,2.25,4.49,4.49,6.74,6.74,2.58,2.58,5.17,5.17,7.75,7.75,2.59,2.59,5.17,5.17,7.76,7.76,2.29,2.29,4.58,4.58,6.87,6.87,1.66,1.66,3.31,3.31,4.97,4.97.7.7,1.41,1.39,2.1,2.1.08.08.39.45.23.24.09.12.17.25.24.38.07.12.17.42.08.13.04.11.07.22.1.33.02.07.03.15.05.22-.03-.09-.02-.29-.02-.08,0,.12,0,.25,0,.37,0,.05-.01.1-.01.16,0-.03.08-.28.01-.15-.05.1-.07.24-.09.35,0,.04-.07.22,0,0,.08-.23-.03.06-.05.09-.05.09-.11.17-.15.26-.11.22.21-.2-.04.05-.07.07-.14.15-.21.22-.05.05-.11.09-.15.13-.11.12.22-.11.07-.06-.1.04-.21.13-.3.18-.18.1-.23.06,0,.01-.11.02-.23.07-.34.1-.33.1.2.01-.05.02-.12,0-.25,0-.37,0-.35,0,.18.07-.08,0-.11-.03-.22-.06-.33-.09-.08-.02-.25-.12.04.02-.07-.04-.15-.07-.22-.11-.11-.06-.22-.13-.33-.2-.24-.15-.06-.05-.01,0-.05-.05-.11-.09-.16-.14-.06-.05-.11-.1-.16-.15-.01-.01-.03-.03-.04-.04-.58-.57-1.15-1.15-1.72-1.72-1.3-1.3-2.59-2.59-3.89-3.89-1.86-1.86-3.71-3.71-5.57-5.57-2.28-2.28-4.55-4.55-6.83-6.83-2.53-2.54-5.07-5.07-7.6-7.6-2.64-2.64-5.27-5.27-7.91-7.91l-7.75-7.75-7.12-7.12c-2.01-2.01-4.02-4.02-6.02-6.02-1.49-1.49-2.97-2.97-4.46-4.46-.81-.81-1.62-1.62-2.43-2.43-.1-.1-.2-.2-.31-.31-.36.87-.72,1.74-1.08,2.61h9.02c-.36-.15-.72-.3-1.08-.45,2.15,2.17,4.3,4.34,6.45,6.5,3.41,3.44,6.83,6.88,10.24,10.32l2.36,2.38c.58.59,1.58.58,2.16,0,.59-.59.58-1.58,0-2.17-1.07-1.08-2.15-2.17-3.22-3.25-2.33-2.35-4.66-4.69-6.99-7.04-2.19-2.21-4.39-4.42-6.58-6.64-.63-.63-1.25-1.26-1.88-1.89-.12-.12-.24-.25-.36-.37-.44-.4-.91-.47-1.46-.47h-8.66c-1.33,0-2.02,1.68-1.08,2.61.44.44.87.87,1.31,1.31,1.2,1.2,2.4,2.4,3.6,3.6,1.81,1.81,3.63,3.63,5.44,5.44,2.25,2.25,4.5,4.5,6.75,6.75l7.6,7.6,7.97,7.97c2.63,2.63,5.26,5.26,7.89,7.89,2.42,2.42,4.84,4.84,7.27,7.27,2.06,2.06,4.13,4.13,6.19,6.19,1.55,1.55,3.09,3.09,4.64,4.64.87.87,1.74,1.74,2.61,2.61.13.13.26.26.39.39.91.89,2.03,1.47,3.31,1.57,1.26.1,2.52-.43,3.44-1.29.9-.84,1.43-2.08,1.44-3.31,0-1.36-.64-2.61-1.58-3.57-.17-.17-.34-.34-.51-.51-1.17-1.17-2.34-2.34-3.51-3.51-2-2-4-4-6-6-2.51-2.51-5.01-5.01-7.52-7.52-2.66-2.66-5.31-5.31-7.97-7.97-2.48-2.48-4.97-4.97-7.45-7.45-1.98-1.98-3.96-3.96-5.93-5.93-1.14-1.14-2.28-2.28-3.42-3.42-.15-.15-.3-.3-.45-.45-.58-.58-1.58-.58-2.16,0-.59.59-.59,1.58,0,2.16"/>
        <path class="cls-4" d="m49.12,101.36c-1.09,1.09-2.18,2.18-3.27,3.27-2.55,2.55-5.09,5.09-7.64,7.64-2.93,2.93-5.85,5.85-8.78,8.78-2.23,2.23-4.46,4.46-6.69,6.69l-1.52,1.52c-1.35,1.35-2.18,3.3-1.46,5.19,1.09,2.89,4.59,4.07,7.13,2.22.57-.41,1.04-.9,1.53-1.4,1.89-1.89,3.77-3.77,5.66-5.66,2.85-2.85,5.71-5.71,8.56-8.56,2.74-2.74,5.48-5.48,8.22-8.22,1.55-1.55,3.1-3.1,4.65-4.65.07-.07.14-.14.22-.22.58-.58.58-1.58,0-2.17-.59-.59-1.58-.59-2.17,0-1.06,1.06-2.11,2.11-3.17,3.17-2.47,2.47-4.95,4.95-7.42,7.42-2.87,2.87-5.75,5.75-8.62,8.62-2.27,2.27-4.53,4.53-6.8,6.8-.58.58-1.16,1.16-1.74,1.74-.09.1-.19.19-.28.28-.09.09-.18.17-.27.25-.18.16.18-.12-.01.01-.05.04-.11.07-.16.11-.07.04-.14.09-.22.13-.04.02-.35.16-.15.08.19-.07-.2.06-.26.07-.07.02-.15.03-.22.05.05-.01.35-.02.08-.01-.12,0-.25,0-.37,0-.05,0-.1-.01-.16-.01.41.02.11,0,0-.02-.06-.01-.44-.13-.21-.05.21.07-.12-.06-.18-.1-.06-.03-.37-.23-.18-.1.18.13,0,0-.04-.04-.06-.06-.12-.11-.18-.17-.05-.06-.27-.33-.14-.15.14.2-.07-.13-.1-.18-.08-.14-.14-.45-.06-.1-.03-.13-.08-.27-.11-.39-.07-.25,0,.05,0,.1,0-.07-.01-.14-.02-.21,0-.12.01-.25,0-.37,0-.17-.02.12-.02.14.02-.07.03-.15.05-.22.02-.07.05-.15.06-.22.07-.26-.1.12,0-.02.08-.12.13-.26.21-.38.05-.07.1-.15.15-.22-.02.02-.14.17-.03.04.08-.09.17-.18.25-.27.33-.34.67-.67,1-1,1.95-1.95,3.9-3.9,5.86-5.86,2.83-2.83,5.66-5.66,8.49-8.49,2.66-2.66,5.33-5.33,7.99-7.99,1.49-1.49,2.99-2.99,4.48-4.48.07-.07.14-.14.22-.22.58-.58.58-1.58,0-2.16-.59-.59-1.58-.59-2.16,0"/>
        <path class="cls-4" d="m55.72,99.09c.81-.82,1.63-1.64,2.44-2.45,1.95-1.96,3.91-3.93,5.86-5.89,2.38-2.39,4.75-4.78,7.13-7.17,2.04-2.06,4.09-4.11,6.13-6.17.99-.99,2.06-1.95,2.99-3,.01-.02.03-.03.04-.04-.36.15-.72.3-1.08.45h9.02c-.36-.87-.72-1.74-1.08-2.61l-2.9,2.9c-2.32,2.32-4.65,4.65-6.97,6.97-2.81,2.81-5.62,5.62-8.43,8.43-2.43,2.43-4.86,4.86-7.29,7.29-1.18,1.18-2.4,2.32-3.54,3.54-.02.02-.04.04-.05.05-.58.58-.58,1.58,0,2.16.59.59,1.58.59,2.16,0,.97-.97,1.93-1.93,2.9-2.9,2.32-2.32,4.65-4.65,6.97-6.97,2.81-2.81,5.62-5.62,8.43-8.43l7.29-7.29c1.18-1.18,2.41-2.31,3.54-3.54.02-.02.04-.04.05-.05.94-.94.24-2.61-1.08-2.61h-4.21c-1.58,0-3.18-.06-4.76,0-.87.03-1.34.65-1.9,1.21-.84.84-1.68,1.69-2.52,2.53l-8.12,8.17c-2.85,2.87-5.7,5.74-8.55,8.61-1.52,1.53-3.09,3.03-4.57,4.6-.02.02-.05.05-.07.07-.58.59-.59,1.58,0,2.16.58.59,1.58.59,2.16,0"/>
        <path class="cls-4" d="m101.26,67.55c-7.16,1.79-14.48,3.22-21.77,4.18-7.29.96-14.63,1.51-21.98,1.62-7.37.11-14.75-.21-22.08-.96-7.31-.75-14.57-1.93-21.77-3.52-1.82-.4-3.64-.83-5.45-1.28-.64-.16-1.27-.35-1.89-.59.28.1-.05-.02-.15-.07-.11-.05-.22-.1-.32-.16-.25-.13-.5-.28-.74-.43-.09-.06-.18-.12-.27-.18-.06-.04-.11-.08-.17-.13,0,0,.22.19.1.08-.18-.18-.38-.33-.56-.51-.15-.15-.27-.31-.41-.46-.12-.12.11.13.1.13-.02,0-.1-.14-.11-.15-.06-.09-.12-.17-.17-.26-.11-.17-.2-.35-.29-.53-.13-.26.05.14.02.06-.03-.1-.08-.21-.11-.31-.05-.17-.1-.34-.13-.51-.01-.06-.06-.4-.03-.11.03.29,0-.07,0-.15-.01-.17-.01-.33,0-.5,0-.09.01-.18.02-.27.02-.33-.08.36,0,.03.04-.16.07-.32.11-.47.02-.08.05-.16.08-.25.01-.04.03-.07.04-.1.06-.2-.04.15-.07.16.08-.05.19-.37.24-.46.04-.06.08-.13.12-.19.03-.04.06-.08.08-.12.11-.17-.08.12-.11.13.1-.03.26-.3.34-.38.05-.05.11-.1.16-.15.28-.25.07.03-.02,0,.06.01.34-.23.41-.27.08-.04.16-.08.24-.13.32-.17-.23.07,0,0,.16-.05.32-.11.49-.16.09-.02.19-.04.28-.06.36-.08-.2,0,0,0,.19,0,.38-.03.57-.02.11,0,.21,0,.32.01.07,0,.43.03.17.01-.27-.02.11.02.18.04.12.02.23.05.34.08.41.1.82.21,1.24.31,7.31,1.79,14.72,3.15,22.19,4.11,7.29.94,14.63,1.45,21.98,1.54,7.37.09,14.75-.26,22.08-1.04,7.46-.79,14.87-2,22.19-3.62,1.79-.4,3.57-.82,5.35-1.26.8-.2,1.28-1.1,1.07-1.88-.22-.82-1.08-1.27-1.88-1.07-7.33,1.83-14.81,3.28-22.26,4.25-7.45.96-14.96,1.49-22.47,1.57-7.5.07-15.01-.3-22.47-1.12-7.47-.82-14.92-2.1-22.26-3.79-1.53-.35-3.08-.86-4.64-1.09-1.03-.15-2.07-.15-3.07.18-1.8.59-3.14,1.95-3.76,3.73-.61,1.73-.29,3.74.65,5.29,1.24,2.04,3.39,3.3,5.63,3.96,1.76.52,3.58.89,5.37,1.3,1.88.42,3.76.82,5.64,1.18,3.71.72,7.44,1.34,11.19,1.85,7.52,1.02,15.09,1.62,22.68,1.75,7.5.13,15.01-.2,22.47-.96,7.59-.78,15.13-1.99,22.58-3.64,1.85-.41,3.7-.84,5.54-1.3.8-.2,1.28-1.1,1.07-1.88-.22-.82-1.08-1.27-1.88-1.07"/>
        <path class="cls-4" d="m8.47,70.5c7.47,1.86,15.05,3.3,22.68,4.3,7.45.98,14.96,1.52,22.47,1.61,7.5.09,15.01-.27,22.47-1.07,7.62-.82,15.2-2.08,22.68-3.77,1.75-.39,3.52-.75,5.24-1.27,1.18-.36,2.35-.87,3.35-1.6,1.73-1.27,2.92-3.04,3.14-5.2.18-1.73-.49-3.55-1.73-4.77-1.46-1.43-3.46-1.86-5.43-1.57-.68.1-1.35.31-2.01.47-.92.22-1.85.44-2.77.66-1.88.43-3.76.83-5.64,1.21-3.71.74-7.44,1.37-11.19,1.89-7.33,1.02-14.83,1.6-22.26,1.74-7.5.14-15.01-.17-22.47-.92-7.44-.75-14.84-1.95-22.17-3.57-1.85-.41-3.7-.84-5.54-1.3-.78-.19-1.7.25-1.88,1.07-.18.79.24,1.68,1.07,1.88,7.31,1.82,14.72,3.24,22.19,4.24,7.29.98,14.63,1.54,21.98,1.67,7.37.13,14.74-.18,22.08-.91,7.45-.75,14.87-1.91,22.19-3.49,1.82-.39,3.64-.81,5.45-1.25.4-.1.79-.2,1.19-.3.1-.02.2-.05.29-.07.06-.01.13-.02.19-.04.22-.05-.07,0-.12.01.16-.07.42-.04.6-.04.16,0,.51.08.65.03-.13.05-.35-.06-.08,0,.09.02.19.04.28.06.04.01.56.19.57.18-.03.03-.36-.18-.08-.03.08.04.16.08.24.13.08.04.15.09.23.14.07.04.28.24.09.05-.2-.2.03.02.08.07.06.06.13.12.19.18.05.05.1.11.15.16.03.04.06.08.1.11.11.12,0,.09,0-.01,0-.04-.11-.16-.03-.04.03.04.06.08.08.12.04.06.08.12.12.19.04.07.09.15.12.22.02.03.03.07.05.1.08.16,0,.14.01.02,0-.07-.06-.18-.02-.05.01.05.03.09.05.14.02.07.05.14.07.21.05.18.07.37.12.55.03.09-.03-.4-.02-.11,0,.09.01.18.02.27,0,.18,0,.36,0,.54,0,.06-.04.41,0,.11.03-.28-.01.03-.03.11-.04.19-.09.37-.15.55-.03.09-.07.18-.1.27-.04.14.07-.17.07-.17-.02,0-.07.15-.07.15-.09.18-.19.36-.3.53-.06.09-.12.17-.17.26-.17.25.08-.08.02-.02-.17.17-.31.36-.48.53-.16.15-.33.29-.49.44-.12.11.1-.08.1-.08-.06.04-.11.08-.17.13-.12.08-.24.17-.36.24-.21.13-.43.26-.65.37-.12.06-.25.13-.38.19-.06.03-.11.05-.17.08-.2.1.23-.08.02,0-.64.21-1.27.43-1.93.59-7.16,1.78-14.49,3.2-21.77,4.15-7.29.95-14.63,1.48-21.98,1.58-7.37.1-14.75-.23-22.08-.99-7.31-.76-14.57-1.96-21.77-3.55-1.79-.4-3.57-.82-5.35-1.26-.78-.19-1.7.25-1.88,1.07-.18.79.24,1.68,1.07,1.88"/>
        <path class="cls-4" d="m22.56,60.61v-23.23c0-.86-.7-1.49-1.53-1.53-.14,0-.27-.02-.41-.03-.06,0-.49-.08-.11-.01-.25-.04-.49-.09-.74-.16-.23-.06-.46-.14-.68-.22.36.13,0,0-.06-.03-.14-.07-.27-.14-.4-.22-.1-.06-.19-.12-.29-.18-.06-.04-.34-.28-.05-.03-.17-.15-.34-.3-.5-.46-.06-.06-.44-.53-.21-.21-.17-.22-.32-.45-.46-.69-.12-.22-.23-.44-.34-.66-.18-.38.09.29-.04-.11-.04-.13-.09-.25-.13-.38-.09-.26-.16-.53-.23-.8-.03-.14-.07-.28-.1-.42-.02-.1-.04-.19-.06-.29-.04-.23-.04-.2,0,.11.04-.07,0-.27,0-.35V8.06c0-.13,0-.25,0-.38,0-.49,0-.98.04-1.47,0-.06.08-.5.01-.12.02-.12.04-.25.07-.37.05-.25.12-.5.2-.74.03-.09.06-.17.09-.26-.13.38-.02.06.02-.03.09-.18.2-.35.3-.53.06-.09.27-.3,0,0,.07-.07.12-.15.19-.21.07-.07.14-.13.2-.2.05-.04.09-.08.14-.12-.19.14-.22.16-.08.07.16-.09.32-.2.49-.29.09-.05.39-.14-.01,0,.09-.03.19-.07.28-.1.16-.05.33-.1.49-.13.1-.02.21-.04.31-.06.17-.03.14-.02-.08,0,.07,0,.15-.02.22-.02.72-.06,1.44.01,2.17.01h33.35c.8,0,1.57-.7,1.53-1.53-.04-.83-.67-1.53-1.53-1.53h-30.42c-1.22,0-2.45.06-3.67-.02-2-.13-4.22.29-5.63,1.83-1.46,1.6-1.76,3.75-1.74,5.83.04,5,0,10,0,15v7.53c0,3.08,1.5,6.51,4.41,7.86,1.1.51,2.23.75,3.44.82l-1.53-1.53v23.23c0,.8.7,1.57,1.53,1.53.83-.04,1.53-.67,1.53-1.53"/>
        <path class="cls-4" d="m90.66,60.61v-23.23l-1.53,1.53c2.44-.13,4.6-1.08,6.08-3.07.68-.91,1.13-2,1.44-3.1.16-.58.32-1.2.33-1.81.05-1.99,0-3.98,0-5.96V8.15c0-1.21,0-2.41-.31-3.59-.54-2.07-1.99-3.68-4.06-4.26-1.65-.47-3.55-.25-5.27-.25h-31.81c-.8,0-1.57.7-1.53,1.53.04.83.67,1.53,1.53,1.53h29.82c1.32,0,2.65.04,3.97,0,.62-.02,1.22-.05,1.84,0,.38.03-.34-.07.03,0,.1.02.21.04.31.06.17.04.33.08.49.13.09.03.19.07.28.1-.4-.14-.1-.05-.01,0,.2.11.38.22.57.35-.38-.25.09.09.19.2.07.07.13.14.19.21-.28-.3-.06-.09,0,0,.11.17.21.34.3.53.04.08.14.41.02.03.04.11.08.21.11.31.07.22.13.45.18.69.03.12.05.25.07.37-.07-.38,0,.06.01.12.05.49.05.98.04,1.47-.04,4.77,0,9.54,0,14.32v8.73c0,.08,0,.16,0,.24.02.23.01-.2.03-.18.07.13-.14.7-.18.86-.07.27-.14.53-.23.8-.04.13-.09.25-.13.38-.14.4.14-.27-.04.11-.12.26-.25.52-.4.77-.12.2-.25.4-.39.59.23-.31-.14.14-.21.21-.16.16-.33.31-.5.46.29-.25.01-.01-.05.03-.12.09-.25.17-.38.24-.1.06-.2.11-.3.16-.07.03-.42.17-.06.03-.23.08-.45.16-.68.22-.24.07-.49.11-.74.16.38-.07-.05,0-.11.01-.14.01-.27.02-.41.03-.83.04-1.53.66-1.53,1.53v23.23c0,.8.7,1.57,1.53,1.53.83-.04,1.53-.67,1.53-1.53"/>
        <path class="cls-4" d="m21.03,38.91h58.63c2.71,0,5.43.06,8.14,0,.04,0,.08,0,.12,0,.8,0,1.57-.7,1.53-1.53-.04-.83-.67-1.53-1.53-1.53H29.28c-2.71,0-5.43-.06-8.14,0-.04,0-.08,0-.12,0-.8,0-1.57.7-1.53,1.53.04.83.67,1.53,1.53,1.53"/>
        <path class="cls-4" d="m31.58,62.92v-25.13c0-.8-.7-1.57-1.53-1.53-.83.04-1.53.67-1.53,1.53v25.13c0,.8.7,1.57,1.53,1.53.83-.04,1.53-.67,1.53-1.53"/>
        <path class="cls-4" d="m80.75,63.25v-25.46c0-.8-.7-1.57-1.53-1.53-.83.04-1.53.67-1.53,1.53v25.46c0,.8.7,1.57,1.53,1.53.83-.04,1.53-.67,1.53-1.53"/>
      </g>
    </g>
  </g>
</svg>