<svg width="1080" height="1044" viewBox="0 0 1080 1044" fill="none" xmlns="http://www.w3.org/2000/svg">
<path fill-rule="evenodd" clip-rule="evenodd" d="M488.603 662.644C475.248 662.644 464.376 673.184 464.376 686.134V892.433C464.376 905.396 475.248 915.937 488.603 915.937H573.61V686.134C573.61 673.184 562.738 662.644 549.383 662.644H488.603ZM588.801 945.4H488.603C458.487 945.4 434 921.637 434 892.433V686.12C434 656.93 458.487 633.167 488.603 633.167H549.383C579.499 633.167 604 656.916 604 686.12V930.661C604 938.819 597.196 945.4 588.801 945.4Z" fill="black"/>
<path fill-rule="evenodd" clip-rule="evenodd" d="M881.388 915.937H966.388C979.742 915.937 990.612 905.396 990.612 892.433V686.134C990.612 673.184 979.742 662.644 966.388 662.644H905.612C892.258 662.644 881.388 673.184 881.388 686.134V915.937ZM966.388 945.4H866.197C857.804 945.4 851 938.806 851 930.661V686.12C851 656.93 875.499 633.167 905.612 633.167H966.388C996.501 633.167 1021 656.916 1021 686.12V892.433C1021 921.637 996.501 945.4 966.388 945.4Z" fill="black"/>
<path fill-rule="evenodd" clip-rule="evenodd" d="M954.724 662.167C946.278 662.167 939.426 655.553 939.426 647.401V523.09C939.426 506.315 915.676 491.597 888.613 491.597H566.401C539.338 491.597 515.574 506.315 515.574 523.09V647.401C515.574 655.553 508.729 662.167 500.291 662.167C491.845 662.167 485 655.553 485 647.401V523.09C485 489.443 521.513 462.067 566.401 462.067H888.613C933.48 462.067 970 489.443 970 523.09V647.401C970.014 655.553 963.169 662.167 954.724 662.167Z" fill="black"/>
<path fill-rule="evenodd" clip-rule="evenodd" d="M865.712 776.484C865.528 776.484 865.352 776.484 865.168 776.484C856.747 776.197 850.151 769.38 850.441 761.238C850.752 752.503 847.309 744.061 840.719 737.496C833.685 730.467 823.9 726.434 813.832 726.434H641.131C620.953 726.434 604.536 742.28 604.536 761.75C604.536 769.885 597.699 776.484 589.264 776.484C580.83 776.484 574 769.885 574 761.75C574 726.032 604.097 696.967 641.131 696.967H813.832C832.115 696.967 849.932 704.269 862.679 717.01C875.08 729.389 881.556 745.454 880.962 762.255C880.687 770.219 873.899 776.484 865.712 776.484ZM865.698 945.4H589.264C580.83 945.4 574 938.808 574 930.666C574 922.532 580.83 915.932 589.264 915.932H865.698C874.133 915.932 880.962 922.532 880.962 930.666C880.962 938.808 874.133 945.4 865.698 945.4Z" fill="black"/>
<path fill-rule="evenodd" clip-rule="evenodd" d="M865.734 836.167H589.266C580.831 836.167 574 829.463 574 821.183C574 812.904 580.831 806.2 589.266 806.2H865.734C874.169 806.2 881 812.904 881 821.183C881 829.463 874.169 836.167 865.734 836.167Z" fill="black"/>
<mask id="mask0_1_260" style="mask-type:luminance" maskUnits="userSpaceOnUse" x="522" y="914" width="134" height="126">
<path d="M522.113 914.846H655.804V1039.17H522.113V914.846Z" fill="white"/>
</mask>
<g mask="url(#mask0_1_260)">
<path fill-rule="evenodd" clip-rule="evenodd" d="M556.882 1039.17C549.658 1039.17 543.233 1034.2 541.882 1027.09L524.009 933.771C522.467 925.749 527.936 918.047 536.243 916.57C544.557 915.072 552.516 920.386 554.052 928.395L571.932 1021.71C573.467 1029.72 567.983 1037.43 559.684 1038.91C558.736 1039.09 557.802 1039.17 556.882 1039.17ZM621.481 1039.17C620.568 1039.17 619.62 1039.07 618.686 1038.91C610.387 1037.43 604.917 1029.72 606.453 1021.71L624.311 928.395C625.854 920.386 633.792 915.086 642.127 916.57C650.413 918.061 655.896 925.769 654.361 933.771L636.481 1027.09C635.13 1034.2 628.698 1039.17 621.481 1039.17Z" fill="black"/>
</g>
<mask id="mask1_1_260" style="mask-type:luminance" maskUnits="userSpaceOnUse" x="799" y="914" width="133" height="126">
<path d="M799.245 914.846H931.472V1039.17H799.245V914.846Z" fill="white"/>
</mask>
<g mask="url(#mask1_1_260)">
<path fill-rule="evenodd" clip-rule="evenodd" d="M898.125 1039.17C897.205 1039.17 896.271 1039.07 895.323 1038.91C887.024 1037.43 881.554 1029.72 883.09 1021.71L900.969 928.395C902.491 920.386 910.45 915.086 918.764 916.57C927.064 918.061 932.554 925.769 931.019 933.771L913.139 1027.09C911.774 1034.2 905.349 1039.17 898.125 1039.17ZM833.526 1039.17C826.309 1039.17 819.877 1034.2 818.519 1027.09L800.646 933.771C799.111 925.749 804.594 918.047 812.894 916.57C821.215 915.072 829.153 920.386 830.696 928.395L848.568 1021.71C850.111 1029.72 844.62 1037.43 836.321 1038.91C835.387 1039.09 834.439 1039.17 833.526 1039.17Z" fill="black"/>
</g>
<mask id="mask2_1_260" style="mask-type:luminance" maskUnits="userSpaceOnUse" x="0" y="1009" width="1080" height="31">
<path d="M0 1009.4H1080V1039.17H0V1009.4Z" fill="white"/>
</mask>
<g mask="url(#mask2_1_260)">
<path fill-rule="evenodd" clip-rule="evenodd" d="M1068.41 1039.17H12.0464C5.622 1039.17 0.425415 1032.56 0.425415 1024.4C0.425415 1016.24 5.622 1009.64 12.0464 1009.64H1068.41C1074.84 1009.64 1080.04 1016.24 1080.04 1024.4C1080.04 1032.56 1074.84 1039.17 1068.41 1039.17Z" fill="black"/>
</g>
<mask id="mask3_1_260" style="mask-type:luminance" maskUnits="userSpaceOnUse" x="0" y="716" width="338" height="324">
<path d="M0.452881 716.99H337.358V1039.17H0.452881V716.99Z" fill="white"/>
</mask>
<g mask="url(#mask3_1_260)">
<path fill-rule="evenodd" clip-rule="evenodd" d="M321.976 1039.17C313.542 1039.17 306.7 1032.56 306.7 1024.4V747.624L31.7052 747.604V1024.4C31.7052 1032.56 24.8703 1039.17 16.4293 1039.17C7.98822 1039.17 1.14624 1032.56 1.14624 1024.4V732.857C1.14624 724.698 7.98822 718.07 16.4293 718.07H321.976C330.417 718.07 337.259 724.698 337.259 732.857V1024.4C337.259 1032.56 330.417 1039.17 321.976 1039.17Z" fill="black"/>
</g>
<path fill-rule="evenodd" clip-rule="evenodd" d="M321.722 888.367H16.2779C7.83968 888.367 1 881.883 1 873.86C1 865.844 7.83968 859.367 16.2779 859.367H321.722C330.16 859.367 337 865.844 337 873.86C337 881.883 330.16 888.367 321.722 888.367Z" fill="black"/>
<path fill-rule="evenodd" clip-rule="evenodd" d="M210.732 817.8H127.268C118.835 817.8 112 811.292 112 803.28C112 795.288 118.835 788.8 127.268 788.8H210.732C219.165 788.8 226 795.288 226 803.28C226 811.292 219.165 817.8 210.732 817.8Z" fill="black"/>
<path fill-rule="evenodd" clip-rule="evenodd" d="M101.573 747.233C94.0262 747.233 87.4737 741.812 86.4792 734.361L71.1243 619.866C70.5671 615.648 71.9002 611.417 74.7779 608.231C77.6768 605.032 81.8452 603.2 86.2323 603.2H253.768C258.148 603.2 262.316 605.032 265.215 608.231C268.1 611.417 269.433 615.662 268.876 619.866L253.521 734.361C252.435 742.455 244.81 748.163 236.445 747.097C228.108 746.044 222.219 738.641 223.305 730.567L236.424 632.718H103.569L116.695 730.567C117.781 738.641 111.892 746.044 103.555 747.097C102.885 747.186 102.222 747.233 101.573 747.233Z" fill="black"/>
<path fill-rule="evenodd" clip-rule="evenodd" d="M169.997 633.167C161.71 633.167 155 626.542 155 618.361V423.706C155 415.531 161.71 408.9 169.997 408.9C178.283 408.9 185 415.531 185 423.706V618.361C185 626.542 178.283 633.167 169.997 633.167Z" fill="black"/>
<path fill-rule="evenodd" clip-rule="evenodd" d="M240.302 461.534C226.016 461.909 212.535 467.312 202.197 476.857C191.845 486.41 185.688 499.321 184.698 512.866C198.97 512.505 212.458 507.102 222.817 497.556C233.155 488.011 239.305 475.093 240.302 461.534ZM183.169 542.3C177.827 542.3 172.463 541.837 167.219 540.903C160.737 539.752 155.763 534.758 154.85 528.489C150.93 501.61 160.723 474.377 181.039 455.613C197.477 440.453 219.067 432.1 241.845 432.1C247.173 432.1 252.537 432.577 257.774 433.51C264.263 434.641 269.237 439.642 270.15 445.911C274.07 472.803 264.277 500.023 243.954 518.787C227.509 533.947 205.933 542.3 183.169 542.3Z" fill="black"/>
<path fill-rule="evenodd" clip-rule="evenodd" d="M169.996 320.34C158.909 331.624 152.539 346.729 152.539 362.496C152.539 378.269 158.909 393.374 169.996 404.659C181.091 393.374 187.461 378.269 187.461 362.496C187.461 346.729 181.091 331.624 169.996 320.34ZM169.996 438.867C166.864 438.867 163.739 437.939 161.066 436.097C136.601 419.061 122 391.56 122 362.496C122 333.452 136.601 305.924 161.066 288.922C166.397 285.204 173.603 285.204 178.934 288.922C203.399 305.924 218 333.439 218 362.496C218 391.56 203.399 419.075 178.934 436.097C176.261 437.939 173.136 438.867 169.996 438.867Z" fill="black"/>
<path fill-rule="evenodd" clip-rule="evenodd" d="M92.5345 488.551C93.3032 504.033 100.173 518.889 111.943 529.784C123.721 540.665 139.167 546.688 155.466 546.762C154.711 531.267 147.827 516.411 136.057 505.516C124.279 494.635 108.833 488.612 92.5345 488.551ZM155.748 576.133C131.451 576.133 108.41 567.212 90.8701 550.995C69.1831 530.94 58.7239 501.808 62.9062 473.063C63.823 466.802 68.7811 461.793 75.2413 460.657C80.8341 459.677 86.5679 459.167 92.2524 459.167C116.549 459.167 139.59 468.088 157.123 484.305C178.817 504.36 189.276 533.492 185.094 562.237C184.191 568.498 179.219 573.507 172.773 574.643C167.166 575.643 161.446 576.133 155.748 576.133Z" fill="black"/>
</svg>
