<?xml version="1.0" encoding="UTF-8"?>
<svg id="Livello_2" data-name="Livello 2" xmlns="http://www.w3.org/2000/svg" xmlns:xlink="http://www.w3.org/1999/xlink" viewBox="0 0 82.83 145.3">
  <defs>
    <style>
      .cls-1, .cls-2, .cls-3 {
        fill: none;
      }

      .cls-2 {
        clip-path: url(#clippath);
      }

      .cls-3 {
        clip-path: url(#clippath-1);
      }

      .cls-4 {
        fill: #1d1d1c;
      }
    </style>
    <clipPath id="clippath">
      <rect class="cls-1" x="0" width="82.83" height="145.3"/>
    </clipPath>
    <clipPath id="clippath-1">
      <rect class="cls-1" x="0" width="82.83" height="145.3"/>
    </clipPath>
  </defs>
  <g id="sottolavabo">
    <g class="cls-2">
      <g class="cls-3">
        <path class="cls-4" d="m80.84,55.71c0,2.08-.17,4.24-.47,6.17-.33,2.05-.82,4.08-1.46,6.06-1.22,3.77-3.02,7.33-5.36,10.63-1.11,1.56-2.34,3.04-3.73,4.49-.7.72-1.42,1.42-2.17,2.09-.37.33-.74.65-1.12.97-.19.16-.38.31-.58.47-.1.08-.19.15-.29.23-.13.11-.13.1-.22.17-3.17,2.42-6.77,4.41-10.4,5.74-1.93.7-3.91,1.26-5.92,1.66-2.06.41-3.96.63-6.1.72-4.26.16-8.29-.3-12.37-1.46-3.89-1.1-7.44-2.73-10.86-4.97-3.28-2.15-6.25-4.81-8.81-7.91-1.2-1.45-2.35-3.07-3.37-4.78-.52-.87-1.01-1.76-1.47-2.66-.22-.45-.44-.9-.65-1.35-.21-.45-.39-.88-.54-1.24-.77-1.89-1.4-3.84-1.88-5.83-.5-2.08-.8-4.01-.96-6.08-.08-1.04-.12-2.07-.12-3.11l-.99.99h77.56c1.05,0,2.1.02,3.14,0,.05,0,.09,0,.14,0,1.28,0,1.28-1.99,0-1.99H4.27c-1.05,0-2.1-.02-3.14,0-.05,0-.09,0-.14,0C.46,54.72,0,55.17,0,55.71c0,4.32.67,8.65,2,12.76,1.29,3.97,3.18,7.75,5.59,11.15,2.44,3.43,5.37,6.46,8.71,9.02,3.31,2.54,7,4.55,10.91,5.98,4.03,1.48,8.31,2.3,12.6,2.47,4.34.17,8.72-.35,12.9-1.53,4.02-1.14,7.88-2.9,11.37-5.2,3.45-2.27,6.57-5.05,9.2-8.23,2.69-3.25,4.86-6.87,6.46-10.77,1.64-3.97,2.61-8.2,2.94-12.48.08-1.05.12-2.11.12-3.17,0-1.28-1.98-1.28-1.99,0"/>
        <path class="cls-4" d="m56.34,143.29h-26.18c-1.2,0-2.43-.07-3.63,0-.02,0-.03,0-.05,0l.99.99c.04-.44.08-.88.11-1.32.1-1.2.21-2.39.31-3.59.15-1.77.31-3.54.46-5.31.19-2.15.37-4.3.56-6.44.21-2.36.41-4.73.62-7.09.21-2.39.42-4.77.62-7.16.19-2.22.39-4.45.58-6.67.16-1.88.33-3.76.49-5.64.12-1.35.24-2.7.35-4.05.06-.64.13-1.28.17-1.92,0-.03,0-.06,0-.08.05-.52-.49-1.02-.99-.99-.58.03-.94.44-.99.99-.04.44-.08.88-.11,1.32-.1,1.2-.21,2.39-.31,3.59-.15,1.77-.31,3.54-.46,5.31-.19,2.15-.37,4.29-.56,6.44-.21,2.36-.41,4.73-.62,7.09-.21,2.39-.42,4.77-.62,7.16-.19,2.22-.39,4.45-.58,6.67-.16,1.88-.33,3.76-.49,5.64-.12,1.35-.24,2.7-.35,4.05-.06.64-.13,1.28-.17,1.91,0,.03,0,.06,0,.08-.05.54.49.99.99.99h26.18c1.21,0,2.42.04,3.63,0,.02,0,.03,0,.05,0,.52,0,1.02-.46.99-.99-.02-.54-.44-.99-.99-.99"/>
        <path class="cls-4" d="m34.84,54.19c-1.03-1.03-2.06-2.06-3.09-3.09l-4.95-4.95c-.38-.38-.75-.75-1.13-1.13-.38-.38-1.03-.38-1.4,0-.38.38-.38,1.02,0,1.4,1.03,1.03,2.06,2.06,3.09,3.09,1.65,1.65,3.3,3.3,4.95,4.95.38.38.75.75,1.13,1.13.38.38,1.03.38,1.4,0,.38-.38.38-1.02,0-1.4"/>
        <path class="cls-4" d="m51.06,95.02c.04.44.08.88.11,1.32.1,1.2.21,2.39.31,3.59.15,1.77.31,3.54.46,5.31.19,2.15.37,4.3.56,6.44.21,2.36.41,4.73.62,7.09.21,2.39.42,4.77.62,7.16l.58,6.67c.16,1.88.33,3.76.49,5.64.12,1.35.24,2.7.35,4.05.06.64.09,1.28.17,1.92,0,.03,0,.06,0,.08l.99-.99h-26.18c-1.21,0-2.42-.04-3.63,0-.02,0-.03,0-.05,0-.52,0-1.02.46-.99.99.02.54.44.99.99.99h26.18c1.21,0,2.42.04,3.63,0,.02,0,.03,0,.05,0,.5,0,1.04-.46.99-.99l-.11-1.32c-.1-1.2-.21-2.39-.31-3.59-.15-1.77-.31-3.54-.46-5.31-.19-2.15-.37-4.29-.56-6.44-.21-2.36-.41-4.73-.62-7.09-.21-2.39-.42-4.77-.62-7.16-.19-2.22-.39-4.45-.58-6.67-.16-1.88-.33-3.76-.49-5.64-.12-1.35-.24-2.7-.35-4.05-.06-.64-.11-1.28-.17-1.91,0-.03,0-.06,0-.08-.05-.52-.42-1.02-.99-.99-.5.02-1.04.44-.99.99"/>
        <path class="cls-4" d="m48.81,55.59c1.03-1.03,2.06-2.06,3.09-3.09l4.95-4.95c.38-.38.75-.75,1.13-1.13.38-.38.38-1.03,0-1.4-.38-.38-1.02-.38-1.4,0-1.03,1.03-2.06,2.06-3.09,3.09l-4.95,4.95c-.38.38-.75.75-1.13,1.13-.38.38-.38,1.03,0,1.4.38.38,1.02.38,1.4,0"/>
        <path class="cls-4" d="m26.49,43.57c.52,0,1.02-.46.99-.99-.02-.54-.44-.99-.99-.99-.52,0-1.02.46-.99.99.02.54.44.99.99.99"/>
        <path class="cls-4" d="m61.92,46.93c-1.03-2.5-2.05-5.01-3.08-7.51-.15-.36-.29-.71-.44-1.07-.18-.45-.68-.92-1.22-.69-.83.34-1.66.68-2.48,1.02-.45.18-.92.68-.69,1.22,1.03,2.5,2.05,5.01,3.08,7.51.15.36.29.71.44,1.07.18.45.68.92,1.22.69l2.48-1.02c.5-.2.85-.66.69-1.22-.13-.47-.72-.9-1.22-.69-.83.34-1.66.68-2.48,1.02.41.23.81.46,1.22.69-1.03-2.5-2.05-5.01-3.08-7.51-.15-.36-.29-.71-.44-1.07-.23.41-.46.81-.69,1.22.83-.34,1.66-.68,2.48-1.02-.41-.23-.81-.46-1.22-.69,1.03,2.5,2.05,5.01,3.08,7.51.15.36.29.71.44,1.07.2.5.66.85,1.22.69.47-.13.9-.72.69-1.22"/>
        <path class="cls-4" d="m22.4,47.46c1.03-2.5,2.05-5.01,3.08-7.51.15-.36.29-.71.44-1.07-.41.23-.81.46-1.22.69.83.34,1.66.68,2.48,1.02-.23-.41-.46-.81-.69-1.22-1.03,2.5-2.05,5.01-3.08,7.51-.15.36-.29.71-.44,1.07.41-.23.81-.46,1.22-.69-.83-.34-1.66-.68-2.48-1.02-.48-.2-1.11.21-1.22.69-.13.58.18,1.01.69,1.22.83.34,1.66.68,2.48,1.02.54.22,1.04-.25,1.22-.69,1.03-2.5,2.05-5.01,3.08-7.51.15-.36.29-.71.44-1.07.22-.54-.25-1.04-.69-1.22-.83-.34-1.66-.68-2.48-1.02-.54-.22-1.04.25-1.22.69-1.03,2.5-2.05,5.01-3.08,7.51-.15.36-.29.71-.44,1.07-.2.48.21,1.11.69,1.22.58.13,1.01-.18,1.22-.69"/>
        <path class="cls-4" d="m54.81,43.29c.52,0,1.02-.46.99-.99-.02-.54-.44-.99-.99-.99-.52,0-1.02.46-.99.99.02.54.44.99.99.99"/>
        <path class="cls-4" d="m26.37,43.29c.52,0,1.02-.46.99-.99-.02-.54-.44-.99-.99-.99-.52,0-1.02.46-.99.99.02.54.44.99.99.99"/>
        <path class="cls-4" d="m41.64,31.38h-3.9c-.54,0-.99.45-.99.99v9.92l.99-.99h-11.25c-.52,0-1.02.46-.99.99.02.54.44.99.99.99h11.25c.54,0,.99-.45.99-.99v-9.92l-.99.99h3.9c.52,0,1.02-.46.99-.99-.02-.54-.44-.99-.99-.99"/>
        <path class="cls-4" d="m41.18,33.37h3.9l-.99-.99v9.92c0,.54.45.99.99.99h10.7c.52,0,1.02-.46.99-.99-.02-.54-.44-.99-.99-.99h-10.7l.99.99v-9.92c0-.54-.45-.99-.99-.99h-3.9c-.52,0-1.02.46-.99.99.02.54.44.99.99.99"/>
        <path class="cls-4" d="m42.14,10.48v21.97l.99-.99h-3.44l.99.99V10.48c0-.52-.46-1.02-.99-.99-.54.02-.99.44-.99.99v21.97c0,.54.46.99.99.99h3.44c.54,0,.99-.45.99-.99V10.48c0-.52-.46-1.02-.99-.99-.54.02-.99.44-.99.99"/>
        <path class="cls-4" d="m59.3,10.78c-.02-4.38-2.74-8.46-6.8-10.11-3.94-1.6-8.71-.24-11.39,3.02-1.54,1.87-2.39,4.18-2.41,6.61,0,.52.46,1.02.99.99.54-.02.99-.44.99-.99,0-.23,0-.46.03-.69,0-.11.02-.21.03-.32,0-.06.01-.12.02-.18-.03.2,0-.01.01-.05.07-.46.18-.91.32-1.35.07-.21.15-.42.23-.62.06-.14-.06.14,0,0,.02-.04.04-.08.05-.12.05-.12.11-.24.17-.36.2-.4.44-.79.7-1.16.07-.09.13-.19.21-.28-.11.14.05-.06.09-.1.15-.18.3-.35.46-.52.15-.16.31-.31.47-.45.09-.08.17-.15.26-.23.04-.04.29-.23.14-.12.36-.27.73-.52,1.13-.74.19-.11.39-.21.58-.3.06-.03.34-.15.17-.08.11-.04.22-.09.33-.13.43-.16.88-.28,1.33-.37.12-.02.24-.05.35-.06.04,0,.09-.01.13-.02-.19.03-.03,0,0,0,.24-.03.49-.05.73-.06.23,0,.47,0,.7,0,.11,0,.22.01.32.02.06,0,.12.01.18.02,0,0,.27.03.14.01-.09-.01.18.03.23.04.12.02.24.04.36.07.23.05.47.11.7.18.21.07.43.14.63.22.03.01.2.08.09.03-.1-.04.03.02.05.02.12.06.24.11.36.17.41.21.81.45,1.18.71.1.07.19.14.29.21-.14-.11.07.06.11.1.18.15.36.31.53.48.33.32.65.67.93,1.03-.11-.14.11.16.14.2.08.11.15.22.23.34.14.21.27.43.4.66.12.22.24.45.35.69.03.06.05.11.07.17-.06-.13,0,0,.02.06.05.13.1.25.14.38.17.49.31.99.4,1.5.01.06.02.12.03.18,0,.02.04.27.02.14-.02-.12,0,.07.01.1,0,.08.02.15.02.23.02.28.04.56.04.84,0,.52.45,1.02.99.99.54-.02,1-.44.99-.99"/>
        <path class="cls-4" d="m58.3,11.77c.52,0,1.02-.46.99-.99-.02-.54-.44-.99-.99-.99-.52,0-1.02.46-.99.99.02.54.44.99.99.99"/>
        <path class="cls-4" d="m58.3,11.77c.52,0,1.02-.46.99-.99-.02-.54-.44-.99-.99-.99-.52,0-1.02.46-.99.99.02.54.44.99.99.99"/>
        <path class="cls-4" d="m58.3,9.78h-3.14l.99.99c-.02-3.05-1.81-5.85-4.68-6.97-2.72-1.06-5.9-.06-7.68,2.21-1.07,1.36-1.65,3.02-1.66,4.76,0,.52.46,1.02.99.99.54-.02.99-.44.99-.99,0-.16,0-.32.02-.48,0-.08.01-.16.02-.23,0-.05.04-.25,0-.06.05-.32.12-.63.21-.94.04-.13.08-.26.13-.39,0-.02.12-.29.03-.1.02-.05.05-.11.07-.16.14-.29.3-.58.48-.85.03-.05.07-.1.1-.14.01-.02.19-.25.05-.08.08-.1.17-.2.25-.3.2-.23.43-.43.65-.63.21-.18-.1.07.04-.03.06-.04.12-.08.17-.13.12-.08.24-.16.36-.23.11-.07.22-.13.34-.19.06-.03.13-.06.19-.09.21-.1-.12.04.08-.03.27-.1.55-.19.83-.25.06-.01.11-.02.17-.04.03,0,.32-.05.08-.02.16-.02.33-.03.49-.04.28-.01.57,0,.85.03.29.03-.2-.05.09.01.06.01.12.02.17.03.17.03.34.08.51.13.12.04.25.08.37.13.05.02.22.1.04.01.07.03.13.06.2.09.27.13.53.28.78.45.05.03.09.07.14.1.23.16-.14-.13.07.06.11.09.22.19.32.29.21.2.4.41.58.64-.14-.17.04.06.05.08.05.07.1.14.15.22.09.14.17.27.25.42.08.14.15.29.22.44.12.26-.06-.18.04.09.03.08.06.17.09.25.11.32.19.64.25.97,0,.02.05.33.02.1.01.09.02.19.03.28.02.19.02.38.02.57,0,.54.45.99.99.99h3.14c.52,0,1.02-.46.99-.99-.02-.54-.44-.99-.99-.99"/>
      </g>
    </g>
  </g>
</svg>