<?xml version="1.0" encoding="UTF-8"?>
<svg id="Livello_2" data-name="Livello 2" xmlns="http://www.w3.org/2000/svg" xmlns:xlink="http://www.w3.org/1999/xlink" viewBox="0 0 104.33 144.62">
  <defs>
    <style>
      .cls-1, .cls-2, .cls-3 {
        fill: none;
      }

      .cls-2 {
        clip-path: url(#clippath);
      }

      .cls-3 {
        clip-path: url(#clippath-1);
      }

      .cls-4 {
        fill: #1d1d1c;
      }
    </style>
    <clipPath id="clippath">
      <rect class="cls-1" x="0" width="104.33" height="144.62"/>
    </clipPath>
    <clipPath id="clippath-1">
      <rect class="cls-1" x="0" width="104.33" height="144.62"/>
    </clipPath>
  </defs>
  <g id="specchio">
    <g class="cls-2">
      <g class="cls-3">
        <path class="cls-4" d="m0,72.3c0,7.52.83,15.05,2.54,22.38,1.57,6.72,3.91,13.29,7.05,19.44,2.88,5.64,6.48,10.96,10.82,15.58,3.94,4.2,8.55,7.86,13.7,10.47,5,2.54,10.47,4.09,16.08,4.39,5.51.29,11.09-.65,16.22-2.68,5.37-2.12,10.24-5.31,14.49-9.2,4.55-4.16,8.39-9.1,11.54-14.4,3.47-5.84,6.13-12.17,8.05-18.69,2.07-7.05,3.27-14.36,3.68-21.69.43-7.62-.02-15.28-1.33-22.8-1.21-6.95-3.22-13.75-6.03-20.23-2.59-5.96-5.91-11.59-9.99-16.65-3.7-4.58-8.08-8.65-13.07-11.8-4.7-2.96-9.97-5.08-15.47-5.95-5.53-.87-11.2-.57-16.59.96-5.48,1.55-10.54,4.28-15.03,7.76-4.78,3.7-8.85,8.24-12.27,13.21-3.78,5.48-6.73,11.51-8.98,17.76-2.44,6.79-3.99,13.87-4.8,21.04C.2,64.89,0,68.6,0,72.3c0,1.58,2.46,1.59,2.46,0,.02-13.93,2.87-28.03,9.21-40.49,5.26-10.35,13.07-19.82,23.54-25.19,9.55-4.9,20.65-5.47,30.63-1.5,10.65,4.24,18.97,13.04,24.68,22.77,6.9,11.76,10.46,25.36,11.2,38.92.77,14.14-1.37,28.64-7.03,41.67-4.72,10.86-11.98,21.1-22.11,27.51-4.49,2.84-9.46,4.85-14.71,5.71-5.21.86-10.61.49-15.68-.96-10.81-3.1-19.65-10.95-25.89-20.1-7.53-11.06-11.79-24.23-13.25-37.47-.4-3.61-.59-7.24-.59-10.87C2.46,70.72,0,70.72,0,72.3"/>
        <path class="cls-4" d="m8.64,72.3c0,6.26.69,12.54,2.12,18.64,1.31,5.6,3.26,11.07,5.87,16.19,2.4,4.7,5.4,9.13,9.02,12.98,3.28,3.5,7.13,6.55,11.42,8.73,4.19,2.13,8.76,3.42,13.45,3.67,4.6.24,9.25-.54,13.53-2.23,4.49-1.78,8.56-4.44,12.13-7.7,3.79-3.47,6.99-7.59,9.62-12,2.89-4.86,5.11-10.14,6.7-15.57,1.73-5.87,2.72-11.96,3.06-18.07.35-6.34-.02-12.73-1.11-18.99-1.01-5.79-2.68-11.45-5.03-16.85-2.16-4.97-4.93-9.65-8.33-13.86-3.08-3.82-6.74-7.2-10.89-9.83-3.91-2.47-8.32-4.24-12.89-4.96-4.63-.73-9.37-.48-13.89.79-4.59,1.29-8.82,3.58-12.57,6.49-3.98,3.09-7.37,6.87-10.22,11.01-3.15,4.56-5.6,9.59-7.47,14.8-2.03,5.66-3.32,11.56-3.99,17.53-.34,3.06-.51,6.13-.51,9.21,0,1.58,2.46,1.59,2.46,0,.01-11.53,2.37-23.2,7.62-33.52,4.38-8.6,10.83-16.4,19.47-20.84,3.78-1.94,8.12-3.17,12.33-3.4,4.49-.24,8.72.49,12.94,2.17,4,1.59,7.91,4.21,11.14,7.19,3.67,3.39,6.71,7.33,9.23,11.63,5.71,9.73,8.66,20.99,9.27,32.21.64,11.7-1.12,23.71-5.81,34.5-3.92,9.02-9.96,17.5-18.28,22.77-3.76,2.38-7.73,3.99-12.16,4.72-1,.16-2.03.27-3.18.33-1.14.06-2.28.05-3.42-.02-2.14-.13-4.15-.49-6.32-1.11-8.86-2.54-16.19-8.99-21.37-16.6-6.23-9.15-9.77-20.05-10.97-31.01-.33-3-.49-6.01-.49-9.02,0-1.58-2.46-1.59-2.46,0"/>
        <path class="cls-4" d="m53.23,100.3c.63-1.05,1.26-2.1,1.89-3.16,1.51-2.53,3.02-5.05,4.53-7.58,1.83-3.06,3.65-6.11,5.48-9.17,1.58-2.64,3.16-5.28,4.74-7.92.76-1.28,1.57-2.54,2.3-3.84,0-.02.02-.03.03-.05.34-.57.13-1.35-.44-1.68-.58-.34-1.34-.13-1.68.44-.63,1.05-1.26,2.1-1.89,3.16-1.51,2.53-3.02,5.05-4.53,7.58-1.83,3.06-3.65,6.11-5.48,9.17-1.58,2.64-3.16,5.28-4.74,7.92-.76,1.28-1.58,2.54-2.3,3.84-.01.02-.02.03-.03.05-.34.57-.13,1.35.44,1.68.58.34,1.34.13,1.68-.44"/>
        <path class="cls-4" d="m54.33,113.82c.49-.82.98-1.64,1.47-2.47,1.17-1.96,2.35-3.92,3.52-5.89,1.43-2.39,2.85-4.77,4.28-7.16,1.23-2.06,2.47-4.13,3.7-6.19.6-1,1.23-1.98,1.79-3,0-.02.02-.03.03-.04.34-.57.13-1.35-.44-1.68-.58-.34-1.34-.13-1.68.44-.49.82-.98,1.64-1.47,2.47-1.17,1.96-2.35,3.92-3.52,5.89-1.43,2.39-2.85,4.77-4.28,7.16-1.23,2.06-2.47,4.13-3.7,6.19-.6,1-1.23,1.98-1.79,3,0,.02-.02.03-.03.04-.34.57-.13,1.35.44,1.68.58.34,1.34.13,1.68-.44"/>
      </g>
    </g>
  </g>
</svg>