<?xml version="1.0" encoding="UTF-8"?>
<svg id="Livello_2" data-name="Livello 2" xmlns="http://www.w3.org/2000/svg" xmlns:xlink="http://www.w3.org/1999/xlink" viewBox="0 0 121.84 142.73">
  <defs>
    <style>
      .cls-1, .cls-2, .cls-3 {
        fill: none;
      }

      .cls-2 {
        clip-path: url(#clippath);
      }

      .cls-3 {
        clip-path: url(#clippath-1);
      }

      .cls-4 {
        fill: #1d1d1c;
      }
    </style>
    <clipPath id="clippath">
      <rect class="cls-1" width="121.84" height="142.73"/>
    </clipPath>
    <clipPath id="clippath-1">
      <rect class="cls-1" width="121.84" height="142.73"/>
    </clipPath>
  </defs>
  <g id="specchiera">
    <g class="cls-2">
      <g class="cls-3">
        <path class="cls-4" d="m13.62,49.45c0-5,.78-9.97,2.33-14.73,1.48-4.57,3.68-8.89,6.45-12.8,2.73-3.85,6.06-7.31,9.81-10.18,3.8-2.91,8.04-5.26,12.53-6.9,4.67-1.71,9.58-2.68,14.55-2.86,5-.19,10.01.4,14.83,1.76,4.66,1.32,9.08,3.36,13.13,6.01,3.97,2.61,7.53,5.83,10.56,9.49,3.03,3.65,5.52,7.8,7.31,12.2,1.85,4.55,3.01,9.38,3.39,14.28.38,5.03,0,10.11-1.2,15.01-1.15,4.7-3.01,9.19-5.51,13.32-2.48,4.09-5.57,7.78-9.14,10.95-3.56,3.17-7.61,5.78-11.95,7.76-4.42,2.01-9.2,3.33-14.02,3.88-5,.57-10.09.37-15.02-.63-4.77-.97-9.38-2.67-13.63-5.05-4.16-2.32-7.95-5.26-11.24-8.7-3.31-3.46-6.08-7.41-8.22-11.7-2.17-4.36-3.65-9.05-4.4-13.86-.37-2.4-.54-4.84-.55-7.27,0-1.25-1.94-1.25-1.94,0,0,5.16.8,10.33,2.4,15.25,1.54,4.74,3.8,9.25,6.69,13.31,2.9,4.08,6.4,7.69,10.37,10.74,3.95,3.03,8.36,5.44,13.03,7.15,4.82,1.77,9.92,2.75,15.05,2.95,5.18.2,10.42-.41,15.41-1.83,4.81-1.36,9.41-3.47,13.59-6.21,4.14-2.72,7.88-6.06,11.03-9.89,3.19-3.87,5.77-8.19,7.68-12.83,1.94-4.73,3.1-9.76,3.5-14.85.4-5.2-.02-10.47-1.25-15.53-1.18-4.87-3.13-9.57-5.72-13.85-2.57-4.24-5.78-8.1-9.49-11.39-3.71-3.29-7.9-6.03-12.42-8.07-4.68-2.12-9.64-3.48-14.75-4.08-5.19-.61-10.48-.37-15.6.67-4.93,1-9.71,2.78-14.1,5.22-4.33,2.41-8.31,5.49-11.73,9.08-3.41,3.58-6.3,7.67-8.51,12.1-2.25,4.53-3.82,9.4-4.58,14.4-.39,2.53-.59,5.09-.59,7.65,0,1.25,1.93,1.25,1.94,0"/>
        <path class="cls-4" d="m19.73,49.45c0-4.39.67-8.64,2.03-12.84,1.29-3.96,3.19-7.71,5.63-11.16,2.33-3.28,5.34-6.41,8.53-8.85,3.32-2.54,7.06-4.61,10.92-6.02,4.11-1.5,8.36-2.34,12.68-2.5,4.41-.16,8.69.33,12.93,1.54,4.08,1.16,7.87,2.9,11.44,5.24,3.44,2.26,6.54,5.06,9.2,8.27,2.58,3.11,4.83,6.87,6.36,10.6,1.62,3.98,2.63,8.23,2.95,12.45.34,4.43,0,8.81-1.05,13.09-1.01,4.14-2.6,7.97-4.8,11.61-2.17,3.58-4.82,6.75-7.97,9.55-3.08,2.74-6.61,5.03-10.42,6.76-3.76,1.71-8.09,2.91-12.19,3.38-4.38.5-8.84.32-13.09-.55-4.21-.86-8.16-2.32-11.88-4.4-3.66-2.05-6.9-4.55-9.8-7.58-2.89-3.02-5.28-6.42-7.16-10.2-1.87-3.76-3.17-7.87-3.83-12.08-.31-2.01-.47-4.2-.47-6.32,0-1.25-1.94-1.25-1.94,0,0,4.52.7,9.05,2.1,13.36,1.35,4.15,3.32,8.11,5.86,11.66,2.55,3.58,5.61,6.75,9.1,9.43,3.46,2.66,7.32,4.76,11.42,6.26,4.22,1.55,8.69,2.41,13.19,2.59,4.54.18,9.13-.36,13.5-1.6,4.21-1.19,8.25-3.03,11.9-5.44,3.63-2.39,6.91-5.31,9.67-8.66,2.8-3.4,5.07-7.19,6.74-11.27,1.7-4.14,2.72-8.55,3.06-13.01.35-4.55-.02-9.17-1.1-13.6-1.03-4.26-2.74-8.38-5.01-12.13-2.25-3.71-5.06-7.1-8.31-9.98-3.25-2.88-6.92-5.29-10.87-7.07-4.11-1.86-8.47-3.06-12.95-3.58-4.55-.53-9.18-.32-13.67.59-4.32.87-8.5,2.43-12.35,4.58-3.79,2.11-7.28,4.81-10.28,7.95-2.99,3.13-5.52,6.72-7.45,10.6-1.97,3.97-3.35,8.23-4.02,12.61-.34,2.22-.52,4.47-.52,6.72,0,1.25,1.93,1.25,1.94,0"/>
        <path class="cls-4" d="m12.65,50.41c.51,0,.99-.45.97-.97-.02-.52-.43-.97-.97-.97-.51,0-.99.45-.97.97.02.52.43.97.97.97"/>
        <path class="cls-4" d="m3.39,50.41c.51,0,.99-.45.97-.97-.02-.52-.43-.97-.97-.97-.51,0-.99.45-.97.97.02.52.43.97.97.97"/>
        <path class="cls-4" d="m57.61,126.56v-19.32c0-.51-.45-.99-.97-.97-.52.02-.97.43-.97.97v19.32c0,.51.45.99.97.97.52-.02.97-.43.97-.97"/>
        <path class="cls-4" d="m64.56,106.61v19.95c0,.52.44.97.97.97h13.66c.14,0,.28,0,.43,0,.03,0,.07,0,.1,0,0,0,.02,0,.02,0,0,0,0,0,0,0-.05,0-.11,0-.16,0,.06.02.12.04.18.06.06.02.12.04.18.06.06.02.11.04.17.07-.08-.03-.09-.04-.02,0,.15.07.29.14.43.22.13.07.25.15.37.23.02.01.25.18.08.05.07.05.13.11.19.16.23.2.44.43.64.67.02.03.11.15,0,0,.05.07.1.14.15.21.1.14.19.29.28.44.38.65.5.98.73,1.68.22.69.39,1.39.53,2.1.08.41.53.71.93.71h4.69c-.16-.04-.33-.09-.49-.13.43.21.85.44,1.26.7.2.12.39.25.57.38.11.07.21.15.31.23-.13-.1.08.07.1.09.34.28.66.57.96.89.15.15.29.31.42.48.02.03.24.31.13.16.06.08.13.17.19.25.24.34.46.7.66,1.07.1.19.19.38.28.57.02.04.04.08.05.12-.04-.09-.04-.08,0,.02.04.1.08.2.11.3.15.41.27.83.38,1.25.05.22.1.44.14.65.02.11.04.22.06.34.01.06.02.13.03.19-.01-.09-.01-.08,0,.04l.97-.97H29.31c-.89,0-1.78-.01-2.67,0-.04,0-.08,0-.12,0-.52,0-.97.44-.97.97s.44.97.97.97h65.95c.89,0,1.78.01,2.67,0,.04,0,.08,0,.12,0,.48,0,1.03-.45.97-.97-.36-2.89-1.53-5.59-3.76-7.52-.58-.5-1.2-.95-1.86-1.34-.48-.28-1.03-.66-1.59-.67-.78-.02-1.56,0-2.34,0h-2.24c.31.24.62.47.93.71-.51-2.49-1.41-5.16-3.68-6.58-.61-.38-1.38-.76-2.11-.76h-14.04l.97.97v-19.95c0-.52-.44-.97-.97-.97s-.97.44-.97.97"/>
        <path class="cls-4" d="m7.67,50.41c.51,0,.99-.45.97-.97-.02-.52-.43-.97-.97-.97-.51,0-.99.45-.97.97.02.52.43.97.97.97"/>
        <path class="cls-4" d="m61.13,103.78c.51,0,.99-.45.97-.97-.02-.52-.43-.97-.97-.97-.51,0-.99.45-.97.97.02.52.43.97.97.97"/>
        <path class="cls-4" d="m117.09,49.57c0,5.9-.92,11.76-2.73,17.38-1.74,5.38-4.32,10.48-7.59,15.1-3.22,4.55-7.15,8.64-11.58,12.04-4.47,3.43-9.46,6.2-14.75,8.14-5.47,2-11.24,3.15-17.06,3.37-5.93.23-11.87-.45-17.58-2.05-5.47-1.53-10.68-3.9-15.44-6.99-4.71-3.06-8.95-6.83-12.55-11.15-3.57-4.28-6.52-9.13-8.64-14.28-2.21-5.37-3.59-11.09-4.03-16.88-.11-1.46-.17-2.93-.17-4.39,0-1.25-1.94-1.25-1.94,0,0,6.05.94,12.11,2.82,17.86,1.81,5.54,4.47,10.82,7.87,15.56,3.41,4.75,7.51,8.95,12.16,12.5,4.64,3.53,9.83,6.33,15.31,8.33,5.66,2.06,11.66,3.2,17.67,3.43,6.08.23,12.22-.48,18.08-2.15,5.63-1.6,11.03-4.07,15.92-7.29,4.83-3.18,9.19-7.08,12.87-11.55,3.73-4.53,6.75-9.58,8.98-15.01,2.29-5.57,3.66-11.49,4.12-17.49.12-1.49.17-2.98.17-4.47,0-1.25-1.93-1.25-1.94,0"/>
        <path class="cls-4" d="m113.39,49.57c0,5.51-.86,10.99-2.56,16.23-1.63,5.03-4.05,9.79-7.11,14.11-3.01,4.25-6.69,8.06-10.83,11.23-4.18,3.2-8.86,5.79-13.81,7.6-5.12,1.87-10.51,2.94-15.95,3.15-5.54.21-11.08-.43-16.41-1.94-5.11-1.45-9.97-3.68-14.4-6.59-4.4-2.88-8.34-6.44-11.7-10.49-3.33-4.02-6.07-8.57-8.04-13.4-2.06-5.03-3.34-10.38-3.76-15.8-.1-1.37-.15-2.74-.16-4.11,0-1.25-1.94-1.25-1.94,0,0,5.67.88,11.35,2.63,16.75,1.69,5.21,4.17,10.16,7.35,14.62,3.18,4.48,7.02,8.44,11.37,11.78,4.34,3.33,9.18,5.97,14.31,7.86,5.29,1.94,10.9,3.03,16.53,3.25,5.7.22,11.44-.45,16.93-2.01,5.28-1.5,10.34-3.81,14.92-6.82,4.53-2.98,8.62-6.63,12.07-10.81,3.5-4.24,6.34-8.98,8.44-14.06,2.15-5.21,3.44-10.76,3.87-16.38.11-1.39.16-2.79.16-4.18,0-1.25-1.93-1.25-1.94,0"/>
        <path class="cls-4" d="m109.61,47.12h10.38l-.68-.28c.23.21.38.37.5.57.03.06.06.11.09.17-.04-.09-.04-.08,0,.03.02.11.03.11.01,0,0,.04,0,.09,0,.13,0,.04,0,.09,0,.13.02-.12.01-.12-.01,0-.04.11-.04.11,0,.03-.03.06-.06.12-.09.17-.12.21-.28.37-.5.57l.68-.28h-10.38c-.51,0-.99.44-.97.97.02.52.43.97.97.97h9.82c.17,0,.35,0,.52,0,.85-.04,1.53-1.08,1.78-1.82.34-1.04-.14-2.09-.88-2.82-.26-.26-.52-.44-.9-.45-.06,0-.13,0-.19,0h-5.23c-1.61,0-3.23-.03-4.85,0-.03,0-.06,0-.09,0-.51,0-.99.45-.97.97.02.52.43.97.97.97"/>
        <path class="cls-4" d="m12.23,48.35H1.85l.68.28c-.23-.21-.38-.37-.5-.57-.03-.06-.06-.11-.09-.17.04.09.04.08,0-.03-.02-.11-.03-.11-.01,0,0-.04,0-.09,0-.13,0-.04,0-.09,0-.13-.02.11-.01.12.01,0,.04-.11.04-.11,0-.03.03-.06.06-.12.09-.17.12-.21.28-.37.5-.57l-.68.28h10.38c.51,0,.99-.44.97-.97-.02-.52-.43-.97-.97-.97H2.41c-.17,0-.35,0-.52,0-.85.04-1.53,1.08-1.78,1.82-.34,1.04.14,2.09.88,2.82.26.26.52.44.9.45.06,0,.13,0,.19,0h5.23c1.61,0,3.23.03,4.85,0,.03,0,.06,0,.09,0,.51,0,.99-.45.97-.97-.02-.52-.43-.97-.97-.97"/>
        <path class="cls-4" d="m32.17,132.35c-2.85,1.39-5.06,3.71-6.06,6.74-.29.86-.45,1.75-.56,2.66-.06.5.49.99.97.97.58-.03.9-.43.97-.97.01-.12.02-.12,0-.02,0-.06.02-.12.03-.18.02-.12.04-.24.06-.36.04-.21.08-.41.13-.61.1-.42.22-.84.37-1.26.04-.11.08-.21.12-.32.04-.1.04-.11,0,0,.02-.05.05-.1.07-.16.08-.18.17-.36.26-.53.2-.39.43-.76.68-1.11.06-.08.12-.16.17-.24.07-.09.07-.09,0,0,.04-.04.07-.09.11-.13.14-.16.28-.32.42-.48.3-.32.62-.62.95-.89.08-.07.16-.13.24-.2-.15.11.14-.1.17-.12.19-.13.38-.26.57-.39.42-.27.86-.5,1.3-.72.47-.23.6-.9.35-1.32-.28-.48-.85-.58-1.32-.35"/>
        <path class="cls-4" d="m37.34,132.22h-4.69c-.51,0-.99.45-.97.97.02.52.42.97.97.97h4.69c.51,0,.99-.45.97-.97-.02-.52-.43-.97-.97-.97"/>
        <path class="cls-4" d="m41.77,125.63c-1.58.44-2.86,1.43-3.75,2.81-.86,1.35-1.3,2.94-1.62,4.5-.1.49.14,1.07.68,1.19.48.11,1.08-.15,1.19-.68.15-.72.32-1.45.55-2.15.05-.17.11-.33.18-.5.03-.08.06-.16.09-.24.08-.21-.05.1.04-.08.15-.31.3-.62.48-.92.08-.14.17-.27.27-.41.02-.02.17-.22.09-.13-.08.1.08-.1.1-.12.21-.24.43-.46.68-.66.05-.04.04-.03-.04.03.03-.02.06-.05.1-.07.07-.05.13-.09.2-.14.14-.09.28-.17.42-.24.07-.04.15-.07.23-.11.06-.03.05-.02-.04.01.04-.02.08-.03.12-.05.18-.07.36-.13.55-.18.5-.14.81-.69.68-1.19-.14-.5-.69-.82-1.19-.68"/>
        <path class="cls-4" d="m56.25,125.6h-14.22c-.51,0-.99.45-.97.97.02.52.43.97.97.97h14.22c.51,0,.99-.45.97-.97-.02-.52-.43-.97-.97-.97"/>
      </g>
    </g>
  </g>
</svg>