<?xml version="1.0" encoding="UTF-8"?>
<svg id="Livello_2" data-name="Livello 2" xmlns="http://www.w3.org/2000/svg" xmlns:xlink="http://www.w3.org/1999/xlink" viewBox="0 0 139.29 107.98">
  <defs>
    <style>
      .cls-1, .cls-2, .cls-3 {
        fill: none;
      }

      .cls-2 {
        clip-path: url(#clippath);
      }

      .cls-3 {
        clip-path: url(#clippath-1);
      }

      .cls-4 {
        fill: #1d1d1c;
      }
    </style>
    <clipPath id="clippath">
      <rect class="cls-1" width="139.29" height="107.98"/>
    </clipPath>
    <clipPath id="clippath-1">
      <rect class="cls-1" width="139.29" height="107.98"/>
    </clipPath>
  </defs>
  <g id="stendino">
    <g class="cls-2">
      <g class="cls-3">
        <path class="cls-4" d="m25.77,40.06h83.1c1.12,0,2.24.02,3.37,0,.05,0,.1,0,.15,0,.87,0,1.67-.91,1.37-1.79-.69-1.97-1.37-3.93-2.06-5.9l-3.26-9.35-.75-2.16c-.21-.59-.71-1.04-1.37-1.04H36.04c-.95,0-1.9-.02-2.85,0-.04,0-.08,0-.12,0-.69,0-1.12.45-1.37,1.04l-2.46,5.88c-1.31,3.12-2.61,6.25-3.92,9.37-.3.72-.6,1.44-.9,2.16-.29.69.31,1.59.99,1.74.83.19,1.43-.25,1.74-.99l2.46-5.88c1.31-3.12,2.62-6.25,3.92-9.37.3-.72.6-1.44.9-2.16-.46.35-.91.69-1.37,1.04h70.27c.95,0,1.91.04,2.85,0,.04,0,.08,0,.12,0-.46-.35-.91-.69-1.37-1.04.69,1.97,1.37,3.93,2.06,5.9,1.09,3.12,2.17,6.23,3.26,9.35.25.72.5,1.44.75,2.16.46-.6.91-1.19,1.37-1.79H29.29c-1.12,0-2.24-.02-3.37,0-.05,0-.1,0-.15,0-.74,0-1.45.65-1.42,1.42.03.77.62,1.42,1.42,1.42"/>
        <path class="cls-4" d="m107.31,22.24l6.7-6.7c3.56-3.56,7.12-7.12,10.68-10.68l2.45-2.45h-2l3.97,3.97c2.11,2.11,4.21,4.21,6.32,6.32.48.48.97.97,1.45,1.45.54.54,1.46.54,2,0,.54-.54.54-1.46,0-2-1.32-1.32-2.64-2.64-3.97-3.97-2.11-2.11-4.21-4.21-6.32-6.32-.48-.48-.97-.97-1.45-1.45-.54-.54-1.46-.54-2,0l-6.7,6.7c-3.56,3.56-7.12,7.12-10.68,10.68l-2.45,2.45c-.54.54-.54,1.46,0,2,.54.54,1.46.54,2,0"/>
        <path class="cls-4" d="m113.38,39.65l2.53-2.53c2.03-2.03,4.06-4.06,6.09-6.09,2.45-2.45,4.91-4.91,7.36-7.36,2.12-2.12,4.25-4.25,6.37-6.37,1.03-1.03,2.1-2.04,3.1-3.1.01-.02.03-.03.04-.04.54-.54.54-1.46,0-2-.54-.54-1.46-.54-2,0l-2.53,2.53c-2.03,2.03-4.06,4.06-6.09,6.09-2.45,2.45-4.91,4.91-7.36,7.36-2.12,2.12-4.25,4.25-6.37,6.37-1.03,1.03-2.1,2.04-3.1,3.1-.01.02-.03.03-.04.04-.54.54-.54,1.46,0,2,.54.54,1.46.54,2,0"/>
        <path class="cls-4" d="m111.16,15.89c.98,1.66,1.96,3.33,2.94,4.99,1.56,2.65,3.12,5.3,4.69,7.95.36.61.72,1.22,1.08,1.83.39.66,1.28.89,1.94.51.66-.39.9-1.28.51-1.94-.98-1.66-1.96-3.33-2.94-4.99-1.56-2.65-3.12-5.3-4.69-7.95-.36-.61-.72-1.22-1.08-1.83-.39-.66-1.28-.89-1.94-.51-.66.39-.9,1.28-.51,1.94"/>
        <path class="cls-4" d="m118.6,8.45c1.14,1.5,2.28,2.99,3.42,4.49,1.82,2.39,3.65,4.78,5.47,7.16.42.55.85,1.11,1.27,1.66.46.61,1.22.93,1.94.51.6-.35.97-1.33.51-1.94-1.14-1.5-2.28-2.99-3.42-4.49-1.82-2.39-3.65-4.78-5.47-7.16-.42-.55-.85-1.11-1.27-1.66-.46-.61-1.22-.93-1.94-.51-.6.35-.97,1.33-.51,1.94"/>
        <path class="cls-4" d="m34.06,20.24l-6.59-6.59c-3.47-3.47-6.95-6.95-10.42-10.42-.8-.8-1.6-1.6-2.4-2.4-.54-.54-1.46-.55-2,0-1.38,1.4-2.76,2.81-4.14,4.21-2.2,2.23-4.4,4.47-6.59,6.7-.5.51-1.01,1.02-1.51,1.53-.54.55-.55,1.46,0,2,.81.81,1.62,1.62,2.42,2.42,1.94,1.94,3.88,3.88,5.82,5.82,2.35,2.35,4.69,4.69,7.04,7.04l6.09,6.09c.98.98,1.94,2,2.95,2.95.02.01.03.03.04.04.54.54,1.46.54,2,0,.54-.54.54-1.46,0-2l-2.42-2.42-5.82-5.82c-2.35-2.35-4.69-4.69-7.04-7.04-2.03-2.03-4.06-4.06-6.09-6.09-.98-.98-1.91-2.03-2.95-2.95-.02-.01-.03-.03-.04-.04v2c1.38-1.4,2.76-2.81,4.14-4.21,2.2-2.23,4.4-4.47,6.59-6.7.5-.51,1.01-1.02,1.51-1.53h-2c2.2,2.2,4.39,4.39,6.59,6.59,3.47,3.47,6.95,6.95,10.42,10.42.8.8,1.6,1.6,2.4,2.4.54.54,1.46.54,2,0,.54-.54.54-1.46,0-2"/>
        <path class="cls-4" d="m19.49,7.67c-1.21,1.56-2.42,3.12-3.64,4.67-1.94,2.5-3.89,5-5.83,7.49-.44.57-.89,1.14-1.33,1.72-.47.6-.59,1.41,0,2,.49.49,1.53.61,2,0,1.21-1.56,2.42-3.12,3.64-4.67,1.94-2.5,3.89-5,5.83-7.5.45-.57.89-1.14,1.33-1.72.47-.6.59-1.41,0-2-.49-.49-1.53-.61-2,0"/>
        <path class="cls-4" d="m26.21,14.9c-1.04,1.73-2.09,3.47-3.13,5.2-1.66,2.77-3.33,5.53-4.99,8.3-.38.64-.77,1.28-1.15,1.91-.39.66-.15,1.55.51,1.94.67.39,1.54.15,1.94-.51,1.04-1.73,2.09-3.47,3.13-5.2,1.66-2.77,3.33-5.53,4.99-8.3.38-.64.77-1.28,1.15-1.91.39-.66.15-1.55-.51-1.94-.67-.39-1.54-.15-1.94.51"/>
        <path class="cls-4" d="m29.34,33.58h77.13c1.04,0,2.08.02,3.13,0,.04,0,.09,0,.14,0,.74,0,1.45-.65,1.42-1.42-.03-.77-.62-1.42-1.42-1.42H32.6c-1.04,0-2.08-.02-3.13,0-.04,0-.09,0-.14,0-.74,0-1.45.65-1.42,1.42.03.77.62,1.42,1.42,1.42"/>
        <path class="cls-4" d="m32.19,27.92h71.81c.97,0,1.95.02,2.92,0,.04,0,.08,0,.13,0,.74,0,1.45-.65,1.42-1.42-.03-.77-.62-1.42-1.42-1.42H35.23c-.97,0-1.95-.02-2.92,0-.04,0-.08,0-.13,0-.74,0-1.45.65-1.42,1.42.03.77.62,1.42,1.42,1.42"/>
        <path class="cls-4" d="m26.43,39.93c.61.61,1.21,1.21,1.82,1.82,1.64,1.64,3.27,3.27,4.91,4.91,2.44,2.44,4.87,4.87,7.31,7.31,2.95,2.95,5.9,5.9,8.85,8.85,3.24,3.24,6.49,6.49,9.73,9.73l9.82,9.82c3.05,3.05,6.1,6.1,9.16,9.16,2.58,2.58,5.16,5.16,7.74,7.74l5.56,5.56c.88.88,1.74,1.77,2.63,2.63.04.04.07.07.11.11.87.87,2.42.23,2.42-1v-22.55c0-.73.08-1.39-.46-1.98-.86-.94-1.81-1.81-2.71-2.71-2-2-4-4-6-6-2.67-2.67-5.34-5.34-8-8-2.91-2.91-5.81-5.81-8.72-8.72-2.72-2.72-5.45-5.45-8.17-8.17-2.09-2.09-4.18-4.18-6.28-6.28-1.04-1.04-2.08-2.08-3.12-3.12-.05-.05-.09-.09-.14-.14-.54-.54-1.46-.54-2,0-.54.54-.54,1.46,0,2l4.31,4.31,10.29,10.29,12.51,12.51c3.59,3.59,7.17,7.17,10.76,10.76l3.57,3.56c.56.56,1.1,1.15,1.69,1.69.02.02.05.05.07.07-.14-.33-.28-.67-.41-1v23.49c.81-.33,1.61-.67,2.42-1-.61-.61-1.21-1.21-1.82-1.82-1.64-1.64-3.27-3.27-4.91-4.91-2.44-2.44-4.87-4.87-7.31-7.31-2.95-2.95-5.9-5.9-8.85-8.85-3.24-3.24-6.49-6.49-9.73-9.73-3.27-3.27-6.55-6.55-9.82-9.82-3.05-3.05-6.1-6.1-9.16-9.16-2.58-2.58-5.16-5.16-7.74-7.74-1.85-1.85-3.71-3.71-5.56-5.56-.88-.88-1.74-1.77-2.63-2.63-.04-.04-.07-.07-.11-.11-.54-.54-1.46-.54-2,0-.54.54-.54,1.46,0,2"/>
        <path class="cls-4" d="m110.79,37.93c-.6.6-1.2,1.2-1.81,1.81-1.63,1.63-3.26,3.26-4.9,4.9l-7.23,7.23c-2.94,2.94-5.88,5.88-8.82,8.82-3.22,3.22-6.44,6.44-9.66,9.66s-6.53,6.53-9.79,9.79c-3.02,3.02-6.04,6.04-9.07,9.07l-7.71,7.71c-1.84,1.84-3.68,3.68-5.53,5.53-.87.87-1.77,1.72-2.62,2.62-.04.04-.07.07-.11.11.81.33,1.61.67,2.42,1v-22.31c-.14.33-.28.67-.41,1,1.49-1.49,2.97-2.98,4.46-4.46l10.72-10.72c4.32-4.32,8.64-8.64,12.96-12.96,3.73-3.73,7.47-7.47,11.2-11.2,1.81-1.81,3.67-3.58,5.44-5.44.02-.03.05-.05.08-.07.54-.54.54-1.46,0-2-.54-.54-1.46-.54-2,0-.72.72-1.43,1.43-2.15,2.15-1.87,1.87-3.74,3.74-5.61,5.61-2.61,2.61-5.22,5.22-7.83,7.83l-8.8,8.8c-2.83,2.83-5.66,5.66-8.5,8.5-2.34,2.34-4.69,4.69-7.03,7.03-1.41,1.41-2.82,2.82-4.23,4.23-.23.23-.48.45-.7.7-.58.65-.42,1.66-.42,2.48v20.84c0,1.23,1.55,1.87,2.42,1,.6-.6,1.2-1.2,1.81-1.81,1.63-1.63,3.26-3.26,4.9-4.9l7.23-7.23c2.94-2.94,5.88-5.88,8.82-8.82,3.22-3.22,6.44-6.44,9.66-9.66,3.26-3.26,6.53-6.53,9.79-9.79,3.02-3.02,6.04-6.04,9.07-9.07,2.57-2.57,5.14-5.14,7.71-7.71,1.84-1.84,3.68-3.68,5.53-5.53.87-.87,1.76-1.73,2.62-2.62.04-.04.08-.07.11-.11.54-.54.54-1.46,0-2-.54-.54-1.46-.54-2,0"/>
        <path class="cls-4" d="m44.54,93.72c.74,0,1.45-.65,1.42-1.42-.03-.77-.62-1.42-1.42-1.42-.74,0-1.45.65-1.42,1.42.03.77.62,1.42,1.42,1.42"/>
      </g>
    </g>
  </g>
</svg>