<?xml version="1.0" encoding="UTF-8"?>
<svg id="Livello_2" data-name="Livello 2" xmlns="http://www.w3.org/2000/svg" xmlns:xlink="http://www.w3.org/1999/xlink" viewBox="0 0 110.96 127.34">
  <defs>
    <style>
      .cls-1, .cls-2, .cls-3 {
        fill: none;
      }

      .cls-2 {
        clip-path: url(#clippath);
      }

      .cls-3 {
        clip-path: url(#clippath-1);
      }

      .cls-4 {
        fill: #1d1d1c;
      }
    </style>
    <clipPath id="clippath">
      <rect class="cls-1" width="110.96" height="127.34"/>
    </clipPath>
    <clipPath id="clippath-1">
      <rect class="cls-1" width="110.96" height="127.34"/>
    </clipPath>
  </defs>
  <g id="stufa">
    <g class="cls-2">
      <g class="cls-3">
        <path class="cls-4" d="m1.93,36.18h102.57c1.38,0,2.77.05,4.16,0,.06,0,.12,0,.18,0l-1.93-1.93c.13,1.18.2,2.37.19,3.56,0,.54-.03,1.09-.07,1.63-.02.26-.05.51-.08.77.04-.34-.04.27-.07.39-.08.44-.18.87-.31,1.3-.06.19-.13.38-.19.57-.04.11-.17.29.03-.07-.04.08-.08.16-.12.24-.08.15-.18.29-.26.44-.14.27.05-.05.09-.1-.05.06-.1.12-.15.17-.05.05-.11.1-.16.15-.2.23.12-.22.14-.1.02.09-.67.3-.03.06-.02,0-.13.05-.14.04-.27-.14.22.15.21-.02,0,.03-.41-.02-.42,0,.1.01.19.02.29.03-.17-.02-.34-.05-.51-.07h0s-.01,0-.02,0c-.07,0-.13,0-.2,0-.34,0-.67,0-1.01,0h-41.13c-2.5,0-5.01-.07-7.51,0-.04,0-.07,0-.11,0-1.01,0-1.97.89-1.93,1.93.05,1.04.85,1.93,1.93,1.93h49.64c.09,0,.18,0,.27,0,.02,0,.04,0,.06,0,.07-.02,4.78.76-.39-.05.29.05.59.1.89.09,4.42-.09,5.08-6.07,5.11-9.35.01-1.19-.06-2.38-.19-3.56-.11-1.04-.79-1.93-1.93-1.93H6.27c-1.38,0-2.77-.03-4.16,0-.06,0-.12,0-.18,0-1.01,0-1.97.89-1.93,1.93.05,1.04.85,1.93,1.93,1.93"/>
        <path class="cls-4" d="m109.03,32.33H6.45c-1.38,0-2.77-.03-4.16,0-.06,0-.12,0-.18,0-1.12,0-1.82.89-1.93,1.93-.26,2.4-.26,4.81.14,7.19.28,1.67.87,3.56,2.21,4.7.74.63,1.64,1.03,2.63,1.02.28,0,.56-.08.84-.1.01,0-.43.04-.39.05.02,0,.04,0,.06,0,.24.05.54,0,.78,0h41.22c2.59,0,5.2.08,7.79,0,.04,0,.07,0,.11,0,1.01,0,1.97-.89,1.93-1.93-.05-1.04-.85-1.93-1.93-1.93H7.58c-.65,0-1.31-.03-1.97,0-.22.01-.8.06-.38.05.37,0-.16-.02-.23-.01.78-.1-.07.08-.03-.05,0,.02.48.18.19.07-.02,0-.17-.1-.17-.11.01-.05.36.38.14.1-.03-.04-.08-.08-.12-.12-.05-.05-.1-.12-.15-.17-.17-.15.17.33.09.11-.06-.17-.21-.33-.29-.49-.04-.08-.08-.16-.12-.24.03.06.15.4.03.07-.07-.19-.14-.38-.19-.57-.13-.43-.23-.86-.31-1.3-.01-.08-.11-.75-.07-.39-.03-.25-.06-.51-.08-.77-.04-.54-.07-1.09-.07-1.63-.01-1.19.06-2.38.19-3.56l-1.93,1.93h102.57c1.38,0,2.77.03,4.16,0,.06,0,.12,0,.18,0,1.01,0,1.97-.89,1.93-1.93-.05-1.04-.85-1.93-1.93-1.93"/>
        <path class="cls-4" d="m103.43,45.21v76.92c0,1.04-.05,2.1,0,3.14,0,.04,0,.09,0,.13l1.93-1.93H9.66c-1.29,0-2.6-.05-3.89,0-.06,0-.11,0-.17,0l1.93,1.93V55.05c0-3.23.09-6.48,0-9.71,0-.04,0-.09,0-.13,0-1.01-.89-1.97-1.93-1.93-1.04.05-1.93.85-1.93,1.93v70.36c0,3.23-.09,6.48,0,9.71,0,.04,0,.09,0,.13,0,1.04.88,1.93,1.93,1.93h95.69c1.3,0,2.59.03,3.89,0,.06,0,.11,0,.17,0,1.04,0,1.93-.88,1.93-1.93V55.05c0-3.23.09-6.48,0-9.71,0-.04,0-.09,0-.13,0-1.01-.89-1.97-1.93-1.93-1.04.05-1.93.85-1.93,1.93"/>
        <path class="cls-4" d="m78.68,61.96v40.92c0,1.89-.11,3.81,0,5.69,0,.03,0,.06,0,.08l1.93-1.93h-44.04c-2.03,0-4.1-.12-6.13,0-.03,0-.06,0-.08,0l1.93,1.93v-40.92c0-1.89.11-3.81,0-5.69,0-.03,0-.06,0-.08l-1.93,1.93h44.04c2.04,0,4.09.07,6.13,0,.03,0,.06,0,.08,0,1.01,0,1.97-.89,1.93-1.93-.05-1.04-.85-1.93-1.93-1.93h-44.04c-2.04,0-4.09-.07-6.13,0-.03,0-.06,0-.08,0-1.04,0-1.93.88-1.93,1.93v40.92c0,1.89-.06,3.8,0,5.69,0,.03,0,.06,0,.08,0,1.04.88,1.93,1.93,1.93h44.04c2.04,0,4.09.07,6.13,0,.03,0,.06,0,.08,0,1.04,0,1.93-.88,1.93-1.93v-40.92c0-1.89.06-3.8,0-5.69,0-.03,0-.06,0-.08,0-1.01-.89-1.97-1.93-1.93-1.04.05-1.93.85-1.93,1.93"/>
        <path class="cls-4" d="m15.58,72.82v21.03c0,1.01.89,1.97,1.93,1.93,1.04-.05,1.93-.85,1.93-1.93v-21.03c0-1.01-.89-1.97-1.93-1.93-1.04.05-1.93.85-1.93,1.93"/>
        <path class="cls-4" d="m53.5,83c-1.06,2.72-2.13,5.44-3.19,8.16-.57,1.46-1.14,2.92-1.71,4.39-.62,1.6-.15,3.55.7,4.99,2.29,3.89,8.12,4.52,11.25,1.27.81-.85,1.41-1.91,1.71-3.05.22-.83.43-1.93.14-2.77-.42-1.2-.94-2.37-1.41-3.55-1.25-3.15-2.51-6.3-3.76-9.45-.38-.97-1.29-1.64-2.37-1.35-.92.25-1.73,1.4-1.35,2.37,1,2.5,1.99,5.01,2.99,7.51.6,1.5,1.19,2.99,1.79,4.49.13.34.23.76.42,1.06,0,.01.01.05.03.06-.19-.15-.02-.59-.07-.22-.01.1-.03.25-.02.35.03.28.09-.47,0-.05-.03.13-.05.25-.08.38-.04.17-.09.57-.22.71.26-.27.12-.24,0-.03-.06.1-.11.2-.16.3-.04.06-.08.13-.12.19-.1.17-.11.38.04-.03-.06.17-.31.36-.44.48-.05.05-.11.1-.16.14-.37.35.24-.12-.03.03-.15.08-.3.19-.45.28-.09.05-.19.09-.28.14-.34.19.44-.14.07-.03-.17.05-.33.11-.5.16-.1.03-.21.05-.31.07-.45.11.15,0,.04,0-.37.02-.73.03-1.11.02-.45-.02.09.02.09.02-.01.02-.29-.05-.31-.06-.21-.05-.41-.11-.61-.17-.34-.1-.12.07.07.04-.06,0-.23-.11-.29-.14-.16-.08-.3-.18-.46-.27-.43-.25.23.25-.12-.09-.19-.17-.35-.36-.53-.54-.26-.27.18.3.07.08-.04-.08-.11-.16-.16-.23-.11-.17-.29-.41-.32-.61,0,.03.14.45.06.13-.03-.12-.08-.23-.11-.35-.07-.25-.12-.5-.16-.75.09.55.02.08.01-.03-.03-.52.1-.03-.08.08,0,0,.01-.04.02-.05.07-.11.1-.27.15-.38.5-1.28,1-2.57,1.5-3.85,1.15-2.95,2.31-5.9,3.46-8.85.37-.94-.4-2.16-1.35-2.37-1.11-.25-1.98.34-2.37,1.35"/>
        <path class="cls-4" d="m53.45,66.08c-2.14,5.48-4.29,10.97-6.43,16.45-1.18,3.03-2.37,6.06-3.55,9.09-.27.68-.61,1.33-.62,2.08-.03,2.26.55,4.62,1.65,6.6,3.95,7.13,14.67,8.24,20.16,2.28,1.43-1.56,2.45-3.48,2.92-5.55.31-1.35.69-3.07.16-4.41-.99-2.5-1.99-4.99-2.98-7.49-2.48-6.22-4.95-12.44-7.43-18.67-.05-.13-.1-.26-.15-.39-.38-.97-1.29-1.64-2.37-1.35-.92.25-1.73,1.4-1.35,2.37,2.1,5.26,4.19,10.53,6.29,15.79,1.22,3.07,2.44,6.13,3.66,9.2.24.61.42,1.35.76,1.91.12.2-.03-.66-.05-.02,0,.28-.02.56-.05.84-.01.14-.03.27-.04.41.05-.56,0-.04-.02.08-.08.48-.19.96-.33,1.43-.06.2-.12.39-.19.58-.04.11-.09.22-.13.34-.11.32.2-.4-.04.08-.19.38-.38.75-.6,1.11-.12.19-.25.37-.38.55-.22.34.3-.34.03-.04-.1.11-.19.23-.28.34-.26.3-.54.58-.84.84-.08.07-.57.47-.3.26.27-.21-.01,0-.06.04-.12.08-.23.16-.35.24-.32.21-.66.41-1,.59-.13.07-.43.28-.57.27.27.01.36-.14.07-.03-.13.05-.26.1-.4.15-.37.13-.74.23-1.11.32-.21.05-.41.09-.62.13-.07.01-.14.02-.21.03-.34.07.52-.05-.01,0-.85.08-1.68.08-2.53,0-.54-.05.41.08-.12-.02-.21-.04-.42-.08-.62-.12-.41-.09-.82-.21-1.22-.35-.17-.06-.45-.11-.59-.23.36.28.26.12.07.02-.1-.05-.19-.09-.29-.14-.38-.19-.75-.4-1.1-.64-.15-.1-.29-.21-.43-.31-.32-.22.35.3.05.04-.08-.07-.16-.14-.25-.21-.33-.28-.63-.59-.92-.91-.07-.08-.14-.17-.21-.25-.12-.14-.33-.25.03.04-.15-.12-.28-.38-.38-.55-.25-.39-.46-.79-.67-1.2-.07-.14-.28-.4,0,.03-.05-.08-.08-.19-.11-.28-.08-.21-.15-.42-.22-.63-.15-.48-.27-.98-.36-1.48-.02-.13-.04-.26-.06-.39.09.55.02.09,0-.02-.03-.28-.05-.55-.06-.83,0-.1.02-.26,0-.36-.07-.21.31-.04-.07.29.01-.01.01-.04.02-.05.11-.18.17-.43.24-.62,1.03-2.63,2.05-5.25,3.08-7.88,2.35-6.01,4.7-12.03,7.05-18.04.05-.12.09-.24.14-.36.37-.94-.4-2.16-1.35-2.37-1.11-.25-1.98.34-2.37,1.35"/>
        <path class="cls-4" d="m7.53,32.43v-8.96l-1.93,1.93h95.69c1.29,0,2.6.05,3.89,0,.06,0,.11,0,.17,0l-1.93-1.93v8.96l1.93-1.93H9.66c-1.3,0-2.59-.03-3.89,0-.06,0-.11,0-.17,0-1.01,0-1.97.89-1.93,1.93.05,1.04.85,1.93,1.93,1.93h95.69c1.3,0,2.59.03,3.89,0,.06,0,.11,0,.17,0,1.04,0,1.93-.88,1.93-1.93v-8.96c0-1.04-.88-1.93-1.93-1.93H9.66c-1.3,0-2.59-.03-3.89,0-.06,0-.11,0-.17,0-1.04,0-1.93.88-1.93,1.93v8.96c0,1.01.89,1.97,1.93,1.93,1.04-.05,1.93-.85,1.93-1.93"/>
        <path class="cls-4" d="m29.09,22.96V1.93l-1.93,1.93h10.98l-1.93-1.93v21.03l1.93-1.93h-10.98c-1.01,0-1.97.89-1.93,1.93.05,1.04.85,1.93,1.93,1.93h10.98c1.04,0,1.93-.88,1.93-1.93V1.93C40.07.89,39.19,0,38.15,0h-10.98c-1.04,0-1.93.88-1.93,1.93v21.03c0,1.01.89,1.97,1.93,1.93,1.04-.05,1.93-.85,1.93-1.93"/>
      </g>
    </g>
  </g>
</svg>