<?xml version="1.0" encoding="UTF-8"?>
<svg id="Livello_2" data-name="Livello 2" xmlns="http://www.w3.org/2000/svg" xmlns:xlink="http://www.w3.org/1999/xlink" viewBox="0 0 138.98 92.45">
  <defs>
    <style>
      .cls-1, .cls-2, .cls-3 {
        fill: none;
      }

      .cls-2 {
        clip-path: url(#clippath);
      }

      .cls-3 {
        clip-path: url(#clippath-1);
      }

      .cls-4 {
        fill: #1d1d1c;
      }
    </style>
    <clipPath id="clippath">
      <rect class="cls-1" x="0" y="0" width="138.98" height="92.45"/>
    </clipPath>
    <clipPath id="clippath-1">
      <rect class="cls-1" x="0" y="0" width="138.98" height="92.45"/>
    </clipPath>
  </defs>
  <g id="tapis_roulant" data-name="tapis roulant">
    <g class="cls-2">
      <g class="cls-3">
        <path class="cls-4" d="m3.96,90.46c0-1.58.1-3.15.31-4.71-.05.39.02-.11.04-.24.03-.17.05-.34.08-.51.07-.4.14-.79.22-1.19.15-.76.33-1.51.53-2.25.4-1.49.91-2.93,1.48-4.36.01-.03.12-.29.03-.08-.1.23.04-.1.07-.16.07-.16.14-.31.21-.47.16-.36.33-.72.51-1.08.34-.69.7-1.37,1.08-2.04.76-1.34,1.61-2.64,2.52-3.89.12-.16.24-.32.36-.48.05-.07.1-.14.16-.21-.02.02-.19.24-.05.06.25-.32.5-.63.76-.94.5-.6,1.02-1.19,1.55-1.76,1.08-1.16,2.22-2.25,3.41-3.29.29-.25.58-.5.88-.74.16-.13.32-.26.48-.39.07-.06.14-.11.21-.17.03-.02.31-.25.15-.12-.17.13.07-.05.08-.06.1-.07.19-.14.28-.22.14-.11.29-.21.43-.32.34-.25.68-.49,1.02-.73,1.34-.93,2.73-1.78,4.16-2.56.72-.4,1.46-.77,2.2-1.13.36-.17.72-.34,1.09-.51.2-.09.39-.18.59-.26.09-.04.6-.26.3-.13,3.15-1.32,6.44-2.31,9.79-2.98.86-.17,1.72-.32,2.59-.45.09-.01.68-.09.35-.05.2-.03.39-.05.59-.07.46-.05.92-.1,1.38-.15,1.74-.16,3.48-.24,5.22-.23,2.09,0,4.19.13,6.27.31,1.17.1,2.34.23,3.5.37.31.04.63.08.94.12.14.02.27.03.41.05.07,0,.14.02.2.03.27.03-.51-.07-.05,0,.63.09,1.25.18,1.88.27,2.65.4,5.29.87,7.92,1.4,5.72,1.15,11.39,2.57,16.98,4.23,5.74,1.7,11.41,3.65,16.96,5.92.33.13.65.27.98.4.15.06.3.13.45.19-.39-.16.15.06.27.12.67.28,1.33.57,1.99.87,1.3.58,2.59,1.18,3.86,1.8,2.44,1.19,4.83,2.46,7.16,3.84,2.14,1.27,4.23,2.63,6.22,4.12.12.09.24.18.37.28.3.22-.28-.22.01,0,.24.19.47.37.7.56.44.36.87.72,1.3,1.09.81.71,1.6,1.45,2.35,2.22.7.73,1.35,1.5,2,2.28.14.16-.16-.21-.14-.19.05.05.09.12.13.17.06.09.13.17.19.26.15.2.29.4.43.6.26.38.51.77.75,1.17.23.39.45.78.65,1.18.09.19.19.38.27.57.04.09.08.23.14.31-.15-.2-.15-.38-.03-.07.3.79.56,1.59.73,2.42.04.2.07.39.11.59.07.41-.02-.23-.01-.12,0,.09.02.18.03.27.04.41.06.82.06,1.24.66-.66,1.32-1.32,1.98-1.98H7.46c-1.75,0-3.5-.03-5.25,0-.08,0-.15,0-.23,0C.91,88.48,0,89.39,0,90.46s.91,1.98,1.98,1.98h129.53c1.75,0,3.5.03,5.25,0,.08,0,.15,0,.23,0,1.07,0,1.98-.91,1.98-1.98-.01-3.91-1.66-7.58-4.01-10.64-2.92-3.81-6.68-6.87-10.66-9.53-4.57-3.06-9.48-5.58-14.49-7.82-5.65-2.52-11.46-4.7-17.35-6.59-5.77-1.85-11.63-3.44-17.54-4.76-5.43-1.21-10.92-2.19-16.45-2.84-5.2-.61-10.44-.89-15.65-.3-7.14.8-14.09,2.91-20.37,6.44-5.88,3.31-11.04,7.82-14.99,13.29-3.85,5.32-6.31,11.54-7.16,18.05C.11,87.31,0,88.88,0,90.46c0,1.07.91,1.98,1.98,1.98s1.98-.91,1.98-1.98"/>
        <path class="cls-4" d="m36.88,70.12c0-.18,0-.37.02-.55,0-.06.1-.64.01-.19.06-.35.14-.69.25-1.03.05-.17.11-.33.18-.49-.16.42.06-.11.08-.16.18-.36.4-.7.63-1.02-.22.31,0,0,.06-.07.1-.11.19-.21.29-.32.24-.25.49-.48.76-.69-.35.27.11-.06.15-.09.14-.09.29-.18.44-.27.15-.09.31-.16.46-.24.21-.09.21-.1,0,0,.11-.04.22-.08.33-.12.3-.1.62-.19.93-.25.1-.02.49-.08.09-.03.18-.02.36-.04.54-.04.37-.02.73,0,1.09.03.57.04-.36-.11.18.03.23.06.46.1.69.17.17.05.33.11.5.16.52.17-.32-.19.16.07.25.13.51.26.75.41.15.09.29.19.43.29-.36-.25.09.08.13.12.3.26.57.55.83.85.36.41-.18-.32.1.14.09.15.19.28.28.43.09.15.17.3.25.45.03.05.25.57.08.16.11.27.2.55.27.83.05.17.08.34.12.52.04.23.04.23.01,0,.01.12.03.24.03.36.03.36.03.73,0,1.1,0,.06-.1.64-.01.19-.03.17-.06.35-.11.52-.07.29-.16.56-.25.84-.17.52.19-.32-.07.17-.11.2-.21.41-.32.61-.09.15-.19.29-.28.43-.29.46.25-.26-.1.14-.23.26-.45.51-.71.74-.13.12-.26.23-.39.33.35-.27-.11.06-.15.09-.29.19-.59.35-.9.51-.48.26.36-.1-.16.07-.17.05-.33.12-.5.16-.17.05-.34.09-.51.13-.06.01-.64.11-.18.05-.36.05-.73.06-1.09.05-.18,0-.36-.02-.54-.03-.47-.03.23.07-.18-.03-.4-.1-.79-.2-1.18-.33-.52-.17.32.19-.16-.07-.2-.11-.41-.21-.61-.33-.15-.09-.29-.19-.43-.28-.18-.13-.19-.13-.01,0-.09-.07-.18-.14-.26-.22-.26-.22-.5-.47-.72-.72-.04-.05-.37-.49-.12-.13-.13-.19-.26-.38-.38-.57-.09-.15-.17-.3-.25-.45-.05-.1-.1-.21-.15-.31.09.21.09.21,0,0-.13-.39-.23-.78-.33-1.18-.14-.54,0,.38-.03-.18-.02-.24-.03-.48-.03-.73-.01-1.04-.9-2.03-1.98-1.98-1.06.05-1.99.87-1.98,1.98.05,4.07,2.59,7.6,6.39,9,3.61,1.34,7.96.13,10.41-2.83,2.57-3.09,3.03-7.55.95-11.04-2.09-3.51-6.19-5.24-10.17-4.47-4.4.85-7.52,4.93-7.58,9.33-.01,1.04.92,2.03,1.98,1.98,1.08-.05,1.97-.87,1.98-1.98"/>
        <path class="cls-4" d="m40.55,70.65c.98,3.87,1.96,7.74,2.94,11.61.14.55.28,1.11.42,1.66.26,1.04,1.42,1.66,2.44,1.38,1.05-.29,1.65-1.4,1.38-2.44-.98-3.87-1.96-7.74-2.94-11.61-.14-.55-.28-1.11-.42-1.66-.26-1.04-1.42-1.66-2.44-1.38-1.05.29-1.65,1.4-1.38,2.44"/>
        <path class="cls-4" d="m39.2,85.97l11.57-1.04,1.67-.15c1.03-.09,2.03-.84,1.98-1.98-.04-.99-.88-2.08-1.98-1.98-3.86.35-7.72.7-11.57,1.04-.56.05-1.11.1-1.67.15-1.03.09-2.03.84-1.98,1.98.04.99.88,2.08,1.98,1.98"/>
        <path class="cls-4" d="m44.36,49.17v-13.16l-1.98,1.98h7.26c.31,0,.63.02.95,0,1.07-.07,1.73-.84,2.19-1.72.44-.85.74-1.8.67-2.77-.33-4.33-5.77-5.78-9.28-6.38-4.84-.83-9.93-.86-14.76.09-3.31.65-8.64,2.55-7.52,6.95.25,1,.86,1.87,1.53,2.63.79.88,1.96,2.06,3.18,1.99,2.62-.15,5.25-.48,7.87-.72.25-.02.49-.04.74-.07l-1.98-1.98v14.97c0,1.04.91,2.03,1.98,1.98,1.07-.05,1.98-.87,1.98-1.98v-14.97c0-1-.91-2.08-1.98-1.98-2.93.27-5.87.53-8.8.8.33.09.67.18,1,.27.45.34.07.05-.12-.1-.15-.12-.29-.25-.43-.37-.25-.23-.49-.47-.71-.72-.05-.05-.09-.11-.14-.16-.21-.24.2.29.15.19-.07-.12-.16-.22-.23-.34-.06-.1-.12-.2-.17-.3-.03-.05-.04-.1-.07-.15-.11-.19.17.54.11.25-.02-.09-.06-.19-.09-.29-.13-.41.02.15.01.18.01-.08,0-.19-.01-.27-.03-.46-.12.4-.03.18.03-.07.05-.17.07-.25.08-.38-.26.46-.07.17.05-.07.09-.16.14-.23.21-.38-.3.32-.1.12.15-.15.29-.3.45-.44.28-.27-.46.31-.08.06.1-.07.2-.14.31-.21.22-.14.44-.26.67-.37.12-.06.24-.11.36-.17.26-.12-.49.2-.22.09.08-.03.15-.06.23-.09,1.25-.49,2.58-.79,3.9-1,.18-.03.35-.06.53-.08.09-.01.18-.02.27-.04-.69.13-.25.03-.07.01.39-.05.77-.09,1.16-.12.8-.07,1.6-.12,2.4-.15,1.65-.05,3.31-.01,4.95.13.42.03.83.08,1.24.12.19.02.38.06.56.07-.62-.05-.1-.01.17.03.75.11,1.5.25,2.24.43.66.16,1.32.34,1.97.56.14.05.29.1.43.16.11.04.63.25.24.09-.38-.16.08.04.19.09.14.07.29.14.43.21.24.12.47.26.69.41.1.07.2.14.3.21.22.14-.4-.35-.22-.17.05.05.1.08.15.13.16.15.31.33.47.48.17.16-.3-.44-.18-.24.03.05.07.09.1.14.05.09.1.18.16.27.22.35-.13-.46-.07-.17.02.1.06.2.09.29.13.41,0-.38-.02-.2,0,.1,0,.21,0,.31,0,.05-.02.1-.01.15.02.19.12-.51.04-.33-.04.1-.05.23-.08.33-.03.11-.11.24-.12.34,0-.07.25-.53.11-.26-.03.06-.06.13-.1.19-.13.25-.29.48-.45.71.57-.33,1.14-.65,1.71-.98h-8.21c-1.07,0-1.98.91-1.98,1.98v13.16c0,1.04.91,2.03,1.98,1.98,1.07-.05,1.98-.87,1.98-1.98"/>
        <path class="cls-4" d="m97.17,59.41c1-4.13,2-8.25,3-12.38,1.58-6.53,3.16-13.06,4.74-19.59.37-1.51.73-3.02,1.1-4.53-.17.29-.34.58-.51.87,4.33-3.98,8.67-7.97,13-11.95.6-.55,1.21-1.11,1.81-1.66.62-.57.77-1.69.31-2.4l-4.4-6.81c-.71-1.09-2.15-1.3-3.11-.4-3.74,3.51-7.48,7.02-11.23,10.52-.53.5-1.06.99-1.59,1.49l1.4-.58c-2.71-.05-5.41-.09-8.12-.14-4.31-.07-8.62-.14-12.94-.22-.99-.02-1.98-.03-2.97-.05-1.07-.02-1.98.92-1.98,1.98v8.81c0,1.07.91,1.98,1.98,1.98h19.62c-.64-.84-1.27-1.67-1.91-2.51-.96,3.89-1.92,7.77-2.87,11.66l-4.56,18.5-1.05,4.25c-.25,1,.32,2.2,1.38,2.44,1.02.23,2.17-.31,2.44-1.38.96-3.89,1.92-7.77,2.87-11.66,1.52-6.17,3.04-12.34,4.56-18.5.35-1.42.7-2.83,1.05-4.25.31-1.24-.6-2.51-1.91-2.51h-19.62l1.98,1.98v-8.81l-1.98,1.98c6.09.1,12.17.2,18.26.3l4.3.07c1.03.02,2.02.18,2.87-.56,2.06-1.81,4.01-3.76,6.01-5.64,2.26-2.12,4.53-4.24,6.79-6.37-1.04-.13-2.07-.27-3.11-.4,1.47,2.27,2.94,4.54,4.4,6.81.1-.8.21-1.6.31-2.4l-8.76,8.05c-1.69,1.55-3.38,3.11-5.07,4.66-.32.3-.67.58-.97.89-.39.4-.5.79-.62,1.28-.84,3.48-1.68,6.95-2.52,10.43-1.29,5.34-2.58,10.68-3.88,16.03-.77,3.17-1.59,6.32-2.3,9.5-.01.05-.02.1-.04.15-.24,1.01.32,2.19,1.38,2.44,1.02.23,2.18-.31,2.44-1.38"/>
      </g>
    </g>
  </g>
</svg>