<?xml version="1.0" encoding="UTF-8"?>
<svg id="Livello_2" data-name="Livello 2" xmlns="http://www.w3.org/2000/svg" xmlns:xlink="http://www.w3.org/1999/xlink" viewBox="0 0 145.51 33.42">
  <defs>
    <style>
      .cls-1, .cls-2, .cls-3 {
        fill: none;
      }

      .cls-2 {
        clip-path: url(#clippath);
      }

      .cls-3 {
        clip-path: url(#clippath-1);
      }

      .cls-4 {
        fill: #1d1d1c;
      }
    </style>
    <clipPath id="clippath">
      <rect class="cls-1" width="145.51" height="33.42"/>
    </clipPath>
    <clipPath id="clippath-1">
      <rect class="cls-1" y="0" width="145.51" height="33.42"/>
    </clipPath>
  </defs>
  <g id="tappeto">
    <g class="cls-2">
      <g class="cls-3">
        <path class="cls-4" d="m108.29,31.39H11.35c-2.55,0-5.11.01-7.66,0-.4,0-.76-.01-1.12-.27-1.09-.77-.79-2.25.13-2.96,1.37-1.05,2.74-2.11,4.12-3.16,5.46-4.19,10.91-8.38,16.37-12.57,4.19-3.22,8.37-6.43,12.56-9.65.46-.36.87-.71,1.47-.75.13,0,.26,0,.39,0h103.27c.7,0,1.6-.14,2.19.36.99.84.6,2.21-.28,2.88-.52.4-1.03.79-1.55,1.19-4.89,3.76-9.78,7.51-14.67,11.27-5.01,3.85-10.03,7.7-15.04,11.56-.58.45-1.16.89-1.74,1.34-.47.36-.88.73-1.49.76-1.19.06-1.2,2.09,0,2.03,1.61-.08,2.91-1.41,4.17-2.38,2.21-1.69,4.41-3.39,6.62-5.08,5.77-4.43,11.54-8.87,17.31-13.3,2.02-1.55,4.04-3.1,6.06-4.65.46-.36.93-.71,1.39-1.07,1.33-1.04,2.07-2.75,1.46-4.51-.52-1.51-1.83-2.41-3.29-2.43-.24,0-.49,0-.73,0H37.56c-1.03,0-1.91.37-2.75,1.01-1.59,1.22-3.18,2.44-4.77,3.66-5.63,4.33-11.26,8.65-16.89,12.98-3.84,2.95-7.71,5.86-11.52,8.85-1.4,1.1-2.08,2.94-1.34,4.73.58,1.39,1.83,2.17,3.21,2.19.74.01,1.47,0,2.21,0h102.57c1.2,0,1.2-2.03,0-2.03"/>
        <path class="cls-4" d="m94.36,25.24h-58.96c-1.55,0-3.11,0-4.66,0-.2,0-.33,0-.49-.11-.41-.29-.27-.84.08-1.11.83-.64,1.67-1.28,2.5-1.92l9.95-7.65c2.55-1.96,5.09-3.91,7.64-5.87.22-.17.44-.38.71-.4.08,0,.16,0,.24,0h62.8c.32,0,.84-.07,1.07.1.92.67-.63,1.54-1.03,1.85-2.97,2.28-5.95,4.57-8.92,6.85-3.05,2.34-6.1,4.69-9.15,7.03-.35.27-.71.54-1.06.81-.22.17-.45.4-.72.41-1.19.06-1.2,2.09,0,2.03,1.08-.05,1.88-.85,2.72-1.5,1.34-1.03,2.68-2.06,4.02-3.09,3.51-2.7,7.02-5.39,10.53-8.09,1.23-.94,2.46-1.89,3.68-2.83.28-.22.56-.43.84-.65.94-.73,1.48-1.94,1.05-3.19-.37-1.09-1.3-1.75-2.35-1.77-.15,0-.3,0-.44,0h-63.08c-.69,0-1.3.24-1.85.67-.97.74-1.93,1.48-2.9,2.23-3.42,2.63-6.85,5.26-10.27,7.89-2.33,1.79-4.69,3.56-7,5.38-1.02.8-1.49,2.13-.94,3.42.41.97,1.31,1.51,2.27,1.53.45,0,.9,0,1.35,0h62.38c1.2,0,1.2-2.03,0-2.03"/>
      </g>
    </g>
  </g>
</svg>