<?xml version="1.0" encoding="UTF-8"?>
<svg id="Livello_2" data-name="Livello 2" xmlns="http://www.w3.org/2000/svg" xmlns:xlink="http://www.w3.org/1999/xlink" viewBox="0 0 146.48 84.55">
  <defs>
    <style>
      .cls-1, .cls-2, .cls-3 {
        fill: none;
      }

      .cls-2 {
        clip-path: url(#clippath);
      }

      .cls-3 {
        clip-path: url(#clippath-1);
      }

      .cls-4 {
        fill: #1d1d1c;
      }
    </style>
    <clipPath id="clippath">
      <rect class="cls-1" x="0" y="0" width="146.48" height="84.55"/>
    </clipPath>
    <clipPath id="clippath-1">
      <rect class="cls-1" x="0" y="0" width="146.48" height="84.55"/>
    </clipPath>
  </defs>
  <g id="tavolo_pieghevole" data-name="tavolo pieghevole">
    <g class="cls-2">
      <g class="cls-3">
        <path class="cls-4" d="m10.19,9.26h120.78c1.63,0,3.26.06,4.89,0,.07,0,.14,0,.21,0-.43-.33-.86-.66-1.29-.99.19.91.24,2,.07,2.78-.04.19-.09.38-.16.57-.1.29-.04.17-.17.39-.04.08-.3.48-.2.34-.13.17-.29.33-.46.46.14-.12-.26.15-.33.19-.21.11.28-.08-.11.05-.09.03-.18.06-.27.08-.29.07-.19.06-.45.07-.25,0-.49-.01-.74-.02-.04,0-.08,0-.13,0-.9-.02-1.8,0-2.7,0h-47.7c-2.73,0-5.47-.09-8.2,0-.04,0-.08,0-.11,0-1.73,0-1.73,2.69,0,2.69h55.6c1.01,0,2.02-.01,3.02,0,.81,0,1.61.05,2.38-.22,2.1-.72,3.19-2.65,3.44-4.76.13-1.11.02-2.23-.21-3.32-.12-.57-.73-.99-1.29-.99H15.3c-1.63,0-3.26-.03-4.89,0-.07,0-.14,0-.21,0-1.73,0-1.73,2.69,0,2.69"/>
        <path class="cls-4" d="m136.3,6.57H15.52c-1.63,0-3.26-.03-4.89,0-.07,0-.14,0-.21,0-.56,0-1.18.41-1.29.99-.43,2.08-.45,4.52.85,6.31,1.12,1.53,2.72,2.04,4.56,1.98.73-.02,1.47,0,2.21,0h48.03c2.82,0,5.65.09,8.47,0,.04,0,.08,0,.12,0,1.73,0,1.73-2.69,0-2.69H14.99c-.16,0-.32,0-.47,0-.49.02-.85.04-1.18-.04-.08-.02-.5-.18-.32-.1-.09-.04-.53-.33-.39-.22-.17-.13-.33-.3-.46-.46.12.16-.13-.21-.16-.28-.16-.28-.29-.69-.39-1.17-.14-.7-.08-1.79.1-2.63-.43.33-.86.66-1.29.99h120.78c1.63,0,3.26.03,4.89,0,.07,0,.14,0,.21,0,1.73,0,1.73-2.69,0-2.69"/>
        <path class="cls-4" d="m73.56,0H5.33C5.05,0,4.78,0,4.5,0,2.99.02,1.63.67.77,1.94-.23,3.44-.24,5.57.65,7.12c.8,1.38,2.25,2.11,3.82,2.13.44,0,.88,0,1.32,0h131.77c1.49,0,2.97.03,4.46,0,1.68-.03,3.25-.88,3.97-2.44.8-1.74.62-3.84-.62-5.33C144.25.14,142.66,0,141.06,0h-68.13c-1.73,0-1.73,2.69,0,2.69h67.82c.37,0,.74,0,1.1,0,.06,0,.12,0,.18,0,.07,0,.15,0,.22,0,0,0,.17.02.37.07.29.07.44.18.63.37,0,0,.25.27.12.12-.12-.15.09.14.09.14.08.13.15.26.21.4-.12-.27.06.24.08.33.02.07.03.15.04.23-.05-.31,0,.03,0,.1,0,.19,0,.39-.02.58.03-.31-.05.18-.07.27-.03.09-.06.18-.09.27.08-.24.03-.06,0,0-.04.08-.09.17-.14.25-.02.04-.22.31-.12.19.06-.08-.21.21-.29.27.2-.16-.24.13-.32.17.23-.11-.25.07-.33.09-.06.01-.33.04-.11.02-.1,0-.19,0-.29.01-.02,0-.05,0-.07,0-.53,0-1.05,0-1.58,0H9.42c-1.63,0-3.27.02-4.9,0-.11,0-.23,0-.34-.01.21.02,0,0-.05,0-.13-.02-.25-.06-.37-.1-.05-.02-.23-.1-.02,0-.07-.03-.14-.07-.21-.11-.21-.13-.38-.29-.49-.48-.04-.07-.26-.55-.16-.29-.06-.16-.1-.33-.14-.5-.02-.07-.05-.33-.02-.04,0-.08-.02-.15-.02-.23,0-.1,0-.19,0-.29,0-.04.03-.4.01-.22.02-.17.16-.59.22-.7.07-.13.15-.26.24-.38-.21.28.43-.35.17-.16.5-.36.72-.36,1.36-.36.4,0,.79,0,1.19,0h67.69C75.29,2.69,75.29,0,73.56,0"/>
        <path class="cls-4" d="m61.12,31.61c.66.66,1.32,1.32,1.97,1.97,1.72,1.72,3.44,3.44,5.16,5.16,2.44,2.44,4.89,4.89,7.33,7.33,2.81,2.81,5.62,5.62,8.43,8.43l8.48,8.48,7.46,7.46c1.8,1.8,3.59,3.59,5.39,5.39.75.75,1.51,1.5,2.26,2.26,0,0,0,0,.01.01.05.05.09.09.13.14.06.06.11.12.17.19.1.12-.09-.15.04.06.08.13.17.25.24.38.03.06.06.13.1.19.15.29-.03-.17,0,.02.02.13.08.26.11.39.01.06.02.13.04.19.04.16,0-.28,0-.02,0,.12,0,.25,0,.37,0,.04-.06.31,0,.1.05-.2,0,0-.01.05-.03.12-.06.23-.09.35-.02.06-.04.11-.06.17-.04.15.14-.23,0-.03-.07.11-.13.23-.2.35-.16.27.16-.15-.06.08-.08.09-.16.18-.25.26-.04.04-.09.08-.13.12-.21.2.08-.03-.01,0-.1.04-.2.13-.3.19-.05.03-.11.05-.16.08-.14.1.24-.08.07-.03-.11.04-.23.08-.34.11-.07.02-.15.03-.22.05-.24.06.21,0,.04,0-.12,0-.25.02-.37.01-.06,0-.13-.01-.19,0-.18.01.25.06.07.01-.14-.04-.29-.06-.43-.1-.07-.02-.13-.05-.19-.07.17.05.12.06-.02-.01-.13-.07-.26-.14-.38-.22-.06-.04-.13-.08-.19-.13-.18-.13.22.21-.06-.05-.09-.09-.19-.17-.28-.26-.01-.01-.03-.03-.04-.04-.61-.61-1.22-1.23-1.84-1.84-1.4-1.4-2.81-2.81-4.21-4.21-2.02-2.02-4.05-4.05-6.07-6.07-2.48-2.48-4.95-4.95-7.43-7.43-2.76-2.76-5.51-5.51-8.27-8.27l-8.61-8.61c-2.81-2.81-5.62-5.62-8.43-8.43-2.58-2.58-5.17-5.17-7.75-7.75-2.19-2.19-4.37-4.37-6.56-6.56-1.62-1.62-3.24-3.24-4.86-4.86-.88-.88-1.77-1.77-2.65-2.65-.11-.11-.22-.22-.34-.34-.32.76-.63,1.53-.95,2.29h9.81c-.32-.13-.63-.26-.95-.39,2.35,2.37,4.69,4.73,7.04,7.1,3.71,3.74,7.42,7.48,11.13,11.22.85.86,1.7,1.71,2.55,2.57.51.51,1.39.51,1.9,0,.52-.52.51-1.38,0-1.9-1.17-1.18-2.34-2.36-3.51-3.54-2.52-2.54-5.05-5.09-7.57-7.63-2.39-2.41-4.78-4.82-7.17-7.23-.68-.69-1.36-1.37-2.05-2.06-.13-.13-.26-.27-.4-.4-.43-.39-.85-.41-1.37-.41h-9.42c-1.16,0-1.77,1.47-.95,2.29.48.48.95.95,1.43,1.43,1.3,1.3,2.61,2.61,3.91,3.91,1.96,1.96,3.92,3.92,5.88,5.88l7.35,7.35c2.75,2.75,5.5,5.5,8.25,8.25,2.89,2.89,5.77,5.77,8.66,8.66,2.86,2.86,5.71,5.71,8.57,8.57,2.63,2.63,5.26,5.26,7.9,7.9,2.25,2.25,4.49,4.49,6.74,6.74,1.69,1.69,3.38,3.38,5.07,5.07.95.95,1.9,1.9,2.85,2.85.14.14.29.29.44.44.92.9,2.04,1.5,3.34,1.61,1.29.11,2.58-.41,3.52-1.28.95-.87,1.52-2.19,1.49-3.48-.03-1.37-.67-2.6-1.62-3.57-.19-.2-.39-.39-.58-.58-1.28-1.28-2.57-2.57-3.85-3.85-2.18-2.18-4.35-4.35-6.53-6.53-2.72-2.72-5.44-5.44-8.16-8.16-2.88-2.88-5.77-5.77-8.65-8.65-2.69-2.69-5.39-5.39-8.08-8.08-2.15-2.15-4.3-4.3-6.46-6.46l-3.7-3.7-.49-.49c-.51-.51-1.39-.51-1.9,0-.51.51-.51,1.38,0,1.9"/>
        <path class="cls-4" d="m84.43,32c.7,0,1.38-.62,1.34-1.34-.03-.73-.59-1.34-1.34-1.34-.7,0-1.38.62-1.34,1.34.03.73.59,1.34,1.34,1.34"/>
        <path class="cls-4" d="m67.47,45.71c-1.19,1.19-2.37,2.37-3.56,3.56-2.75,2.75-5.51,5.51-8.26,8.26-3.19,3.19-6.37,6.37-9.56,9.56-2.42,2.42-4.84,4.84-7.26,7.26-.56.56-1.12,1.12-1.68,1.68-1.38,1.38-2.27,3.36-1.54,5.31.53,1.42,1.61,2.5,3.04,2.99,1.6.55,3.3.04,4.58-.98.47-.37.88-.83,1.3-1.25,2.06-2.06,4.12-4.12,6.19-6.19,3.1-3.1,6.2-6.2,9.3-9.3,2.97-2.97,5.94-5.94,8.91-8.91,1.68-1.68,3.35-3.35,5.03-5.03.08-.08.15-.15.23-.23.51-.51.51-1.39,0-1.9-.51-.51-1.38-.51-1.9,0-1.15,1.15-2.3,2.3-3.46,3.46-2.71,2.71-5.42,5.42-8.12,8.12-3.13,3.13-6.26,6.26-9.39,9.39-2.45,2.45-4.9,4.9-7.35,7.35-.63.63-1.25,1.25-1.87,1.87-.1.1-.19.2-.29.29,0,0,0,0,0,0-.06.06-.12.12-.19.18.01-.01-.3.25-.15.13.15-.11-.16.11-.15.1-.06.04-.13.08-.19.12-.06.04-.13.07-.19.11-.12.06-.28.1-.06.04-.16.05-.32.11-.48.14-.06.01-.13.02-.19.04.34-.06.12-.01.03-.01-.14,0-.28,0-.42,0-.24,0,.05,0,.08.01-.09-.02-.18-.03-.27-.06-.15-.04-.29-.09-.43-.14.27.1.05.01-.08-.06-.08-.04-.47-.34-.17-.09-.11-.09-.23-.19-.33-.3-.08-.08-.32-.45-.13-.14-.06-.1-.13-.2-.19-.3-.03-.06-.06-.14-.1-.2-.11-.14.1.31.01.03-.05-.14-.1-.28-.13-.43-.01-.06-.02-.12-.03-.18.07.34.01.14.01.04,0-.14,0-.28,0-.42,0-.24,0,.03-.02.07.02-.1.03-.19.06-.29.03-.1.2-.55.06-.26.07-.15.14-.29.23-.43.04-.07.32-.44.16-.25.11-.13.22-.26.34-.38.35-.36.71-.71,1.07-1.07,2.13-2.13,4.26-4.26,6.39-6.39,3.07-3.07,6.14-6.14,9.21-9.21l8.71-8.71c1.63-1.63,3.25-3.26,4.88-4.88.08-.08.15-.15.23-.23.51-.51.51-1.39,0-1.9-.51-.51-1.38-.51-1.9,0"/>
        <path class="cls-4" d="m74.2,42.79c.88-.89,1.77-1.78,2.65-2.67,2.13-2.15,4.27-4.29,6.4-6.44l7.72-7.76c2.22-2.24,4.45-4.47,6.67-6.71.73-.74,1.47-1.48,2.2-2.21.35-.35.72-.68,1.05-1.05.01-.02.03-.03.05-.05-.32.13-.63.26-.95.39h9.81c-.32-.76-.63-1.53-.95-2.29l-3.16,3.16c-2.53,2.53-5.06,5.06-7.59,7.59-3.05,3.05-6.1,6.1-9.15,9.15-2.64,2.64-5.27,5.27-7.91,7.91-1.28,1.28-2.61,2.54-3.86,3.86-.02.02-.04.04-.05.05-.51.51-.51,1.39,0,1.9.51.51,1.38.51,1.9,0l3.16-3.16,7.59-7.59c3.05-3.05,6.1-6.1,9.15-9.15,2.64-2.64,5.27-5.27,7.91-7.91,1.28-1.28,2.62-2.53,3.86-3.86.02-.02.04-.04.05-.05.82-.82.21-2.29-.95-2.29h-4.59c-1.71,0-3.44-.06-5.15,0-.83.03-1.32.7-1.86,1.24-.91.92-1.83,1.84-2.74,2.76-2.95,2.97-5.9,5.93-8.84,8.9-3.1,3.12-6.2,6.24-9.3,9.36-1.64,1.65-3.34,3.27-4.94,4.97-.02.02-.05.05-.07.07-.51.51-.51,1.38,0,1.9.51.51,1.39.52,1.9,0"/>
      </g>
    </g>
  </g>
</svg>