<?xml version="1.0" encoding="UTF-8"?>
<svg id="Livello_2" data-name="Livello 2" xmlns="http://www.w3.org/2000/svg" xmlns:xlink="http://www.w3.org/1999/xlink" viewBox="0 0 122.93 53.07">
  <defs>
    <style>
      .cls-1, .cls-2, .cls-3 {
        fill: none;
      }

      .cls-2 {
        clip-path: url(#clippath);
      }

      .cls-3 {
        clip-path: url(#clippath-1);
      }

      .cls-4 {
        fill: #1d1d1c;
      }
    </style>
    <clipPath id="clippath">
      <rect class="cls-1" width="122.93" height="53.07"/>
    </clipPath>
    <clipPath id="clippath-1">
      <rect class="cls-1" width="122.93" height="53.07"/>
    </clipPath>
  </defs>
  <g id="tavolo_con_sedie" data-name="tavolo con sedie">
    <g class="cls-2">
      <g class="cls-3">
        <path class="cls-4" d="m4.82,0H1.14C.56,0-.04.52,0,1.14l.57,8.08c.32,4.54.64,9.08.96,13.62.13,1.79.32,3.59.32,5.38v22.33c0,.61.52,1.14,1.14,1.14h3.45c.66,0,1.07-.52,1.14-1.14.23-2.26.47-4.51.7-6.77.37-3.58.74-7.17,1.11-10.75.09-.82.17-1.65.26-2.47l-1.14,1.14h13.33l-1.14-1.14c.21,2.26.42,4.51.62,6.77.33,3.58.66,7.17.99,10.75.08.82.15,1.65.23,2.47.06.61.48,1.14,1.14,1.14h3.45c.61,0,1.14-.52,1.14-1.14v-19.76l-1.14,1.14c3-.02,3.58-4.64,1.61-6.3-1-.84-2.49-.62-3.71-.62H8.03l1.14,1.14c-.36-2.82-.73-5.65-1.09-8.47-.58-4.49-1.16-8.98-1.73-13.48-.13-1.02-.26-2.04-.39-3.06C5.88.55,5.48-.03,4.82,0c-.55.02-1.22.51-1.14,1.14.36,2.82.73,5.65,1.09,8.47.58,4.49,1.16,8.98,1.73,13.48.13,1.02.26,2.04.39,3.06.08.61.46,1.14,1.14,1.14h9.08c3.31,0,6.62-.05,9.93,0,.02,0,.04,0,.07,0,.26,0-.05.05-.06-.02,0,0,.18.05.2.05.11,0-.24-.15-.09-.03.03.02.07.04.1.06.09.07.06.04-.09-.08,0,0,.12.11.12.12.17.16-.05-.04-.03-.05.02,0,.22.34.21.37,0,.02-.09-.26-.04-.1.02.08.06.16.08.25.03.11.1.28.08.39.04-.26-.01-.16-.01-.03,0,.09.01.18.01.27s.03.33-.02.41c.1-.16.04-.21,0-.04-.02.09-.04.17-.06.26-.01.04-.02.08-.04.12-.01.04-.03.08-.04.12-.04.11-.03.08.04-.1.03.05-.15.26-.18.32-.1.18.19-.18.03-.05-.01.01-.16.15-.16.16,0-.01.24-.19.07-.07-.22.16,0-.07.04,0,0,0-.16.04-.17.05-.17.06.31-.01,0-.01-.61,0-1.14.52-1.14,1.14v19.76l1.14-1.14h-3.45l1.14,1.14c-.21-2.26-.42-4.51-.62-6.77-.33-3.58-.66-7.17-.99-10.75-.08-.82-.15-1.65-.23-2.47-.06-.61-.48-1.14-1.14-1.14h-13.33c-.66,0-1.07.52-1.14,1.14-.23,2.26-.47,4.51-.7,6.77-.37,3.58-.74,7.17-1.11,10.75-.09.82-.17,1.65-.26,2.47l1.14-1.14h-3.45l1.14,1.14v-21.48c0-.61.03-1.22,0-1.83-.06-1.04-.15-2.09-.22-3.13-.31-4.41-.62-8.83-.93-13.24-.22-3.19-.38-6.4-.67-9.58,0-.05,0-.1-.01-.15l-1.14,1.14h3.68c.59,0,1.16-.52,1.14-1.14C5.93.52,5.45,0,4.82,0"/>
        <path class="cls-4" d="m61.46,7.13h-29.33c-1.35,0-2.7-.04-4.05,0-.02,0-.04,0-.06,0-.61,0-1.14.52-1.14,1.14v5.52c0,.61.52,1.14,1.14,1.14h10.57c-.38-.38-.76-.76-1.14-1.14v36.45c0,.11,0,.21,0,.32.04,1.18.89,1.95,1.95,2.3,1.81.59,4.83.04,4.92-2.3.01-.4,0-.81,0-1.22V13.78c-.38.38-.76.76-1.14,1.14h18.27c.59,0,1.16-.52,1.14-1.14-.03-.62-.5-1.14-1.14-1.14h-18.27c-.61,0-1.14.52-1.14,1.14v36.26c0,.16,0,.31,0,.47,0,.01,0,.02,0,.03,0,.02,0,.03,0,.06.01.15-.1-.07.02-.14,0,0-.05.15-.04.15,0,0,.11-.27.05-.13-.02.05-.13.17,0,.01.18-.21-.1.08-.1.08-.02-.1.23-.15.1-.08-.04.02-.08.05-.12.08-.04.02-.09.04-.13.07-.17.1.25-.07.04-.02-.19.05-.38.11-.58.15-.12.03-.06.06.1-.01-.03.01-.1.01-.14.01-.14,0-.28.02-.42.01-.09,0-.19,0-.28-.01-.33-.02.21.05-.11-.01-.09-.02-.17-.04-.26-.06-.06-.02-.42-.15-.23-.07.19.08-.09-.05-.14-.08-.03-.02-.06-.05-.1-.06-.18-.09.14.16.07.06-.02-.03-.07-.07-.1-.09-.11-.08.1-.05.08.11,0,0-.05-.07-.06-.09-.09-.18.08.27.03.08-.07-.27-.02.28,0-.02,0-.01,0-.02,0-.04,0-.49,0-.98,0-1.47V13.78c0-.61-.52-1.14-1.14-1.14h-10.57l1.14,1.14v-5.52l-1.14,1.14h29.33c1.35,0,2.7.04,4.05,0,.02,0,.04,0,.06,0,.59,0,1.16-.52,1.14-1.14-.03-.62-.5-1.14-1.14-1.14"/>
        <path class="cls-4" d="m118.11,2.28h3.68l-1.14-1.14c-.19,2.69-.38,5.38-.57,8.08-.32,4.54-.64,9.08-.96,13.62-.13,1.79-.32,3.59-.32,5.38v22.33l1.14-1.14h-3.45l1.14,1.14c-.23-2.26-.47-4.51-.7-6.77-.37-3.58-.74-7.17-1.11-10.75-.09-.82-.17-1.65-.26-2.47-.06-.61-.47-1.14-1.14-1.14h-13.33c-.66,0-1.08.52-1.14,1.14-.21,2.26-.42,4.51-.62,6.77-.33,3.58-.66,7.17-.99,10.75-.08.82-.15,1.65-.23,2.47l1.14-1.14h-3.45l1.14,1.14v-19.76c0-.62-.52-1.13-1.14-1.14-.26,0,.04-.03.06.02,0,0-.16-.04-.17-.04-.2-.02.22.14.06.03-.02-.02-.07-.05-.1-.06-.18-.07.18.19.05.04-.03-.04-.08-.09-.12-.12-.16-.13.13.23.03.05-.03-.05-.07-.1-.09-.15,0-.02-.09-.15-.08-.16,0,.02.09.28.02.04-.03-.1-.06-.21-.09-.31-.02-.06-.02-.13-.04-.2-.06-.23,0,.28,0,.03,0-.14-.02-.27-.01-.41,0-.07.04-.45.01-.26-.04.2.04-.18.05-.24.03-.11.07-.21.1-.31.06-.22-.13.23-.02.04.04-.07.08-.14.12-.21.14-.25-.17.14.04-.05,0,0,.12-.12.12-.12-.05.04-.09.07-.14.11.03-.02.06-.04.09-.06,0,0,.24-.14.02-.02-.23.12.03-.01.02,0,.1-.16.24.21-.07,0,0,0,.13,0,.13,0,.96.02,1.93,0,2.89,0h16.18c.67,0,1.06-.53,1.14-1.14.36-2.82.73-5.65,1.09-8.47.58-4.49,1.16-8.98,1.73-13.48.13-1.02.26-2.04.39-3.06.08-.59-.58-1.16-1.14-1.14-.68.03-1.06.5-1.14,1.14-.36,2.82-.73,5.65-1.09,8.47-.58,4.49-1.16,8.98-1.73,13.48-.13,1.02-.26,2.04-.39,3.06l1.14-1.14h-18.42c-.42,0-.85-.03-1.26.08-3.12.8-2.81,6.81.6,6.84l-1.14-1.14v19.76c0,.61.52,1.14,1.14,1.14h3.45c.66,0,1.08-.52,1.14-1.14.21-2.26.42-4.51.62-6.77.33-3.58.66-7.17.99-10.75.08-.82.15-1.65.23-2.47l-1.14,1.14h13.33l-1.14-1.14c.23,2.26.47,4.51.7,6.77.37,3.58.74,7.17,1.11,10.75.09.82.17,1.65.26,2.47.06.61.47,1.14,1.14,1.14h3.45c.61,0,1.14-.52,1.14-1.14v-21.48c0-.61-.03-1.22,0-1.83.06-1.04.15-2.09.22-3.13.31-4.41.62-8.83.93-13.24.22-3.19.5-6.39.67-9.58,0-.05,0-.1.01-.15.04-.61-.56-1.14-1.14-1.14h-3.68c-.59,0-1.16.52-1.14,1.14.03.62.5,1.14,1.14,1.14"/>
        <path class="cls-4" d="m61.46,9.4h29.33c1.34,0,2.71.08,4.05,0,.02,0,.04,0,.06,0l-1.14-1.14v5.52l1.14-1.14h-10.57c-.61,0-1.14.52-1.14,1.14v36.26c0,.16,0,.31,0,.47,0,.01,0,.02,0,.03,0,.02,0,.03,0,.06.01.15-.1-.07.02-.14,0,0-.05.15-.04.15,0,0,.11-.27.05-.13-.02.05-.13.17,0,.01.18-.21-.1.08-.1.08-.02-.1.23-.15.1-.08-.04.02-.08.05-.12.08-.04.02-.09.04-.13.07-.17.1.25-.07.04-.02-.19.05-.38.11-.58.15-.12.03-.06.06.1-.01-.03.01-.1.01-.14.01-.14,0-.28.02-.42.01-.09,0-.19,0-.28-.01-.33-.02.21.05-.11-.01-.09-.02-.17-.04-.26-.06-.06-.02-.42-.15-.23-.07.19.08-.09-.05-.14-.08-.03-.02-.06-.05-.1-.06-.18-.09.14.16.07.06-.02-.03-.07-.07-.1-.09-.11-.08.1-.05.08.11,0,0-.05-.07-.06-.09-.09-.18.08.27.03.08-.07-.27-.02.28,0-.02,0-.01,0-.02,0-.04,0-.49,0-.98,0-1.47V13.78c0-.61-.52-1.14-1.14-1.14h-18.27c-.59,0-1.16.52-1.14,1.14.03.62.5,1.14,1.14,1.14h18.27c-.38-.38-.76-.76-1.14-1.14v36.45c0,.11,0,.21,0,.32.04,1.18.89,1.95,1.95,2.3,1.81.59,4.83.04,4.92-2.3.01-.4,0-.81,0-1.22V13.78c-.38.38-.76.76-1.14,1.14h10.57c.61,0,1.14-.52,1.14-1.14v-5.52c0-.61-.52-1.14-1.14-1.14h-29.33c-1.35,0-2.7-.04-4.05,0-.02,0-.04,0-.06,0-.59,0-1.16.52-1.14,1.14.03.62.5,1.14,1.14,1.14"/>
        <path class="cls-4" d="m79.73,28.96h-32.03c-1.48,0-2.98-.08-4.45,0-.02,0-.04,0-.06,0l1.14,1.14v-5.13l-1.14,1.14h32.03c1.48,0,2.98.08,4.45,0,.02,0,.04,0,.06,0l-1.14-1.14v5.13c0,.59.52,1.16,1.14,1.14.62-.03,1.14-.5,1.14-1.14v-5.13c0-.61-.52-1.14-1.14-1.14h-32.03c-1.48,0-2.97-.04-4.45,0-.02,0-.04,0-.06,0-.61,0-1.14.52-1.14,1.14v5.13c0,.61.52,1.14,1.14,1.14h32.03c1.48,0,2.97.04,4.45,0,.02,0,.04,0,.06,0,.59,0,1.16-.52,1.14-1.14-.03-.62-.5-1.14-1.14-1.14"/>
      </g>
    </g>
  </g>
</svg>