<?xml version="1.0" encoding="UTF-8"?>
<svg id="Livello_2" data-name="Livello 2" xmlns="http://www.w3.org/2000/svg" xmlns:xlink="http://www.w3.org/1999/xlink" viewBox="0 0 122.4 137.58">
  <defs>
    <style>
      .cls-1 {
        fill: #fff;
      }

      .cls-2, .cls-3, .cls-4 {
        fill: none;
      }

      .cls-3 {
        clip-path: url(#clippath);
      }

      .cls-4 {
        clip-path: url(#clippath-1);
      }

      .cls-5 {
        fill: #1d1d1c;
      }
    </style>
    <clipPath id="clippath">
      <rect class="cls-2" y="0" width="122.4" height="137.58"/>
    </clipPath>
    <clipPath id="clippath-1">
      <rect class="cls-2" y="0" width="122.4" height="137.58"/>
    </clipPath>
  </defs>
  <g id="tavolo_da_giardino" data-name="tavolo da giardino">
    <g class="cls-3">
      <g class="cls-4">
        <path class="cls-5" d="m118.58,13.89c0,.08-.01.17-.01.25,0,.25.13-.59.03-.26-.05.15-.12.34-.15.5.1-.55.19-.38.05-.16-.04.06-.07.13-.11.19-.05.08-.11.16-.16.24-.2.33.34-.39.07-.1-.3.32-.61.61-.94.9-.14.13.44-.32.05-.04-.1.07-.19.14-.29.21-.23.16-.47.31-.71.46-.52.31-1.05.59-1.59.84-.28.14-.57.26-.86.39-.3.14.15-.07.16-.06,0,0-.23.09-.26.11-.19.08-.39.16-.58.23-1.52.59-3.08,1.08-4.65,1.51-4,1.11-8.09,1.88-12.19,2.5-.56.09-1.12.17-1.68.25-.29.04-.57.08-.86.12-.62.08.2-.03-.17.02-.19.03-.39.05-.58.08-1.23.16-2.47.31-3.7.44-2.7.3-5.4.54-8.11.73-12.03.88-24.15.94-36.19.26-5.37-.3-10.73-.77-16.07-1.46-.16-.02-.32-.04-.49-.06.09.01.32.04-.07,0-.29-.04-.57-.08-.86-.12-.62-.09-1.25-.18-1.87-.28-1.1-.17-2.21-.35-3.31-.55-2.05-.37-4.1-.78-6.13-1.27-1.73-.41-3.46-.88-5.15-1.44-.73-.24-1.46-.5-2.18-.78-.16-.06-.32-.12-.47-.19-.03-.01-.26-.1-.26-.11,0,0,.46.2.16.06-.32-.14-.64-.28-.95-.43-.54-.26-1.07-.54-1.58-.84-.22-.13-.43-.27-.64-.41-.1-.07-.19-.14-.29-.21-.42-.3.32.28,0,0-.33-.29-.61-.6-.92-.9-.19-.18.31.46.11.15-.05-.08-.11-.16-.16-.24-.04-.07-.08-.15-.12-.22-.23-.39.07.24.05.14-.04-.15-.09-.3-.13-.45-.1-.33.01.5.03.26,0-.09,0-.21-.01-.3,0-.07.02-.14.01-.2-.01-.17-.14.61-.02.21.04-.13.23-.66.07-.27-.16.39.09-.14.16-.26.04-.07.09-.13.13-.19.2-.32-.36.41-.05.07.3-.32.62-.6.94-.9.17-.15-.43.32-.18.14.04-.03.08-.06.12-.09.1-.07.2-.14.29-.21.23-.16.47-.31.72-.45.5-.3,1.02-.57,1.55-.82.3-.14.61-.27.91-.41.24-.11-.47.19-.1.04.07-.03.14-.06.21-.08.18-.07.35-.14.53-.21.72-.28,1.45-.54,2.19-.77,3.7-1.2,7.51-2.02,11.34-2.69,4.97-.88,9.37-1.41,14.5-1.87,11.86-1.06,23.81-1.27,35.7-.79,5.61.23,11.21.62,16.79,1.23,4.54.5,8.92,1.13,13.62,2.1,3.44.72,6.89,1.57,10.17,2.86.16.06.31.13.47.19.49.2-.3-.14.1.04.3.13.6.27.9.41.54.26,1.07.54,1.58.84.22.13.43.27.64.41.11.07.22.15.32.23.36.25-.35-.3-.03-.02.33.29.61.59.92.9.15.15-.32-.49-.08-.1.04.07.09.13.13.19.05.08.09.16.14.24.18.3-.06-.07-.08-.21.02.14.1.33.15.47.01.04,0,.09.02.12,0-.07-.02-.14-.03-.2-.03-.22-.04-.27-.02-.15-.02.01.01.23.01.25.01,1,.87,1.96,1.91,1.91,1.03-.05,1.92-.84,1.91-1.91-.02-2.33-1.8-4.03-3.62-5.21-2.53-1.64-5.52-2.63-8.4-3.46-4.05-1.17-8.21-1.98-12.38-2.63-5.38-.84-10.8-1.43-16.23-1.83-12.33-.92-24.75-.99-37.09-.27-10.07.59-20.27,1.59-30.08,4.04-3.24.81-6.49,1.78-9.48,3.3C3.12,8.84,1,10.27.23,12.48c-.71,2.05.32,4.14,1.88,5.49,2.13,1.84,4.84,2.92,7.47,3.83,3.72,1.27,7.59,2.12,11.45,2.83,5.09.92,10.23,1.57,15.38,2.05,12.26,1.14,24.62,1.36,36.92.84,10.57-.44,21.24-1.37,31.59-3.59,3.46-.74,6.94-1.63,10.21-3,2.35-.98,4.84-2.16,6.36-4.3.57-.8.9-1.76.91-2.74.01-1-.89-1.96-1.91-1.91-1.04.05-1.9.84-1.91,1.91"/>
        <path class="cls-5" d="m113.68,18.19c-.19.65-.39,1.31-.61,1.95-.11.31-.23.63-.35.94-.03.07-.06.14-.09.21,0-.02.14-.3.04-.11-.09.18-.17.36-.25.54-.28.58-.65,1.09-.97,1.63-.11.18.07-.08.08-.1-.05.06-.09.11-.14.17-.11.13-.22.26-.33.38-.22.23-.47.42-.68.64-.18.19.27-.17.04-.03-.06.04-.12.09-.18.13-.12.09-.25.17-.38.24-.13.08-.26.15-.4.22-.13.07-.62.28-.26.14-.7.27-1.44.47-2.18.57.3-.04-.18,0-.27.02-.36.03-.71.08-1.06.15-.51.1-1.02.2-1.53.29-1.06.2-2.12.39-3.17.58-8.21,1.43-16.44,2.35-24.82,2.83-8.47.48-16.97.5-25.45.09-8.62-.41-17.26-1.25-25.76-2.49-2.21-.32-4.41-.66-6.61-1.03-.5-.08-1-.17-1.5-.26-.37-.06-.74-.13-1.11-.16-.1,0-.67-.07-.37-.02-.75-.1-1.49-.29-2.19-.57.35.14-.07-.04-.19-.1-.14-.07-.27-.14-.4-.22-.13-.08-.26-.16-.38-.24-.06-.04-.12-.09-.18-.13-.38-.25.16.17-.02-.02-.2-.21-.43-.38-.63-.59-.12-.12-.23-.25-.34-.37-.05-.05-.09-.11-.14-.17-.17-.19.17.27.04.04-.33-.55-.69-1.06-.97-1.63-.08-.16-.15-.32-.22-.47-.16-.33.09.25-.04-.1-.13-.33-.26-.67-.38-1.01-.22-.64-.42-1.3-.61-1.95-.29-.99-1.35-1.61-2.35-1.33-.99.27-1.62,1.36-1.33,2.35.81,2.79,1.84,5.76,4.06,7.76,1.24,1.12,2.74,1.9,4.37,2.28.44.1.89.17,1.34.23.6.08.86.1,1.41.19,1.16.2,2.33.39,3.5.58,9.02,1.44,18.1,2.49,27.22,3.06,8.85.55,17.74.66,26.6.25,8.79-.4,17.56-1.31,26.24-2.73,2.16-.35,4.32-.74,6.47-1.16.8-.16,1.74-.21,2.7-.43.85-.2,1.69-.52,2.46-.93,2.78-1.45,4.33-4.24,5.34-7.09.23-.67.44-1.34.64-2.02.28-.96-.34-2.12-1.33-2.35-1.02-.23-2.05.31-2.35,1.33"/>
        <path class="cls-5" d="m67.17,33.03c.05,2.01.1,4.02.15,6.02.12,4.78.24,9.56.35,14.34.14,5.82.29,11.64.43,17.46.12,5,.25,9.99.37,14.99.04,1.66.08,3.32.12,4.98.02.78,0,1.58.06,2.36,0,.03,0,.07,0,.1.32-.55.63-1.1.95-1.65-2.71,1.39-5.63,2.22-8.56,2.22-1.54,0-2.71-.15-4.2-.54-1.54-.4-2.96-.96-4.36-1.68.32.55.63,1.1.95,1.65.06-2.01.12-4.02.18-6.02.14-4.78.28-9.56.43-14.34.17-5.82.35-11.64.52-17.46.15-5,.3-9.99.45-14.99.07-2.44.24-4.9.22-7.35,0-.03,0-.07,0-.1.03-1-.9-1.96-1.91-1.91-1.06.05-1.88.84-1.91,1.91-.06,2.01-.12,4.02-.18,6.02-.14,4.78-.28,9.56-.43,14.34-.17,5.82-.35,11.64-.52,17.46-.15,5-.3,9.99-.45,14.99-.07,2.44-.24,4.9-.22,7.35,0,.03,0,.07,0,.1-.02.64.37,1.35.95,1.65,3.26,1.67,6.81,2.74,10.49,2.74s7.24-1.07,10.49-2.74c.58-.3.96-1.01.95-1.65-.05-2.01-.1-4.02-.15-6.02-.12-4.78-.24-9.56-.35-14.34-.14-5.82-.29-11.64-.43-17.46-.12-5-.25-9.99-.37-14.99-.06-2.45-.06-4.9-.18-7.35,0-.03,0-.07,0-.1-.02-1-.86-1.96-1.91-1.91-1.01.05-1.94.84-1.91,1.91"/>
        <path class="cls-5" d="m71.39,96.63c4.32,9.32,11.33,16.97,19.63,22.92,2.79,2,5.71,3.79,8.72,5.43-.32-.55-.63-1.1-.95-1.65v12.34l1.91-1.91h-6.49l1.91,1.91v-7.62c0-.66-.36-1.33-.95-1.65-5.05-2.75-9.75-5.87-13.91-9.58-1.86-1.66-3.63-3.42-5.26-5.3-.39-.45-.78-.91-1.16-1.37-.19-.23-.37-.46-.55-.69-.07-.09-.15-.19-.22-.28.23.29-.08-.11-.13-.17-.7-.92-1.36-1.87-2-2.83-1.42-2.15-2.66-4.41-3.75-6.75-.35-.76-1.4-1.09-2.16-.88-.81.22-1.4,1-1.4,1.84v18l1.91-1.91h-10.67l1.91,1.91v-18c0-.81-.59-1.66-1.4-1.84-.77-.18-1.8.1-2.16.88-.95,2.05-2.03,4.05-3.24,5.96-.63.99-1.29,1.97-1.99,2.92-.15.21-.31.42-.47.63-.09.12-.18.23-.27.35.2-.26.01-.01-.02.03-.4.51-.81,1.02-1.23,1.52-3.28,3.89-7.18,7.38-11.13,10.2-2.76,1.97-5.66,3.75-8.63,5.37-.59.32-.95.99-.95,1.65v7.62l1.91-1.91h-6.49l1.91,1.91v-12.34c-.32.55-.63,1.1-.95,1.65,10.4-5.67,19.71-13.74,26.38-23.57,1.55-2.28,2.93-4.67,4.09-7.16.43-.94.26-2.06-.69-2.61-.83-.48-2.18-.26-2.62.69-1,2.15-2.16,4.22-3.45,6.2-1.5,2.31-2.8,4.03-4.5,6.03-3.62,4.27-7.94,8.28-12.29,11.49-2.82,2.08-5.78,3.96-8.86,5.64-.59.32-.95.99-.95,1.65v12.34c0,1.03.88,1.91,1.91,1.91h6.49c1.03,0,1.91-.88,1.91-1.91v-7.62c-.32.55-.63,1.1-.95,1.65,9.66-5.26,18.46-12.28,24.56-21.53,1.43-2.18,2.7-4.46,3.79-6.82-1.19-.32-2.37-.64-3.56-.96v18c0,1.03.88,1.91,1.91,1.91h10.67c1.03,0,1.91-.88,1.91-1.91v-18c-1.19.32-2.37.64-3.56.96,4.32,9.32,11.33,16.97,19.63,22.92,2.79,2,5.71,3.79,8.72,5.43-.32-.55-.63-1.1-.95-1.65v7.62c0,1.03.88,1.91,1.91,1.91h6.49c1.03,0,1.91-.88,1.91-1.91v-12.34c0-.66-.36-1.33-.95-1.65-5.05-2.76-9.75-5.87-13.91-9.58-1.86-1.66-3.63-3.42-5.26-5.3-.39-.45-.78-.91-1.15-1.37-.19-.23-.37-.46-.56-.69-.07-.09-.15-.19-.22-.28.23.29-.08-.11-.13-.17-.7-.92-1.36-1.87-2-2.83-1.42-2.15-2.66-4.41-3.75-6.75-.43-.94-1.78-1.17-2.62-.69-.96.56-1.12,1.68-.69,2.62"/>
        <line class="cls-1" x1="21.74" y1="123.33" x2="28.22" y2="128.05"/>
        <path class="cls-5" d="m20.77,124.98c1.89,1.38,3.79,2.75,5.68,4.13.27.2.54.39.81.59.38.27,1.04.31,1.47.19.44-.12.92-.46,1.14-.88.23-.44.35-.98.19-1.47-.16-.5-.45-.83-.88-1.14-1.89-1.38-3.79-2.75-5.68-4.13-.27-.2-.54-.39-.81-.59-.38-.27-1.04-.31-1.47-.19-.44.12-.92.46-1.14.88-.23.44-.35.98-.19,1.47.16.5.45.83.88,1.14"/>
        <line class="cls-1" x1="28.22" y1="135.67" x2="55.89" y2="118.39"/>
        <path class="cls-5" d="m29.19,137.32c3.11-1.94,6.22-3.88,9.33-5.83,4.98-3.11,9.95-6.22,14.93-9.32,1.14-.71,2.28-1.42,3.41-2.13.88-.55,1.22-1.71.69-2.62-.51-.87-1.74-1.23-2.62-.69-3.11,1.94-6.22,3.88-9.33,5.83-4.98,3.11-9.95,6.22-14.93,9.32-1.14.71-2.28,1.42-3.41,2.13-.87.55-1.22,1.71-.69,2.62.51.87,1.74,1.23,2.62.69"/>
        <line class="cls-1" x1="100.01" y1="123.65" x2="94.4" y2="127.73"/>
        <path class="cls-5" d="m99.04,122c-1.64,1.19-3.27,2.38-4.91,3.57-.23.17-.46.34-.7.51-.41.3-.74.63-.88,1.14-.13.46-.07,1.07.19,1.47.26.41.65.77,1.14.88.47.11,1.06.1,1.47-.19,1.64-1.19,3.27-2.38,4.91-3.57.23-.17.46-.34.7-.51.41-.3.74-.63.88-1.14.13-.46.07-1.07-.19-1.47-.26-.41-.65-.77-1.14-.88-.47-.11-1.06-.1-1.47.19"/>
        <path class="cls-5" d="m30.72,97.68c2.41-1.26,4.82-2.53,7.23-3.8l11.45-6.02c.88-.46,1.76-.93,2.64-1.39.91-.48,1.19-1.75.69-2.61-.54-.93-1.7-1.17-2.62-.69-2.41,1.27-4.82,2.53-7.23,3.8-3.82,2.01-7.64,4.01-11.45,6.02-.88.46-1.76.93-2.64,1.39-.91.48-1.19,1.75-.69,2.62.54.93,1.7,1.17,2.62.69"/>
        <path class="cls-5" d="m50.25,91.27c-5.79,1.12-11.59,2.24-17.38,3.36-.83.16-1.67.32-2.5.48h1.02c-2.12-.31-4.24-.62-6.37-.92-1.82-.26-3.92,1.25-4.64,2.92-.69,1.62-.16,3.42,1.16,4.56,1.61,1.39,3.74,1.89,5.82,2,.98.05,1.97-.05,2.95-.05h14.33c1,0,1.96-.88,1.91-1.91-.05-1.04-.84-1.91-1.91-1.91h-14.57c-.52,0-1.03.04-1.55.06-.42.01-.84,0-1.26-.02-.18-.01-.36-.03-.54-.04-.03,0-.32-.04-.09,0,.22.03-.12-.02-.16-.03-.33-.06-.67-.13-.99-.23-.14-.04-.28-.09-.41-.13-.07-.02-.13-.05-.2-.07-.23-.07.39.21.03,0-.25-.14-.49-.28-.73-.43-.23-.14.29.29-.04-.04-.07-.08-.16-.19-.24-.25-.14-.1.17.17.15.2,0-.01-.09-.13-.1-.15-.02-.04-.04-.08-.07-.12-.2-.29.11.14.07.18,0,0-.07-.26-.08-.28-.03-.04.05.52.03.14-.02-.43-.04.39-.02.1,0-.07.12-.46.02-.09-.09.32.03.01.08-.09.08-.18-.31.3,0,0,.09-.08.19-.17.28-.26.14-.16-.17.15-.16.12.01-.04.17-.11.2-.14.15-.09.3-.18.45-.26.06-.03.13-.06.19-.09.22-.13-.42.17.02,0h-1.02c1.94.28,3.87.56,5.81.84.63.09,1.22.17,1.85.05.55-.1,1.1-.21,1.65-.32,4.64-.9,9.28-1.79,13.91-2.69,1.37-.27,2.74-.53,4.12-.8,1.01-.2,1.59-1.41,1.33-2.35-.29-1.06-1.33-1.53-2.35-1.33"/>
        <path class="cls-5" d="m93.69,94.38c-2.41-1.26-4.82-2.53-7.23-3.8l-11.45-6.02c-.88-.46-1.76-.93-2.64-1.39-.91-.48-2.08-.23-2.62.69-.5.86-.23,2.13.69,2.61l7.23,3.8,11.45,6.02c.88.46,1.76.93,2.64,1.39.91.48,2.08.23,2.61-.69.5-.86.23-2.13-.69-2.62"/>
        <path class="cls-5" d="m71.22,94.95c3.5.68,7,1.35,10.5,2.03,2.29.44,4.59.89,6.88,1.33,1.18.23,2.46.63,3.67.46,2.1-.3,4.2-.61,6.3-.91h-1.02c.35.14-.23-.13.08.04.14.08.28.14.42.22.1.06.21.15.31.2.2.09-.19-.11-.15-.12.02,0,.15.13.17.14.08.08.16.19.25.26.08.06-.23-.37-.07-.08.05.1.14.36.05.05-.12-.42,0,.09.02.09l.02.08-.04-.35s0,.11,0,.12c.02.07-.04.43.02.03.05-.37,0-.06-.03.03-.13.35.25-.37.03-.06-.05.07-.11.16-.14.23-.03.07.31-.32.06-.09-.09.08-.18.17-.26.25-.19.2.34-.21,0,0-.23.14-.46.26-.69.39-.3.17.31-.1-.04.02-.16.05-.31.11-.47.16-.32.1-.65.18-.98.24-.13.02-.49.07-.16.03-.21.02-.42.04-.62.06-.87.06-1.73-.04-2.6-.04h-14.87c-1,0-1.96.88-1.91,1.91.05,1.04.84,1.91,1.91,1.91h13.7c2.81,0,5.69.28,8.26-1.14,1.48-.81,2.71-2.31,2.62-4.07-.11-2.07-1.81-3.39-3.58-4.12-.65-.27-1.34-.11-2.01,0-.73.11-1.46.21-2.19.32-1.18.17-2.36.34-3.54.51h1.02c-5.79-1.12-11.59-2.24-17.38-3.36-.83-.16-1.67-.32-2.5-.48-.98-.19-2.11.27-2.35,1.33-.22.94.29,2.15,1.33,2.35"/>
        <line class="cls-1" x1="94.22" y1="135.67" x2="66.56" y2="118.39"/>
        <path class="cls-5" d="m95.19,134.02c-3.11-1.94-6.22-3.88-9.33-5.83-4.98-3.11-9.95-6.22-14.93-9.32-1.14-.71-2.28-1.42-3.41-2.13-.88-.55-2.1-.19-2.62.69-.54.92-.19,2.07.69,2.62,3.11,1.94,6.22,3.88,9.33,5.83,4.98,3.11,9.95,6.22,14.93,9.32,1.14.71,2.28,1.42,3.41,2.13.88.55,2.1.19,2.61-.69.54-.92.19-2.07-.69-2.62"/>
      </g>
    </g>
  </g>
</svg>