<?xml version="1.0" encoding="UTF-8"?>
<svg id="Livello_2" data-name="Livello 2" xmlns="http://www.w3.org/2000/svg" xmlns:xlink="http://www.w3.org/1999/xlink" viewBox="0 0 145.03 110.46">
  <defs>
    <style>
      .cls-1, .cls-2, .cls-3 {
        fill: none;
      }

      .cls-2 {
        clip-path: url(#clippath);
      }

      .cls-3 {
        clip-path: url(#clippath-1);
      }

      .cls-4 {
        fill: #1d1d1c;
      }
    </style>
    <clipPath id="clippath">
      <rect class="cls-1" width="145.03" height="110.46"/>
    </clipPath>
    <clipPath id="clippath-1">
      <rect class="cls-1" width="145.03" height="110.46"/>
    </clipPath>
  </defs>
  <g id="tenda">
    <g class="cls-2">
      <g class="cls-3">
        <path class="cls-4" d="m2.47,110.44h134.4c1.82,0,3.64.03,5.45,0,.08,0,.16,0,.24,0,1.29,0,2.53-1.14,2.47-2.47-.06-1.34-1.09-2.47-2.47-2.47H8.16c-1.82,0-3.64-.03-5.45,0-.08,0-.16,0-.24,0-1.29,0-2.53,1.14-2.47,2.47.06,1.34,1.09,2.47,2.47,2.47"/>
        <path class="cls-4" d="m126.52,106.73c-.59-.94-1.18-1.89-1.77-2.83-1.6-2.55-3.2-5.1-4.79-7.66l-7.12-11.37-8.65-13.81c-3.17-5.07-6.34-10.13-9.52-15.2-3.2-5.11-6.4-10.23-9.61-15.34l-8.92-14.24c-2.52-4.03-5.05-8.06-7.57-12.09-1.81-2.89-3.61-5.77-5.42-8.66-.86-1.37-1.7-2.76-2.58-4.12-.04-.06-.07-.12-.11-.18-.71-1.13-2.2-1.57-3.38-.89-1.13.66-1.6,2.24-.89,3.38.59.94,1.18,1.89,1.77,2.83,1.6,2.55,3.2,5.1,4.79,7.66,2.37,3.79,4.75,7.58,7.12,11.37,2.88,4.6,5.77,9.21,8.65,13.81,3.17,5.07,6.34,10.13,9.52,15.2,3.2,5.11,6.4,10.23,9.61,15.34,2.97,4.75,5.94,9.5,8.92,14.24,2.52,4.03,5.05,8.06,7.57,12.09,1.81,2.89,3.61,5.77,5.42,8.66.86,1.37,1.7,2.76,2.58,4.12.04.06.07.12.11.18.71,1.13,2.2,1.57,3.38.89,1.13-.66,1.6-2.24.89-3.38"/>
        <path class="cls-4" d="m24.76,109.22c.59-.94,1.18-1.89,1.77-2.83,1.6-2.55,3.2-5.1,4.79-7.66,2.37-3.79,4.75-7.58,7.12-11.37,2.88-4.6,5.77-9.21,8.65-13.81,3.17-5.07,6.34-10.13,9.52-15.2,3.2-5.11,6.4-10.23,9.61-15.34,2.97-4.75,5.94-9.5,8.92-14.24,2.52-4.03,5.05-8.06,7.57-12.09,1.81-2.89,3.61-5.77,5.42-8.66.86-1.37,1.76-2.73,2.58-4.12.03-.06.07-.12.11-.18.71-1.13.24-2.72-.89-3.38-1.18-.69-2.67-.25-3.38.89-.59.94-1.18,1.89-1.77,2.83-1.6,2.55-3.2,5.1-4.79,7.66-2.37,3.79-4.75,7.58-7.12,11.37-2.88,4.6-5.77,9.21-8.65,13.81-3.17,5.07-6.34,10.13-9.52,15.2-3.2,5.11-6.4,10.23-9.61,15.34-2.97,4.75-5.94,9.5-8.92,14.24-2.52,4.03-5.05,8.06-7.57,12.09-1.81,2.89-3.61,5.77-5.42,8.66-.86,1.37-1.76,2.73-2.58,4.12-.04.06-.07.12-.11.18-.71,1.13-.24,2.72.89,3.38,1.18.69,2.67.25,3.38-.89"/>
        <path class="cls-4" d="m72.52,64.77c1.29,0,2.53-1.14,2.47-2.47-.06-1.34-1.09-2.47-2.47-2.47-1.29,0-2.53,1.14-2.47,2.47.06,1.34,1.09,2.47,2.47,2.47"/>
        <path class="cls-4" d="m46.05,109.22c3.23-5.16,6.47-10.33,9.7-15.49,5.12-8.18,10.24-16.35,15.35-24.53,1.18-1.89,2.36-3.77,3.54-5.66h-4.26c3.23,5.16,6.47,10.33,9.7,15.49,5.12,8.18,10.24,16.35,15.36,24.53,1.18,1.89,2.36,3.77,3.54,5.66.71,1.13,2.2,1.57,3.38.89,1.13-.66,1.6-2.24.89-3.38-3.23-5.16-6.47-10.33-9.7-15.49-5.12-8.18-10.24-16.35-15.35-24.53-1.18-1.89-2.36-3.77-3.54-5.66-1-1.6-3.27-1.6-4.26,0-3.23,5.16-6.47,10.33-9.7,15.49l-15.35,24.53-3.54,5.66c-.71,1.13-.24,2.72.89,3.38,1.18.69,2.67.25,3.38-.89"/>
      </g>
    </g>
  </g>
</svg>