<?xml version="1.0" encoding="UTF-8"?>
<svg id="Livello_2" data-name="Livello 2" xmlns="http://www.w3.org/2000/svg" xmlns:xlink="http://www.w3.org/1999/xlink" viewBox="0 0 148.08 107.91">
  <defs>
    <style>
      .cls-1, .cls-2, .cls-3 {
        fill: none;
      }

      .cls-2 {
        clip-path: url(#clippath);
      }

      .cls-3 {
        clip-path: url(#clippath-1);
      }

      .cls-4 {
        fill: #1d1d1c;
      }
    </style>
    <clipPath id="clippath">
      <rect class="cls-1" y="0" width="148.08" height="107.91"/>
    </clipPath>
    <clipPath id="clippath-1">
      <rect class="cls-1" y="0" width="148.08" height="107.91"/>
    </clipPath>
  </defs>
  <g id="tosaerba">
    <g class="cls-2">
      <g class="cls-3">
        <path class="cls-4" d="m112.98,49.59c0-2.5-.41-4.97-1.44-7.26-.87-1.94-2.27-3.56-3.95-4.84-3.53-2.67-8.14-3.51-12.44-3.94-2.47-.24-4.95-.32-7.43-.33-2.54-.02-5.08.01-7.61.2-4.19.3-8.74.94-12.29,3.36-1.82,1.24-3.34,2.9-4.28,4.91-1.16,2.47-1.57,5.18-1.58,7.9,0,.92.78,1.69,1.69,1.69h41.75c1.93,0,3.87.06,5.8,0,.03,0,.06,0,.08,0,.89,0,1.73-.78,1.69-1.69-.04-.92-.74-1.69-1.69-1.69h-41.75c-1.92,0-3.88-.11-5.8,0-.03,0-.06,0-.08,0l1.69,1.69c0-.61.02-1.22.07-1.83.02-.24.04-.48.07-.72,0-.07.08-.54.01-.1.03-.18.05-.36.09-.54.18-.99.46-1.94.82-2.88-.17.45.06-.12.11-.23.1-.2.2-.4.31-.6.21-.38.47-.74.71-1.1.21-.32-.25.29,0,0,.07-.08.14-.17.2-.25.13-.15.26-.29.39-.43.31-.32.64-.61.97-.9.08-.07.38-.27,0,0,.06-.04.11-.09.17-.13.18-.12.35-.25.53-.36.37-.24.75-.45,1.14-.65.2-.1.4-.2.6-.29.1-.05.21-.09.31-.14-.44.19-.07.03.02,0,.44-.17.88-.33,1.33-.46.95-.29,1.92-.52,2.9-.7.48-.09.95-.16,1.43-.23-.45.06,0,0,.08,0,.14-.02.27-.03.41-.05.27-.03.55-.06.82-.09,4.74-.46,9.59-.44,14.34-.13,1.13.07,2.27.18,3.39.32.47.06-.36-.06.11.02.14.02.28.04.41.06.23.03.45.07.68.11.57.1,1.14.21,1.71.34.95.22,1.89.48,2.8.82.23.08.45.17.68.26-.45-.18.25.11.36.17.42.2.84.41,1.24.65.43.25.83.53,1.23.82-.38-.27-.06-.05.01.01.11.1.23.19.34.29.17.15.33.3.49.46.18.18.36.37.53.57.1.12.49.65.23.27.31.44.61.88.86,1.35.11.21.22.42.32.63.04.08.19.46.02.04.06.15.12.3.18.46.19.52.34,1.05.47,1.59.07.31.13.62.18.93.02.11.03.23.05.34.02.13.01.09-.01-.1.01.09.02.19.03.29.07.7.1,1.41.11,2.12,0,.89.78,1.73,1.69,1.69.92-.04,1.7-.74,1.69-1.69"/>
        <path class="cls-4" d="m105.53,49.59v17.25l1.69-1.69h-35.86c-1.65,0-3.34-.1-4.99,0-.02,0-.05,0-.07,0l1.69,1.69v-17.25c0-.89-.78-1.73-1.69-1.69-.92.04-1.69.74-1.69,1.69v17.25c0,.92.78,1.69,1.69,1.69h35.86c1.66,0,3.33.06,4.99,0,.02,0,.05,0,.07,0,.92,0,1.69-.78,1.69-1.69v-17.25c0-.89-.78-1.73-1.69-1.69-.92.04-1.69.74-1.69,1.69"/>
        <path class="cls-4" d="m65.65,55.59c-3.26-1.25-6.52-2.5-9.78-3.75l-15.61-5.98c-1.2-.46-2.4-.92-3.6-1.38-.55-.21-1.25.04-1.65.44-.45.45-.55,1.04-.44,1.65.5,2.64,1,5.28,1.5,7.93.8,4.21,1.59,8.43,2.39,12.64.18.97.37,1.94.55,2.91.17.9,1.25,1.41,2.08,1.18.94-.26,1.35-1.18,1.18-2.08-.5-2.64-1-5.28-1.5-7.93-.8-4.21-1.59-8.43-2.39-12.64-.18-.97-.37-1.94-.55-2.91-.69.69-1.39,1.39-2.08,2.08,3.26,1.25,6.52,2.5,9.78,3.75,5.2,1.99,10.41,3.99,15.61,5.98,1.2.46,2.4.92,3.6,1.38.83.32,1.89-.35,2.08-1.18.22-.97-.29-1.74-1.18-2.08"/>
        <path class="cls-4" d="m30.6,87.18c0-.47.02-.95.05-1.42.02-.26.05-.52.07-.78,0-.06.04-.33,0-.01.02-.15.04-.31.07-.46.16-.95.39-1.9.69-2.81.14-.43.3-.85.47-1.27-.12.31.08-.18.13-.28.11-.25.23-.5.36-.74.42-.82.89-1.6,1.42-2.35.07-.1.14-.2.22-.3.05-.07.25-.33.05-.07.12-.16.24-.31.37-.46.31-.38.64-.75.99-1.1.31-.32.63-.63.96-.92.16-.15.33-.29.5-.44.09-.08.19-.16.29-.23.06-.05.41-.31.12-.1.71-.53,1.46-1.02,2.24-1.45.39-.22.79-.42,1.2-.61.11-.05.23-.1.34-.15.08-.03.38-.16.08-.03.23-.09.47-.19.7-.27.9-.33,1.84-.59,2.78-.78.2-.04.4-.08.61-.11.13-.02.25-.04.38-.06.3-.04-.41.04.09,0,.5-.05.99-.09,1.49-.11.98-.04,1.94.02,2.91.11.5.05-.21-.03.09,0,.13.02.26.04.38.06.2.03.4.07.61.11.5.1.99.22,1.48.36.44.12.87.26,1.29.42.21.08.42.16.63.24.27.11-.36-.16.08.03.14.06.27.12.41.18.83.39,1.64.84,2.4,1.34.19.12.37.25.55.38.08.06.16.11.24.17-.01,0,.38.28.18.13-.19-.15.19.15.18.14.08.06.15.12.23.19.19.16.38.32.56.48.7.63,1.35,1.3,1.94,2.02.06.08.13.15.19.23,0,0,.29.37.14.18-.15-.19.14.19.13.18.06.08.12.16.17.24.29.4.56.82.81,1.24.23.38.44.78.64,1.17.09.18.18.36.26.54.05.11.1.23.15.34.03.07.06.14.09.21-.06-.15-.07-.17-.03-.06.34.87.64,1.76.85,2.66.11.45.2.9.27,1.35.02.13.04.25.06.38.04.3-.04-.41,0,.09.03.26.05.52.07.78.07.97.07,1.95,0,2.92-.02.23-.04.47-.07.7-.04.34,0,.08,0,.01-.02.13-.04.26-.06.38-.08.48-.17.96-.29,1.43-.22.93-.52,1.84-.88,2.73.13-.31-.12.26-.16.35-.09.2-.19.41-.29.61-.22.44-.46.88-.72,1.3-.23.38-.48.75-.73,1.12-.11.16-.23.32-.35.48.19-.26,0,0-.05.07-.09.11-.19.23-.28.34-.58.7-1.22,1.36-1.9,1.96-.33.3-.67.58-1.02.85.26-.2,0,0-.07.05-.1.07-.2.15-.3.22-.2.14-.41.28-.61.42-.79.51-1.62.97-2.48,1.36-.1.05-.59.25-.28.13-.23.09-.47.18-.7.27-.45.16-.91.31-1.37.44-.44.12-.89.23-1.34.32-.23.05-.45.09-.68.13-.1.02-.2.03-.31.05-.41.06.21-.02-.17.02-1,.1-1.99.15-2.99.11-.47-.02-.94-.06-1.41-.11-.34-.04-.08,0-.01,0-.13-.02-.26-.04-.38-.06-.28-.04-.56-.1-.83-.15-.92-.19-1.82-.45-2.7-.77-.21-.08-.42-.16-.63-.24.31.13-.26-.12-.35-.16-.43-.2-.85-.41-1.26-.64-.39-.22-.77-.45-1.15-.69-.19-.12-.37-.25-.55-.37-.1-.07-.2-.14-.3-.22-.06-.04-.41-.31-.13-.09-.72-.56-1.4-1.17-2.03-1.83-.31-.32-.6-.65-.89-.99-.14-.17-.28-.34-.42-.52.19.25.03.04,0-.01-.09-.12-.18-.24-.26-.36-.54-.77-1.03-1.58-1.45-2.42-.1-.2-.2-.4-.29-.61-.04-.09-.28-.66-.16-.35-.19-.47-.36-.94-.51-1.42-.29-.9-.5-1.82-.65-2.75-.02-.13-.04-.25-.06-.38,0,.07.04.33,0-.01-.02-.23-.05-.47-.07-.7-.04-.5-.06-1-.06-1.5,0-.89-.78-1.73-1.69-1.69-.91.04-1.7.74-1.69,1.69.02,4.25,1.31,8.5,3.8,11.96,2.49,3.46,5.91,6.08,9.91,7.56,8.06,2.96,17.55.37,22.98-6.27,2.73-3.34,4.37-7.36,4.72-11.67.35-4.26-.7-8.65-2.92-12.3-2.13-3.51-5.33-6.42-9.08-8.11-4.04-1.82-8.5-2.35-12.86-1.48-8.25,1.63-14.98,8.59-16.28,16.9-.18,1.13-.29,2.27-.29,3.42,0,.89.78,1.73,1.69,1.69.92-.04,1.69-.74,1.69-1.69"/>
        <path class="cls-4" d="m40.66,87.18c0-.21,0-.42.02-.63,0-.13.02-.26.04-.39.03-.27-.05.26,0,0,.08-.42.17-.84.3-1.25.04-.12.08-.24.12-.36.02-.04.13-.34.05-.15-.08.19.04-.1.06-.14.04-.09.08-.18.13-.27.2-.4.43-.77.68-1.14.03-.04.21-.29.09-.12-.12.16.07-.08.1-.12.14-.17.29-.33.44-.49.14-.14.28-.28.42-.41.07-.07.15-.13.22-.19.03-.03.34-.27.17-.14-.19.15.19-.14.18-.13.08-.06.16-.11.25-.16.17-.11.33-.21.51-.3.17-.1.35-.19.53-.27.09-.04.18-.08.27-.12-.34.14.12-.04.15-.05.38-.13.77-.24,1.16-.33.08-.02.66-.11.31-.06.26-.03.52-.05.78-.06.42-.01.84,0,1.25.04.34.03.08.01,0,0,.1.02.2.03.3.05.25.05.5.11.74.17.19.05.38.12.57.18.09.03.19.07.28.11-.31-.12,0,0,.07.03.38.18.75.38,1.1.61.08.05.16.11.25.16,0,0,.38.28.18.13-.16-.12.08.07.12.1.07.06.15.13.22.19.33.29.63.61.92.95.03.04.22.28.1.12-.12-.16.06.09.09.12.11.16.22.32.32.49.12.19.22.38.33.58.05.09.09.18.13.27.02.04.18.41.09.21-.08-.19.04.1.05.15.04.12.08.24.12.36.06.19.12.39.16.58.05.2.09.4.12.6.01.06.05.33,0,0,.02.15.03.31.04.46.03.42.03.84,0,1.26,0,.12-.08.66-.03.32-.04.25-.09.5-.15.75-.1.39-.22.77-.36,1.15.12-.31-.08.18-.13.28-.11.22-.23.44-.35.65-.1.17-.21.33-.32.5-.06.08-.11.16-.17.24.18-.25.03-.04,0,0-.29.33-.58.66-.91.96-.14.13-.29.26-.45.38.28-.22-.25.17-.31.21-.35.23-.72.44-1.1.62,0,0-.44.19-.21.09.19-.08-.1.04-.15.05-.19.07-.38.13-.57.19-.22.06-.44.12-.66.17-.1.02-.2.04-.3.06-.32.06.12,0-.08.02-.44.05-.89.07-1.33.05-.21,0-.42-.02-.62-.04-.07,0-.33-.05,0,0-.13-.02-.25-.04-.38-.07-.47-.09-.92-.24-1.38-.39-.3-.1-.08-.02-.01,0-.14-.06-.27-.12-.4-.19-.22-.11-.44-.23-.65-.35-.21-.13-.41-.27-.62-.41-.05-.03-.25-.2,0,0-.1-.08-.19-.15-.28-.23-.35-.3-.68-.64-.98-.99-.06-.07-.13-.15-.19-.23.23.29-.07-.1-.09-.13-.14-.2-.27-.41-.4-.62-.11-.19-.21-.39-.31-.59-.04-.09-.08-.18-.13-.27-.08-.18.07.22-.03-.08-.16-.48-.31-.95-.41-1.45-.02-.1-.04-.2-.05-.3.05.3,0-.05-.01-.16-.02-.26-.03-.52-.03-.78,0-.89-.77-1.73-1.69-1.69-.91.04-1.7.74-1.69,1.69.04,4.52,2.87,8.48,7.08,10.06,4.07,1.52,8.99.2,11.75-3.15,2.87-3.49,3.38-8.47,1.03-12.38-2.34-3.89-6.9-5.84-11.33-4.99-4.94.95-8.49,5.5-8.54,10.47,0,.89.78,1.73,1.69,1.69.92-.04,1.69-.74,1.69-1.69"/>
        <path class="cls-4" d="m104.83,91.42c0-.34.01-.68.04-1.02.01-.18.03-.36.05-.54,0-.02.03-.28,0-.08-.03.19.02-.12.03-.16.11-.7.28-1.39.5-2.07.1-.31.21-.61.33-.92-.11.27.02-.05.06-.14.08-.18.17-.36.26-.54.3-.59.65-1.17,1.03-1.71.1-.14.2-.28.3-.42-.17.23.03-.04.1-.12.23-.28.48-.56.74-.82.22-.23.45-.45.69-.66.11-.1.22-.2.33-.29.08-.07.48-.39.23-.2.53-.4,1.09-.77,1.67-1.09.28-.16.57-.3.86-.44.06-.03.49-.21.34-.15-.18.07.05-.02.07-.03.12-.04.23-.09.35-.13.64-.23,1.3-.41,1.96-.55.15-.03.3-.06.45-.08.1-.02.2-.03.3-.05-.03,0-.27.03-.07.01.36-.04.72-.07,1.09-.08.73-.03,1.46,0,2.19.08.2.02-.04,0-.07-.01.08.01.15.02.23.04.18.03.35.06.53.1.35.07.69.15,1.03.25.31.09.62.19.93.3.16.06.33.12.49.19-.29-.11.12.05.21.1.61.28,1.19.6,1.75.97.29.19.57.39.84.59-.23-.17.04.03.12.1.15.13.3.25.45.38.49.44.95.92,1.38,1.43.06.08.34.43.15.18.09.12.18.24.26.36.2.28.39.57.57.86.18.3.35.6.5.91.07.13.13.27.2.4.04.09.25.59.13.28.25.63.46,1.27.62,1.93.08.32.14.65.2.97.02.1.03.2.05.3,0-.03-.03-.27-.01-.07.02.18.04.36.05.54.06.73.06,1.47,0,2.2-.01.15-.03.31-.04.46,0,.06-.05.33,0,0-.01.08-.02.15-.04.23-.06.35-.13.7-.21,1.05-.16.66-.37,1.3-.62,1.93.12-.32-.06.14-.1.21-.07.16-.15.31-.23.47-.16.31-.32.61-.5.91-.17.27-.34.54-.52.8-.08.12-.17.24-.26.36-.15.21.16-.19,0,0-.06.08-.12.15-.19.23-.42.51-.88.99-1.38,1.43-.13.12-.26.23-.39.34-.05.04-.36.29-.23.19.12-.1-.24.17-.3.22-.16.11-.32.22-.49.33-.56.36-1.14.69-1.75.97-.08.04-.53.22-.21.1-.14.05-.28.11-.42.16-.33.12-.66.23-1,.33-.32.09-.64.17-.96.23-.17.04-.35.07-.53.1-.08.01-.15.02-.23.04-.28.04.41-.04-.09,0-.7.07-1.41.1-2.12.08-.34-.01-.67-.04-1.01-.08-.02,0-.28-.03-.08,0,.21.03-.11-.02-.16-.03-.18-.03-.35-.06-.53-.1-.69-.14-1.37-.33-2.04-.57-.14-.05-.28-.11-.42-.16.29.12-.12-.05-.21-.1-.31-.15-.62-.3-.93-.47-.58-.32-1.14-.69-1.67-1.09.25.19-.1-.08-.17-.15-.11-.09-.22-.19-.33-.29-.27-.24-.54-.5-.79-.77-.22-.23-.43-.47-.64-.71-.04-.05-.29-.36-.19-.23.12.15-.03-.04-.05-.06-.07-.1-.14-.2-.22-.3-.38-.54-.73-1.12-1.03-1.71-.08-.15-.15-.31-.23-.47-.03-.06-.19-.42-.12-.28.07.18-.02-.05-.03-.07-.03-.09-.07-.19-.11-.28-.07-.19-.13-.38-.19-.57-.21-.65-.37-1.32-.48-1.99-.01-.08-.02-.15-.04-.23,0,.03.03.27.01.07-.02-.18-.04-.36-.05-.54-.03-.37-.04-.73-.04-1.1,0-.89-.78-1.73-1.69-1.69-.91.04-1.7.74-1.69,1.69.04,6.6,4.22,12.49,10.41,14.76,6.04,2.22,13.21.26,17.28-4.71,2.09-2.55,3.33-5.59,3.6-8.87.27-3.2-.53-6.51-2.19-9.26-3.43-5.66-10.12-8.54-16.59-7.27-6.2,1.22-11.31,6.47-12.29,12.72-.14.87-.22,1.74-.23,2.63,0,.89.78,1.73,1.69,1.69.92-.04,1.69-.74,1.69-1.69"/>
        <path class="cls-4" d="m113.16,91.42c0-.16,0-.31.02-.47.02-.34,0-.08,0-.01.04-.25.1-.5.17-.74.04-.14.09-.29.15-.42-.03.07-.14.27.01,0,.15-.26.29-.51.45-.76.26-.39-.13.14.05-.06.08-.09.16-.18.25-.27.08-.08.59-.52.32-.32.19-.15.4-.28.62-.4.09-.05.18-.09.26-.14.18-.08.18-.09,0-.01.07-.03.14-.05.21-.08.24-.08.48-.15.73-.2.09-.02.42-.06.08-.02.13-.01.26-.02.39-.03.26-.01.52,0,.79.02.29.03-.39-.09.08.02.15.03.3.06.44.11.15.04.29.09.43.14.07.02.29.13,0,0,.22.11.44.22.65.35.1.07.21.14.3.21.22.16-.27-.27.06.06.21.21.42.41.62.63-.2-.23-.03-.05,0,0,.08.12.17.24.24.37.06.1.36.71.22.39.09.23.17.47.23.72.02.1.04.2.07.3.03.2.04.2,0,0,0,.08.02.15.02.23.02.24.02.47,0,.71,0,.05-.08.55,0,.17-.02.1-.04.2-.06.3-.06.25-.13.48-.21.72-.15.44.16-.26-.07.14-.07.13-.14.26-.21.39-.06.11-.13.21-.2.31-.05.07-.26.31-.05.07-.16.19-.33.37-.51.53,0,0-.36.31-.17.15.19-.15-.19.14-.18.13-.25.17-.51.31-.77.44.06-.03.3-.1,0,0-.14.05-.28.1-.43.14-.1.03-.2.05-.29.07,0,0-.48.09-.23.05.25-.04-.25.02-.24.02-.13,0-.26,0-.39,0-.13,0-.26-.01-.39-.02-.4-.02.19.06-.16-.02-.3-.07-.58-.15-.87-.24-.45-.15.18.09-.08-.03-.15-.08-.31-.16-.46-.25-.08-.05-.17-.1-.25-.16-.08-.05-.16-.11-.24-.17.15.11.15.11,0-.01-.17-.17-.35-.35-.52-.52-.32-.33.15.26-.1-.12-.08-.12-.17-.24-.24-.37-.08-.13-.14-.26-.21-.39-.17-.3.06.22-.07-.14-.1-.29-.17-.58-.24-.87-.02-.06-.04-.33,0,0-.02-.21-.03-.42-.03-.63-.01-.89-.77-1.74-1.69-1.69-.91.04-1.71.74-1.69,1.69.04,3.11,1.97,5.81,4.87,6.91,2.78,1.05,6.18.15,8.06-2.15,1.96-2.4,2.35-5.8.73-8.51-1.61-2.7-4.72-4-7.78-3.45-3.42.62-5.84,3.8-5.89,7.2-.01.89.79,1.73,1.69,1.69.93-.04,1.68-.74,1.69-1.69"/>
        <path class="cls-4" d="m105.76,97.87h-37.99c-1.76,0-3.52-.06-5.28,0-.03,0-.05,0-.08,0-.89,0-1.73.78-1.69,1.69.04.92.74,1.69,1.69,1.69h37.99c1.76,0,3.52.06,5.28,0,.02,0,.05,0,.08,0,.89,0,1.73-.78,1.69-1.69-.04-.92-.74-1.69-1.69-1.69"/>
        <path class="cls-4" d="m67.01,101.26c.89,0,1.73-.78,1.69-1.69-.04-.92-.74-1.69-1.69-1.69-.89,0-1.73.78-1.69,1.69.04.92.74,1.69,1.69,1.69"/>
        <path class="cls-4" d="m37.83,45.66c-.32-1.47-.63-2.95-.95-4.42-.76-3.54-1.52-7.08-2.28-10.62-.91-4.26-1.83-8.53-2.74-12.79-.79-3.7-1.59-7.41-2.38-11.11-.38-1.79-.67-3.64-1.16-5.4,0-.02-.01-.05-.02-.08C28.15.52,27.38,0,26.67,0h-13.05C12.61,0,11.58,1.1,11.99,2.14c.86,2.2,1.72,4.4,2.58,6.6,2.06,5.29,4.13,10.57,6.19,15.86l7.49,19.19c2.16,5.53,4.32,11.06,6.48,16.6,1.05,2.69,2.09,5.39,3.15,8.08.02.04.03.08.05.12.33.85,1.14,1.44,2.08,1.18.81-.22,1.52-1.23,1.18-2.08-.86-2.2-1.72-4.4-2.58-6.6-2.06-5.29-4.13-10.57-6.19-15.86-2.5-6.4-5-12.79-7.49-19.19-2.16-5.53-4.32-11.06-6.48-16.6-.71-1.83-1.43-3.66-2.15-5.5-.33-.86-.63-1.74-1.01-2.58-.02-.04-.03-.08-.05-.12-.54.71-1.09,1.43-1.63,2.14h13.05c-.54-.41-1.09-.83-1.63-1.24.32,1.47.63,2.95.95,4.42.76,3.54,1.52,7.08,2.28,10.62.91,4.26,1.83,8.53,2.74,12.79l2.38,11.11c.38,1.79.69,3.63,1.16,5.4,0,.02.01.05.02.08.19.89,1.24,1.42,2.08,1.18.93-.25,1.38-1.19,1.18-2.08"/>
        <path class="cls-4" d="m107.48,68.24c4.82.86,9.58,2.09,14.14,3.85.49.19.97.38,1.45.58.29.12-.36-.15.12.05.1.04.2.08.3.13.29.13.58.26.87.39.94.43,1.87.88,2.78,1.36,1.71.9,3.36,1.89,4.95,2.99.34.23.67.47,1,.72.18.13.36.27.54.41-.29-.22-.05-.04.03.02.12.1.24.19.36.29.67.54,1.33,1.1,1.96,1.69,1.18,1.09,2.29,2.27,3.3,3.52.11.14.22.28.33.41-.3-.38.09.12.16.21.24.32.47.65.7.98.41.6.8,1.22,1.16,1.85.36.63.7,1.28,1,1.93.08.16.15.32.22.49.04.08.07.16.11.24.1.22-.16-.4-.03-.06.13.33.26.65.38.98.53,1.45.92,2.94,1.16,4.47.01.07.02.13.03.2.07.42,0-.1,0,0,.02.18.05.36.06.55.04.36.07.73.09,1.1.04.71-.03,1.43.03,2.14.14,1.9,2.7,2.3,3.33.45.12-.35.09-.86.02-1.21-.31-1.63-2.93-1.6-3.27,0-.04.2-.06.4-.08.6l1.69-1.69h-15.71c-.73,0-1.46,0-2.19,0-.89,0-1.73.78-1.69,1.69.04.92.74,1.69,1.69,1.69,5.24,0,10.47,0,15.71,0h2.19c.99,0,1.6-.78,1.69-1.69.02-.21,0-.12-.04.3h-3.27c-.11-.54-.07-.51-.07-.3,0,.21-.16.3.05-.3,1.11.15,2.22.3,3.33.45-.05-.64.02-1.3-.01-1.94-.03-.67-.1-1.33-.18-1.99-.2-1.5-.5-2.98-.96-4.43-.93-2.95-2.38-5.74-4.22-8.22-4.57-6.16-11.08-10.51-18.09-13.48-5.21-2.2-10.66-3.7-16.22-4.7-.87-.16-1.87.23-2.08,1.18-.19.83.25,1.92,1.18,2.08"/>
        <path class="cls-4" d="m13.62,0H1.7C.81,0-.04.78,0,1.69c.04.92.74,1.69,1.69,1.69h11.92c.89,0,1.73-.78,1.69-1.69-.04-.92-.74-1.69-1.69-1.69"/>
      </g>
    </g>
  </g>
</svg>