<?xml version="1.0" encoding="UTF-8"?>
<svg id="Livello_2" data-name="Livello 2" xmlns="http://www.w3.org/2000/svg" xmlns:xlink="http://www.w3.org/1999/xlink" viewBox="0 0 82.04 137.9">
  <defs>
    <style>
      .cls-1, .cls-2, .cls-3 {
        fill: none;
      }

      .cls-2 {
        clip-path: url(#clippath);
      }

      .cls-3 {
        clip-path: url(#clippath-1);
      }

      .cls-4 {
        fill: #010101;
      }
    </style>
    <clipPath id="clippath">
      <rect class="cls-1" x="0" width="82.04" height="137.9"/>
    </clipPath>
    <clipPath id="clippath-1">
      <rect class="cls-1" x="0" width="82.04" height="137.9"/>
    </clipPath>
  </defs>
  <g id="valigia_da_viaggio" data-name="valigia da viaggio">
    <g class="cls-2">
      <g class="cls-3">
        <path class="cls-4" d="m3.69,120.19V25.39c0-.11,0-.23,0-.34,0-.02,0-.05,0-.07h0c0-.13,0-.24.01-.35,0-.03.04-.3,0-.09-.03.21.03-.13.04-.17.04-.19.1-.37.16-.56.1-.32-.1.13.07-.16.08-.14.16-.28.24-.42.04-.07.09-.13.14-.2.16-.22-.18.19.01,0,.11-.12.22-.23.34-.35.06-.06.12-.11.18-.16-.02.02-.23.16-.06.04.13-.09.27-.18.41-.26.1-.06.53-.26.22-.13.31-.12.63-.2.95-.27-.35.07.23,0,.36,0,.02,0,.04,0,.07,0,1.2-.01,2.39,0,3.59,0h61.61c1.07,0,2.14-.01,3.21,0,0,0,.01,0,.02,0,.05,0,.12,0,.17,0,.09,0,.17.01.26.02.29.02-.27-.06.01,0,.19.04.38.08.56.14.12.04.45.19.17.05.15.07.29.15.43.23.07.04.14.09.2.13.03.02.29.22.14.09-.13-.11.18.18.23.23s.34.37.23.23c-.11-.13.14.21.18.27.1.16.19.33.27.5-.14-.28.02.05.05.17.05.16.09.32.13.48.08.34.01-.18.03.18,0,.12,0,.23.01.35,0,.19,0,.38,0,.57v94.27c0,.1,0,.21,0,.31,0,.02,0,.04,0,.06,0,.06,0,.12,0,.18,0,.13-.07.5,0,.18-.04.19-.08.38-.13.57-.02.07-.17.47-.11.32.07-.16-.12.22-.16.29-.08.14-.17.27-.26.41-.12.17.02-.03.04-.06-.07.08-.14.16-.22.24-.11.12-.23.22-.35.33.24-.22-.11.08-.21.14-.14.09-.28.16-.42.24-.18.1.04,0,.07-.02-.1.04-.21.08-.31.11-.16.05-.32.09-.48.13-.34.08.18.01-.18.03-.12,0-.23.01-.35.01-.03,0-.05,0-.08,0-.4,0-.8,0-1.21,0H7.68c-.3,0-.6,0-.89,0-.14,0-.72-.07-.38,0-.32-.06-.65-.14-.95-.27.29.12-.05-.04-.15-.09-.14-.08-.28-.17-.41-.26-.27-.18.09.13-.13-.11-.11-.12-.23-.23-.34-.34-.05-.04-.23-.27-.02,0-.05-.06-.1-.13-.14-.2-.09-.14-.17-.28-.25-.42-.04-.07-.07-.14-.11-.22.01.03.1.27.03.06-.06-.16-.11-.31-.15-.47-.02-.07-.11-.51-.08-.33.03.21,0-.07,0-.09,0-.12,0-.23-.01-.34-.02-.96-.84-1.89-1.85-1.85-.99.04-1.86.81-1.85,1.85.06,3.62,2.89,6.57,6.51,6.76.32.02.64,0,.95,0h66.55c.39,0,.79,0,1.18,0,2.42-.03,4.7-1.26,5.93-3.38.9-1.55.91-3.15.91-4.85V25.47c0-.28,0-.57-.01-.85-.25-3.58-3.15-6.37-6.76-6.42-.96-.01-1.91,0-2.87,0H10.4c-1.19,0-2.38-.01-3.57,0-2.5.03-4.93,1.38-6.07,3.66C.23,22.92,0,24.05,0,25.23v94.96c0,.97.85,1.89,1.85,1.85,1-.04,1.85-.81,1.85-1.85"/>
        <path class="cls-4" d="m56.2,7.88h-30.36c-1,0-1.85.85-1.85,1.85v9.51c0,1,.85,1.85,1.85,1.85h30.36c1,0,1.85-.85,1.85-1.85v-9.51c0-.97-.85-1.89-1.85-1.85-1,.04-1.85.81-1.85,1.85v9.51l1.85-1.85h-30.36l1.85,1.85v-9.51l-1.85,1.85h30.36c.97,0,1.89-.85,1.85-1.85-.04-1-.81-1.85-1.85-1.85"/>
        <path class="cls-4" d="m61.78,126.96c.97,0,1.89-.85,1.85-1.85-.04-1-.81-1.85-1.85-1.85-.97,0-1.89.85-1.85,1.85.04,1,.81,1.85,1.85,1.85"/>
        <path class="cls-4" d="m22.1,19.23v-6.35c0-2.09-.07-4.2,0-6.29,0-.12.01-.24.02-.36-.04.39.04-.17.05-.21.05-.23.12-.44.2-.66.17-.5-.1.17.05-.1.06-.12.13-.25.2-.36.06-.09.12-.18.18-.27-.21.31.08-.09.12-.13.09-.1.19-.19.28-.28.07-.07.36-.25.06-.05.17-.11.35-.22.54-.31-.33.17-.05.01.06-.02.12-.03.25-.07.37-.1.34-.09.05,0-.03,0,.23-.01.08,0,.32-.01.3,0,.59,0,.89,0h30.26c.54,0,1.08,0,1.62,0,.08,0,.16,0,.23,0-.17,0,.29,0,.24,0,.27-.02-.39-.12.05,0,.1.03.2.05.3.08,0,0,.46.19.21.07-.25-.12.19.12.19.12.09.05.17.11.26.17-.28-.18-.07-.06,0,0,.13.13.27.26.4.39.07.07.25.35.06.07.06.09.12.18.18.27.06.09.1.2.16.29.27.43-.05-.19.06.1.09.24.17.49.23.74,0-.02.09.54.06.28-.02-.18.01.32.01.39,0,.2,0,.4,0,.6v11.95c0,.97.85,1.89,1.85,1.85,1-.04,1.85-.81,1.85-1.85v-10.87c0-1,.03-1.99-.14-2.99-.43-2.46-2.33-4.78-4.85-5.25-.61-.11-1.19-.12-1.8-.12h-30.72C25.62,0,25.13,0,24.63,0c-1.68,0-3.32.7-4.44,1.98-1.25,1.45-1.79,3.21-1.79,5.11v12.14c0,.97.85,1.89,1.85,1.85,1-.04,1.85-.81,1.85-1.85"/>
        <path class="cls-4" d="m20.26,126.96c.97,0,1.89-.85,1.85-1.85-.04-1-.81-1.85-1.85-1.85-.97,0-1.89.85-1.85,1.85.04,1,.81,1.85,1.85,1.85"/>
        <path class="cls-4" d="m33.51,19.66v100.92c0,1.37-.02,2.74,0,4.11,0,.06,0,.12,0,.18,0,.97.85,1.89,1.85,1.85,1-.04,1.85-.81,1.85-1.85V23.95c0-1.37.02-2.74,0-4.11,0-.06,0-.12,0-.18,0-.97-.85-1.89-1.85-1.85-1,.04-1.85.81-1.85,1.85"/>
        <path class="cls-4" d="m44.77,19.23v101.56c0,1.38-.02,2.76,0,4.14,0,.06,0,.12,0,.18,0,.97.85,1.89,1.85,1.85,1-.04,1.85-.81,1.85-1.85V23.55c0-1.38.02-2.76,0-4.14,0-.06,0-.12,0-.18,0-.97-.85-1.89-1.85-1.85-1,.04-1.85.81-1.85,1.85"/>
        <path class="cls-4" d="m8.39,20.05v100.8c0,1.36-.02,2.73,0,4.09,0,.06,0,.12,0,.18,0,.97.85,1.89,1.85,1.85,1-.04,1.85-.81,1.85-1.85V24.31c0-1.36.02-2.73,0-4.09,0-.06,0-.12,0-.18,0-.97-.85-1.89-1.85-1.85-1,.04-1.85.81-1.85,1.85"/>
        <path class="cls-4" d="m68.83,20.05v100.8c0,1.36-.02,2.73,0,4.09,0,.06,0,.12,0,.18,0,.97.85,1.89,1.85,1.85,1-.04,1.85-.81,1.85-1.85V24.31c0-1.36.02-2.73,0-4.09,0-.06,0-.12,0-.18,0-.97-.85-1.89-1.85-1.85-1,.04-1.85.81-1.85,1.85"/>
        <path class="cls-4" d="m20.83,20.05v100.57c0,1.36-.03,2.72,0,4.07,0,.06,0,.12,0,.18,0,.97.85,1.89,1.85,1.85,1-.04,1.85-.81,1.85-1.85V24.3c0-1.36.03-2.72,0-4.08,0-.06,0-.12,0-.18,0-.97-.85-1.89-1.85-1.85-1,.04-1.85.81-1.85,1.85"/>
        <path class="cls-4" d="m56.89,19.66v100.92c0,1.37-.02,2.74,0,4.11,0,.06,0,.12,0,.18,0,.97.85,1.89,1.85,1.85,1-.04,1.85-.81,1.85-1.85V23.95c0-1.37.02-2.74,0-4.11,0-.06,0-.12,0-.18,0-.97-.85-1.89-1.85-1.85-1,.04-1.85.81-1.85,1.85"/>
        <path class="cls-4" d="m12.09,130.46c0-.16.01-.31.02-.47.02-.35,0-.04,0,.03.05-.25.1-.49.17-.73.04-.14.09-.28.15-.42-.03.07-.17.33,0,.04.14-.26.29-.51.45-.75.24-.36-.18.12.03-.03.09-.07.17-.19.25-.27.09-.09.64-.55.28-.29.19-.15.4-.28.61-.4.09-.05.18-.09.26-.14.3-.17-.27.07.17-.07.24-.07.48-.15.72-.2.11-.02.45-.06.04-.02.13-.01.26-.02.39-.03.26-.01.52.01.78.02.3.01-.43-.1.04,0,.15.03.29.06.44.1.14.04.28.09.43.14.1.03.28.16-.03-.02.22.12.44.22.64.35.1.06.2.14.3.21.23.14-.29-.29.03.03.21.21.41.42.61.63-.24-.25-.08-.11-.02-.03.08.12.16.24.24.37.07.11.37.77.21.35.09.23.17.47.23.71.02.1.04.2.07.29.08.36-.01-.3.02.19.02.23.02.47,0,.7,0,.09-.09.57,0,.12-.02.1-.04.2-.06.3-.05.24-.13.48-.21.72-.15.45.19-.31-.05.1-.07.13-.14.26-.21.39-.06.1-.13.2-.2.31-.06.09-.28.32-.02.03-.16.18-.32.36-.5.53,0,0-.36.32-.15.14.21-.18-.15.11-.17.12-.25.16-.5.3-.77.43.06-.03.35-.13.03-.02-.14.05-.28.1-.43.14-.1.03-.19.05-.29.07,0,0-.5.09-.2.05.29-.05-.2.01-.21.01-.13,0-.26,0-.39,0-.13,0-.26-.01-.39-.02-.43-.01.27.08-.11-.02-.29-.07-.58-.15-.86-.24-.42-.14.17.14-.04-.02-.13-.1-.31-.16-.45-.24-.08-.05-.17-.1-.25-.16-.08-.05-.16-.11-.24-.17.18.14.19.14.03.01-.17-.17-.34-.34-.51-.51-.33-.33.18.31-.07-.08-.08-.12-.16-.24-.24-.37-.08-.13-.14-.26-.21-.39-.19-.33.08.29-.05-.1-.09-.29-.17-.57-.24-.86-.02-.09-.03-.35,0,.04-.02-.21-.03-.41-.03-.62-.01-.97-.84-1.89-1.85-1.85-.99.04-1.86.81-1.85,1.85.04,3.16,2,5.89,4.95,7.01,2.8,1.06,6.25.14,8.15-2.18,1.99-2.43,2.39-5.88.75-8.63-1.64-2.74-4.79-4.05-7.89-3.49-3.46.62-5.91,3.85-5.95,7.29-.01.97.86,1.89,1.85,1.85,1.01-.05,1.83-.81,1.85-1.85"/>
        <path class="cls-4" d="m60.59,130.46c0-.16.01-.31.02-.47.02-.35,0-.04,0,.03.05-.25.1-.49.17-.73.04-.14.09-.28.15-.42-.03.07-.17.33,0,.04.14-.26.29-.51.45-.75.24-.36-.18.12.03-.03.09-.07.17-.19.25-.27.09-.09.64-.55.28-.29.19-.15.4-.28.61-.4.09-.05.18-.09.26-.14.3-.17-.27.07.17-.07.24-.07.48-.15.72-.2.11-.02.45-.06.04-.02.13-.01.26-.02.39-.03.26-.01.52.01.78.02.3.01-.43-.1.04,0,.15.03.29.06.44.1.14.04.28.09.43.14.1.03.28.16-.03-.02.22.12.44.22.64.35.1.06.2.14.3.21.23.14-.29-.29.03.03.21.21.41.42.61.63-.24-.25-.08-.11-.02-.03.08.12.16.24.24.37.07.11.37.77.21.35.09.23.17.47.23.71.02.1.04.2.07.29.08.36-.01-.3.02.19.02.23.02.47,0,.7,0,.09-.09.57,0,.12-.02.1-.04.2-.06.3-.05.24-.13.48-.21.72-.15.45.19-.31-.05.1-.07.13-.14.26-.21.39-.06.1-.13.2-.2.31-.06.09-.28.32-.02.03-.16.18-.32.36-.5.53,0,0-.36.32-.15.14.21-.18-.15.11-.17.12-.25.16-.5.3-.77.43.06-.03.35-.13.03-.02-.14.05-.28.1-.43.14-.1.03-.19.05-.29.07,0,0-.5.09-.2.05.29-.05-.2.01-.21.01-.13,0-.26,0-.39,0-.13,0-.26-.01-.39-.02-.43-.01.27.08-.11-.02-.29-.07-.58-.15-.86-.24-.42-.14.17.14-.04-.02-.13-.1-.31-.16-.45-.24-.08-.05-.17-.1-.25-.16-.08-.05-.16-.11-.24-.17.18.14.19.14.03.01-.17-.17-.34-.34-.51-.51-.33-.33.18.31-.07-.08-.08-.12-.16-.24-.24-.37-.08-.13-.14-.26-.21-.39-.19-.33.08.29-.05-.1-.09-.29-.17-.57-.24-.86-.02-.09-.03-.35,0,.04-.02-.21-.03-.41-.03-.62-.01-.97-.84-1.89-1.85-1.85-.99.04-1.86.81-1.85,1.85.04,3.16,2,5.89,4.95,7.01,2.8,1.06,6.25.14,8.15-2.18,1.99-2.43,2.39-5.88.75-8.63-1.64-2.74-4.79-4.05-7.89-3.49-3.46.62-5.91,3.85-5.95,7.29-.01.97.86,1.89,1.85,1.85,1.01-.05,1.83-.81,1.85-1.85"/>
      </g>
    </g>
  </g>
</svg>