<?xml version="1.0" encoding="UTF-8"?>
<svg id="Livello_2" data-name="Livello 2" xmlns="http://www.w3.org/2000/svg" xmlns:xlink="http://www.w3.org/1999/xlink" viewBox="0 0 78.3 126.74">
  <defs>
    <style>
      .cls-1, .cls-2, .cls-3 {
        fill: none;
      }

      .cls-2 {
        clip-path: url(#clippath);
      }

      .cls-3 {
        clip-path: url(#clippath-1);
      }

      .cls-4 {
        fill: #1d1d1c;
      }
    </style>
    <clipPath id="clippath">
      <rect class="cls-1" width="78.3" height="126.74"/>
    </clipPath>
    <clipPath id="clippath-1">
      <rect class="cls-1" width="78.3" height="126.74"/>
    </clipPath>
  </defs>
  <g id="vetrina">
    <g class="cls-2">
      <g class="cls-3">
        <path class="cls-4" d="m77.35,84.33H4.05c-.99,0-1.99-.04-2.97,0-.04,0-.09,0-.13,0l.93.93V4.36c0-1.09.04-2.19,0-3.28,0-.05,0-.1,0-.14l-.93.93h73.3c.99,0,1.98.04,2.97,0,.04,0,.09,0,.13,0l-.93-.93v80.9c0,1.09-.02,2.19,0,3.28,0,.05,0,.1,0,.14,0,1.2,1.86,1.2,1.86,0V4.36c0-1.09.02-2.19,0-3.28,0-.05,0-.1,0-.14,0-.5-.43-.93-.93-.93H4.05C3.06,0,2.07-.01,1.08,0c-.04,0-.09,0-.13,0C.45,0,.02.43.02.94v80.9c0,1.09-.02,2.19,0,3.28,0,.05,0,.1,0,.14,0,.5.43.93.93.93h73.3c.99,0,1.98.02,2.97,0,.04,0,.09,0,.13,0,1.2,0,1.2-1.86,0-1.86"/>
        <path class="cls-4" d="m39.22,86.19c.49,0,.95-.43.93-.93-.02-.5-.41-.93-.93-.93-.49,0-.95.43-.93.93.02.5.41.93.93.93"/>
        <path class="cls-4" d="m.95,106.46h73.29c.99,0,1.98.02,2.97,0,.04,0,.09,0,.13,0,1.2,0,1.2-1.86,0-1.86H4.05c-.99,0-1.98-.02-2.97,0-.04,0-.09,0-.13,0-1.2,0-1.2,1.86,0,1.86"/>
        <path class="cls-4" d="m34.47,100.61h9.99c.49,0,.95-.43.93-.93-.02-.5-.41-.93-.93-.93h-9.99c-.49,0-.95.43-.93.93.02.5.41.93.93.93"/>
        <path class="cls-4" d="m34.47,117.19h9.99c.49,0,.95-.43.93-.93-.02-.5-.41-.93-.93-.93h-9.99c-.49,0-.95.43-.93.93.02.5.41.93.93.93"/>
        <path class="cls-4" d="m.95,1.87c.49,0,.95-.43.93-.93C1.86.43,1.47,0,.95,0,.47,0,0,.44.02.94c.02.5.41.93.93.93"/>
        <path class="cls-4" d="m35.23,79.77H6.42c-.39,0-.79-.03-1.18,0-.02,0-.03,0-.05,0l.93.93V8.98c0-.97.03-1.94,0-2.91,0-.04,0-.08,0-.13l-.93.93h28.82c.39,0,.79.03,1.18,0,.02,0,.03,0,.05,0l-.93-.93v71.72c0,.97-.02,1.94,0,2.91,0,.04,0,.08,0,.13,0,1.2,1.86,1.2,1.86,0V8.98c0-.97.02-1.94,0-2.91,0-.04,0-.08,0-.13,0-.5-.43-.93-.93-.93H8.87c-1.21,0-2.43-.04-3.64,0-.02,0-.03,0-.05,0-.5,0-.93.43-.93.93v71.72c0,.97-.02,1.94,0,2.91,0,.04,0,.08,0,.13,0,.5.43.93.93.93h26.36c1.21,0,2.43.04,3.64,0,.02,0,.03,0,.05,0,1.2,0,1.2-1.86,0-1.86"/>
        <path class="cls-4" d="m73.28,79.54h-28.82c-.39,0-.79-.03-1.18,0-.02,0-.03,0-.05,0l.93.93V8.76c0-.97.03-1.94,0-2.91,0-.04,0-.08,0-.13l-.93.93h28.82c.39,0,.79.03,1.18,0,.02,0,.03,0,.05,0l-.93-.93v71.72c0,.97-.02,1.94,0,2.91,0,.04,0,.08,0,.13,0,1.2,1.86,1.2,1.86,0V8.76c0-.97.02-1.94,0-2.91,0-.04,0-.08,0-.13,0-.5-.43-.93-.93-.93h-26.36c-1.21,0-2.43-.04-3.64,0-.02,0-.03,0-.05,0-.5,0-.93.43-.93.93v71.72c0,.97-.02,1.94,0,2.91,0,.04,0,.08,0,.13,0,.5.43.93.93.93h26.36c1.21,0,2.43.04,3.64,0,.02,0,.03,0,.05,0,1.2,0,1.2-1.86,0-1.86"/>
        <path class="cls-4" d="m76.42,85.26v38.89c0,.53-.03,1.06,0,1.59,0,.02,0,.05,0,.07l.93-.93H4.05c-.99,0-1.98-.03-2.97,0-.04,0-.09,0-.13,0l.93.93v-35.54c0-1.64.05-3.3,0-4.94,0-.02,0-.05,0-.07,0-1.2-1.86-1.2-1.86,0v35.54c0,1.64-.05,3.3,0,4.94,0,.02,0,.05,0,.07,0,.5.43.93.93.93h73.3c.99,0,1.98.02,2.97,0,.04,0,.09,0,.13,0,.5,0,.93-.43.93-.93v-35.54c0-1.64.05-3.3,0-4.94,0-.02,0-.05,0-.07,0-1.2-1.86-1.2-1.86,0"/>
        <path class="cls-4" d="m40.08,85.26V4.36c0-1.09.02-2.19,0-3.28,0-.05,0-.1,0-.14,0-1.2-1.86-1.2-1.86,0v80.9c0,1.09-.02,2.19,0,3.28,0,.05,0,.1,0,.14,0,1.2,1.86,1.2,1.86,0"/>
        <path class="cls-4" d="m77.35,1.87c.49,0,.95-.43.93-.93-.02-.5-.41-.93-.93-.93-.49,0-.95.43-.93.93.02.5.41.93.93.93"/>
        <path class="cls-4" d="m35.23,47h3.92c.49,0,.95-.43.93-.93-.02-.5-.41-.93-.93-.93h-3.92c-.49,0-.95.43-.93.93.02.5.41.93.93.93"/>
        <path class="cls-4" d="m39.15,54.41h-3.92c-.49,0-.95.43-.93.93.02.5.41.93.93.93h3.92c.49,0,.95-.43.93-.93-.02-.5-.41-.93-.93-.93"/>
        <path class="cls-4" d="m39.2,47h3.92c.49,0,.95-.43.93-.93-.02-.5-.41-.93-.93-.93h-3.92c-.49,0-.95.43-.93.93.02.5.41.93.93.93"/>
        <path class="cls-4" d="m43.12,54.41h-3.92c-.49,0-.95.43-.93.93.02.5.41.93.93.93h3.92c.49,0,.95-.43.93-.93-.02-.5-.41-.93-.93-.93"/>
        <path class="cls-4" d="m34.8,26.77H6.39c-.38,0-.77-.02-1.15,0-.02,0-.03,0-.05,0l.93.93v-3.14l-.93.93h28.42c.38,0,.77.02,1.15,0,.02,0,.03,0,.05,0l-.93-.93v3.14c0,.49.43.95.93.93.5-.02.93-.41.93-.93v-3.14c0-.5-.43-.93-.93-.93H8.82c-1.19,0-2.4-.04-3.59,0-.02,0-.03,0-.05,0-.5,0-.93.43-.93.93v3.14c0,.5.43.93.93.93h25.98c1.19,0,2.4.04,3.59,0,.02,0,.03,0,.05,0,.49,0,.95-.43.93-.93-.02-.5-.41-.93-.93-.93"/>
        <path class="cls-4" d="m34.8,63.74H6.39c-.38,0-.77-.02-1.15,0-.02,0-.03,0-.05,0l.93.93v-3.14l-.93.93h28.42c.38,0,.77.02,1.15,0,.02,0,.03,0,.05,0l-.93-.93v3.14c0,.49.43.95.93.93.5-.02.93-.41.93-.93v-3.14c0-.5-.43-.93-.93-.93H8.82c-1.19,0-2.4-.04-3.59,0-.02,0-.03,0-.05,0-.5,0-.93.43-.93.93v3.14c0,.5.43.93.93.93h25.98c1.19,0,2.4.04,3.59,0,.02,0,.03,0,.05,0,.49,0,.95-.43.93-.93-.02-.5-.41-.93-.93-.93"/>
        <path class="cls-4" d="m34.8,44.64H6.39c-.38,0-.77-.02-1.15,0-.02,0-.03,0-.05,0l.93.93v-3.14l-.93.93h28.42c.38,0,.77.02,1.15,0,.02,0,.03,0,.05,0l-.93-.93v3.14c0,.49.43.95.93.93.5-.02.93-.41.93-.93v-3.14c0-.5-.43-.93-.93-.93H8.82c-1.19,0-2.4-.04-3.59,0-.02,0-.03,0-.05,0-.5,0-.93.43-.93.93v3.14c0,.5.43.93.93.93h25.98c1.19,0,2.4.04,3.59,0,.02,0,.03,0,.05,0,.49,0,.95-.43.93-.93-.02-.5-.41-.93-.93-.93"/>
        <path class="cls-4" d="m35.23,79.77H6.42c-.39,0-.79-.03-1.18,0-.02,0-.03,0-.05,0l.93.93V8.98c0-.97.03-1.94,0-2.91,0-.04,0-.08,0-.13l-.93.93h28.82c.39,0,.79.03,1.18,0,.02,0,.03,0,.05,0l-.93-.93v71.72c0,.97-.02,1.94,0,2.91,0,.04,0,.08,0,.13,0,1.2,1.86,1.2,1.86,0V8.98c0-.97.02-1.94,0-2.91,0-.04,0-.08,0-.13,0-.5-.43-.93-.93-.93H8.87c-1.21,0-2.43-.04-3.64,0-.02,0-.03,0-.05,0-.5,0-.93.43-.93.93v71.72c0,.97-.02,1.94,0,2.91,0,.04,0,.08,0,.13,0,.5.43.93.93.93h26.36c1.21,0,2.43.04,3.64,0,.02,0,.03,0,.05,0,1.2,0,1.2-1.86,0-1.86"/>
        <path class="cls-4" d="m34.8,26.77H6.39c-.38,0-.77-.02-1.15,0-.02,0-.03,0-.05,0l.93.93v-3.14l-.93.93h28.42c.38,0,.77.02,1.15,0,.02,0,.03,0,.05,0l-.93-.93v3.14c0,.49.43.95.93.93.5-.02.93-.41.93-.93v-3.14c0-.5-.43-.93-.93-.93H8.82c-1.19,0-2.4-.04-3.59,0-.02,0-.03,0-.05,0-.5,0-.93.43-.93.93v3.14c0,.5.43.93.93.93h25.98c1.19,0,2.4.04,3.59,0,.02,0,.03,0,.05,0,.49,0,.95-.43.93-.93-.02-.5-.41-.93-.93-.93"/>
        <path class="cls-4" d="m34.8,63.74H6.39c-.38,0-.77-.02-1.15,0-.02,0-.03,0-.05,0l.93.93v-3.14l-.93.93h28.42c.38,0,.77.02,1.15,0,.02,0,.03,0,.05,0l-.93-.93v3.14c0,.49.43.95.93.93.5-.02.93-.41.93-.93v-3.14c0-.5-.43-.93-.93-.93H8.82c-1.19,0-2.4-.04-3.59,0-.02,0-.03,0-.05,0-.5,0-.93.43-.93.93v3.14c0,.5.43.93.93.93h25.98c1.19,0,2.4.04,3.59,0,.02,0,.03,0,.05,0,.49,0,.95-.43.93-.93-.02-.5-.41-.93-.93-.93"/>
        <path class="cls-4" d="m34.8,44.64H6.39c-.38,0-.77-.02-1.15,0-.02,0-.03,0-.05,0l.93.93v-3.14l-.93.93h28.42c.38,0,.77.02,1.15,0,.02,0,.03,0,.05,0l-.93-.93v3.14c0,.49.43.95.93.93.5-.02.93-.41.93-.93v-3.14c0-.5-.43-.93-.93-.93H8.82c-1.19,0-2.4-.04-3.59,0-.02,0-.03,0-.05,0-.5,0-.93.43-.93.93v3.14c0,.5.43.93.93.93h25.98c1.19,0,2.4.04,3.59,0,.02,0,.03,0,.05,0,.49,0,.95-.43.93-.93-.02-.5-.41-.93-.93-.93"/>
        <path class="cls-4" d="m73.01,26.77h-28.42c-.38,0-.77-.02-1.15,0-.02,0-.03,0-.05,0l.93.93v-3.14l-.93.93h28.42c.38,0,.77.02,1.15,0,.02,0,.03,0,.05,0l-.93-.93v3.14c0,.49.43.95.93.93.5-.02.93-.41.93-.93v-3.14c0-.5-.43-.93-.93-.93h-25.98c-1.19,0-2.4-.04-3.59,0-.02,0-.03,0-.05,0-.5,0-.93.43-.93.93v3.14c0,.5.43.93.93.93h25.98c1.19,0,2.4.04,3.59,0,.02,0,.03,0,.05,0,.49,0,.95-.43.93-.93-.02-.5-.41-.93-.93-.93"/>
        <path class="cls-4" d="m73.01,63.74h-28.42c-.38,0-.77-.02-1.15,0-.02,0-.03,0-.05,0l.93.93v-3.14l-.93.93h28.42c.38,0,.77.02,1.15,0,.02,0,.03,0,.05,0l-.93-.93v3.14c0,.49.43.95.93.93.5-.02.93-.41.93-.93v-3.14c0-.5-.43-.93-.93-.93h-25.98c-1.19,0-2.4-.04-3.59,0-.02,0-.03,0-.05,0-.5,0-.93.43-.93.93v3.14c0,.5.43.93.93.93h25.98c1.19,0,2.4.04,3.59,0,.02,0,.03,0,.05,0,.49,0,.95-.43.93-.93-.02-.5-.41-.93-.93-.93"/>
        <path class="cls-4" d="m73.01,44.64h-28.42c-.38,0-.77-.02-1.15,0-.02,0-.03,0-.05,0l.93.93v-3.14l-.93.93h28.42c.38,0,.77.02,1.15,0,.02,0,.03,0,.05,0l-.93-.93v3.14c0,.49.43.95.93.93.5-.02.93-.41.93-.93v-3.14c0-.5-.43-.93-.93-.93h-25.98c-1.19,0-2.4-.04-3.59,0-.02,0-.03,0-.05,0-.5,0-.93.43-.93.93v3.14c0,.5.43.93.93.93h25.98c1.19,0,2.4.04,3.59,0,.02,0,.03,0,.05,0,.49,0,.95-.43.93-.93-.02-.5-.41-.93-.93-.93"/>
      </g>
    </g>
  </g>
</svg>